0
SECTION
2
HEADER
9
$ACADVER
1
AC1009
0
ENDSEC
0
SECTION
2
TABLES
0
TABLE
2
VPORT
70
1
0
VPORT
2
ACTIVE
70
0
10
0.0
20
0.0
11
0.0
21
0.0
12
0.0
22
0.0
13
0.0
23
0.0
14
0.0
24
0.0
15
0.0
25
0.0
16
0.0
26
0.0
36
0.0
17
0.0
27
0.0
37
0.0
40
0.0
41
0.0
42
0.0
43
0.0
44
0.0
50
0.0
51
0.0
71
0
72
1000
73
1
74
3
75
0
76
0
77
0
78
0
0
ENDTAB
0
ENDSEC
0
SECTION
2
ENTITIES
0
LINE
8
boundary
62
5
39
2
10
7.214046
20
29.945250
11
7.515730
21
27.671834
0
LINE
8
boundary
62
5
39
2
10
7.515730
20
27.671834
11
9.668806
21
7.328708
0
LINE
8
boundary
62
5
39
2
10
9.668806
20
7.328708
11
10.898562
21
7.095348
0
LINE
8
boundary
62
5
39
2
10
10.898562
20
7.095348
11
17.184528
21
6.820667
0
LINE
8
boundary
62
5
39
2
10
17.184528
20
6.820667
11
17.334528
21
6.830967
0
LINE
8
boundary
62
5
39
2
10
17.334528
20
6.830967
11
17.334528
21
67.434335
0
LINE
8
boundary
62
5
39
2
10
17.334528
20
67.434335
11
17.315394
21
67.438141
0
LINE
8
boundary
62
5
39
2
10
17.315394
20
67.438141
11
17.299173
21
67.448980
0
LINE
8
boundary
62
5
39
2
10
17.299173
20
67.448980
11
17.288334
21
67.465201
0
LINE
8
boundary
62
5
39
2
10
17.288334
20
67.465201
11
17.284528
21
67.484335
0
LINE
8
boundary
62
5
39
2
10
17.284528
20
67.484335
11
17.288334
21
67.503469
0
LINE
8
boundary
62
5
39
2
10
17.288334
20
67.503469
11
17.299173
21
67.519691
0
LINE
8
boundary
62
5
39
2
10
17.299173
20
67.519691
11
17.315394
21
67.530529
0
LINE
8
boundary
62
5
39
2
10
17.315394
20
67.530529
11
17.334528
21
67.534335
0
LINE
8
boundary
62
5
39
2
10
17.334528
20
67.534335
11
20.080528
21
67.534335
0
LINE
8
boundary
62
5
39
2
10
20.080528
20
67.534335
11
20.099662
21
67.530529
0
LINE
8
boundary
62
5
39
2
10
20.099662
20
67.530529
11
20.115884
21
67.519690
0
LINE
8
boundary
62
5
39
2
10
20.115884
20
67.519690
11
20.126722
21
67.503469
0
LINE
8
boundary
62
5
39
2
10
20.126722
20
67.503469
11
20.130528
21
67.484335
0
LINE
8
boundary
62
5
39
2
10
20.130528
20
67.484335
11
20.126722
21
67.465201
0
LINE
8
boundary
62
5
39
2
10
20.126722
20
67.465201
11
20.115884
21
67.448980
0
LINE
8
boundary
62
5
39
2
10
20.115884
20
67.448980
11
20.099662
21
67.438141
0
LINE
8
boundary
62
5
39
2
10
20.099662
20
67.438141
11
20.080528
21
67.434335
0
LINE
8
boundary
62
5
39
2
10
20.080528
20
67.434335
11
20.080528
21
6.858236
0
LINE
8
boundary
62
5
39
2
10
20.080528
20
6.858236
11
20.230528
21
6.847936
0
LINE
8
boundary
62
5
39
2
10
20.230528
20
6.847936
11
30.305141
21
7.290930
0
LINE
8
boundary
62
5
39
2
10
30.305141
20
7.290930
11
30.455141
21
7.301230
0
LINE
8
boundary
62
5
39
2
10
30.455141
20
7.301230
11
30.455141
21
85.141181
0
LINE
8
boundary
62
5
39
2
10
30.455141
20
85.141181
11
30.436007
21
85.144987
0
LINE
8
boundary
62
5
39
2
10
30.436007
20
85.144987
11
30.419786
21
85.155826
0
LINE
8
boundary
62
5
39
2
10
30.419786
20
85.155826
11
30.408947
21
85.172047
0
LINE
8
boundary
62
5
39
2
10
30.408947
20
85.172047
11
30.405141
21
85.191181
0
LINE
8
boundary
62
5
39
2
10
30.405141
20
85.191181
11
30.408947
21
85.210315
0
LINE
8
boundary
62
5
39
2
10
30.408947
20
85.210315
11
30.419786
21
85.226536
0
LINE
8
boundary
62
5
39
2
10
30.419786
20
85.226536
11
30.436007
21
85.237375
0
LINE
8
boundary
62
5
39
2
10
30.436007
20
85.237375
11
30.455141
21
85.241181
0
LINE
8
boundary
62
5
39
2
10
30.455141
20
85.241181
11
33.201141
21
85.241181
0
LINE
8
boundary
62
5
39
2
10
33.201141
20
85.241181
11
33.220275
21
85.237375
0
LINE
8
boundary
62
5
39
2
10
33.220275
20
85.237375
11
33.236497
21
85.226537
0
LINE
8
boundary
62
5
39
2
10
33.236497
20
85.226537
11
33.247335
21
85.210315
0
LINE
8
boundary
62
5
39
2
10
33.247335
20
85.210315
11
33.251141
21
85.191181
0
LINE
8
boundary
62
5
39
2
10
33.251141
20
85.191181
11
33.247335
21
85.172047
0
LINE
8
boundary
62
5
39
2
10
33.247335
20
85.172047
11
33.236496
21
85.155826
0
LINE
8
boundary
62
5
39
2
10
33.236496
20
85.155826
11
33.220275
21
85.144987
0
LINE
8
boundary
62
5
39
2
10
33.220275
20
85.144987
11
33.201141
21
85.141181
0
LINE
8
boundary
62
5
39
2
10
33.201141
20
85.141181
11
33.201141
21
14.427268
0
LINE
8
boundary
62
5
39
2
10
33.201141
20
14.427268
11
33.351141
21
14.416968
0
LINE
8
boundary
62
5
39
2
10
33.351141
20
14.416968
11
33.657214
21
15.315316
0
LINE
8
boundary
62
5
39
2
10
33.657214
20
15.315316
11
34.566002
21
21.506177
0
LINE
8
boundary
62
5
39
2
10
34.566002
20
21.506177
11
36.499529
21
25.917124
0
LINE
8
boundary
62
5
39
2
10
36.499529
20
25.917124
11
36.907398
21
26.689241
0
LINE
8
boundary
62
5
39
2
10
36.907398
20
26.689241
11
38.162936
21
28.228425
0
LINE
8
boundary
62
5
39
2
10
38.162936
20
28.228425
11
43.514449
21
35.565745
0
LINE
8
boundary
62
5
39
2
10
43.514449
20
35.565745
11
48.341223
21
42.082584
0
LINE
8
boundary
62
5
39
2
10
48.341223
20
42.082584
11
51.973324
21
46.609869
0
LINE
8
boundary
62
5
39
2
10
51.973324
20
46.609869
11
52.524565
21
46.877210
0
LINE
8
boundary
62
5
39
2
10
52.524565
20
46.877210
11
52.674565
21
46.949957
0
LINE
8
boundary
62
5
39
2
10
52.674565
20
46.949957
11
52.674565
21
107.977861
0
LINE
8
boundary
62
5
39
2
10
52.674565
20
107.977861
11
52.655431
21
107.981667
0
LINE
8
boundary
62
5
39
2
10
52.655431
20
107.981667
11
52.639210
21
107.992506
0
LINE
8
boundary
62
5
39
2
10
52.639210
20
107.992506
11
52.628371
21
108.008727
0
LINE
8
boundary
62
5
39
2
10
52.628371
20
108.008727
11
52.624565
21
108.027861
0
LINE
8
boundary
62
5
39
2
10
52.624565
20
108.027861
11
52.628371
21
108.046995
0
LINE
8
boundary
62
5
39
2
10
52.628371
20
108.046995
11
52.639210
21
108.063217
0
LINE
8
boundary
62
5
39
2
10
52.639210
20
108.063217
11
52.655431
21
108.074055
0
LINE
8
boundary
62
5
39
2
10
52.655431
20
108.074055
11
52.674565
21
108.077861
0
LINE
8
boundary
62
5
39
2
10
52.674565
20
108.077861
11
55.420565
21
108.077861
0
LINE
8
boundary
62
5
39
2
10
55.420565
20
108.077861
11
55.439699
21
108.074055
0
LINE
8
boundary
62
5
39
2
10
55.439699
20
108.074055
11
55.455921
21
108.063216
0
LINE
8
boundary
62
5
39
2
10
55.455921
20
108.063216
11
55.466759
21
108.046995
0
LINE
8
boundary
62
5
39
2
10
55.466759
20
108.046995
11
55.470565
21
108.027861
0
LINE
8
boundary
62
5
39
2
10
55.470565
20
108.027861
11
55.466759
21
108.008727
0
LINE
8
boundary
62
5
39
2
10
55.466759
20
108.008727
11
55.455921
21
107.992506
0
LINE
8
boundary
62
5
39
2
10
55.455921
20
107.992506
11
55.439699
21
107.981667
0
LINE
8
boundary
62
5
39
2
10
55.439699
20
107.981667
11
55.420565
21
107.977861
0
LINE
8
boundary
62
5
39
2
10
55.420565
20
107.977861
11
55.420565
21
48.364757
0
LINE
8
boundary
62
5
39
2
10
55.420565
20
48.364757
11
55.570565
21
48.354457
0
LINE
8
boundary
62
5
39
2
10
55.570565
20
48.354457
11
56.020456
21
48.572645
0
LINE
8
boundary
62
5
39
2
10
56.020456
20
48.572645
11
60.044324
21
47.849959
0
LINE
8
boundary
62
5
39
2
10
60.044324
20
47.849959
11
62.942705
21
47.940114
0
LINE
8
boundary
62
5
39
2
10
62.942705
20
47.940114
11
65.219818
21
46.829331
0
LINE
8
boundary
62
5
39
2
10
65.219818
20
46.829331
11
65.369817
21
46.839631
0
LINE
8
boundary
62
5
39
2
10
65.369817
20
46.839631
11
65.369818
21
107.403320
0
LINE
8
boundary
62
5
39
2
10
65.369818
20
107.403320
11
65.350683
21
107.407126
0
LINE
8
boundary
62
5
39
2
10
65.350683
20
107.407126
11
65.334462
21
107.417965
0
LINE
8
boundary
62
5
39
2
10
65.334462
20
107.417965
11
65.323623
21
107.434186
0
LINE
8
boundary
62
5
39
2
10
65.323623
20
107.434186
11
65.319817
21
107.453320
0
LINE
8
boundary
62
5
39
2
10
65.319817
20
107.453320
11
65.323623
21
107.472454
0
LINE
8
boundary
62
5
39
2
10
65.323623
20
107.472454
11
65.334462
21
107.488676
0
LINE
8
boundary
62
5
39
2
10
65.334462
20
107.488676
11
65.350683
21
107.499514
0
LINE
8
boundary
62
5
39
2
10
65.350683
20
107.499514
11
65.369817
21
107.503320
0
LINE
8
boundary
62
5
39
2
10
65.369817
20
107.503320
11
68.115817
21
107.503320
0
LINE
8
boundary
62
5
39
2
10
68.115817
20
107.503320
11
68.134952
21
107.499514
0
LINE
8
boundary
62
5
39
2
10
68.134952
20
107.499514
11
68.151173
21
107.488676
0
LINE
8
boundary
62
5
39
2
10
68.151173
20
107.488676
11
68.162011
21
107.472454
0
LINE
8
boundary
62
5
39
2
10
68.162011
20
107.472454
11
68.165817
21
107.453320
0
LINE
8
boundary
62
5
39
2
10
68.165817
20
107.453320
11
68.162011
21
107.434186
0
LINE
8
boundary
62
5
39
2
10
68.162011
20
107.434186
11
68.151173
21
107.417965
0
LINE
8
boundary
62
5
39
2
10
68.151173
20
107.417965
11
68.134952
21
107.407126
0
LINE
8
boundary
62
5
39
2
10
68.134952
20
107.407126
11
68.115817
21
107.403320
0
LINE
8
boundary
62
5
39
2
10
68.115817
20
107.403320
11
68.115818
21
45.102626
0
LINE
8
boundary
62
5
39
2
10
68.115818
20
45.102626
11
69.258952
21
44.309230
0
LINE
8
boundary
62
5
39
2
10
69.258952
20
44.309230
11
75.490479
21
42.445201
0
LINE
8
boundary
62
5
39
2
10
75.490479
20
42.445201
11
81.289601
21
44.143943
0
LINE
8
boundary
62
5
39
2
10
81.289601
20
44.143943
11
82.677156
21
45.046984
0
LINE
8
boundary
62
5
39
2
10
82.677156
20
45.046984
11
82.827155
21
45.144606
0
LINE
8
boundary
62
5
39
2
10
82.827155
20
45.144606
11
82.827156
21
107.116094
0
LINE
8
boundary
62
5
39
2
10
82.827156
20
107.116094
11
82.808022
21
107.119900
0
LINE
8
boundary
62
5
39
2
10
82.808022
20
107.119900
11
82.791800
21
107.130739
0
LINE
8
boundary
62
5
39
2
10
82.791800
20
107.130739
11
82.780962
21
107.146960
0
LINE
8
boundary
62
5
39
2
10
82.780962
20
107.146960
11
82.777156
21
107.166095
0
LINE
8
boundary
62
5
39
2
10
82.777156
20
107.166095
11
82.780962
21
107.185229
0
LINE
8
boundary
62
5
39
2
10
82.780962
20
107.185229
11
82.791800
21
107.201450
0
LINE
8
boundary
62
5
39
2
10
82.791800
20
107.201450
11
82.808021
21
107.212289
0
LINE
8
boundary
62
5
39
2
10
82.808021
20
107.212289
11
82.827156
21
107.216094
0
LINE
8
boundary
62
5
39
2
10
82.827156
20
107.216094
11
85.573156
21
107.216095
0
LINE
8
boundary
62
5
39
2
10
85.573156
20
107.216095
11
85.592290
21
107.212288
0
LINE
8
boundary
62
5
39
2
10
85.592290
20
107.212288
11
85.608511
21
107.201450
0
LINE
8
boundary
62
5
39
2
10
85.608511
20
107.201450
11
85.619350
21
107.185229
0
LINE
8
boundary
62
5
39
2
10
85.619350
20
107.185229
11
85.623156
21
107.166095
0
LINE
8
boundary
62
5
39
2
10
85.623156
20
107.166095
11
85.619350
21
107.146960
0
LINE
8
boundary
62
5
39
2
10
85.619350
20
107.146960
11
85.608511
21
107.130739
0
LINE
8
boundary
62
5
39
2
10
85.608511
20
107.130739
11
85.592290
21
107.119900
0
LINE
8
boundary
62
5
39
2
10
85.592290
20
107.119900
11
85.573156
21
107.116094
0
LINE
8
boundary
62
5
39
2
10
85.573156
20
107.116094
11
85.573156
21
46.855836
0
LINE
8
boundary
62
5
39
2
10
85.573156
20
46.855836
11
85.723156
21
46.845536
0
LINE
8
boundary
62
5
39
2
10
85.723156
20
46.845536
11
86.901406
21
47.500298
0
LINE
8
boundary
62
5
39
2
10
86.901406
20
47.500298
11
93.018102
21
48.409998
0
LINE
8
boundary
62
5
39
2
10
93.018102
20
48.409998
11
94.702079
21
48.333977
0
LINE
8
boundary
62
5
39
2
10
94.702079
20
48.333977
11
94.852079
21
48.344277
0
LINE
8
boundary
62
5
39
2
10
94.852079
20
48.344277
11
94.852079
21
107.362876
0
LINE
8
boundary
62
5
39
2
10
94.852079
20
107.362876
11
94.832945
21
107.366681
0
LINE
8
boundary
62
5
39
2
10
94.832945
20
107.366681
11
94.816723
21
107.377520
0
LINE
8
boundary
62
5
39
2
10
94.816723
20
107.377520
11
94.805885
21
107.393741
0
LINE
8
boundary
62
5
39
2
10
94.805885
20
107.393741
11
94.802079
21
107.412875
0
LINE
8
boundary
62
5
39
2
10
94.802079
20
107.412875
11
94.805885
21
107.432010
0
LINE
8
boundary
62
5
39
2
10
94.805885
20
107.432010
11
94.816723
21
107.448231
0
LINE
8
boundary
62
5
39
2
10
94.816723
20
107.448231
11
94.832945
21
107.459069
0
LINE
8
boundary
62
5
39
2
10
94.832945
20
107.459069
11
94.852079
21
107.462875
0
LINE
8
boundary
62
5
39
2
10
94.852079
20
107.462875
11
97.598079
21
107.462875
0
LINE
8
boundary
62
5
39
2
10
97.598079
20
107.462875
11
97.617213
21
107.459069
0
LINE
8
boundary
62
5
39
2
10
97.617213
20
107.459069
11
97.633434
21
107.448231
0
LINE
8
boundary
62
5
39
2
10
97.633434
20
107.448231
11
97.644273
21
107.432010
0
LINE
8
boundary
62
5
39
2
10
97.644273
20
107.432010
11
97.648079
21
107.412875
0
LINE
8
boundary
62
5
39
2
10
97.648079
20
107.412875
11
97.644273
21
107.393741
0
LINE
8
boundary
62
5
39
2
10
97.644273
20
107.393741
11
97.633434
21
107.377520
0
LINE
8
boundary
62
5
39
2
10
97.633434
20
107.377520
11
97.617213
21
107.366681
0
LINE
8
boundary
62
5
39
2
10
97.617213
20
107.366681
11
97.598079
21
107.362875
0
LINE
8
boundary
62
5
39
2
10
97.598079
20
107.362875
11
97.598079
21
46.693385
0
LINE
8
boundary
62
5
39
2
10
97.598079
20
46.693385
11
101.008610
21
44.283200
0
LINE
8
boundary
62
5
39
2
10
101.008610
20
44.283200
11
103.064714
21
41.730022
0
LINE
8
boundary
62
5
39
2
10
103.064714
20
41.730022
11
107.122713
21
36.680164
0
LINE
8
boundary
62
5
39
2
10
107.122713
20
36.680164
11
109.996409
21
32.489277
0
LINE
8
boundary
62
5
39
2
10
109.996409
20
32.489277
11
111.735377
21
29.821219
0
LINE
8
boundary
62
5
39
2
10
111.735377
20
29.821219
11
114.847760
21
25.878532
0
LINE
8
boundary
62
5
39
2
10
114.847760
20
25.878532
11
116.090419
21
20.467690
0
LINE
8
boundary
62
5
39
2
10
116.090419
20
20.467690
11
117.511674
21
15.310338
0
LINE
8
boundary
62
5
39
2
10
117.511674
20
15.310338
11
117.591832
21
14.957145
0
LINE
8
boundary
62
5
39
2
10
117.591832
20
14.957145
11
117.741832
21
14.967445
0
LINE
8
boundary
62
5
39
2
10
117.741832
20
14.967445
11
117.741832
21
84.513211
0
LINE
8
boundary
62
5
39
2
10
117.741832
20
84.513211
11
117.722698
21
84.517017
0
LINE
8
boundary
62
5
39
2
10
117.722698
20
84.517017
11
117.706476
21
84.527856
0
LINE
8
boundary
62
5
39
2
10
117.706476
20
84.527856
11
117.695638
21
84.544077
0
LINE
8
boundary
62
5
39
2
10
117.695638
20
84.544077
11
117.691832
21
84.563211
0
LINE
8
boundary
62
5
39
2
10
117.691832
20
84.563211
11
117.695638
21
84.582345
0
LINE
8
boundary
62
5
39
2
10
117.695638
20
84.582345
11
117.706477
21
84.598567
0
LINE
8
boundary
62
5
39
2
10
117.706477
20
84.598567
11
117.722698
21
84.609405
0
LINE
8
boundary
62
5
39
2
10
117.722698
20
84.609405
11
117.741832
21
84.613211
0
LINE
8
boundary
62
5
39
2
10
117.741832
20
84.613211
11
120.487832
21
84.613211
0
LINE
8
boundary
62
5
39
2
10
120.487832
20
84.613211
11
120.506966
21
84.609405
0
LINE
8
boundary
62
5
39
2
10
120.506966
20
84.609405
11
120.523187
21
84.598567
0
LINE
8
boundary
62
5
39
2
10
120.523187
20
84.598567
11
120.534026
21
84.582346
0
LINE
8
boundary
62
5
39
2
10
120.534026
20
84.582346
11
120.537832
21
84.563211
0
LINE
8
boundary
62
5
39
2
10
120.537832
20
84.563211
11
120.534026
21
84.544077
0
LINE
8
boundary
62
5
39
2
10
120.534026
20
84.544077
11
120.523187
21
84.527856
0
LINE
8
boundary
62
5
39
2
10
120.523187
20
84.527856
11
120.506966
21
84.517017
0
LINE
8
boundary
62
5
39
2
10
120.506966
20
84.517017
11
120.487832
21
84.513211
0
LINE
8
boundary
62
5
39
2
10
120.487832
20
84.513211
11
120.487832
21
7.559714
0
LINE
8
boundary
62
5
39
2
10
120.487832
20
7.559714
11
120.637832
21
7.525934
0
LINE
8
boundary
62
5
39
2
10
120.637832
20
7.525934
11
122.242062
21
7.164658
0
LINE
8
boundary
62
5
39
2
10
122.242062
20
7.164658
11
126.282584
21
7.118564
0
LINE
8
boundary
62
5
39
2
10
126.282584
20
7.118564
11
129.742791
21
6.911558
0
LINE
8
boundary
62
5
39
2
10
129.742791
20
6.911558
11
131.644264
21
7.017604
0
LINE
8
boundary
62
5
39
2
10
131.644264
20
7.017604
11
131.794264
21
7.027904
0
LINE
8
boundary
62
5
39
2
10
131.794264
20
7.027904
11
131.794264
21
67.947082
0
LINE
8
boundary
62
5
39
2
10
131.794264
20
67.947082
11
131.775130
21
67.950889
0
LINE
8
boundary
62
5
39
2
10
131.775130
20
67.950889
11
131.758908
21
67.961727
0
LINE
8
boundary
62
5
39
2
10
131.758908
20
67.961727
11
131.748070
21
67.977948
0
LINE
8
boundary
62
5
39
2
10
131.748070
20
67.977948
11
131.744264
21
67.997083
0
LINE
8
boundary
62
5
39
2
10
131.744264
20
67.997083
11
131.748070
21
68.016217
0
LINE
8
boundary
62
5
39
2
10
131.748070
20
68.016217
11
131.758908
21
68.032438
0
LINE
8
boundary
62
5
39
2
10
131.758908
20
68.032438
11
131.775130
21
68.043277
0
LINE
8
boundary
62
5
39
2
10
131.775130
20
68.043277
11
131.794264
21
68.047083
0
LINE
8
boundary
62
5
39
2
10
131.794264
20
68.047083
11
134.540264
21
68.047082
0
LINE
8
boundary
62
5
39
2
10
134.540264
20
68.047082
11
134.559398
21
68.043276
0
LINE
8
boundary
62
5
39
2
10
134.559398
20
68.043276
11
134.575619
21
68.032438
0
LINE
8
boundary
62
5
39
2
10
134.575619
20
68.032438
11
134.586458
21
68.016217
0
LINE
8
boundary
62
5
39
2
10
134.586458
20
68.016217
11
134.590264
21
67.997083
0
LINE
8
boundary
62
5
39
2
10
134.590264
20
67.997083
11
134.586458
21
67.977948
0
LINE
8
boundary
62
5
39
2
10
134.586458
20
67.977948
11
134.575619
21
67.961727
0
LINE
8
boundary
62
5
39
2
10
134.575619
20
67.961727
11
134.559398
21
67.950889
0
LINE
8
boundary
62
5
39
2
10
134.559398
20
67.950889
11
134.540264
21
67.947083
0
LINE
8
boundary
62
5
39
2
10
134.540264
20
67.947083
11
134.540264
21
7.197780
0
LINE
8
boundary
62
5
39
2
10
134.540264
20
7.197780
11
134.690264
21
7.187480
0
LINE
8
boundary
62
5
39
2
10
134.690264
20
7.187480
11
134.846751
21
7.196207
0
LINE
8
boundary
62
5
39
2
10
134.846751
20
7.196207
11
141.382116
21
7.291266
0
LINE
8
boundary
62
5
39
2
10
141.382116
20
7.291266
11
141.831781
21
7.636984
0
LINE
8
boundary
62
5
39
2
10
141.831781
20
7.636984
11
143.403151
21
19.865422
0
LINE
8
boundary
62
5
39
2
10
143.403151
20
19.865422
11
143.896402
21
23.943488
0
LINE
8
boundary
62
5
39
2
10
143.896402
20
23.943488
11
143.974849
21
26.103451
0
LINE
8
boundary
62
5
39
2
10
143.974849
20
26.103451
11
143.954149
21
35.520333
0
LINE
8
boundary
62
5
39
2
10
143.954149
20
35.520333
11
143.538806
21
43.163367
0
LINE
8
boundary
62
5
39
2
10
143.538806
20
43.163367
11
144.246768
21
56.219640
0
LINE
8
boundary
62
5
39
2
10
144.246768
20
56.219640
11
144.272996
21
58.473603
0
LINE
8
boundary
62
5
39
2
10
144.272996
20
58.473603
11
143.966226
21
65.337921
0
LINE
8
boundary
62
5
39
2
10
143.966226
20
65.337921
11
143.148980
21
75.582325
0
LINE
8
boundary
62
5
39
2
10
143.148980
20
75.582325
11
142.978982
21
77.598904
0
LINE
8
boundary
62
5
39
2
10
142.978982
20
77.598904
11
141.353150
21
86.453442
0
LINE
8
boundary
62
5
39
2
10
141.353150
20
86.453442
11
137.003459
21
105.118891
0
LINE
8
boundary
62
5
39
2
10
137.003459
20
105.118891
11
135.132919
21
117.212357
0
LINE
8
boundary
62
5
39
2
10
135.132919
20
117.212357
11
131.838936
21
134.732357
0
LINE
8
boundary
62
5
39
2
10
131.838936
20
134.732357
11
129.339133
21
144.403974
0
LINE
8
boundary
62
5
39
2
10
129.339133
20
144.403974
11
126.564005
21
154.451417
0
LINE
8
boundary
62
5
39
2
10
126.564005
20
154.451417
11
125.047933
21
157.983988
0
LINE
8
boundary
62
5
39
2
10
125.047933
20
157.983988
11
116.906982
21
162.930385
0
LINE
8
boundary
62
5
39
2
10
116.906982
20
162.930385
11
116.705473
21
163.018690
0
LINE
8
boundary
62
5
39
2
10
116.705473
20
163.018690
11
116.579354
21
163.077081
0
LINE
8
boundary
62
5
39
2
10
116.579354
20
163.077081
11
103.098242
21
167.442455
0
LINE
8
boundary
62
5
39
2
10
103.098242
20
167.442455
11
100.861701
21
167.994497
0
LINE
8
boundary
62
5
39
2
10
100.861701
20
167.994497
11
90.545218
21
168.838869
0
LINE
8
boundary
62
5
39
2
10
90.545218
20
168.838869
11
88.087408
21
169.097553
0
LINE
8
boundary
62
5
39
2
10
88.087408
20
169.097553
11
79.595266
21
169.814393
0
LINE
8
boundary
62
5
39
2
10
79.595266
20
169.814393
11
72.489098
21
170.291470
0
LINE
8
boundary
62
5
39
2
10
72.489098
20
170.291470
11
60.023399
21
169.911066
0
LINE
8
boundary
62
5
39
2
10
60.023399
20
169.911066
11
55.263103
21
169.444327
0
LINE
8
boundary
62
5
39
2
10
55.263103
20
169.444327
11
51.015743
21
168.007901
0
LINE
8
boundary
62
5
39
2
10
51.015743
20
168.007901
11
33.633035
21
162.676003
0
LINE
8
boundary
62
5
39
2
10
33.633035
20
162.676003
11
31.432874
21
161.712926
0
LINE
8
boundary
62
5
39
2
10
31.432874
20
161.712926
11
31.043189
21
161.440957
0
LINE
8
boundary
62
5
39
2
10
31.043189
20
161.440957
11
24.181748
21
149.509360
0
LINE
8
boundary
62
5
39
2
10
24.181748
20
149.509360
11
22.303907
21
142.652098
0
LINE
8
boundary
62
5
39
2
10
22.303907
20
142.652098
11
18.382759
21
126.155225
0
LINE
8
boundary
62
5
39
2
10
18.382759
20
126.155225
11
16.510044
21
119.816208
0
LINE
8
boundary
62
5
39
2
10
16.510044
20
119.816208
11
15.374201
21
111.843905
0
LINE
8
boundary
62
5
39
2
10
15.374201
20
111.843905
11
12.565150
21
97.947912
0
LINE
8
boundary
62
5
39
2
10
12.565150
20
97.947912
11
10.358886
21
89.101788
0
LINE
8
boundary
62
5
39
2
10
10.358886
20
89.101788
11
8.310201
21
77.249392
0
LINE
8
boundary
62
5
39
2
10
8.310201
20
77.249392
11
7.109852
21
64.145875
0
LINE
8
boundary
62
5
39
2
10
7.109852
20
64.145875
11
6.767500
21
59.628417
0
LINE
8
boundary
62
5
39
2
10
6.767500
20
59.628417
11
6.950408
21
42.323811
0
LINE
8
boundary
62
5
39
2
10
6.950408
20
42.323811
11
7.108800
21
32.446815
0
LINE
8
boundary
62
5
39
2
10
7.108800
20
32.446815
11
7.196761
21
31.061320
0
LINE
8
boundary
62
5
39
2
10
7.196761
20
31.061320
11
7.214046
21
29.945250
0
LINE
8
annotation
62
1
39
211
10
16.307528
20
73.128236
11
21.107528
21
73.128236
0
LINE
8
annotation
62
1
39
211
10
21.107528
20
73.128236
11
20.040126
21
74.195337
0
LINE
8
annotation
62
1
39
211
10
29.428102
20
90.302886
11
29.428102
21
92.434681
0
LINE
8
annotation
62
1
39
211
10
29.428102
20
92.434681
11
32.599305
21
90.464832
0
LINE
8
annotation
62
1
39
211
10
32.599305
20
90.464832
11
32.599305
21
90.464832
0
LINE
8
annotation
62
1
39
211
10
32.599305
20
90.464832
11
32.602219
21
90.462478
0
LINE
8
annotation
62
1
39
211
10
32.602219
20
90.462478
11
32.605158
21
90.460219
0
LINE
8
annotation
62
1
39
211
10
32.605158
20
90.460219
11
32.608146
21
90.458043
0
LINE
8
annotation
62
1
39
211
10
32.608146
20
90.458043
11
32.611208
21
90.455933
0
LINE
8
annotation
62
1
39
211
10
32.611208
20
90.455933
11
32.614370
21
90.453876
0
LINE
8
annotation
62
1
39
211
10
32.614370
20
90.453876
11
32.617656
21
90.451855
0
LINE
8
annotation
62
1
39
211
10
32.617656
20
90.451855
11
32.621090
21
90.449857
0
LINE
8
annotation
62
1
39
211
10
32.621090
20
90.449857
11
32.624698
21
90.447866
0
LINE
8
annotation
62
1
39
211
10
32.624698
20
90.447866
11
32.628503
21
90.445868
0
LINE
8
annotation
62
1
39
211
10
32.628503
20
90.445868
11
32.628503
21
90.445868
0
LINE
8
annotation
62
1
39
211
10
32.628503
20
90.445868
11
32.803136
21
90.364534
0
LINE
8
annotation
62
1
39
211
10
32.803136
20
90.364534
11
32.984157
21
90.317020
0
LINE
8
annotation
62
1
39
211
10
32.984157
20
90.317020
11
33.167478
21
90.302161
0
LINE
8
annotation
62
1
39
211
10
33.167478
20
90.302161
11
33.349008
21
90.318794
0
LINE
8
annotation
62
1
39
211
10
33.349008
20
90.318794
11
33.524656
21
90.365754
0
LINE
8
annotation
62
1
39
211
10
33.524656
20
90.365754
11
33.690332
21
90.441877
0
LINE
8
annotation
62
1
39
211
10
33.690332
20
90.441877
11
33.841945
21
90.545998
0
LINE
8
annotation
62
1
39
211
10
33.841945
20
90.545998
11
33.975406
21
90.676953
0
LINE
8
annotation
62
1
39
211
10
33.975406
20
90.676953
11
34.086625
21
90.833577
0
LINE
8
annotation
62
1
39
211
10
34.086625
20
90.833577
11
34.086625
21
90.833577
0
LINE
8
annotation
62
1
39
211
10
34.086625
20
90.833577
11
34.166803
21
91.008695
0
LINE
8
annotation
62
1
39
211
10
34.166803
20
91.008695
11
34.213586
21
91.189994
0
LINE
8
annotation
62
1
39
211
10
34.213586
20
91.189994
11
34.228024
21
91.373421
0
LINE
8
annotation
62
1
39
211
10
34.228024
20
91.373421
11
34.211172
21
91.554923
0
LINE
8
annotation
62
1
39
211
10
34.211172
20
91.554923
11
34.164082
21
91.730447
0
LINE
8
annotation
62
1
39
211
10
34.164082
20
91.730447
11
34.087806
21
91.895940
0
LINE
8
annotation
62
1
39
211
10
34.087806
20
91.895940
11
33.983399
21
92.047348
0
LINE
8
annotation
62
1
39
211
10
33.983399
20
92.047348
11
33.851913
21
92.180619
0
LINE
8
annotation
62
1
39
211
10
33.851913
20
92.180619
11
33.694401
21
92.291698
0
LINE
8
annotation
62
1
39
211
10
33.694401
20
92.291698
11
33.425895
21
92.431670
0
LINE
8
annotation
62
1
39
211
10
51.647716
20
115.271361
11
51.647716
21
114.205463
0
LINE
8
annotation
62
1
39
211
10
51.647716
20
114.205463
11
51.647716
21
114.205463
0
LINE
8
annotation
62
1
39
211
10
51.647716
20
114.205463
11
51.664913
21
114.013759
0
LINE
8
annotation
62
1
39
211
10
51.664913
20
114.013759
11
51.714476
21
113.833372
0
LINE
8
annotation
62
1
39
211
10
51.714476
20
113.833372
11
51.793363
21
113.667303
0
LINE
8
annotation
62
1
39
211
10
51.793363
20
113.667303
11
51.898531
21
113.518551
0
LINE
8
annotation
62
1
39
211
10
51.898531
20
113.518551
11
52.026938
21
113.390117
0
LINE
8
annotation
62
1
39
211
10
52.026938
20
113.390117
11
52.175541
21
113.285001
0
LINE
8
annotation
62
1
39
211
10
52.175541
20
113.285001
11
52.341299
21
113.206204
0
LINE
8
annotation
62
1
39
211
10
52.341299
20
113.206204
11
52.521169
21
113.156725
0
LINE
8
annotation
62
1
39
211
10
52.521169
20
113.156725
11
52.712108
21
113.139566
0
LINE
8
annotation
62
1
39
211
10
52.712108
20
113.139566
11
53.245809
21
113.139566
0
LINE
8
annotation
62
1
39
211
10
53.245809
20
113.139566
11
53.245809
21
113.139566
0
LINE
8
annotation
62
1
39
211
10
53.245809
20
113.139566
11
53.436669
21
113.156725
0
LINE
8
annotation
62
1
39
211
10
53.436669
20
113.156725
11
53.616496
21
113.206204
0
LINE
8
annotation
62
1
39
211
10
53.616496
20
113.206204
11
53.782242
21
113.285001
0
LINE
8
annotation
62
1
39
211
10
53.782242
20
113.285001
11
53.930855
21
113.390117
0
LINE
8
annotation
62
1
39
211
10
53.930855
20
113.390117
11
54.059287
21
113.518551
0
LINE
8
annotation
62
1
39
211
10
54.059287
20
113.518551
11
54.164487
21
113.667303
0
LINE
8
annotation
62
1
39
211
10
54.164487
20
113.667303
11
54.243406
21
113.833372
0
LINE
8
annotation
62
1
39
211
10
54.243406
20
113.833372
11
54.292994
21
114.013759
0
LINE
8
annotation
62
1
39
211
10
54.292994
20
114.013759
11
54.310201
21
114.205463
0
LINE
8
annotation
62
1
39
211
10
54.310201
20
114.205463
11
54.310201
21
114.739165
0
LINE
8
annotation
62
1
39
211
10
54.310201
20
114.739165
11
54.310201
21
114.205463
0
LINE
8
annotation
62
1
39
211
10
54.310201
20
114.205463
11
54.310201
21
114.205463
0
LINE
8
annotation
62
1
39
211
10
54.310201
20
114.205463
11
54.327413
21
114.013759
0
LINE
8
annotation
62
1
39
211
10
54.327413
20
114.013759
11
54.377029
21
113.833372
0
LINE
8
annotation
62
1
39
211
10
54.377029
20
113.833372
11
54.456027
21
113.667303
0
LINE
8
annotation
62
1
39
211
10
54.456027
20
113.667303
11
54.561380
21
113.518551
0
LINE
8
annotation
62
1
39
211
10
54.561380
20
113.518551
11
54.690064
21
113.390117
0
LINE
8
annotation
62
1
39
211
10
54.690064
20
113.390117
11
54.839053
21
113.285001
0
LINE
8
annotation
62
1
39
211
10
54.839053
20
113.285001
11
55.005323
21
113.206204
0
LINE
8
annotation
62
1
39
211
10
55.005323
20
113.206204
11
55.185848
21
113.156725
0
LINE
8
annotation
62
1
39
211
10
55.185848
20
113.156725
11
55.377604
21
113.139566
0
LINE
8
annotation
62
1
39
211
10
55.377604
20
113.139566
11
55.377604
21
113.139566
0
LINE
8
annotation
62
1
39
211
10
55.377604
20
113.139566
11
55.568464
21
113.156725
0
LINE
8
annotation
62
1
39
211
10
55.568464
20
113.156725
11
55.748291
21
113.206204
0
LINE
8
annotation
62
1
39
211
10
55.748291
20
113.206204
11
55.914037
21
113.285001
0
LINE
8
annotation
62
1
39
211
10
55.914037
20
113.285001
11
56.062650
21
113.390117
0
LINE
8
annotation
62
1
39
211
10
56.062650
20
113.390117
11
56.191082
21
113.518551
0
LINE
8
annotation
62
1
39
211
10
56.191082
20
113.518551
11
56.296282
21
113.667303
0
LINE
8
annotation
62
1
39
211
10
56.296282
20
113.667303
11
56.375201
21
113.833372
0
LINE
8
annotation
62
1
39
211
10
56.375201
20
113.833372
11
56.424789
21
114.013759
0
LINE
8
annotation
62
1
39
211
10
56.424789
20
114.013759
11
56.441996
21
114.205463
0
LINE
8
annotation
62
1
39
211
10
56.441996
20
114.205463
11
56.441996
21
115.271361
0
LINE
8
annotation
62
1
39
211
10
65.409919
20
112.298325
11
65.409919
21
114.963520
0
LINE
8
annotation
62
1
39
211
10
65.409919
20
114.963520
11
69.142817
21
113.899128
0
LINE
8
annotation
62
1
39
211
10
64.342817
20
113.097221
11
66.474612
21
113.097221
0
LINE
8
annotation
62
1
39
211
10
81.800156
20
114.409594
11
81.800156
21
113.343697
0
LINE
8
annotation
62
1
39
211
10
81.800156
20
113.343697
11
81.800156
21
113.343697
0
LINE
8
annotation
62
1
39
211
10
81.800156
20
113.343697
11
81.817356
21
113.152389
0
LINE
8
annotation
62
1
39
211
10
81.817356
20
113.152389
11
81.866946
21
112.972212
0
LINE
8
annotation
62
1
39
211
10
81.866946
20
112.972212
11
81.945903
21
112.806205
0
LINE
8
annotation
62
1
39
211
10
81.945903
20
112.806205
11
82.051209
21
112.657403
0
LINE
8
annotation
62
1
39
211
10
82.051209
20
112.657403
11
82.179842
21
112.528846
0
LINE
8
annotation
62
1
39
211
10
82.179842
20
112.528846
11
82.328784
21
112.423569
0
LINE
8
annotation
62
1
39
211
10
82.328784
20
112.423569
11
82.495014
21
112.344611
0
LINE
8
annotation
62
1
39
211
10
82.495014
20
112.344611
11
82.675512
21
112.295008
0
LINE
8
annotation
62
1
39
211
10
82.675512
20
112.295008
11
82.867257
21
112.277799
0
LINE
8
annotation
62
1
39
211
10
82.867257
20
112.277799
11
83.398249
21
112.277799
0
LINE
8
annotation
62
1
39
211
10
83.398249
20
112.277799
11
83.398249
21
112.277799
0
LINE
8
annotation
62
1
39
211
10
83.398249
20
112.277799
11
83.589902
21
112.294998
0
LINE
8
annotation
62
1
39
211
10
83.589902
20
112.294998
11
83.770150
21
112.344576
0
LINE
8
annotation
62
1
39
211
10
83.770150
20
112.344576
11
83.936020
21
112.423502
0
LINE
8
annotation
62
1
39
211
10
83.936020
20
112.423502
11
84.084534
21
112.528746
0
LINE
8
annotation
62
1
39
211
10
84.084534
20
112.528746
11
84.212718
21
112.657279
0
LINE
8
annotation
62
1
39
211
10
84.212718
20
112.657279
11
84.317596
21
112.806071
0
LINE
8
annotation
62
1
39
211
10
84.317596
20
112.806071
11
84.396193
21
112.972091
0
LINE
8
annotation
62
1
39
211
10
84.396193
20
112.972091
11
84.445534
21
113.152309
0
LINE
8
annotation
62
1
39
211
10
84.445534
20
113.152309
11
84.462642
21
113.343697
0
LINE
8
annotation
62
1
39
211
10
84.462642
20
113.343697
11
84.462642
21
114.409594
0
LINE
8
annotation
62
1
39
211
10
84.462642
20
114.409594
11
86.600156
21
114.409594
0
LINE
8
annotation
62
1
39
211
10
86.600156
20
114.409594
11
86.600156
21
112.277799
0
LINE
8
annotation
62
1
39
211
10
98.625079
20
113.055271
11
98.625079
21
113.055271
0
LINE
8
annotation
62
1
39
211
10
98.625079
20
113.055271
11
98.510590
21
113.360624
0
LINE
8
annotation
62
1
39
211
10
98.510590
20
113.360624
11
98.356330
21
113.640825
0
LINE
8
annotation
62
1
39
211
10
98.356330
20
113.640825
11
98.166163
21
113.892998
0
LINE
8
annotation
62
1
39
211
10
98.166163
20
113.892998
11
97.943955
21
114.114267
0
LINE
8
annotation
62
1
39
211
10
97.943955
20
114.114267
11
97.693571
21
114.301756
0
LINE
8
annotation
62
1
39
211
10
97.693571
20
114.301756
11
97.418875
21
114.452587
0
LINE
8
annotation
62
1
39
211
10
97.418875
20
114.452587
11
97.123731
21
114.563885
0
LINE
8
annotation
62
1
39
211
10
97.123731
20
114.563885
11
96.812007
21
114.632773
0
LINE
8
annotation
62
1
39
211
10
96.812007
20
114.632773
11
96.487565
21
114.656375
0
LINE
8
annotation
62
1
39
211
10
96.487565
20
114.656375
11
94.892180
21
114.656375
0
LINE
8
annotation
62
1
39
211
10
94.892180
20
114.656375
11
94.892180
21
114.656375
0
LINE
8
annotation
62
1
39
211
10
94.892180
20
114.656375
11
94.700435
21
114.639166
0
LINE
8
annotation
62
1
39
211
10
94.700435
20
114.639166
11
94.519937
21
114.589563
0
LINE
8
annotation
62
1
39
211
10
94.519937
20
114.589563
11
94.353707
21
114.510605
0
LINE
8
annotation
62
1
39
211
10
94.353707
20
114.510605
11
94.204766
21
114.405328
0
LINE
8
annotation
62
1
39
211
10
94.204766
20
114.405328
11
94.076132
21
114.276771
0
LINE
8
annotation
62
1
39
211
10
94.076132
20
114.276771
11
93.970826
21
114.127969
0
LINE
8
annotation
62
1
39
211
10
93.970826
20
114.127969
11
93.891869
21
113.961962
0
LINE
8
annotation
62
1
39
211
10
93.891869
20
113.961962
11
93.842280
21
113.781785
0
LINE
8
annotation
62
1
39
211
10
93.842280
20
113.781785
11
93.825079
21
113.590477
0
LINE
8
annotation
62
1
39
211
10
93.825079
20
113.590477
11
93.825079
21
113.590477
0
LINE
8
annotation
62
1
39
211
10
93.825079
20
113.590477
11
93.842280
21
113.398773
0
LINE
8
annotation
62
1
39
211
10
93.842280
20
113.398773
11
93.891869
21
113.218386
0
LINE
8
annotation
62
1
39
211
10
93.891869
20
113.218386
11
93.970826
21
113.052317
0
LINE
8
annotation
62
1
39
211
10
93.970826
20
113.052317
11
94.076132
21
112.903565
0
LINE
8
annotation
62
1
39
211
10
94.076132
20
112.903565
11
94.204766
21
112.775131
0
LINE
8
annotation
62
1
39
211
10
94.204766
20
112.775131
11
94.353707
21
112.670015
0
LINE
8
annotation
62
1
39
211
10
94.353707
20
112.670015
11
94.519937
21
112.591218
0
LINE
8
annotation
62
1
39
211
10
94.519937
20
112.591218
11
94.700435
21
112.541740
0
LINE
8
annotation
62
1
39
211
10
94.700435
20
112.541740
11
94.892180
21
112.524580
0
LINE
8
annotation
62
1
39
211
10
94.892180
20
112.524580
11
95.423172
21
112.524580
0
LINE
8
annotation
62
1
39
211
10
95.423172
20
112.524580
11
95.423172
21
112.524580
0
LINE
8
annotation
62
1
39
211
10
95.423172
20
112.524580
11
95.614825
21
112.541740
0
LINE
8
annotation
62
1
39
211
10
95.614825
20
112.541740
11
95.795074
21
112.591218
0
LINE
8
annotation
62
1
39
211
10
95.795074
20
112.591218
11
95.960943
21
112.670015
0
LINE
8
annotation
62
1
39
211
10
95.960943
20
112.670015
11
96.109457
21
112.775131
0
LINE
8
annotation
62
1
39
211
10
96.109457
20
112.775131
11
96.237641
21
112.903565
0
LINE
8
annotation
62
1
39
211
10
96.237641
20
112.903565
11
96.342520
21
113.052317
0
LINE
8
annotation
62
1
39
211
10
96.342520
20
113.052317
11
96.421117
21
113.218386
0
LINE
8
annotation
62
1
39
211
10
96.421117
20
113.218386
11
96.470457
21
113.398773
0
LINE
8
annotation
62
1
39
211
10
96.470457
20
113.398773
11
96.487565
21
113.590477
0
LINE
8
annotation
62
1
39
211
10
96.487565
20
113.590477
11
96.487565
21
114.656375
0
LINE
8
annotation
62
1
39
211
10
93.225079
20
114.789875
11
93.225079
21
112.389875
0
LINE
8
annotation
62
1
39
211
10
116.714832
20
90.740813
11
121.514832
21
89.673712
0
LINE
8
annotation
62
1
39
211
10
121.514832
20
89.673712
11
121.514832
21
91.808216
0
LINE
8
annotation
62
1
39
211
10
119.377318
20
89.673712
11
119.377318
21
90.740813
0
LINE
8
annotation
62
1
39
211
10
131.831506
20
75.240582
11
131.831506
21
75.240582
0
LINE
8
annotation
62
1
39
211
10
131.831506
20
75.240582
11
131.639853
21
75.223373
0
LINE
8
annotation
62
1
39
211
10
131.639853
20
75.223373
11
131.459604
21
75.173771
0
LINE
8
annotation
62
1
39
211
10
131.459604
20
75.173771
11
131.293735
21
75.094812
0
LINE
8
annotation
62
1
39
211
10
131.293735
20
75.094812
11
131.145221
21
74.989536
0
LINE
8
annotation
62
1
39
211
10
131.145221
20
74.989536
11
131.017037
21
74.860978
0
LINE
8
annotation
62
1
39
211
10
131.017037
20
74.860978
11
130.912158
21
74.712176
0
LINE
8
annotation
62
1
39
211
10
130.912158
20
74.712176
11
130.833561
21
74.546169
0
LINE
8
annotation
62
1
39
211
10
130.833561
20
74.546169
11
130.784221
21
74.365992
0
LINE
8
annotation
62
1
39
211
10
130.784221
20
74.365992
11
130.767113
21
74.174685
0
LINE
8
annotation
62
1
39
211
10
130.767113
20
74.174685
11
130.767113
21
74.174685
0
LINE
8
annotation
62
1
39
211
10
130.767113
20
74.174685
11
130.784221
21
73.983377
0
LINE
8
annotation
62
1
39
211
10
130.784221
20
73.983377
11
130.833561
21
73.803200
0
LINE
8
annotation
62
1
39
211
10
130.833561
20
73.803200
11
130.912158
21
73.637193
0
LINE
8
annotation
62
1
39
211
10
130.912158
20
73.637193
11
131.017037
21
73.488391
0
LINE
8
annotation
62
1
39
211
10
131.017037
20
73.488391
11
131.145221
21
73.359834
0
LINE
8
annotation
62
1
39
211
10
131.145221
20
73.359834
11
131.293735
21
73.254557
0
LINE
8
annotation
62
1
39
211
10
131.293735
20
73.254557
11
131.459604
21
73.175599
0
LINE
8
annotation
62
1
39
211
10
131.459604
20
73.175599
11
131.639853
21
73.125996
0
LINE
8
annotation
62
1
39
211
10
131.639853
20
73.125996
11
131.831506
21
73.108787
0
LINE
8
annotation
62
1
39
211
10
131.831506
20
73.108787
11
132.362498
21
73.108787
0
LINE
8
annotation
62
1
39
211
10
132.362498
20
73.108787
11
132.362498
21
73.108787
0
LINE
8
annotation
62
1
39
211
10
132.362498
20
73.108787
11
132.554243
21
73.125986
0
LINE
8
annotation
62
1
39
211
10
132.554243
20
73.125986
11
132.734741
21
73.175564
0
LINE
8
annotation
62
1
39
211
10
132.734741
20
73.175564
11
132.900971
21
73.254490
0
LINE
8
annotation
62
1
39
211
10
132.900971
20
73.254490
11
133.049912
21
73.359735
0
LINE
8
annotation
62
1
39
211
10
133.049912
20
73.359735
11
133.178546
21
73.488268
0
LINE
8
annotation
62
1
39
211
10
133.178546
20
73.488268
11
133.283852
21
73.637059
0
LINE
8
annotation
62
1
39
211
10
133.283852
20
73.637059
11
133.362809
21
73.803079
0
LINE
8
annotation
62
1
39
211
10
133.362809
20
73.803079
11
133.412398
21
73.983298
0
LINE
8
annotation
62
1
39
211
10
133.412398
20
73.983298
11
133.429599
21
74.174685
0
LINE
8
annotation
62
1
39
211
10
133.429599
20
74.174685
11
133.429599
21
74.174685
0
LINE
8
annotation
62
1
39
211
10
133.429599
20
74.174685
11
133.412388
21
74.366072
0
LINE
8
annotation
62
1
39
211
10
133.412388
20
74.366072
11
133.362775
21
74.546290
0
LINE
8
annotation
62
1
39
211
10
133.362775
20
74.546290
11
133.283785
21
74.712310
0
LINE
8
annotation
62
1
39
211
10
133.283785
20
74.712310
11
133.178447
21
74.861102
0
LINE
8
annotation
62
1
39
211
10
133.178447
20
74.861102
11
133.049789
21
74.989635
0
LINE
8
annotation
62
1
39
211
10
133.049789
20
74.989635
11
132.900837
21
75.094879
0
LINE
8
annotation
62
1
39
211
10
132.900837
20
75.094879
11
132.734620
21
75.173805
0
LINE
8
annotation
62
1
39
211
10
132.734620
20
75.173805
11
132.554164
21
75.223383
0
LINE
8
annotation
62
1
39
211
10
132.554164
20
75.223383
11
132.362498
21
75.240582
0
LINE
8
annotation
62
1
39
211
10
132.362498
20
75.240582
11
131.831506
21
75.240582
0
LINE
8
annotation
62
1
39
211
10
134.497002
20
73.108787
11
134.497002
21
73.108787
0
LINE
8
annotation
62
1
39
211
10
134.497002
20
73.108787
11
134.687862
21
73.125986
0
LINE
8
annotation
62
1
39
211
10
134.687862
20
73.125986
11
134.867689
21
73.175564
0
LINE
8
annotation
62
1
39
211
10
134.867689
20
73.175564
11
135.033434
21
73.254490
0
LINE
8
annotation
62
1
39
211
10
135.033434
20
73.254490
11
135.182048
21
73.359735
0
LINE
8
annotation
62
1
39
211
10
135.182048
20
73.359735
11
135.310480
21
73.488268
0
LINE
8
annotation
62
1
39
211
10
135.310480
20
73.488268
11
135.415680
21
73.637059
0
LINE
8
annotation
62
1
39
211
10
135.415680
20
73.637059
11
135.494599
21
73.803079
0
LINE
8
annotation
62
1
39
211
10
135.494599
20
73.803079
11
135.544187
21
73.983298
0
LINE
8
annotation
62
1
39
211
10
135.544187
20
73.983298
11
135.561394
21
74.174685
0
LINE
8
annotation
62
1
39
211
10
135.561394
20
74.174685
11
135.561394
21
74.174685
0
LINE
8
annotation
62
1
39
211
10
135.561394
20
74.174685
11
135.544187
21
74.366072
0
LINE
8
annotation
62
1
39
211
10
135.544187
20
74.366072
11
135.494599
21
74.546290
0
LINE
8
annotation
62
1
39
211
10
135.494599
20
74.546290
11
135.415680
21
74.712310
0
LINE
8
annotation
62
1
39
211
10
135.415680
20
74.712310
11
135.310480
21
74.861102
0
LINE
8
annotation
62
1
39
211
10
135.310480
20
74.861102
11
135.182048
21
74.989635
0
LINE
8
annotation
62
1
39
211
10
135.182048
20
74.989635
11
135.033434
21
75.094879
0
LINE
8
annotation
62
1
39
211
10
135.033434
20
75.094879
11
134.867689
21
75.173805
0
LINE
8
annotation
62
1
39
211
10
134.867689
20
75.173805
11
134.687862
21
75.223383
0
LINE
8
annotation
62
1
39
211
10
134.687862
20
75.223383
11
134.497002
21
75.240582
0
LINE
8
annotation
62
1
39
211
10
134.497002
20
75.240582
11
134.497002
21
75.240582
0
LINE
8
annotation
62
1
39
211
10
134.497002
20
75.240582
11
134.305246
21
75.223373
0
LINE
8
annotation
62
1
39
211
10
134.305246
20
75.223373
11
134.124721
21
75.173771
0
LINE
8
annotation
62
1
39
211
10
134.124721
20
75.173771
11
133.958451
21
75.094812
0
LINE
8
annotation
62
1
39
211
10
133.958451
20
75.094812
11
133.809462
21
74.989536
0
LINE
8
annotation
62
1
39
211
10
133.809462
20
74.989536
11
133.680778
21
74.860978
0
LINE
8
annotation
62
1
39
211
10
133.680778
20
74.860978
11
133.575425
21
74.712176
0
LINE
8
annotation
62
1
39
211
10
133.575425
20
74.712176
11
133.496427
21
74.546169
0
LINE
8
annotation
62
1
39
211
10
133.496427
20
74.546169
11
133.446810
21
74.365992
0
LINE
8
annotation
62
1
39
211
10
133.446810
20
74.365992
11
133.429599
21
74.174685
0
LINE
8
annotation
62
1
39
211
10
133.429599
20
74.174685
11
133.429599
21
74.174685
0
LINE
8
annotation
62
1
39
211
10
133.429599
20
74.174685
11
133.446810
21
73.983377
0
LINE
8
annotation
62
1
39
211
10
133.446810
20
73.983377
11
133.496427
21
73.803200
0
LINE
8
annotation
62
1
39
211
10
133.496427
20
73.803200
11
133.575425
21
73.637193
0
LINE
8
annotation
62
1
39
211
10
133.575425
20
73.637193
11
133.680778
21
73.488391
0
LINE
8
annotation
62
1
39
211
10
133.680778
20
73.488391
11
133.809462
21
73.359834
0
LINE
8
annotation
62
1
39
211
10
133.809462
20
73.359834
11
133.958451
21
73.254557
0
LINE
8
annotation
62
1
39
211
10
133.958451
20
73.254557
11
134.124721
21
73.175599
0
LINE
8
annotation
62
1
39
211
10
134.124721
20
73.175599
11
134.305246
21
73.125996
0
LINE
8
annotation
62
1
39
211
10
134.305246
20
73.125996
11
134.497002
21
73.108787
0
LINE
8
annotation
62
1
39
211
10
65.483963
20
148.856160
11
57.630090
21
137.496250
0
LINE
8
annotation
62
1
39
211
10
57.630090
20
137.496250
11
49.774739
21
148.856160
0
LINE
8
annotation
62
1
39
211
10
57.630090
20
138.410419
11
57.630090
21
125.304876
0
LINE
8
annotation
62
1
39
211
10
87.194726
20
137.080518
11
74.318094
21
137.080518
0
LINE
8
annotation
62
1
39
211
10
101.259850
20
125.305615
11
101.259850
21
148.855421
0
LINE
8
annotation
62
1
39
211
10
101.259850
20
148.855421
11
96.024426
21
143.618521
0
LINE
8
boundary
62
5
39
2
10
8.769897
20
180.569923
11
11.685135
21
174.982135
0
LINE
8
boundary
62
5
39
2
10
11.685135
20
174.982135
11
16.287385
21
173.931803
0
LINE
8
boundary
62
5
39
2
10
16.287385
20
173.931803
11
16.802338
21
173.880494
0
LINE
8
boundary
62
5
39
2
10
16.802338
20
173.880494
11
16.952337
21
173.890794
0
LINE
8
boundary
62
5
39
2
10
16.952337
20
173.890794
11
16.952337
21
237.400413
0
LINE
8
boundary
62
5
39
2
10
16.952337
20
237.400413
11
16.933203
21
237.404219
0
LINE
8
boundary
62
5
39
2
10
16.933203
20
237.404219
11
16.916982
21
237.415058
0
LINE
8
boundary
62
5
39
2
10
16.916982
20
237.415058
11
16.906143
21
237.431279
0
LINE
8
boundary
62
5
39
2
10
16.906143
20
237.431279
11
16.902337
21
237.450413
0
LINE
8
boundary
62
5
39
2
10
16.902337
20
237.450413
11
16.906143
21
237.469547
0
LINE
8
boundary
62
5
39
2
10
16.906143
20
237.469547
11
16.916982
21
237.485768
0
LINE
8
boundary
62
5
39
2
10
16.916982
20
237.485768
11
16.933203
21
237.496607
0
LINE
8
boundary
62
5
39
2
10
16.933203
20
237.496607
11
16.952337
21
237.500413
0
LINE
8
boundary
62
5
39
2
10
16.952337
20
237.500413
11
19.698337
21
237.500413
0
LINE
8
boundary
62
5
39
2
10
19.698337
20
237.500413
11
19.717471
21
237.496607
0
LINE
8
boundary
62
5
39
2
10
19.717471
20
237.496607
11
19.733692
21
237.485768
0
LINE
8
boundary
62
5
39
2
10
19.733692
20
237.485768
11
19.744531
21
237.469547
0
LINE
8
boundary
62
5
39
2
10
19.744531
20
237.469547
11
19.748337
21
237.450413
0
LINE
8
boundary
62
5
39
2
10
19.748337
20
237.450413
11
19.744531
21
237.431279
0
LINE
8
boundary
62
5
39
2
10
19.744531
20
237.431279
11
19.733693
21
237.415058
0
LINE
8
boundary
62
5
39
2
10
19.733693
20
237.415058
11
19.717471
21
237.404219
0
LINE
8
boundary
62
5
39
2
10
19.717471
20
237.404219
11
19.698337
21
237.400413
0
LINE
8
boundary
62
5
39
2
10
19.698337
20
237.400413
11
19.698337
21
173.793614
0
LINE
8
boundary
62
5
39
2
10
19.698337
20
173.793614
11
19.848337
21
173.783314
0
LINE
8
boundary
62
5
39
2
10
19.848337
20
173.783314
11
20.581753
21
173.796921
0
LINE
8
boundary
62
5
39
2
10
20.581753
20
173.796921
11
27.722844
21
174.079355
0
LINE
8
boundary
62
5
39
2
10
27.722844
20
174.079355
11
27.398337
21
176.301695
0
LINE
8
boundary
62
5
39
2
10
27.398337
20
176.301695
11
26.423737
21
185.494895
0
LINE
8
boundary
62
5
39
2
10
26.423737
20
185.494895
11
26.181442
21
188.187139
0
LINE
8
boundary
62
5
39
2
10
26.181442
20
188.187139
11
26.672003
21
202.625627
0
LINE
8
boundary
62
5
39
2
10
26.672003
20
202.625627
11
26.809522
21
203.130823
0
LINE
8
boundary
62
5
39
2
10
26.809522
20
203.130823
11
27.885395
21
203.471491
0
LINE
8
boundary
62
5
39
2
10
27.885395
20
203.471491
11
29.922950
21
204.155244
0
LINE
8
boundary
62
5
39
2
10
29.922950
20
204.155244
11
30.072950
21
204.205580
0
LINE
8
boundary
62
5
39
2
10
30.072950
20
204.205580
11
30.072950
21
258.284736
0
LINE
8
boundary
62
5
39
2
10
30.072950
20
258.284736
11
30.053816
21
258.288542
0
LINE
8
boundary
62
5
39
2
10
30.053816
20
258.288542
11
30.037595
21
258.299380
0
LINE
8
boundary
62
5
39
2
10
30.037595
20
258.299380
11
30.026756
21
258.315602
0
LINE
8
boundary
62
5
39
2
10
30.026756
20
258.315602
11
30.022950
21
258.334736
0
LINE
8
boundary
62
5
39
2
10
30.022950
20
258.334736
11
30.026756
21
258.353870
0
LINE
8
boundary
62
5
39
2
10
30.026756
20
258.353870
11
30.037595
21
258.370091
0
LINE
8
boundary
62
5
39
2
10
30.037595
20
258.370091
11
30.053816
21
258.380930
0
LINE
8
boundary
62
5
39
2
10
30.053816
20
258.380930
11
30.072950
21
258.384736
0
LINE
8
boundary
62
5
39
2
10
30.072950
20
258.384736
11
32.818950
21
258.384736
0
LINE
8
boundary
62
5
39
2
10
32.818950
20
258.384736
11
32.838085
21
258.380930
0
LINE
8
boundary
62
5
39
2
10
32.838085
20
258.380930
11
32.854305
21
258.370091
0
LINE
8
boundary
62
5
39
2
10
32.854305
20
258.370091
11
32.865144
21
258.353870
0
LINE
8
boundary
62
5
39
2
10
32.865144
20
258.353870
11
32.868950
21
258.334736
0
LINE
8
boundary
62
5
39
2
10
32.868950
20
258.334736
11
32.865144
21
258.315602
0
LINE
8
boundary
62
5
39
2
10
32.865144
20
258.315602
11
32.854305
21
258.299380
0
LINE
8
boundary
62
5
39
2
10
32.854305
20
258.299380
11
32.838084
21
258.288542
0
LINE
8
boundary
62
5
39
2
10
32.838084
20
258.288542
11
32.818950
21
258.284736
0
LINE
8
boundary
62
5
39
2
10
32.818950
20
258.284736
11
32.818950
21
205.187706
0
LINE
8
boundary
62
5
39
2
10
32.818950
20
205.187706
11
32.968950
21
205.177406
0
LINE
8
boundary
62
5
39
2
10
32.968950
20
205.177406
11
33.214396
21
205.259771
0
LINE
8
boundary
62
5
39
2
10
33.214396
20
205.259771
11
35.789531
21
203.424962
0
LINE
8
boundary
62
5
39
2
10
35.789531
20
203.424962
11
40.454287
21
202.717300
0
LINE
8
boundary
62
5
39
2
10
40.454287
20
202.717300
11
52.056692
21
198.211001
0
LINE
8
boundary
62
5
39
2
10
52.056692
20
198.211001
11
52.142374
21
198.179813
0
LINE
8
boundary
62
5
39
2
10
52.142374
20
198.179813
11
52.292374
21
198.190113
0
LINE
8
boundary
62
5
39
2
10
52.292374
20
198.190113
11
52.292374
21
260.642016
0
LINE
8
boundary
62
5
39
2
10
52.292374
20
260.642016
11
52.273240
21
260.645822
0
LINE
8
boundary
62
5
39
2
10
52.273240
20
260.645822
11
52.257019
21
260.656660
0
LINE
8
boundary
62
5
39
2
10
52.257019
20
260.656660
11
52.246180
21
260.672881
0
LINE
8
boundary
62
5
39
2
10
52.246180
20
260.672881
11
52.242374
21
260.692016
0
LINE
8
boundary
62
5
39
2
10
52.242374
20
260.692016
11
52.246180
21
260.711150
0
LINE
8
boundary
62
5
39
2
10
52.246180
20
260.711150
11
52.257019
21
260.727371
0
LINE
8
boundary
62
5
39
2
10
52.257019
20
260.727371
11
52.273240
21
260.738210
0
LINE
8
boundary
62
5
39
2
10
52.273240
20
260.738210
11
52.292374
21
260.742016
0
LINE
8
boundary
62
5
39
2
10
52.292374
20
260.742016
11
55.038374
21
260.742016
0
LINE
8
boundary
62
5
39
2
10
55.038374
20
260.742016
11
55.057508
21
260.738210
0
LINE
8
boundary
62
5
39
2
10
55.057508
20
260.738210
11
55.073729
21
260.727371
0
LINE
8
boundary
62
5
39
2
10
55.073729
20
260.727371
11
55.084568
21
260.711150
0
LINE
8
boundary
62
5
39
2
10
55.084568
20
260.711150
11
55.088374
21
260.692016
0
LINE
8
boundary
62
5
39
2
10
55.088374
20
260.692016
11
55.084568
21
260.672882
0
LINE
8
boundary
62
5
39
2
10
55.084568
20
260.672882
11
55.073729
21
260.656661
0
LINE
8
boundary
62
5
39
2
10
55.073729
20
260.656661
11
55.057508
21
260.645822
0
LINE
8
boundary
62
5
39
2
10
55.057508
20
260.645822
11
55.038374
21
260.642016
0
LINE
8
boundary
62
5
39
2
10
55.038374
20
260.642016
11
55.038374
21
197.057011
0
LINE
8
boundary
62
5
39
2
10
55.038374
20
197.057011
11
55.188374
21
196.952776
0
LINE
8
boundary
62
5
39
2
10
55.188374
20
196.952776
11
56.726344
21
195.884039
0
LINE
8
boundary
62
5
39
2
10
56.726344
20
195.884039
11
64.837627
21
192.103986
0
LINE
8
boundary
62
5
39
2
10
64.837627
20
192.103986
11
64.987626
21
192.114286
0
LINE
8
boundary
62
5
39
2
10
64.987626
20
192.114286
11
64.987626
21
259.904370
0
LINE
8
boundary
62
5
39
2
10
64.987626
20
259.904370
11
64.968492
21
259.908177
0
LINE
8
boundary
62
5
39
2
10
64.968492
20
259.908177
11
64.952271
21
259.919015
0
LINE
8
boundary
62
5
39
2
10
64.952271
20
259.919015
11
64.941432
21
259.935236
0
LINE
8
boundary
62
5
39
2
10
64.941432
20
259.935236
11
64.937626
21
259.954370
0
LINE
8
boundary
62
5
39
2
10
64.937626
20
259.954370
11
64.941432
21
259.973505
0
LINE
8
boundary
62
5
39
2
10
64.941432
20
259.973505
11
64.952271
21
259.989726
0
LINE
8
boundary
62
5
39
2
10
64.952271
20
259.989726
11
64.968492
21
260.000565
0
LINE
8
boundary
62
5
39
2
10
64.968492
20
260.000565
11
64.987627
21
260.004370
0
LINE
8
boundary
62
5
39
2
10
64.987627
20
260.004370
11
67.733627
21
260.004371
0
LINE
8
boundary
62
5
39
2
10
67.733627
20
260.004371
11
67.752761
21
260.000564
0
LINE
8
boundary
62
5
39
2
10
67.752761
20
260.000564
11
67.768982
21
259.989726
0
LINE
8
boundary
62
5
39
2
10
67.768982
20
259.989726
11
67.779820
21
259.973504
0
LINE
8
boundary
62
5
39
2
10
67.779820
20
259.973504
11
67.783627
21
259.954370
0
LINE
8
boundary
62
5
39
2
10
67.783627
20
259.954370
11
67.779820
21
259.935236
0
LINE
8
boundary
62
5
39
2
10
67.779820
20
259.935236
11
67.768982
21
259.919015
0
LINE
8
boundary
62
5
39
2
10
67.768982
20
259.919015
11
67.752761
21
259.908177
0
LINE
8
boundary
62
5
39
2
10
67.752761
20
259.908177
11
67.733627
21
259.904370
0
LINE
8
boundary
62
5
39
2
10
67.733627
20
259.904370
11
67.733627
21
190.568695
0
LINE
8
boundary
62
5
39
2
10
67.733627
20
190.568695
11
69.366676
21
189.604311
0
LINE
8
boundary
62
5
39
2
10
69.366676
20
189.604311
11
74.498470
21
186.367153
0
LINE
8
boundary
62
5
39
2
10
74.498470
20
186.367153
11
75.120802
21
186.043395
0
LINE
8
boundary
62
5
39
2
10
75.120802
20
186.043395
11
76.220625
21
186.686310
0
LINE
8
boundary
62
5
39
2
10
76.220625
20
186.686310
11
82.294965
21
190.115112
0
LINE
8
boundary
62
5
39
2
10
82.294965
20
190.115112
11
82.444965
21
190.199782
0
LINE
8
boundary
62
5
39
2
10
82.444965
20
190.199782
11
82.444965
21
259.707063
0
LINE
8
boundary
62
5
39
2
10
82.444965
20
259.707063
11
82.425831
21
259.710868
0
LINE
8
boundary
62
5
39
2
10
82.425831
20
259.710868
11
82.409609
21
259.721707
0
LINE
8
boundary
62
5
39
2
10
82.409609
20
259.721707
11
82.398771
21
259.737928
0
LINE
8
boundary
62
5
39
2
10
82.398771
20
259.737928
11
82.394965
21
259.757063
0
LINE
8
boundary
62
5
39
2
10
82.394965
20
259.757063
11
82.398771
21
259.776197
0
LINE
8
boundary
62
5
39
2
10
82.398771
20
259.776197
11
82.409609
21
259.792418
0
LINE
8
boundary
62
5
39
2
10
82.409609
20
259.792418
11
82.425831
21
259.803256
0
LINE
8
boundary
62
5
39
2
10
82.425831
20
259.803256
11
82.444965
21
259.807062
0
LINE
8
boundary
62
5
39
2
10
82.444965
20
259.807062
11
85.190965
21
259.807063
0
LINE
8
boundary
62
5
39
2
10
85.190965
20
259.807063
11
85.210099
21
259.803256
0
LINE
8
boundary
62
5
39
2
10
85.210099
20
259.803256
11
85.226320
21
259.792418
0
LINE
8
boundary
62
5
39
2
10
85.226320
20
259.792418
11
85.237159
21
259.776197
0
LINE
8
boundary
62
5
39
2
10
85.237159
20
259.776197
11
85.240965
21
259.757062
0
LINE
8
boundary
62
5
39
2
10
85.240965
20
259.757062
11
85.237159
21
259.737928
0
LINE
8
boundary
62
5
39
2
10
85.237159
20
259.737928
11
85.226320
21
259.721707
0
LINE
8
boundary
62
5
39
2
10
85.226320
20
259.721707
11
85.210099
21
259.710869
0
LINE
8
boundary
62
5
39
2
10
85.210099
20
259.710869
11
85.190965
21
259.707062
0
LINE
8
boundary
62
5
39
2
10
85.190965
20
259.707062
11
85.190965
21
191.814822
0
LINE
8
boundary
62
5
39
2
10
85.190965
20
191.814822
11
85.340965
21
191.804522
0
LINE
8
boundary
62
5
39
2
10
85.340965
20
191.804522
11
94.253205
21
196.222603
0
LINE
8
boundary
62
5
39
2
10
94.253205
20
196.222603
11
94.319888
21
196.260081
0
LINE
8
boundary
62
5
39
2
10
94.319888
20
196.260081
11
94.469888
21
196.344384
0
LINE
8
boundary
62
5
39
2
10
94.469888
20
196.344384
11
94.469888
21
260.246026
0
LINE
8
boundary
62
5
39
2
10
94.469888
20
260.246026
11
94.450754
21
260.249832
0
LINE
8
boundary
62
5
39
2
10
94.450754
20
260.249832
11
94.434533
21
260.260671
0
LINE
8
boundary
62
5
39
2
10
94.434533
20
260.260671
11
94.423694
21
260.276892
0
LINE
8
boundary
62
5
39
2
10
94.423694
20
260.276892
11
94.419888
21
260.296026
0
LINE
8
boundary
62
5
39
2
10
94.419888
20
260.296026
11
94.423694
21
260.315161
0
LINE
8
boundary
62
5
39
2
10
94.423694
20
260.315161
11
94.434532
21
260.331381
0
LINE
8
boundary
62
5
39
2
10
94.434532
20
260.331381
11
94.450754
21
260.342220
0
LINE
8
boundary
62
5
39
2
10
94.450754
20
260.342220
11
94.469888
21
260.346026
0
LINE
8
boundary
62
5
39
2
10
94.469888
20
260.346026
11
97.215888
21
260.346026
0
LINE
8
boundary
62
5
39
2
10
97.215888
20
260.346026
11
97.235022
21
260.342220
0
LINE
8
boundary
62
5
39
2
10
97.235022
20
260.342220
11
97.251243
21
260.331382
0
LINE
8
boundary
62
5
39
2
10
97.251243
20
260.331382
11
97.262082
21
260.315160
0
LINE
8
boundary
62
5
39
2
10
97.262082
20
260.315160
11
97.265888
21
260.296026
0
LINE
8
boundary
62
5
39
2
10
97.265888
20
260.296026
11
97.262082
21
260.276892
0
LINE
8
boundary
62
5
39
2
10
97.262082
20
260.276892
11
97.251243
21
260.260671
0
LINE
8
boundary
62
5
39
2
10
97.251243
20
260.260671
11
97.235022
21
260.249832
0
LINE
8
boundary
62
5
39
2
10
97.235022
20
260.249832
11
97.215888
21
260.246026
0
LINE
8
boundary
62
5
39
2
10
97.215888
20
260.246026
11
97.215888
21
197.813356
0
LINE
8
boundary
62
5
39
2
10
97.215888
20
197.813356
11
97.365888
21
197.803056
0
LINE
8
boundary
62
5
39
2
10
97.365888
20
197.803056
11
99.516236
21
198.705893
0
LINE
8
boundary
62
5
39
2
10
99.516236
20
198.705893
11
110.655338
21
202.849942
0
LINE
8
boundary
62
5
39
2
10
110.655338
20
202.849942
11
112.702556
21
202.632992
0
LINE
8
boundary
62
5
39
2
10
112.702556
20
202.632992
11
116.307616
21
205.383518
0
LINE
8
boundary
62
5
39
2
10
116.307616
20
205.383518
11
117.359641
21
205.744329
0
LINE
8
boundary
62
5
39
2
10
117.359641
20
205.744329
11
117.359641
21
258.623958
0
LINE
8
boundary
62
5
39
2
10
117.359641
20
258.623958
11
117.340507
21
258.627764
0
LINE
8
boundary
62
5
39
2
10
117.340507
20
258.627764
11
117.324286
21
258.638603
0
LINE
8
boundary
62
5
39
2
10
117.324286
20
258.638603
11
117.313447
21
258.654824
0
LINE
8
boundary
62
5
39
2
10
117.313447
20
258.654824
11
117.309641
21
258.673958
0
LINE
8
boundary
62
5
39
2
10
117.309641
20
258.673958
11
117.313447
21
258.693092
0
LINE
8
boundary
62
5
39
2
10
117.313447
20
258.693092
11
117.324286
21
258.709313
0
LINE
8
boundary
62
5
39
2
10
117.324286
20
258.709313
11
117.340507
21
258.720152
0
LINE
8
boundary
62
5
39
2
10
117.340507
20
258.720152
11
117.359641
21
258.723958
0
LINE
8
boundary
62
5
39
2
10
117.359641
20
258.723958
11
120.105641
21
258.723958
0
LINE
8
boundary
62
5
39
2
10
120.105641
20
258.723958
11
120.124775
21
258.720152
0
LINE
8
boundary
62
5
39
2
10
120.124775
20
258.720152
11
120.140996
21
258.709314
0
LINE
8
boundary
62
5
39
2
10
120.140996
20
258.709314
11
120.151835
21
258.693092
0
LINE
8
boundary
62
5
39
2
10
120.151835
20
258.693092
11
120.155641
21
258.673958
0
LINE
8
boundary
62
5
39
2
10
120.155641
20
258.673958
11
120.151835
21
258.654824
0
LINE
8
boundary
62
5
39
2
10
120.151835
20
258.654824
11
120.140996
21
258.638603
0
LINE
8
boundary
62
5
39
2
10
120.140996
20
258.638603
11
120.124775
21
258.627764
0
LINE
8
boundary
62
5
39
2
10
120.124775
20
258.627764
11
120.105641
21
258.623958
0
LINE
8
boundary
62
5
39
2
10
120.105641
20
258.623958
11
120.105641
21
204.868217
0
LINE
8
boundary
62
5
39
2
10
120.105641
20
204.868217
11
120.799745
21
204.547085
0
LINE
8
boundary
62
5
39
2
10
120.799745
20
204.547085
11
122.650058
21
203.056909
0
LINE
8
boundary
62
5
39
2
10
122.650058
20
203.056909
11
121.656450
21
195.367328
0
LINE
8
boundary
62
5
39
2
10
121.656450
20
195.367328
11
121.468566
21
193.457013
0
LINE
8
boundary
62
5
39
2
10
121.468566
20
193.457013
11
121.550582
21
192.743673
0
LINE
8
boundary
62
5
39
2
10
121.550582
20
192.743673
11
124.475855
21
185.662863
0
LINE
8
boundary
62
5
39
2
10
124.475855
20
185.662863
11
123.938144
21
183.356756
0
LINE
8
boundary
62
5
39
2
10
123.938144
20
183.356756
11
123.960763
21
179.639796
0
LINE
8
boundary
62
5
39
2
10
123.960763
20
179.639796
11
123.120861
21
174.115360
0
LINE
8
boundary
62
5
39
2
10
123.120861
20
174.115360
11
126.597663
21
173.740492
0
LINE
8
boundary
62
5
39
2
10
126.597663
20
173.740492
11
131.262073
21
173.678910
0
LINE
8
boundary
62
5
39
2
10
131.262073
20
173.678910
11
131.412073
21
173.689210
0
LINE
8
boundary
62
5
39
2
10
131.412073
20
173.689210
11
131.412073
21
237.142256
0
LINE
8
boundary
62
5
39
2
10
131.412073
20
237.142256
11
131.392939
21
237.146062
0
LINE
8
boundary
62
5
39
2
10
131.392939
20
237.146062
11
131.376718
21
237.156901
0
LINE
8
boundary
62
5
39
2
10
131.376718
20
237.156901
11
131.365879
21
237.173122
0
LINE
8
boundary
62
5
39
2
10
131.365879
20
237.173122
11
131.362073
21
237.192256
0
LINE
8
boundary
62
5
39
2
10
131.362073
20
237.192256
11
131.365879
21
237.211390
0
LINE
8
boundary
62
5
39
2
10
131.365879
20
237.211390
11
131.376718
21
237.227612
0
LINE
8
boundary
62
5
39
2
10
131.376718
20
237.227612
11
131.392939
21
237.238450
0
LINE
8
boundary
62
5
39
2
10
131.392939
20
237.238450
11
131.412073
21
237.242256
0
LINE
8
boundary
62
5
39
2
10
131.412073
20
237.242256
11
134.158073
21
237.242256
0
LINE
8
boundary
62
5
39
2
10
134.158073
20
237.242256
11
134.177207
21
237.238450
0
LINE
8
boundary
62
5
39
2
10
134.177207
20
237.238450
11
134.193428
21
237.227611
0
LINE
8
boundary
62
5
39
2
10
134.193428
20
237.227611
11
134.204267
21
237.211390
0
LINE
8
boundary
62
5
39
2
10
134.204267
20
237.211390
11
134.208073
21
237.192256
0
LINE
8
boundary
62
5
39
2
10
134.208073
20
237.192256
11
134.204267
21
237.173122
0
LINE
8
boundary
62
5
39
2
10
134.204267
20
237.173122
11
134.193428
21
237.156901
0
LINE
8
boundary
62
5
39
2
10
134.193428
20
237.156901
11
134.177207
21
237.146062
0
LINE
8
boundary
62
5
39
2
10
134.177207
20
237.146062
11
134.158073
21
237.142256
0
LINE
8
boundary
62
5
39
2
10
134.158073
20
237.142256
11
134.158073
21
173.814009
0
LINE
8
boundary
62
5
39
2
10
134.158073
20
173.814009
11
134.308073
21
173.803709
0
LINE
8
boundary
62
5
39
2
10
134.308073
20
173.803709
11
135.840645
21
173.903690
0
LINE
8
boundary
62
5
39
2
10
135.840645
20
173.903690
11
138.821947
21
174.868164
0
LINE
8
boundary
62
5
39
2
10
138.821947
20
174.868164
11
140.425182
21
178.195246
0
LINE
8
boundary
62
5
39
2
10
140.425182
20
178.195246
11
141.676696
21
180.289037
0
LINE
8
boundary
62
5
39
2
10
141.676696
20
180.289037
11
143.031427
21
215.484411
0
LINE
8
boundary
62
5
39
2
10
143.031427
20
215.484411
11
143.214469
21
219.095762
0
LINE
8
boundary
62
5
39
2
10
143.214469
20
219.095762
11
143.246947
21
220.523980
0
LINE
8
boundary
62
5
39
2
10
143.246947
20
220.523980
11
142.897707
21
226.756058
0
LINE
8
boundary
62
5
39
2
10
142.897707
20
226.756058
11
141.390513
21
258.132210
0
LINE
8
boundary
62
5
39
2
10
141.390513
20
258.132210
11
140.941101
21
263.982871
0
LINE
8
boundary
62
5
39
2
10
140.941101
20
263.982871
11
139.124990
21
273.038168
0
LINE
8
boundary
62
5
39
2
10
139.124990
20
273.038168
11
134.072829
21
295.647794
0
LINE
8
boundary
62
5
39
2
10
134.072829
20
295.647794
11
133.056492
21
300.142160
0
LINE
8
boundary
62
5
39
2
10
133.056492
20
300.142160
11
132.771734
21
300.597710
0
LINE
8
boundary
62
5
39
2
10
132.771734
20
300.597710
11
130.913373
21
302.655819
0
LINE
8
boundary
62
5
39
2
10
130.913373
20
302.655819
11
122.780886
21
310.293642
0
LINE
8
boundary
62
5
39
2
10
122.780886
20
310.293642
11
118.884398
21
312.631165
0
LINE
8
boundary
62
5
39
2
10
118.884398
20
312.631165
11
112.738689
21
316.213253
0
LINE
8
boundary
62
5
39
2
10
112.738689
20
316.213253
11
99.417104
21
322.519851
0
LINE
8
boundary
62
5
39
2
10
99.417104
20
322.519851
11
91.618587
21
325.847362
0
LINE
8
boundary
62
5
39
2
10
91.618587
20
325.847362
11
83.498739
21
329.447938
0
LINE
8
boundary
62
5
39
2
10
83.498739
20
329.447938
11
76.710047
21
331.230697
0
LINE
8
boundary
62
5
39
2
10
76.710047
20
331.230697
11
72.264023
21
331.020399
0
LINE
8
boundary
62
5
39
2
10
72.264023
20
331.020399
11
68.793776
21
330.198756
0
LINE
8
boundary
62
5
39
2
10
68.793776
20
330.198756
11
59.673656
21
326.864670
0
LINE
8
boundary
62
5
39
2
10
59.673656
20
326.864670
11
54.256095
21
324.482625
0
LINE
8
boundary
62
5
39
2
10
54.256095
20
324.482625
11
37.031627
21
315.993694
0
LINE
8
boundary
62
5
39
2
10
37.031627
20
315.993694
11
33.491434
21
314.076632
0
LINE
8
boundary
62
5
39
2
10
33.491434
20
314.076632
11
27.492353
21
309.859865
0
LINE
8
boundary
62
5
39
2
10
27.492353
20
309.859865
11
24.978863
21
307.738340
0
LINE
8
boundary
62
5
39
2
10
24.978863
20
307.738340
11
17.349956
21
300.315661
0
LINE
8
boundary
62
5
39
2
10
17.349956
20
300.315661
11
16.199811
21
296.446858
0
LINE
8
boundary
62
5
39
2
10
16.199811
20
296.446858
11
10.481332
21
268.632781
0
LINE
8
boundary
62
5
39
2
10
10.481332
20
268.632781
11
9.347267
21
257.981713
0
LINE
8
boundary
62
5
39
2
10
9.347267
20
257.981713
11
8.567067
21
248.867899
0
LINE
8
boundary
62
5
39
2
10
8.567067
20
248.867899
11
6.767500
21
230.363627
0
LINE
8
boundary
62
5
39
2
10
6.767500
20
230.363627
11
7.352337
21
212.275648
0
LINE
8
boundary
62
5
39
2
10
7.352337
20
212.275648
11
8.020061
21
203.045714
0
LINE
8
boundary
62
5
39
2
10
8.020061
20
203.045714
11
8.544301
21
185.306666
0
LINE
8
boundary
62
5
39
2
10
8.544301
20
185.306666
11
8.769897
21
180.569923
0
LINE
8
annotation
62
1
39
211
10
15.925337
20
243.094314
11
20.725337
21
243.094314
0
LINE
8
annotation
62
1
39
211
10
20.725337
20
243.094314
11
19.657935
21
244.161415
0
LINE
8
annotation
62
1
39
211
10
29.045911
20
263.446440
11
29.045911
21
265.578235
0
LINE
8
annotation
62
1
39
211
10
29.045911
20
265.578235
11
32.217114
21
263.608387
0
LINE
8
annotation
62
1
39
211
10
32.217114
20
263.608387
11
32.217114
21
263.608387
0
LINE
8
annotation
62
1
39
211
10
32.217114
20
263.608387
11
32.220028
21
263.606032
0
LINE
8
annotation
62
1
39
211
10
32.220028
20
263.606032
11
32.222967
21
263.603774
0
LINE
8
annotation
62
1
39
211
10
32.222967
20
263.603774
11
32.225955
21
263.601597
0
LINE
8
annotation
62
1
39
211
10
32.225955
20
263.601597
11
32.229018
21
263.599488
0
LINE
8
annotation
62
1
39
211
10
32.229018
20
263.599488
11
32.232179
21
263.597430
0
LINE
8
annotation
62
1
39
211
10
32.232179
20
263.597430
11
32.235465
21
263.595410
0
LINE
8
annotation
62
1
39
211
10
32.235465
20
263.595410
11
32.238899
21
263.593412
0
LINE
8
annotation
62
1
39
211
10
32.238899
20
263.593412
11
32.242507
21
263.591421
0
LINE
8
annotation
62
1
39
211
10
32.242507
20
263.591421
11
32.246313
21
263.589423
0
LINE
8
annotation
62
1
39
211
10
32.246313
20
263.589423
11
32.246313
21
263.589423
0
LINE
8
annotation
62
1
39
211
10
32.246313
20
263.589423
11
32.420945
21
263.508088
0
LINE
8
annotation
62
1
39
211
10
32.420945
20
263.508088
11
32.601966
21
263.460574
0
LINE
8
annotation
62
1
39
211
10
32.601966
20
263.460574
11
32.785287
21
263.445716
0
LINE
8
annotation
62
1
39
211
10
32.785287
20
263.445716
11
32.966817
21
263.462349
0
LINE
8
annotation
62
1
39
211
10
32.966817
20
263.462349
11
33.142465
21
263.509309
0
LINE
8
annotation
62
1
39
211
10
33.142465
20
263.509309
11
33.308141
21
263.585432
0
LINE
8
annotation
62
1
39
211
10
33.308141
20
263.585432
11
33.459754
21
263.689553
0
LINE
8
annotation
62
1
39
211
10
33.459754
20
263.689553
11
33.593216
21
263.820507
0
LINE
8
annotation
62
1
39
211
10
33.593216
20
263.820507
11
33.704434
21
263.977131
0
LINE
8
annotation
62
1
39
211
10
33.704434
20
263.977131
11
33.704434
21
263.977131
0
LINE
8
annotation
62
1
39
211
10
33.704434
20
263.977131
11
33.784613
21
264.152249
0
LINE
8
annotation
62
1
39
211
10
33.784613
20
264.152249
11
33.831395
21
264.333548
0
LINE
8
annotation
62
1
39
211
10
33.831395
20
264.333548
11
33.845833
21
264.516976
0
LINE
8
annotation
62
1
39
211
10
33.845833
20
264.516976
11
33.828981
21
264.698478
0
LINE
8
annotation
62
1
39
211
10
33.828981
20
264.698478
11
33.781891
21
264.874002
0
LINE
8
annotation
62
1
39
211
10
33.781891
20
264.874002
11
33.705615
21
265.039495
0
LINE
8
annotation
62
1
39
211
10
33.705615
20
265.039495
11
33.601208
21
265.190903
0
LINE
8
annotation
62
1
39
211
10
33.601208
20
265.190903
11
33.469722
21
265.324173
0
LINE
8
annotation
62
1
39
211
10
33.469722
20
265.324173
11
33.312210
21
265.435253
0
LINE
8
annotation
62
1
39
211
10
33.312210
20
265.435253
11
33.043704
21
265.575225
0
LINE
8
annotation
62
1
39
211
10
51.265525
20
267.935515
11
51.265525
21
266.869618
0
LINE
8
annotation
62
1
39
211
10
51.265525
20
266.869618
11
51.265525
21
266.869618
0
LINE
8
annotation
62
1
39
211
10
51.265525
20
266.869618
11
51.282722
21
266.677914
0
LINE
8
annotation
62
1
39
211
10
51.282722
20
266.677914
11
51.332285
21
266.497527
0
LINE
8
annotation
62
1
39
211
10
51.332285
20
266.497527
11
51.411172
21
266.331457
0
LINE
8
annotation
62
1
39
211
10
51.411172
20
266.331457
11
51.516340
21
266.182705
0
LINE
8
annotation
62
1
39
211
10
51.516340
20
266.182705
11
51.644747
21
266.054271
0
LINE
8
annotation
62
1
39
211
10
51.644747
20
266.054271
11
51.793350
21
265.949156
0
LINE
8
annotation
62
1
39
211
10
51.793350
20
265.949156
11
51.959108
21
265.870358
0
LINE
8
annotation
62
1
39
211
10
51.959108
20
265.870358
11
52.138978
21
265.820880
0
LINE
8
annotation
62
1
39
211
10
52.138978
20
265.820880
11
52.329917
21
265.803720
0
LINE
8
annotation
62
1
39
211
10
52.329917
20
265.803720
11
52.863618
21
265.803720
0
LINE
8
annotation
62
1
39
211
10
52.863618
20
265.803720
11
52.863618
21
265.803720
0
LINE
8
annotation
62
1
39
211
10
52.863618
20
265.803720
11
53.054478
21
265.820880
0
LINE
8
annotation
62
1
39
211
10
53.054478
20
265.820880
11
53.234305
21
265.870358
0
LINE
8
annotation
62
1
39
211
10
53.234305
20
265.870358
11
53.400051
21
265.949156
0
LINE
8
annotation
62
1
39
211
10
53.400051
20
265.949156
11
53.548664
21
266.054271
0
LINE
8
annotation
62
1
39
211
10
53.548664
20
266.054271
11
53.677096
21
266.182705
0
LINE
8
annotation
62
1
39
211
10
53.677096
20
266.182705
11
53.782296
21
266.331457
0
LINE
8
annotation
62
1
39
211
10
53.782296
20
266.331457
11
53.861216
21
266.497527
0
LINE
8
annotation
62
1
39
211
10
53.861216
20
266.497527
11
53.910803
21
266.677914
0
LINE
8
annotation
62
1
39
211
10
53.910803
20
266.677914
11
53.928010
21
266.869618
0
LINE
8
annotation
62
1
39
211
10
53.928010
20
266.869618
11
53.928010
21
267.403319
0
LINE
8
annotation
62
1
39
211
10
53.928010
20
267.403319
11
53.928010
21
266.869618
0
LINE
8
annotation
62
1
39
211
10
53.928010
20
266.869618
11
53.928010
21
266.869618
0
LINE
8
annotation
62
1
39
211
10
53.928010
20
266.869618
11
53.945222
21
266.677914
0
LINE
8
annotation
62
1
39
211
10
53.945222
20
266.677914
11
53.994839
21
266.497527
0
LINE
8
annotation
62
1
39
211
10
53.994839
20
266.497527
11
54.073836
21
266.331457
0
LINE
8
annotation
62
1
39
211
10
54.073836
20
266.331457
11
54.179189
21
266.182705
0
LINE
8
annotation
62
1
39
211
10
54.179189
20
266.182705
11
54.307873
21
266.054271
0
LINE
8
annotation
62
1
39
211
10
54.307873
20
266.054271
11
54.456862
21
265.949156
0
LINE
8
annotation
62
1
39
211
10
54.456862
20
265.949156
11
54.623132
21
265.870358
0
LINE
8
annotation
62
1
39
211
10
54.623132
20
265.870358
11
54.803657
21
265.820880
0
LINE
8
annotation
62
1
39
211
10
54.803657
20
265.820880
11
54.995413
21
265.803720
0
LINE
8
annotation
62
1
39
211
10
54.995413
20
265.803720
11
54.995413
21
265.803720
0
LINE
8
annotation
62
1
39
211
10
54.995413
20
265.803720
11
55.186273
21
265.820880
0
LINE
8
annotation
62
1
39
211
10
55.186273
20
265.820880
11
55.366100
21
265.870358
0
LINE
8
annotation
62
1
39
211
10
55.366100
20
265.870358
11
55.531846
21
265.949156
0
LINE
8
annotation
62
1
39
211
10
55.531846
20
265.949156
11
55.680459
21
266.054271
0
LINE
8
annotation
62
1
39
211
10
55.680459
20
266.054271
11
55.808891
21
266.182705
0
LINE
8
annotation
62
1
39
211
10
55.808891
20
266.182705
11
55.914091
21
266.331457
0
LINE
8
annotation
62
1
39
211
10
55.914091
20
266.331457
11
55.993010
21
266.497527
0
LINE
8
annotation
62
1
39
211
10
55.993010
20
266.497527
11
56.042598
21
266.677914
0
LINE
8
annotation
62
1
39
211
10
56.042598
20
266.677914
11
56.059805
21
266.869618
0
LINE
8
annotation
62
1
39
211
10
56.059805
20
266.869618
11
56.059805
21
267.935515
0
LINE
8
annotation
62
1
39
211
10
65.027728
20
264.799375
11
65.027728
21
267.464570
0
LINE
8
annotation
62
1
39
211
10
65.027728
20
267.464570
11
68.760627
21
266.400178
0
LINE
8
annotation
62
1
39
211
10
63.960627
20
265.598271
11
66.092421
21
265.598271
0
LINE
8
annotation
62
1
39
211
10
81.417965
20
267.000562
11
81.417965
21
265.934665
0
LINE
8
annotation
62
1
39
211
10
81.417965
20
265.934665
11
81.417965
21
265.934665
0
LINE
8
annotation
62
1
39
211
10
81.417965
20
265.934665
11
81.435166
21
265.743357
0
LINE
8
annotation
62
1
39
211
10
81.435166
20
265.743357
11
81.484755
21
265.563180
0
LINE
8
annotation
62
1
39
211
10
81.484755
20
265.563180
11
81.563712
21
265.397173
0
LINE
8
annotation
62
1
39
211
10
81.563712
20
265.397173
11
81.669018
21
265.248371
0
LINE
8
annotation
62
1
39
211
10
81.669018
20
265.248371
11
81.797651
21
265.119814
0
LINE
8
annotation
62
1
39
211
10
81.797651
20
265.119814
11
81.946593
21
265.014537
0
LINE
8
annotation
62
1
39
211
10
81.946593
20
265.014537
11
82.112823
21
264.935579
0
LINE
8
annotation
62
1
39
211
10
82.112823
20
264.935579
11
82.293321
21
264.885976
0
LINE
8
annotation
62
1
39
211
10
82.293321
20
264.885976
11
82.485066
21
264.868767
0
LINE
8
annotation
62
1
39
211
10
82.485066
20
264.868767
11
83.016058
21
264.868767
0
LINE
8
annotation
62
1
39
211
10
83.016058
20
264.868767
11
83.016058
21
264.868767
0
LINE
8
annotation
62
1
39
211
10
83.016058
20
264.868767
11
83.207711
21
264.885966
0
LINE
8
annotation
62
1
39
211
10
83.207711
20
264.885966
11
83.387960
21
264.935544
0
LINE
8
annotation
62
1
39
211
10
83.387960
20
264.935544
11
83.553829
21
265.014470
0
LINE
8
annotation
62
1
39
211
10
83.553829
20
265.014470
11
83.702343
21
265.119714
0
LINE
8
annotation
62
1
39
211
10
83.702343
20
265.119714
11
83.830527
21
265.248247
0
LINE
8
annotation
62
1
39
211
10
83.830527
20
265.248247
11
83.935405
21
265.397039
0
LINE
8
annotation
62
1
39
211
10
83.935405
20
265.397039
11
84.014002
21
265.563059
0
LINE
8
annotation
62
1
39
211
10
84.014002
20
265.563059
11
84.063343
21
265.743277
0
LINE
8
annotation
62
1
39
211
10
84.063343
20
265.743277
11
84.080451
21
265.934665
0
LINE
8
annotation
62
1
39
211
10
84.080451
20
265.934665
11
84.080451
21
267.000562
0
LINE
8
annotation
62
1
39
211
10
84.080451
20
267.000562
11
86.217965
21
267.000562
0
LINE
8
annotation
62
1
39
211
10
86.217965
20
267.000562
11
86.217965
21
264.868767
0
LINE
8
annotation
62
1
39
211
10
98.242888
20
265.938422
11
98.242888
21
265.938422
0
LINE
8
annotation
62
1
39
211
10
98.242888
20
265.938422
11
98.128399
21
266.243775
0
LINE
8
annotation
62
1
39
211
10
98.128399
20
266.243775
11
97.974139
21
266.523976
0
LINE
8
annotation
62
1
39
211
10
97.974139
20
266.523976
11
97.783972
21
266.776149
0
LINE
8
annotation
62
1
39
211
10
97.783972
20
266.776149
11
97.561764
21
266.997418
0
LINE
8
annotation
62
1
39
211
10
97.561764
20
266.997418
11
97.311380
21
267.184907
0
LINE
8
annotation
62
1
39
211
10
97.311380
20
267.184907
11
97.036684
21
267.335738
0
LINE
8
annotation
62
1
39
211
10
97.036684
20
267.335738
11
96.741541
21
267.447036
0
LINE
8
annotation
62
1
39
211
10
96.741541
20
267.447036
11
96.429816
21
267.515924
0
LINE
8
annotation
62
1
39
211
10
96.429816
20
267.515924
11
96.105374
21
267.539526
0
LINE
8
annotation
62
1
39
211
10
96.105374
20
267.539526
11
94.509989
21
267.539526
0
LINE
8
annotation
62
1
39
211
10
94.509989
20
267.539526
11
94.509989
21
267.539526
0
LINE
8
annotation
62
1
39
211
10
94.509989
20
267.539526
11
94.318244
21
267.522317
0
LINE
8
annotation
62
1
39
211
10
94.318244
20
267.522317
11
94.137746
21
267.472714
0
LINE
8
annotation
62
1
39
211
10
94.137746
20
267.472714
11
93.971516
21
267.393756
0
LINE
8
annotation
62
1
39
211
10
93.971516
20
267.393756
11
93.822575
21
267.288479
0
LINE
8
annotation
62
1
39
211
10
93.822575
20
267.288479
11
93.693941
21
267.159921
0
LINE
8
annotation
62
1
39
211
10
93.693941
20
267.159921
11
93.588635
21
267.011120
0
LINE
8
annotation
62
1
39
211
10
93.588635
20
267.011120
11
93.509678
21
266.845112
0
LINE
8
annotation
62
1
39
211
10
93.509678
20
266.845112
11
93.460089
21
266.664936
0
LINE
8
annotation
62
1
39
211
10
93.460089
20
266.664936
11
93.442888
21
266.473628
0
LINE
8
annotation
62
1
39
211
10
93.442888
20
266.473628
11
93.442888
21
266.473628
0
LINE
8
annotation
62
1
39
211
10
93.442888
20
266.473628
11
93.460089
21
266.281924
0
LINE
8
annotation
62
1
39
211
10
93.460089
20
266.281924
11
93.509678
21
266.101537
0
LINE
8
annotation
62
1
39
211
10
93.509678
20
266.101537
11
93.588635
21
265.935468
0
LINE
8
annotation
62
1
39
211
10
93.588635
20
265.935468
11
93.693941
21
265.786716
0
LINE
8
annotation
62
1
39
211
10
93.693941
20
265.786716
11
93.822575
21
265.658282
0
LINE
8
annotation
62
1
39
211
10
93.822575
20
265.658282
11
93.971516
21
265.553166
0
LINE
8
annotation
62
1
39
211
10
93.971516
20
265.553166
11
94.137746
21
265.474369
0
LINE
8
annotation
62
1
39
211
10
94.137746
20
265.474369
11
94.318244
21
265.424890
0
LINE
8
annotation
62
1
39
211
10
94.318244
20
265.424890
11
94.509989
21
265.407731
0
LINE
8
annotation
62
1
39
211
10
94.509989
20
265.407731
11
95.040981
21
265.407731
0
LINE
8
annotation
62
1
39
211
10
95.040981
20
265.407731
11
95.040981
21
265.407731
0
LINE
8
annotation
62
1
39
211
10
95.040981
20
265.407731
11
95.232634
21
265.424890
0
LINE
8
annotation
62
1
39
211
10
95.232634
20
265.424890
11
95.412883
21
265.474369
0
LINE
8
annotation
62
1
39
211
10
95.412883
20
265.474369
11
95.578752
21
265.553166
0
LINE
8
annotation
62
1
39
211
10
95.578752
20
265.553166
11
95.727266
21
265.658282
0
LINE
8
annotation
62
1
39
211
10
95.727266
20
265.658282
11
95.855450
21
265.786716
0
LINE
8
annotation
62
1
39
211
10
95.855450
20
265.786716
11
95.960329
21
265.935468
0
LINE
8
annotation
62
1
39
211
10
95.960329
20
265.935468
11
96.038926
21
266.101537
0
LINE
8
annotation
62
1
39
211
10
96.038926
20
266.101537
11
96.088266
21
266.281924
0
LINE
8
annotation
62
1
39
211
10
96.088266
20
266.281924
11
96.105374
21
266.473628
0
LINE
8
annotation
62
1
39
211
10
96.105374
20
266.473628
11
96.105374
21
267.539526
0
LINE
8
annotation
62
1
39
211
10
92.842888
20
267.673026
11
92.842888
21
265.273026
0
LINE
8
annotation
62
1
39
211
10
116.332641
20
264.851560
11
121.132641
21
263.784459
0
LINE
8
annotation
62
1
39
211
10
121.132641
20
263.784459
11
121.132641
21
265.918963
0
LINE
8
annotation
62
1
39
211
10
118.995127
20
263.784459
11
118.995127
21
264.851560
0
LINE
8
annotation
62
1
39
211
10
131.449315
20
244.435756
11
131.449315
21
244.435756
0
LINE
8
annotation
62
1
39
211
10
131.449315
20
244.435756
11
131.257662
21
244.418546
0
LINE
8
annotation
62
1
39
211
10
131.257662
20
244.418546
11
131.077413
21
244.368944
0
LINE
8
annotation
62
1
39
211
10
131.077413
20
244.368944
11
130.911544
21
244.289986
0
LINE
8
annotation
62
1
39
211
10
130.911544
20
244.289986
11
130.763030
21
244.184709
0
LINE
8
annotation
62
1
39
211
10
130.763030
20
244.184709
11
130.634846
21
244.056151
0
LINE
8
annotation
62
1
39
211
10
130.634846
20
244.056151
11
130.529967
21
243.907350
0
LINE
8
annotation
62
1
39
211
10
130.529967
20
243.907350
11
130.451371
21
243.741342
0
LINE
8
annotation
62
1
39
211
10
130.451371
20
243.741342
11
130.402030
21
243.561166
0
LINE
8
annotation
62
1
39
211
10
130.402030
20
243.561166
11
130.384922
21
243.369858
0
LINE
8
annotation
62
1
39
211
10
130.384922
20
243.369858
11
130.384922
21
243.369858
0
LINE
8
annotation
62
1
39
211
10
130.384922
20
243.369858
11
130.402030
21
243.178550
0
LINE
8
annotation
62
1
39
211
10
130.402030
20
243.178550
11
130.451371
21
242.998374
0
LINE
8
annotation
62
1
39
211
10
130.451371
20
242.998374
11
130.529967
21
242.832366
0
LINE
8
annotation
62
1
39
211
10
130.529967
20
242.832366
11
130.634846
21
242.683565
0
LINE
8
annotation
62
1
39
211
10
130.634846
20
242.683565
11
130.763030
21
242.555007
0
LINE
8
annotation
62
1
39
211
10
130.763030
20
242.555007
11
130.911544
21
242.449731
0
LINE
8
annotation
62
1
39
211
10
130.911544
20
242.449731
11
131.077413
21
242.370772
0
LINE
8
annotation
62
1
39
211
10
131.077413
20
242.370772
11
131.257662
21
242.321170
0
LINE
8
annotation
62
1
39
211
10
131.257662
20
242.321170
11
131.449315
21
242.303961
0
LINE
8
annotation
62
1
39
211
10
131.449315
20
242.303961
11
131.980307
21
242.303961
0
LINE
8
annotation
62
1
39
211
10
131.980307
20
242.303961
11
131.980307
21
242.303961
0
LINE
8
annotation
62
1
39
211
10
131.980307
20
242.303961
11
132.172052
21
242.321160
0
LINE
8
annotation
62
1
39
211
10
132.172052
20
242.321160
11
132.352550
21
242.370738
0
LINE
8
annotation
62
1
39
211
10
132.352550
20
242.370738
11
132.518780
21
242.449664
0
LINE
8
annotation
62
1
39
211
10
132.518780
20
242.449664
11
132.667722
21
242.554908
0
LINE
8
annotation
62
1
39
211
10
132.667722
20
242.554908
11
132.796355
21
242.683441
0
LINE
8
annotation
62
1
39
211
10
132.796355
20
242.683441
11
132.901661
21
242.832233
0
LINE
8
annotation
62
1
39
211
10
132.901661
20
242.832233
11
132.980618
21
242.998253
0
LINE
8
annotation
62
1
39
211
10
132.980618
20
242.998253
11
133.030207
21
243.178471
0
LINE
8
annotation
62
1
39
211
10
133.030207
20
243.178471
11
133.047408
21
243.369858
0
LINE
8
annotation
62
1
39
211
10
133.047408
20
243.369858
11
133.047408
21
243.369858
0
LINE
8
annotation
62
1
39
211
10
133.047408
20
243.369858
11
133.030198
21
243.561245
0
LINE
8
annotation
62
1
39
211
10
133.030198
20
243.561245
11
132.980584
21
243.741464
0
LINE
8
annotation
62
1
39
211
10
132.980584
20
243.741464
11
132.901594
21
243.907484
0
LINE
8
annotation
62
1
39
211
10
132.901594
20
243.907484
11
132.796256
21
244.056275
0
LINE
8
annotation
62
1
39
211
10
132.796256
20
244.056275
11
132.667598
21
244.184808
0
LINE
8
annotation
62
1
39
211
10
132.667598
20
244.184808
11
132.518646
21
244.290053
0
LINE
8
annotation
62
1
39
211
10
132.518646
20
244.290053
11
132.352429
21
244.368979
0
LINE
8
annotation
62
1
39
211
10
132.352429
20
244.368979
11
132.171973
21
244.418556
0
LINE
8
annotation
62
1
39
211
10
132.171973
20
244.418556
11
131.980307
21
244.435756
0
LINE
8
annotation
62
1
39
211
10
131.980307
20
244.435756
11
131.449315
21
244.435756
0
LINE
8
annotation
62
1
39
211
10
134.114811
20
242.303961
11
134.114811
21
242.303961
0
LINE
8
annotation
62
1
39
211
10
134.114811
20
242.303961
11
134.305671
21
242.321160
0
LINE
8
annotation
62
1
39
211
10
134.305671
20
242.321160
11
134.485498
21
242.370738
0
LINE
8
annotation
62
1
39
211
10
134.485498
20
242.370738
11
134.651243
21
242.449664
0
LINE
8
annotation
62
1
39
211
10
134.651243
20
242.449664
11
134.799857
21
242.554908
0
LINE
8
annotation
62
1
39
211
10
134.799857
20
242.554908
11
134.928289
21
242.683441
0
LINE
8
annotation
62
1
39
211
10
134.928289
20
242.683441
11
135.033489
21
242.832233
0
LINE
8
annotation
62
1
39
211
10
135.033489
20
242.832233
11
135.112408
21
242.998253
0
LINE
8
annotation
62
1
39
211
10
135.112408
20
242.998253
11
135.161996
21
243.178471
0
LINE
8
annotation
62
1
39
211
10
135.161996
20
243.178471
11
135.179203
21
243.369858
0
LINE
8
annotation
62
1
39
211
10
135.179203
20
243.369858
11
135.179203
21
243.369858
0
LINE
8
annotation
62
1
39
211
10
135.179203
20
243.369858
11
135.161996
21
243.561245
0
LINE
8
annotation
62
1
39
211
10
135.161996
20
243.561245
11
135.112408
21
243.741464
0
LINE
8
annotation
62
1
39
211
10
135.112408
20
243.741464
11
135.033489
21
243.907484
0
LINE
8
annotation
62
1
39
211
10
135.033489
20
243.907484
11
134.928289
21
244.056275
0
LINE
8
annotation
62
1
39
211
10
134.928289
20
244.056275
11
134.799857
21
244.184808
0
LINE
8
annotation
62
1
39
211
10
134.799857
20
244.184808
11
134.651243
21
244.290053
0
LINE
8
annotation
62
1
39
211
10
134.651243
20
244.290053
11
134.485498
21
244.368979
0
LINE
8
annotation
62
1
39
211
10
134.485498
20
244.368979
11
134.305671
21
244.418556
0
LINE
8
annotation
62
1
39
211
10
134.305671
20
244.418556
11
134.114811
21
244.435756
0
LINE
8
annotation
62
1
39
211
10
134.114811
20
244.435756
11
134.114811
21
244.435756
0
LINE
8
annotation
62
1
39
211
10
134.114811
20
244.435756
11
133.923055
21
244.418546
0
LINE
8
annotation
62
1
39
211
10
133.923055
20
244.418546
11
133.742530
21
244.368944
0
LINE
8
annotation
62
1
39
211
10
133.742530
20
244.368944
11
133.576260
21
244.289986
0
LINE
8
annotation
62
1
39
211
10
133.576260
20
244.289986
11
133.427271
21
244.184709
0
LINE
8
annotation
62
1
39
211
10
133.427271
20
244.184709
11
133.298587
21
244.056151
0
LINE
8
annotation
62
1
39
211
10
133.298587
20
244.056151
11
133.193234
21
243.907350
0
LINE
8
annotation
62
1
39
211
10
133.193234
20
243.907350
11
133.114236
21
243.741342
0
LINE
8
annotation
62
1
39
211
10
133.114236
20
243.741342
11
133.064619
21
243.561166
0
LINE
8
annotation
62
1
39
211
10
133.064619
20
243.561166
11
133.047408
21
243.369858
0
LINE
8
annotation
62
1
39
211
10
133.047408
20
243.369858
11
133.047408
21
243.369858
0
LINE
8
annotation
62
1
39
211
10
133.047408
20
243.369858
11
133.064619
21
243.178550
0
LINE
8
annotation
62
1
39
211
10
133.064619
20
243.178550
11
133.114236
21
242.998374
0
LINE
8
annotation
62
1
39
211
10
133.114236
20
242.998374
11
133.193234
21
242.832366
0
LINE
8
annotation
62
1
39
211
10
133.193234
20
242.832366
11
133.298587
21
242.683565
0
LINE
8
annotation
62
1
39
211
10
133.298587
20
242.683565
11
133.427271
21
242.555007
0
LINE
8
annotation
62
1
39
211
10
133.427271
20
242.555007
11
133.576260
21
242.449731
0
LINE
8
annotation
62
1
39
211
10
133.576260
20
242.449731
11
133.742530
21
242.370772
0
LINE
8
annotation
62
1
39
211
10
133.742530
20
242.370772
11
133.923055
21
242.321170
0
LINE
8
annotation
62
1
39
211
10
133.923055
20
242.321170
11
134.114811
21
242.303961
0
LINE
8
annotation
62
1
39
211
10
65.280577
20
300.727863
11
57.712943
21
289.781973
0
LINE
8
annotation
62
1
39
211
10
57.712943
20
289.781973
11
50.143886
21
300.727863
0
LINE
8
annotation
62
1
39
211
10
57.712943
20
290.662824
11
57.712943
21
278.034922
0
LINE
8
annotation
62
1
39
211
10
86.200076
20
289.381392
11
73.792742
21
289.381392
0
LINE
8
annotation
62
1
39
211
10
104.786819
20
278.035449
11
94.708973
21
278.035449
0
LINE
8
annotation
62
1
39
211
10
94.708973
20
278.035449
11
104.021233
21
293.026992
0
LINE
8
annotation
62
1
39
211
10
104.021233
20
293.026992
11
104.021233
21
293.026992
0
LINE
8
annotation
62
1
39
211
10
104.021233
20
293.026992
11
104.032365
21
293.040767
0
LINE
8
annotation
62
1
39
211
10
104.032365
20
293.040767
11
104.043041
21
293.054659
0
LINE
8
annotation
62
1
39
211
10
104.043041
20
293.054659
11
104.053330
21
293.068786
0
LINE
8
annotation
62
1
39
211
10
104.053330
20
293.068786
11
104.063303
21
293.083264
0
LINE
8
annotation
62
1
39
211
10
104.063303
20
293.083264
11
104.073030
21
293.098211
0
LINE
8
annotation
62
1
39
211
10
104.073030
20
293.098211
11
104.082581
21
293.113743
0
LINE
8
annotation
62
1
39
211
10
104.082581
20
293.113743
11
104.092027
21
293.129978
0
LINE
8
annotation
62
1
39
211
10
104.092027
20
293.129978
11
104.101437
21
293.147033
0
LINE
8
annotation
62
1
39
211
10
104.101437
20
293.147033
11
104.110883
21
293.165025
0
LINE
8
annotation
62
1
39
211
10
104.110883
20
293.165025
11
104.110883
21
293.165025
0
LINE
8
annotation
62
1
39
211
10
104.110883
20
293.165025
11
104.495384
21
293.990581
0
LINE
8
annotation
62
1
39
211
10
104.495384
20
293.990581
11
104.720003
21
294.846342
0
LINE
8
annotation
62
1
39
211
10
104.720003
20
294.846342
11
104.790245
21
295.712973
0
LINE
8
annotation
62
1
39
211
10
104.790245
20
295.712973
11
104.711613
21
296.571136
0
LINE
8
annotation
62
1
39
211
10
104.711613
20
296.571136
11
104.489614
21
297.401494
0
LINE
8
annotation
62
1
39
211
10
104.489614
20
297.401494
11
104.129751
21
298.184710
0
LINE
8
annotation
62
1
39
211
10
104.129751
20
298.184710
11
103.637530
21
298.901449
0
LINE
8
annotation
62
1
39
211
10
103.637530
20
298.901449
11
103.018455
21
299.532373
0
LINE
8
annotation
62
1
39
211
10
103.018455
20
299.532373
11
102.278030
21
300.058146
0
LINE
8
annotation
62
1
39
211
10
102.278030
20
300.058146
11
102.278030
21
300.058146
0
LINE
8
annotation
62
1
39
211
10
102.278030
20
300.058146
11
101.450178
21
300.437183
0
LINE
8
annotation
62
1
39
211
10
101.450178
20
300.437183
11
100.593105
21
300.658341
0
LINE
8
annotation
62
1
39
211
10
100.593105
20
300.658341
11
99.725971
21
300.726598
0
LINE
8
annotation
62
1
39
211
10
99.725971
20
300.726598
11
98.867937
21
300.646930
0
LINE
8
annotation
62
1
39
211
10
98.867937
20
300.646930
11
98.038165
21
300.424316
0
LINE
8
annotation
62
1
39
211
10
98.038165
20
300.424316
11
97.255815
21
300.063733
0
LINE
8
annotation
62
1
39
211
10
97.255815
20
300.063733
11
96.540048
21
299.570159
0
LINE
8
annotation
62
1
39
211
10
96.540048
20
299.570159
11
95.910026
21
298.948571
0
LINE
8
annotation
62
1
39
211
10
95.910026
20
298.948571
11
95.384909
21
298.203948
0
LINE
8
annotation
62
1
39
211
10
95.384909
20
298.203948
11
94.723203
21
296.934612
0
LINE
8
boundary
62
5
39
2
10
98.296588
20
341.586150
11
98.101271
21
338.279275
0
LINE
8
boundary
62
5
39
2
10
98.101271
20
338.279275
11
98.296939
21
336.615673
0
LINE
8
boundary
62
5
39
2
10
98.296939
20
336.615673
11
98.636514
21
336.580695
0
LINE
8
boundary
62
5
39
2
10
98.636514
20
336.580695
11
102.037430
21
335.835819
0
LINE
8
boundary
62
5
39
2
10
102.037430
20
335.835819
11
102.187429
21
335.846119
0
LINE
8
boundary
62
5
39
2
10
102.187429
20
335.846119
11
102.187429
21
399.980283
0
LINE
8
boundary
62
5
39
2
10
102.187429
20
399.980283
11
102.168295
21
399.984089
0
LINE
8
boundary
62
5
39
2
10
102.168295
20
399.984089
11
102.152074
21
399.994928
0
LINE
8
boundary
62
5
39
2
10
102.152074
20
399.994928
11
102.141235
21
400.011149
0
LINE
8
boundary
62
5
39
2
10
102.141235
20
400.011149
11
102.137429
21
400.030283
0
LINE
8
boundary
62
5
39
2
10
102.137429
20
400.030283
11
102.141235
21
400.049418
0
LINE
8
boundary
62
5
39
2
10
102.141235
20
400.049418
11
102.152074
21
400.065639
0
LINE
8
boundary
62
5
39
2
10
102.152074
20
400.065639
11
102.168295
21
400.076477
0
LINE
8
boundary
62
5
39
2
10
102.168295
20
400.076477
11
102.187430
21
400.080283
0
LINE
8
boundary
62
5
39
2
10
102.187430
20
400.080283
11
104.933429
21
400.080283
0
LINE
8
boundary
62
5
39
2
10
104.933429
20
400.080283
11
104.952564
21
400.076477
0
LINE
8
boundary
62
5
39
2
10
104.952564
20
400.076477
11
104.968785
21
400.065639
0
LINE
8
boundary
62
5
39
2
10
104.968785
20
400.065639
11
104.979624
21
400.049417
0
LINE
8
boundary
62
5
39
2
10
104.979624
20
400.049417
11
104.983429
21
400.030283
0
LINE
8
boundary
62
5
39
2
10
104.983429
20
400.030283
11
104.979623
21
400.011149
0
LINE
8
boundary
62
5
39
2
10
104.979623
20
400.011149
11
104.968785
21
399.994928
0
LINE
8
boundary
62
5
39
2
10
104.968785
20
399.994928
11
104.952564
21
399.984089
0
LINE
8
boundary
62
5
39
2
10
104.952564
20
399.984089
11
104.933429
21
399.980283
0
LINE
8
boundary
62
5
39
2
10
104.933429
20
399.980283
11
104.933429
21
335.201531
0
LINE
8
boundary
62
5
39
2
10
104.933429
20
335.201531
11
105.083429
21
335.168678
0
LINE
8
boundary
62
5
39
2
10
105.083429
20
335.168678
11
107.127008
21
334.721089
0
LINE
8
boundary
62
5
39
2
10
107.127008
20
334.721089
11
110.180286
21
335.486233
0
LINE
8
boundary
62
5
39
2
10
110.180286
20
335.486233
11
110.358322
21
335.567698
0
LINE
8
boundary
62
5
39
2
10
110.358322
20
335.567698
11
110.549533
21
336.514410
0
LINE
8
boundary
62
5
39
2
10
110.549533
20
336.514410
11
111.306005
21
340.429972
0
LINE
8
boundary
62
5
39
2
10
111.306005
20
340.429972
11
111.328593
21
347.041762
0
LINE
8
boundary
62
5
39
2
10
111.328593
20
347.041762
11
111.789818
21
360.022469
0
LINE
8
boundary
62
5
39
2
10
111.789818
20
360.022469
11
112.601276
21
375.485770
0
LINE
8
boundary
62
5
39
2
10
112.601276
20
375.485770
11
112.673340
21
389.367139
0
LINE
8
boundary
62
5
39
2
10
112.673340
20
389.367139
11
112.729689
21
395.512663
0
LINE
8
boundary
62
5
39
2
10
112.729689
20
395.512663
11
113.219575
21
406.117907
0
LINE
8
boundary
62
5
39
2
10
113.219575
20
406.117907
11
112.826334
21
428.597418
0
LINE
8
boundary
62
5
39
2
10
112.826334
20
428.597418
11
112.605299
21
433.222659
0
LINE
8
boundary
62
5
39
2
10
112.605299
20
433.222659
11
110.948381
21
448.780273
0
LINE
8
boundary
62
5
39
2
10
110.948381
20
448.780273
11
107.865307
21
455.941257
0
LINE
8
boundary
62
5
39
2
10
107.865307
20
455.941257
11
106.009966
21
460.033032
0
LINE
8
boundary
62
5
39
2
10
106.009966
20
460.033032
11
104.257084
21
463.635531
0
LINE
8
boundary
62
5
39
2
10
104.257084
20
463.635531
11
101.689718
21
467.560175
0
LINE
8
boundary
62
5
39
2
10
101.689718
20
467.560175
11
96.027461
21
469.495319
0
LINE
8
boundary
62
5
39
2
10
96.027461
20
469.495319
11
89.691501
21
471.503854
0
LINE
8
boundary
62
5
39
2
10
89.691501
20
471.503854
11
84.341806
21
473.795966
0
LINE
8
boundary
62
5
39
2
10
84.341806
20
473.795966
11
72.357628
21
478.576956
0
LINE
8
boundary
62
5
39
2
10
72.357628
20
478.576956
11
67.811631
21
480.563340
0
LINE
8
boundary
62
5
39
2
10
67.811631
20
480.563340
11
66.434389
21
481.178889
0
LINE
8
boundary
62
5
39
2
10
66.434389
20
481.178889
11
61.072670
21
485.319491
0
LINE
8
boundary
62
5
39
2
10
61.072670
20
485.319491
11
51.926513
21
480.491267
0
LINE
8
boundary
62
5
39
2
10
51.926513
20
480.491267
11
51.519340
21
480.432531
0
LINE
8
boundary
62
5
39
2
10
51.519340
20
480.432531
11
50.580660
21
479.924531
0
LINE
8
boundary
62
5
39
2
10
50.580660
20
479.924531
11
50.065605
21
479.469061
0
LINE
8
boundary
62
5
39
2
10
50.065605
20
479.469061
11
35.636734
21
472.746214
0
LINE
8
boundary
62
5
39
2
10
35.636734
20
472.746214
11
29.466042
21
471.231973
0
LINE
8
boundary
62
5
39
2
10
29.466042
20
471.231973
11
18.888521
21
467.572306
0
LINE
8
boundary
62
5
39
2
10
18.888521
20
467.572306
11
11.394858
21
452.923711
0
LINE
8
boundary
62
5
39
2
10
11.394858
20
452.923711
11
9.442526
21
449.432033
0
LINE
8
boundary
62
5
39
2
10
9.442526
20
449.432033
11
9.228647
21
448.850689
0
LINE
8
boundary
62
5
39
2
10
9.228647
20
448.850689
11
8.820141
21
445.655679
0
LINE
8
boundary
62
5
39
2
10
8.820141
20
445.655679
11
6.767500
21
422.650712
0
LINE
8
boundary
62
5
39
2
10
6.767500
20
422.650712
11
7.312604
21
414.969291
0
LINE
8
boundary
62
5
39
2
10
7.312604
20
414.969291
11
7.376192
21
385.967558
0
LINE
8
boundary
62
5
39
2
10
7.376192
20
385.967558
11
7.537590
21
380.336527
0
LINE
8
boundary
62
5
39
2
10
7.537590
20
380.336527
11
7.888444
21
363.511440
0
LINE
8
boundary
62
5
39
2
10
7.888444
20
363.511440
11
8.004050
21
358.442183
0
LINE
8
boundary
62
5
39
2
10
8.004050
20
358.442183
11
8.194824
21
354.089541
0
LINE
8
boundary
62
5
39
2
10
8.194824
20
354.089541
11
9.130927
21
341.850775
0
LINE
8
boundary
62
5
39
2
10
9.130927
20
341.850775
11
9.285937
21
337.912556
0
LINE
8
boundary
62
5
39
2
10
9.285937
20
337.912556
11
9.253358
21
336.675063
0
LINE
8
boundary
62
5
39
2
10
9.253358
20
336.675063
11
9.741916
21
335.310889
0
LINE
8
boundary
62
5
39
2
10
9.741916
20
335.310889
11
14.749199
21
334.872109
0
LINE
8
boundary
62
5
39
2
10
14.749199
20
334.872109
11
14.750739
21
334.871917
0
LINE
8
boundary
62
5
39
2
10
14.750739
20
334.871917
11
14.900739
21
334.882217
0
LINE
8
boundary
62
5
39
2
10
14.900739
20
334.882217
11
14.900739
21
398.390091
0
LINE
8
boundary
62
5
39
2
10
14.900739
20
398.390091
11
14.881605
21
398.393897
0
LINE
8
boundary
62
5
39
2
10
14.881605
20
398.393897
11
14.865383
21
398.404736
0
LINE
8
boundary
62
5
39
2
10
14.865383
20
398.404736
11
14.854545
21
398.420957
0
LINE
8
boundary
62
5
39
2
10
14.854545
20
398.420957
11
14.850739
21
398.440091
0
LINE
8
boundary
62
5
39
2
10
14.850739
20
398.440091
11
14.854545
21
398.459226
0
LINE
8
boundary
62
5
39
2
10
14.854545
20
398.459226
11
14.865383
21
398.475447
0
LINE
8
boundary
62
5
39
2
10
14.865383
20
398.475447
11
14.881604
21
398.486285
0
LINE
8
boundary
62
5
39
2
10
14.881604
20
398.486285
11
14.900739
21
398.490091
0
LINE
8
boundary
62
5
39
2
10
14.900739
20
398.490091
11
17.646739
21
398.490091
0
LINE
8
boundary
62
5
39
2
10
17.646739
20
398.490091
11
17.665873
21
398.486285
0
LINE
8
boundary
62
5
39
2
10
17.665873
20
398.486285
11
17.682094
21
398.475447
0
LINE
8
boundary
62
5
39
2
10
17.682094
20
398.475447
11
17.692933
21
398.459225
0
LINE
8
boundary
62
5
39
2
10
17.692933
20
398.459225
11
17.696739
21
398.440091
0
LINE
8
boundary
62
5
39
2
10
17.696739
20
398.440091
11
17.692933
21
398.420957
0
LINE
8
boundary
62
5
39
2
10
17.692933
20
398.420957
11
17.682094
21
398.404736
0
LINE
8
boundary
62
5
39
2
10
17.682094
20
398.404736
11
17.665873
21
398.393897
0
LINE
8
boundary
62
5
39
2
10
17.665873
20
398.393897
11
17.646739
21
398.390091
0
LINE
8
boundary
62
5
39
2
10
17.646739
20
398.390091
11
17.646739
21
334.681988
0
LINE
8
boundary
62
5
39
2
10
17.646739
20
334.681988
11
17.796738
21
334.671688
0
LINE
8
boundary
62
5
39
2
10
17.796738
20
334.671688
11
17.819763
21
334.673360
0
LINE
8
boundary
62
5
39
2
10
17.819763
20
334.673360
11
18.975385
21
334.784097
0
LINE
8
boundary
62
5
39
2
10
18.975385
20
334.784097
11
19.496550
21
335.096905
0
LINE
8
boundary
62
5
39
2
10
19.496550
20
335.096905
11
21.928827
21
336.636364
0
LINE
8
boundary
62
5
39
2
10
21.928827
20
336.636364
11
22.250192
21
339.542359
0
LINE
8
boundary
62
5
39
2
10
22.250192
20
339.542359
11
23.446731
21
353.478683
0
LINE
8
boundary
62
5
39
2
10
23.446731
20
353.478683
11
23.615118
21
356.218269
0
LINE
8
boundary
62
5
39
2
10
23.615118
20
356.218269
11
23.585006
21
357.033776
0
LINE
8
boundary
62
5
39
2
10
23.585006
20
357.033776
11
22.097353
21
361.291724
0
LINE
8
boundary
62
5
39
2
10
22.097353
20
361.291724
11
21.224803
21
366.496842
0
LINE
8
boundary
62
5
39
2
10
21.224803
20
366.496842
11
19.851490
21
376.458484
0
LINE
8
boundary
62
5
39
2
10
19.851490
20
376.458484
11
25.211518
21
378.553196
0
LINE
8
boundary
62
5
39
2
10
25.211518
20
378.553196
11
23.117010
21
379.950705
0
LINE
8
boundary
62
5
39
2
10
23.117010
20
379.950705
11
25.593072
21
380.434711
0
LINE
8
boundary
62
5
39
2
10
25.593072
20
380.434711
11
26.299084
21
379.060146
0
LINE
8
boundary
62
5
39
2
10
26.299084
20
379.060146
11
26.386828
21
378.883509
0
LINE
8
boundary
62
5
39
2
10
26.386828
20
378.883509
11
27.057157
21
378.611746
0
LINE
8
boundary
62
5
39
2
10
27.057157
20
378.611746
11
36.970163
21
374.714381
0
LINE
8
boundary
62
5
39
2
10
36.970163
20
374.714381
11
37.120163
21
374.724681
0
LINE
8
boundary
62
5
39
2
10
37.120163
20
374.724681
11
37.120163
21
423.855822
0
LINE
8
boundary
62
5
39
2
10
37.120163
20
423.855822
11
37.101028
21
423.859628
0
LINE
8
boundary
62
5
39
2
10
37.101028
20
423.859628
11
37.084807
21
423.870466
0
LINE
8
boundary
62
5
39
2
10
37.084807
20
423.870466
11
37.073968
21
423.886687
0
LINE
8
boundary
62
5
39
2
10
37.073968
20
423.886687
11
37.070163
21
423.905822
0
LINE
8
boundary
62
5
39
2
10
37.070163
20
423.905822
11
37.073968
21
423.924956
0
LINE
8
boundary
62
5
39
2
10
37.073968
20
423.924956
11
37.084807
21
423.941177
0
LINE
8
boundary
62
5
39
2
10
37.084807
20
423.941177
11
37.101028
21
423.952016
0
LINE
8
boundary
62
5
39
2
10
37.101028
20
423.952016
11
37.120163
21
423.955822
0
LINE
8
boundary
62
5
39
2
10
37.120163
20
423.955822
11
39.866162
21
423.955822
0
LINE
8
boundary
62
5
39
2
10
39.866162
20
423.955822
11
39.885297
21
423.952016
0
LINE
8
boundary
62
5
39
2
10
39.885297
20
423.952016
11
39.901518
21
423.941177
0
LINE
8
boundary
62
5
39
2
10
39.901518
20
423.941177
11
39.912357
21
423.924956
0
LINE
8
boundary
62
5
39
2
10
39.912357
20
423.924956
11
39.916163
21
423.905822
0
LINE
8
boundary
62
5
39
2
10
39.916163
20
423.905822
11
39.912357
21
423.886687
0
LINE
8
boundary
62
5
39
2
10
39.912357
20
423.886687
11
39.901518
21
423.870466
0
LINE
8
boundary
62
5
39
2
10
39.901518
20
423.870466
11
39.885297
21
423.859628
0
LINE
8
boundary
62
5
39
2
10
39.885297
20
423.859628
11
39.866162
21
423.855822
0
LINE
8
boundary
62
5
39
2
10
39.866162
20
423.855822
11
39.866162
21
373.575800
0
LINE
8
boundary
62
5
39
2
10
39.866162
20
373.575800
11
40.016163
21
373.516826
0
LINE
8
boundary
62
5
39
2
10
40.016163
20
373.516826
11
44.469016
21
371.766157
0
LINE
8
boundary
62
5
39
2
10
44.469016
20
371.766157
11
49.665415
21
369.910652
0
LINE
8
boundary
62
5
39
2
10
49.665415
20
369.910652
11
49.815415
21
369.920952
0
LINE
8
boundary
62
5
39
2
10
49.815415
20
369.920952
11
49.815415
21
424.742857
0
LINE
8
boundary
62
5
39
2
10
49.815415
20
424.742857
11
49.796281
21
424.746663
0
LINE
8
boundary
62
5
39
2
10
49.796281
20
424.746663
11
49.780060
21
424.757502
0
LINE
8
boundary
62
5
39
2
10
49.780060
20
424.757502
11
49.769221
21
424.773723
0
LINE
8
boundary
62
5
39
2
10
49.769221
20
424.773723
11
49.765415
21
424.792857
0
LINE
8
boundary
62
5
39
2
10
49.765415
20
424.792857
11
49.769221
21
424.811991
0
LINE
8
boundary
62
5
39
2
10
49.769221
20
424.811991
11
49.780060
21
424.828213
0
LINE
8
boundary
62
5
39
2
10
49.780060
20
424.828213
11
49.796281
21
424.839051
0
LINE
8
boundary
62
5
39
2
10
49.796281
20
424.839051
11
49.815415
21
424.842857
0
LINE
8
boundary
62
5
39
2
10
49.815415
20
424.842857
11
52.561415
21
424.842857
0
LINE
8
boundary
62
5
39
2
10
52.561415
20
424.842857
11
52.580549
21
424.839051
0
LINE
8
boundary
62
5
39
2
10
52.580549
20
424.839051
11
52.596770
21
424.828213
0
LINE
8
boundary
62
5
39
2
10
52.596770
20
424.828213
11
52.607609
21
424.811991
0
LINE
8
boundary
62
5
39
2
10
52.607609
20
424.811991
11
52.611415
21
424.792857
0
LINE
8
boundary
62
5
39
2
10
52.611415
20
424.792857
11
52.607609
21
424.773723
0
LINE
8
boundary
62
5
39
2
10
52.607609
20
424.773723
11
52.596770
21
424.757502
0
LINE
8
boundary
62
5
39
2
10
52.596770
20
424.757502
11
52.580549
21
424.746663
0
LINE
8
boundary
62
5
39
2
10
52.580549
20
424.746663
11
52.561415
21
424.742857
0
LINE
8
boundary
62
5
39
2
10
52.561415
20
424.742857
11
52.561415
21
368.876563
0
LINE
8
boundary
62
5
39
2
10
52.561415
20
368.876563
11
55.705623
21
367.753844
0
LINE
8
boundary
62
5
39
2
10
55.705623
20
367.753844
11
60.467010
21
366.365413
0
LINE
8
boundary
62
5
39
2
10
60.467010
20
366.365413
11
65.728732
21
367.969415
0
LINE
8
boundary
62
5
39
2
10
65.728732
20
367.969415
11
67.122753
21
368.500000
0
LINE
8
boundary
62
5
39
2
10
67.122753
20
368.500000
11
67.272753
21
368.557093
0
LINE
8
boundary
62
5
39
2
10
67.272753
20
368.557093
11
67.272753
21
424.422174
0
LINE
8
boundary
62
5
39
2
10
67.272753
20
424.422174
11
67.253619
21
424.425981
0
LINE
8
boundary
62
5
39
2
10
67.253619
20
424.425981
11
67.237398
21
424.436819
0
LINE
8
boundary
62
5
39
2
10
67.237398
20
424.436819
11
67.226559
21
424.453040
0
LINE
8
boundary
62
5
39
2
10
67.226559
20
424.453040
11
67.222753
21
424.472174
0
LINE
8
boundary
62
5
39
2
10
67.222753
20
424.472174
11
67.226559
21
424.491309
0
LINE
8
boundary
62
5
39
2
10
67.226559
20
424.491309
11
67.237398
21
424.507530
0
LINE
8
boundary
62
5
39
2
10
67.237398
20
424.507530
11
67.253619
21
424.518368
0
LINE
8
boundary
62
5
39
2
10
67.253619
20
424.518368
11
67.272753
21
424.522174
0
LINE
8
boundary
62
5
39
2
10
67.272753
20
424.522174
11
70.018753
21
424.522175
0
LINE
8
boundary
62
5
39
2
10
70.018753
20
424.522175
11
70.037887
21
424.518368
0
LINE
8
boundary
62
5
39
2
10
70.037887
20
424.518368
11
70.054108
21
424.507530
0
LINE
8
boundary
62
5
39
2
10
70.054108
20
424.507530
11
70.064947
21
424.491308
0
LINE
8
boundary
62
5
39
2
10
70.064947
20
424.491308
11
70.068753
21
424.472174
0
LINE
8
boundary
62
5
39
2
10
70.068753
20
424.472174
11
70.064947
21
424.453040
0
LINE
8
boundary
62
5
39
2
10
70.064947
20
424.453040
11
70.054108
21
424.436819
0
LINE
8
boundary
62
5
39
2
10
70.054108
20
424.436819
11
70.037887
21
424.425980
0
LINE
8
boundary
62
5
39
2
10
70.037887
20
424.425980
11
70.018753
21
424.422174
0
LINE
8
boundary
62
5
39
2
10
70.018753
20
424.422174
11
70.018753
21
369.669654
0
LINE
8
boundary
62
5
39
2
10
70.018753
20
369.669654
11
70.168753
21
369.659354
0
LINE
8
boundary
62
5
39
2
10
70.168753
20
369.659354
11
72.769216
21
370.649130
0
LINE
8
boundary
62
5
39
2
10
72.769216
20
370.649130
11
76.997414
21
372.348474
0
LINE
8
boundary
62
5
39
2
10
76.997414
20
372.348474
11
79.147677
21
373.239847
0
LINE
8
boundary
62
5
39
2
10
79.147677
20
373.239847
11
79.297676
21
373.302028
0
LINE
8
boundary
62
5
39
2
10
79.297676
20
373.302028
11
79.297676
21
424.404491
0
LINE
8
boundary
62
5
39
2
10
79.297676
20
424.404491
11
79.278542
21
424.408297
0
LINE
8
boundary
62
5
39
2
10
79.278542
20
424.408297
11
79.262321
21
424.419136
0
LINE
8
boundary
62
5
39
2
10
79.262321
20
424.419136
11
79.251482
21
424.435357
0
LINE
8
boundary
62
5
39
2
10
79.251482
20
424.435357
11
79.247676
21
424.454491
0
LINE
8
boundary
62
5
39
2
10
79.247676
20
424.454491
11
79.251482
21
424.473625
0
LINE
8
boundary
62
5
39
2
10
79.251482
20
424.473625
11
79.262321
21
424.489846
0
LINE
8
boundary
62
5
39
2
10
79.262321
20
424.489846
11
79.278542
21
424.500685
0
LINE
8
boundary
62
5
39
2
10
79.278542
20
424.500685
11
79.297676
21
424.504491
0
LINE
8
boundary
62
5
39
2
10
79.297676
20
424.504491
11
82.043676
21
424.504491
0
LINE
8
boundary
62
5
39
2
10
82.043676
20
424.504491
11
82.062811
21
424.500685
0
LINE
8
boundary
62
5
39
2
10
82.062811
20
424.500685
11
82.079032
21
424.489846
0
LINE
8
boundary
62
5
39
2
10
82.079032
20
424.489846
11
82.089870
21
424.473625
0
LINE
8
boundary
62
5
39
2
10
82.089870
20
424.473625
11
82.093676
21
424.454491
0
LINE
8
boundary
62
5
39
2
10
82.093676
20
424.454491
11
82.089870
21
424.435357
0
LINE
8
boundary
62
5
39
2
10
82.089870
20
424.435357
11
82.079032
21
424.419136
0
LINE
8
boundary
62
5
39
2
10
82.079032
20
424.419136
11
82.062811
21
424.408297
0
LINE
8
boundary
62
5
39
2
10
82.062811
20
424.408297
11
82.043676
21
424.404491
0
LINE
8
boundary
62
5
39
2
10
82.043676
20
424.404491
11
82.043676
21
374.512839
0
LINE
8
boundary
62
5
39
2
10
82.043676
20
374.512839
11
82.193676
21
374.502539
0
LINE
8
boundary
62
5
39
2
10
82.193676
20
374.502539
11
93.007885
21
378.985474
0
LINE
8
boundary
62
5
39
2
10
93.007885
20
378.985474
11
94.603867
21
380.644995
0
LINE
8
boundary
62
5
39
2
10
94.603867
20
380.644995
11
94.905957
21
381.125767
0
LINE
8
boundary
62
5
39
2
10
94.905957
20
381.125767
11
99.320296
21
379.839464
0
LINE
8
boundary
62
5
39
2
10
99.320296
20
379.839464
11
100.414204
21
379.598240
0
LINE
8
boundary
62
5
39
2
10
100.414204
20
379.598240
11
100.543183
21
379.212888
0
LINE
8
boundary
62
5
39
2
10
100.543183
20
379.212888
11
100.354485
21
377.353272
0
LINE
8
boundary
62
5
39
2
10
100.354485
20
377.353272
11
99.425256
21
370.577692
0
LINE
8
boundary
62
5
39
2
10
99.425256
20
370.577692
11
97.208701
21
360.210017
0
LINE
8
boundary
62
5
39
2
10
97.208701
20
360.210017
11
97.043474
21
359.467630
0
LINE
8
boundary
62
5
39
2
10
97.043474
20
359.467630
11
97.157289
21
358.221194
0
LINE
8
boundary
62
5
39
2
10
97.157289
20
358.221194
11
98.296588
21
341.586150
0
LINE
8
annotation
62
1
39
211
10
13.873700
20
403.551796
11
13.873700
21
405.683591
0
LINE
8
annotation
62
1
39
211
10
13.873700
20
405.683591
11
17.044902
21
403.713743
0
LINE
8
annotation
62
1
39
211
10
17.044902
20
403.713743
11
17.044902
21
403.713743
0
LINE
8
annotation
62
1
39
211
10
17.044902
20
403.713743
11
17.047816
21
403.711388
0
LINE
8
annotation
62
1
39
211
10
17.047816
20
403.711388
11
17.050755
21
403.709129
0
LINE
8
annotation
62
1
39
211
10
17.050755
20
403.709129
11
17.053743
21
403.706953
0
LINE
8
annotation
62
1
39
211
10
17.053743
20
403.706953
11
17.056806
21
403.704843
0
LINE
8
annotation
62
1
39
211
10
17.056806
20
403.704843
11
17.059968
21
403.702786
0
LINE
8
annotation
62
1
39
211
10
17.059968
20
403.702786
11
17.063253
21
403.700765
0
LINE
8
annotation
62
1
39
211
10
17.063253
20
403.700765
11
17.066687
21
403.698767
0
LINE
8
annotation
62
1
39
211
10
17.066687
20
403.698767
11
17.070295
21
403.696777
0
LINE
8
annotation
62
1
39
211
10
17.070295
20
403.696777
11
17.074101
21
403.694779
0
LINE
8
annotation
62
1
39
211
10
17.074101
20
403.694779
11
17.074101
21
403.694779
0
LINE
8
annotation
62
1
39
211
10
17.074101
20
403.694779
11
17.248733
21
403.613444
0
LINE
8
annotation
62
1
39
211
10
17.248733
20
403.613444
11
17.429755
21
403.565930
0
LINE
8
annotation
62
1
39
211
10
17.429755
20
403.565930
11
17.613076
21
403.551071
0
LINE
8
annotation
62
1
39
211
10
17.613076
20
403.551071
11
17.794605
21
403.567704
0
LINE
8
annotation
62
1
39
211
10
17.794605
20
403.567704
11
17.970253
21
403.614665
0
LINE
8
annotation
62
1
39
211
10
17.970253
20
403.614665
11
18.135929
21
403.690787
0
LINE
8
annotation
62
1
39
211
10
18.135929
20
403.690787
11
18.287543
21
403.794908
0
LINE
8
annotation
62
1
39
211
10
18.287543
20
403.794908
11
18.421004
21
403.925863
0
LINE
8
annotation
62
1
39
211
10
18.421004
20
403.925863
11
18.532222
21
404.082487
0
LINE
8
annotation
62
1
39
211
10
18.532222
20
404.082487
11
18.532222
21
404.082487
0
LINE
8
annotation
62
1
39
211
10
18.532222
20
404.082487
11
18.612401
21
404.257605
0
LINE
8
annotation
62
1
39
211
10
18.612401
20
404.257605
11
18.659183
21
404.438904
0
LINE
8
annotation
62
1
39
211
10
18.659183
20
404.438904
11
18.673622
21
404.622331
0
LINE
8
annotation
62
1
39
211
10
18.673622
20
404.622331
11
18.656769
21
404.803834
0
LINE
8
annotation
62
1
39
211
10
18.656769
20
404.803834
11
18.609679
21
404.979358
0
LINE
8
annotation
62
1
39
211
10
18.609679
20
404.979358
11
18.533404
21
405.144850
0
LINE
8
annotation
62
1
39
211
10
18.533404
20
405.144850
11
18.428997
21
405.296258
0
LINE
8
annotation
62
1
39
211
10
18.428997
20
405.296258
11
18.297511
21
405.429529
0
LINE
8
annotation
62
1
39
211
10
18.297511
20
405.429529
11
18.139998
21
405.540608
0
LINE
8
annotation
62
1
39
211
10
18.139998
20
405.540608
11
17.871492
21
405.680581
0
LINE
8
annotation
62
1
39
211
10
36.093313
20
431.149321
11
36.093313
21
430.083424
0
LINE
8
annotation
62
1
39
211
10
36.093313
20
430.083424
11
36.093313
21
430.083424
0
LINE
8
annotation
62
1
39
211
10
36.093313
20
430.083424
11
36.110510
21
429.891719
0
LINE
8
annotation
62
1
39
211
10
36.110510
20
429.891719
11
36.160073
21
429.711332
0
LINE
8
annotation
62
1
39
211
10
36.160073
20
429.711332
11
36.238960
21
429.545263
0
LINE
8
annotation
62
1
39
211
10
36.238960
20
429.545263
11
36.344128
21
429.396511
0
LINE
8
annotation
62
1
39
211
10
36.344128
20
429.396511
11
36.472535
21
429.268077
0
LINE
8
annotation
62
1
39
211
10
36.472535
20
429.268077
11
36.621139
21
429.162962
0
LINE
8
annotation
62
1
39
211
10
36.621139
20
429.162962
11
36.786897
21
429.084164
0
LINE
8
annotation
62
1
39
211
10
36.786897
20
429.084164
11
36.966766
21
429.034686
0
LINE
8
annotation
62
1
39
211
10
36.966766
20
429.034686
11
37.157705
21
429.017526
0
LINE
8
annotation
62
1
39
211
10
37.157705
20
429.017526
11
37.691407
21
429.017526
0
LINE
8
annotation
62
1
39
211
10
37.691407
20
429.017526
11
37.691407
21
429.017526
0
LINE
8
annotation
62
1
39
211
10
37.691407
20
429.017526
11
37.882266
21
429.034686
0
LINE
8
annotation
62
1
39
211
10
37.882266
20
429.034686
11
38.062094
21
429.084164
0
LINE
8
annotation
62
1
39
211
10
38.062094
20
429.084164
11
38.227839
21
429.162962
0
LINE
8
annotation
62
1
39
211
10
38.227839
20
429.162962
11
38.376453
21
429.268077
0
LINE
8
annotation
62
1
39
211
10
38.376453
20
429.268077
11
38.504885
21
429.396511
0
LINE
8
annotation
62
1
39
211
10
38.504885
20
429.396511
11
38.610085
21
429.545263
0
LINE
8
annotation
62
1
39
211
10
38.610085
20
429.545263
11
38.689004
21
429.711332
0
LINE
8
annotation
62
1
39
211
10
38.689004
20
429.711332
11
38.738592
21
429.891719
0
LINE
8
annotation
62
1
39
211
10
38.738592
20
429.891719
11
38.755799
21
430.083424
0
LINE
8
annotation
62
1
39
211
10
38.755799
20
430.083424
11
38.755799
21
430.617125
0
LINE
8
annotation
62
1
39
211
10
38.755799
20
430.617125
11
38.755799
21
430.083424
0
LINE
8
annotation
62
1
39
211
10
38.755799
20
430.083424
11
38.755799
21
430.083424
0
LINE
8
annotation
62
1
39
211
10
38.755799
20
430.083424
11
38.773010
21
429.891719
0
LINE
8
annotation
62
1
39
211
10
38.773010
20
429.891719
11
38.822627
21
429.711332
0
LINE
8
annotation
62
1
39
211
10
38.822627
20
429.711332
11
38.901624
21
429.545263
0
LINE
8
annotation
62
1
39
211
10
38.901624
20
429.545263
11
39.006978
21
429.396511
0
LINE
8
annotation
62
1
39
211
10
39.006978
20
429.396511
11
39.135661
21
429.268077
0
LINE
8
annotation
62
1
39
211
10
39.135661
20
429.268077
11
39.284650
21
429.162962
0
LINE
8
annotation
62
1
39
211
10
39.284650
20
429.162962
11
39.450920
21
429.084164
0
LINE
8
annotation
62
1
39
211
10
39.450920
20
429.084164
11
39.631446
21
429.034686
0
LINE
8
annotation
62
1
39
211
10
39.631446
20
429.034686
11
39.823201
21
429.017526
0
LINE
8
annotation
62
1
39
211
10
39.823201
20
429.017526
11
39.823201
21
429.017526
0
LINE
8
annotation
62
1
39
211
10
39.823201
20
429.017526
11
40.014061
21
429.034686
0
LINE
8
annotation
62
1
39
211
10
40.014061
20
429.034686
11
40.193889
21
429.084164
0
LINE
8
annotation
62
1
39
211
10
40.193889
20
429.084164
11
40.359634
21
429.162962
0
LINE
8
annotation
62
1
39
211
10
40.359634
20
429.162962
11
40.508248
21
429.268077
0
LINE
8
annotation
62
1
39
211
10
40.508248
20
429.268077
11
40.636679
21
429.396511
0
LINE
8
annotation
62
1
39
211
10
40.636679
20
429.396511
11
40.741880
21
429.545263
0
LINE
8
annotation
62
1
39
211
10
40.741880
20
429.545263
11
40.820799
21
429.711332
0
LINE
8
annotation
62
1
39
211
10
40.820799
20
429.711332
11
40.870387
21
429.891719
0
LINE
8
annotation
62
1
39
211
10
40.870387
20
429.891719
11
40.887594
21
430.083424
0
LINE
8
annotation
62
1
39
211
10
40.887594
20
430.083424
11
40.887594
21
431.149321
0
LINE
8
annotation
62
1
39
211
10
49.855516
20
429.637862
11
49.855516
21
432.303057
0
LINE
8
annotation
62
1
39
211
10
49.855516
20
432.303057
11
53.588415
21
431.238665
0
LINE
8
annotation
62
1
39
211
10
48.788415
20
430.436758
11
50.920210
21
430.436758
0
LINE
8
annotation
62
1
39
211
10
66.245753
20
431.715674
11
66.245753
21
430.649776
0
LINE
8
annotation
62
1
39
211
10
66.245753
20
430.649776
11
66.245753
21
430.649776
0
LINE
8
annotation
62
1
39
211
10
66.245753
20
430.649776
11
66.262954
21
430.458469
0
LINE
8
annotation
62
1
39
211
10
66.262954
20
430.458469
11
66.312543
21
430.278292
0
LINE
8
annotation
62
1
39
211
10
66.312543
20
430.278292
11
66.391501
21
430.112285
0
LINE
8
annotation
62
1
39
211
10
66.391501
20
430.112285
11
66.496806
21
429.963483
0
LINE
8
annotation
62
1
39
211
10
66.496806
20
429.963483
11
66.625440
21
429.834925
0
LINE
8
annotation
62
1
39
211
10
66.625440
20
429.834925
11
66.774382
21
429.729649
0
LINE
8
annotation
62
1
39
211
10
66.774382
20
429.729649
11
66.940611
21
429.650691
0
LINE
8
annotation
62
1
39
211
10
66.940611
20
429.650691
11
67.121109
21
429.601088
0
LINE
8
annotation
62
1
39
211
10
67.121109
20
429.601088
11
67.312855
21
429.583879
0
LINE
8
annotation
62
1
39
211
10
67.312855
20
429.583879
11
67.843847
21
429.583879
0
LINE
8
annotation
62
1
39
211
10
67.843847
20
429.583879
11
67.843847
21
429.583879
0
LINE
8
annotation
62
1
39
211
10
67.843847
20
429.583879
11
68.035499
21
429.601078
0
LINE
8
annotation
62
1
39
211
10
68.035499
20
429.601078
11
68.215748
21
429.650656
0
LINE
8
annotation
62
1
39
211
10
68.215748
20
429.650656
11
68.381617
21
429.729582
0
LINE
8
annotation
62
1
39
211
10
68.381617
20
429.729582
11
68.530132
21
429.834826
0
LINE
8
annotation
62
1
39
211
10
68.530132
20
429.834826
11
68.658316
21
429.963359
0
LINE
8
annotation
62
1
39
211
10
68.658316
20
429.963359
11
68.763194
21
430.112151
0
LINE
8
annotation
62
1
39
211
10
68.763194
20
430.112151
11
68.841791
21
430.278171
0
LINE
8
annotation
62
1
39
211
10
68.841791
20
430.278171
11
68.891131
21
430.458389
0
LINE
8
annotation
62
1
39
211
10
68.891131
20
430.458389
11
68.908239
21
430.649776
0
LINE
8
annotation
62
1
39
211
10
68.908239
20
430.649776
11
68.908239
21
431.715674
0
LINE
8
annotation
62
1
39
211
10
68.908239
20
431.715674
11
71.045753
21
431.715674
0
LINE
8
annotation
62
1
39
211
10
71.045753
20
431.715674
11
71.045753
21
429.583879
0
LINE
8
annotation
62
1
39
211
10
83.070676
20
430.096887
11
83.070676
21
430.096887
0
LINE
8
annotation
62
1
39
211
10
83.070676
20
430.096887
11
82.956187
21
430.402240
0
LINE
8
annotation
62
1
39
211
10
82.956187
20
430.402240
11
82.801927
21
430.682441
0
LINE
8
annotation
62
1
39
211
10
82.801927
20
430.682441
11
82.611761
21
430.934614
0
LINE
8
annotation
62
1
39
211
10
82.611761
20
430.934614
11
82.389553
21
431.155883
0
LINE
8
annotation
62
1
39
211
10
82.389553
20
431.155883
11
82.139168
21
431.343371
0
LINE
8
annotation
62
1
39
211
10
82.139168
20
431.343371
11
81.864472
21
431.494203
0
LINE
8
annotation
62
1
39
211
10
81.864472
20
431.494203
11
81.569329
21
431.605501
0
LINE
8
annotation
62
1
39
211
10
81.569329
20
431.605501
11
81.257604
21
431.674389
0
LINE
8
annotation
62
1
39
211
10
81.257604
20
431.674389
11
80.933162
21
431.697990
0
LINE
8
annotation
62
1
39
211
10
80.933162
20
431.697990
11
79.337778
21
431.697990
0
LINE
8
annotation
62
1
39
211
10
79.337778
20
431.697990
11
79.337778
21
431.697990
0
LINE
8
annotation
62
1
39
211
10
79.337778
20
431.697990
11
79.146032
21
431.680781
0
LINE
8
annotation
62
1
39
211
10
79.146032
20
431.680781
11
78.965535
21
431.631179
0
LINE
8
annotation
62
1
39
211
10
78.965535
20
431.631179
11
78.799305
21
431.552221
0
LINE
8
annotation
62
1
39
211
10
78.799305
20
431.552221
11
78.650363
21
431.446944
0
LINE
8
annotation
62
1
39
211
10
78.650363
20
431.446944
11
78.521729
21
431.318386
0
LINE
8
annotation
62
1
39
211
10
78.521729
20
431.318386
11
78.416424
21
431.169585
0
LINE
8
annotation
62
1
39
211
10
78.416424
20
431.169585
11
78.337466
21
431.003577
0
LINE
8
annotation
62
1
39
211
10
78.337466
20
431.003577
11
78.287877
21
430.823401
0
LINE
8
annotation
62
1
39
211
10
78.287877
20
430.823401
11
78.270676
21
430.632093
0
LINE
8
annotation
62
1
39
211
10
78.270676
20
430.632093
11
78.270676
21
430.632093
0
LINE
8
annotation
62
1
39
211
10
78.270676
20
430.632093
11
78.287877
21
430.440389
0
LINE
8
annotation
62
1
39
211
10
78.287877
20
430.440389
11
78.337466
21
430.260002
0
LINE
8
annotation
62
1
39
211
10
78.337466
20
430.260002
11
78.416424
21
430.093932
0
LINE
8
annotation
62
1
39
211
10
78.416424
20
430.093932
11
78.521729
21
429.945180
0
LINE
8
annotation
62
1
39
211
10
78.521729
20
429.945180
11
78.650363
21
429.816747
0
LINE
8
annotation
62
1
39
211
10
78.650363
20
429.816747
11
78.799305
21
429.711631
0
LINE
8
annotation
62
1
39
211
10
78.799305
20
429.711631
11
78.965535
21
429.632834
0
LINE
8
annotation
62
1
39
211
10
78.965535
20
429.632834
11
79.146032
21
429.583355
0
LINE
8
annotation
62
1
39
211
10
79.146032
20
429.583355
11
79.337778
21
429.566196
0
LINE
8
annotation
62
1
39
211
10
79.337778
20
429.566196
11
79.868770
21
429.566196
0
LINE
8
annotation
62
1
39
211
10
79.868770
20
429.566196
11
79.868770
21
429.566196
0
LINE
8
annotation
62
1
39
211
10
79.868770
20
429.566196
11
80.060422
21
429.583355
0
LINE
8
annotation
62
1
39
211
10
80.060422
20
429.583355
11
80.240671
21
429.632834
0
LINE
8
annotation
62
1
39
211
10
80.240671
20
429.632834
11
80.406540
21
429.711631
0
LINE
8
annotation
62
1
39
211
10
80.406540
20
429.711631
11
80.555055
21
429.816747
0
LINE
8
annotation
62
1
39
211
10
80.555055
20
429.816747
11
80.683239
21
429.945180
0
LINE
8
annotation
62
1
39
211
10
80.683239
20
429.945180
11
80.788117
21
430.093932
0
LINE
8
annotation
62
1
39
211
10
80.788117
20
430.093932
11
80.866714
21
430.260002
0
LINE
8
annotation
62
1
39
211
10
80.866714
20
430.260002
11
80.916054
21
430.440389
0
LINE
8
annotation
62
1
39
211
10
80.916054
20
430.440389
11
80.933162
21
430.632093
0
LINE
8
annotation
62
1
39
211
10
80.933162
20
430.632093
11
80.933162
21
431.697990
0
LINE
8
annotation
62
1
39
211
10
77.670676
20
431.831491
11
77.670676
21
429.431491
0
LINE
8
annotation
62
1
39
211
10
101.160429
20
406.207885
11
105.960429
21
405.140784
0
LINE
8
annotation
62
1
39
211
10
105.960429
20
405.140784
11
105.960429
21
407.275288
0
LINE
8
annotation
62
1
39
211
10
103.822915
20
405.140784
11
103.822915
21
406.207885
0
LINE
8
annotation
62
1
39
211
10
48.336277
20
460.853108
11
41.097662
21
450.383114
0
LINE
8
annotation
62
1
39
211
10
41.097662
20
450.383114
11
33.857685
21
460.853108
0
LINE
8
annotation
62
1
39
211
10
41.097662
20
451.225668
11
41.097662
21
439.146790
0
LINE
8
annotation
62
1
39
211
10
68.346257
20
449.999949
11
56.478358
21
449.999949
0
LINE
8
annotation
62
1
39
211
10
76.483574
20
439.148152
11
81.303419
21
439.148152
0
LINE
8
annotation
62
1
39
211
10
81.303419
20
439.148152
11
81.303419
21
439.148152
0
LINE
8
annotation
62
1
39
211
10
81.303419
20
439.148152
11
82.170280
21
439.225915
0
LINE
8
annotation
62
1
39
211
10
82.170280
20
439.225915
11
82.985966
21
439.450033
0
LINE
8
annotation
62
1
39
211
10
82.985966
20
439.450033
11
83.736910
21
439.806748
0
LINE
8
annotation
62
1
39
211
10
83.736910
20
439.806748
11
84.409546
21
440.282304
0
LINE
8
annotation
62
1
39
211
10
84.409546
20
440.282304
11
84.990307
21
440.862944
0
LINE
8
annotation
62
1
39
211
10
84.990307
20
440.862944
11
85.465626
21
441.534909
0
LINE
8
annotation
62
1
39
211
10
85.465626
20
441.534909
11
85.821936
21
442.284444
0
LINE
8
annotation
62
1
39
211
10
85.821936
20
442.284444
11
86.045671
21
443.097790
0
LINE
8
annotation
62
1
39
211
10
86.045671
20
443.097790
11
86.123264
21
443.961191
0
LINE
8
annotation
62
1
39
211
10
86.123264
20
443.961191
11
86.123264
21
446.374516
0
LINE
8
annotation
62
1
39
211
10
86.123264
20
446.374516
11
86.123264
21
446.374516
0
LINE
8
annotation
62
1
39
211
10
86.123264
20
446.374516
11
86.045671
21
447.237559
0
LINE
8
annotation
62
1
39
211
10
86.045671
20
447.237559
11
85.821936
21
448.050715
0
LINE
8
annotation
62
1
39
211
10
85.821936
20
448.050715
11
85.465626
21
448.800193
0
LINE
8
annotation
62
1
39
211
10
85.465626
20
448.800193
11
84.990307
21
449.472203
0
LINE
8
annotation
62
1
39
211
10
84.990307
20
449.472203
11
84.409546
21
450.052955
0
LINE
8
annotation
62
1
39
211
10
84.409546
20
450.052955
11
83.736910
21
450.528657
0
LINE
8
annotation
62
1
39
211
10
83.736910
20
450.528657
11
82.985966
21
450.885518
0
LINE
8
annotation
62
1
39
211
10
82.985966
20
450.885518
11
82.170280
21
451.109748
0
LINE
8
annotation
62
1
39
211
10
82.170280
20
451.109748
11
81.303419
21
451.187556
0
LINE
8
annotation
62
1
39
211
10
81.303419
20
451.187556
11
78.890094
21
451.187556
0
LINE
8
annotation
62
1
39
211
10
78.890094
20
451.187556
11
81.303419
21
451.187556
0
LINE
8
annotation
62
1
39
211
10
81.303419
20
451.187556
11
81.303419
21
451.187556
0
LINE
8
annotation
62
1
39
211
10
81.303419
20
451.187556
11
82.170280
21
451.265382
0
LINE
8
annotation
62
1
39
211
10
82.170280
20
451.265382
11
82.985966
21
451.489743
0
LINE
8
annotation
62
1
39
211
10
82.985966
20
451.489743
11
83.736910
21
451.846959
0
LINE
8
annotation
62
1
39
211
10
83.736910
20
451.846959
11
84.409546
21
452.323352
0
LINE
8
annotation
62
1
39
211
10
84.409546
20
452.323352
11
84.990307
21
452.905242
0
LINE
8
annotation
62
1
39
211
10
84.990307
20
452.905242
11
85.465626
21
453.578952
0
LINE
8
annotation
62
1
39
211
10
85.465626
20
453.578952
11
85.821936
21
454.330801
0
LINE
8
annotation
62
1
39
211
10
85.821936
20
454.330801
11
86.045671
21
455.147113
0
LINE
8
annotation
62
1
39
211
10
86.045671
20
455.147113
11
86.123264
21
456.014207
0
LINE
8
annotation
62
1
39
211
10
86.123264
20
456.014207
11
86.123264
21
456.014207
0
LINE
8
annotation
62
1
39
211
10
86.123264
20
456.014207
11
86.045671
21
456.877249
0
LINE
8
annotation
62
1
39
211
10
86.045671
20
456.877249
11
85.821936
21
457.690405
0
LINE
8
annotation
62
1
39
211
10
85.821936
20
457.690405
11
85.465626
21
458.439884
0
LINE
8
annotation
62
1
39
211
10
85.465626
20
458.439884
11
84.990307
21
459.111894
0
LINE
8
annotation
62
1
39
211
10
84.990307
20
459.111894
11
84.409546
21
459.692645
0
LINE
8
annotation
62
1
39
211
10
84.409546
20
459.692645
11
83.736910
21
460.168347
0
LINE
8
annotation
62
1
39
211
10
83.736910
20
460.168347
11
82.985966
21
460.525208
0
LINE
8
annotation
62
1
39
211
10
82.985966
20
460.525208
11
82.170280
21
460.749438
0
LINE
8
annotation
62
1
39
211
10
82.170280
20
460.749438
11
81.303419
21
460.827246
0
LINE
8
annotation
62
1
39
211
10
81.303419
20
460.827246
11
76.483574
21
460.827246
0
LINE
8
boundary
62
5
39
2
10
156.320089
20
9.898488
11
157.222676
21
9.236847
0
LINE
8
boundary
62
5
39
2
10
157.222676
20
9.236847
11
158.447989
21
8.777976
0
LINE
8
boundary
62
5
39
2
10
158.447989
20
8.777976
11
160.944969
21
8.553974
0
LINE
8
boundary
62
5
39
2
10
160.944969
20
8.553974
11
161.094969
21
8.564274
0
LINE
8
boundary
62
5
39
2
10
161.094969
20
8.564274
11
161.094969
21
49.993503
0
LINE
8
boundary
62
5
39
2
10
161.094969
20
49.993503
11
161.075835
21
49.997309
0
LINE
8
boundary
62
5
39
2
10
161.075835
20
49.997309
11
161.059614
21
50.008148
0
LINE
8
boundary
62
5
39
2
10
161.059614
20
50.008148
11
161.048775
21
50.024369
0
LINE
8
boundary
62
5
39
2
10
161.048775
20
50.024369
11
161.044969
21
50.043503
0
LINE
8
boundary
62
5
39
2
10
161.044969
20
50.043503
11
161.048775
21
50.062637
0
LINE
8
boundary
62
5
39
2
10
161.048775
20
50.062637
11
161.059614
21
50.078859
0
LINE
8
boundary
62
5
39
2
10
161.059614
20
50.078859
11
161.075835
21
50.089697
0
LINE
8
boundary
62
5
39
2
10
161.075835
20
50.089697
11
161.094969
21
50.093503
0
LINE
8
boundary
62
5
39
2
10
161.094969
20
50.093503
11
163.840969
21
50.093503
0
LINE
8
boundary
62
5
39
2
10
163.840969
20
50.093503
11
163.860103
21
50.089697
0
LINE
8
boundary
62
5
39
2
10
163.860103
20
50.089697
11
163.876325
21
50.078859
0
LINE
8
boundary
62
5
39
2
10
163.876325
20
50.078859
11
163.887163
21
50.062637
0
LINE
8
boundary
62
5
39
2
10
163.887163
20
50.062637
11
163.890969
21
50.043503
0
LINE
8
boundary
62
5
39
2
10
163.890969
20
50.043503
11
163.887163
21
50.024369
0
LINE
8
boundary
62
5
39
2
10
163.887163
20
50.024369
11
163.876324
21
50.008148
0
LINE
8
boundary
62
5
39
2
10
163.876324
20
50.008148
11
163.860103
21
49.997309
0
LINE
8
boundary
62
5
39
2
10
163.860103
20
49.997309
11
163.840969
21
49.993503
0
LINE
8
boundary
62
5
39
2
10
163.840969
20
49.993503
11
163.840969
21
8.294176
0
LINE
8
boundary
62
5
39
2
10
163.840969
20
8.294176
11
167.908640
21
7.929269
0
LINE
8
boundary
62
5
39
2
10
167.908640
20
7.929269
11
169.306205
21
7.653993
0
LINE
8
boundary
62
5
39
2
10
169.306205
20
7.653993
11
173.640221
21
7.432376
0
LINE
8
boundary
62
5
39
2
10
173.640221
20
7.432376
11
173.790221
21
7.442676
0
LINE
8
boundary
62
5
39
2
10
173.790221
20
7.442676
11
173.790222
21
47.646021
0
LINE
8
boundary
62
5
39
2
10
173.790222
20
47.646021
11
173.771087
21
47.649827
0
LINE
8
boundary
62
5
39
2
10
173.771087
20
47.649827
11
173.754866
21
47.660666
0
LINE
8
boundary
62
5
39
2
10
173.754866
20
47.660666
11
173.744028
21
47.676887
0
LINE
8
boundary
62
5
39
2
10
173.744028
20
47.676887
11
173.740222
21
47.696021
0
LINE
8
boundary
62
5
39
2
10
173.740222
20
47.696021
11
173.744028
21
47.715156
0
LINE
8
boundary
62
5
39
2
10
173.744028
20
47.715156
11
173.754866
21
47.731377
0
LINE
8
boundary
62
5
39
2
10
173.754866
20
47.731377
11
173.771087
21
47.742215
0
LINE
8
boundary
62
5
39
2
10
173.771087
20
47.742215
11
173.790222
21
47.746021
0
LINE
8
boundary
62
5
39
2
10
173.790222
20
47.746021
11
176.536222
21
47.746021
0
LINE
8
boundary
62
5
39
2
10
176.536222
20
47.746021
11
176.555356
21
47.742215
0
LINE
8
boundary
62
5
39
2
10
176.555356
20
47.742215
11
176.571577
21
47.731377
0
LINE
8
boundary
62
5
39
2
10
176.571577
20
47.731377
11
176.582415
21
47.715155
0
LINE
8
boundary
62
5
39
2
10
176.582415
20
47.715155
11
176.586221
21
47.696021
0
LINE
8
boundary
62
5
39
2
10
176.586221
20
47.696021
11
176.582416
21
47.676887
0
LINE
8
boundary
62
5
39
2
10
176.582416
20
47.676887
11
176.571577
21
47.660666
0
LINE
8
boundary
62
5
39
2
10
176.571577
20
47.660666
11
176.555356
21
47.649827
0
LINE
8
boundary
62
5
39
2
10
176.555356
20
47.649827
11
176.536221
21
47.646021
0
LINE
8
boundary
62
5
39
2
10
176.536221
20
47.646021
11
176.536222
21
7.286921
0
LINE
8
boundary
62
5
39
2
10
176.536222
20
7.286921
11
176.686219
21
7.276621
0
LINE
8
boundary
62
5
39
2
10
176.686219
20
7.276621
11
186.642736
21
6.767500
0
LINE
8
boundary
62
5
39
2
10
186.642736
20
6.767500
11
191.097566
21
7.134842
0
LINE
8
boundary
62
5
39
2
10
191.097566
20
7.134842
11
191.247560
21
7.147210
0
LINE
8
boundary
62
5
39
2
10
191.247560
20
7.147210
11
191.247560
21
47.471505
0
LINE
8
boundary
62
5
39
2
10
191.247560
20
47.471505
11
191.228426
21
47.475311
0
LINE
8
boundary
62
5
39
2
10
191.228426
20
47.475311
11
191.212204
21
47.486149
0
LINE
8
boundary
62
5
39
2
10
191.212204
20
47.486149
11
191.201366
21
47.502370
0
LINE
8
boundary
62
5
39
2
10
191.201366
20
47.502370
11
191.197560
21
47.521505
0
LINE
8
boundary
62
5
39
2
10
191.197560
20
47.521505
11
191.201366
21
47.540639
0
LINE
8
boundary
62
5
39
2
10
191.201366
20
47.540639
11
191.212204
21
47.556860
0
LINE
8
boundary
62
5
39
2
10
191.212204
20
47.556860
11
191.228426
21
47.567699
0
LINE
8
boundary
62
5
39
2
10
191.228426
20
47.567699
11
191.247560
21
47.571505
0
LINE
8
boundary
62
5
39
2
10
191.247560
20
47.571505
11
193.993560
21
47.571505
0
LINE
8
boundary
62
5
39
2
10
193.993560
20
47.571505
11
194.012694
21
47.567699
0
LINE
8
boundary
62
5
39
2
10
194.012694
20
47.567699
11
194.028915
21
47.556860
0
LINE
8
boundary
62
5
39
2
10
194.028915
20
47.556860
11
194.039754
21
47.540639
0
LINE
8
boundary
62
5
39
2
10
194.039754
20
47.540639
11
194.043560
21
47.521505
0
LINE
8
boundary
62
5
39
2
10
194.043560
20
47.521505
11
194.039754
21
47.502370
0
LINE
8
boundary
62
5
39
2
10
194.039754
20
47.502370
11
194.028915
21
47.486149
0
LINE
8
boundary
62
5
39
2
10
194.028915
20
47.486149
11
194.012694
21
47.475311
0
LINE
8
boundary
62
5
39
2
10
194.012694
20
47.475311
11
193.993560
21
47.471505
0
LINE
8
boundary
62
5
39
2
10
193.993560
20
47.471505
11
193.993560
21
7.396313
0
LINE
8
boundary
62
5
39
2
10
193.993560
20
7.396313
11
194.143560
21
7.386013
0
LINE
8
boundary
62
5
39
2
10
194.143560
20
7.386013
11
195.751322
21
7.518587
0
LINE
8
boundary
62
5
39
2
10
195.751322
20
7.518587
11
196.764182
21
7.636123
0
LINE
8
boundary
62
5
39
2
10
196.764182
20
7.636123
11
198.205356
21
7.656355
0
LINE
8
boundary
62
5
39
2
10
198.205356
20
7.656355
11
203.272483
21
8.493533
0
LINE
8
boundary
62
5
39
2
10
203.272483
20
8.493533
11
203.272483
21
50.117467
0
LINE
8
boundary
62
5
39
2
10
203.272483
20
50.117467
11
203.253349
21
50.121273
0
LINE
8
boundary
62
5
39
2
10
203.253349
20
50.121273
11
203.237127
21
50.132112
0
LINE
8
boundary
62
5
39
2
10
203.237127
20
50.132112
11
203.226289
21
50.148333
0
LINE
8
boundary
62
5
39
2
10
203.226289
20
50.148333
11
203.222483
21
50.167467
0
LINE
8
boundary
62
5
39
2
10
203.222483
20
50.167467
11
203.226289
21
50.186602
0
LINE
8
boundary
62
5
39
2
10
203.226289
20
50.186602
11
203.237127
21
50.202823
0
LINE
8
boundary
62
5
39
2
10
203.237127
20
50.202823
11
203.253349
21
50.213661
0
LINE
8
boundary
62
5
39
2
10
203.253349
20
50.213661
11
203.272483
21
50.217467
0
LINE
8
boundary
62
5
39
2
10
203.272483
20
50.217467
11
206.018483
21
50.217467
0
LINE
8
boundary
62
5
39
2
10
206.018483
20
50.217467
11
206.037617
21
50.213661
0
LINE
8
boundary
62
5
39
2
10
206.037617
20
50.213661
11
206.053838
21
50.202823
0
LINE
8
boundary
62
5
39
2
10
206.053838
20
50.202823
11
206.064677
21
50.186601
0
LINE
8
boundary
62
5
39
2
10
206.064677
20
50.186601
11
206.068483
21
50.167467
0
LINE
8
boundary
62
5
39
2
10
206.068483
20
50.167467
11
206.064677
21
50.148333
0
LINE
8
boundary
62
5
39
2
10
206.064677
20
50.148333
11
206.053838
21
50.132112
0
LINE
8
boundary
62
5
39
2
10
206.053838
20
50.132112
11
206.037617
21
50.121273
0
LINE
8
boundary
62
5
39
2
10
206.037617
20
50.121273
11
206.018483
21
50.117467
0
LINE
8
boundary
62
5
39
2
10
206.018483
20
50.117467
11
206.018483
21
8.982303
0
LINE
8
boundary
62
5
39
2
10
206.018483
20
8.982303
11
206.168483
21
8.972003
0
LINE
8
boundary
62
5
39
2
10
206.168483
20
8.972003
11
207.979430
21
9.271203
0
LINE
8
boundary
62
5
39
2
10
207.979430
20
9.271203
11
210.142828
21
9.776609
0
LINE
8
boundary
62
5
39
2
10
210.142828
20
9.776609
11
213.751256
21
12.314124
0
LINE
8
boundary
62
5
39
2
10
213.751256
20
12.314124
11
215.590048
21
14.427924
0
LINE
8
boundary
62
5
39
2
10
215.590048
20
14.427924
11
219.507852
21
20.583352
0
LINE
8
boundary
62
5
39
2
10
219.507852
20
20.583352
11
219.667988
21
20.823169
0
LINE
8
boundary
62
5
39
2
10
219.667988
20
20.823169
11
219.756180
21
21.426346
0
LINE
8
boundary
62
5
39
2
10
219.756180
20
21.426346
11
220.410768
21
29.675591
0
LINE
8
boundary
62
5
39
2
10
220.410768
20
29.675591
11
219.189365
21
37.918435
0
LINE
8
boundary
62
5
39
2
10
219.189365
20
37.918435
11
216.509917
21
51.710912
0
LINE
8
boundary
62
5
39
2
10
216.509917
20
51.710912
11
211.775068
21
65.581813
0
LINE
8
boundary
62
5
39
2
10
211.775068
20
65.581813
11
209.767301
21
73.651096
0
LINE
8
boundary
62
5
39
2
10
209.767301
20
73.651096
11
208.437266
21
82.203427
0
LINE
8
boundary
62
5
39
2
10
208.437266
20
82.203427
11
207.903870
21
90.400399
0
LINE
8
boundary
62
5
39
2
10
207.903870
20
90.400399
11
208.150563
21
91.690318
0
LINE
8
boundary
62
5
39
2
10
208.150563
20
91.690318
11
208.408670
21
94.017446
0
LINE
8
boundary
62
5
39
2
10
208.408670
20
94.017446
11
207.958028
21
95.681910
0
LINE
8
boundary
62
5
39
2
10
207.958028
20
95.681910
11
206.192145
21
93.258350
0
LINE
8
boundary
62
5
39
2
10
206.192145
20
93.258350
11
204.372542
21
91.823169
0
LINE
8
boundary
62
5
39
2
10
204.372542
20
91.823169
11
202.520097
21
87.351414
0
LINE
8
boundary
62
5
39
2
10
202.520097
20
87.351414
11
201.331721
21
86.861724
0
LINE
8
boundary
62
5
39
2
10
201.331721
20
86.861724
11
196.681602
21
88.190930
0
LINE
8
boundary
62
5
39
2
10
196.681602
20
88.190930
11
182.697217
21
88.342427
0
LINE
8
boundary
62
5
39
2
10
182.697217
20
88.342427
11
171.954752
21
88.486341
0
LINE
8
boundary
62
5
39
2
10
171.954752
20
88.486341
11
171.754363
21
88.478325
0
LINE
8
boundary
62
5
39
2
10
171.754363
20
88.478325
11
171.424459
21
88.596153
0
LINE
8
boundary
62
5
39
2
10
171.424459
20
88.596153
11
163.959183
21
89.678989
0
LINE
8
boundary
62
5
39
2
10
163.959183
20
89.678989
11
162.692330
21
90.873299
0
LINE
8
boundary
62
5
39
2
10
162.692330
20
90.873299
11
160.097555
21
94.026021
0
LINE
8
boundary
62
5
39
2
10
160.097555
20
94.026021
11
160.017888
21
93.367276
0
LINE
8
boundary
62
5
39
2
10
160.017888
20
93.367276
11
159.838717
21
81.679885
0
LINE
8
boundary
62
5
39
2
10
159.838717
20
81.679885
11
154.407183
21
60.888238
0
LINE
8
boundary
62
5
39
2
10
154.407183
20
60.888238
11
153.400944
21
56.668692
0
LINE
8
boundary
62
5
39
2
10
153.400944
20
56.668692
11
148.595060
21
37.825175
0
LINE
8
boundary
62
5
39
2
10
148.595060
20
37.825175
11
147.647996
21
29.172812
0
LINE
8
boundary
62
5
39
2
10
147.647996
20
29.172812
11
148.588606
21
21.161104
0
LINE
8
boundary
62
5
39
2
10
148.588606
20
21.161104
11
149.143910
21
19.018093
0
LINE
8
boundary
62
5
39
2
10
149.143910
20
19.018093
11
150.017155
21
17.171276
0
LINE
8
boundary
62
5
39
2
10
150.017155
20
17.171276
11
152.815935
21
14.331888
0
LINE
8
boundary
62
5
39
2
10
152.815935
20
14.331888
11
156.320089
21
9.898488
0
LINE
8
annotation
62
1
39
211
10
160.068120
20
57.287003
11
160.068120
21
56.221105
0
LINE
8
annotation
62
1
39
211
10
160.068120
20
56.221105
11
160.068120
21
56.221105
0
LINE
8
annotation
62
1
39
211
10
160.068120
20
56.221105
11
160.085317
21
56.029401
0
LINE
8
annotation
62
1
39
211
10
160.085317
20
56.029401
11
160.134880
21
55.849014
0
LINE
8
annotation
62
1
39
211
10
160.134880
20
55.849014
11
160.213767
21
55.682944
0
LINE
8
annotation
62
1
39
211
10
160.213767
20
55.682944
11
160.318935
21
55.534193
0
LINE
8
annotation
62
1
39
211
10
160.318935
20
55.534193
11
160.447342
21
55.405759
0
LINE
8
annotation
62
1
39
211
10
160.447342
20
55.405759
11
160.595945
21
55.300643
0
LINE
8
annotation
62
1
39
211
10
160.595945
20
55.300643
11
160.761703
21
55.221846
0
LINE
8
annotation
62
1
39
211
10
160.761703
20
55.221846
11
160.941573
21
55.172367
0
LINE
8
annotation
62
1
39
211
10
160.941573
20
55.172367
11
161.132512
21
55.155208
0
LINE
8
annotation
62
1
39
211
10
161.132512
20
55.155208
11
161.666213
21
55.155208
0
LINE
8
annotation
62
1
39
211
10
161.666213
20
55.155208
11
161.666213
21
55.155208
0
LINE
8
annotation
62
1
39
211
10
161.666213
20
55.155208
11
161.857073
21
55.172367
0
LINE
8
annotation
62
1
39
211
10
161.857073
20
55.172367
11
162.036900
21
55.221846
0
LINE
8
annotation
62
1
39
211
10
162.036900
20
55.221846
11
162.202646
21
55.300643
0
LINE
8
annotation
62
1
39
211
10
162.202646
20
55.300643
11
162.351259
21
55.405759
0
LINE
8
annotation
62
1
39
211
10
162.351259
20
55.405759
11
162.479691
21
55.534193
0
LINE
8
annotation
62
1
39
211
10
162.479691
20
55.534193
11
162.584891
21
55.682944
0
LINE
8
annotation
62
1
39
211
10
162.584891
20
55.682944
11
162.663811
21
55.849014
0
LINE
8
annotation
62
1
39
211
10
162.663811
20
55.849014
11
162.713398
21
56.029401
0
LINE
8
annotation
62
1
39
211
10
162.713398
20
56.029401
11
162.730606
21
56.221105
0
LINE
8
annotation
62
1
39
211
10
162.730606
20
56.221105
11
162.730606
21
56.754806
0
LINE
8
annotation
62
1
39
211
10
162.730606
20
56.754806
11
162.730606
21
56.221105
0
LINE
8
annotation
62
1
39
211
10
162.730606
20
56.221105
11
162.730606
21
56.221105
0
LINE
8
annotation
62
1
39
211
10
162.730606
20
56.221105
11
162.747817
21
56.029401
0
LINE
8
annotation
62
1
39
211
10
162.747817
20
56.029401
11
162.797434
21
55.849014
0
LINE
8
annotation
62
1
39
211
10
162.797434
20
55.849014
11
162.876431
21
55.682944
0
LINE
8
annotation
62
1
39
211
10
162.876431
20
55.682944
11
162.981784
21
55.534193
0
LINE
8
annotation
62
1
39
211
10
162.981784
20
55.534193
11
163.110468
21
55.405759
0
LINE
8
annotation
62
1
39
211
10
163.110468
20
55.405759
11
163.259457
21
55.300643
0
LINE
8
annotation
62
1
39
211
10
163.259457
20
55.300643
11
163.425727
21
55.221846
0
LINE
8
annotation
62
1
39
211
10
163.425727
20
55.221846
11
163.606252
21
55.172367
0
LINE
8
annotation
62
1
39
211
10
163.606252
20
55.172367
11
163.798008
21
55.155208
0
LINE
8
annotation
62
1
39
211
10
163.798008
20
55.155208
11
163.798008
21
55.155208
0
LINE
8
annotation
62
1
39
211
10
163.798008
20
55.155208
11
163.988868
21
55.172367
0
LINE
8
annotation
62
1
39
211
10
163.988868
20
55.172367
11
164.168695
21
55.221846
0
LINE
8
annotation
62
1
39
211
10
164.168695
20
55.221846
11
164.334441
21
55.300643
0
LINE
8
annotation
62
1
39
211
10
164.334441
20
55.300643
11
164.483054
21
55.405759
0
LINE
8
annotation
62
1
39
211
10
164.483054
20
55.405759
11
164.611486
21
55.534193
0
LINE
8
annotation
62
1
39
211
10
164.611486
20
55.534193
11
164.716686
21
55.682944
0
LINE
8
annotation
62
1
39
211
10
164.716686
20
55.682944
11
164.795605
21
55.849014
0
LINE
8
annotation
62
1
39
211
10
164.795605
20
55.849014
11
164.845193
21
56.029401
0
LINE
8
annotation
62
1
39
211
10
164.845193
20
56.029401
11
164.862400
21
56.221105
0
LINE
8
annotation
62
1
39
211
10
164.862400
20
56.221105
11
164.862400
21
57.287003
0
LINE
8
annotation
62
1
39
211
10
173.830323
20
52.541026
11
173.830323
21
55.206221
0
LINE
8
annotation
62
1
39
211
10
173.830323
20
55.206221
11
177.563222
21
54.141829
0
LINE
8
annotation
62
1
39
211
10
172.763222
20
53.339922
11
174.895016
21
53.339922
0
LINE
8
annotation
62
1
39
211
10
190.220560
20
54.765004
11
190.220560
21
53.699107
0
LINE
8
annotation
62
1
39
211
10
190.220560
20
53.699107
11
190.220560
21
53.699107
0
LINE
8
annotation
62
1
39
211
10
190.220560
20
53.699107
11
190.237761
21
53.507799
0
LINE
8
annotation
62
1
39
211
10
190.237761
20
53.507799
11
190.287350
21
53.327622
0
LINE
8
annotation
62
1
39
211
10
190.287350
20
53.327622
11
190.366307
21
53.161615
0
LINE
8
annotation
62
1
39
211
10
190.366307
20
53.161615
11
190.471613
21
53.012813
0
LINE
8
annotation
62
1
39
211
10
190.471613
20
53.012813
11
190.600246
21
52.884256
0
LINE
8
annotation
62
1
39
211
10
190.600246
20
52.884256
11
190.749188
21
52.778979
0
LINE
8
annotation
62
1
39
211
10
190.749188
20
52.778979
11
190.915418
21
52.700021
0
LINE
8
annotation
62
1
39
211
10
190.915418
20
52.700021
11
191.095916
21
52.650418
0
LINE
8
annotation
62
1
39
211
10
191.095916
20
52.650418
11
191.287661
21
52.633209
0
LINE
8
annotation
62
1
39
211
10
191.287661
20
52.633209
11
191.818653
21
52.633209
0
LINE
8
annotation
62
1
39
211
10
191.818653
20
52.633209
11
191.818653
21
52.633209
0
LINE
8
annotation
62
1
39
211
10
191.818653
20
52.633209
11
192.010306
21
52.650408
0
LINE
8
annotation
62
1
39
211
10
192.010306
20
52.650408
11
192.190555
21
52.699986
0
LINE
8
annotation
62
1
39
211
10
192.190555
20
52.699986
11
192.356424
21
52.778912
0
LINE
8
annotation
62
1
39
211
10
192.356424
20
52.778912
11
192.504938
21
52.884157
0
LINE
8
annotation
62
1
39
211
10
192.504938
20
52.884157
11
192.633122
21
53.012690
0
LINE
8
annotation
62
1
39
211
10
192.633122
20
53.012690
11
192.738001
21
53.161481
0
LINE
8
annotation
62
1
39
211
10
192.738001
20
53.161481
11
192.816597
21
53.327501
0
LINE
8
annotation
62
1
39
211
10
192.816597
20
53.327501
11
192.865938
21
53.507720
0
LINE
8
annotation
62
1
39
211
10
192.865938
20
53.507720
11
192.883046
21
53.699107
0
LINE
8
annotation
62
1
39
211
10
192.883046
20
53.699107
11
192.883046
21
54.765004
0
LINE
8
annotation
62
1
39
211
10
192.883046
20
54.765004
11
195.020560
21
54.765004
0
LINE
8
annotation
62
1
39
211
10
195.020560
20
54.765004
11
195.020560
21
52.633209
0
LINE
8
annotation
62
1
39
211
10
207.045483
20
55.809863
11
207.045483
21
55.809863
0
LINE
8
annotation
62
1
39
211
10
207.045483
20
55.809863
11
206.930994
21
56.115216
0
LINE
8
annotation
62
1
39
211
10
206.930994
20
56.115216
11
206.776734
21
56.395417
0
LINE
8
annotation
62
1
39
211
10
206.776734
20
56.395417
11
206.586567
21
56.647590
0
LINE
8
annotation
62
1
39
211
10
206.586567
20
56.647590
11
206.364359
21
56.868859
0
LINE
8
annotation
62
1
39
211
10
206.364359
20
56.868859
11
206.113975
21
57.056348
0
LINE
8
annotation
62
1
39
211
10
206.113975
20
57.056348
11
205.839279
21
57.207179
0
LINE
8
annotation
62
1
39
211
10
205.839279
20
57.207179
11
205.544136
21
57.318477
0
LINE
8
annotation
62
1
39
211
10
205.544136
20
57.318477
11
205.232411
21
57.387365
0
LINE
8
annotation
62
1
39
211
10
205.232411
20
57.387365
11
204.907969
21
57.410967
0
LINE
8
annotation
62
1
39
211
10
204.907969
20
57.410967
11
203.312584
21
57.410967
0
LINE
8
annotation
62
1
39
211
10
203.312584
20
57.410967
11
203.312584
21
57.410967
0
LINE
8
annotation
62
1
39
211
10
203.312584
20
57.410967
11
203.120839
21
57.393758
0
LINE
8
annotation
62
1
39
211
10
203.120839
20
57.393758
11
202.940341
21
57.344155
0
LINE
8
annotation
62
1
39
211
10
202.940341
20
57.344155
11
202.774111
21
57.265197
0
LINE
8
annotation
62
1
39
211
10
202.774111
20
57.265197
11
202.625170
21
57.159920
0
LINE
8
annotation
62
1
39
211
10
202.625170
20
57.159920
11
202.496536
21
57.031363
0
LINE
8
annotation
62
1
39
211
10
202.496536
20
57.031363
11
202.391230
21
56.882561
0
LINE
8
annotation
62
1
39
211
10
202.391230
20
56.882561
11
202.312273
21
56.716554
0
LINE
8
annotation
62
1
39
211
10
202.312273
20
56.716554
11
202.262684
21
56.536377
0
LINE
8
annotation
62
1
39
211
10
202.262684
20
56.536377
11
202.245483
21
56.345069
0
LINE
8
annotation
62
1
39
211
10
202.245483
20
56.345069
11
202.245483
21
56.345069
0
LINE
8
annotation
62
1
39
211
10
202.245483
20
56.345069
11
202.262684
21
56.153365
0
LINE
8
annotation
62
1
39
211
10
202.262684
20
56.153365
11
202.312273
21
55.972978
0
LINE
8
annotation
62
1
39
211
10
202.312273
20
55.972978
11
202.391230
21
55.806909
0
LINE
8
annotation
62
1
39
211
10
202.391230
20
55.806909
11
202.496536
21
55.658157
0
LINE
8
annotation
62
1
39
211
10
202.496536
20
55.658157
11
202.625170
21
55.529723
0
LINE
8
annotation
62
1
39
211
10
202.625170
20
55.529723
11
202.774111
21
55.424607
0
LINE
8
annotation
62
1
39
211
10
202.774111
20
55.424607
11
202.940341
21
55.345810
0
LINE
8
annotation
62
1
39
211
10
202.940341
20
55.345810
11
203.120839
21
55.296332
0
LINE
8
annotation
62
1
39
211
10
203.120839
20
55.296332
11
203.312584
21
55.279172
0
LINE
8
annotation
62
1
39
211
10
203.312584
20
55.279172
11
203.843576
21
55.279172
0
LINE
8
annotation
62
1
39
211
10
203.843576
20
55.279172
11
203.843576
21
55.279172
0
LINE
8
annotation
62
1
39
211
10
203.843576
20
55.279172
11
204.035229
21
55.296332
0
LINE
8
annotation
62
1
39
211
10
204.035229
20
55.296332
11
204.215478
21
55.345810
0
LINE
8
annotation
62
1
39
211
10
204.215478
20
55.345810
11
204.381347
21
55.424607
0
LINE
8
annotation
62
1
39
211
10
204.381347
20
55.424607
11
204.529861
21
55.529723
0
LINE
8
annotation
62
1
39
211
10
204.529861
20
55.529723
11
204.658045
21
55.658157
0
LINE
8
annotation
62
1
39
211
10
204.658045
20
55.658157
11
204.762924
21
55.806909
0
LINE
8
annotation
62
1
39
211
10
204.762924
20
55.806909
11
204.841521
21
55.972978
0
LINE
8
annotation
62
1
39
211
10
204.841521
20
55.972978
11
204.890861
21
56.153365
0
LINE
8
annotation
62
1
39
211
10
204.890861
20
56.153365
11
204.907969
21
56.345069
0
LINE
8
annotation
62
1
39
211
10
204.907969
20
56.345069
11
204.907969
21
57.410967
0
LINE
8
annotation
62
1
39
211
10
201.645483
20
57.544467
11
201.645483
21
55.144467
0
LINE
8
annotation
62
1
39
211
10
176.440644
20
75.690130
11
172.170184
21
69.513300
0
LINE
8
annotation
62
1
39
211
10
172.170184
20
69.513300
11
167.898921
21
75.690130
0
LINE
8
annotation
62
1
39
211
10
172.170184
20
70.010370
11
172.170184
21
62.884371
0
LINE
8
annotation
62
1
39
211
10
188.245638
20
69.287250
11
181.244108
21
69.287250
0
LINE
8
annotation
62
1
39
211
10
200.156230
20
65.731478
11
193.046292
21
65.731478
0
LINE
8
annotation
62
1
39
211
10
193.046292
20
65.731478
11
195.885770
21
75.689728
0
LINE
8
annotation
62
1
39
211
10
198.025015
20
62.884773
11
198.025015
21
68.571760
0
LINE
8
frame
62
5
39
2
10
0.000000
20
0.000000
11
600.000000
21
0.000000
0
LINE
8
frame
62
5
39
2
10
600.000000
20
0.000000
11
600.000000
21
500.000000
0
LINE
8
frame
62
5
39
2
10
600.000000
20
500.000000
11
0.000000
21
500.000000
0
LINE
8
frame
62
5
39
2
10
0.000000
20
500.000000
11
0.000000
21
0.000000
0
ENDSEC
0
EOF
