0
SECTION
2
HEADER
9
$ACADVER
1
AC1009
0
ENDSEC
0
SECTION
2
TABLES
0
TABLE
2
VPORT
70
1
0
VPORT
2
ACTIVE
70
0
10
0.0
20
0.0
11
0.0
21
0.0
12
0.0
22
0.0
13
0.0
23
0.0
14
0.0
24
0.0
15
0.0
25
0.0
16
0.0
26
0.0
36
0.0
17
0.0
27
0.0
37
0.0
40
0.0
41
0.0
42
0.0
43
0.0
44
0.0
50
0.0
51
0.0
71
0
72
1000
73
1
74
3
75
0
76
0
77
0
78
0
0
ENDTAB
0
ENDSEC
0
SECTION
2
ENTITIES
0
LINE
8
hole
62
5
39
2
10
37.273199
20
431.832740
11
37.150803
21
430.983749
0
LINE
8
hole
62
5
39
2
10
37.150803
20
430.983749
11
37.196638
21
432.764185
0
LINE
8
hole
62
5
39
2
10
37.196638
20
432.764185
11
37.273199
21
431.832740
0
LINE
8
boundary
62
5
39
2
10
22.522447
20
52.830564
11
26.064754
21
37.451768
0
LINE
8
boundary
62
5
39
2
10
26.064754
20
37.451768
11
27.205879
21
34.150731
0
LINE
8
boundary
62
5
39
2
10
27.205879
20
34.150731
11
34.865569
21
22.712626
0
LINE
8
boundary
62
5
39
2
10
34.865569
20
22.712626
11
37.302141
21
20.214560
0
LINE
8
boundary
62
5
39
2
10
37.302141
20
20.214560
11
44.818861
21
13.050556
0
LINE
8
boundary
62
5
39
2
10
44.818861
20
13.050556
11
49.803700
21
9.695357
0
LINE
8
boundary
62
5
39
2
10
49.803700
20
9.695357
11
51.490843
21
7.997992
0
LINE
8
boundary
62
5
39
2
10
51.490843
20
7.997992
11
53.787117
21
8.265691
0
LINE
8
boundary
62
5
39
2
10
53.787117
20
8.265691
11
60.052932
21
8.066546
0
LINE
8
boundary
62
5
39
2
10
60.052932
20
8.066546
11
71.170221
21
6.767500
0
LINE
8
boundary
62
5
39
2
10
71.170221
20
6.767500
11
75.429545
21
6.788936
0
LINE
8
boundary
62
5
39
2
10
75.429545
20
6.788936
11
79.650448
21
7.407328
0
LINE
8
boundary
62
5
39
2
10
79.650448
20
7.407328
11
97.429858
21
14.066465
0
LINE
8
boundary
62
5
39
2
10
97.429858
20
14.066465
11
98.805229
21
14.722181
0
LINE
8
boundary
62
5
39
2
10
98.805229
20
14.722181
11
99.239751
21
14.913987
0
LINE
8
boundary
62
5
39
2
10
99.239751
20
14.913987
11
99.311760
21
14.911471
0
LINE
8
boundary
62
5
39
2
10
99.311760
20
14.911471
11
117.607654
21
27.122743
0
LINE
8
boundary
62
5
39
2
10
117.607654
20
27.122743
11
117.677226
21
27.256031
0
LINE
8
boundary
62
5
39
2
10
117.677226
20
27.256031
11
65.540307
21
59.194707
0
LINE
8
boundary
62
5
39
2
10
65.540307
20
59.194707
11
65.527067
21
59.180380
0
LINE
8
boundary
62
5
39
2
10
65.527067
20
59.180380
11
65.509352
21
59.172209
0
LINE
8
boundary
62
5
39
2
10
65.509352
20
59.172209
11
65.489857
21
59.171441
0
LINE
8
boundary
62
5
39
2
10
65.489857
20
59.171441
11
65.471553
21
59.178190
0
LINE
8
boundary
62
5
39
2
10
65.471553
20
59.178190
11
65.457225
21
59.191431
0
LINE
8
boundary
62
5
39
2
10
65.457225
20
59.191431
11
65.449055
21
59.209146
0
LINE
8
boundary
62
5
39
2
10
65.449055
20
59.209146
11
65.448286
21
59.228640
0
LINE
8
boundary
62
5
39
2
10
65.448286
20
59.228640
11
65.455035
21
59.246944
0
LINE
8
boundary
62
5
39
2
10
65.455035
20
59.246944
11
66.889462
21
61.588511
0
LINE
8
boundary
62
5
39
2
10
66.889462
20
61.588511
11
66.902702
21
61.602840
0
LINE
8
boundary
62
5
39
2
10
66.902702
20
61.602840
11
66.920418
21
61.611010
0
LINE
8
boundary
62
5
39
2
10
66.920418
20
61.611010
11
66.939912
21
61.611779
0
LINE
8
boundary
62
5
39
2
10
66.939912
20
61.611779
11
66.958216
21
61.605029
0
LINE
8
boundary
62
5
39
2
10
66.958216
20
61.605029
11
66.972544
21
61.591789
0
LINE
8
boundary
62
5
39
2
10
66.972544
20
61.591789
11
66.980714
21
61.574073
0
LINE
8
boundary
62
5
39
2
10
66.980714
20
61.574073
11
66.981483
21
61.554580
0
LINE
8
boundary
62
5
39
2
10
66.981483
20
61.554580
11
66.974733
21
61.536275
0
LINE
8
boundary
62
5
39
2
10
66.974733
20
61.536275
11
120.260879
21
28.893591
0
LINE
8
boundary
62
5
39
2
10
120.260879
20
28.893591
11
120.398304
21
28.985313
0
LINE
8
boundary
62
5
39
2
10
120.398304
20
28.985313
11
121.735523
21
29.877816
0
LINE
8
boundary
62
5
39
2
10
121.735523
20
29.877816
11
124.326069
21
31.691250
0
LINE
8
boundary
62
5
39
2
10
124.326069
20
31.691250
11
130.424777
21
42.062247
0
LINE
8
boundary
62
5
39
2
10
130.424777
20
42.062247
11
136.036978
21
53.652012
0
LINE
8
boundary
62
5
39
2
10
136.036978
20
53.652012
11
144.280418
21
69.528077
0
LINE
8
boundary
62
5
39
2
10
144.280418
20
69.528077
11
144.335185
21
69.668100
0
LINE
8
boundary
62
5
39
2
10
144.335185
20
69.668100
11
81.825654
21
99.202562
0
LINE
8
boundary
62
5
39
2
10
81.825654
20
99.202562
11
81.814038
21
99.186888
0
LINE
8
boundary
62
5
39
2
10
81.814038
20
99.186888
11
81.797309
21
99.176852
0
LINE
8
boundary
62
5
39
2
10
81.797309
20
99.176852
11
81.778012
21
99.173982
0
LINE
8
boundary
62
5
39
2
10
81.778012
20
99.173982
11
81.759086
21
99.178714
0
LINE
8
boundary
62
5
39
2
10
81.759086
20
99.178714
11
81.743412
21
99.190330
0
LINE
8
boundary
62
5
39
2
10
81.743412
20
99.190330
11
81.733375
21
99.207059
0
LINE
8
boundary
62
5
39
2
10
81.733375
20
99.207059
11
81.730505
21
99.226356
0
LINE
8
boundary
62
5
39
2
10
81.730505
20
99.226356
11
81.735239
21
99.245283
0
LINE
8
boundary
62
5
39
2
10
81.735239
20
99.245283
11
82.908320
21
101.728103
0
LINE
8
boundary
62
5
39
2
10
82.908320
20
101.728103
11
82.919935
21
101.743777
0
LINE
8
boundary
62
5
39
2
10
82.919935
20
101.743777
11
82.936664
21
101.753813
0
LINE
8
boundary
62
5
39
2
10
82.936664
20
101.753813
11
82.955961
21
101.756684
0
LINE
8
boundary
62
5
39
2
10
82.955961
20
101.756684
11
82.974887
21
101.751950
0
LINE
8
boundary
62
5
39
2
10
82.974887
20
101.751950
11
82.990562
21
101.740335
0
LINE
8
boundary
62
5
39
2
10
82.990562
20
101.740335
11
83.000597
21
101.723606
0
LINE
8
boundary
62
5
39
2
10
83.000597
20
101.723606
11
83.003468
21
101.704310
0
LINE
8
boundary
62
5
39
2
10
83.003468
20
101.704310
11
82.998735
21
101.685383
0
LINE
8
boundary
62
5
39
2
10
82.998735
20
101.685383
11
145.362569
21
72.219759
0
LINE
8
boundary
62
5
39
2
10
145.362569
20
72.219759
11
145.435960
21
72.350980
0
LINE
8
boundary
62
5
39
2
10
145.435960
20
72.350980
11
150.515123
21
86.879077
0
LINE
8
boundary
62
5
39
2
10
150.515123
20
86.879077
11
154.850259
21
102.743415
0
LINE
8
boundary
62
5
39
2
10
154.850259
20
102.743415
11
161.710669
21
134.137568
0
LINE
8
boundary
62
5
39
2
10
161.710669
20
134.137568
11
162.121444
21
135.910201
0
LINE
8
boundary
62
5
39
2
10
162.121444
20
135.910201
11
162.218106
21
136.651729
0
LINE
8
boundary
62
5
39
2
10
162.218106
20
136.651729
11
164.160826
21
176.389745
0
LINE
8
boundary
62
5
39
2
10
164.160826
20
176.389745
11
164.195948
21
177.314026
0
LINE
8
boundary
62
5
39
2
10
164.195948
20
177.314026
11
158.461483
21
207.747345
0
LINE
8
boundary
62
5
39
2
10
158.461483
20
207.747345
11
158.438376
21
207.840683
0
LINE
8
boundary
62
5
39
2
10
158.438376
20
207.840683
11
158.400113
21
207.984120
0
LINE
8
boundary
62
5
39
2
10
158.400113
20
207.984120
11
157.378555
21
211.014161
0
LINE
8
boundary
62
5
39
2
10
157.378555
20
211.014161
11
150.034126
21
232.868451
0
LINE
8
boundary
62
5
39
2
10
150.034126
20
232.868451
11
149.533535
21
234.234741
0
LINE
8
boundary
62
5
39
2
10
149.533535
20
234.234741
11
146.553161
21
240.950091
0
LINE
8
boundary
62
5
39
2
10
146.553161
20
240.950091
11
142.114040
21
250.696320
0
LINE
8
boundary
62
5
39
2
10
142.114040
20
250.696320
11
130.748272
21
268.359406
0
LINE
8
boundary
62
5
39
2
10
130.748272
20
268.359406
11
123.866632
21
280.023018
0
LINE
8
boundary
62
5
39
2
10
123.866632
20
280.023018
11
117.969204
21
290.368658
0
LINE
8
boundary
62
5
39
2
10
117.969204
20
290.368658
11
117.535377
21
291.557461
0
LINE
8
boundary
62
5
39
2
10
117.535377
20
291.557461
11
117.263745
21
292.464859
0
LINE
8
boundary
62
5
39
2
10
117.263745
20
292.464859
11
62.245684
21
284.897308
0
LINE
8
boundary
62
5
39
2
10
62.245684
20
284.897308
11
62.244520
21
284.877833
0
LINE
8
boundary
62
5
39
2
10
62.244520
20
284.877833
11
62.235993
21
284.860286
0
LINE
8
boundary
62
5
39
2
10
62.235993
20
284.860286
11
62.221400
21
284.847338
0
LINE
8
boundary
62
5
39
2
10
62.221400
20
284.847338
11
62.202963
21
284.840960
0
LINE
8
boundary
62
5
39
2
10
62.202963
20
284.840960
11
62.183489
21
284.842124
0
LINE
8
boundary
62
5
39
2
10
62.183489
20
284.842124
11
62.165942
21
284.850651
0
LINE
8
boundary
62
5
39
2
10
62.165942
20
284.850651
11
62.152993
21
284.865244
0
LINE
8
boundary
62
5
39
2
10
62.152993
20
284.865244
11
62.146616
21
284.883681
0
LINE
8
boundary
62
5
39
2
10
62.146616
20
284.883681
11
61.772436
21
287.604068
0
LINE
8
boundary
62
5
39
2
10
61.772436
20
287.604068
11
61.773599
21
287.623543
0
LINE
8
boundary
62
5
39
2
10
61.773599
20
287.623543
11
61.782126
21
287.641089
0
LINE
8
boundary
62
5
39
2
10
61.782126
20
287.641089
11
61.796719
21
287.654037
0
LINE
8
boundary
62
5
39
2
10
61.796719
20
287.654037
11
61.815156
21
287.660414
0
LINE
8
boundary
62
5
39
2
10
61.815156
20
287.660414
11
61.834631
21
287.659251
0
LINE
8
boundary
62
5
39
2
10
61.834631
20
287.659251
11
61.852177
21
287.650725
0
LINE
8
boundary
62
5
39
2
10
61.852177
20
287.650725
11
61.865126
21
287.636131
0
LINE
8
boundary
62
5
39
2
10
61.865126
20
287.636131
11
61.871503
21
287.617695
0
LINE
8
boundary
62
5
39
2
10
61.871503
20
287.617695
11
116.433499
21
295.122515
0
LINE
8
boundary
62
5
39
2
10
116.433499
20
295.122515
11
116.423263
21
295.272517
0
LINE
8
boundary
62
5
39
2
10
116.423263
20
295.272517
11
109.542494
21
318.257978
0
LINE
8
boundary
62
5
39
2
10
109.542494
20
318.257978
11
108.694741
21
321.093257
0
LINE
8
boundary
62
5
39
2
10
108.694741
20
321.093257
11
108.597747
21
321.411064
0
LINE
8
boundary
62
5
39
2
10
108.597747
20
321.411064
11
108.521384
21
321.822037
0
LINE
8
boundary
62
5
39
2
10
108.521384
20
321.822037
11
103.628058
21
344.868965
0
LINE
8
boundary
62
5
39
2
10
103.628058
20
344.868965
11
106.807096
21
358.348949
0
LINE
8
boundary
62
5
39
2
10
106.807096
20
358.348949
11
106.839477
21
359.044557
0
LINE
8
boundary
62
5
39
2
10
106.839477
20
359.044557
11
107.032472
21
359.518608
0
LINE
8
boundary
62
5
39
2
10
107.032472
20
359.518608
11
107.297159
21
360.450715
0
LINE
8
boundary
62
5
39
2
10
107.297159
20
360.450715
11
107.468478
21
360.918434
0
LINE
8
boundary
62
5
39
2
10
107.468478
20
360.918434
11
111.376649
21
375.824752
0
LINE
8
boundary
62
5
39
2
10
111.376649
20
375.824752
11
115.374970
21
381.789083
0
LINE
8
boundary
62
5
39
2
10
115.374970
20
381.789083
11
116.323602
21
382.900356
0
LINE
8
boundary
62
5
39
2
10
116.323602
20
382.900356
11
116.422384
21
383.321465
0
LINE
8
boundary
62
5
39
2
10
116.422384
20
383.321465
11
117.699043
21
389.856097
0
LINE
8
boundary
62
5
39
2
10
117.699043
20
389.856097
11
116.044139
21
392.483572
0
LINE
8
boundary
62
5
39
2
10
116.044139
20
392.483572
11
114.899870
21
397.631380
0
LINE
8
boundary
62
5
39
2
10
114.899870
20
397.631380
11
114.353326
21
399.207769
0
LINE
8
boundary
62
5
39
2
10
114.353326
20
399.207769
11
114.303940
21
399.350214
0
LINE
8
boundary
62
5
39
2
10
114.303940
20
399.350214
11
74.942344
21
390.034155
0
LINE
8
boundary
62
5
39
2
10
74.942344
20
390.034155
11
74.943047
21
390.014659
0
LINE
8
boundary
62
5
39
2
10
74.943047
20
390.014659
11
74.936236
21
389.996378
0
LINE
8
boundary
62
5
39
2
10
74.936236
20
389.996378
11
74.922947
21
389.982095
0
LINE
8
boundary
62
5
39
2
10
74.922947
20
389.982095
11
74.905204
21
389.973984
0
LINE
8
boundary
62
5
39
2
10
74.905204
20
389.973984
11
74.885708
21
389.973281
0
LINE
8
boundary
62
5
39
2
10
74.885708
20
389.973281
11
74.867426
21
389.980093
0
LINE
8
boundary
62
5
39
2
10
74.867426
20
389.980093
11
74.853143
21
389.993381
0
LINE
8
boundary
62
5
39
2
10
74.853143
20
389.993381
11
74.845033
21
390.011125
0
LINE
8
boundary
62
5
39
2
10
74.845033
20
390.011125
11
74.212585
21
392.683300
0
LINE
8
boundary
62
5
39
2
10
74.212585
20
392.683300
11
74.211881
21
392.702796
0
LINE
8
boundary
62
5
39
2
10
74.211881
20
392.702796
11
74.218693
21
392.721078
0
LINE
8
boundary
62
5
39
2
10
74.218693
20
392.721078
11
74.231981
21
392.735362
0
LINE
8
boundary
62
5
39
2
10
74.231981
20
392.735362
11
74.249725
21
392.743472
0
LINE
8
boundary
62
5
39
2
10
74.249725
20
392.743472
11
74.269221
21
392.744175
0
LINE
8
boundary
62
5
39
2
10
74.269221
20
392.744175
11
74.287503
21
392.737364
0
LINE
8
boundary
62
5
39
2
10
74.287503
20
392.737364
11
74.301786
21
392.724075
0
LINE
8
boundary
62
5
39
2
10
74.301786
20
392.724075
11
74.309896
21
392.706332
0
LINE
8
boundary
62
5
39
2
10
74.309896
20
392.706332
11
113.374911
21
401.952196
0
LINE
8
boundary
62
5
39
2
10
113.374911
20
401.952196
11
113.350387
21
402.100536
0
LINE
8
boundary
62
5
39
2
10
113.350387
20
402.100536
11
112.493137
21
404.573088
0
LINE
8
boundary
62
5
39
2
10
112.493137
20
404.573088
11
111.314445
21
406.337959
0
LINE
8
boundary
62
5
39
2
10
111.314445
20
406.337959
11
107.428965
21
416.134001
0
LINE
8
boundary
62
5
39
2
10
107.428965
20
416.134001
11
103.705144
21
425.246508
0
LINE
8
boundary
62
5
39
2
10
103.705144
20
425.246508
11
102.659657
21
428.023521
0
LINE
8
boundary
62
5
39
2
10
102.659657
20
428.023521
11
97.973274
21
442.765911
0
LINE
8
boundary
62
5
39
2
10
97.973274
20
442.765911
11
92.075401
21
449.594204
0
LINE
8
boundary
62
5
39
2
10
92.075401
20
449.594204
11
89.864718
21
452.201913
0
LINE
8
boundary
62
5
39
2
10
89.864718
20
452.201913
11
74.113647
21
466.942425
0
LINE
8
boundary
62
5
39
2
10
74.113647
20
466.942425
11
73.961547
21
466.986285
0
LINE
8
boundary
62
5
39
2
10
73.961547
20
466.986285
11
73.793282
21
467.069274
0
LINE
8
boundary
62
5
39
2
10
73.793282
20
467.069274
11
66.700179
21
471.538422
0
LINE
8
boundary
62
5
39
2
10
66.700179
20
471.538422
11
60.761675
21
475.224852
0
LINE
8
boundary
62
5
39
2
10
60.761675
20
475.224852
11
60.670100
21
475.297457
0
LINE
8
boundary
62
5
39
2
10
60.670100
20
475.297457
11
60.200224
21
475.531479
0
LINE
8
boundary
62
5
39
2
10
60.200224
20
475.531479
11
50.434956
21
479.933704
0
LINE
8
boundary
62
5
39
2
10
50.434956
20
479.933704
11
49.651546
21
480.071116
0
LINE
8
boundary
62
5
39
2
10
49.651546
20
480.071116
11
45.001778
21
480.419015
0
LINE
8
boundary
62
5
39
2
10
45.001778
20
480.419015
11
41.927219
21
479.211071
0
LINE
8
boundary
62
5
39
2
10
41.927219
20
479.211071
11
37.747315
21
475.030269
0
LINE
8
boundary
62
5
39
2
10
37.747315
20
475.030269
11
36.321481
21
471.749197
0
LINE
8
boundary
62
5
39
2
10
36.321481
20
471.749197
11
32.751089
21
464.445547
0
LINE
8
boundary
62
5
39
2
10
32.751089
20
464.445547
11
32.433354
21
463.373713
0
LINE
8
boundary
62
5
39
2
10
32.433354
20
463.373713
11
32.494314
21
461.103837
0
LINE
8
boundary
62
5
39
2
10
32.494314
20
461.103837
11
33.544002
21
452.575388
0
LINE
8
boundary
62
5
39
2
10
33.544002
20
452.575388
11
34.261660
21
449.563212
0
LINE
8
boundary
62
5
39
2
10
34.261660
20
449.563212
11
34.788127
21
446.586556
0
LINE
8
boundary
62
5
39
2
10
34.788127
20
446.586556
11
32.943464
21
442.335674
0
LINE
8
boundary
62
5
39
2
10
32.943464
20
442.335674
11
32.749595
21
441.910634
0
LINE
8
boundary
62
5
39
2
10
32.749595
20
441.910634
11
32.276069
21
440.611559
0
LINE
8
boundary
62
5
39
2
10
32.276069
20
440.611559
11
31.398057
21
435.692983
0
LINE
8
boundary
62
5
39
2
10
31.398057
20
435.692983
11
33.110228
21
427.100712
0
LINE
8
boundary
62
5
39
2
10
33.110228
20
427.100712
11
34.346541
21
423.296351
0
LINE
8
boundary
62
5
39
2
10
34.346541
20
423.296351
11
37.944425
21
411.131744
0
LINE
8
boundary
62
5
39
2
10
37.944425
20
411.131744
11
38.238117
21
410.180259
0
LINE
8
boundary
62
5
39
2
10
38.238117
20
410.180259
11
37.838399
21
405.882903
0
LINE
8
boundary
62
5
39
2
10
37.838399
20
405.882903
11
36.050265
21
396.928555
0
LINE
8
boundary
62
5
39
2
10
36.050265
20
396.928555
11
35.623355
21
387.699841
0
LINE
8
boundary
62
5
39
2
10
35.623355
20
387.699841
11
35.119471
21
383.407170
0
LINE
8
boundary
62
5
39
2
10
35.119471
20
383.407170
11
34.919131
21
379.095922
0
LINE
8
boundary
62
5
39
2
10
34.919131
20
379.095922
11
35.506053
21
372.095414
0
LINE
8
boundary
62
5
39
2
10
35.506053
20
372.095414
11
32.954981
21
367.490422
0
LINE
8
boundary
62
5
39
2
10
32.954981
20
367.490422
11
32.127878
21
365.878487
0
LINE
8
boundary
62
5
39
2
10
32.127878
20
365.878487
11
22.451465
21
347.243872
0
LINE
8
boundary
62
5
39
2
10
22.451465
20
347.243872
11
21.098740
21
344.382673
0
LINE
8
boundary
62
5
39
2
10
21.098740
20
344.382673
11
20.269824
21
342.047978
0
LINE
8
boundary
62
5
39
2
10
20.269824
20
342.047978
11
16.302521
21
330.111096
0
LINE
8
boundary
62
5
39
2
10
16.302521
20
330.111096
11
11.855065
21
308.455828
0
LINE
8
boundary
62
5
39
2
10
11.855065
20
308.455828
11
6.824684
21
291.152784
0
LINE
8
boundary
62
5
39
2
10
6.824684
20
291.152784
11
6.767500
21
274.197121
0
LINE
8
boundary
62
5
39
2
10
6.767500
20
274.197121
11
7.214246
21
264.498639
0
LINE
8
boundary
62
5
39
2
10
7.214246
20
264.498639
11
8.105491
21
236.090814
0
LINE
8
boundary
62
5
39
2
10
8.105491
20
236.090814
11
10.377710
21
220.678150
0
LINE
8
boundary
62
5
39
2
10
10.377710
20
220.678150
11
14.464226
21
196.134526
0
LINE
8
boundary
62
5
39
2
10
14.464226
20
196.134526
11
17.983445
21
179.983977
0
LINE
8
boundary
62
5
39
2
10
17.983445
20
179.983977
11
21.682290
21
166.749684
0
LINE
8
boundary
62
5
39
2
10
21.682290
20
166.749684
11
22.653933
21
161.515005
0
LINE
8
boundary
62
5
39
2
10
22.653933
20
161.515005
11
21.501508
21
150.455908
0
LINE
8
boundary
62
5
39
2
10
21.501508
20
150.455908
11
21.386701
21
140.474079
0
LINE
8
boundary
62
5
39
2
10
21.386701
20
140.474079
11
19.237516
21
125.760105
0
LINE
8
boundary
62
5
39
2
10
19.237516
20
125.760105
11
18.064222
21
118.571965
0
LINE
8
boundary
62
5
39
2
10
18.064222
20
118.571965
11
14.015148
21
103.236998
0
LINE
8
boundary
62
5
39
2
10
14.015148
20
103.236998
11
12.807387
21
98.349230
0
LINE
8
boundary
62
5
39
2
10
12.807387
20
98.349230
11
12.830069
21
97.049552
0
LINE
8
boundary
62
5
39
2
10
12.830069
20
97.049552
11
13.388409
21
94.402567
0
LINE
8
boundary
62
5
39
2
10
13.388409
20
94.402567
11
16.116144
21
80.449326
0
LINE
8
boundary
62
5
39
2
10
16.116144
20
80.449326
11
18.769758
21
67.012397
0
LINE
8
boundary
62
5
39
2
10
18.769758
20
67.012397
11
22.522447
21
52.830564
0
LINE
8
annotation
62
1
39
211
10
60.148535
20
61.293284
11
62.655908
21
65.386337
0
LINE
8
annotation
62
1
39
211
10
62.655908
20
65.386337
11
61.188391
21
65.033563
0
LINE
8
annotation
62
1
39
211
10
76.719906
20
100.479018
11
74.792424
21
101.389713
0
LINE
8
annotation
62
1
39
211
10
74.792424
20
101.389713
11
77.928207
21
103.415472
0
LINE
8
annotation
62
1
39
211
10
77.928207
20
103.415472
11
77.928207
21
103.415472
0
LINE
8
annotation
62
1
39
211
10
77.928207
20
103.415472
11
77.931581
21
103.417101
0
LINE
8
annotation
62
1
39
211
10
77.931581
20
103.417101
11
77.934878
21
103.418793
0
LINE
8
annotation
62
1
39
211
10
77.934878
20
103.418793
11
77.938122
21
103.420565
0
LINE
8
annotation
62
1
39
211
10
77.938122
20
103.420565
11
77.941338
21
103.422433
0
LINE
8
annotation
62
1
39
211
10
77.941338
20
103.422433
11
77.944549
21
103.424413
0
LINE
8
annotation
62
1
39
211
10
77.944549
20
103.424413
11
77.947779
21
103.426520
0
LINE
8
annotation
62
1
39
211
10
77.947779
20
103.426520
11
77.951053
21
103.428772
0
LINE
8
annotation
62
1
39
211
10
77.951053
20
103.428772
11
77.954394
21
103.431183
0
LINE
8
annotation
62
1
39
211
10
77.954394
20
103.431183
11
77.957827
21
103.433771
0
LINE
8
annotation
62
1
39
211
10
77.957827
20
103.433771
11
77.957827
21
103.433771
0
LINE
8
annotation
62
1
39
211
10
77.957827
20
103.433771
11
78.105968
21
103.556920
0
LINE
8
annotation
62
1
39
211
10
78.105968
20
103.556920
11
78.226260
21
103.700295
0
LINE
8
annotation
62
1
39
211
10
78.226260
20
103.700295
11
78.318009
21
103.859698
0
LINE
8
annotation
62
1
39
211
10
78.318009
20
103.859698
11
78.380519
21
104.030935
0
LINE
8
annotation
62
1
39
211
10
78.380519
20
104.030935
11
78.413095
21
104.209810
0
LINE
8
annotation
62
1
39
211
10
78.413095
20
104.209810
11
78.415044
21
104.392127
0
LINE
8
annotation
62
1
39
211
10
78.415044
20
104.392127
11
78.385671
21
104.573690
0
LINE
8
annotation
62
1
39
211
10
78.385671
20
104.573690
11
78.324282
21
104.750304
0
LINE
8
annotation
62
1
39
211
10
78.324282
20
104.750304
11
78.230181
21
104.917772
0
LINE
8
annotation
62
1
39
211
10
78.230181
20
104.917772
11
78.230181
21
104.917772
0
LINE
8
annotation
62
1
39
211
10
78.230181
20
104.917772
11
78.106098
21
105.065076
0
LINE
8
annotation
62
1
39
211
10
78.106098
20
105.065076
11
77.962160
21
105.184825
0
LINE
8
annotation
62
1
39
211
10
77.962160
20
105.184825
11
77.802481
21
105.276239
0
LINE
8
annotation
62
1
39
211
10
77.802481
20
105.276239
11
77.631175
21
105.338539
0
LINE
8
annotation
62
1
39
211
10
77.631175
20
105.338539
11
77.452356
21
105.370945
0
LINE
8
annotation
62
1
39
211
10
77.452356
20
105.370945
11
77.270140
21
105.372678
0
LINE
8
annotation
62
1
39
211
10
77.270140
20
105.372678
11
77.088641
21
105.342958
0
LINE
8
annotation
62
1
39
211
10
77.088641
20
105.342958
11
76.911973
21
105.281007
0
LINE
8
annotation
62
1
39
211
10
76.911973
20
105.281007
11
76.744251
21
105.186043
0
LINE
8
annotation
62
1
39
211
10
76.744251
20
105.186043
11
76.502989
21
105.003067
0
LINE
8
annotation
62
1
39
211
10
55.160136
20
282.886196
11
56.216091
21
283.031440
0
LINE
8
annotation
62
1
39
211
10
56.216091
20
283.031440
11
56.216091
21
283.031440
0
LINE
8
annotation
62
1
39
211
10
56.216091
20
283.031440
11
56.403664
21
283.074599
0
LINE
8
annotation
62
1
39
211
10
56.403664
20
283.074599
11
56.575615
21
283.148280
0
LINE
8
annotation
62
1
39
211
10
56.575615
20
283.148280
11
56.729386
21
283.249060
0
LINE
8
annotation
62
1
39
211
10
56.729386
20
283.249060
11
56.862419
21
283.373517
0
LINE
8
annotation
62
1
39
211
10
56.862419
20
283.373517
11
56.972158
21
283.518227
0
LINE
8
annotation
62
1
39
211
10
56.972158
20
283.518227
11
57.056044
21
283.679768
0
LINE
8
annotation
62
1
39
211
10
57.056044
20
283.679768
11
57.111520
21
283.854717
0
LINE
8
annotation
62
1
39
211
10
57.111520
20
283.854717
11
57.136027
21
284.039651
0
LINE
8
annotation
62
1
39
211
10
57.136027
20
284.039651
11
57.127008
21
284.231147
0
LINE
8
annotation
62
1
39
211
10
57.127008
20
284.231147
11
57.054284
21
284.759870
0
LINE
8
annotation
62
1
39
211
10
57.054284
20
284.759870
11
57.054284
21
284.759870
0
LINE
8
annotation
62
1
39
211
10
57.054284
20
284.759870
11
57.011277
21
284.946612
0
LINE
8
annotation
62
1
39
211
10
57.011277
20
284.946612
11
56.937756
21
285.118020
0
LINE
8
annotation
62
1
39
211
10
56.937756
20
285.118020
11
56.837109
21
285.271482
0
LINE
8
annotation
62
1
39
211
10
56.837109
20
285.271482
11
56.712723
21
285.404386
0
LINE
8
annotation
62
1
39
211
10
56.712723
20
285.404386
11
56.567987
21
285.514119
0
LINE
8
annotation
62
1
39
211
10
56.567987
20
285.514119
11
56.406287
21
285.598068
0
LINE
8
annotation
62
1
39
211
10
56.406287
20
285.598068
11
56.231013
21
285.653622
0
LINE
8
annotation
62
1
39
211
10
56.231013
20
285.653622
11
56.045552
21
285.678167
0
LINE
8
annotation
62
1
39
211
10
56.045552
20
285.678167
11
55.853291
21
285.669091
0
LINE
8
annotation
62
1
39
211
10
55.853291
20
285.669091
11
55.324568
21
285.596367
0
LINE
8
annotation
62
1
39
211
10
55.324568
20
285.596367
11
55.853291
21
285.669091
0
LINE
8
annotation
62
1
39
211
10
55.853291
20
285.669091
11
55.853291
21
285.669091
0
LINE
8
annotation
62
1
39
211
10
55.853291
20
285.669091
11
56.040862
21
285.712264
0
LINE
8
annotation
62
1
39
211
10
56.040862
20
285.712264
11
56.212805
21
285.785999
0
LINE
8
annotation
62
1
39
211
10
56.212805
20
285.785999
11
56.366561
21
285.886888
0
LINE
8
annotation
62
1
39
211
10
56.366561
20
285.886888
11
56.499570
21
286.011528
0
LINE
8
annotation
62
1
39
211
10
56.499570
20
286.011528
11
56.609271
21
286.156513
0
LINE
8
annotation
62
1
39
211
10
56.609271
20
286.156513
11
56.693104
21
286.318436
0
LINE
8
annotation
62
1
39
211
10
56.693104
20
286.318436
11
56.748510
21
286.493892
0
LINE
8
annotation
62
1
39
211
10
56.748510
20
286.493892
11
56.772928
21
286.679475
0
LINE
8
annotation
62
1
39
211
10
56.772928
20
286.679475
11
56.763798
21
286.871781
0
LINE
8
annotation
62
1
39
211
10
56.763798
20
286.871781
11
56.763798
21
286.871781
0
LINE
8
annotation
62
1
39
211
10
56.763798
20
286.871781
11
56.720791
21
287.058522
0
LINE
8
annotation
62
1
39
211
10
56.720791
20
287.058522
11
56.647270
21
287.229930
0
LINE
8
annotation
62
1
39
211
10
56.647270
20
287.229930
11
56.546623
21
287.383392
0
LINE
8
annotation
62
1
39
211
10
56.546623
20
287.383392
11
56.422237
21
287.516296
0
LINE
8
annotation
62
1
39
211
10
56.422237
20
287.516296
11
56.277500
21
287.626029
0
LINE
8
annotation
62
1
39
211
10
56.277500
20
287.626029
11
56.115801
21
287.709979
0
LINE
8
annotation
62
1
39
211
10
56.115801
20
287.709979
11
55.940527
21
287.765533
0
LINE
8
annotation
62
1
39
211
10
55.940527
20
287.765533
11
55.755065
21
287.790078
0
LINE
8
annotation
62
1
39
211
10
55.755065
20
287.790078
11
55.562804
21
287.781002
0
LINE
8
annotation
62
1
39
211
10
55.562804
20
287.781002
11
54.506849
21
287.635759
0
LINE
8
annotation
62
1
39
211
10
70.169701
20
388.945781
11
67.576158
21
388.331944
0
LINE
8
annotation
62
1
39
211
10
67.576158
20
388.331944
11
67.752189
21
392.209634
0
LINE
8
annotation
62
1
39
211
10
69.638053
20
387.723369
11
69.147067
21
389.797853
0
LINE
8
annotation
62
1
39
211
10
65.258234
20
174.729283
11
46.320735
21
174.729283
0
LINE
8
annotation
62
1
39
211
10
46.320735
20
174.729283
11
65.258234
21
208.835602
0
LINE
8
annotation
62
1
39
211
10
65.258234
20
208.835602
11
46.320735
21
208.835602
0
LINE
8
annotation
62
1
39
211
10
96.700064
20
191.782443
11
78.051312
21
191.782443
0
LINE
8
annotation
62
1
39
211
10
109.486725
20
174.729283
11
117.060442
21
174.729283
0
LINE
8
annotation
62
1
39
211
10
117.060442
20
174.729283
11
117.060442
21
174.729283
0
LINE
8
annotation
62
1
39
211
10
117.060442
20
174.729283
11
118.419776
21
174.851503
0
LINE
8
annotation
62
1
39
211
10
118.419776
20
174.851503
11
119.700016
21
175.203858
0
LINE
8
annotation
62
1
39
211
10
119.700016
20
175.203858
11
120.879581
21
175.764889
0
LINE
8
annotation
62
1
39
211
10
120.879581
20
175.764889
11
121.936886
21
176.513136
0
LINE
8
annotation
62
1
39
211
10
121.936886
20
176.513136
11
122.850351
21
177.427141
0
LINE
8
annotation
62
1
39
211
10
122.850351
20
177.427141
11
123.598393
21
178.485444
0
LINE
8
annotation
62
1
39
211
10
123.598393
20
178.485444
11
124.159430
21
179.666587
0
LINE
8
annotation
62
1
39
211
10
124.159430
20
179.666587
11
124.511879
21
180.949110
0
LINE
8
annotation
62
1
39
211
10
124.511879
20
180.949110
11
124.634158
21
182.311554
0
LINE
8
annotation
62
1
39
211
10
124.634158
20
182.311554
11
124.634158
21
186.084510
0
LINE
8
annotation
62
1
39
211
10
124.634158
20
186.084510
11
124.634158
21
186.084510
0
LINE
8
annotation
62
1
39
211
10
124.634158
20
186.084510
11
124.511949
21
187.446294
0
LINE
8
annotation
62
1
39
211
10
124.511949
20
187.446294
11
124.159676
21
188.727048
0
LINE
8
annotation
62
1
39
211
10
124.159676
20
188.727048
11
123.598868
21
189.905629
0
LINE
8
annotation
62
1
39
211
10
123.598868
20
189.905629
11
122.851055
21
190.960896
0
LINE
8
annotation
62
1
39
211
10
122.851055
20
190.960896
11
121.937767
21
191.871706
0
LINE
8
annotation
62
1
39
211
10
121.937767
20
191.871706
11
120.880531
21
192.616916
0
LINE
8
annotation
62
1
39
211
10
120.880531
20
192.616916
11
119.700879
21
193.175386
0
LINE
8
annotation
62
1
39
211
10
119.700879
20
193.175386
11
118.420339
21
193.525971
0
LINE
8
annotation
62
1
39
211
10
118.420339
20
193.525971
11
117.060442
21
193.647532
0
LINE
8
annotation
62
1
39
211
10
117.060442
20
193.647532
11
109.486725
21
193.647532
0
LINE
8
annotation
62
1
39
211
10
109.486725
20
193.647532
11
109.486725
21
208.835602
0
LINE
8
annotation
62
1
39
211
10
109.486725
20
208.835602
11
124.634158
21
208.835602
0
LINE
8
boundary
62
5
39
2
10
183.351655
20
51.447510
11
187.192356
21
36.744973
0
LINE
8
boundary
62
5
39
2
10
187.192356
20
36.744973
11
188.705691
21
31.394836
0
LINE
8
boundary
62
5
39
2
10
188.705691
20
31.394836
11
189.783392
21
30.070891
0
LINE
8
boundary
62
5
39
2
10
189.783392
20
30.070891
11
198.413566
21
19.764519
0
LINE
8
boundary
62
5
39
2
10
198.413566
20
19.764519
11
201.233330
21
16.780226
0
LINE
8
boundary
62
5
39
2
10
201.233330
20
16.780226
11
207.664201
21
11.437622
0
LINE
8
boundary
62
5
39
2
10
207.664201
20
11.437622
11
211.613844
21
7.967756
0
LINE
8
boundary
62
5
39
2
10
211.613844
20
7.967756
11
220.734732
21
7.306366
0
LINE
8
boundary
62
5
39
2
10
220.734732
20
7.306366
11
224.089089
21
7.614486
0
LINE
8
boundary
62
5
39
2
10
224.089089
20
7.614486
11
226.819578
21
7.995549
0
LINE
8
boundary
62
5
39
2
10
226.819578
20
7.995549
11
228.815752
21
7.630945
0
LINE
8
boundary
62
5
39
2
10
228.815752
20
7.630945
11
236.197058
21
6.767500
0
LINE
8
boundary
62
5
39
2
10
236.197058
20
6.767500
11
243.801824
21
8.075689
0
LINE
8
boundary
62
5
39
2
10
243.801824
20
8.075689
11
255.894830
21
12.800973
0
LINE
8
boundary
62
5
39
2
10
255.894830
20
12.800973
11
257.373116
21
13.521070
0
LINE
8
boundary
62
5
39
2
10
257.373116
20
13.521070
11
258.400095
21
13.955825
0
LINE
8
boundary
62
5
39
2
10
258.400095
20
13.955825
11
259.769614
21
14.671573
0
LINE
8
boundary
62
5
39
2
10
259.769614
20
14.671573
11
269.408838
21
20.942421
0
LINE
8
boundary
62
5
39
2
10
269.408838
20
20.942421
11
273.973230
21
23.959603
0
LINE
8
boundary
62
5
39
2
10
273.973230
20
23.959603
11
276.996198
21
25.294201
0
LINE
8
boundary
62
5
39
2
10
276.996198
20
25.294201
11
278.879858
21
26.630797
0
LINE
8
boundary
62
5
39
2
10
278.879858
20
26.630797
11
278.949429
21
26.764085
0
LINE
8
boundary
62
5
39
2
10
278.949429
20
26.764085
11
226.424216
21
58.940627
0
LINE
8
boundary
62
5
39
2
10
226.424216
20
58.940627
11
226.410975
21
58.926299
0
LINE
8
boundary
62
5
39
2
10
226.410975
20
58.926299
11
226.393260
21
58.918129
0
LINE
8
boundary
62
5
39
2
10
226.393260
20
58.918129
11
226.373766
21
58.917360
0
LINE
8
boundary
62
5
39
2
10
226.373766
20
58.917360
11
226.355462
21
58.924110
0
LINE
8
boundary
62
5
39
2
10
226.355462
20
58.924110
11
226.341134
21
58.937350
0
LINE
8
boundary
62
5
39
2
10
226.341134
20
58.937350
11
226.332963
21
58.955066
0
LINE
8
boundary
62
5
39
2
10
226.332963
20
58.955066
11
226.332195
21
58.974560
0
LINE
8
boundary
62
5
39
2
10
226.332195
20
58.974560
11
226.338945
21
58.992864
0
LINE
8
boundary
62
5
39
2
10
226.338945
20
58.992864
11
227.773370
21
61.334431
0
LINE
8
boundary
62
5
39
2
10
227.773370
20
61.334431
11
227.786611
21
61.348759
0
LINE
8
boundary
62
5
39
2
10
227.786611
20
61.348759
11
227.804327
21
61.356929
0
LINE
8
boundary
62
5
39
2
10
227.804327
20
61.356929
11
227.823820
21
61.357699
0
LINE
8
boundary
62
5
39
2
10
227.823820
20
61.357699
11
227.842125
21
61.350948
0
LINE
8
boundary
62
5
39
2
10
227.842125
20
61.350948
11
227.856453
21
61.337708
0
LINE
8
boundary
62
5
39
2
10
227.856453
20
61.337708
11
227.864623
21
61.319992
0
LINE
8
boundary
62
5
39
2
10
227.864623
20
61.319992
11
227.865392
21
61.300499
0
LINE
8
boundary
62
5
39
2
10
227.865392
20
61.300499
11
227.858642
21
61.282195
0
LINE
8
boundary
62
5
39
2
10
227.858642
20
61.282195
11
281.448516
21
28.453449
0
LINE
8
boundary
62
5
39
2
10
281.448516
20
28.453449
11
282.655493
21
29.309888
0
LINE
8
boundary
62
5
39
2
10
282.655493
20
29.309888
11
284.165176
21
30.760131
0
LINE
8
boundary
62
5
39
2
10
284.165176
20
30.760131
11
293.114914
21
46.201589
0
LINE
8
boundary
62
5
39
2
10
293.114914
20
46.201589
11
294.561260
21
48.847772
0
LINE
8
boundary
62
5
39
2
10
294.561260
20
48.847772
11
296.350369
21
51.950491
0
LINE
8
boundary
62
5
39
2
10
296.350369
20
51.950491
11
304.056032
21
67.123009
0
LINE
8
boundary
62
5
39
2
10
304.056032
20
67.123009
11
304.990856
21
69.390274
0
LINE
8
boundary
62
5
39
2
10
304.990856
20
69.390274
11
305.045622
21
69.530298
0
LINE
8
boundary
62
5
39
2
10
305.045622
20
69.530298
11
242.643038
21
99.014231
0
LINE
8
boundary
62
5
39
2
10
242.643038
20
99.014231
11
242.631422
21
98.998556
0
LINE
8
boundary
62
5
39
2
10
242.631422
20
98.998556
11
242.614692
21
98.988520
0
LINE
8
boundary
62
5
39
2
10
242.614692
20
98.988520
11
242.595396
21
98.985650
0
LINE
8
boundary
62
5
39
2
10
242.595396
20
98.985650
11
242.576470
21
98.990383
0
LINE
8
boundary
62
5
39
2
10
242.576470
20
98.990383
11
242.560795
21
99.001998
0
LINE
8
boundary
62
5
39
2
10
242.560795
20
99.001998
11
242.550759
21
99.018728
0
LINE
8
boundary
62
5
39
2
10
242.550759
20
99.018728
11
242.547888
21
99.038024
0
LINE
8
boundary
62
5
39
2
10
242.547888
20
99.038024
11
242.552621
21
99.056951
0
LINE
8
boundary
62
5
39
2
10
242.552621
20
99.056951
11
243.725703
21
101.539771
0
LINE
8
boundary
62
5
39
2
10
243.725703
20
101.539771
11
243.737319
21
101.555445
0
LINE
8
boundary
62
5
39
2
10
243.737319
20
101.555445
11
243.754048
21
101.565482
0
LINE
8
boundary
62
5
39
2
10
243.754048
20
101.565482
11
243.773344
21
101.568352
0
LINE
8
boundary
62
5
39
2
10
243.773344
20
101.568352
11
243.792270
21
101.563619
0
LINE
8
boundary
62
5
39
2
10
243.792270
20
101.563619
11
243.807945
21
101.552003
0
LINE
8
boundary
62
5
39
2
10
243.807945
20
101.552003
11
243.817982
21
101.535274
0
LINE
8
boundary
62
5
39
2
10
243.817982
20
101.535274
11
243.820851
21
101.515977
0
LINE
8
boundary
62
5
39
2
10
243.820851
20
101.515977
11
243.816118
21
101.497052
0
LINE
8
boundary
62
5
39
2
10
243.816118
20
101.497052
11
306.080020
21
72.078644
0
LINE
8
boundary
62
5
39
2
10
306.080020
20
72.078644
11
306.153412
21
72.209865
0
LINE
8
boundary
62
5
39
2
10
306.153412
20
72.209865
11
308.995610
21
79.103157
0
LINE
8
boundary
62
5
39
2
10
308.995610
20
79.103157
11
311.619905
21
89.260360
0
LINE
8
boundary
62
5
39
2
10
311.619905
20
89.260360
11
316.909724
21
108.357112
0
LINE
8
boundary
62
5
39
2
10
316.909724
20
108.357112
11
319.334301
21
124.035467
0
LINE
8
boundary
62
5
39
2
10
319.334301
20
124.035467
11
322.736689
21
136.023813
0
LINE
8
boundary
62
5
39
2
10
322.736689
20
136.023813
11
323.432809
21
146.760699
0
LINE
8
boundary
62
5
39
2
10
323.432809
20
146.760699
11
324.835030
21
168.852179
0
LINE
8
boundary
62
5
39
2
10
324.835030
20
168.852179
11
324.862112
21
172.143777
0
LINE
8
boundary
62
5
39
2
10
324.862112
20
172.143777
11
324.118089
21
177.364500
0
LINE
8
boundary
62
5
39
2
10
324.118089
20
177.364500
11
321.760708
21
194.256304
0
LINE
8
boundary
62
5
39
2
10
321.760708
20
194.256304
11
316.665408
21
216.343282
0
LINE
8
boundary
62
5
39
2
10
316.665408
20
216.343282
11
316.550143
21
216.739616
0
LINE
8
boundary
62
5
39
2
10
316.550143
20
216.739616
11
310.648633
21
230.876287
0
LINE
8
boundary
62
5
39
2
10
310.648633
20
230.876287
11
305.379930
21
244.271065
0
LINE
8
boundary
62
5
39
2
10
305.379930
20
244.271065
11
303.738483
21
248.359760
0
LINE
8
boundary
62
5
39
2
10
303.738483
20
248.359760
11
292.484900
21
266.802858
0
LINE
8
boundary
62
5
39
2
10
292.484900
20
266.802858
11
286.106800
21
277.389799
0
LINE
8
boundary
62
5
39
2
10
286.106800
20
277.389799
11
278.309912
21
292.265411
0
LINE
8
boundary
62
5
39
2
10
278.309912
20
292.265411
11
278.235888
21
292.406641
0
LINE
8
boundary
62
5
39
2
10
278.235888
20
292.406641
11
223.202361
21
284.836962
0
LINE
8
boundary
62
5
39
2
10
223.202361
20
284.836962
11
223.201198
21
284.817488
0
LINE
8
boundary
62
5
39
2
10
223.201198
20
284.817488
11
223.192670
21
284.799941
0
LINE
8
boundary
62
5
39
2
10
223.192670
20
284.799941
11
223.178078
21
284.786993
0
LINE
8
boundary
62
5
39
2
10
223.178078
20
284.786993
11
223.159640
21
284.780615
0
LINE
8
boundary
62
5
39
2
10
223.159640
20
284.780615
11
223.140166
21
284.781779
0
LINE
8
boundary
62
5
39
2
10
223.140166
20
284.781779
11
223.122619
21
284.790306
0
LINE
8
boundary
62
5
39
2
10
223.122619
20
284.790306
11
223.109672
21
284.804899
0
LINE
8
boundary
62
5
39
2
10
223.109672
20
284.804899
11
223.103293
21
284.823336
0
LINE
8
boundary
62
5
39
2
10
223.103293
20
284.823336
11
222.729114
21
287.543723
0
LINE
8
boundary
62
5
39
2
10
222.729114
20
287.543723
11
222.730277
21
287.563197
0
LINE
8
boundary
62
5
39
2
10
222.730277
20
287.563197
11
222.738804
21
287.580744
0
LINE
8
boundary
62
5
39
2
10
222.738804
20
287.580744
11
222.753397
21
287.593692
0
LINE
8
boundary
62
5
39
2
10
222.753397
20
287.593692
11
222.771834
21
287.600070
0
LINE
8
boundary
62
5
39
2
10
222.771834
20
287.600070
11
222.791308
21
287.598906
0
LINE
8
boundary
62
5
39
2
10
222.791308
20
287.598906
11
222.808855
21
287.590379
0
LINE
8
boundary
62
5
39
2
10
222.808855
20
287.590379
11
222.821803
21
287.575787
0
LINE
8
boundary
62
5
39
2
10
222.821803
20
287.575787
11
222.828181
21
287.557349
0
LINE
8
boundary
62
5
39
2
10
222.828181
20
287.557349
11
276.919031
21
294.997366
0
LINE
8
boundary
62
5
39
2
10
276.919031
20
294.997366
11
276.908796
21
295.147370
0
LINE
8
boundary
62
5
39
2
10
276.908796
20
295.147370
11
275.630525
21
299.529553
0
LINE
8
boundary
62
5
39
2
10
275.630525
20
299.529553
11
267.336907
21
327.918887
0
LINE
8
boundary
62
5
39
2
10
267.336907
20
327.918887
11
266.959993
21
329.169610
0
LINE
8
boundary
62
5
39
2
10
266.959993
20
329.169610
11
266.826218
21
329.428081
0
LINE
8
boundary
62
5
39
2
10
266.826218
20
329.428081
11
262.960077
21
342.663146
0
LINE
8
boundary
62
5
39
2
10
262.960077
20
342.663146
11
266.758741
21
357.339632
0
LINE
8
boundary
62
5
39
2
10
266.758741
20
357.339632
11
268.235031
21
361.171207
0
LINE
8
boundary
62
5
39
2
10
268.235031
20
361.171207
11
271.458211
21
373.496743
0
LINE
8
boundary
62
5
39
2
10
271.458211
20
373.496743
11
275.103276
21
379.468224
0
LINE
8
boundary
62
5
39
2
10
275.103276
20
379.468224
11
275.199534
21
379.913042
0
LINE
8
boundary
62
5
39
2
10
275.199534
20
379.913042
11
277.432920
21
387.509893
0
LINE
8
boundary
62
5
39
2
10
277.432920
20
387.509893
11
276.120385
21
394.159277
0
LINE
8
boundary
62
5
39
2
10
276.120385
20
394.159277
11
275.151406
21
399.141371
0
LINE
8
boundary
62
5
39
2
10
275.151406
20
399.141371
11
275.106835
21
399.284966
0
LINE
8
boundary
62
5
39
2
10
275.106835
20
399.284966
11
235.751155
21
389.970307
0
LINE
8
boundary
62
5
39
2
10
235.751155
20
389.970307
11
235.751859
21
389.950810
0
LINE
8
boundary
62
5
39
2
10
235.751859
20
389.950810
11
235.745047
21
389.932529
0
LINE
8
boundary
62
5
39
2
10
235.745047
20
389.932529
11
235.731758
21
389.918246
0
LINE
8
boundary
62
5
39
2
10
235.731758
20
389.918246
11
235.714015
21
389.910136
0
LINE
8
boundary
62
5
39
2
10
235.714015
20
389.910136
11
235.694518
21
389.909432
0
LINE
8
boundary
62
5
39
2
10
235.694518
20
389.909432
11
235.676237
21
389.916243
0
LINE
8
boundary
62
5
39
2
10
235.676237
20
389.916243
11
235.661954
21
389.929533
0
LINE
8
boundary
62
5
39
2
10
235.661954
20
389.929533
11
235.653843
21
389.947275
0
LINE
8
boundary
62
5
39
2
10
235.653843
20
389.947275
11
235.021396
21
392.619452
0
LINE
8
boundary
62
5
39
2
10
235.021396
20
392.619452
11
235.020692
21
392.638948
0
LINE
8
boundary
62
5
39
2
10
235.020692
20
392.638948
11
235.027503
21
392.657229
0
LINE
8
boundary
62
5
39
2
10
235.027503
20
392.657229
11
235.040792
21
392.671513
0
LINE
8
boundary
62
5
39
2
10
235.040792
20
392.671513
11
235.058535
21
392.679624
0
LINE
8
boundary
62
5
39
2
10
235.058535
20
392.679624
11
235.078032
21
392.680327
0
LINE
8
boundary
62
5
39
2
10
235.078032
20
392.680327
11
235.096313
21
392.673515
0
LINE
8
boundary
62
5
39
2
10
235.096313
20
392.673515
11
235.110597
21
392.660227
0
LINE
8
boundary
62
5
39
2
10
235.110597
20
392.660227
11
235.118707
21
392.642484
0
LINE
8
boundary
62
5
39
2
10
235.118707
20
392.642484
11
274.116285
21
401.872387
0
LINE
8
boundary
62
5
39
2
10
274.116285
20
401.872387
11
274.091761
21
402.020725
0
LINE
8
boundary
62
5
39
2
10
274.091761
20
402.020725
11
269.589076
21
409.211763
0
LINE
8
boundary
62
5
39
2
10
269.589076
20
409.211763
11
268.940577
21
411.724301
0
LINE
8
boundary
62
5
39
2
10
268.940577
20
411.724301
11
263.928991
21
426.223307
0
LINE
8
boundary
62
5
39
2
10
263.928991
20
426.223307
11
262.900421
21
428.588088
0
LINE
8
boundary
62
5
39
2
10
262.900421
20
428.588088
11
257.657924
21
443.545703
0
LINE
8
boundary
62
5
39
2
10
257.657924
20
443.545703
11
240.724362
21
461.591879
0
LINE
8
boundary
62
5
39
2
10
240.724362
20
461.591879
11
240.643763
21
461.713843
0
LINE
8
boundary
62
5
39
2
10
240.643763
20
461.713843
11
239.984015
21
461.889650
0
LINE
8
boundary
62
5
39
2
10
239.984015
20
461.889650
11
235.798554
21
464.415586
0
LINE
8
boundary
62
5
39
2
10
235.798554
20
464.415586
11
217.696314
21
476.785210
0
LINE
8
boundary
62
5
39
2
10
217.696314
20
476.785210
11
209.298483
21
479.787549
0
LINE
8
boundary
62
5
39
2
10
209.298483
20
479.787549
11
208.340699
21
480.254287
0
LINE
8
boundary
62
5
39
2
10
208.340699
20
480.254287
11
207.537407
21
479.869587
0
LINE
8
boundary
62
5
39
2
10
207.537407
20
479.869587
11
198.949221
21
473.772136
0
LINE
8
boundary
62
5
39
2
10
198.949221
20
473.772136
11
196.573955
21
471.598189
0
LINE
8
boundary
62
5
39
2
10
196.573955
20
471.598189
11
196.129731
21
469.583314
0
LINE
8
boundary
62
5
39
2
10
196.129731
20
469.583314
11
195.368331
21
467.320245
0
LINE
8
boundary
62
5
39
2
10
195.368331
20
467.320245
11
194.110382
21
454.193113
0
LINE
8
boundary
62
5
39
2
10
194.110382
20
454.193113
11
195.212950
21
449.273556
0
LINE
8
boundary
62
5
39
2
10
195.212950
20
449.273556
11
195.100772
21
448.152324
0
LINE
8
boundary
62
5
39
2
10
195.100772
20
448.152324
11
193.756040
21
441.966019
0
LINE
8
boundary
62
5
39
2
10
193.756040
20
441.966019
11
193.416571
21
440.013622
0
LINE
8
boundary
62
5
39
2
10
193.416571
20
440.013622
11
192.734332
21
435.620109
0
LINE
8
boundary
62
5
39
2
10
192.734332
20
435.620109
11
192.860687
21
432.407338
0
LINE
8
boundary
62
5
39
2
10
192.860687
20
432.407338
11
194.080762
21
427.887919
0
LINE
8
boundary
62
5
39
2
10
194.080762
20
427.887919
11
196.163714
21
421.186432
0
LINE
8
boundary
62
5
39
2
10
196.163714
20
421.186432
11
197.387168
21
416.803998
0
LINE
8
boundary
62
5
39
2
10
197.387168
20
416.803998
11
198.755474
21
408.766080
0
LINE
8
boundary
62
5
39
2
10
198.755474
20
408.766080
11
198.411672
21
405.226021
0
LINE
8
boundary
62
5
39
2
10
198.411672
20
405.226021
11
197.358036
21
402.851546
0
LINE
8
boundary
62
5
39
2
10
197.358036
20
402.851546
11
196.812625
21
400.277494
0
LINE
8
boundary
62
5
39
2
10
196.812625
20
400.277494
11
196.556373
21
393.419155
0
LINE
8
boundary
62
5
39
2
10
196.556373
20
393.419155
11
196.006304
21
383.725128
0
LINE
8
boundary
62
5
39
2
10
196.006304
20
383.725128
11
195.303302
21
378.002196
0
LINE
8
boundary
62
5
39
2
10
195.303302
20
378.002196
11
195.849535
21
372.186206
0
LINE
8
boundary
62
5
39
2
10
195.849535
20
372.186206
11
192.955350
21
366.688901
0
LINE
8
boundary
62
5
39
2
10
192.955350
20
366.688901
11
188.198172
21
357.322302
0
LINE
8
boundary
62
5
39
2
10
188.198172
20
357.322302
11
182.923904
21
346.476466
0
LINE
8
boundary
62
5
39
2
10
182.923904
20
346.476466
11
182.923123
21
346.474767
0
LINE
8
boundary
62
5
39
2
10
182.923123
20
346.474767
11
174.423801
21
321.447762
0
LINE
8
boundary
62
5
39
2
10
174.423801
20
321.447762
11
173.739382
21
319.226328
0
LINE
8
boundary
62
5
39
2
10
173.739382
20
319.226328
11
173.545958
21
318.418740
0
LINE
8
boundary
62
5
39
2
10
173.545958
20
318.418740
11
173.148795
21
317.370115
0
LINE
8
boundary
62
5
39
2
10
173.148795
20
317.370115
11
171.883628
21
312.892122
0
LINE
8
boundary
62
5
39
2
10
171.883628
20
312.892122
11
170.580903
21
308.054033
0
LINE
8
boundary
62
5
39
2
10
170.580903
20
308.054033
11
167.570949
21
292.880695
0
LINE
8
boundary
62
5
39
2
10
167.570949
20
292.880695
11
167.778624
21
270.902761
0
LINE
8
boundary
62
5
39
2
10
167.778624
20
270.902761
11
169.065288
21
243.994560
0
LINE
8
boundary
62
5
39
2
10
169.065288
20
243.994560
11
171.977980
21
215.543584
0
LINE
8
boundary
62
5
39
2
10
171.977980
20
215.543584
11
174.641881
21
200.478469
0
LINE
8
boundary
62
5
39
2
10
174.641881
20
200.478469
11
179.072007
21
179.807218
0
LINE
8
boundary
62
5
39
2
10
179.072007
20
179.807218
11
181.048428
21
168.201142
0
LINE
8
boundary
62
5
39
2
10
181.048428
20
168.201142
11
182.464063
21
161.653606
0
LINE
8
boundary
62
5
39
2
10
182.464063
20
161.653606
11
182.107872
21
142.764582
0
LINE
8
boundary
62
5
39
2
10
182.107872
20
142.764582
11
180.832316
21
129.415335
0
LINE
8
boundary
62
5
39
2
10
180.832316
20
129.415335
11
180.680219
21
128.341877
0
LINE
8
boundary
62
5
39
2
10
180.680219
20
128.341877
11
177.281238
21
110.476456
0
LINE
8
boundary
62
5
39
2
10
177.281238
20
110.476456
11
176.317838
21
107.177865
0
LINE
8
boundary
62
5
39
2
10
176.317838
20
107.177865
11
174.322919
21
100.725748
0
LINE
8
boundary
62
5
39
2
10
174.322919
20
100.725748
11
173.548032
21
98.307692
0
LINE
8
boundary
62
5
39
2
10
173.548032
20
98.307692
11
173.565613
21
96.268779
0
LINE
8
boundary
62
5
39
2
10
173.565613
20
96.268779
11
174.604006
21
91.677947
0
LINE
8
boundary
62
5
39
2
10
174.604006
20
91.677947
11
176.653580
21
81.105004
0
LINE
8
boundary
62
5
39
2
10
176.653580
20
81.105004
11
177.996574
21
75.571058
0
LINE
8
boundary
62
5
39
2
10
177.996574
20
75.571058
11
181.890904
21
58.284562
0
LINE
8
boundary
62
5
39
2
10
181.890904
20
58.284562
11
183.217600
21
52.366427
0
LINE
8
boundary
62
5
39
2
10
183.217600
20
52.366427
11
183.351655
21
51.447510
0
LINE
8
annotation
62
1
39
211
10
221.032444
20
61.039203
11
223.539816
21
65.132256
0
LINE
8
annotation
62
1
39
211
10
223.539816
20
65.132256
11
222.072300
21
64.779483
0
LINE
8
annotation
62
1
39
211
10
237.537289
20
100.290686
11
235.609808
21
101.201381
0
LINE
8
annotation
62
1
39
211
10
235.609808
20
101.201381
11
238.745590
21
103.227140
0
LINE
8
annotation
62
1
39
211
10
238.745590
20
103.227140
11
238.745590
21
103.227140
0
LINE
8
annotation
62
1
39
211
10
238.745590
20
103.227140
11
238.748964
21
103.228769
0
LINE
8
annotation
62
1
39
211
10
238.748964
20
103.228769
11
238.752261
21
103.230461
0
LINE
8
annotation
62
1
39
211
10
238.752261
20
103.230461
11
238.755506
21
103.232233
0
LINE
8
annotation
62
1
39
211
10
238.755506
20
103.232233
11
238.758722
21
103.234101
0
LINE
8
annotation
62
1
39
211
10
238.758722
20
103.234101
11
238.761933
21
103.236081
0
LINE
8
annotation
62
1
39
211
10
238.761933
20
103.236081
11
238.765163
21
103.238189
0
LINE
8
annotation
62
1
39
211
10
238.765163
20
103.238189
11
238.768437
21
103.240440
0
LINE
8
annotation
62
1
39
211
10
238.768437
20
103.240440
11
238.771778
21
103.242852
0
LINE
8
annotation
62
1
39
211
10
238.771778
20
103.242852
11
238.775210
21
103.245439
0
LINE
8
annotation
62
1
39
211
10
238.775210
20
103.245439
11
238.775210
21
103.245439
0
LINE
8
annotation
62
1
39
211
10
238.775210
20
103.245439
11
238.923352
21
103.368588
0
LINE
8
annotation
62
1
39
211
10
238.923352
20
103.368588
11
239.043644
21
103.511963
0
LINE
8
annotation
62
1
39
211
10
239.043644
20
103.511963
11
239.135392
21
103.671366
0
LINE
8
annotation
62
1
39
211
10
239.135392
20
103.671366
11
239.197902
21
103.842604
0
LINE
8
annotation
62
1
39
211
10
239.197902
20
103.842604
11
239.230479
21
104.021478
0
LINE
8
annotation
62
1
39
211
10
239.230479
20
104.021478
11
239.232428
21
104.203795
0
LINE
8
annotation
62
1
39
211
10
239.232428
20
104.203795
11
239.203055
21
104.385358
0
LINE
8
annotation
62
1
39
211
10
239.203055
20
104.385358
11
239.141665
21
104.561972
0
LINE
8
annotation
62
1
39
211
10
239.141665
20
104.561972
11
239.047564
21
104.729440
0
LINE
8
annotation
62
1
39
211
10
239.047564
20
104.729440
11
239.047564
21
104.729440
0
LINE
8
annotation
62
1
39
211
10
239.047564
20
104.729440
11
238.923482
21
104.876744
0
LINE
8
annotation
62
1
39
211
10
238.923482
20
104.876744
11
238.779544
21
104.996493
0
LINE
8
annotation
62
1
39
211
10
238.779544
20
104.996493
11
238.619865
21
105.087907
0
LINE
8
annotation
62
1
39
211
10
238.619865
20
105.087907
11
238.448558
21
105.150207
0
LINE
8
annotation
62
1
39
211
10
238.448558
20
105.150207
11
238.269740
21
105.182613
0
LINE
8
annotation
62
1
39
211
10
238.269740
20
105.182613
11
238.087524
21
105.184346
0
LINE
8
annotation
62
1
39
211
10
238.087524
20
105.184346
11
237.906025
21
105.154627
0
LINE
8
annotation
62
1
39
211
10
237.906025
20
105.154627
11
237.729357
21
105.092675
0
LINE
8
annotation
62
1
39
211
10
237.729357
20
105.092675
11
237.561634
21
104.997711
0
LINE
8
annotation
62
1
39
211
10
237.561634
20
104.997711
11
237.320372
21
104.814735
0
LINE
8
annotation
62
1
39
211
10
216.116813
20
282.825851
11
217.172769
21
282.971094
0
LINE
8
annotation
62
1
39
211
10
217.172769
20
282.971094
11
217.172769
21
282.971094
0
LINE
8
annotation
62
1
39
211
10
217.172769
20
282.971094
11
217.360341
21
283.014253
0
LINE
8
annotation
62
1
39
211
10
217.360341
20
283.014253
11
217.532292
21
283.087935
0
LINE
8
annotation
62
1
39
211
10
217.532292
20
283.087935
11
217.686063
21
283.188715
0
LINE
8
annotation
62
1
39
211
10
217.686063
20
283.188715
11
217.819097
21
283.313171
0
LINE
8
annotation
62
1
39
211
10
217.819097
20
283.313171
11
217.928836
21
283.457882
0
LINE
8
annotation
62
1
39
211
10
217.928836
20
283.457882
11
218.012722
21
283.619423
0
LINE
8
annotation
62
1
39
211
10
218.012722
20
283.619423
11
218.068197
21
283.794371
0
LINE
8
annotation
62
1
39
211
10
218.068197
20
283.794371
11
218.092704
21
283.979306
0
LINE
8
annotation
62
1
39
211
10
218.092704
20
283.979306
11
218.083686
21
284.170802
0
LINE
8
annotation
62
1
39
211
10
218.083686
20
284.170802
11
218.010962
21
284.699525
0
LINE
8
annotation
62
1
39
211
10
218.010962
20
284.699525
11
218.010962
21
284.699525
0
LINE
8
annotation
62
1
39
211
10
218.010962
20
284.699525
11
217.967955
21
284.886266
0
LINE
8
annotation
62
1
39
211
10
217.967955
20
284.886266
11
217.894434
21
285.057674
0
LINE
8
annotation
62
1
39
211
10
217.894434
20
285.057674
11
217.793787
21
285.211137
0
LINE
8
annotation
62
1
39
211
10
217.793787
20
285.211137
11
217.669401
21
285.344041
0
LINE
8
annotation
62
1
39
211
10
217.669401
20
285.344041
11
217.524664
21
285.453774
0
LINE
8
annotation
62
1
39
211
10
217.524664
20
285.453774
11
217.362965
21
285.537723
0
LINE
8
annotation
62
1
39
211
10
217.362965
20
285.537723
11
217.187691
21
285.593277
0
LINE
8
annotation
62
1
39
211
10
217.187691
20
285.593277
11
217.002229
21
285.617822
0
LINE
8
annotation
62
1
39
211
10
217.002229
20
285.617822
11
216.809968
21
285.608746
0
LINE
8
annotation
62
1
39
211
10
216.809968
20
285.608746
11
216.281245
21
285.536022
0
LINE
8
annotation
62
1
39
211
10
216.281245
20
285.536022
11
216.809968
21
285.608746
0
LINE
8
annotation
62
1
39
211
10
216.809968
20
285.608746
11
216.809968
21
285.608746
0
LINE
8
annotation
62
1
39
211
10
216.809968
20
285.608746
11
216.997539
21
285.651919
0
LINE
8
annotation
62
1
39
211
10
216.997539
20
285.651919
11
217.169483
21
285.725653
0
LINE
8
annotation
62
1
39
211
10
217.169483
20
285.725653
11
217.323239
21
285.826543
0
LINE
8
annotation
62
1
39
211
10
217.323239
20
285.826543
11
217.456247
21
285.951183
0
LINE
8
annotation
62
1
39
211
10
217.456247
20
285.951183
11
217.565948
21
286.096168
0
LINE
8
annotation
62
1
39
211
10
217.565948
20
286.096168
11
217.649782
21
286.258091
0
LINE
8
annotation
62
1
39
211
10
217.649782
20
286.258091
11
217.705187
21
286.433547
0
LINE
8
annotation
62
1
39
211
10
217.705187
20
286.433547
11
217.729605
21
286.619130
0
LINE
8
annotation
62
1
39
211
10
217.729605
20
286.619130
11
217.720475
21
286.811436
0
LINE
8
annotation
62
1
39
211
10
217.720475
20
286.811436
11
217.720475
21
286.811436
0
LINE
8
annotation
62
1
39
211
10
217.720475
20
286.811436
11
217.677469
21
286.998177
0
LINE
8
annotation
62
1
39
211
10
217.677469
20
286.998177
11
217.603948
21
287.169585
0
LINE
8
annotation
62
1
39
211
10
217.603948
20
287.169585
11
217.503300
21
287.323047
0
LINE
8
annotation
62
1
39
211
10
217.503300
20
287.323047
11
217.378915
21
287.455951
0
LINE
8
annotation
62
1
39
211
10
217.378915
20
287.455951
11
217.234178
21
287.565684
0
LINE
8
annotation
62
1
39
211
10
217.234178
20
287.565684
11
217.072479
21
287.649634
0
LINE
8
annotation
62
1
39
211
10
217.072479
20
287.649634
11
216.897204
21
287.705187
0
LINE
8
annotation
62
1
39
211
10
216.897204
20
287.705187
11
216.711743
21
287.729733
0
LINE
8
annotation
62
1
39
211
10
216.711743
20
287.729733
11
216.519482
21
287.720657
0
LINE
8
annotation
62
1
39
211
10
216.519482
20
287.720657
11
215.463527
21
287.575414
0
LINE
8
annotation
62
1
39
211
10
230.978512
20
388.881933
11
228.384969
21
388.268096
0
LINE
8
annotation
62
1
39
211
10
228.384969
20
388.268096
11
228.560999
21
392.145785
0
LINE
8
annotation
62
1
39
211
10
230.446864
20
387.659521
11
229.955878
21
389.734004
0
LINE
8
annotation
62
1
39
211
10
224.105699
20
174.670869
11
205.174787
21
174.670869
0
LINE
8
annotation
62
1
39
211
10
205.174787
20
174.670869
11
224.105699
21
208.765326
0
LINE
8
annotation
62
1
39
211
10
224.105699
20
208.765326
11
205.174787
21
208.765326
0
LINE
8
annotation
62
1
39
211
10
255.536594
20
191.718098
11
236.894328
21
191.718098
0
LINE
8
annotation
62
1
39
211
10
287.249721
20
182.250503
11
268.318809
21
182.250503
0
LINE
8
annotation
62
1
39
211
10
268.318809
20
182.250503
11
275.879200
21
208.765326
0
LINE
8
annotation
62
1
39
211
10
281.575151
20
174.670869
11
281.575151
21
189.813033
0
LINE
8
boundary
62
5
39
2
10
407.983536
20
79.440018
11
413.601545
21
63.757630
0
LINE
8
boundary
62
5
39
2
10
413.601545
20
63.757630
11
413.780419
21
55.564406
0
LINE
8
boundary
62
5
39
2
10
413.780419
20
55.564406
11
415.011805
21
53.317950
0
LINE
8
boundary
62
5
39
2
10
415.011805
20
53.317950
11
416.490716
21
55.706966
0
LINE
8
boundary
62
5
39
2
10
416.490716
20
55.706966
11
420.008307
21
62.106329
0
LINE
8
boundary
62
5
39
2
10
420.008307
20
62.106329
11
421.446800
21
66.465628
0
LINE
8
boundary
62
5
39
2
10
421.446800
20
66.465628
11
423.623154
21
69.277129
0
LINE
8
boundary
62
5
39
2
10
423.623154
20
69.277129
11
427.384252
21
70.792947
0
LINE
8
boundary
62
5
39
2
10
427.384252
20
70.792947
11
436.091481
21
55.565243
0
LINE
8
boundary
62
5
39
2
10
436.091481
20
55.565243
11
438.981733
21
51.448633
0
LINE
8
boundary
62
5
39
2
10
438.981733
20
51.448633
11
452.871328
21
32.020187
0
LINE
8
boundary
62
5
39
2
10
452.871328
20
32.020187
11
455.717362
21
28.177451
0
LINE
8
boundary
62
5
39
2
10
455.717362
20
28.177451
11
461.840592
21
18.317254
0
LINE
8
boundary
62
5
39
2
10
461.840592
20
18.317254
11
465.173229
21
14.944495
0
LINE
8
boundary
62
5
39
2
10
465.173229
20
14.944495
11
465.800829
21
14.167593
0
LINE
8
boundary
62
5
39
2
10
465.800829
20
14.167593
11
471.589057
21
12.662345
0
LINE
8
boundary
62
5
39
2
10
471.589057
20
12.662345
11
480.567555
21
10.866762
0
LINE
8
boundary
62
5
39
2
10
480.567555
20
10.866762
11
485.837613
21
9.851033
0
LINE
8
boundary
62
5
39
2
10
485.837613
20
9.851033
11
487.017450
21
9.506991
0
LINE
8
boundary
62
5
39
2
10
487.017450
20
9.506991
11
508.622331
21
6.932799
0
LINE
8
boundary
62
5
39
2
10
508.622331
20
6.932799
11
511.444627
21
6.767500
0
LINE
8
boundary
62
5
39
2
10
511.444627
20
6.767500
11
514.756090
21
7.064748
0
LINE
8
boundary
62
5
39
2
10
514.756090
20
7.064748
11
526.310016
21
9.806383
0
LINE
8
boundary
62
5
39
2
10
526.310016
20
9.806383
11
528.247003
21
11.075470
0
LINE
8
boundary
62
5
39
2
10
528.247003
20
11.075470
11
535.530061
21
14.035327
0
LINE
8
boundary
62
5
39
2
10
535.530061
20
14.035327
11
535.599634
21
14.168615
0
LINE
8
boundary
62
5
39
2
10
535.599634
20
14.168615
11
471.158331
21
53.644863
0
LINE
8
boundary
62
5
39
2
10
471.158331
20
53.644863
11
471.145090
21
53.630535
0
LINE
8
boundary
62
5
39
2
10
471.145090
20
53.630535
11
471.127375
21
53.622364
0
LINE
8
boundary
62
5
39
2
10
471.127375
20
53.622364
11
471.107881
21
53.621595
0
LINE
8
boundary
62
5
39
2
10
471.107881
20
53.621595
11
471.089577
21
53.628345
0
LINE
8
boundary
62
5
39
2
10
471.089577
20
53.628345
11
471.075249
21
53.641586
0
LINE
8
boundary
62
5
39
2
10
471.075249
20
53.641586
11
471.067078
21
53.659302
0
LINE
8
boundary
62
5
39
2
10
471.067078
20
53.659302
11
471.066310
21
53.678795
0
LINE
8
boundary
62
5
39
2
10
471.066310
20
53.678795
11
471.073059
21
53.697100
0
LINE
8
boundary
62
5
39
2
10
471.073059
20
53.697100
11
472.507485
21
56.038667
0
LINE
8
boundary
62
5
39
2
10
472.507485
20
56.038667
11
472.520726
21
56.052995
0
LINE
8
boundary
62
5
39
2
10
472.520726
20
56.052995
11
472.538442
21
56.061165
0
LINE
8
boundary
62
5
39
2
10
472.538442
20
56.061165
11
472.557935
21
56.061934
0
LINE
8
boundary
62
5
39
2
10
472.557935
20
56.061934
11
472.576240
21
56.055185
0
LINE
8
boundary
62
5
39
2
10
472.576240
20
56.055185
11
472.590567
21
56.041944
0
LINE
8
boundary
62
5
39
2
10
472.590567
20
56.041944
11
472.598738
21
56.024228
0
LINE
8
boundary
62
5
39
2
10
472.598738
20
56.024228
11
472.599507
21
56.004735
0
LINE
8
boundary
62
5
39
2
10
472.599507
20
56.004735
11
472.592758
21
55.986430
0
LINE
8
boundary
62
5
39
2
10
472.592758
20
55.986430
11
537.434100
21
16.265121
0
LINE
8
boundary
62
5
39
2
10
537.434100
20
16.265121
11
537.521238
21
16.387649
0
LINE
8
boundary
62
5
39
2
10
537.521238
20
16.387649
11
537.781463
21
17.014548
0
LINE
8
boundary
62
5
39
2
10
537.781463
20
17.014548
11
542.045978
21
28.767938
0
LINE
8
boundary
62
5
39
2
10
542.045978
20
28.767938
11
546.023031
21
38.352695
0
LINE
8
boundary
62
5
39
2
10
546.023031
20
38.352695
11
552.162231
21
54.620346
0
LINE
8
boundary
62
5
39
2
10
552.162231
20
54.620346
11
553.792249
21
59.678890
0
LINE
8
boundary
62
5
39
2
10
553.792249
20
59.678890
11
504.896102
21
82.781310
0
LINE
8
boundary
62
5
39
2
10
504.896102
20
82.781310
11
504.884486
21
82.765636
0
LINE
8
boundary
62
5
39
2
10
504.884486
20
82.765636
11
504.867757
21
82.755599
0
LINE
8
boundary
62
5
39
2
10
504.867757
20
82.755599
11
504.848460
21
82.752729
0
LINE
8
boundary
62
5
39
2
10
504.848460
20
82.752729
11
504.829534
21
82.757462
0
LINE
8
boundary
62
5
39
2
10
504.829534
20
82.757462
11
504.813860
21
82.769077
0
LINE
8
boundary
62
5
39
2
10
504.813860
20
82.769077
11
504.803823
21
82.785807
0
LINE
8
boundary
62
5
39
2
10
504.803823
20
82.785807
11
504.800953
21
82.805103
0
LINE
8
boundary
62
5
39
2
10
504.800953
20
82.805103
11
504.805686
21
82.824030
0
LINE
8
boundary
62
5
39
2
10
504.805686
20
82.824030
11
505.978767
21
85.306850
0
LINE
8
boundary
62
5
39
2
10
505.978767
20
85.306850
11
505.990383
21
85.322524
0
LINE
8
boundary
62
5
39
2
10
505.990383
20
85.322524
11
506.007112
21
85.332561
0
LINE
8
boundary
62
5
39
2
10
506.007112
20
85.332561
11
506.026409
21
85.335431
0
LINE
8
boundary
62
5
39
2
10
506.026409
20
85.335431
11
506.045335
21
85.330698
0
LINE
8
boundary
62
5
39
2
10
506.045335
20
85.330698
11
506.061010
21
85.319083
0
LINE
8
boundary
62
5
39
2
10
506.061010
20
85.319083
11
506.071045
21
85.302353
0
LINE
8
boundary
62
5
39
2
10
506.071045
20
85.302353
11
506.073916
21
85.283057
0
LINE
8
boundary
62
5
39
2
10
506.073916
20
85.283057
11
506.069183
21
85.264130
0
LINE
8
boundary
62
5
39
2
10
506.069183
20
85.264130
11
554.614583
21
62.327432
0
LINE
8
boundary
62
5
39
2
10
554.614583
20
62.327432
11
554.687975
21
62.458655
0
LINE
8
boundary
62
5
39
2
10
554.687975
20
62.458655
11
557.080048
21
69.882134
0
LINE
8
boundary
62
5
39
2
10
557.080048
20
69.882134
11
555.920701
21
83.816068
0
LINE
8
boundary
62
5
39
2
10
555.920701
20
83.816068
11
555.848275
21
88.814673
0
LINE
8
boundary
62
5
39
2
10
555.848275
20
88.814673
11
552.520701
21
114.686555
0
LINE
8
boundary
62
5
39
2
10
552.520701
20
114.686555
11
552.752195
21
122.139117
0
LINE
8
boundary
62
5
39
2
10
552.752195
20
122.139117
11
549.702471
21
135.055350
0
LINE
8
boundary
62
5
39
2
10
549.702471
20
135.055350
11
546.206097
21
148.890791
0
LINE
8
boundary
62
5
39
2
10
546.206097
20
148.890791
11
534.235496
21
190.837106
0
LINE
8
boundary
62
5
39
2
10
534.235496
20
190.837106
11
533.724426
21
192.242304
0
LINE
8
boundary
62
5
39
2
10
533.724426
20
192.242304
11
533.149655
21
195.448263
0
LINE
8
boundary
62
5
39
2
10
533.149655
20
195.448263
11
526.846883
21
225.900882
0
LINE
8
boundary
62
5
39
2
10
526.846883
20
225.900882
11
527.905997
21
237.194411
0
LINE
8
boundary
62
5
39
2
10
527.905997
20
237.194411
11
529.930848
21
254.107007
0
LINE
8
boundary
62
5
39
2
10
529.930848
20
254.107007
11
527.998149
21
261.351161
0
LINE
8
boundary
62
5
39
2
10
527.998149
20
261.351161
11
524.707652
21
269.581362
0
LINE
8
boundary
62
5
39
2
10
524.707652
20
269.581362
11
523.947735
21
273.005204
0
LINE
8
boundary
62
5
39
2
10
523.947735
20
273.005204
11
460.812869
21
264.321213
0
LINE
8
boundary
62
5
39
2
10
460.812869
20
264.321213
11
460.811706
21
264.301739
0
LINE
8
boundary
62
5
39
2
10
460.811706
20
264.301739
11
460.803179
21
264.284192
0
LINE
8
boundary
62
5
39
2
10
460.803179
20
264.284192
11
460.788586
21
264.271244
0
LINE
8
boundary
62
5
39
2
10
460.788586
20
264.271244
11
460.770149
21
264.264866
0
LINE
8
boundary
62
5
39
2
10
460.770149
20
264.264866
11
460.750674
21
264.266030
0
LINE
8
boundary
62
5
39
2
10
460.750674
20
264.266030
11
460.733128
21
264.274557
0
LINE
8
boundary
62
5
39
2
10
460.733128
20
264.274557
11
460.720180
21
264.289150
0
LINE
8
boundary
62
5
39
2
10
460.720180
20
264.289150
11
460.713802
21
264.307587
0
LINE
8
boundary
62
5
39
2
10
460.713802
20
264.307587
11
460.339622
21
267.027974
0
LINE
8
boundary
62
5
39
2
10
460.339622
20
267.027974
11
460.340785
21
267.047448
0
LINE
8
boundary
62
5
39
2
10
460.340785
20
267.047448
11
460.349312
21
267.064995
0
LINE
8
boundary
62
5
39
2
10
460.349312
20
267.064995
11
460.363905
21
267.077943
0
LINE
8
boundary
62
5
39
2
10
460.363905
20
267.077943
11
460.382342
21
267.084320
0
LINE
8
boundary
62
5
39
2
10
460.382342
20
267.084320
11
460.401816
21
267.083158
0
LINE
8
boundary
62
5
39
2
10
460.401816
20
267.083158
11
460.419363
21
267.074630
0
LINE
8
boundary
62
5
39
2
10
460.419363
20
267.074630
11
460.432311
21
267.060038
0
LINE
8
boundary
62
5
39
2
10
460.432311
20
267.060038
11
460.438689
21
267.041600
0
LINE
8
boundary
62
5
39
2
10
460.438689
20
267.041600
11
523.328376
21
275.691868
0
LINE
8
boundary
62
5
39
2
10
523.328376
20
275.691868
11
523.318140
21
275.841872
0
LINE
8
boundary
62
5
39
2
10
523.318140
20
275.841872
11
521.968168
21
281.924238
0
LINE
8
boundary
62
5
39
2
10
521.968168
20
281.924238
11
518.645705
21
289.281913
0
LINE
8
boundary
62
5
39
2
10
518.645705
20
289.281913
11
509.825431
21
307.151685
0
LINE
8
boundary
62
5
39
2
10
509.825431
20
307.151685
11
504.116253
21
314.719071
0
LINE
8
boundary
62
5
39
2
10
504.116253
20
314.719071
11
501.097096
21
317.883058
0
LINE
8
boundary
62
5
39
2
10
501.097096
20
317.883058
11
497.925378
21
318.002628
0
LINE
8
boundary
62
5
39
2
10
497.925378
20
318.002628
11
481.023200
21
318.932876
0
LINE
8
boundary
62
5
39
2
10
481.023200
20
318.932876
11
473.111064
21
319.253990
0
LINE
8
boundary
62
5
39
2
10
473.111064
20
319.253990
11
468.637528
21
316.180881
0
LINE
8
boundary
62
5
39
2
10
468.637528
20
316.180881
11
455.819126
21
304.501506
0
LINE
8
boundary
62
5
39
2
10
455.819126
20
304.501506
11
452.646532
21
301.061064
0
LINE
8
boundary
62
5
39
2
10
452.646532
20
301.061064
11
449.053523
21
297.210638
0
LINE
8
boundary
62
5
39
2
10
449.053523
20
297.210638
11
436.336426
21
286.761200
0
LINE
8
boundary
62
5
39
2
10
436.336426
20
286.761200
11
433.648038
21
284.414552
0
LINE
8
boundary
62
5
39
2
10
433.648038
20
284.414552
11
421.942111
21
276.213109
0
LINE
8
boundary
62
5
39
2
10
421.942111
20
276.213109
11
419.772030
21
274.205590
0
LINE
8
boundary
62
5
39
2
10
419.772030
20
274.205590
11
411.777677
21
275.952018
0
LINE
8
boundary
62
5
39
2
10
411.777677
20
275.952018
11
405.339276
21
277.459807
0
LINE
8
boundary
62
5
39
2
10
405.339276
20
277.459807
11
401.064738
21
279.175411
0
LINE
8
boundary
62
5
39
2
10
401.064738
20
279.175411
11
395.177951
21
280.740627
0
LINE
8
boundary
62
5
39
2
10
395.177951
20
280.740627
11
376.757320
21
286.589084
0
LINE
8
boundary
62
5
39
2
10
376.757320
20
286.589084
11
372.337235
21
288.005342
0
LINE
8
boundary
62
5
39
2
10
372.337235
20
288.005342
11
366.641911
21
289.702581
0
LINE
8
boundary
62
5
39
2
10
366.641911
20
289.702581
11
356.493029
21
292.897690
0
LINE
8
boundary
62
5
39
2
10
356.493029
20
292.897690
11
352.129805
21
294.856207
0
LINE
8
boundary
62
5
39
2
10
352.129805
20
294.856207
11
349.732612
21
296.791467
0
LINE
8
boundary
62
5
39
2
10
349.732612
20
296.791467
11
338.293084
21
306.116247
0
LINE
8
boundary
62
5
39
2
10
338.293084
20
306.116247
11
335.063056
21
309.515052
0
LINE
8
boundary
62
5
39
2
10
335.063056
20
309.515052
11
333.594459
21
314.997367
0
LINE
8
boundary
62
5
39
2
10
333.594459
20
314.997367
11
333.061888
21
321.422323
0
LINE
8
boundary
62
5
39
2
10
333.061888
20
321.422323
11
332.251349
21
323.807857
0
LINE
8
boundary
62
5
39
2
10
332.251349
20
323.807857
11
329.726405
21
331.281417
0
LINE
8
boundary
62
5
39
2
10
329.726405
20
331.281417
11
328.951530
21
324.427032
0
LINE
8
boundary
62
5
39
2
10
328.951530
20
324.427032
11
328.509075
21
320.840576
0
LINE
8
boundary
62
5
39
2
10
328.509075
20
320.840576
11
328.535165
21
318.146026
0
LINE
8
boundary
62
5
39
2
10
328.535165
20
318.146026
11
328.237112
21
306.354201
0
LINE
8
boundary
62
5
39
2
10
328.237112
20
306.354201
11
329.471465
21
303.849360
0
LINE
8
boundary
62
5
39
2
10
329.471465
20
303.849360
11
333.327072
21
298.301262
0
LINE
8
boundary
62
5
39
2
10
333.327072
20
298.301262
11
338.113692
21
293.487125
0
LINE
8
boundary
62
5
39
2
10
338.113692
20
293.487125
11
340.913128
21
290.976968
0
LINE
8
boundary
62
5
39
2
10
340.913128
20
290.976968
11
348.847654
21
284.377905
0
LINE
8
boundary
62
5
39
2
10
348.847654
20
284.377905
11
354.014536
21
280.269081
0
LINE
8
boundary
62
5
39
2
10
354.014536
20
280.269081
11
362.386859
21
275.584842
0
LINE
8
boundary
62
5
39
2
10
362.386859
20
275.584842
11
383.772225
21
264.360105
0
LINE
8
boundary
62
5
39
2
10
383.772225
20
264.360105
11
388.378698
21
261.672831
0
LINE
8
boundary
62
5
39
2
10
388.378698
20
261.672831
11
391.532013
21
259.993544
0
LINE
8
boundary
62
5
39
2
10
391.532013
20
259.993544
11
395.850895
21
257.637464
0
LINE
8
boundary
62
5
39
2
10
395.850895
20
257.637464
11
398.215277
21
256.273241
0
LINE
8
boundary
62
5
39
2
10
398.215277
20
256.273241
11
404.830300
21
252.901891
0
LINE
8
boundary
62
5
39
2
10
404.830300
20
252.901891
11
420.116881
21
245.155480
0
LINE
8
boundary
62
5
39
2
10
420.116881
20
245.155480
11
422.759264
21
244.219973
0
LINE
8
boundary
62
5
39
2
10
422.759264
20
244.219973
11
434.424751
21
240.559736
0
LINE
8
boundary
62
5
39
2
10
434.424751
20
240.559736
11
436.097783
21
240.391313
0
LINE
8
boundary
62
5
39
2
10
436.097783
20
240.391313
11
440.888145
21
239.104892
0
LINE
8
boundary
62
5
39
2
10
440.888145
20
239.104892
11
446.912641
21
237.433956
0
LINE
8
boundary
62
5
39
2
10
446.912641
20
237.433956
11
452.102711
21
233.903673
0
LINE
8
boundary
62
5
39
2
10
452.102711
20
233.903673
11
451.965945
21
235.732025
0
LINE
8
boundary
62
5
39
2
10
451.965945
20
235.732025
11
452.749261
21
237.893772
0
LINE
8
boundary
62
5
39
2
10
452.749261
20
237.893772
11
452.900877
21
238.773117
0
LINE
8
boundary
62
5
39
2
10
452.900877
20
238.773117
11
454.245555
21
242.793991
0
LINE
8
boundary
62
5
39
2
10
454.245555
20
242.793991
11
454.083953
21
241.755977
0
LINE
8
boundary
62
5
39
2
10
454.083953
20
241.755977
11
456.657888
21
234.281214
0
LINE
8
boundary
62
5
39
2
10
456.657888
20
234.281214
11
456.795069
21
232.508720
0
LINE
8
boundary
62
5
39
2
10
456.795069
20
232.508720
11
464.810904
21
227.622056
0
LINE
8
boundary
62
5
39
2
10
464.810904
20
227.622056
11
465.546428
21
223.183575
0
LINE
8
boundary
62
5
39
2
10
465.546428
20
223.183575
11
463.151264
21
222.444881
0
LINE
8
boundary
62
5
39
2
10
463.151264
20
222.444881
11
471.929160
21
206.174929
0
LINE
8
boundary
62
5
39
2
10
471.929160
20
206.174929
11
472.779249
21
200.414298
0
LINE
8
boundary
62
5
39
2
10
472.779249
20
200.414298
11
473.090420
21
176.292292
0
LINE
8
boundary
62
5
39
2
10
473.090420
20
176.292292
11
473.670214
21
172.973626
0
LINE
8
boundary
62
5
39
2
10
473.670214
20
172.973626
11
473.069815
21
172.106407
0
LINE
8
boundary
62
5
39
2
10
473.069815
20
172.106407
11
472.295037
21
171.456942
0
LINE
8
boundary
62
5
39
2
10
472.295037
20
171.456942
11
459.634576
21
157.133812
0
LINE
8
boundary
62
5
39
2
10
459.634576
20
157.133812
11
458.373410
21
155.691747
0
LINE
8
boundary
62
5
39
2
10
458.373410
20
155.691747
11
458.423679
21
155.494664
0
LINE
8
boundary
62
5
39
2
10
458.423679
20
155.494664
11
458.525454
21
155.357910
0
LINE
8
boundary
62
5
39
2
10
458.525454
20
155.357910
11
467.878154
21
145.195103
0
LINE
8
boundary
62
5
39
2
10
467.878154
20
145.195103
11
471.092832
21
139.339478
0
LINE
8
boundary
62
5
39
2
10
471.092832
20
139.339478
11
475.717518
21
133.030259
0
LINE
8
boundary
62
5
39
2
10
475.717518
20
133.030259
11
467.841204
21
121.187206
0
LINE
8
boundary
62
5
39
2
10
467.841204
20
121.187206
11
466.204334
21
118.592253
0
LINE
8
boundary
62
5
39
2
10
466.204334
20
118.592253
11
460.906034
21
112.025883
0
LINE
8
boundary
62
5
39
2
10
460.906034
20
112.025883
11
459.746367
21
109.521790
0
LINE
8
boundary
62
5
39
2
10
459.746367
20
109.521790
11
454.857278
21
105.801955
0
LINE
8
boundary
62
5
39
2
10
454.857278
20
105.801955
11
448.676403
21
100.821781
0
LINE
8
boundary
62
5
39
2
10
448.676403
20
100.821781
11
436.769151
21
100.995449
0
LINE
8
boundary
62
5
39
2
10
436.769151
20
100.995449
11
432.776139
21
102.455481
0
LINE
8
boundary
62
5
39
2
10
432.776139
20
102.455481
11
424.074287
21
109.717249
0
LINE
8
boundary
62
5
39
2
10
424.074287
20
109.717249
11
422.737053
21
110.966647
0
LINE
8
boundary
62
5
39
2
10
422.737053
20
110.966647
11
420.312899
21
113.859875
0
LINE
8
boundary
62
5
39
2
10
420.312899
20
113.859875
11
417.929001
21
115.681391
0
LINE
8
boundary
62
5
39
2
10
417.929001
20
115.681391
11
414.221861
21
114.589218
0
LINE
8
boundary
62
5
39
2
10
414.221861
20
114.589218
11
411.658706
21
112.294571
0
LINE
8
boundary
62
5
39
2
10
411.658706
20
112.294571
11
411.244918
21
111.431720
0
LINE
8
boundary
62
5
39
2
10
411.244918
20
111.431720
11
408.650658
21
106.085210
0
LINE
8
boundary
62
5
39
2
10
408.650658
20
106.085210
11
406.499216
21
99.665479
0
LINE
8
boundary
62
5
39
2
10
406.499216
20
99.665479
11
407.117726
21
96.546283
0
LINE
8
boundary
62
5
39
2
10
407.117726
20
96.546283
11
407.501263
21
91.122117
0
LINE
8
boundary
62
5
39
2
10
407.501263
20
91.122117
11
407.983536
21
79.440018
0
LINE
8
annotation
62
1
39
211
10
465.766558
20
55.743439
11
468.273931
21
59.836492
0
LINE
8
annotation
62
1
39
211
10
468.273931
20
59.836492
11
466.806415
21
59.483718
0
LINE
8
annotation
62
1
39
211
10
499.790354
20
84.057765
11
497.862872
21
84.968460
0
LINE
8
annotation
62
1
39
211
10
497.862872
20
84.968460
11
500.998655
21
86.994220
0
LINE
8
annotation
62
1
39
211
10
500.998655
20
86.994220
11
500.998655
21
86.994220
0
LINE
8
annotation
62
1
39
211
10
500.998655
20
86.994220
11
501.002028
21
86.995848
0
LINE
8
annotation
62
1
39
211
10
501.002028
20
86.995848
11
501.005326
21
86.997541
0
LINE
8
annotation
62
1
39
211
10
501.005326
20
86.997541
11
501.008570
21
86.999313
0
LINE
8
annotation
62
1
39
211
10
501.008570
20
86.999313
11
501.011786
21
87.001181
0
LINE
8
annotation
62
1
39
211
10
501.011786
20
87.001181
11
501.014997
21
87.003160
0
LINE
8
annotation
62
1
39
211
10
501.014997
20
87.003160
11
501.018227
21
87.005268
0
LINE
8
annotation
62
1
39
211
10
501.018227
20
87.005268
11
501.021501
21
87.007519
0
LINE
8
annotation
62
1
39
211
10
501.021501
20
87.007519
11
501.024842
21
87.009931
0
LINE
8
annotation
62
1
39
211
10
501.024842
20
87.009931
11
501.028274
21
87.012518
0
LINE
8
annotation
62
1
39
211
10
501.028274
20
87.012518
11
501.028274
21
87.012518
0
LINE
8
annotation
62
1
39
211
10
501.028274
20
87.012518
11
501.176416
21
87.135668
0
LINE
8
annotation
62
1
39
211
10
501.176416
20
87.135668
11
501.296708
21
87.279042
0
LINE
8
annotation
62
1
39
211
10
501.296708
20
87.279042
11
501.388457
21
87.438446
0
LINE
8
annotation
62
1
39
211
10
501.388457
20
87.438446
11
501.450966
21
87.609683
0
LINE
8
annotation
62
1
39
211
10
501.450966
20
87.609683
11
501.483543
21
87.788558
0
LINE
8
annotation
62
1
39
211
10
501.483543
20
87.788558
11
501.485492
21
87.970875
0
LINE
8
annotation
62
1
39
211
10
501.485492
20
87.970875
11
501.456119
21
88.152438
0
LINE
8
annotation
62
1
39
211
10
501.456119
20
88.152438
11
501.394730
21
88.329051
0
LINE
8
annotation
62
1
39
211
10
501.394730
20
88.329051
11
501.300628
21
88.496519
0
LINE
8
annotation
62
1
39
211
10
501.300628
20
88.496519
11
501.300628
21
88.496519
0
LINE
8
annotation
62
1
39
211
10
501.300628
20
88.496519
11
501.176546
21
88.643823
0
LINE
8
annotation
62
1
39
211
10
501.176546
20
88.643823
11
501.032608
21
88.763572
0
LINE
8
annotation
62
1
39
211
10
501.032608
20
88.763572
11
500.872929
21
88.854986
0
LINE
8
annotation
62
1
39
211
10
500.872929
20
88.854986
11
500.701623
21
88.917286
0
LINE
8
annotation
62
1
39
211
10
500.701623
20
88.917286
11
500.522804
21
88.949692
0
LINE
8
annotation
62
1
39
211
10
500.522804
20
88.949692
11
500.340588
21
88.951425
0
LINE
8
annotation
62
1
39
211
10
500.340588
20
88.951425
11
500.159089
21
88.921706
0
LINE
8
annotation
62
1
39
211
10
500.159089
20
88.921706
11
499.982421
21
88.859754
0
LINE
8
annotation
62
1
39
211
10
499.982421
20
88.859754
11
499.814699
21
88.764791
0
LINE
8
annotation
62
1
39
211
10
499.814699
20
88.764791
11
499.573437
21
88.581814
0
LINE
8
annotation
62
1
39
211
10
453.727321
20
262.310102
11
454.783277
21
262.455346
0
LINE
8
annotation
62
1
39
211
10
454.783277
20
262.455346
11
454.783277
21
262.455346
0
LINE
8
annotation
62
1
39
211
10
454.783277
20
262.455346
11
454.970850
21
262.498505
0
LINE
8
annotation
62
1
39
211
10
454.970850
20
262.498505
11
455.142800
21
262.572186
0
LINE
8
annotation
62
1
39
211
10
455.142800
20
262.572186
11
455.296571
21
262.672966
0
LINE
8
annotation
62
1
39
211
10
455.296571
20
262.672966
11
455.429605
21
262.797423
0
LINE
8
annotation
62
1
39
211
10
455.429605
20
262.797423
11
455.539344
21
262.942133
0
LINE
8
annotation
62
1
39
211
10
455.539344
20
262.942133
11
455.623230
21
263.103674
0
LINE
8
annotation
62
1
39
211
10
455.623230
20
263.103674
11
455.678705
21
263.278623
0
LINE
8
annotation
62
1
39
211
10
455.678705
20
263.278623
11
455.703213
21
263.463557
0
LINE
8
annotation
62
1
39
211
10
455.703213
20
263.463557
11
455.694194
21
263.655053
0
LINE
8
annotation
62
1
39
211
10
455.694194
20
263.655053
11
455.621470
21
264.183776
0
LINE
8
annotation
62
1
39
211
10
455.621470
20
264.183776
11
455.621470
21
264.183776
0
LINE
8
annotation
62
1
39
211
10
455.621470
20
264.183776
11
455.578463
21
264.370518
0
LINE
8
annotation
62
1
39
211
10
455.578463
20
264.370518
11
455.504942
21
264.541926
0
LINE
8
annotation
62
1
39
211
10
455.504942
20
264.541926
11
455.404295
21
264.695388
0
LINE
8
annotation
62
1
39
211
10
455.404295
20
264.695388
11
455.279909
21
264.828292
0
LINE
8
annotation
62
1
39
211
10
455.279909
20
264.828292
11
455.135173
21
264.938025
0
LINE
8
annotation
62
1
39
211
10
455.135173
20
264.938025
11
454.973473
21
265.021974
0
LINE
8
annotation
62
1
39
211
10
454.973473
20
265.021974
11
454.798199
21
265.077528
0
LINE
8
annotation
62
1
39
211
10
454.798199
20
265.077528
11
454.612737
21
265.102073
0
LINE
8
annotation
62
1
39
211
10
454.612737
20
265.102073
11
454.420477
21
265.092997
0
LINE
8
annotation
62
1
39
211
10
454.420477
20
265.092997
11
453.891753
21
265.020273
0
LINE
8
annotation
62
1
39
211
10
453.891753
20
265.020273
11
454.420477
21
265.092997
0
LINE
8
annotation
62
1
39
211
10
454.420477
20
265.092997
11
454.420477
21
265.092997
0
LINE
8
annotation
62
1
39
211
10
454.420477
20
265.092997
11
454.608047
21
265.136170
0
LINE
8
annotation
62
1
39
211
10
454.608047
20
265.136170
11
454.779991
21
265.209905
0
LINE
8
annotation
62
1
39
211
10
454.779991
20
265.209905
11
454.933747
21
265.310794
0
LINE
8
annotation
62
1
39
211
10
454.933747
20
265.310794
11
455.066756
21
265.435434
0
LINE
8
annotation
62
1
39
211
10
455.066756
20
265.435434
11
455.176457
21
265.580419
0
LINE
8
annotation
62
1
39
211
10
455.176457
20
265.580419
11
455.260290
21
265.742342
0
LINE
8
annotation
62
1
39
211
10
455.260290
20
265.742342
11
455.315696
21
265.917798
0
LINE
8
annotation
62
1
39
211
10
455.315696
20
265.917798
11
455.340114
21
266.103381
0
LINE
8
annotation
62
1
39
211
10
455.340114
20
266.103381
11
455.330984
21
266.295687
0
LINE
8
annotation
62
1
39
211
10
455.330984
20
266.295687
11
455.330984
21
266.295687
0
LINE
8
annotation
62
1
39
211
10
455.330984
20
266.295687
11
455.287977
21
266.482428
0
LINE
8
annotation
62
1
39
211
10
455.287977
20
266.482428
11
455.214456
21
266.653836
0
LINE
8
annotation
62
1
39
211
10
455.214456
20
266.653836
11
455.113809
21
266.807298
0
LINE
8
annotation
62
1
39
211
10
455.113809
20
266.807298
11
454.989423
21
266.940202
0
LINE
8
annotation
62
1
39
211
10
454.989423
20
266.940202
11
454.844686
21
267.049935
0
LINE
8
annotation
62
1
39
211
10
454.844686
20
267.049935
11
454.682987
21
267.133885
0
LINE
8
annotation
62
1
39
211
10
454.682987
20
267.133885
11
454.507713
21
267.189439
0
LINE
8
annotation
62
1
39
211
10
454.507713
20
267.189439
11
454.322251
21
267.213984
0
LINE
8
annotation
62
1
39
211
10
454.322251
20
267.213984
11
454.129990
21
267.204908
0
LINE
8
annotation
62
1
39
211
10
454.129990
20
267.204908
11
453.074035
21
267.059665
0
LINE
8
annotation
62
1
39
211
10
496.582259
20
168.253661
11
490.094914
21
168.253661
0
LINE
8
annotation
62
1
39
211
10
490.094914
20
168.253661
11
496.582259
21
179.937330
0
LINE
8
annotation
62
1
39
211
10
496.582259
20
179.937330
11
490.094914
21
179.937330
0
LINE
8
annotation
62
1
39
211
10
507.353165
20
174.095496
11
500.964735
21
174.095496
0
LINE
8
annotation
62
1
39
211
10
516.923321
20
168.253566
11
511.734324
21
168.253566
0
LINE
8
annotation
62
1
39
211
10
511.734324
20
168.253566
11
516.529127
21
175.972584
0
LINE
8
annotation
62
1
39
211
10
516.529127
20
175.972584
11
516.529127
21
175.972584
0
LINE
8
annotation
62
1
39
211
10
516.529127
20
175.972584
11
516.534859
21
175.979676
0
LINE
8
annotation
62
1
39
211
10
516.534859
20
175.979676
11
516.540356
21
175.986830
0
LINE
8
annotation
62
1
39
211
10
516.540356
20
175.986830
11
516.545654
21
175.994103
0
LINE
8
annotation
62
1
39
211
10
516.545654
20
175.994103
11
516.550789
21
176.001558
0
LINE
8
annotation
62
1
39
211
10
516.550789
20
176.001558
11
516.555797
21
176.009254
0
LINE
8
annotation
62
1
39
211
10
516.555797
20
176.009254
11
516.560715
21
176.017251
0
LINE
8
annotation
62
1
39
211
10
516.560715
20
176.017251
11
516.565578
21
176.025611
0
LINE
8
annotation
62
1
39
211
10
516.565578
20
176.025611
11
516.570424
21
176.034392
0
LINE
8
annotation
62
1
39
211
10
516.570424
20
176.034392
11
516.575287
21
176.043656
0
LINE
8
annotation
62
1
39
211
10
516.575287
20
176.043656
11
516.575287
21
176.043656
0
LINE
8
annotation
62
1
39
211
10
516.575287
20
176.043656
11
516.773264
21
176.468728
0
LINE
8
annotation
62
1
39
211
10
516.773264
20
176.468728
11
516.888918
21
176.909352
0
LINE
8
annotation
62
1
39
211
10
516.888918
20
176.909352
11
516.925085
21
177.355573
0
LINE
8
annotation
62
1
39
211
10
516.925085
20
177.355573
11
516.884598
21
177.797433
0
LINE
8
annotation
62
1
39
211
10
516.884598
20
177.797433
11
516.770293
21
178.224978
0
LINE
8
annotation
62
1
39
211
10
516.770293
20
178.224978
11
516.585002
21
178.628249
0
LINE
8
annotation
62
1
39
211
10
516.585002
20
178.628249
11
516.331562
21
178.997292
0
LINE
8
annotation
62
1
39
211
10
516.331562
20
178.997292
11
516.012805
21
179.322149
0
LINE
8
annotation
62
1
39
211
10
516.012805
20
179.322149
11
515.631567
21
179.592865
0
LINE
8
annotation
62
1
39
211
10
515.631567
20
179.592865
11
515.631567
21
179.592865
0
LINE
8
annotation
62
1
39
211
10
515.631567
20
179.592865
11
515.205313
21
179.788028
0
LINE
8
annotation
62
1
39
211
10
515.205313
20
179.788028
11
514.764013
21
179.901901
0
LINE
8
annotation
62
1
39
211
10
514.764013
20
179.901901
11
514.317533
21
179.937045
0
LINE
8
annotation
62
1
39
211
10
514.317533
20
179.937045
11
513.875739
21
179.896025
0
LINE
8
annotation
62
1
39
211
10
513.875739
20
179.896025
11
513.448496
21
179.781403
0
LINE
8
annotation
62
1
39
211
10
513.448496
20
179.781403
11
513.045671
21
179.595742
0
LINE
8
annotation
62
1
39
211
10
513.045671
20
179.595742
11
512.677129
21
179.341605
0
LINE
8
annotation
62
1
39
211
10
512.677129
20
179.341605
11
512.352736
21
179.021554
0
LINE
8
annotation
62
1
39
211
10
512.352736
20
179.021554
11
512.082357
21
178.638154
0
LINE
8
annotation
62
1
39
211
10
512.082357
20
178.638154
11
511.741651
21
177.984584
0
LINE
8
boundary
62
5
39
2
10
329.604708
20
350.145115
11
330.171878
21
347.858765
0
LINE
8
boundary
62
5
39
2
10
330.171878
20
347.858765
11
333.089418
21
346.468353
0
LINE
8
boundary
62
5
39
2
10
333.089418
20
346.468353
11
343.754522
21
343.922937
0
LINE
8
boundary
62
5
39
2
10
343.754522
20
343.922937
11
350.112620
21
342.141379
0
LINE
8
boundary
62
5
39
2
10
350.112620
20
342.141379
11
365.057147
21
338.952347
0
LINE
8
boundary
62
5
39
2
10
365.057147
20
338.952347
11
377.312368
21
336.017406
0
LINE
8
boundary
62
5
39
2
10
377.312368
20
336.017406
11
378.375357
21
336.288348
0
LINE
8
boundary
62
5
39
2
10
378.375357
20
336.288348
11
393.701746
21
334.656417
0
LINE
8
boundary
62
5
39
2
10
393.701746
20
334.656417
11
395.283618
21
334.883019
0
LINE
8
boundary
62
5
39
2
10
395.283618
20
334.883019
11
395.961398
21
334.957449
0
LINE
8
boundary
62
5
39
2
10
395.961398
20
334.957449
11
403.827222
21
343.035060
0
LINE
8
boundary
62
5
39
2
10
403.827222
20
343.035060
11
405.755844
21
346.281744
0
LINE
8
boundary
62
5
39
2
10
405.755844
20
346.281744
11
410.052617
21
354.216260
0
LINE
8
boundary
62
5
39
2
10
410.052617
20
354.216260
11
412.321150
21
358.783373
0
LINE
8
boundary
62
5
39
2
10
412.321150
20
358.783373
11
413.439591
21
360.676023
0
LINE
8
boundary
62
5
39
2
10
413.439591
20
360.676023
11
414.355568
21
362.225639
0
LINE
8
boundary
62
5
39
2
10
414.355568
20
362.225639
11
414.661320
21
363.152209
0
LINE
8
boundary
62
5
39
2
10
414.661320
20
363.152209
11
417.278764
21
366.533525
0
LINE
8
boundary
62
5
39
2
10
417.278764
20
366.533525
11
424.715584
21
379.247892
0
LINE
8
boundary
62
5
39
2
10
424.715584
20
379.247892
11
425.987139
21
381.256481
0
LINE
8
boundary
62
5
39
2
10
425.987139
20
381.256481
11
428.128437
21
380.855001
0
LINE
8
boundary
62
5
39
2
10
428.128437
20
380.855001
11
437.291997
21
368.231312
0
LINE
8
boundary
62
5
39
2
10
437.291997
20
368.231312
11
439.886294
21
364.097018
0
LINE
8
boundary
62
5
39
2
10
439.886294
20
364.097018
11
443.945173
21
358.160133
0
LINE
8
boundary
62
5
39
2
10
443.945173
20
358.160133
11
449.033621
21
351.240008
0
LINE
8
boundary
62
5
39
2
10
449.033621
20
351.240008
11
458.050530
21
349.759381
0
LINE
8
boundary
62
5
39
2
10
458.050530
20
349.759381
11
460.987139
21
348.552949
0
LINE
8
boundary
62
5
39
2
10
460.987139
20
348.552949
11
495.338309
21
340.805178
0
LINE
8
boundary
62
5
39
2
10
495.338309
20
340.805178
11
495.564275
21
340.761626
0
LINE
8
boundary
62
5
39
2
10
495.564275
20
340.761626
11
495.601081
21
340.750894
0
LINE
8
boundary
62
5
39
2
10
495.601081
20
340.750894
11
495.738185
21
340.742599
0
LINE
8
boundary
62
5
39
2
10
495.738185
20
340.742599
11
505.882628
21
344.819970
0
LINE
8
boundary
62
5
39
2
10
505.882628
20
344.819970
11
505.952201
21
344.953258
0
LINE
8
boundary
62
5
39
2
10
505.952201
20
344.953258
11
456.075477
21
375.507356
0
LINE
8
boundary
62
5
39
2
10
456.075477
20
375.507356
11
456.062236
21
375.493029
0
LINE
8
boundary
62
5
39
2
10
456.062236
20
375.493029
11
456.044520
21
375.484858
0
LINE
8
boundary
62
5
39
2
10
456.044520
20
375.484858
11
456.025026
21
375.484090
0
LINE
8
boundary
62
5
39
2
10
456.025026
20
375.484090
11
456.006722
21
375.490839
0
LINE
8
boundary
62
5
39
2
10
456.006722
20
375.490839
11
455.992394
21
375.504080
0
LINE
8
boundary
62
5
39
2
10
455.992394
20
375.504080
11
455.984224
21
375.521795
0
LINE
8
boundary
62
5
39
2
10
455.984224
20
375.521795
11
455.983455
21
375.541289
0
LINE
8
boundary
62
5
39
2
10
455.983455
20
375.541289
11
455.990205
21
375.559593
0
LINE
8
boundary
62
5
39
2
10
455.990205
20
375.559593
11
457.424631
21
377.901161
0
LINE
8
boundary
62
5
39
2
10
457.424631
20
377.901161
11
457.437872
21
377.915489
0
LINE
8
boundary
62
5
39
2
10
457.437872
20
377.915489
11
457.455587
21
377.923659
0
LINE
8
boundary
62
5
39
2
10
457.455587
20
377.923659
11
457.475081
21
377.924428
0
LINE
8
boundary
62
5
39
2
10
457.475081
20
377.924428
11
457.493385
21
377.917678
0
LINE
8
boundary
62
5
39
2
10
457.493385
20
377.917678
11
457.507713
21
377.904438
0
LINE
8
boundary
62
5
39
2
10
457.507713
20
377.904438
11
457.515884
21
377.886722
0
LINE
8
boundary
62
5
39
2
10
457.515884
20
377.886722
11
457.516653
21
377.867228
0
LINE
8
boundary
62
5
39
2
10
457.516653
20
377.867228
11
457.509903
21
377.848924
0
LINE
8
boundary
62
5
39
2
10
457.509903
20
377.848924
11
509.230202
21
346.165465
0
LINE
8
boundary
62
5
39
2
10
509.230202
20
346.165465
11
521.418068
21
351.064151
0
LINE
8
boundary
62
5
39
2
10
521.418068
20
351.064151
11
523.394262
21
352.141372
0
LINE
8
boundary
62
5
39
2
10
523.394262
20
352.141372
11
528.608610
21
357.998869
0
LINE
8
boundary
62
5
39
2
10
528.608610
20
357.998869
11
537.971403
21
368.270942
0
LINE
8
boundary
62
5
39
2
10
537.971403
20
368.270942
11
542.563050
21
373.496109
0
LINE
8
boundary
62
5
39
2
10
542.563050
20
373.496109
11
543.534127
21
376.980337
0
LINE
8
boundary
62
5
39
2
10
543.534127
20
376.980337
11
543.574984
21
377.126932
0
LINE
8
boundary
62
5
39
2
10
543.574984
20
377.126932
11
486.029472
21
404.315998
0
LINE
8
boundary
62
5
39
2
10
486.029472
20
404.315998
11
486.017857
21
404.300323
0
LINE
8
boundary
62
5
39
2
10
486.017857
20
404.300323
11
486.001128
21
404.290287
0
LINE
8
boundary
62
5
39
2
10
486.001128
20
404.290287
11
485.981831
21
404.287417
0
LINE
8
boundary
62
5
39
2
10
485.981831
20
404.287417
11
485.962905
21
404.292150
0
LINE
8
boundary
62
5
39
2
10
485.962905
20
404.292150
11
485.947230
21
404.303765
0
LINE
8
boundary
62
5
39
2
10
485.947230
20
404.303765
11
485.937194
21
404.320495
0
LINE
8
boundary
62
5
39
2
10
485.937194
20
404.320495
11
485.934323
21
404.339791
0
LINE
8
boundary
62
5
39
2
10
485.934323
20
404.339791
11
485.939056
21
404.358718
0
LINE
8
boundary
62
5
39
2
10
485.939056
20
404.358718
11
487.112138
21
406.841538
0
LINE
8
boundary
62
5
39
2
10
487.112138
20
406.841538
11
487.123753
21
406.857212
0
LINE
8
boundary
62
5
39
2
10
487.123753
20
406.857212
11
487.140482
21
406.867249
0
LINE
8
boundary
62
5
39
2
10
487.140482
20
406.867249
11
487.159779
21
406.870119
0
LINE
8
boundary
62
5
39
2
10
487.159779
20
406.870119
11
487.178705
21
406.865386
0
LINE
8
boundary
62
5
39
2
10
487.178705
20
406.865386
11
487.194380
21
406.853771
0
LINE
8
boundary
62
5
39
2
10
487.194380
20
406.853771
11
487.204416
21
406.837041
0
LINE
8
boundary
62
5
39
2
10
487.204416
20
406.837041
11
487.207286
21
406.817744
0
LINE
8
boundary
62
5
39
2
10
487.207286
20
406.817744
11
487.202554
21
406.798818
0
LINE
8
boundary
62
5
39
2
10
487.202554
20
406.798818
11
544.290408
21
379.825986
0
LINE
8
boundary
62
5
39
2
10
544.290408
20
379.825986
11
544.363800
21
379.957209
0
LINE
8
boundary
62
5
39
2
10
544.363800
20
379.957209
11
544.495049
21
380.428129
0
LINE
8
boundary
62
5
39
2
10
544.495049
20
380.428129
11
544.348546
21
382.381347
0
LINE
8
boundary
62
5
39
2
10
544.348546
20
382.381347
11
540.524977
21
404.254171
0
LINE
8
boundary
62
5
39
2
10
540.524977
20
404.254171
11
539.617860
21
410.664582
0
LINE
8
boundary
62
5
39
2
10
539.617860
20
410.664582
11
536.592581
21
424.755803
0
LINE
8
boundary
62
5
39
2
10
536.592581
20
424.755803
11
525.248610
21
429.849649
0
LINE
8
boundary
62
5
39
2
10
525.248610
20
429.849649
11
521.680720
21
431.345138
0
LINE
8
boundary
62
5
39
2
10
521.680720
20
431.345138
11
506.923111
21
437.437678
0
LINE
8
boundary
62
5
39
2
10
506.923111
20
437.437678
11
506.893080
21
437.472948
0
LINE
8
boundary
62
5
39
2
10
506.893080
20
437.472948
11
505.582629
21
438.198837
0
LINE
8
boundary
62
5
39
2
10
505.582629
20
438.198837
11
495.427124
21
443.908531
0
LINE
8
boundary
62
5
39
2
10
495.427124
20
443.908531
11
493.935601
21
444.092683
0
LINE
8
boundary
62
5
39
2
10
493.935601
20
444.092683
11
483.560840
21
441.264250
0
LINE
8
boundary
62
5
39
2
10
483.560840
20
441.264250
11
480.798879
21
439.465556
0
LINE
8
boundary
62
5
39
2
10
480.798879
20
439.465556
11
477.314592
21
438.058031
0
LINE
8
boundary
62
5
39
2
10
477.314592
20
438.058031
11
475.085579
21
438.484083
0
LINE
8
boundary
62
5
39
2
10
475.085579
20
438.484083
11
469.633231
21
439.115313
0
LINE
8
boundary
62
5
39
2
10
469.633231
20
439.115313
11
467.740495
21
439.534082
0
LINE
8
boundary
62
5
39
2
10
467.740495
20
439.534082
11
464.736156
21
440.517980
0
LINE
8
boundary
62
5
39
2
10
464.736156
20
440.517980
11
453.466741
21
440.672401
0
LINE
8
boundary
62
5
39
2
10
453.466741
20
440.672401
11
448.343140
21
439.989696
0
LINE
8
boundary
62
5
39
2
10
448.343140
20
439.989696
11
440.724570
21
436.668745
0
LINE
8
boundary
62
5
39
2
10
440.724570
20
436.668745
11
429.503679
21
433.218398
0
LINE
8
boundary
62
5
39
2
10
429.503679
20
433.218398
11
426.733382
21
432.305622
0
LINE
8
boundary
62
5
39
2
10
426.733382
20
432.305622
11
425.527630
21
431.886354
0
LINE
8
boundary
62
5
39
2
10
425.527630
20
431.886354
11
425.166358
21
431.797122
0
LINE
8
boundary
62
5
39
2
10
425.166358
20
431.797122
11
421.418766
21
430.234867
0
LINE
8
boundary
62
5
39
2
10
421.418766
20
430.234867
11
411.676498
21
426.172622
0
LINE
8
boundary
62
5
39
2
10
411.676498
20
426.172622
11
408.619103
21
420.260008
0
LINE
8
boundary
62
5
39
2
10
408.619103
20
420.260008
11
408.335785
21
419.667320
0
LINE
8
boundary
62
5
39
2
10
408.335785
20
419.667320
11
405.930827
21
412.430017
0
LINE
8
boundary
62
5
39
2
10
405.930827
20
412.430017
11
399.145194
21
391.558040
0
LINE
8
boundary
62
5
39
2
10
399.145194
20
391.558040
11
398.731809
21
390.213168
0
LINE
8
boundary
62
5
39
2
10
398.731809
20
390.213168
11
398.133442
21
388.136252
0
LINE
8
boundary
62
5
39
2
10
398.133442
20
388.136252
11
396.400395
21
383.380003
0
LINE
8
boundary
62
5
39
2
10
396.400395
20
383.380003
11
390.351048
21
363.709975
0
LINE
8
boundary
62
5
39
2
10
390.351048
20
363.709975
11
389.693171
21
360.901113
0
LINE
8
boundary
62
5
39
2
10
389.693171
20
360.901113
11
387.648230
21
355.854055
0
LINE
8
boundary
62
5
39
2
10
387.648230
20
355.854055
11
387.370585
21
352.105395
0
LINE
8
boundary
62
5
39
2
10
387.370585
20
352.105395
11
383.891807
21
352.618499
0
LINE
8
boundary
62
5
39
2
10
383.891807
20
352.618499
11
379.194312
21
353.009635
0
LINE
8
boundary
62
5
39
2
10
379.194312
20
353.009635
11
356.469330
21
355.448550
0
LINE
8
boundary
62
5
39
2
10
356.469330
20
355.448550
11
355.206857
21
355.540505
0
LINE
8
boundary
62
5
39
2
10
355.206857
20
355.540505
11
354.673366
21
355.666567
0
LINE
8
boundary
62
5
39
2
10
354.673366
20
355.666567
11
335.083536
21
358.226736
0
LINE
8
boundary
62
5
39
2
10
335.083536
20
358.226736
11
335.068574
21
358.263678
0
LINE
8
boundary
62
5
39
2
10
335.068574
20
358.263678
11
334.373361
21
362.058692
0
LINE
8
boundary
62
5
39
2
10
334.373361
20
362.058692
11
333.554345
21
365.630602
0
LINE
8
boundary
62
5
39
2
10
333.554345
20
365.630602
11
333.498501
21
370.828988
0
LINE
8
boundary
62
5
39
2
10
333.498501
20
370.828988
11
333.226939
21
375.439443
0
LINE
8
boundary
62
5
39
2
10
333.226939
20
375.439443
11
330.142661
21
379.403681
0
LINE
8
boundary
62
5
39
2
10
330.142661
20
379.403681
11
329.704815
21
379.849995
0
LINE
8
boundary
62
5
39
2
10
329.704815
20
379.849995
11
329.624432
21
379.064179
0
LINE
8
boundary
62
5
39
2
10
329.624432
20
379.064179
11
328.237112
21
363.778743
0
LINE
8
boundary
62
5
39
2
10
328.237112
20
363.778743
11
329.604708
21
350.145115
0
LINE
8
annotation
62
1
39
211
10
450.683704
20
377.605933
11
453.191077
21
381.698986
0
LINE
8
annotation
62
1
39
211
10
453.191077
20
381.698986
11
451.723560
21
381.346212
0
LINE
8
annotation
62
1
39
211
10
480.923724
20
405.592453
11
478.996243
21
406.503148
0
LINE
8
annotation
62
1
39
211
10
478.996243
20
406.503148
11
482.132025
21
408.528907
0
LINE
8
annotation
62
1
39
211
10
482.132025
20
408.528907
11
482.132025
21
408.528907
0
LINE
8
annotation
62
1
39
211
10
482.132025
20
408.528907
11
482.135399
21
408.530536
0
LINE
8
annotation
62
1
39
211
10
482.135399
20
408.530536
11
482.138696
21
408.532228
0
LINE
8
annotation
62
1
39
211
10
482.138696
20
408.532228
11
482.141941
21
408.534000
0
LINE
8
annotation
62
1
39
211
10
482.141941
20
408.534000
11
482.145156
21
408.535868
0
LINE
8
annotation
62
1
39
211
10
482.145156
20
408.535868
11
482.148367
21
408.537848
0
LINE
8
annotation
62
1
39
211
10
482.148367
20
408.537848
11
482.151598
21
408.539955
0
LINE
8
annotation
62
1
39
211
10
482.151598
20
408.539955
11
482.154871
21
408.542207
0
LINE
8
annotation
62
1
39
211
10
482.154871
20
408.542207
11
482.158212
21
408.544618
0
LINE
8
annotation
62
1
39
211
10
482.158212
20
408.544618
11
482.161645
21
408.547206
0
LINE
8
annotation
62
1
39
211
10
482.161645
20
408.547206
11
482.161645
21
408.547206
0
LINE
8
annotation
62
1
39
211
10
482.161645
20
408.547206
11
482.309786
21
408.670355
0
LINE
8
annotation
62
1
39
211
10
482.309786
20
408.670355
11
482.430079
21
408.813730
0
LINE
8
annotation
62
1
39
211
10
482.430079
20
408.813730
11
482.521827
21
408.973133
0
LINE
8
annotation
62
1
39
211
10
482.521827
20
408.973133
11
482.584337
21
409.144371
0
LINE
8
annotation
62
1
39
211
10
482.584337
20
409.144371
11
482.616914
21
409.323245
0
LINE
8
annotation
62
1
39
211
10
482.616914
20
409.323245
11
482.618863
21
409.505562
0
LINE
8
annotation
62
1
39
211
10
482.618863
20
409.505562
11
482.589490
21
409.687125
0
LINE
8
annotation
62
1
39
211
10
482.589490
20
409.687125
11
482.528100
21
409.863739
0
LINE
8
annotation
62
1
39
211
10
482.528100
20
409.863739
11
482.433999
21
410.031207
0
LINE
8
annotation
62
1
39
211
10
482.433999
20
410.031207
11
482.433999
21
410.031207
0
LINE
8
annotation
62
1
39
211
10
482.433999
20
410.031207
11
482.309917
21
410.178511
0
LINE
8
annotation
62
1
39
211
10
482.309917
20
410.178511
11
482.165979
21
410.298260
0
LINE
8
annotation
62
1
39
211
10
482.165979
20
410.298260
11
482.006299
21
410.389674
0
LINE
8
annotation
62
1
39
211
10
482.006299
20
410.389674
11
481.834993
21
410.451974
0
LINE
8
annotation
62
1
39
211
10
481.834993
20
410.451974
11
481.656175
21
410.484380
0
LINE
8
annotation
62
1
39
211
10
481.656175
20
410.484380
11
481.473959
21
410.486113
0
LINE
8
annotation
62
1
39
211
10
481.473959
20
410.486113
11
481.292459
21
410.456393
0
LINE
8
annotation
62
1
39
211
10
481.292459
20
410.456393
11
481.115791
21
410.394442
0
LINE
8
annotation
62
1
39
211
10
481.115791
20
410.394442
11
480.948069
21
410.299478
0
LINE
8
annotation
62
1
39
211
10
480.948069
20
410.299478
11
480.706807
21
410.116502
0
LINE
8
annotation
62
1
39
211
10
442.003133
20
391.212926
11
429.033520
21
391.212926
0
LINE
8
annotation
62
1
39
211
10
429.033520
20
391.212926
11
442.003133
21
414.571119
0
LINE
8
annotation
62
1
39
211
10
442.003133
20
414.571119
11
429.033520
21
414.571119
0
LINE
8
annotation
62
1
39
211
10
463.536512
20
402.892023
11
450.764652
21
402.892023
0
LINE
8
annotation
62
1
39
211
10
477.487195
20
391.212926
11
477.487195
21
414.571119
0
LINE
8
annotation
62
1
39
211
10
477.487195
20
414.571119
11
472.294370
21
409.376829
0
LINE
8
frame
62
5
39
2
10
0.000000
20
0.000000
11
600.000000
21
0.000000
0
LINE
8
frame
62
5
39
2
10
600.000000
20
0.000000
11
600.000000
21
500.000000
0
LINE
8
frame
62
5
39
2
10
600.000000
20
500.000000
11
0.000000
21
500.000000
0
LINE
8
frame
62
5
39
2
10
0.000000
20
500.000000
11
0.000000
21
0.000000
0
ENDSEC
0
EOF
