0
SECTION
2
HEADER
9
$ACADVER
1
AC1009
0
ENDSEC
0
SECTION
2
TABLES
0
TABLE
2
VPORT
70
1
0
VPORT
2
ACTIVE
70
0
10
0.0
20
0.0
11
0.0
21
0.0
12
0.0
22
0.0
13
0.0
23
0.0
14
0.0
24
0.0
15
0.0
25
0.0
16
0.0
26
0.0
36
0.0
17
0.0
27
0.0
37
0.0
40
0.0
41
0.0
42
0.0
43
0.0
44
0.0
50
0.0
51
0.0
71
0
72
1000
73
1
74
3
75
0
76
0
77
0
78
0
0
ENDTAB
0
ENDSEC
0
SECTION
2
ENTITIES
0
LINE
8
boundary
62
5
39
2
10
93.118490
20
60.313328
11
95.868956
21
57.801977
0
LINE
8
boundary
62
5
39
2
10
95.868956
20
57.801977
11
98.601571
21
62.741889
0
LINE
8
boundary
62
5
39
2
10
98.601571
20
62.741889
11
101.840561
21
68.240546
0
LINE
8
boundary
62
5
39
2
10
101.840561
20
68.240546
11
103.372398
21
69.424164
0
LINE
8
boundary
62
5
39
2
10
103.372398
20
69.424164
11
106.747028
21
71.364292
0
LINE
8
boundary
62
5
39
2
10
106.747028
20
71.364292
11
112.737677
21
59.919530
0
LINE
8
boundary
62
5
39
2
10
112.737677
20
59.919530
11
115.304907
21
56.340078
0
LINE
8
boundary
62
5
39
2
10
115.304907
20
56.340078
11
118.611324
21
51.502506
0
LINE
8
boundary
62
5
39
2
10
118.611324
20
51.502506
11
134.460839
21
28.526517
0
LINE
8
boundary
62
5
39
2
10
134.460839
20
28.526517
11
136.266667
21
26.148749
0
LINE
8
boundary
62
5
39
2
10
136.266667
20
26.148749
11
139.812031
21
21.157017
0
LINE
8
boundary
62
5
39
2
10
139.812031
20
21.157017
11
143.311436
21
15.600184
0
LINE
8
boundary
62
5
39
2
10
143.311436
20
15.600184
11
164.433405
21
10.432635
0
LINE
8
boundary
62
5
39
2
10
164.433405
20
10.432635
11
165.662297
21
10.216357
0
LINE
8
boundary
62
5
39
2
10
165.662297
20
10.216357
11
166.657039
21
9.977556
0
LINE
8
boundary
62
5
39
2
10
166.657039
20
9.977556
11
186.235790
21
7.133456
0
LINE
8
boundary
62
5
39
2
10
186.235790
20
7.133456
11
189.070241
21
6.767500
0
LINE
8
boundary
62
5
39
2
10
189.070241
20
6.767500
11
189.707613
21
6.835220
0
LINE
8
boundary
62
5
39
2
10
189.707613
20
6.835220
11
204.905357
21
10.292574
0
LINE
8
boundary
62
5
39
2
10
204.905357
20
10.292574
11
213.574067
21
14.532970
0
LINE
8
boundary
62
5
39
2
10
213.574067
20
14.532970
11
214.122122
21
14.900289
0
LINE
8
boundary
62
5
39
2
10
214.122122
20
14.900289
11
214.191694
21
15.033577
0
LINE
8
boundary
62
5
39
2
10
214.191694
20
15.033577
11
149.460396
21
54.687474
0
LINE
8
boundary
62
5
39
2
10
149.460396
20
54.687474
11
149.447155
21
54.673146
0
LINE
8
boundary
62
5
39
2
10
149.447155
20
54.673146
11
149.429440
21
54.664975
0
LINE
8
boundary
62
5
39
2
10
149.429440
20
54.664975
11
149.409946
21
54.664206
0
LINE
8
boundary
62
5
39
2
10
149.409946
20
54.664206
11
149.391641
21
54.670956
0
LINE
8
boundary
62
5
39
2
10
149.391641
20
54.670956
11
149.377314
21
54.684197
0
LINE
8
boundary
62
5
39
2
10
149.377314
20
54.684197
11
149.369143
21
54.701912
0
LINE
8
boundary
62
5
39
2
10
149.369143
20
54.701912
11
149.368374
21
54.721406
0
LINE
8
boundary
62
5
39
2
10
149.368374
20
54.721406
11
149.375124
21
54.739711
0
LINE
8
boundary
62
5
39
2
10
149.375124
20
54.739711
11
150.809550
21
57.081278
0
LINE
8
boundary
62
5
39
2
10
150.809550
20
57.081278
11
150.822791
21
57.095606
0
LINE
8
boundary
62
5
39
2
10
150.822791
20
57.095606
11
150.840507
21
57.103776
0
LINE
8
boundary
62
5
39
2
10
150.840507
20
57.103776
11
150.860001
21
57.104545
0
LINE
8
boundary
62
5
39
2
10
150.860001
20
57.104545
11
150.878305
21
57.097796
0
LINE
8
boundary
62
5
39
2
10
150.878305
20
57.097796
11
150.892633
21
57.084555
0
LINE
8
boundary
62
5
39
2
10
150.892633
20
57.084555
11
150.900803
21
57.066839
0
LINE
8
boundary
62
5
39
2
10
150.900803
20
57.066839
11
150.901572
21
57.047345
0
LINE
8
boundary
62
5
39
2
10
150.901572
20
57.047345
11
150.894823
21
57.029041
0
LINE
8
boundary
62
5
39
2
10
150.894823
20
57.029041
11
216.247375
21
16.994569
0
LINE
8
boundary
62
5
39
2
10
216.247375
20
16.994569
11
216.334513
21
17.117096
0
LINE
8
boundary
62
5
39
2
10
216.334513
20
17.117096
11
220.135674
21
26.689435
0
LINE
8
boundary
62
5
39
2
10
220.135674
20
26.689435
11
221.981284
21
32.966837
0
LINE
8
boundary
62
5
39
2
10
221.981284
20
32.966837
11
224.553624
21
38.793816
0
LINE
8
boundary
62
5
39
2
10
224.553624
20
38.793816
11
232.644089
21
60.386716
0
LINE
8
boundary
62
5
39
2
10
232.644089
20
60.386716
11
184.040360
21
83.350974
0
LINE
8
boundary
62
5
39
2
10
184.040360
20
83.350974
11
184.028745
21
83.335300
0
LINE
8
boundary
62
5
39
2
10
184.028745
20
83.335300
11
184.012015
21
83.325263
0
LINE
8
boundary
62
5
39
2
10
184.012015
20
83.325263
11
183.992719
21
83.322393
0
LINE
8
boundary
62
5
39
2
10
183.992719
20
83.322393
11
183.973792
21
83.327126
0
LINE
8
boundary
62
5
39
2
10
183.973792
20
83.327126
11
183.958118
21
83.338741
0
LINE
8
boundary
62
5
39
2
10
183.958118
20
83.338741
11
183.948081
21
83.355471
0
LINE
8
boundary
62
5
39
2
10
183.948081
20
83.355471
11
183.945211
21
83.374768
0
LINE
8
boundary
62
5
39
2
10
183.945211
20
83.374768
11
183.949944
21
83.393694
0
LINE
8
boundary
62
5
39
2
10
183.949944
20
83.393694
11
185.123026
21
85.876514
0
LINE
8
boundary
62
5
39
2
10
185.123026
20
85.876514
11
185.134640
21
85.892188
0
LINE
8
boundary
62
5
39
2
10
185.134640
20
85.892188
11
185.151370
21
85.902225
0
LINE
8
boundary
62
5
39
2
10
185.151370
20
85.902225
11
185.170667
21
85.905095
0
LINE
8
boundary
62
5
39
2
10
185.170667
20
85.905095
11
185.189593
21
85.900362
0
LINE
8
boundary
62
5
39
2
10
185.189593
20
85.900362
11
185.205267
21
85.888747
0
LINE
8
boundary
62
5
39
2
10
185.205267
20
85.888747
11
185.215304
21
85.872018
0
LINE
8
boundary
62
5
39
2
10
185.215304
20
85.872018
11
185.218174
21
85.852720
0
LINE
8
boundary
62
5
39
2
10
185.218174
20
85.852720
11
185.213441
21
85.833794
0
LINE
8
boundary
62
5
39
2
10
185.213441
20
85.833794
11
233.582297
21
62.980509
0
LINE
8
boundary
62
5
39
2
10
233.582297
20
62.980509
11
233.655689
21
63.111733
0
LINE
8
boundary
62
5
39
2
10
233.655689
20
63.111733
11
235.926793
21
69.313391
0
LINE
8
boundary
62
5
39
2
10
235.926793
20
69.313391
11
235.144412
21
79.932568
0
LINE
8
boundary
62
5
39
2
10
235.144412
20
79.932568
11
235.159919
21
82.729380
0
LINE
8
boundary
62
5
39
2
10
235.159919
20
82.729380
11
232.991213
21
113.677677
0
LINE
8
boundary
62
5
39
2
10
232.991213
20
113.677677
11
233.303525
21
122.485654
0
LINE
8
boundary
62
5
39
2
10
233.303525
20
122.485654
11
225.395063
21
149.552574
0
LINE
8
boundary
62
5
39
2
10
225.395063
20
149.552574
11
224.488914
21
152.677911
0
LINE
8
boundary
62
5
39
2
10
224.488914
20
152.677911
11
214.780522
21
186.955083
0
LINE
8
boundary
62
5
39
2
10
214.780522
20
186.955083
11
213.979133
21
188.768595
0
LINE
8
boundary
62
5
39
2
10
213.979133
20
188.768595
11
212.217995
21
197.233493
0
LINE
8
boundary
62
5
39
2
10
212.217995
20
197.233493
11
206.287463
21
223.069706
0
LINE
8
boundary
62
5
39
2
10
206.287463
20
223.069706
11
206.458760
21
231.689450
0
LINE
8
boundary
62
5
39
2
10
206.458760
20
231.689450
11
206.880414
21
242.673487
0
LINE
8
boundary
62
5
39
2
10
206.880414
20
242.673487
11
207.973065
21
249.567905
0
LINE
8
boundary
62
5
39
2
10
207.973065
20
249.567905
11
208.966228
21
266.457788
0
LINE
8
boundary
62
5
39
2
10
208.966228
20
266.457788
11
206.706743
21
271.653442
0
LINE
8
boundary
62
5
39
2
10
206.706743
20
271.653442
11
205.476224
21
273.938501
0
LINE
8
boundary
62
5
39
2
10
205.476224
20
273.938501
11
205.400311
21
274.079471
0
LINE
8
boundary
62
5
39
2
10
205.400311
20
274.079471
11
141.225776
21
265.252478
0
LINE
8
boundary
62
5
39
2
10
141.225776
20
265.252478
11
141.224613
21
265.233003
0
LINE
8
boundary
62
5
39
2
10
141.224613
20
265.233003
11
141.216086
21
265.215456
0
LINE
8
boundary
62
5
39
2
10
141.216086
20
265.215456
11
141.201493
21
265.202508
0
LINE
8
boundary
62
5
39
2
10
141.201493
20
265.202508
11
141.183055
21
265.196131
0
LINE
8
boundary
62
5
39
2
10
141.183055
20
265.196131
11
141.163581
21
265.197294
0
LINE
8
boundary
62
5
39
2
10
141.163581
20
265.197294
11
141.146034
21
265.205821
0
LINE
8
boundary
62
5
39
2
10
141.146034
20
265.205821
11
141.133086
21
265.220414
0
LINE
8
boundary
62
5
39
2
10
141.133086
20
265.220414
11
141.126708
21
265.238851
0
LINE
8
boundary
62
5
39
2
10
141.126708
20
265.238851
11
140.752528
21
267.959238
0
LINE
8
boundary
62
5
39
2
10
140.752528
20
267.959238
11
140.753691
21
267.978712
0
LINE
8
boundary
62
5
39
2
10
140.753691
20
267.978712
11
140.762219
21
267.996259
0
LINE
8
boundary
62
5
39
2
10
140.762219
20
267.996259
11
140.776812
21
268.009207
0
LINE
8
boundary
62
5
39
2
10
140.776812
20
268.009207
11
140.795249
21
268.015585
0
LINE
8
boundary
62
5
39
2
10
140.795249
20
268.015585
11
140.814723
21
268.014421
0
LINE
8
boundary
62
5
39
2
10
140.814723
20
268.014421
11
140.832270
21
268.005895
0
LINE
8
boundary
62
5
39
2
10
140.832270
20
268.005895
11
140.845218
21
267.991301
0
LINE
8
boundary
62
5
39
2
10
140.845218
20
267.991301
11
140.851596
21
267.972864
0
LINE
8
boundary
62
5
39
2
10
140.851596
20
267.972864
11
203.944907
21
276.651140
0
LINE
8
boundary
62
5
39
2
10
203.944907
20
276.651140
11
203.934672
21
276.801143
0
LINE
8
boundary
62
5
39
2
10
203.934672
20
276.801143
11
199.827706
21
284.427728
0
LINE
8
boundary
62
5
39
2
10
199.827706
20
284.427728
11
195.457492
21
291.211143
0
LINE
8
boundary
62
5
39
2
10
195.457492
20
291.211143
11
189.926292
21
304.774988
0
LINE
8
boundary
62
5
39
2
10
189.926292
20
304.774988
11
185.710761
21
314.620897
0
LINE
8
boundary
62
5
39
2
10
185.710761
20
314.620897
11
183.119647
21
318.328008
0
LINE
8
boundary
62
5
39
2
10
183.119647
20
318.328008
11
182.297449
21
318.835703
0
LINE
8
boundary
62
5
39
2
10
182.297449
20
318.835703
11
178.056402
21
318.620239
0
LINE
8
boundary
62
5
39
2
10
178.056402
20
318.620239
11
167.059821
21
319.690311
0
LINE
8
boundary
62
5
39
2
10
167.059821
20
319.690311
11
152.210828
21
319.945197
0
LINE
8
boundary
62
5
39
2
10
152.210828
20
319.945197
11
151.658216
21
319.971758
0
LINE
8
boundary
62
5
39
2
10
151.658216
20
319.971758
11
150.643522
21
319.068891
0
LINE
8
boundary
62
5
39
2
10
150.643522
20
319.068891
11
140.026702
21
309.993307
0
LINE
8
boundary
62
5
39
2
10
140.026702
20
309.993307
11
138.543654
21
308.452874
0
LINE
8
boundary
62
5
39
2
10
138.543654
20
308.452874
11
137.698481
21
307.606188
0
LINE
8
boundary
62
5
39
2
10
137.698481
20
307.606188
11
135.344350
21
305.208734
0
LINE
8
boundary
62
5
39
2
10
135.344350
20
305.208734
11
117.054179
21
289.301572
0
LINE
8
boundary
62
5
39
2
10
117.054179
20
289.301572
11
115.844628
21
288.083124
0
LINE
8
boundary
62
5
39
2
10
115.844628
20
288.083124
11
114.787070
21
287.210207
0
LINE
8
boundary
62
5
39
2
10
114.787070
20
287.210207
11
106.716297
21
281.109356
0
LINE
8
boundary
62
5
39
2
10
106.716297
20
281.109356
11
99.540973
21
275.570968
0
LINE
8
boundary
62
5
39
2
10
99.540973
20
275.570968
11
98.506077
21
274.737165
0
LINE
8
boundary
62
5
39
2
10
98.506077
20
274.737165
11
85.730028
21
278.203246
0
LINE
8
boundary
62
5
39
2
10
85.730028
20
278.203246
11
82.908355
21
278.837214
0
LINE
8
boundary
62
5
39
2
10
82.908355
20
278.837214
11
77.632090
21
280.493402
0
LINE
8
boundary
62
5
39
2
10
77.632090
20
280.493402
11
69.422293
21
282.722029
0
LINE
8
boundary
62
5
39
2
10
69.422293
20
282.722029
11
56.556478
21
286.083077
0
LINE
8
boundary
62
5
39
2
10
56.556478
20
286.083077
11
50.200143
21
288.180217
0
LINE
8
boundary
62
5
39
2
10
50.200143
20
288.180217
11
43.504335
21
290.520827
0
LINE
8
boundary
62
5
39
2
10
43.504335
20
290.520827
11
37.695753
21
292.461646
0
LINE
8
boundary
62
5
39
2
10
37.695753
20
292.461646
11
34.435061
21
292.967835
0
LINE
8
boundary
62
5
39
2
10
34.435061
20
292.967835
11
32.706499
21
294.136177
0
LINE
8
boundary
62
5
39
2
10
32.706499
20
294.136177
11
28.879608
21
297.849776
0
LINE
8
boundary
62
5
39
2
10
28.879608
20
297.849776
11
21.651573
21
303.659368
0
LINE
8
boundary
62
5
39
2
10
21.651573
20
303.659368
11
18.279287
21
307.110959
0
LINE
8
boundary
62
5
39
2
10
18.279287
20
307.110959
11
12.842393
21
312.407575
0
LINE
8
boundary
62
5
39
2
10
12.842393
20
312.407575
11
11.935724
21
320.293720
0
LINE
8
boundary
62
5
39
2
10
11.935724
20
320.293720
11
11.673385
21
323.303196
0
LINE
8
boundary
62
5
39
2
10
11.673385
20
323.303196
11
10.433871
21
325.540474
0
LINE
8
boundary
62
5
39
2
10
10.433871
20
325.540474
11
7.999431
21
330.197841
0
LINE
8
boundary
62
5
39
2
10
7.999431
20
330.197841
11
7.318309
21
323.063204
0
LINE
8
boundary
62
5
39
2
10
7.318309
20
323.063204
11
7.044139
21
318.562440
0
LINE
8
boundary
62
5
39
2
10
7.044139
20
318.562440
11
6.767500
21
316.302228
0
LINE
8
boundary
62
5
39
2
10
6.767500
20
316.302228
11
7.547496
21
306.649790
0
LINE
8
boundary
62
5
39
2
10
7.547496
20
306.649790
11
12.745541
21
299.133243
0
LINE
8
boundary
62
5
39
2
10
12.745541
20
299.133243
11
16.974676
21
295.529080
0
LINE
8
boundary
62
5
39
2
10
16.974676
20
295.529080
11
21.907613
21
291.235712
0
LINE
8
boundary
62
5
39
2
10
21.907613
20
291.235712
11
29.523398
21
283.557683
0
LINE
8
boundary
62
5
39
2
10
29.523398
20
283.557683
11
30.450912
21
282.821339
0
LINE
8
boundary
62
5
39
2
10
30.450912
20
282.821339
11
30.938625
21
282.529932
0
LINE
8
boundary
62
5
39
2
10
30.938625
20
282.529932
11
47.335096
21
273.679920
0
LINE
8
boundary
62
5
39
2
10
47.335096
20
273.679920
11
48.038762
21
273.183656
0
LINE
8
boundary
62
5
39
2
10
48.038762
20
273.183656
11
48.902445
21
272.673455
0
LINE
8
boundary
62
5
39
2
10
48.902445
20
272.673455
11
49.346317
21
272.441462
0
LINE
8
boundary
62
5
39
2
10
49.346317
20
272.441462
11
85.468554
21
253.068716
0
LINE
8
boundary
62
5
39
2
10
85.468554
20
253.068716
11
90.379693
21
249.993774
0
LINE
8
boundary
62
5
39
2
10
90.379693
20
249.993774
11
98.102177
21
246.301126
0
LINE
8
boundary
62
5
39
2
10
98.102177
20
246.301126
11
101.425563
21
244.829242
0
LINE
8
boundary
62
5
39
2
10
101.425563
20
244.829242
11
117.158689
21
239.947937
0
LINE
8
boundary
62
5
39
2
10
117.158689
20
239.947937
11
117.638563
21
240.372151
0
LINE
8
boundary
62
5
39
2
10
117.638563
20
240.372151
11
119.160904
21
239.772013
0
LINE
8
boundary
62
5
39
2
10
119.160904
20
239.772013
11
127.311996
21
240.223355
0
LINE
8
boundary
62
5
39
2
10
127.311996
20
240.223355
11
127.601385
21
241.936381
0
LINE
8
boundary
62
5
39
2
10
127.601385
20
241.936381
11
128.758804
21
246.831723
0
LINE
8
boundary
62
5
39
2
10
128.758804
20
246.831723
11
129.919516
21
240.266509
0
LINE
8
boundary
62
5
39
2
10
129.919516
20
240.266509
11
130.401077
21
239.296631
0
LINE
8
boundary
62
5
39
2
10
130.401077
20
239.296631
11
134.826907
21
233.401619
0
LINE
8
boundary
62
5
39
2
10
134.826907
20
233.401619
11
139.452197
21
231.649309
0
LINE
8
boundary
62
5
39
2
10
139.452197
20
231.649309
11
142.864550
21
227.993341
0
LINE
8
boundary
62
5
39
2
10
142.864550
20
227.993341
11
143.095239
21
227.836244
0
LINE
8
boundary
62
5
39
2
10
143.095239
20
227.836244
11
145.162134
21
220.261333
0
LINE
8
boundary
62
5
39
2
10
145.162134
20
220.261333
11
150.831473
21
202.626029
0
LINE
8
boundary
62
5
39
2
10
150.831473
20
202.626029
11
150.921245
21
197.677441
0
LINE
8
boundary
62
5
39
2
10
150.921245
20
197.677441
11
151.542771
21
184.267351
0
LINE
8
boundary
62
5
39
2
10
151.542771
20
184.267351
11
151.957346
21
173.394540
0
LINE
8
boundary
62
5
39
2
10
151.957346
20
173.394540
11
149.736199
21
171.258838
0
LINE
8
boundary
62
5
39
2
10
149.736199
20
171.258838
11
141.026311
21
161.101563
0
LINE
8
boundary
62
5
39
2
10
141.026311
20
161.101563
11
139.866754
21
154.970137
0
LINE
8
boundary
62
5
39
2
10
139.866754
20
154.970137
11
142.712075
21
149.124763
0
LINE
8
boundary
62
5
39
2
10
142.712075
20
149.124763
11
144.080762
21
147.307774
0
LINE
8
boundary
62
5
39
2
10
144.080762
20
147.307774
11
154.442166
21
133.656412
0
LINE
8
boundary
62
5
39
2
10
154.442166
20
133.656412
11
147.521370
21
123.532661
0
LINE
8
boundary
62
5
39
2
10
147.521370
20
123.532661
11
146.937503
21
122.364037
0
LINE
8
boundary
62
5
39
2
10
146.937503
20
122.364037
11
144.321054
21
118.652098
0
LINE
8
boundary
62
5
39
2
10
144.321054
20
118.652098
11
140.144589
21
113.503886
0
LINE
8
boundary
62
5
39
2
10
140.144589
20
113.503886
11
138.931600
21
110.075527
0
LINE
8
boundary
62
5
39
2
10
138.931600
20
110.075527
11
137.983631
21
108.766888
0
LINE
8
boundary
62
5
39
2
10
137.983631
20
108.766888
11
134.104643
21
105.986727
0
LINE
8
boundary
62
5
39
2
10
134.104643
20
105.986727
11
129.912362
21
104.154768
0
LINE
8
boundary
62
5
39
2
10
129.912362
20
104.154768
11
127.811572
21
103.257791
0
LINE
8
boundary
62
5
39
2
10
127.811572
20
103.257791
11
123.468097
21
107.313973
0
LINE
8
boundary
62
5
39
2
10
123.468097
20
107.313973
11
121.965818
21
108.333880
0
LINE
8
boundary
62
5
39
2
10
121.965818
20
108.333880
11
112.614569
21
106.550999
0
LINE
8
boundary
62
5
39
2
10
112.614569
20
106.550999
11
107.422801
21
103.982637
0
LINE
8
boundary
62
5
39
2
10
107.422801
20
103.982637
11
104.419149
21
107.732845
0
LINE
8
boundary
62
5
39
2
10
104.419149
20
107.732845
11
102.202606
21
108.738459
0
LINE
8
boundary
62
5
39
2
10
102.202606
20
108.738459
11
101.023725
21
110.146733
0
LINE
8
boundary
62
5
39
2
10
101.023725
20
110.146733
11
96.110536
21
115.797405
0
LINE
8
boundary
62
5
39
2
10
96.110536
20
115.797405
11
90.930842
21
113.433873
0
LINE
8
boundary
62
5
39
2
10
90.930842
20
113.433873
11
87.174524
21
105.368435
0
LINE
8
boundary
62
5
39
2
10
87.174524
20
105.368435
11
86.427529
21
103.362941
0
LINE
8
boundary
62
5
39
2
10
86.427529
20
103.362941
11
85.144520
21
98.708291
0
LINE
8
boundary
62
5
39
2
10
85.144520
20
98.708291
11
85.078623
21
94.208852
0
LINE
8
boundary
62
5
39
2
10
85.078623
20
94.208852
11
88.544601
21
75.646799
0
LINE
8
boundary
62
5
39
2
10
88.544601
20
75.646799
11
88.564608
21
75.502647
0
LINE
8
boundary
62
5
39
2
10
88.564608
20
75.502647
11
88.583521
21
75.416911
0
LINE
8
boundary
62
5
39
2
10
88.583521
20
75.416911
11
88.641242
21
75.328529
0
LINE
8
boundary
62
5
39
2
10
88.641242
20
75.328529
11
88.670190
21
75.182535
0
LINE
8
boundary
62
5
39
2
10
88.670190
20
75.182535
11
93.118490
21
60.313328
0
LINE
8
annotation
62
1
39
211
10
144.068624
20
56.786050
11
146.575996
21
60.879103
0
LINE
8
annotation
62
1
39
211
10
146.575996
20
60.879103
11
145.108480
21
60.526329
0
LINE
8
annotation
62
1
39
211
10
178.934612
20
84.627429
11
177.007130
21
85.538124
0
LINE
8
annotation
62
1
39
211
10
177.007130
20
85.538124
11
180.142913
21
87.563883
0
LINE
8
annotation
62
1
39
211
10
180.142913
20
87.563883
11
180.142913
21
87.563883
0
LINE
8
annotation
62
1
39
211
10
180.142913
20
87.563883
11
180.146287
21
87.565512
0
LINE
8
annotation
62
1
39
211
10
180.146287
20
87.565512
11
180.149584
21
87.567205
0
LINE
8
annotation
62
1
39
211
10
180.149584
20
87.567205
11
180.152828
21
87.568977
0
LINE
8
annotation
62
1
39
211
10
180.152828
20
87.568977
11
180.156044
21
87.570844
0
LINE
8
annotation
62
1
39
211
10
180.156044
20
87.570844
11
180.159255
21
87.572824
0
LINE
8
annotation
62
1
39
211
10
180.159255
20
87.572824
11
180.162485
21
87.574932
0
LINE
8
annotation
62
1
39
211
10
180.162485
20
87.574932
11
180.165759
21
87.577183
0
LINE
8
annotation
62
1
39
211
10
180.165759
20
87.577183
11
180.169100
21
87.579595
0
LINE
8
annotation
62
1
39
211
10
180.169100
20
87.579595
11
180.172533
21
87.582182
0
LINE
8
annotation
62
1
39
211
10
180.172533
20
87.582182
11
180.172533
21
87.582182
0
LINE
8
annotation
62
1
39
211
10
180.172533
20
87.582182
11
180.320674
21
87.705332
0
LINE
8
annotation
62
1
39
211
10
180.320674
20
87.705332
11
180.440966
21
87.848706
0
LINE
8
annotation
62
1
39
211
10
180.440966
20
87.848706
11
180.532715
21
88.008110
0
LINE
8
annotation
62
1
39
211
10
180.532715
20
88.008110
11
180.595225
21
88.179347
0
LINE
8
annotation
62
1
39
211
10
180.595225
20
88.179347
11
180.627801
21
88.358222
0
LINE
8
annotation
62
1
39
211
10
180.627801
20
88.358222
11
180.629750
21
88.540539
0
LINE
8
annotation
62
1
39
211
10
180.629750
20
88.540539
11
180.600377
21
88.722102
0
LINE
8
annotation
62
1
39
211
10
180.600377
20
88.722102
11
180.538988
21
88.898715
0
LINE
8
annotation
62
1
39
211
10
180.538988
20
88.898715
11
180.444887
21
89.066183
0
LINE
8
annotation
62
1
39
211
10
180.444887
20
89.066183
11
180.444887
21
89.066183
0
LINE
8
annotation
62
1
39
211
10
180.444887
20
89.066183
11
180.320804
21
89.213487
0
LINE
8
annotation
62
1
39
211
10
180.320804
20
89.213487
11
180.176866
21
89.333236
0
LINE
8
annotation
62
1
39
211
10
180.176866
20
89.333236
11
180.017187
21
89.424650
0
LINE
8
annotation
62
1
39
211
10
180.017187
20
89.424650
11
179.845881
21
89.486950
0
LINE
8
annotation
62
1
39
211
10
179.845881
20
89.486950
11
179.667062
21
89.519356
0
LINE
8
annotation
62
1
39
211
10
179.667062
20
89.519356
11
179.484846
21
89.521089
0
LINE
8
annotation
62
1
39
211
10
179.484846
20
89.521089
11
179.303347
21
89.491370
0
LINE
8
annotation
62
1
39
211
10
179.303347
20
89.491370
11
179.126679
21
89.429418
0
LINE
8
annotation
62
1
39
211
10
179.126679
20
89.429418
11
178.958957
21
89.334455
0
LINE
8
annotation
62
1
39
211
10
178.958957
20
89.334455
11
178.717695
21
89.151478
0
LINE
8
annotation
62
1
39
211
10
134.140228
20
263.241366
11
135.196184
21
263.386610
0
LINE
8
annotation
62
1
39
211
10
135.196184
20
263.386610
11
135.196184
21
263.386610
0
LINE
8
annotation
62
1
39
211
10
135.196184
20
263.386610
11
135.383756
21
263.429769
0
LINE
8
annotation
62
1
39
211
10
135.383756
20
263.429769
11
135.555707
21
263.503450
0
LINE
8
annotation
62
1
39
211
10
135.555707
20
263.503450
11
135.709478
21
263.604230
0
LINE
8
annotation
62
1
39
211
10
135.709478
20
263.604230
11
135.842512
21
263.728687
0
LINE
8
annotation
62
1
39
211
10
135.842512
20
263.728687
11
135.952251
21
263.873397
0
LINE
8
annotation
62
1
39
211
10
135.952251
20
263.873397
11
136.036137
21
264.034938
0
LINE
8
annotation
62
1
39
211
10
136.036137
20
264.034938
11
136.091612
21
264.209887
0
LINE
8
annotation
62
1
39
211
10
136.091612
20
264.209887
11
136.116119
21
264.394821
0
LINE
8
annotation
62
1
39
211
10
136.116119
20
264.394821
11
136.107101
21
264.586317
0
LINE
8
annotation
62
1
39
211
10
136.107101
20
264.586317
11
136.034377
21
265.115040
0
LINE
8
annotation
62
1
39
211
10
136.034377
20
265.115040
11
136.034377
21
265.115040
0
LINE
8
annotation
62
1
39
211
10
136.034377
20
265.115040
11
135.991370
21
265.301782
0
LINE
8
annotation
62
1
39
211
10
135.991370
20
265.301782
11
135.917849
21
265.473190
0
LINE
8
annotation
62
1
39
211
10
135.917849
20
265.473190
11
135.817202
21
265.626652
0
LINE
8
annotation
62
1
39
211
10
135.817202
20
265.626652
11
135.692816
21
265.759556
0
LINE
8
annotation
62
1
39
211
10
135.692816
20
265.759556
11
135.548079
21
265.869289
0
LINE
8
annotation
62
1
39
211
10
135.548079
20
265.869289
11
135.386380
21
265.953238
0
LINE
8
annotation
62
1
39
211
10
135.386380
20
265.953238
11
135.211106
21
266.008792
0
LINE
8
annotation
62
1
39
211
10
135.211106
20
266.008792
11
135.025644
21
266.033337
0
LINE
8
annotation
62
1
39
211
10
135.025644
20
266.033337
11
134.833383
21
266.024261
0
LINE
8
annotation
62
1
39
211
10
134.833383
20
266.024261
11
134.304660
21
265.951537
0
LINE
8
annotation
62
1
39
211
10
134.304660
20
265.951537
11
134.833383
21
266.024261
0
LINE
8
annotation
62
1
39
211
10
134.833383
20
266.024261
11
134.833383
21
266.024261
0
LINE
8
annotation
62
1
39
211
10
134.833383
20
266.024261
11
135.020954
21
266.067434
0
LINE
8
annotation
62
1
39
211
10
135.020954
20
266.067434
11
135.192898
21
266.141169
0
LINE
8
annotation
62
1
39
211
10
135.192898
20
266.141169
11
135.346654
21
266.242059
0
LINE
8
annotation
62
1
39
211
10
135.346654
20
266.242059
11
135.479662
21
266.366698
0
LINE
8
annotation
62
1
39
211
10
135.479662
20
266.366698
11
135.589363
21
266.511683
0
LINE
8
annotation
62
1
39
211
10
135.589363
20
266.511683
11
135.673197
21
266.673606
0
LINE
8
annotation
62
1
39
211
10
135.673197
20
266.673606
11
135.728602
21
266.849062
0
LINE
8
annotation
62
1
39
211
10
135.728602
20
266.849062
11
135.753020
21
267.034645
0
LINE
8
annotation
62
1
39
211
10
135.753020
20
267.034645
11
135.743890
21
267.226951
0
LINE
8
annotation
62
1
39
211
10
135.743890
20
267.226951
11
135.743890
21
267.226951
0
LINE
8
annotation
62
1
39
211
10
135.743890
20
267.226951
11
135.700884
21
267.413692
0
LINE
8
annotation
62
1
39
211
10
135.700884
20
267.413692
11
135.627363
21
267.585100
0
LINE
8
annotation
62
1
39
211
10
135.627363
20
267.585100
11
135.526715
21
267.738563
0
LINE
8
annotation
62
1
39
211
10
135.526715
20
267.738563
11
135.402329
21
267.871466
0
LINE
8
annotation
62
1
39
211
10
135.402329
20
267.871466
11
135.257593
21
267.981199
0
LINE
8
annotation
62
1
39
211
10
135.257593
20
267.981199
11
135.095894
21
268.065149
0
LINE
8
annotation
62
1
39
211
10
135.095894
20
268.065149
11
134.920619
21
268.120703
0
LINE
8
annotation
62
1
39
211
10
134.920619
20
268.120703
11
134.735158
21
268.145248
0
LINE
8
annotation
62
1
39
211
10
134.735158
20
268.145248
11
134.542897
21
268.136172
0
LINE
8
annotation
62
1
39
211
10
134.542897
20
268.136172
11
133.486942
21
267.990929
0
LINE
8
annotation
62
1
39
211
10
178.288536
20
101.242865
11
165.357169
21
101.242865
0
LINE
8
annotation
62
1
39
211
10
165.357169
20
101.242865
11
178.288536
21
124.532178
0
LINE
8
annotation
62
1
39
211
10
178.288536
20
124.532178
11
165.357169
21
124.532178
0
LINE
8
annotation
62
1
39
211
10
199.758418
20
112.887522
11
187.024220
21
112.887522
0
LINE
8
annotation
62
1
39
211
10
213.667962
20
101.242865
11
218.845475
21
124.532178
0
LINE
8
annotation
62
1
39
211
10
218.845475
20
124.532178
11
208.488989
21
124.532178
0
LINE
8
annotation
62
1
39
211
10
218.845475
20
114.161087
11
213.667962
21
114.161087
0
LINE
8
boundary
62
5
39
2
10
9.351399
20
344.801260
11
16.319495
21
342.670780
0
LINE
8
boundary
62
5
39
2
10
16.319495
20
342.670780
11
26.269743
21
342.067481
0
LINE
8
boundary
62
5
39
2
10
26.269743
20
342.067481
11
25.561296
21
340.211661
0
LINE
8
boundary
62
5
39
2
10
25.561296
20
340.211661
11
40.829763
21
337.349787
0
LINE
8
boundary
62
5
39
2
10
40.829763
20
337.349787
11
41.476465
21
337.419410
0
LINE
8
boundary
62
5
39
2
10
41.476465
20
337.419410
11
43.592855
21
336.741615
0
LINE
8
boundary
62
5
39
2
10
43.592855
20
336.741615
11
54.043006
21
334.166594
0
LINE
8
boundary
62
5
39
2
10
54.043006
20
334.166594
11
55.967306
21
333.697533
0
LINE
8
boundary
62
5
39
2
10
55.967306
20
333.697533
11
62.058535
21
333.572841
0
LINE
8
boundary
62
5
39
2
10
62.058535
20
333.572841
11
62.785163
21
335.416693
0
LINE
8
boundary
62
5
39
2
10
62.785163
20
335.416693
11
73.374098
21
336.357582
0
LINE
8
boundary
62
5
39
2
10
73.374098
20
336.357582
11
75.147564
21
338.015112
0
LINE
8
boundary
62
5
39
2
10
75.147564
20
338.015112
11
77.481355
21
340.881090
0
LINE
8
boundary
62
5
39
2
10
77.481355
20
340.881090
11
82.822655
21
341.983933
0
LINE
8
boundary
62
5
39
2
10
82.822655
20
341.983933
11
86.648833
21
348.600288
0
LINE
8
boundary
62
5
39
2
10
86.648833
20
348.600288
11
91.148763
21
356.729380
0
LINE
8
boundary
62
5
39
2
10
91.148763
20
356.729380
11
98.801400
21
370.825468
0
LINE
8
boundary
62
5
39
2
10
98.801400
20
370.825468
11
99.642561
21
372.446537
0
LINE
8
boundary
62
5
39
2
10
99.642561
20
372.446537
11
104.285762
21
379.053820
0
LINE
8
boundary
62
5
39
2
10
104.285762
20
379.053820
11
107.822918
21
378.669021
0
LINE
8
boundary
62
5
39
2
10
107.822918
20
378.669021
11
112.609707
21
371.029424
0
LINE
8
boundary
62
5
39
2
10
112.609707
20
371.029424
11
113.692448
21
367.908803
0
LINE
8
boundary
62
5
39
2
10
113.692448
20
367.908803
11
120.691187
21
357.821340
0
LINE
8
boundary
62
5
39
2
10
120.691187
20
357.821340
11
124.337675
21
353.263305
0
LINE
8
boundary
62
5
39
2
10
124.337675
20
353.263305
11
129.113254
21
348.435350
0
LINE
8
boundary
62
5
39
2
10
129.113254
20
348.435350
11
137.505626
21
347.093083
0
LINE
8
boundary
62
5
39
2
10
137.505626
20
347.093083
11
138.472048
21
347.009366
0
LINE
8
boundary
62
5
39
2
10
138.472048
20
347.009366
11
140.091397
21
346.922471
0
LINE
8
boundary
62
5
39
2
10
140.091397
20
346.922471
11
143.021274
21
346.843784
0
LINE
8
boundary
62
5
39
2
10
143.021274
20
346.843784
11
166.368152
21
342.168253
0
LINE
8
boundary
62
5
39
2
10
166.368152
20
342.168253
11
172.044978
21
341.212136
0
LINE
8
boundary
62
5
39
2
10
172.044978
20
341.212136
11
173.046487
21
341.078313
0
LINE
8
boundary
62
5
39
2
10
173.046487
20
341.078313
11
183.977943
21
342.651444
0
LINE
8
boundary
62
5
39
2
10
183.977943
20
342.651444
11
184.047516
21
342.784733
0
LINE
8
boundary
62
5
39
2
10
184.047516
20
342.784733
11
135.084249
21
372.779254
0
LINE
8
boundary
62
5
39
2
10
135.084249
20
372.779254
11
135.071009
21
372.764926
0
LINE
8
boundary
62
5
39
2
10
135.071009
20
372.764926
11
135.053293
21
372.756756
0
LINE
8
boundary
62
5
39
2
10
135.053293
20
372.756756
11
135.033799
21
372.755987
0
LINE
8
boundary
62
5
39
2
10
135.033799
20
372.755987
11
135.015495
21
372.762736
0
LINE
8
boundary
62
5
39
2
10
135.015495
20
372.762736
11
135.001167
21
372.775977
0
LINE
8
boundary
62
5
39
2
10
135.001167
20
372.775977
11
134.992996
21
372.793693
0
LINE
8
boundary
62
5
39
2
10
134.992996
20
372.793693
11
134.992228
21
372.813187
0
LINE
8
boundary
62
5
39
2
10
134.992228
20
372.813187
11
134.998978
21
372.831491
0
LINE
8
boundary
62
5
39
2
10
134.998978
20
372.831491
11
136.433404
21
375.173058
0
LINE
8
boundary
62
5
39
2
10
136.433404
20
375.173058
11
136.446644
21
375.187386
0
LINE
8
boundary
62
5
39
2
10
136.446644
20
375.187386
11
136.464360
21
375.195556
0
LINE
8
boundary
62
5
39
2
10
136.464360
20
375.195556
11
136.483854
21
375.196325
0
LINE
8
boundary
62
5
39
2
10
136.483854
20
375.196325
11
136.502158
21
375.189576
0
LINE
8
boundary
62
5
39
2
10
136.502158
20
375.189576
11
136.516486
21
375.176335
0
LINE
8
boundary
62
5
39
2
10
136.516486
20
375.176335
11
136.524656
21
375.158619
0
LINE
8
boundary
62
5
39
2
10
136.524656
20
375.158619
11
136.525425
21
375.139125
0
LINE
8
boundary
62
5
39
2
10
136.525425
20
375.139125
11
136.518675
21
375.120821
0
LINE
8
boundary
62
5
39
2
10
136.518675
20
375.120821
11
188.467288
21
343.297500
0
LINE
8
boundary
62
5
39
2
10
188.467288
20
343.297500
11
189.485418
21
343.444018
0
LINE
8
boundary
62
5
39
2
10
189.485418
20
343.444018
11
198.851799
21
352.527109
0
LINE
8
boundary
62
5
39
2
10
198.851799
20
352.527109
11
211.532899
21
362.579283
0
LINE
8
boundary
62
5
39
2
10
211.532899
20
362.579283
11
221.523578
21
374.199581
0
LINE
8
boundary
62
5
39
2
10
221.523578
20
374.199581
11
221.700931
21
374.711309
0
LINE
8
boundary
62
5
39
2
10
221.700931
20
374.711309
11
221.750338
21
374.853864
0
LINE
8
boundary
62
5
39
2
10
221.750338
20
374.853864
11
164.367601
21
401.966023
0
LINE
8
boundary
62
5
39
2
10
164.367601
20
401.966023
11
164.355985
21
401.950348
0
LINE
8
boundary
62
5
39
2
10
164.355985
20
401.950348
11
164.339256
21
401.940312
0
LINE
8
boundary
62
5
39
2
10
164.339256
20
401.940312
11
164.319959
21
401.937442
0
LINE
8
boundary
62
5
39
2
10
164.319959
20
401.937442
11
164.301033
21
401.942174
0
LINE
8
boundary
62
5
39
2
10
164.301033
20
401.942174
11
164.285358
21
401.953790
0
LINE
8
boundary
62
5
39
2
10
164.285358
20
401.953790
11
164.275322
21
401.970519
0
LINE
8
boundary
62
5
39
2
10
164.275322
20
401.970519
11
164.272452
21
401.989816
0
LINE
8
boundary
62
5
39
2
10
164.272452
20
401.989816
11
164.277185
21
402.008742
0
LINE
8
boundary
62
5
39
2
10
164.277185
20
402.008742
11
165.450266
21
404.491562
0
LINE
8
boundary
62
5
39
2
10
165.450266
20
404.491562
11
165.461881
21
404.507237
0
LINE
8
boundary
62
5
39
2
10
165.461881
20
404.507237
11
165.478610
21
404.517273
0
LINE
8
boundary
62
5
39
2
10
165.478610
20
404.517273
11
165.497908
21
404.520143
0
LINE
8
boundary
62
5
39
2
10
165.497908
20
404.520143
11
165.516833
21
404.515410
0
LINE
8
boundary
62
5
39
2
10
165.516833
20
404.515410
11
165.532508
21
404.503795
0
LINE
8
boundary
62
5
39
2
10
165.532508
20
404.503795
11
165.542544
21
404.487066
0
LINE
8
boundary
62
5
39
2
10
165.542544
20
404.487066
11
165.545415
21
404.467769
0
LINE
8
boundary
62
5
39
2
10
165.545415
20
404.467769
11
165.540682
21
404.448843
0
LINE
8
boundary
62
5
39
2
10
165.540682
20
404.448843
11
221.573438
21
377.974522
0
LINE
8
boundary
62
5
39
2
10
221.573438
20
377.974522
11
221.646831
21
378.105745
0
LINE
8
boundary
62
5
39
2
10
221.646831
20
378.105745
11
218.648349
21
399.617858
0
LINE
8
boundary
62
5
39
2
10
218.648349
20
399.617858
11
217.592131
21
405.349534
0
LINE
8
boundary
62
5
39
2
10
217.592131
20
405.349534
11
214.202084
21
421.387798
0
LINE
8
boundary
62
5
39
2
10
214.202084
20
421.387798
11
212.014708
21
422.874896
0
LINE
8
boundary
62
5
39
2
10
212.014708
20
422.874896
11
195.595262
21
429.076202
0
LINE
8
boundary
62
5
39
2
10
195.595262
20
429.076202
11
186.104737
21
434.741542
0
LINE
8
boundary
62
5
39
2
10
186.104737
20
434.741542
11
171.116001
21
439.853480
0
LINE
8
boundary
62
5
39
2
10
171.116001
20
439.853480
11
168.496601
21
440.653443
0
LINE
8
boundary
62
5
39
2
10
168.496601
20
440.653443
11
167.499951
21
439.238186
0
LINE
8
boundary
62
5
39
2
10
167.499951
20
439.238186
11
158.914482
21
438.223137
0
LINE
8
boundary
62
5
39
2
10
158.914482
20
438.223137
11
149.787326
21
438.321649
0
LINE
8
boundary
62
5
39
2
10
149.787326
20
438.321649
11
141.547210
21
438.857460
0
LINE
8
boundary
62
5
39
2
10
141.547210
20
438.857460
11
127.099007
21
437.412969
0
LINE
8
boundary
62
5
39
2
10
127.099007
20
437.412969
11
112.448215
21
432.561793
0
LINE
8
boundary
62
5
39
2
10
112.448215
20
432.561793
11
111.882357
21
432.398661
0
LINE
8
boundary
62
5
39
2
10
111.882357
20
432.398661
11
92.341930
21
424.506855
0
LINE
8
boundary
62
5
39
2
10
92.341930
20
424.506855
11
89.769068
21
423.189348
0
LINE
8
boundary
62
5
39
2
10
89.769068
20
423.189348
11
84.653912
21
409.955696
0
LINE
8
boundary
62
5
39
2
10
84.653912
20
409.955696
11
83.258924
21
405.004880
0
LINE
8
boundary
62
5
39
2
10
83.258924
20
405.004880
11
78.891964
21
392.746850
0
LINE
8
boundary
62
5
39
2
10
78.891964
20
392.746850
11
70.941548
21
368.341861
0
LINE
8
boundary
62
5
39
2
10
70.941548
20
368.341861
11
69.503132
21
363.095411
0
LINE
8
boundary
62
5
39
2
10
69.503132
20
363.095411
11
69.485154
21
357.585194
0
LINE
8
boundary
62
5
39
2
10
69.485154
20
357.585194
11
65.911623
21
349.536534
0
LINE
8
boundary
62
5
39
2
10
65.911623
20
349.536534
11
60.819335
21
350.177789
0
LINE
8
boundary
62
5
39
2
10
60.819335
20
350.177789
11
51.092592
21
350.971601
0
LINE
8
boundary
62
5
39
2
10
51.092592
20
350.971601
11
32.250027
21
353.040044
0
LINE
8
boundary
62
5
39
2
10
32.250027
20
353.040044
11
24.904818
21
353.746371
0
LINE
8
boundary
62
5
39
2
10
24.904818
20
353.746371
11
13.673922
21
355.887956
0
LINE
8
boundary
62
5
39
2
10
13.673922
20
355.887956
11
13.262204
21
359.026320
0
LINE
8
boundary
62
5
39
2
10
13.262204
20
359.026320
11
12.122490
21
370.908124
0
LINE
8
boundary
62
5
39
2
10
12.122490
20
370.908124
11
11.708133
21
371.377156
0
LINE
8
boundary
62
5
39
2
10
11.708133
20
371.377156
11
11.935857
21
372.281040
0
LINE
8
boundary
62
5
39
2
10
11.935857
20
372.281040
11
9.301942
21
376.386024
0
LINE
8
boundary
62
5
39
2
10
9.301942
20
376.386024
11
7.426027
21
376.918107
0
LINE
8
boundary
62
5
39
2
10
7.426027
20
376.918107
11
6.767500
21
371.239516
0
LINE
8
boundary
62
5
39
2
10
6.767500
20
371.239516
11
7.195738
21
365.432348
0
LINE
8
boundary
62
5
39
2
10
7.195738
20
365.432348
11
7.953292
21
358.047672
0
LINE
8
boundary
62
5
39
2
10
7.953292
20
358.047672
11
8.528280
21
346.831376
0
LINE
8
boundary
62
5
39
2
10
8.528280
20
346.831376
11
9.351399
21
344.801260
0
LINE
8
annotation
62
1
39
211
10
129.692477
20
374.877830
11
132.199850
21
378.970883
0
LINE
8
annotation
62
1
39
211
10
132.199850
20
378.970883
11
130.732333
21
378.618109
0
LINE
8
annotation
62
1
39
211
10
159.261852
20
403.242478
11
157.334371
21
404.153173
0
LINE
8
annotation
62
1
39
211
10
157.334371
20
404.153173
11
160.470153
21
406.178932
0
LINE
8
annotation
62
1
39
211
10
160.470153
20
406.178932
11
160.470153
21
406.178932
0
LINE
8
annotation
62
1
39
211
10
160.470153
20
406.178932
11
160.473527
21
406.180560
0
LINE
8
annotation
62
1
39
211
10
160.473527
20
406.180560
11
160.476824
21
406.182253
0
LINE
8
annotation
62
1
39
211
10
160.476824
20
406.182253
11
160.480069
21
406.184025
0
LINE
8
annotation
62
1
39
211
10
160.480069
20
406.184025
11
160.483285
21
406.185893
0
LINE
8
annotation
62
1
39
211
10
160.483285
20
406.185893
11
160.486496
21
406.187872
0
LINE
8
annotation
62
1
39
211
10
160.486496
20
406.187872
11
160.489726
21
406.189980
0
LINE
8
annotation
62
1
39
211
10
160.489726
20
406.189980
11
160.493000
21
406.192232
0
LINE
8
annotation
62
1
39
211
10
160.493000
20
406.192232
11
160.496341
21
406.194643
0
LINE
8
annotation
62
1
39
211
10
160.496341
20
406.194643
11
160.499773
21
406.197231
0
LINE
8
annotation
62
1
39
211
10
160.499773
20
406.197231
11
160.499773
21
406.197231
0
LINE
8
annotation
62
1
39
211
10
160.499773
20
406.197231
11
160.647915
21
406.320380
0
LINE
8
annotation
62
1
39
211
10
160.647915
20
406.320380
11
160.768207
21
406.463754
0
LINE
8
annotation
62
1
39
211
10
160.768207
20
406.463754
11
160.859955
21
406.623158
0
LINE
8
annotation
62
1
39
211
10
160.859955
20
406.623158
11
160.922465
21
406.794395
0
LINE
8
annotation
62
1
39
211
10
160.922465
20
406.794395
11
160.955042
21
406.973270
0
LINE
8
annotation
62
1
39
211
10
160.955042
20
406.973270
11
160.956991
21
407.155587
0
LINE
8
annotation
62
1
39
211
10
160.956991
20
407.155587
11
160.927618
21
407.337150
0
LINE
8
annotation
62
1
39
211
10
160.927618
20
407.337150
11
160.866228
21
407.513763
0
LINE
8
annotation
62
1
39
211
10
160.866228
20
407.513763
11
160.772127
21
407.681231
0
LINE
8
annotation
62
1
39
211
10
160.772127
20
407.681231
11
160.772127
21
407.681231
0
LINE
8
annotation
62
1
39
211
10
160.772127
20
407.681231
11
160.648045
21
407.828535
0
LINE
8
annotation
62
1
39
211
10
160.648045
20
407.828535
11
160.504107
21
407.948284
0
LINE
8
annotation
62
1
39
211
10
160.504107
20
407.948284
11
160.344428
21
408.039698
0
LINE
8
annotation
62
1
39
211
10
160.344428
20
408.039698
11
160.173121
21
408.101998
0
LINE
8
annotation
62
1
39
211
10
160.173121
20
408.101998
11
159.994303
21
408.134405
0
LINE
8
annotation
62
1
39
211
10
159.994303
20
408.134405
11
159.812087
21
408.136138
0
LINE
8
annotation
62
1
39
211
10
159.812087
20
408.136138
11
159.630587
21
408.106418
0
LINE
8
annotation
62
1
39
211
10
159.630587
20
408.106418
11
159.453919
21
408.044466
0
LINE
8
annotation
62
1
39
211
10
159.453919
20
408.044466
11
159.286197
21
407.949503
0
LINE
8
annotation
62
1
39
211
10
159.286197
20
407.949503
11
159.044935
21
407.766526
0
LINE
8
annotation
62
1
39
211
10
121.981811
20
396.178445
11
113.378558
21
396.178445
0
LINE
8
annotation
62
1
39
211
10
113.378558
20
396.178445
11
121.981811
21
411.672851
0
LINE
8
annotation
62
1
39
211
10
121.981811
20
411.672851
11
113.378558
21
411.672851
0
LINE
8
annotation
62
1
39
211
10
136.265747
20
403.925648
11
127.793671
21
403.925648
0
LINE
8
annotation
62
1
39
211
10
142.074691
20
399.613819
11
142.074691
21
399.613819
0
LINE
8
annotation
62
1
39
211
10
142.074691
20
399.613819
11
142.130242
21
398.995164
0
LINE
8
annotation
62
1
39
211
10
142.130242
20
398.995164
11
142.290359
21
398.413321
0
LINE
8
annotation
62
1
39
211
10
142.290359
20
398.413321
11
142.545236
21
397.877895
0
LINE
8
annotation
62
1
39
211
10
142.545236
20
397.877895
11
142.885069
21
397.398490
0
LINE
8
annotation
62
1
39
211
10
142.885069
20
397.398490
11
143.300054
21
396.984712
0
LINE
8
annotation
62
1
39
211
10
143.300054
20
396.984712
11
143.780385
21
396.646165
0
LINE
8
annotation
62
1
39
211
10
143.780385
20
396.646165
11
144.316258
21
396.392454
0
LINE
8
annotation
62
1
39
211
10
144.316258
20
396.392454
11
144.897867
21
396.233184
0
LINE
8
annotation
62
1
39
211
10
144.897867
20
396.233184
11
145.515409
21
396.177959
0
LINE
8
annotation
62
1
39
211
10
145.515409
20
396.177959
11
145.515409
21
396.177959
0
LINE
8
annotation
62
1
39
211
10
145.515409
20
396.177959
11
146.132951
21
396.233184
0
LINE
8
annotation
62
1
39
211
10
146.132951
20
396.233184
11
146.714561
21
396.392454
0
LINE
8
annotation
62
1
39
211
10
146.714561
20
396.392454
11
147.250433
21
396.646165
0
LINE
8
annotation
62
1
39
211
10
147.250433
20
396.646165
11
147.730765
21
396.984712
0
LINE
8
annotation
62
1
39
211
10
147.730765
20
396.984712
11
148.145749
21
397.398490
0
LINE
8
annotation
62
1
39
211
10
148.145749
20
397.398490
11
148.485582
21
397.877895
0
LINE
8
annotation
62
1
39
211
10
148.485582
20
397.877895
11
148.740460
21
398.413321
0
LINE
8
annotation
62
1
39
211
10
148.740460
20
398.413321
11
148.900576
21
398.995164
0
LINE
8
annotation
62
1
39
211
10
148.900576
20
398.995164
11
148.956127
21
399.613819
0
LINE
8
annotation
62
1
39
211
10
148.956127
20
399.613819
11
148.956127
21
401.327862
0
LINE
8
annotation
62
1
39
211
10
148.956127
20
401.327862
11
148.956127
21
401.327862
0
LINE
8
annotation
62
1
39
211
10
148.956127
20
401.327862
11
148.900608
21
401.946817
0
LINE
8
annotation
62
1
39
211
10
148.900608
20
401.946817
11
148.740572
21
402.529463
0
LINE
8
annotation
62
1
39
211
10
148.740572
20
402.529463
11
148.485798
21
403.066053
0
LINE
8
annotation
62
1
39
211
10
148.485798
20
403.066053
11
148.146069
21
403.546837
0
LINE
8
annotation
62
1
39
211
10
148.146069
20
403.546837
11
147.731164
21
403.962067
0
LINE
8
annotation
62
1
39
211
10
147.731164
20
403.962067
11
147.250865
21
404.301994
0
LINE
8
annotation
62
1
39
211
10
147.250865
20
404.301994
11
146.714953
21
404.556868
0
LINE
8
annotation
62
1
39
211
10
146.714953
20
404.556868
11
146.133207
21
404.716942
0
LINE
8
annotation
62
1
39
211
10
146.133207
20
404.716942
11
145.515409
21
404.772467
0
LINE
8
annotation
62
1
39
211
10
145.515409
20
404.772467
11
145.515409
21
404.772467
0
LINE
8
annotation
62
1
39
211
10
145.515409
20
404.772467
11
144.897612
21
404.716910
0
LINE
8
annotation
62
1
39
211
10
144.897612
20
404.716910
11
144.315866
21
404.556756
0
LINE
8
annotation
62
1
39
211
10
144.315866
20
404.556756
11
143.779953
21
404.301778
0
LINE
8
annotation
62
1
39
211
10
143.779953
20
404.301778
11
143.299654
21
403.961747
0
LINE
8
annotation
62
1
39
211
10
143.299654
20
403.961747
11
142.884750
21
403.546437
0
LINE
8
annotation
62
1
39
211
10
142.884750
20
403.546437
11
142.545020
21
403.065621
0
LINE
8
annotation
62
1
39
211
10
142.545020
20
403.065621
11
142.290247
21
402.529071
0
LINE
8
annotation
62
1
39
211
10
142.290247
20
402.529071
11
142.130210
21
401.946561
0
LINE
8
annotation
62
1
39
211
10
142.130210
20
401.946561
11
142.074691
21
401.327862
0
LINE
8
annotation
62
1
39
211
10
142.074691
20
401.327862
11
142.074691
21
399.613819
0
LINE
8
annotation
62
1
39
211
10
148.956127
20
408.218043
11
148.956127
21
408.218043
0
LINE
8
annotation
62
1
39
211
10
148.956127
20
408.218043
11
148.900608
21
408.834139
0
LINE
8
annotation
62
1
39
211
10
148.900608
20
408.834139
11
148.740572
21
409.414622
0
LINE
8
annotation
62
1
39
211
10
148.740572
20
409.414622
11
148.485798
21
409.949649
0
LINE
8
annotation
62
1
39
211
10
148.485798
20
409.949649
11
148.146069
21
410.429373
0
LINE
8
annotation
62
1
39
211
10
148.146069
20
410.429373
11
147.731164
21
410.843951
0
LINE
8
annotation
62
1
39
211
10
147.731164
20
410.843951
11
147.250865
21
411.183538
0
LINE
8
annotation
62
1
39
211
10
147.250865
20
411.183538
11
146.714953
21
411.438289
0
LINE
8
annotation
62
1
39
211
10
146.714953
20
411.438289
11
146.133207
21
411.598358
0
LINE
8
annotation
62
1
39
211
10
146.133207
20
411.598358
11
145.515409
21
411.653903
0
LINE
8
annotation
62
1
39
211
10
145.515409
20
411.653903
11
145.515409
21
411.653903
0
LINE
8
annotation
62
1
39
211
10
145.515409
20
411.653903
11
144.897612
21
411.598358
0
LINE
8
annotation
62
1
39
211
10
144.897612
20
411.598358
11
144.315866
21
411.438289
0
LINE
8
annotation
62
1
39
211
10
144.315866
20
411.438289
11
143.779953
21
411.183538
0
LINE
8
annotation
62
1
39
211
10
143.779953
20
411.183538
11
143.299654
21
410.843951
0
LINE
8
annotation
62
1
39
211
10
143.299654
20
410.843951
11
142.884750
21
410.429373
0
LINE
8
annotation
62
1
39
211
10
142.884750
20
410.429373
11
142.545020
21
409.949649
0
LINE
8
annotation
62
1
39
211
10
142.545020
20
409.949649
11
142.290247
21
409.414622
0
LINE
8
annotation
62
1
39
211
10
142.290247
20
409.414622
11
142.130210
21
408.834139
0
LINE
8
annotation
62
1
39
211
10
142.130210
20
408.834139
11
142.074691
21
408.218043
0
LINE
8
annotation
62
1
39
211
10
142.074691
20
408.218043
11
142.074691
21
408.218043
0
LINE
8
annotation
62
1
39
211
10
142.074691
20
408.218043
11
142.130242
21
407.599055
0
LINE
8
annotation
62
1
39
211
10
142.130242
20
407.599055
11
142.290359
21
407.016319
0
LINE
8
annotation
62
1
39
211
10
142.290359
20
407.016319
11
142.545236
21
406.479600
0
LINE
8
annotation
62
1
39
211
10
142.545236
20
406.479600
11
142.885069
21
405.998663
0
LINE
8
annotation
62
1
39
211
10
142.885069
20
405.998663
11
143.300054
21
405.583271
0
LINE
8
annotation
62
1
39
211
10
143.300054
20
405.583271
11
143.780385
21
405.243192
0
LINE
8
annotation
62
1
39
211
10
143.780385
20
405.243192
11
144.316258
21
404.988188
0
LINE
8
annotation
62
1
39
211
10
144.316258
20
404.988188
11
144.897867
21
404.828024
0
LINE
8
annotation
62
1
39
211
10
144.897867
20
404.828024
11
145.515409
21
404.772467
0
LINE
8
annotation
62
1
39
211
10
145.515409
20
404.772467
11
145.515409
21
404.772467
0
LINE
8
annotation
62
1
39
211
10
145.515409
20
404.772467
11
146.132951
21
404.828024
0
LINE
8
annotation
62
1
39
211
10
146.132951
20
404.828024
11
146.714561
21
404.988188
0
LINE
8
annotation
62
1
39
211
10
146.714561
20
404.988188
11
147.250433
21
405.243192
0
LINE
8
annotation
62
1
39
211
10
147.250433
20
405.243192
11
147.730765
21
405.583271
0
LINE
8
annotation
62
1
39
211
10
147.730765
20
405.583271
11
148.145749
21
405.998663
0
LINE
8
annotation
62
1
39
211
10
148.145749
20
405.998663
11
148.485582
21
406.479600
0
LINE
8
annotation
62
1
39
211
10
148.485582
20
406.479600
11
148.740460
21
407.016319
0
LINE
8
annotation
62
1
39
211
10
148.740460
20
407.016319
11
148.900576
21
407.599055
0
LINE
8
annotation
62
1
39
211
10
148.900576
20
407.599055
11
148.956127
21
408.218043
0
LINE
8
boundary
62
5
39
2
10
252.763209
20
63.019674
11
259.187210
21
43.650339
0
LINE
8
boundary
62
5
39
2
10
259.187210
20
43.650339
11
263.755164
21
32.457048
0
LINE
8
boundary
62
5
39
2
10
263.755164
20
32.457048
11
269.044356
21
17.926186
0
LINE
8
boundary
62
5
39
2
10
269.044356
20
17.926186
11
268.964913
21
17.376885
0
LINE
8
boundary
62
5
39
2
10
268.964913
20
17.376885
11
269.105721
21
17.012406
0
LINE
8
boundary
62
5
39
2
10
269.105721
20
17.012406
11
269.942305
21
15.963195
0
LINE
8
boundary
62
5
39
2
10
269.942305
20
15.963195
11
275.937168
21
9.601210
0
LINE
8
boundary
62
5
39
2
10
275.937168
20
9.601210
11
278.280833
21
8.082618
0
LINE
8
boundary
62
5
39
2
10
278.280833
20
8.082618
11
295.374327
21
6.998752
0
LINE
8
boundary
62
5
39
2
10
295.374327
20
6.998752
11
296.555266
21
6.961219
0
LINE
8
boundary
62
5
39
2
10
296.555266
20
6.961219
11
298.213115
21
6.767500
0
LINE
8
boundary
62
5
39
2
10
298.213115
20
6.767500
11
307.413594
21
7.637178
0
LINE
8
boundary
62
5
39
2
10
307.413594
20
7.637178
11
325.732991
21
14.005055
0
LINE
8
boundary
62
5
39
2
10
325.732991
20
14.005055
11
327.295382
21
14.635444
0
LINE
8
boundary
62
5
39
2
10
327.295382
20
14.635444
11
328.719818
21
15.306131
0
LINE
8
boundary
62
5
39
2
10
328.719818
20
15.306131
11
331.338889
21
16.884993
0
LINE
8
boundary
62
5
39
2
10
331.338889
20
16.884993
11
344.593889
21
25.592285
0
LINE
8
boundary
62
5
39
2
10
344.593889
20
25.592285
11
344.663461
21
25.725573
0
LINE
8
boundary
62
5
39
2
10
344.663461
20
25.725573
11
293.645348
21
56.978878
0
LINE
8
boundary
62
5
39
2
10
293.645348
20
56.978878
11
293.632107
21
56.964550
0
LINE
8
boundary
62
5
39
2
10
293.632107
20
56.964550
11
293.614391
21
56.956380
0
LINE
8
boundary
62
5
39
2
10
293.614391
20
56.956380
11
293.594897
21
56.955611
0
LINE
8
boundary
62
5
39
2
10
293.594897
20
56.955611
11
293.576593
21
56.962360
0
LINE
8
boundary
62
5
39
2
10
293.576593
20
56.962360
11
293.562265
21
56.975601
0
LINE
8
boundary
62
5
39
2
10
293.562265
20
56.975601
11
293.554094
21
56.993317
0
LINE
8
boundary
62
5
39
2
10
293.554094
20
56.993317
11
293.553326
21
57.012811
0
LINE
8
boundary
62
5
39
2
10
293.553326
20
57.012811
11
293.560076
21
57.031115
0
LINE
8
boundary
62
5
39
2
10
293.560076
20
57.031115
11
294.994502
21
59.372682
0
LINE
8
boundary
62
5
39
2
10
294.994502
20
59.372682
11
295.007742
21
59.387011
0
LINE
8
boundary
62
5
39
2
10
295.007742
20
59.387011
11
295.025458
21
59.395181
0
LINE
8
boundary
62
5
39
2
10
295.025458
20
59.395181
11
295.044952
21
59.395950
0
LINE
8
boundary
62
5
39
2
10
295.044952
20
59.395950
11
295.063256
21
59.389200
0
LINE
8
boundary
62
5
39
2
10
295.063256
20
59.389200
11
295.077584
21
59.375959
0
LINE
8
boundary
62
5
39
2
10
295.077584
20
59.375959
11
295.085754
21
59.358244
0
LINE
8
boundary
62
5
39
2
10
295.085754
20
59.358244
11
295.086523
21
59.338750
0
LINE
8
boundary
62
5
39
2
10
295.086523
20
59.338750
11
295.079773
21
59.320445
0
LINE
8
boundary
62
5
39
2
10
295.079773
20
59.320445
11
347.269114
21
27.349656
0
LINE
8
boundary
62
5
39
2
10
347.269114
20
27.349656
11
347.407679
21
27.440680
0
LINE
8
boundary
62
5
39
2
10
347.407679
20
27.440680
11
349.970266
21
29.124060
0
LINE
8
boundary
62
5
39
2
10
349.970266
20
29.124060
11
358.738024
21
47.247790
0
LINE
8
boundary
62
5
39
2
10
358.738024
20
47.247790
11
363.060068
21
57.622883
0
LINE
8
boundary
62
5
39
2
10
363.060068
20
57.622883
11
366.298541
21
66.017023
0
LINE
8
boundary
62
5
39
2
10
366.298541
20
66.017023
11
367.561516
21
69.620969
0
LINE
8
boundary
62
5
39
2
10
367.561516
20
69.620969
11
367.611388
21
69.763281
0
LINE
8
boundary
62
5
39
2
10
367.611388
20
69.763281
11
310.207568
21
96.885400
0
LINE
8
boundary
62
5
39
2
10
310.207568
20
96.885400
11
310.195953
21
96.869726
0
LINE
8
boundary
62
5
39
2
10
310.195953
20
96.869726
11
310.179223
21
96.859690
0
LINE
8
boundary
62
5
39
2
10
310.179223
20
96.859690
11
310.159926
21
96.856820
0
LINE
8
boundary
62
5
39
2
10
310.159926
20
96.856820
11
310.141000
21
96.861553
0
LINE
8
boundary
62
5
39
2
10
310.141000
20
96.861553
11
310.125326
21
96.873168
0
LINE
8
boundary
62
5
39
2
10
310.125326
20
96.873168
11
310.115289
21
96.889897
0
LINE
8
boundary
62
5
39
2
10
310.115289
20
96.889897
11
310.112419
21
96.909195
0
LINE
8
boundary
62
5
39
2
10
310.112419
20
96.909195
11
310.117152
21
96.928120
0
LINE
8
boundary
62
5
39
2
10
310.117152
20
96.928120
11
311.290233
21
99.410940
0
LINE
8
boundary
62
5
39
2
10
311.290233
20
99.410940
11
311.301849
21
99.426615
0
LINE
8
boundary
62
5
39
2
10
311.301849
20
99.426615
11
311.318578
21
99.436651
0
LINE
8
boundary
62
5
39
2
10
311.318578
20
99.436651
11
311.337874
21
99.439522
0
LINE
8
boundary
62
5
39
2
10
311.337874
20
99.439522
11
311.356801
21
99.434789
0
LINE
8
boundary
62
5
39
2
10
311.356801
20
99.434789
11
311.372476
21
99.423174
0
LINE
8
boundary
62
5
39
2
10
311.372476
20
99.423174
11
311.382512
21
99.406444
0
LINE
8
boundary
62
5
39
2
10
311.382512
20
99.406444
11
311.385382
21
99.387147
0
LINE
8
boundary
62
5
39
2
10
311.385382
20
99.387147
11
311.380649
21
99.368221
0
LINE
8
boundary
62
5
39
2
10
311.380649
20
99.368221
11
368.501003
21
72.380033
0
LINE
8
boundary
62
5
39
2
10
368.501003
20
72.380033
11
368.574395
21
72.511257
0
LINE
8
boundary
62
5
39
2
10
368.574395
20
72.511257
11
374.970557
21
90.762931
0
LINE
8
boundary
62
5
39
2
10
374.970557
20
90.762931
11
378.463964
21
104.628857
0
LINE
8
boundary
62
5
39
2
10
378.463964
20
104.628857
11
382.595896
21
122.459535
0
LINE
8
boundary
62
5
39
2
10
382.595896
20
122.459535
11
386.032252
21
148.820960
0
LINE
8
boundary
62
5
39
2
10
386.032252
20
148.820960
11
386.199700
21
152.246086
0
LINE
8
boundary
62
5
39
2
10
386.199700
20
152.246086
11
387.058644
21
174.850068
0
LINE
8
boundary
62
5
39
2
10
387.058644
20
174.850068
11
386.362685
21
178.543591
0
LINE
8
boundary
62
5
39
2
10
386.362685
20
178.543591
11
382.375218
21
194.650739
0
LINE
8
boundary
62
5
39
2
10
382.375218
20
194.650739
11
379.733610
21
204.553129
0
LINE
8
boundary
62
5
39
2
10
379.733610
20
204.553129
11
375.368719
21
216.291483
0
LINE
8
boundary
62
5
39
2
10
375.368719
20
216.291483
11
374.138909
21
219.077068
0
LINE
8
boundary
62
5
39
2
10
374.138909
20
219.077068
11
361.102567
21
245.811432
0
LINE
8
boundary
62
5
39
2
10
361.102567
20
245.811432
11
359.978469
21
249.763314
0
LINE
8
boundary
62
5
39
2
10
359.978469
20
249.763314
11
356.867189
21
255.789423
0
LINE
8
boundary
62
5
39
2
10
356.867189
20
255.789423
11
343.800133
21
279.191654
0
LINE
8
boundary
62
5
39
2
10
343.800133
20
279.191654
11
343.826814
21
280.145036
0
LINE
8
boundary
62
5
39
2
10
343.826814
20
280.145036
11
343.367737
21
281.444828
0
LINE
8
boundary
62
5
39
2
10
343.367737
20
281.444828
11
340.401805
21
289.572282
0
LINE
8
boundary
62
5
39
2
10
340.401805
20
289.572282
11
340.349192
21
289.716456
0
LINE
8
boundary
62
5
39
2
10
340.349192
20
289.716456
11
290.122770
21
282.807979
0
LINE
8
boundary
62
5
39
2
10
290.122770
20
282.807979
11
290.121607
21
282.788505
0
LINE
8
boundary
62
5
39
2
10
290.121607
20
282.788505
11
290.113079
21
282.770958
0
LINE
8
boundary
62
5
39
2
10
290.113079
20
282.770958
11
290.098487
21
282.758010
0
LINE
8
boundary
62
5
39
2
10
290.098487
20
282.758010
11
290.080049
21
282.751632
0
LINE
8
boundary
62
5
39
2
10
290.080049
20
282.751632
11
290.060575
21
282.752796
0
LINE
8
boundary
62
5
39
2
10
290.060575
20
282.752796
11
290.043028
21
282.761323
0
LINE
8
boundary
62
5
39
2
10
290.043028
20
282.761323
11
290.030081
21
282.775916
0
LINE
8
boundary
62
5
39
2
10
290.030081
20
282.775916
11
290.023702
21
282.794353
0
LINE
8
boundary
62
5
39
2
10
290.023702
20
282.794353
11
289.649522
21
285.514740
0
LINE
8
boundary
62
5
39
2
10
289.649522
20
285.514740
11
289.650686
21
285.534214
0
LINE
8
boundary
62
5
39
2
10
289.650686
20
285.534214
11
289.659213
21
285.551761
0
LINE
8
boundary
62
5
39
2
10
289.659213
20
285.551761
11
289.673805
21
285.564709
0
LINE
8
boundary
62
5
39
2
10
289.673805
20
285.564709
11
289.692243
21
285.571087
0
LINE
8
boundary
62
5
39
2
10
289.692243
20
285.571087
11
289.711717
21
285.569923
0
LINE
8
boundary
62
5
39
2
10
289.711717
20
285.569923
11
289.729264
21
285.561397
0
LINE
8
boundary
62
5
39
2
10
289.729264
20
285.561397
11
289.742212
21
285.546803
0
LINE
8
boundary
62
5
39
2
10
289.742212
20
285.546803
11
289.748590
21
285.528366
0
LINE
8
boundary
62
5
39
2
10
289.748590
20
285.528366
11
339.343634
21
292.349999
0
LINE
8
boundary
62
5
39
2
10
339.343634
20
292.349999
11
339.333399
21
292.500003
0
LINE
8
boundary
62
5
39
2
10
339.333399
20
292.500003
11
338.053808
21
296.006428
0
LINE
8
boundary
62
5
39
2
10
338.053808
20
296.006428
11
334.705204
21
307.192561
0
LINE
8
boundary
62
5
39
2
10
334.705204
20
307.192561
11
331.610468
21
319.867305
0
LINE
8
boundary
62
5
39
2
10
331.610468
20
319.867305
11
327.667224
21
337.524441
0
LINE
8
boundary
62
5
39
2
10
327.667224
20
337.524441
11
326.909179
21
341.094736
0
LINE
8
boundary
62
5
39
2
10
326.909179
20
341.094736
11
327.386586
21
343.119069
0
LINE
8
boundary
62
5
39
2
10
327.386586
20
343.119069
11
327.919733
21
354.571962
0
LINE
8
boundary
62
5
39
2
10
327.919733
20
354.571962
11
327.953010
21
355.895909
0
LINE
8
boundary
62
5
39
2
10
327.953010
20
355.895909
11
327.278146
21
356.269266
0
LINE
8
boundary
62
5
39
2
10
327.278146
20
356.269266
11
327.644420
21
356.688597
0
LINE
8
boundary
62
5
39
2
10
327.644420
20
356.688597
11
329.639242
21
360.212329
0
LINE
8
boundary
62
5
39
2
10
329.639242
20
360.212329
11
331.615594
21
365.066819
0
LINE
8
boundary
62
5
39
2
10
331.615594
20
365.066819
11
331.728862
21
365.465694
0
LINE
8
boundary
62
5
39
2
10
331.728862
20
365.465694
11
331.859272
21
365.849162
0
LINE
8
boundary
62
5
39
2
10
331.859272
20
365.849162
11
335.362020
21
379.552422
0
LINE
8
boundary
62
5
39
2
10
335.362020
20
379.552422
11
341.831415
21
383.465201
0
LINE
8
boundary
62
5
39
2
10
341.831415
20
383.465201
11
344.139904
21
386.371988
0
LINE
8
boundary
62
5
39
2
10
344.139904
20
386.371988
11
345.128490
21
387.530064
0
LINE
8
boundary
62
5
39
2
10
345.128490
20
387.530064
11
345.498918
21
389.109203
0
LINE
8
boundary
62
5
39
2
10
345.498918
20
389.109203
11
347.773322
21
393.118497
0
LINE
8
boundary
62
5
39
2
10
347.773322
20
393.118497
11
346.380784
21
395.776926
0
LINE
8
boundary
62
5
39
2
10
346.380784
20
395.776926
11
345.823403
21
397.967085
0
LINE
8
boundary
62
5
39
2
10
345.823403
20
397.967085
11
345.778834
21
398.110675
0
LINE
8
boundary
62
5
39
2
10
345.778834
20
398.110675
11
305.411778
21
388.556644
0
LINE
8
boundary
62
5
39
2
10
305.411778
20
388.556644
11
305.412481
21
388.537148
0
LINE
8
boundary
62
5
39
2
10
305.412481
20
388.537148
11
305.405670
21
388.518867
0
LINE
8
boundary
62
5
39
2
10
305.405670
20
388.518867
11
305.392381
21
388.504584
0
LINE
8
boundary
62
5
39
2
10
305.392381
20
388.504584
11
305.374638
21
388.496473
0
LINE
8
boundary
62
5
39
2
10
305.374638
20
388.496473
11
305.355142
21
388.495769
0
LINE
8
boundary
62
5
39
2
10
305.355142
20
388.495769
11
305.336860
21
388.502581
0
LINE
8
boundary
62
5
39
2
10
305.336860
20
388.502581
11
305.322577
21
388.515870
0
LINE
8
boundary
62
5
39
2
10
305.322577
20
388.515870
11
305.314466
21
388.533613
0
LINE
8
boundary
62
5
39
2
10
305.314466
20
388.533613
11
304.682018
21
391.205789
0
LINE
8
boundary
62
5
39
2
10
304.682018
20
391.205789
11
304.681315
21
391.225285
0
LINE
8
boundary
62
5
39
2
10
304.681315
20
391.225285
11
304.688126
21
391.243567
0
LINE
8
boundary
62
5
39
2
10
304.688126
20
391.243567
11
304.701415
21
391.257850
0
LINE
8
boundary
62
5
39
2
10
304.701415
20
391.257850
11
304.719159
21
391.265961
0
LINE
8
boundary
62
5
39
2
10
304.719159
20
391.265961
11
304.738654
21
391.266664
0
LINE
8
boundary
62
5
39
2
10
304.738654
20
391.266664
11
304.756936
21
391.259853
0
LINE
8
boundary
62
5
39
2
10
304.756936
20
391.259853
11
304.771219
21
391.246564
0
LINE
8
boundary
62
5
39
2
10
304.771219
20
391.246564
11
304.779330
21
391.228821
0
LINE
8
boundary
62
5
39
2
10
304.779330
20
391.228821
11
342.555514
21
400.169646
0
LINE
8
boundary
62
5
39
2
10
342.555514
20
400.169646
11
342.530989
21
400.317986
0
LINE
8
boundary
62
5
39
2
10
342.530989
20
400.317986
11
339.202702
21
401.085920
0
LINE
8
boundary
62
5
39
2
10
339.202702
20
401.085920
11
334.343360
21
405.915010
0
LINE
8
boundary
62
5
39
2
10
334.343360
20
405.915010
11
333.295115
21
408.054513
0
LINE
8
boundary
62
5
39
2
10
333.295115
20
408.054513
11
327.578668
21
421.447640
0
LINE
8
boundary
62
5
39
2
10
327.578668
20
421.447640
11
326.889164
21
424.163581
0
LINE
8
boundary
62
5
39
2
10
326.889164
20
424.163581
11
323.703261
21
433.681603
0
LINE
8
boundary
62
5
39
2
10
323.703261
20
433.681603
11
322.457368
21
436.868888
0
LINE
8
boundary
62
5
39
2
10
322.457368
20
436.868888
11
322.366782
21
437.259221
0
LINE
8
boundary
62
5
39
2
10
322.366782
20
437.259221
11
321.695554
21
437.670478
0
LINE
8
boundary
62
5
39
2
10
321.695554
20
437.670478
11
316.901740
21
440.249796
0
LINE
8
boundary
62
5
39
2
10
316.901740
20
440.249796
11
313.312178
21
440.879655
0
LINE
8
boundary
62
5
39
2
10
313.312178
20
440.879655
11
308.947685
21
439.567337
0
LINE
8
boundary
62
5
39
2
10
308.947685
20
439.567337
11
306.387780
21
440.042050
0
LINE
8
boundary
62
5
39
2
10
306.387780
20
440.042050
11
303.377303
21
440.962413
0
LINE
8
boundary
62
5
39
2
10
303.377303
20
440.962413
11
295.295986
21
440.563371
0
LINE
8
boundary
62
5
39
2
10
295.295986
20
440.563371
11
286.849935
21
443.726956
0
LINE
8
boundary
62
5
39
2
10
286.849935
20
443.726956
11
278.472106
21
438.253190
0
LINE
8
boundary
62
5
39
2
10
278.472106
20
438.253190
11
275.358558
21
426.648094
0
LINE
8
boundary
62
5
39
2
10
275.358558
20
426.648094
11
274.439253
21
425.302568
0
LINE
8
boundary
62
5
39
2
10
274.439253
20
425.302568
11
274.256626
21
425.320230
0
LINE
8
boundary
62
5
39
2
10
274.256626
20
425.320230
11
274.012580
21
424.822944
0
LINE
8
boundary
62
5
39
2
10
274.012580
20
424.822944
11
270.488429
21
417.830218
0
LINE
8
boundary
62
5
39
2
10
270.488429
20
417.830218
11
269.930409
21
409.690612
0
LINE
8
boundary
62
5
39
2
10
269.930409
20
409.690612
11
267.860960
21
405.831109
0
LINE
8
boundary
62
5
39
2
10
267.860960
20
405.831109
11
266.874730
21
405.040195
0
LINE
8
boundary
62
5
39
2
10
266.874730
20
405.040195
11
265.771519
21
398.400005
0
LINE
8
boundary
62
5
39
2
10
265.771519
20
398.400005
11
263.819856
21
388.626766
0
LINE
8
boundary
62
5
39
2
10
263.819856
20
388.626766
11
263.636453
21
384.662053
0
LINE
8
boundary
62
5
39
2
10
263.636453
20
384.662053
11
265.341915
21
374.407279
0
LINE
8
boundary
62
5
39
2
10
265.341915
20
374.407279
11
265.637764
21
371.427460
0
LINE
8
boundary
62
5
39
2
10
265.637764
20
371.427460
11
262.550190
21
361.525290
0
LINE
8
boundary
62
5
39
2
10
262.550190
20
361.525290
11
262.539574
21
361.504601
0
LINE
8
boundary
62
5
39
2
10
262.539574
20
361.504601
11
262.514328
21
361.455982
0
LINE
8
boundary
62
5
39
2
10
262.514328
20
361.455982
11
254.569002
21
344.650527
0
LINE
8
boundary
62
5
39
2
10
254.569002
20
344.650527
11
251.575326
21
336.218647
0
LINE
8
boundary
62
5
39
2
10
251.575326
20
336.218647
11
249.797499
21
330.413972
0
LINE
8
boundary
62
5
39
2
10
249.797499
20
330.413972
11
249.191003
21
329.011699
0
LINE
8
boundary
62
5
39
2
10
249.191003
20
329.011699
11
248.642263
21
326.899624
0
LINE
8
boundary
62
5
39
2
10
248.642263
20
326.899624
11
239.301792
21
295.327775
0
LINE
8
boundary
62
5
39
2
10
239.301792
20
295.327775
11
239.362037
21
281.005736
0
LINE
8
boundary
62
5
39
2
10
239.362037
20
281.005736
11
239.679016
21
261.629312
0
LINE
8
boundary
62
5
39
2
10
239.679016
20
261.629312
11
239.991068
21
243.784791
0
LINE
8
boundary
62
5
39
2
10
239.991068
20
243.784791
11
240.668149
21
231.146490
0
LINE
8
boundary
62
5
39
2
10
240.668149
20
231.146490
11
243.185054
21
213.596423
0
LINE
8
boundary
62
5
39
2
10
243.185054
20
213.596423
11
244.182770
21
206.828831
0
LINE
8
boundary
62
5
39
2
10
244.182770
20
206.828831
11
245.037845
21
201.693250
0
LINE
8
boundary
62
5
39
2
10
245.037845
20
201.693250
11
249.660943
21
180.476737
0
LINE
8
boundary
62
5
39
2
10
249.660943
20
180.476737
11
252.965746
21
164.705822
0
LINE
8
boundary
62
5
39
2
10
252.965746
20
164.705822
11
253.655602
21
162.362320
0
LINE
8
boundary
62
5
39
2
10
253.655602
20
162.362320
11
254.470560
21
159.496612
0
LINE
8
boundary
62
5
39
2
10
254.470560
20
159.496612
11
256.644890
21
151.379583
0
LINE
8
boundary
62
5
39
2
10
256.644890
20
151.379583
11
256.552301
21
142.562964
0
LINE
8
boundary
62
5
39
2
10
256.552301
20
142.562964
11
253.171562
21
124.584943
0
LINE
8
boundary
62
5
39
2
10
253.171562
20
124.584943
11
252.881659
21
123.454652
0
LINE
8
boundary
62
5
39
2
10
252.881659
20
123.454652
11
252.648777
21
122.805713
0
LINE
8
boundary
62
5
39
2
10
252.648777
20
122.805713
11
247.597942
21
107.665700
0
LINE
8
boundary
62
5
39
2
10
247.597942
20
107.665700
11
246.817987
21
106.628161
0
LINE
8
boundary
62
5
39
2
10
246.817987
20
106.628161
11
241.426231
21
99.910234
0
LINE
8
boundary
62
5
39
2
10
241.426231
20
99.910234
11
241.129206
21
99.614450
0
LINE
8
boundary
62
5
39
2
10
241.129206
20
99.614450
11
240.857603
21
99.487876
0
LINE
8
boundary
62
5
39
2
10
240.857603
20
99.487876
11
241.025986
21
99.056618
0
LINE
8
boundary
62
5
39
2
10
241.025986
20
99.056618
11
244.953008
21
80.823113
0
LINE
8
boundary
62
5
39
2
10
244.953008
20
80.823113
11
250.395396
21
69.738088
0
LINE
8
boundary
62
5
39
2
10
250.395396
20
69.738088
11
252.763209
21
63.019674
0
LINE
8
annotation
62
1
39
211
10
288.253575
20
59.077455
11
290.760948
21
63.170507
0
LINE
8
annotation
62
1
39
211
10
290.760948
20
63.170507
11
289.293431
21
62.817734
0
LINE
8
annotation
62
1
39
211
10
305.101820
20
98.161856
11
303.174338
21
99.072551
0
LINE
8
annotation
62
1
39
211
10
303.174338
20
99.072551
11
306.310121
21
101.098310
0
LINE
8
annotation
62
1
39
211
10
306.310121
20
101.098310
11
306.310121
21
101.098310
0
LINE
8
annotation
62
1
39
211
10
306.310121
20
101.098310
11
306.313495
21
101.099939
0
LINE
8
annotation
62
1
39
211
10
306.313495
20
101.099939
11
306.316792
21
101.101631
0
LINE
8
annotation
62
1
39
211
10
306.316792
20
101.101631
11
306.320036
21
101.103403
0
LINE
8
annotation
62
1
39
211
10
306.320036
20
101.103403
11
306.323252
21
101.105271
0
LINE
8
annotation
62
1
39
211
10
306.323252
20
101.105271
11
306.326463
21
101.107251
0
LINE
8
annotation
62
1
39
211
10
306.326463
20
101.107251
11
306.329693
21
101.109358
0
LINE
8
annotation
62
1
39
211
10
306.329693
20
101.109358
11
306.332967
21
101.111610
0
LINE
8
annotation
62
1
39
211
10
306.332967
20
101.111610
11
306.336308
21
101.114021
0
LINE
8
annotation
62
1
39
211
10
306.336308
20
101.114021
11
306.339741
21
101.116609
0
LINE
8
annotation
62
1
39
211
10
306.339741
20
101.116609
11
306.339741
21
101.116609
0
LINE
8
annotation
62
1
39
211
10
306.339741
20
101.116609
11
306.487882
21
101.239758
0
LINE
8
annotation
62
1
39
211
10
306.487882
20
101.239758
11
306.608174
21
101.383133
0
LINE
8
annotation
62
1
39
211
10
306.608174
20
101.383133
11
306.699923
21
101.542536
0
LINE
8
annotation
62
1
39
211
10
306.699923
20
101.542536
11
306.762432
21
101.713773
0
LINE
8
annotation
62
1
39
211
10
306.762432
20
101.713773
11
306.795009
21
101.892648
0
LINE
8
annotation
62
1
39
211
10
306.795009
20
101.892648
11
306.796958
21
102.074965
0
LINE
8
annotation
62
1
39
211
10
306.796958
20
102.074965
11
306.767585
21
102.256528
0
LINE
8
annotation
62
1
39
211
10
306.767585
20
102.256528
11
306.706196
21
102.433142
0
LINE
8
annotation
62
1
39
211
10
306.706196
20
102.433142
11
306.612095
21
102.600610
0
LINE
8
annotation
62
1
39
211
10
306.612095
20
102.600610
11
306.612095
21
102.600610
0
LINE
8
annotation
62
1
39
211
10
306.612095
20
102.600610
11
306.488012
21
102.747914
0
LINE
8
annotation
62
1
39
211
10
306.488012
20
102.747914
11
306.344074
21
102.867663
0
LINE
8
annotation
62
1
39
211
10
306.344074
20
102.867663
11
306.184395
21
102.959077
0
LINE
8
annotation
62
1
39
211
10
306.184395
20
102.959077
11
306.013089
21
103.021377
0
LINE
8
annotation
62
1
39
211
10
306.013089
20
103.021377
11
305.834270
21
103.053783
0
LINE
8
annotation
62
1
39
211
10
305.834270
20
103.053783
11
305.652054
21
103.055516
0
LINE
8
annotation
62
1
39
211
10
305.652054
20
103.055516
11
305.470555
21
103.025796
0
LINE
8
annotation
62
1
39
211
10
305.470555
20
103.025796
11
305.293887
21
102.963845
0
LINE
8
annotation
62
1
39
211
10
305.293887
20
102.963845
11
305.126165
21
102.868881
0
LINE
8
annotation
62
1
39
211
10
305.126165
20
102.868881
11
304.884903
21
102.685905
0
LINE
8
annotation
62
1
39
211
10
283.037222
20
280.796868
11
284.093178
21
280.942111
0
LINE
8
annotation
62
1
39
211
10
284.093178
20
280.942111
11
284.093178
21
280.942111
0
LINE
8
annotation
62
1
39
211
10
284.093178
20
280.942111
11
284.280750
21
280.985270
0
LINE
8
annotation
62
1
39
211
10
284.280750
20
280.985270
11
284.452701
21
281.058951
0
LINE
8
annotation
62
1
39
211
10
284.452701
20
281.058951
11
284.606472
21
281.159732
0
LINE
8
annotation
62
1
39
211
10
284.606472
20
281.159732
11
284.739506
21
281.284188
0
LINE
8
annotation
62
1
39
211
10
284.739506
20
281.284188
11
284.849245
21
281.428899
0
LINE
8
annotation
62
1
39
211
10
284.849245
20
281.428899
11
284.933131
21
281.590439
0
LINE
8
annotation
62
1
39
211
10
284.933131
20
281.590439
11
284.988606
21
281.765388
0
LINE
8
annotation
62
1
39
211
10
284.988606
20
281.765388
11
285.013113
21
281.950322
0
LINE
8
annotation
62
1
39
211
10
285.013113
20
281.950322
11
285.004095
21
282.141819
0
LINE
8
annotation
62
1
39
211
10
285.004095
20
282.141819
11
284.931371
21
282.670542
0
LINE
8
annotation
62
1
39
211
10
284.931371
20
282.670542
11
284.931371
21
282.670542
0
LINE
8
annotation
62
1
39
211
10
284.931371
20
282.670542
11
284.888364
21
282.857283
0
LINE
8
annotation
62
1
39
211
10
284.888364
20
282.857283
11
284.814843
21
283.028691
0
LINE
8
annotation
62
1
39
211
10
284.814843
20
283.028691
11
284.714196
21
283.182154
0
LINE
8
annotation
62
1
39
211
10
284.714196
20
283.182154
11
284.589810
21
283.315057
0
LINE
8
annotation
62
1
39
211
10
284.589810
20
283.315057
11
284.445073
21
283.424790
0
LINE
8
annotation
62
1
39
211
10
284.445073
20
283.424790
11
284.283374
21
283.508740
0
LINE
8
annotation
62
1
39
211
10
284.283374
20
283.508740
11
284.108100
21
283.564294
0
LINE
8
annotation
62
1
39
211
10
284.108100
20
283.564294
11
283.922638
21
283.588839
0
LINE
8
annotation
62
1
39
211
10
283.922638
20
283.588839
11
283.730377
21
283.579763
0
LINE
8
annotation
62
1
39
211
10
283.730377
20
283.579763
11
283.201654
21
283.507039
0
LINE
8
annotation
62
1
39
211
10
283.201654
20
283.507039
11
283.730377
21
283.579763
0
LINE
8
annotation
62
1
39
211
10
283.730377
20
283.579763
11
283.730377
21
283.579763
0
LINE
8
annotation
62
1
39
211
10
283.730377
20
283.579763
11
283.917948
21
283.622936
0
LINE
8
annotation
62
1
39
211
10
283.917948
20
283.622936
11
284.089892
21
283.696670
0
LINE
8
annotation
62
1
39
211
10
284.089892
20
283.696670
11
284.243648
21
283.797560
0
LINE
8
annotation
62
1
39
211
10
284.243648
20
283.797560
11
284.376656
21
283.922200
0
LINE
8
annotation
62
1
39
211
10
284.376656
20
283.922200
11
284.486357
21
284.067184
0
LINE
8
annotation
62
1
39
211
10
284.486357
20
284.067184
11
284.570191
21
284.229107
0
LINE
8
annotation
62
1
39
211
10
284.570191
20
284.229107
11
284.625596
21
284.404564
0
LINE
8
annotation
62
1
39
211
10
284.625596
20
284.404564
11
284.650014
21
284.590147
0
LINE
8
annotation
62
1
39
211
10
284.650014
20
284.590147
11
284.640884
21
284.782453
0
LINE
8
annotation
62
1
39
211
10
284.640884
20
284.782453
11
284.640884
21
284.782453
0
LINE
8
annotation
62
1
39
211
10
284.640884
20
284.782453
11
284.597878
21
284.969194
0
LINE
8
annotation
62
1
39
211
10
284.597878
20
284.969194
11
284.524357
21
285.140602
0
LINE
8
annotation
62
1
39
211
10
284.524357
20
285.140602
11
284.423709
21
285.294064
0
LINE
8
annotation
62
1
39
211
10
284.423709
20
285.294064
11
284.299324
21
285.426968
0
LINE
8
annotation
62
1
39
211
10
284.299324
20
285.426968
11
284.154587
21
285.536701
0
LINE
8
annotation
62
1
39
211
10
284.154587
20
285.536701
11
283.992888
21
285.620651
0
LINE
8
annotation
62
1
39
211
10
283.992888
20
285.620651
11
283.817613
21
285.676204
0
LINE
8
annotation
62
1
39
211
10
283.817613
20
285.676204
11
283.632152
21
285.700750
0
LINE
8
annotation
62
1
39
211
10
283.632152
20
285.700750
11
283.439891
21
285.691674
0
LINE
8
annotation
62
1
39
211
10
283.439891
20
285.691674
11
282.383936
21
285.546431
0
LINE
8
annotation
62
1
39
211
10
300.639135
20
387.468270
11
298.045591
21
386.854433
0
LINE
8
annotation
62
1
39
211
10
298.045591
20
386.854433
11
298.221622
21
390.732123
0
LINE
8
annotation
62
1
39
211
10
300.107487
20
386.245858
11
299.616500
21
388.320342
0
LINE
8
annotation
62
1
39
211
10
294.523368
20
161.717895
11
277.052889
21
161.717895
0
LINE
8
annotation
62
1
39
211
10
277.052889
20
161.717895
11
294.523368
21
193.182122
0
LINE
8
annotation
62
1
39
211
10
294.523368
20
193.182122
11
277.052889
21
193.182122
0
LINE
8
annotation
62
1
39
211
10
323.529514
20
177.450008
11
306.325413
21
177.450008
0
LINE
8
annotation
62
1
39
211
10
345.820950
20
193.182122
11
345.820950
21
193.182122
0
LINE
8
annotation
62
1
39
211
10
345.820950
20
193.182122
11
343.819348
21
192.431642
0
LINE
8
annotation
62
1
39
211
10
343.819348
20
192.431642
11
341.982616
21
191.420459
0
LINE
8
annotation
62
1
39
211
10
341.982616
20
191.420459
11
340.329608
21
190.173909
0
LINE
8
annotation
62
1
39
211
10
340.329608
20
190.173909
11
338.879179
21
188.717325
0
LINE
8
annotation
62
1
39
211
10
338.879179
20
188.717325
11
337.650184
21
187.076043
0
LINE
8
annotation
62
1
39
211
10
337.650184
20
187.076043
11
336.661478
21
185.275396
0
LINE
8
annotation
62
1
39
211
10
336.661478
20
185.275396
11
335.931915
21
183.340719
0
LINE
8
annotation
62
1
39
211
10
335.931915
20
183.340719
11
335.480351
21
181.297348
0
LINE
8
annotation
62
1
39
211
10
335.480351
20
181.297348
11
335.325639
21
179.170616
0
LINE
8
annotation
62
1
39
211
10
335.325639
20
179.170616
11
335.325639
21
168.712795
0
LINE
8
annotation
62
1
39
211
10
335.325639
20
168.712795
11
335.325639
21
168.712795
0
LINE
8
annotation
62
1
39
211
10
335.325639
20
168.712795
11
335.438446
21
167.455895
0
LINE
8
annotation
62
1
39
211
10
335.438446
20
167.455895
11
335.763592
21
166.272724
0
LINE
8
annotation
62
1
39
211
10
335.763592
20
166.272724
11
336.281167
21
165.183080
0
LINE
8
annotation
62
1
39
211
10
336.281167
20
165.183080
11
336.971261
21
164.206760
0
LINE
8
annotation
62
1
39
211
10
336.971261
20
164.206760
11
337.813963
21
163.363560
0
LINE
8
annotation
62
1
39
211
10
337.813963
20
163.363560
11
338.789363
21
162.673276
0
LINE
8
annotation
62
1
39
211
10
338.789363
20
162.673276
11
339.877551
21
162.155707
0
LINE
8
annotation
62
1
39
211
10
339.877551
20
162.155707
11
341.058616
21
161.830647
0
LINE
8
annotation
62
1
39
211
10
341.058616
20
161.830647
11
342.312647
21
161.717895
0
LINE
8
annotation
62
1
39
211
10
342.312647
20
161.717895
11
342.312647
21
161.717895
0
LINE
8
annotation
62
1
39
211
10
342.312647
20
161.717895
11
343.569277
21
161.830647
0
LINE
8
annotation
62
1
39
211
10
343.569277
20
161.830647
11
344.751723
21
162.155707
0
LINE
8
annotation
62
1
39
211
10
344.751723
20
162.155707
11
345.840316
21
162.673276
0
LINE
8
annotation
62
1
39
211
10
345.840316
20
162.673276
11
346.815392
21
163.363560
0
LINE
8
annotation
62
1
39
211
10
346.815392
20
163.363560
11
347.657282
21
164.206760
0
LINE
8
annotation
62
1
39
211
10
347.657282
20
164.206760
11
348.346320
21
165.183080
0
LINE
8
annotation
62
1
39
211
10
348.346320
20
165.183080
11
348.862839
21
166.272724
0
LINE
8
annotation
62
1
39
211
10
348.862839
20
166.272724
11
349.187173
21
167.455895
0
LINE
8
annotation
62
1
39
211
10
349.187173
20
167.455895
11
349.299655
21
168.712795
0
LINE
8
annotation
62
1
39
211
10
349.299655
20
168.712795
11
349.299655
21
172.193474
0
LINE
8
annotation
62
1
39
211
10
349.299655
20
172.193474
11
349.299655
21
172.193474
0
LINE
8
annotation
62
1
39
211
10
349.299655
20
172.193474
11
349.187173
21
173.449766
0
LINE
8
annotation
62
1
39
211
10
349.187173
20
173.449766
11
348.862839
21
174.631304
0
LINE
8
annotation
62
1
39
211
10
348.862839
20
174.631304
11
348.346320
21
175.718585
0
LINE
8
annotation
62
1
39
211
10
348.346320
20
175.718585
11
347.657282
21
176.692104
0
LINE
8
annotation
62
1
39
211
10
347.657282
20
176.692104
11
346.815392
21
177.532357
0
LINE
8
annotation
62
1
39
211
10
346.815392
20
177.532357
11
345.840316
21
178.219838
0
LINE
8
annotation
62
1
39
211
10
345.840316
20
178.219838
11
344.751723
21
178.735045
0
LINE
8
annotation
62
1
39
211
10
344.751723
20
178.735045
11
343.569277
21
179.058472
0
LINE
8
annotation
62
1
39
211
10
343.569277
20
179.058472
11
342.312647
21
179.170616
0
LINE
8
annotation
62
1
39
211
10
342.312647
20
179.170616
11
335.325639
21
179.170616
0
LINE
8
annotation
62
1
39
211
10
334.450537
20
157.784867
11
350.182650
21
157.784867
0
LINE
8
boundary
62
5
39
2
10
410.068094
20
47.853791
11
410.747347
21
45.826678
0
LINE
8
boundary
62
5
39
2
10
410.747347
20
45.826678
11
416.063675
21
30.651071
0
LINE
8
boundary
62
5
39
2
10
416.063675
20
30.651071
11
418.877530
21
22.667798
0
LINE
8
boundary
62
5
39
2
10
418.877530
20
22.667798
11
423.187532
21
13.397744
0
LINE
8
boundary
62
5
39
2
10
423.187532
20
13.397744
11
424.606853
21
11.578666
0
LINE
8
boundary
62
5
39
2
10
424.606853
20
11.578666
11
426.271430
21
10.219668
0
LINE
8
boundary
62
5
39
2
10
426.271430
20
10.219668
11
429.221463
21
9.431697
0
LINE
8
boundary
62
5
39
2
10
429.221463
20
9.431697
11
437.613570
21
7.976789
0
LINE
8
boundary
62
5
39
2
10
437.613570
20
7.976789
11
442.337323
21
7.566171
0
LINE
8
boundary
62
5
39
2
10
442.337323
20
7.566171
11
458.721580
21
6.925847
0
LINE
8
boundary
62
5
39
2
10
458.721580
20
6.925847
11
460.005686
21
6.767500
0
LINE
8
boundary
62
5
39
2
10
460.005686
20
6.767500
11
461.442384
21
7.382010
0
LINE
8
boundary
62
5
39
2
10
461.442384
20
7.382010
11
464.510285
21
8.650249
0
LINE
8
boundary
62
5
39
2
10
464.510285
20
8.650249
11
472.911149
21
12.533352
0
LINE
8
boundary
62
5
39
2
10
472.911149
20
12.533352
11
477.861747
21
15.041795
0
LINE
8
boundary
62
5
39
2
10
477.861747
20
15.041795
11
487.117457
21
21.160061
0
LINE
8
boundary
62
5
39
2
10
487.117457
20
21.160061
11
493.017668
21
23.764922
0
LINE
8
boundary
62
5
39
2
10
493.017668
20
23.764922
11
495.973132
21
25.619812
0
LINE
8
boundary
62
5
39
2
10
495.973132
20
25.619812
11
496.042705
21
25.753100
0
LINE
8
boundary
62
5
39
2
10
496.042705
20
25.753100
11
445.020075
21
57.009172
0
LINE
8
boundary
62
5
39
2
10
445.020075
20
57.009172
11
445.006834
21
56.994844
0
LINE
8
boundary
62
5
39
2
10
445.006834
20
56.994844
11
444.989118
21
56.986674
0
LINE
8
boundary
62
5
39
2
10
444.989118
20
56.986674
11
444.969625
21
56.985905
0
LINE
8
boundary
62
5
39
2
10
444.969625
20
56.985905
11
444.951321
21
56.992654
0
LINE
8
boundary
62
5
39
2
10
444.951321
20
56.992654
11
444.936993
21
57.005895
0
LINE
8
boundary
62
5
39
2
10
444.936993
20
57.005895
11
444.928822
21
57.023610
0
LINE
8
boundary
62
5
39
2
10
444.928822
20
57.023610
11
444.928053
21
57.043105
0
LINE
8
boundary
62
5
39
2
10
444.928053
20
57.043105
11
444.934803
21
57.061409
0
LINE
8
boundary
62
5
39
2
10
444.934803
20
57.061409
11
446.369229
21
59.402976
0
LINE
8
boundary
62
5
39
2
10
446.369229
20
59.402976
11
446.382469
21
59.417304
0
LINE
8
boundary
62
5
39
2
10
446.382469
20
59.417304
11
446.400185
21
59.425474
0
LINE
8
boundary
62
5
39
2
10
446.400185
20
59.425474
11
446.419679
21
59.426244
0
LINE
8
boundary
62
5
39
2
10
446.419679
20
59.426244
11
446.437984
21
59.419494
0
LINE
8
boundary
62
5
39
2
10
446.437984
20
59.419494
11
446.452311
21
59.406253
0
LINE
8
boundary
62
5
39
2
10
446.452311
20
59.406253
11
446.460482
21
59.388537
0
LINE
8
boundary
62
5
39
2
10
446.460482
20
59.388537
11
446.461251
21
59.369043
0
LINE
8
boundary
62
5
39
2
10
446.461251
20
59.369043
11
446.454501
21
59.350739
0
LINE
8
boundary
62
5
39
2
10
446.454501
20
59.350739
11
498.685640
21
27.354344
0
LINE
8
boundary
62
5
39
2
10
498.685640
20
27.354344
11
498.797454
21
27.461756
0
LINE
8
boundary
62
5
39
2
10
498.797454
20
27.461756
11
500.474765
21
29.073026
0
LINE
8
boundary
62
5
39
2
10
500.474765
20
29.073026
11
502.194754
21
32.040614
0
LINE
8
boundary
62
5
39
2
10
502.194754
20
32.040614
11
504.209061
21
36.078356
0
LINE
8
boundary
62
5
39
2
10
504.209061
20
36.078356
11
511.946082
21
54.367878
0
LINE
8
boundary
62
5
39
2
10
511.946082
20
54.367878
11
518.488581
21
69.936226
0
LINE
8
boundary
62
5
39
2
10
518.488581
20
69.936226
11
518.543348
21
70.076250
0
LINE
8
boundary
62
5
39
2
10
518.543348
20
70.076250
11
461.415922
21
97.067779
0
LINE
8
boundary
62
5
39
2
10
461.415922
20
97.067779
11
461.404307
21
97.052104
0
LINE
8
boundary
62
5
39
2
10
461.404307
20
97.052104
11
461.387578
21
97.042068
0
LINE
8
boundary
62
5
39
2
10
461.387578
20
97.042068
11
461.368281
21
97.039198
0
LINE
8
boundary
62
5
39
2
10
461.368281
20
97.039198
11
461.349354
21
97.043931
0
LINE
8
boundary
62
5
39
2
10
461.349354
20
97.043931
11
461.333681
21
97.055547
0
LINE
8
boundary
62
5
39
2
10
461.333681
20
97.055547
11
461.323644
21
97.072276
0
LINE
8
boundary
62
5
39
2
10
461.323644
20
97.072276
11
461.320774
21
97.091573
0
LINE
8
boundary
62
5
39
2
10
461.320774
20
97.091573
11
461.325506
21
97.110499
0
LINE
8
boundary
62
5
39
2
10
461.325506
20
97.110499
11
462.498588
21
99.593319
0
LINE
8
boundary
62
5
39
2
10
462.498588
20
99.593319
11
462.510203
21
99.608993
0
LINE
8
boundary
62
5
39
2
10
462.510203
20
99.608993
11
462.526933
21
99.619029
0
LINE
8
boundary
62
5
39
2
10
462.526933
20
99.619029
11
462.546229
21
99.621900
0
LINE
8
boundary
62
5
39
2
10
462.546229
20
99.621900
11
462.565155
21
99.617167
0
LINE
8
boundary
62
5
39
2
10
462.565155
20
99.617167
11
462.580830
21
99.605552
0
LINE
8
boundary
62
5
39
2
10
462.580830
20
99.605552
11
462.590867
21
99.588822
0
LINE
8
boundary
62
5
39
2
10
462.590867
20
99.588822
11
462.593737
21
99.569525
0
LINE
8
boundary
62
5
39
2
10
462.593737
20
99.569525
11
462.589004
21
99.550599
0
LINE
8
boundary
62
5
39
2
10
462.589004
20
99.550599
11
519.523272
21
72.650333
0
LINE
8
boundary
62
5
39
2
10
519.523272
20
72.650333
11
519.596664
21
72.781557
0
LINE
8
boundary
62
5
39
2
10
519.596664
20
72.781557
11
522.647814
21
80.755232
0
LINE
8
boundary
62
5
39
2
10
522.647814
20
80.755232
11
527.091762
21
97.523822
0
LINE
8
boundary
62
5
39
2
10
527.091762
20
97.523822
11
529.667660
21
107.736801
0
LINE
8
boundary
62
5
39
2
10
529.667660
20
107.736801
11
533.467536
21
123.628103
0
LINE
8
boundary
62
5
39
2
10
533.467536
20
123.628103
11
536.342865
21
147.983097
0
LINE
8
boundary
62
5
39
2
10
536.342865
20
147.983097
11
536.359510
21
148.239811
0
LINE
8
boundary
62
5
39
2
10
536.359510
20
148.239811
11
536.381653
21
148.588688
0
LINE
8
boundary
62
5
39
2
10
536.381653
20
148.588688
11
536.075754
21
181.395710
0
LINE
8
boundary
62
5
39
2
10
536.075754
20
181.395710
11
536.019510
21
181.798720
0
LINE
8
boundary
62
5
39
2
10
536.019510
20
181.798720
11
535.933620
21
182.171033
0
LINE
8
boundary
62
5
39
2
10
535.933620
20
182.171033
11
535.092167
21
185.064350
0
LINE
8
boundary
62
5
39
2
10
535.092167
20
185.064350
11
524.014909
21
215.699793
0
LINE
8
boundary
62
5
39
2
10
524.014909
20
215.699793
11
521.776243
21
221.604587
0
LINE
8
boundary
62
5
39
2
10
521.776243
20
221.604587
11
512.558897
21
240.634640
0
LINE
8
boundary
62
5
39
2
10
512.558897
20
240.634640
11
510.660035
21
247.799723
0
LINE
8
boundary
62
5
39
2
10
510.660035
20
247.799723
11
498.132557
21
270.413623
0
LINE
8
boundary
62
5
39
2
10
498.132557
20
270.413623
11
494.763120
21
277.709735
0
LINE
8
boundary
62
5
39
2
10
494.763120
20
277.709735
11
492.085394
21
281.147606
0
LINE
8
boundary
62
5
39
2
10
492.085394
20
281.147606
11
489.919964
21
289.740592
0
LINE
8
boundary
62
5
39
2
10
489.919964
20
289.740592
11
489.883087
21
289.886930
0
LINE
8
boundary
62
5
39
2
10
489.883087
20
289.886930
11
440.429535
21
283.084759
0
LINE
8
boundary
62
5
39
2
10
440.429535
20
283.084759
11
440.428372
21
283.065284
0
LINE
8
boundary
62
5
39
2
10
440.428372
20
283.065284
11
440.419845
21
283.047738
0
LINE
8
boundary
62
5
39
2
10
440.419845
20
283.047738
11
440.405252
21
283.034790
0
LINE
8
boundary
62
5
39
2
10
440.405252
20
283.034790
11
440.386815
21
283.028412
0
LINE
8
boundary
62
5
39
2
10
440.386815
20
283.028412
11
440.367341
21
283.029575
0
LINE
8
boundary
62
5
39
2
10
440.367341
20
283.029575
11
440.349794
21
283.038102
0
LINE
8
boundary
62
5
39
2
10
440.349794
20
283.038102
11
440.336846
21
283.052696
0
LINE
8
boundary
62
5
39
2
10
440.336846
20
283.052696
11
440.330468
21
283.071133
0
LINE
8
boundary
62
5
39
2
10
440.330468
20
283.071133
11
439.956288
21
285.791520
0
LINE
8
boundary
62
5
39
2
10
439.956288
20
285.791520
11
439.957451
21
285.810993
0
LINE
8
boundary
62
5
39
2
10
439.957451
20
285.810993
11
439.965978
21
285.828541
0
LINE
8
boundary
62
5
39
2
10
439.965978
20
285.828541
11
439.980571
21
285.841489
0
LINE
8
boundary
62
5
39
2
10
439.980571
20
285.841489
11
439.999009
21
285.847866
0
LINE
8
boundary
62
5
39
2
10
439.999009
20
285.847866
11
440.018483
21
285.846703
0
LINE
8
boundary
62
5
39
2
10
440.018483
20
285.846703
11
440.036030
21
285.838176
0
LINE
8
boundary
62
5
39
2
10
440.036030
20
285.838176
11
440.048977
21
285.823583
0
LINE
8
boundary
62
5
39
2
10
440.048977
20
285.823583
11
440.055355
21
285.805146
0
LINE
8
boundary
62
5
39
2
10
440.055355
20
285.805146
11
489.181339
21
292.562262
0
LINE
8
boundary
62
5
39
2
10
489.181339
20
292.562262
11
489.171104
21
292.712265
0
LINE
8
boundary
62
5
39
2
10
489.171104
20
292.712265
11
488.476635
21
295.468098
0
LINE
8
boundary
62
5
39
2
10
488.476635
20
295.468098
11
486.537554
21
302.115682
0
LINE
8
boundary
62
5
39
2
10
486.537554
20
302.115682
11
482.536331
21
317.581648
0
LINE
8
boundary
62
5
39
2
10
482.536331
20
317.581648
11
478.771846
21
326.681766
0
LINE
8
boundary
62
5
39
2
10
478.771846
20
326.681766
11
477.883841
21
337.251319
0
LINE
8
boundary
62
5
39
2
10
477.883841
20
337.251319
11
477.502682
21
339.290557
0
LINE
8
boundary
62
5
39
2
10
477.502682
20
339.290557
11
478.409379
21
355.065713
0
LINE
8
boundary
62
5
39
2
10
478.409379
20
355.065713
11
475.367130
21
356.598440
0
LINE
8
boundary
62
5
39
2
10
475.367130
20
356.598440
11
475.533678
21
359.875026
0
LINE
8
boundary
62
5
39
2
10
475.533678
20
359.875026
11
481.038292
21
367.358749
0
LINE
8
boundary
62
5
39
2
10
481.038292
20
367.358749
11
483.643756
21
369.378913
0
LINE
8
boundary
62
5
39
2
10
483.643756
20
369.378913
11
485.697622
21
374.670388
0
LINE
8
boundary
62
5
39
2
10
485.697622
20
374.670388
11
488.224514
21
380.925400
0
LINE
8
boundary
62
5
39
2
10
488.224514
20
380.925400
11
488.490842
21
381.360240
0
LINE
8
boundary
62
5
39
2
10
488.490842
20
381.360240
11
488.794648
21
381.846234
0
LINE
8
boundary
62
5
39
2
10
488.794648
20
381.846234
11
498.006418
21
390.764065
0
LINE
8
boundary
62
5
39
2
10
498.006418
20
390.764065
11
498.195391
21
390.950463
0
LINE
8
boundary
62
5
39
2
10
498.195391
20
390.950463
11
498.222439
21
390.971453
0
LINE
8
boundary
62
5
39
2
10
498.222439
20
390.971453
11
498.234152
21
390.985652
0
LINE
8
boundary
62
5
39
2
10
498.234152
20
390.985652
11
498.226604
21
391.011986
0
LINE
8
boundary
62
5
39
2
10
498.226604
20
391.011986
11
496.793054
21
398.346868
0
LINE
8
boundary
62
5
39
2
10
496.793054
20
398.346868
11
496.761775
21
398.447642
0
LINE
8
boundary
62
5
39
2
10
496.761775
20
398.447642
11
496.719741
21
398.483659
0
LINE
8
boundary
62
5
39
2
10
496.719741
20
398.483659
11
456.141463
21
388.879637
0
LINE
8
boundary
62
5
39
2
10
456.141463
20
388.879637
11
456.142166
21
388.860141
0
LINE
8
boundary
62
5
39
2
10
456.142166
20
388.860141
11
456.135355
21
388.841859
0
LINE
8
boundary
62
5
39
2
10
456.135355
20
388.841859
11
456.122067
21
388.827577
0
LINE
8
boundary
62
5
39
2
10
456.122067
20
388.827577
11
456.104323
21
388.819465
0
LINE
8
boundary
62
5
39
2
10
456.104323
20
388.819465
11
456.084827
21
388.818763
0
LINE
8
boundary
62
5
39
2
10
456.084827
20
388.818763
11
456.066545
21
388.825574
0
LINE
8
boundary
62
5
39
2
10
456.066545
20
388.825574
11
456.052262
21
388.838862
0
LINE
8
boundary
62
5
39
2
10
456.052262
20
388.838862
11
456.044151
21
388.856605
0
LINE
8
boundary
62
5
39
2
10
456.044151
20
388.856605
11
455.411704
21
391.528782
0
LINE
8
boundary
62
5
39
2
10
455.411704
20
391.528782
11
455.411001
21
391.548278
0
LINE
8
boundary
62
5
39
2
10
455.411001
20
391.548278
11
455.417812
21
391.566559
0
LINE
8
boundary
62
5
39
2
10
455.417812
20
391.566559
11
455.431101
21
391.580843
0
LINE
8
boundary
62
5
39
2
10
455.431101
20
391.580843
11
455.448844
21
391.588954
0
LINE
8
boundary
62
5
39
2
10
455.448844
20
391.588954
11
455.468340
21
391.589657
0
LINE
8
boundary
62
5
39
2
10
455.468340
20
391.589657
11
455.486622
21
391.582846
0
LINE
8
boundary
62
5
39
2
10
455.486622
20
391.582846
11
455.500905
21
391.569557
0
LINE
8
boundary
62
5
39
2
10
455.500905
20
391.569557
11
455.509016
21
391.551814
0
LINE
8
boundary
62
5
39
2
10
455.509016
20
391.551814
11
494.126706
21
400.691806
0
LINE
8
boundary
62
5
39
2
10
494.126706
20
400.691806
11
494.102181
21
400.840146
0
LINE
8
boundary
62
5
39
2
10
494.102181
20
400.840146
11
491.300705
21
403.635274
0
LINE
8
boundary
62
5
39
2
10
491.300705
20
403.635274
11
486.976582
21
403.260214
0
LINE
8
boundary
62
5
39
2
10
486.976582
20
403.260214
11
486.109486
21
404.306152
0
LINE
8
boundary
62
5
39
2
10
486.109486
20
404.306152
11
485.060185
21
407.330905
0
LINE
8
boundary
62
5
39
2
10
485.060185
20
407.330905
11
481.436748
21
416.296648
0
LINE
8
boundary
62
5
39
2
10
481.436748
20
416.296648
11
478.312361
21
420.255078
0
LINE
8
boundary
62
5
39
2
10
478.312361
20
420.255078
11
478.353304
21
421.401107
0
LINE
8
boundary
62
5
39
2
10
478.353304
20
421.401107
11
476.916597
21
424.829614
0
LINE
8
boundary
62
5
39
2
10
476.916597
20
424.829614
11
471.221966
21
436.608475
0
LINE
8
boundary
62
5
39
2
10
471.221966
20
436.608475
11
464.154635
21
439.044979
0
LINE
8
boundary
62
5
39
2
10
464.154635
20
439.044979
11
462.495016
21
438.390666
0
LINE
8
boundary
62
5
39
2
10
462.495016
20
438.390666
11
462.170037
21
438.355889
0
LINE
8
boundary
62
5
39
2
10
462.170037
20
438.355889
11
461.276573
21
438.950981
0
LINE
8
boundary
62
5
39
2
10
461.276573
20
438.950981
11
445.748259
21
441.758465
0
LINE
8
boundary
62
5
39
2
10
445.748259
20
441.758465
11
436.158481
21
441.230648
0
LINE
8
boundary
62
5
39
2
10
436.158481
20
441.230648
11
435.797791
21
441.088708
0
LINE
8
boundary
62
5
39
2
10
435.797791
20
441.088708
11
434.556878
21
438.992851
0
LINE
8
boundary
62
5
39
2
10
434.556878
20
438.992851
11
429.972853
21
433.547078
0
LINE
8
boundary
62
5
39
2
10
429.972853
20
433.547078
11
429.070449
21
431.172101
0
LINE
8
boundary
62
5
39
2
10
429.070449
20
431.172101
11
428.893617
21
428.894136
0
LINE
8
boundary
62
5
39
2
10
428.893617
20
428.894136
11
427.706892
21
426.321156
0
LINE
8
boundary
62
5
39
2
10
427.706892
20
426.321156
11
425.277955
21
422.550572
0
LINE
8
boundary
62
5
39
2
10
425.277955
20
422.550572
11
424.591397
21
421.360170
0
LINE
8
boundary
62
5
39
2
10
424.591397
20
421.360170
11
422.973969
21
411.773635
0
LINE
8
boundary
62
5
39
2
10
422.973969
20
411.773635
11
419.490961
21
407.987937
0
LINE
8
boundary
62
5
39
2
10
419.490961
20
407.987937
11
417.316464
21
405.074975
0
LINE
8
boundary
62
5
39
2
10
417.316464
20
405.074975
11
416.871149
21
402.571097
0
LINE
8
boundary
62
5
39
2
10
416.871149
20
402.571097
11
416.558274
21
401.866002
0
LINE
8
boundary
62
5
39
2
10
416.558274
20
401.866002
11
414.935779
21
394.208675
0
LINE
8
boundary
62
5
39
2
10
414.935779
20
394.208675
11
414.647206
21
386.485282
0
LINE
8
boundary
62
5
39
2
10
414.647206
20
386.485282
11
414.820844
21
381.788097
0
LINE
8
boundary
62
5
39
2
10
414.820844
20
381.788097
11
415.276322
21
376.311893
0
LINE
8
boundary
62
5
39
2
10
415.276322
20
376.311893
11
417.677265
21
369.823589
0
LINE
8
boundary
62
5
39
2
10
417.677265
20
369.823589
11
414.438083
21
362.834624
0
LINE
8
boundary
62
5
39
2
10
414.438083
20
362.834624
11
413.240983
21
360.534853
0
LINE
8
boundary
62
5
39
2
10
413.240983
20
360.534853
11
408.214026
21
349.464098
0
LINE
8
boundary
62
5
39
2
10
408.214026
20
349.464098
11
405.059370
21
342.595644
0
LINE
8
boundary
62
5
39
2
10
405.059370
20
342.595644
11
402.381331
21
334.709922
0
LINE
8
boundary
62
5
39
2
10
402.381331
20
334.709922
11
397.562602
21
319.069672
0
LINE
8
boundary
62
5
39
2
10
397.562602
20
319.069672
11
396.200772
21
313.383761
0
LINE
8
boundary
62
5
39
2
10
396.200772
20
313.383761
11
393.404505
21
306.000802
0
LINE
8
boundary
62
5
39
2
10
393.404505
20
306.000802
11
390.492683
21
295.694561
0
LINE
8
boundary
62
5
39
2
10
390.492683
20
295.694561
11
390.433644
21
289.288205
0
LINE
8
boundary
62
5
39
2
10
390.433644
20
289.288205
11
390.625617
21
262.189878
0
LINE
8
boundary
62
5
39
2
10
390.625617
20
262.189878
11
390.792574
21
251.830142
0
LINE
8
boundary
62
5
39
2
10
390.792574
20
251.830142
11
394.164626
21
218.378262
0
LINE
8
boundary
62
5
39
2
10
394.164626
20
218.378262
11
395.323357
21
207.441997
0
LINE
8
boundary
62
5
39
2
10
395.323357
20
207.441997
11
396.502456
21
199.998574
0
LINE
8
boundary
62
5
39
2
10
396.502456
20
199.998574
11
403.359701
21
167.930467
0
LINE
8
boundary
62
5
39
2
10
403.359701
20
167.930467
11
403.867124
21
165.735738
0
LINE
8
boundary
62
5
39
2
10
403.867124
20
165.735738
11
404.989248
21
162.912351
0
LINE
8
boundary
62
5
39
2
10
404.989248
20
162.912351
11
408.357972
21
148.604759
0
LINE
8
boundary
62
5
39
2
10
408.357972
20
148.604759
11
405.282281
21
127.450126
0
LINE
8
boundary
62
5
39
2
10
405.282281
20
127.450126
11
404.247993
21
124.309057
0
LINE
8
boundary
62
5
39
2
10
404.247993
20
124.309057
11
403.732165
21
122.548748
0
LINE
8
boundary
62
5
39
2
10
403.732165
20
122.548748
11
399.936389
21
109.938243
0
LINE
8
boundary
62
5
39
2
10
399.936389
20
109.938243
11
399.438108
21
109.228941
0
LINE
8
boundary
62
5
39
2
10
399.438108
20
109.228941
11
397.953516
21
107.717670
0
LINE
8
boundary
62
5
39
2
10
397.953516
20
107.717670
11
393.322971
21
101.836920
0
LINE
8
boundary
62
5
39
2
10
393.322971
20
101.836920
11
392.020154
21
100.786982
0
LINE
8
boundary
62
5
39
2
10
392.020154
20
100.786982
11
390.660676
21
100.216285
0
LINE
8
boundary
62
5
39
2
10
390.660676
20
100.216285
11
392.735971
21
95.172730
0
LINE
8
boundary
62
5
39
2
10
392.735971
20
95.172730
11
394.915098
21
85.206543
0
LINE
8
boundary
62
5
39
2
10
394.915098
20
85.206543
11
397.563989
21
79.677599
0
LINE
8
boundary
62
5
39
2
10
397.563989
20
79.677599
11
403.433263
21
65.693059
0
LINE
8
boundary
62
5
39
2
10
403.433263
20
65.693059
11
403.856611
21
64.515866
0
LINE
8
boundary
62
5
39
2
10
403.856611
20
64.515866
11
409.529150
21
49.575446
0
LINE
8
boundary
62
5
39
2
10
409.529150
20
49.575446
11
410.068094
21
47.853791
0
LINE
8
annotation
62
1
39
211
10
439.628302
20
59.107748
11
442.135675
21
63.200801
0
LINE
8
annotation
62
1
39
211
10
442.135675
20
63.200801
11
440.668159
21
62.848027
0
LINE
8
annotation
62
1
39
211
10
456.310174
20
98.344234
11
454.382693
21
99.254929
0
LINE
8
annotation
62
1
39
211
10
454.382693
20
99.254929
11
457.518475
21
101.280688
0
LINE
8
annotation
62
1
39
211
10
457.518475
20
101.280688
11
457.518475
21
101.280688
0
LINE
8
annotation
62
1
39
211
10
457.518475
20
101.280688
11
457.521849
21
101.282317
0
LINE
8
annotation
62
1
39
211
10
457.521849
20
101.282317
11
457.525146
21
101.284009
0
LINE
8
annotation
62
1
39
211
10
457.525146
20
101.284009
11
457.528391
21
101.285781
0
LINE
8
annotation
62
1
39
211
10
457.528391
20
101.285781
11
457.531607
21
101.287649
0
LINE
8
annotation
62
1
39
211
10
457.531607
20
101.287649
11
457.534818
21
101.289629
0
LINE
8
annotation
62
1
39
211
10
457.534818
20
101.289629
11
457.538048
21
101.291737
0
LINE
8
annotation
62
1
39
211
10
457.538048
20
101.291737
11
457.541322
21
101.293988
0
LINE
8
annotation
62
1
39
211
10
457.541322
20
101.293988
11
457.544663
21
101.296400
0
LINE
8
annotation
62
1
39
211
10
457.544663
20
101.296400
11
457.548095
21
101.298987
0
LINE
8
annotation
62
1
39
211
10
457.548095
20
101.298987
11
457.548095
21
101.298987
0
LINE
8
annotation
62
1
39
211
10
457.548095
20
101.298987
11
457.696237
21
101.422136
0
LINE
8
annotation
62
1
39
211
10
457.696237
20
101.422136
11
457.816529
21
101.565511
0
LINE
8
annotation
62
1
39
211
10
457.816529
20
101.565511
11
457.908277
21
101.724915
0
LINE
8
annotation
62
1
39
211
10
457.908277
20
101.724915
11
457.970787
21
101.896152
0
LINE
8
annotation
62
1
39
211
10
457.970787
20
101.896152
11
458.003364
21
102.075027
0
LINE
8
annotation
62
1
39
211
10
458.003364
20
102.075027
11
458.005313
21
102.257343
0
LINE
8
annotation
62
1
39
211
10
458.005313
20
102.257343
11
457.975940
21
102.438906
0
LINE
8
annotation
62
1
39
211
10
457.975940
20
102.438906
11
457.914550
21
102.615520
0
LINE
8
annotation
62
1
39
211
10
457.914550
20
102.615520
11
457.820449
21
102.782988
0
LINE
8
annotation
62
1
39
211
10
457.820449
20
102.782988
11
457.820449
21
102.782988
0
LINE
8
annotation
62
1
39
211
10
457.820449
20
102.782988
11
457.696367
21
102.930292
0
LINE
8
annotation
62
1
39
211
10
457.696367
20
102.930292
11
457.552429
21
103.050041
0
LINE
8
annotation
62
1
39
211
10
457.552429
20
103.050041
11
457.392750
21
103.141455
0
LINE
8
annotation
62
1
39
211
10
457.392750
20
103.141455
11
457.221443
21
103.203755
0
LINE
8
annotation
62
1
39
211
10
457.221443
20
103.203755
11
457.042625
21
103.236161
0
LINE
8
annotation
62
1
39
211
10
457.042625
20
103.236161
11
456.860409
21
103.237894
0
LINE
8
annotation
62
1
39
211
10
456.860409
20
103.237894
11
456.678910
21
103.208175
0
LINE
8
annotation
62
1
39
211
10
456.678910
20
103.208175
11
456.502242
21
103.146223
0
LINE
8
annotation
62
1
39
211
10
456.502242
20
103.146223
11
456.334519
21
103.051259
0
LINE
8
annotation
62
1
39
211
10
456.334519
20
103.051259
11
456.093257
21
102.868283
0
LINE
8
annotation
62
1
39
211
10
433.343988
20
281.073648
11
434.399943
21
281.218891
0
LINE
8
annotation
62
1
39
211
10
434.399943
20
281.218891
11
434.399943
21
281.218891
0
LINE
8
annotation
62
1
39
211
10
434.399943
20
281.218891
11
434.587516
21
281.262050
0
LINE
8
annotation
62
1
39
211
10
434.587516
20
281.262050
11
434.759467
21
281.335731
0
LINE
8
annotation
62
1
39
211
10
434.759467
20
281.335731
11
434.913238
21
281.436511
0
LINE
8
annotation
62
1
39
211
10
434.913238
20
281.436511
11
435.046271
21
281.560968
0
LINE
8
annotation
62
1
39
211
10
435.046271
20
281.560968
11
435.156010
21
281.705678
0
LINE
8
annotation
62
1
39
211
10
435.156010
20
281.705678
11
435.239896
21
281.867219
0
LINE
8
annotation
62
1
39
211
10
435.239896
20
281.867219
11
435.295372
21
282.042168
0
LINE
8
annotation
62
1
39
211
10
435.295372
20
282.042168
11
435.319879
21
282.227102
0
LINE
8
annotation
62
1
39
211
10
435.319879
20
282.227102
11
435.310860
21
282.418599
0
LINE
8
annotation
62
1
39
211
10
435.310860
20
282.418599
11
435.238136
21
282.947322
0
LINE
8
annotation
62
1
39
211
10
435.238136
20
282.947322
11
435.238136
21
282.947322
0
LINE
8
annotation
62
1
39
211
10
435.238136
20
282.947322
11
435.195129
21
283.134063
0
LINE
8
annotation
62
1
39
211
10
435.195129
20
283.134063
11
435.121608
21
283.305471
0
LINE
8
annotation
62
1
39
211
10
435.121608
20
283.305471
11
435.020961
21
283.458933
0
LINE
8
annotation
62
1
39
211
10
435.020961
20
283.458933
11
434.896575
21
283.591837
0
LINE
8
annotation
62
1
39
211
10
434.896575
20
283.591837
11
434.751839
21
283.701570
0
LINE
8
annotation
62
1
39
211
10
434.751839
20
283.701570
11
434.590139
21
283.785520
0
LINE
8
annotation
62
1
39
211
10
434.590139
20
283.785520
11
434.414865
21
283.841073
0
LINE
8
annotation
62
1
39
211
10
434.414865
20
283.841073
11
434.229404
21
283.865619
0
LINE
8
annotation
62
1
39
211
10
434.229404
20
283.865619
11
434.037143
21
283.856543
0
LINE
8
annotation
62
1
39
211
10
434.037143
20
283.856543
11
433.508420
21
283.783819
0
LINE
8
annotation
62
1
39
211
10
433.508420
20
283.783819
11
434.037143
21
283.856543
0
LINE
8
annotation
62
1
39
211
10
434.037143
20
283.856543
11
434.037143
21
283.856543
0
LINE
8
annotation
62
1
39
211
10
434.037143
20
283.856543
11
434.224714
21
283.899716
0
LINE
8
annotation
62
1
39
211
10
434.224714
20
283.899716
11
434.396657
21
283.973450
0
LINE
8
annotation
62
1
39
211
10
434.396657
20
283.973450
11
434.550413
21
284.074340
0
LINE
8
annotation
62
1
39
211
10
434.550413
20
284.074340
11
434.683422
21
284.198980
0
LINE
8
annotation
62
1
39
211
10
434.683422
20
284.198980
11
434.793123
21
284.343964
0
LINE
8
annotation
62
1
39
211
10
434.793123
20
284.343964
11
434.876956
21
284.505887
0
LINE
8
annotation
62
1
39
211
10
434.876956
20
284.505887
11
434.932362
21
284.681343
0
LINE
8
annotation
62
1
39
211
10
434.932362
20
284.681343
11
434.956780
21
284.866927
0
LINE
8
annotation
62
1
39
211
10
434.956780
20
284.866927
11
434.947650
21
285.059232
0
LINE
8
annotation
62
1
39
211
10
434.947650
20
285.059232
11
434.947650
21
285.059232
0
LINE
8
annotation
62
1
39
211
10
434.947650
20
285.059232
11
434.904643
21
285.245974
0
LINE
8
annotation
62
1
39
211
10
434.904643
20
285.245974
11
434.831122
21
285.417382
0
LINE
8
annotation
62
1
39
211
10
434.831122
20
285.417382
11
434.730475
21
285.570844
0
LINE
8
annotation
62
1
39
211
10
434.730475
20
285.570844
11
434.606089
21
285.703748
0
LINE
8
annotation
62
1
39
211
10
434.606089
20
285.703748
11
434.461352
21
285.813481
0
LINE
8
annotation
62
1
39
211
10
434.461352
20
285.813481
11
434.299653
21
285.897430
0
LINE
8
annotation
62
1
39
211
10
434.299653
20
285.897430
11
434.124379
21
285.952984
0
LINE
8
annotation
62
1
39
211
10
434.124379
20
285.952984
11
433.938917
21
285.977529
0
LINE
8
annotation
62
1
39
211
10
433.938917
20
285.977529
11
433.746657
21
285.968454
0
LINE
8
annotation
62
1
39
211
10
433.746657
20
285.968454
11
432.690701
21
285.823210
0
LINE
8
annotation
62
1
39
211
10
451.368821
20
387.791263
11
448.775277
21
387.177426
0
LINE
8
annotation
62
1
39
211
10
448.775277
20
387.177426
11
448.951308
21
391.055115
0
LINE
8
annotation
62
1
39
211
10
450.837173
20
386.568851
11
450.346186
21
388.643334
0
LINE
8
annotation
62
1
39
211
10
444.834847
20
161.019847
11
427.443072
21
161.019847
0
LINE
8
annotation
62
1
39
211
10
427.443072
20
161.019847
11
444.834847
21
192.342328
0
LINE
8
annotation
62
1
39
211
10
444.834847
20
192.342328
11
427.443072
21
192.342328
0
LINE
8
annotation
62
1
39
211
10
473.710321
20
176.681088
11
456.583724
21
176.681088
0
LINE
8
annotation
62
1
39
211
10
485.453305
20
161.020829
11
492.408837
21
161.020829
0
LINE
8
annotation
62
1
39
211
10
492.408837
20
161.020829
11
492.408837
21
161.020829
0
LINE
8
annotation
62
1
39
211
10
492.408837
20
161.020829
11
493.659806
21
161.133049
0
LINE
8
annotation
62
1
39
211
10
493.659806
20
161.133049
11
494.836924
21
161.456475
0
LINE
8
annotation
62
1
39
211
10
494.836924
20
161.456475
11
495.920614
21
161.971252
0
LINE
8
annotation
62
1
39
211
10
495.920614
20
161.971252
11
496.891297
21
162.657528
0
LINE
8
annotation
62
1
39
211
10
496.891297
20
162.657528
11
497.729394
21
163.495450
0
LINE
8
annotation
62
1
39
211
10
497.729394
20
163.495450
11
498.415328
21
164.465166
0
LINE
8
annotation
62
1
39
211
10
498.415328
20
164.465166
11
498.929521
21
165.546821
0
LINE
8
annotation
62
1
39
211
10
498.929521
20
165.546821
11
499.252394
21
166.720563
0
LINE
8
annotation
62
1
39
211
10
499.252394
20
166.720563
11
499.364369
21
167.966539
0
LINE
8
annotation
62
1
39
211
10
499.364369
20
167.966539
11
499.364369
21
171.449216
0
LINE
8
annotation
62
1
39
211
10
499.364369
20
171.449216
11
499.364369
21
171.449216
0
LINE
8
annotation
62
1
39
211
10
499.364369
20
171.449216
11
499.252394
21
172.694675
0
LINE
8
annotation
62
1
39
211
10
499.252394
20
172.694675
11
498.929521
21
173.868142
0
LINE
8
annotation
62
1
39
211
10
498.929521
20
173.868142
11
498.415328
21
174.949716
0
LINE
8
annotation
62
1
39
211
10
498.415328
20
174.949716
11
497.729394
21
175.919496
0
LINE
8
annotation
62
1
39
211
10
497.729394
20
175.919496
11
496.891297
21
176.757580
0
LINE
8
annotation
62
1
39
211
10
496.891297
20
176.757580
11
495.920614
21
177.444067
0
LINE
8
annotation
62
1
39
211
10
495.920614
20
177.444067
11
494.836924
21
177.959054
0
LINE
8
annotation
62
1
39
211
10
494.836924
20
177.959054
11
493.659806
21
178.282641
0
LINE
8
annotation
62
1
39
211
10
493.659806
20
178.282641
11
492.408837
21
178.394926
0
LINE
8
annotation
62
1
39
211
10
492.408837
20
178.394926
11
488.926161
21
178.394926
0
LINE
8
annotation
62
1
39
211
10
488.926161
20
178.394926
11
492.408837
21
178.394926
0
LINE
8
annotation
62
1
39
211
10
492.408837
20
178.394926
11
492.408837
21
178.394926
0
LINE
8
annotation
62
1
39
211
10
492.408837
20
178.394926
11
493.659806
21
178.507238
0
LINE
8
annotation
62
1
39
211
10
493.659806
20
178.507238
11
494.836924
21
178.831013
0
LINE
8
annotation
62
1
39
211
10
494.836924
20
178.831013
11
495.920614
21
179.346513
0
LINE
8
annotation
62
1
39
211
10
495.920614
20
179.346513
11
496.891297
21
180.033996
0
LINE
8
annotation
62
1
39
211
10
496.891297
20
180.033996
11
497.729394
21
180.873724
0
LINE
8
annotation
62
1
39
211
10
497.729394
20
180.873724
11
498.415328
21
181.845956
0
LINE
8
annotation
62
1
39
211
10
498.415328
20
181.845956
11
498.929521
21
182.930952
0
LINE
8
annotation
62
1
39
211
10
498.929521
20
182.930952
11
499.252394
21
184.108973
0
LINE
8
annotation
62
1
39
211
10
499.252394
20
184.108973
11
499.364369
21
185.360279
0
LINE
8
annotation
62
1
39
211
10
499.364369
20
185.360279
11
499.364369
21
185.360279
0
LINE
8
annotation
62
1
39
211
10
499.364369
20
185.360279
11
499.252394
21
186.605738
0
LINE
8
annotation
62
1
39
211
10
499.252394
20
186.605738
11
498.929521
21
187.779205
0
LINE
8
annotation
62
1
39
211
10
498.929521
20
187.779205
11
498.415328
21
188.860780
0
LINE
8
annotation
62
1
39
211
10
498.415328
20
188.860780
11
497.729394
21
189.830559
0
LINE
8
annotation
62
1
39
211
10
497.729394
20
189.830559
11
496.891297
21
190.668643
0
LINE
8
annotation
62
1
39
211
10
496.891297
20
190.668643
11
495.920614
21
191.355130
0
LINE
8
annotation
62
1
39
211
10
495.920614
20
191.355130
11
494.836924
21
191.870117
0
LINE
8
annotation
62
1
39
211
10
494.836924
20
191.870117
11
493.659806
21
192.193704
0
LINE
8
annotation
62
1
39
211
10
493.659806
20
192.193704
11
492.408837
21
192.305989
0
LINE
8
annotation
62
1
39
211
10
492.408837
20
192.305989
11
485.453305
21
192.305989
0
LINE
8
frame
62
5
39
2
10
0.000000
20
0.000000
11
600.000000
21
0.000000
0
LINE
8
frame
62
5
39
2
10
600.000000
20
0.000000
11
600.000000
21
500.000000
0
LINE
8
frame
62
5
39
2
10
600.000000
20
500.000000
11
0.000000
21
500.000000
0
LINE
8
frame
62
5
39
2
10
0.000000
20
500.000000
11
0.000000
21
0.000000
0
ENDSEC
0
EOF
