0
SECTION
2
HEADER
9
$ACADVER
1
AC1009
0
ENDSEC
0
SECTION
2
TABLES
0
TABLE
2
VPORT
70
1
0
VPORT
2
ACTIVE
70
0
10
0.0
20
0.0
11
0.0
21
0.0
12
0.0
22
0.0
13
0.0
23
0.0
14
0.0
24
0.0
15
0.0
25
0.0
16
0.0
26
0.0
36
0.0
17
0.0
27
0.0
37
0.0
40
0.0
41
0.0
42
0.0
43
0.0
44
0.0
50
0.0
51
0.0
71
0
72
1000
73
1
74
3
75
0
76
0
77
0
78
0
0
ENDTAB
0
ENDSEC
0
SECTION
2
ENTITIES
0
LINE
8
boundary
62
5
39
2
10
81.257666
20
41.800454
11
94.131959
21
23.387371
0
LINE
8
boundary
62
5
39
2
10
94.131959
20
23.387371
11
95.206929
21
21.608048
0
LINE
8
boundary
62
5
39
2
10
95.206929
20
21.608048
11
95.739822
21
20.546713
0
LINE
8
boundary
62
5
39
2
10
95.739822
20
20.546713
11
96.276692
21
19.658960
0
LINE
8
boundary
62
5
39
2
10
96.276692
20
19.658960
11
101.194693
21
11.849474
0
LINE
8
boundary
62
5
39
2
10
101.194693
20
11.849474
11
110.862341
21
9.484257
0
LINE
8
boundary
62
5
39
2
10
110.862341
20
9.484257
11
114.021754
21
8.928215
0
LINE
8
boundary
62
5
39
2
10
114.021754
20
8.928215
11
116.579180
21
8.314270
0
LINE
8
boundary
62
5
39
2
10
116.579180
20
8.314270
11
127.915613
21
6.667500
0
LINE
8
boundary
62
5
39
2
10
127.915613
20
6.667500
11
130.896841
21
6.842414
0
LINE
8
boundary
62
5
39
2
10
130.896841
20
6.842414
11
132.432147
21
7.167181
0
LINE
8
boundary
62
5
39
2
10
132.432147
20
7.167181
11
140.346000
21
8.967504
0
LINE
8
boundary
62
5
39
2
10
140.346000
20
8.967504
11
149.762303
21
13.573593
0
LINE
8
boundary
62
5
39
2
10
149.762303
20
13.573593
11
150.283166
21
13.824798
0
LINE
8
boundary
62
5
39
2
10
150.283166
20
13.824798
11
152.244355
21
18.334069
0
LINE
8
boundary
62
5
39
2
10
152.244355
20
18.334069
11
154.528125
21
24.085210
0
LINE
8
boundary
62
5
39
2
10
154.528125
20
24.085210
11
154.704178
21
24.684016
0
LINE
8
boundary
62
5
39
2
10
154.704178
20
24.684016
11
154.949555
21
25.239854
0
LINE
8
boundary
62
5
39
2
10
154.949555
20
25.239854
11
164.008416
21
49.417337
0
LINE
8
boundary
62
5
39
2
10
164.008416
20
49.417337
11
165.191771
21
52.648705
0
LINE
8
boundary
62
5
39
2
10
165.191771
20
52.648705
11
164.846052
21
57.341137
0
LINE
8
boundary
62
5
39
2
10
164.846052
20
57.341137
11
164.879336
21
63.343956
0
LINE
8
boundary
62
5
39
2
10
164.879336
20
63.343956
11
115.852152
21
63.413956
0
LINE
8
boundary
62
5
39
2
10
115.852152
20
63.413956
11
115.852151
21
64.559956
0
LINE
8
boundary
62
5
39
2
10
115.852151
20
64.559956
11
164.886078
21
64.559956
0
LINE
8
boundary
62
5
39
2
10
164.886078
20
64.559956
11
164.891150
21
65.474791
0
LINE
8
boundary
62
5
39
2
10
164.891150
20
65.474791
11
163.772124
21
81.443688
0
LINE
8
boundary
62
5
39
2
10
163.772124
20
81.443688
11
164.094882
21
90.546381
0
LINE
8
boundary
62
5
39
2
10
164.094882
20
90.546381
11
159.867277
21
105.015485
0
LINE
8
boundary
62
5
39
2
10
159.867277
20
105.015485
11
157.598084
21
112.842006
0
LINE
8
boundary
62
5
39
2
10
157.598084
20
112.842006
11
152.310241
21
131.511653
0
LINE
8
boundary
62
5
39
2
10
152.310241
20
131.511653
11
150.462350
21
135.693364
0
LINE
8
boundary
62
5
39
2
10
150.462350
20
135.693364
11
146.401407
21
155.212247
0
LINE
8
boundary
62
5
39
2
10
146.401407
20
155.212247
11
145.813720
21
157.772492
0
LINE
8
boundary
62
5
39
2
10
145.813720
20
157.772492
11
145.830695
21
158.626667
0
LINE
8
boundary
62
5
39
2
10
145.830695
20
158.626667
11
146.046849
21
164.257416
0
LINE
8
boundary
62
5
39
2
10
146.046849
20
164.257416
11
145.941987
21
169.819416
0
LINE
8
boundary
62
5
39
2
10
145.941987
20
169.819416
11
146.011833
21
184.576150
0
LINE
8
boundary
62
5
39
2
10
146.011833
20
184.576150
11
145.986430
21
186.553364
0
LINE
8
boundary
62
5
39
2
10
145.986430
20
186.553364
11
93.648733
21
186.623364
0
LINE
8
boundary
62
5
39
2
10
93.648733
20
186.623364
11
93.648733
21
187.769364
0
LINE
8
boundary
62
5
39
2
10
93.648733
20
187.769364
11
145.719368
21
187.769364
0
LINE
8
boundary
62
5
39
2
10
145.719368
20
187.769364
11
145.542225
21
188.304626
0
LINE
8
boundary
62
5
39
2
10
145.542225
20
188.304626
11
142.878887
21
195.842083
0
LINE
8
boundary
62
5
39
2
10
142.878887
20
195.842083
11
140.486536
21
200.284648
0
LINE
8
boundary
62
5
39
2
10
140.486536
20
200.284648
11
139.584144
21
201.685334
0
LINE
8
boundary
62
5
39
2
10
139.584144
20
201.685334
11
133.648759
21
216.240335
0
LINE
8
boundary
62
5
39
2
10
133.648759
20
216.240335
11
129.188461
21
222.784391
0
LINE
8
boundary
62
5
39
2
10
129.188461
20
222.784391
11
127.830195
21
223.623099
0
LINE
8
boundary
62
5
39
2
10
127.830195
20
223.623099
11
120.824013
21
223.267157
0
LINE
8
boundary
62
5
39
2
10
120.824013
20
223.267157
11
116.681357
21
223.670277
0
LINE
8
boundary
62
5
39
2
10
116.681357
20
223.670277
11
110.707145
21
223.772823
0
LINE
8
boundary
62
5
39
2
10
110.707145
20
223.772823
11
105.375802
21
223.469801
0
LINE
8
boundary
62
5
39
2
10
105.375802
20
223.469801
11
103.734075
21
221.908894
0
LINE
8
boundary
62
5
39
2
10
103.734075
20
221.908894
11
98.447880
21
217.390094
0
LINE
8
boundary
62
5
39
2
10
98.447880
20
217.390094
11
95.969217
21
214.815521
0
LINE
8
boundary
62
5
39
2
10
95.969217
20
214.815521
11
94.556655
21
213.400427
0
LINE
8
boundary
62
5
39
2
10
94.556655
20
213.400427
11
90.622122
21
209.393492
0
LINE
8
boundary
62
5
39
2
10
90.622122
20
209.393492
11
83.252240
21
202.983826
0
LINE
8
boundary
62
5
39
2
10
83.252240
20
202.983826
11
79.419242
21
199.122634
0
LINE
8
boundary
62
5
39
2
10
79.419242
20
199.122634
11
76.067906
21
196.356413
0
LINE
8
boundary
62
5
39
2
10
76.067906
20
196.356413
11
69.132778
21
191.114020
0
LINE
8
boundary
62
5
39
2
10
69.132778
20
191.114020
11
57.595252
21
194.596454
0
LINE
8
boundary
62
5
39
2
10
57.595252
20
194.596454
11
47.167008
21
197.428808
0
LINE
8
boundary
62
5
39
2
10
47.167008
20
197.428808
11
43.368157
21
198.421215
0
LINE
8
boundary
62
5
39
2
10
43.368157
20
198.421215
11
35.846139
21
200.902948
0
LINE
8
boundary
62
5
39
2
10
35.846139
20
200.902948
11
34.341829
21
201.428799
0
LINE
8
boundary
62
5
39
2
10
34.341829
20
201.428799
11
30.902632
21
201.467918
0
LINE
8
boundary
62
5
39
2
10
30.902632
20
201.467918
11
28.057192
21
202.677748
0
LINE
8
boundary
62
5
39
2
10
28.057192
20
202.677748
11
26.222938
21
202.962498
0
LINE
8
boundary
62
5
39
2
10
26.222938
20
202.962498
11
22.435305
21
205.522579
0
LINE
8
boundary
62
5
39
2
10
22.435305
20
205.522579
11
17.644114
21
210.171925
0
LINE
8
boundary
62
5
39
2
10
17.644114
20
210.171925
11
15.041518
21
212.382612
0
LINE
8
boundary
62
5
39
2
10
15.041518
20
212.382612
11
10.840252
21
216.099328
0
LINE
8
boundary
62
5
39
2
10
10.840252
20
216.099328
11
10.623436
21
219.016769
0
LINE
8
boundary
62
5
39
2
10
10.623436
20
219.016769
11
10.167696
21
223.841704
0
LINE
8
boundary
62
5
39
2
10
10.167696
20
223.841704
11
9.360935
21
226.262222
0
LINE
8
boundary
62
5
39
2
10
9.360935
20
226.262222
11
7.775399
21
229.295540
0
LINE
8
boundary
62
5
39
2
10
7.775399
20
229.295540
11
7.589187
21
227.345018
0
LINE
8
boundary
62
5
39
2
10
7.589187
20
227.345018
11
7.130409
21
219.813763
0
LINE
8
boundary
62
5
39
2
10
7.130409
20
219.813763
11
6.667500
21
216.031681
0
LINE
8
boundary
62
5
39
2
10
6.667500
20
216.031681
11
6.807181
21
214.303128
0
LINE
8
boundary
62
5
39
2
10
6.807181
20
214.303128
11
9.989355
21
209.701602
0
LINE
8
boundary
62
5
39
2
10
9.989355
20
209.701602
11
11.779468
21
207.690790
0
LINE
8
boundary
62
5
39
2
10
11.779468
20
207.690790
11
13.156971
21
205.614247
0
LINE
8
boundary
62
5
39
2
10
13.156971
20
205.614247
11
19.199049
21
200.817495
0
LINE
8
boundary
62
5
39
2
10
19.199049
20
200.817495
11
24.627070
21
197.574280
0
LINE
8
boundary
62
5
39
2
10
24.627070
20
197.574280
11
28.293979
21
195.595061
0
LINE
8
boundary
62
5
39
2
10
28.293979
20
195.595061
11
34.639775
21
191.119654
0
LINE
8
boundary
62
5
39
2
10
34.639775
20
191.119654
11
42.428624
21
186.518567
0
LINE
8
boundary
62
5
39
2
10
42.428624
20
186.518567
11
46.431538
21
184.426413
0
LINE
8
boundary
62
5
39
2
10
46.431538
20
184.426413
11
58.948761
21
177.713292
0
LINE
8
boundary
62
5
39
2
10
58.948761
20
177.713292
11
64.005059
21
174.547465
0
LINE
8
boundary
62
5
39
2
10
64.005059
20
174.547465
11
66.433713
21
173.386160
0
LINE
8
boundary
62
5
39
2
10
66.433713
20
173.386160
11
71.697808
21
171.054761
0
LINE
8
boundary
62
5
39
2
10
71.697808
20
171.054761
11
77.274805
21
169.324462
0
LINE
8
boundary
62
5
39
2
10
77.274805
20
169.324462
11
79.660878
21
171.433776
0
LINE
8
boundary
62
5
39
2
10
79.660878
20
171.433776
11
80.635679
21
171.049489
0
LINE
8
boundary
62
5
39
2
10
80.635679
20
171.049489
11
84.477094
21
181.487473
0
LINE
8
boundary
62
5
39
2
10
84.477094
20
181.487473
11
85.445081
21
168.133048
0
LINE
8
boundary
62
5
39
2
10
85.445081
20
168.133048
11
87.013313
21
170.323244
0
LINE
8
boundary
62
5
39
2
10
87.013313
20
170.323244
11
87.906897
21
170.743468
0
LINE
8
boundary
62
5
39
2
10
87.906897
20
170.743468
11
89.589740
21
173.642107
0
LINE
8
boundary
62
5
39
2
10
89.589740
20
173.642107
11
90.356151
21
175.735548
0
LINE
8
boundary
62
5
39
2
10
90.356151
20
175.735548
11
90.539843
21
172.191497
0
LINE
8
boundary
62
5
39
2
10
90.539843
20
172.191497
11
91.240736
21
168.227112
0
LINE
8
boundary
62
5
39
2
10
91.240736
20
168.227112
11
93.356030
21
163.966843
0
LINE
8
boundary
62
5
39
2
10
93.356030
20
163.966843
11
94.250528
21
162.775411
0
LINE
8
boundary
62
5
39
2
10
94.250528
20
162.775411
11
95.185339
21
162.421254
0
LINE
8
boundary
62
5
39
2
10
95.185339
20
162.421254
11
95.918009
21
161.636279
0
LINE
8
boundary
62
5
39
2
10
95.918009
20
161.636279
11
97.140283
21
155.349922
0
LINE
8
boundary
62
5
39
2
10
97.140283
20
155.349922
11
97.838319
21
152.791707
0
LINE
8
boundary
62
5
39
2
10
97.838319
20
152.791707
11
99.655992
21
147.137572
0
LINE
8
boundary
62
5
39
2
10
99.655992
20
147.137572
11
99.852389
21
136.311533
0
LINE
8
boundary
62
5
39
2
10
99.852389
20
136.311533
11
100.305603
21
126.532923
0
LINE
8
boundary
62
5
39
2
10
100.305603
20
126.532923
11
100.161274
21
124.800965
0
LINE
8
boundary
62
5
39
2
10
100.161274
20
124.800965
11
94.110829
21
117.332976
0
LINE
8
boundary
62
5
39
2
10
94.110829
20
117.332976
11
92.768901
21
115.768051
0
LINE
8
boundary
62
5
39
2
10
92.768901
20
115.768051
11
92.662830
21
115.207171
0
LINE
8
boundary
62
5
39
2
10
92.662830
20
115.207171
11
97.990552
21
104.262006
0
LINE
8
boundary
62
5
39
2
10
97.990552
20
104.262006
11
100.553346
21
100.859788
0
LINE
8
boundary
62
5
39
2
10
100.553346
20
100.859788
11
105.265929
21
94.650862
0
LINE
8
boundary
62
5
39
2
10
105.265929
20
94.650862
11
102.118207
21
90.046367
0
LINE
8
boundary
62
5
39
2
10
102.118207
20
90.046367
11
101.268285
21
88.345228
0
LINE
8
boundary
62
5
39
2
10
101.268285
20
88.345228
11
97.459583
21
82.941850
0
LINE
8
boundary
62
5
39
2
10
97.459583
20
82.941850
11
96.824931
21
82.159532
0
LINE
8
boundary
62
5
39
2
10
96.824931
20
82.159532
11
94.970822
21
76.919126
0
LINE
8
boundary
62
5
39
2
10
94.970822
20
76.919126
11
93.521808
21
74.918813
0
LINE
8
boundary
62
5
39
2
10
93.521808
20
74.918813
11
92.744177
21
74.361467
0
LINE
8
boundary
62
5
39
2
10
92.744177
20
74.361467
11
91.903739
21
73.994208
0
LINE
8
boundary
62
5
39
2
10
91.903739
20
73.994208
11
86.992258
21
71.897144
0
LINE
8
boundary
62
5
39
2
10
86.992258
20
71.897144
11
85.786988
21
73.022696
0
LINE
8
boundary
62
5
39
2
10
85.786988
20
73.022696
11
83.455796
21
74.605355
0
LINE
8
boundary
62
5
39
2
10
83.455796
20
74.605355
11
79.031356
21
73.761802
0
LINE
8
boundary
62
5
39
2
10
79.031356
20
73.761802
11
70.592553
21
69.587134
0
LINE
8
boundary
62
5
39
2
10
70.592553
20
69.587134
11
69.331164
21
71.162042
0
LINE
8
boundary
62
5
39
2
10
69.331164
20
71.162042
11
65.748100
21
75.279821
0
LINE
8
boundary
62
5
39
2
10
65.748100
20
75.279821
11
65.197503
21
76.108594
0
LINE
8
boundary
62
5
39
2
10
65.197503
20
76.108594
11
65.115770
21
75.175365
0
LINE
8
boundary
62
5
39
2
10
65.115770
20
75.175365
11
65.225031
21
74.209098
0
LINE
8
boundary
62
5
39
2
10
65.225031
20
74.209098
11
66.685444
21
63.686548
0
LINE
8
boundary
62
5
39
2
10
66.685444
20
63.686548
11
68.066027
21
57.428130
0
LINE
8
boundary
62
5
39
2
10
68.066027
20
57.428130
11
72.077986
21
51.285109
0
LINE
8
boundary
62
5
39
2
10
72.077986
20
51.285109
11
75.387643
21
52.973131
0
LINE
8
boundary
62
5
39
2
10
75.387643
20
52.973131
11
81.132745
21
41.997476
0
LINE
8
boundary
62
5
39
2
10
81.132745
20
41.997476
11
81.257666
21
41.800454
0
LINE
8
annotation
62
1
39
211
10
113.173931
20
62.866956
11
113.173931
21
65.106956
0
LINE
8
annotation
62
1
39
211
10
113.173931
20
65.106956
11
112.675950
21
64.608835
0
LINE
8
annotation
62
1
39
211
10
91.218871
20
186.076346
11
90.224034
21
186.076346
0
LINE
8
annotation
62
1
39
211
10
90.224034
20
186.076346
11
91.143296
21
187.556240
0
LINE
8
annotation
62
1
39
211
10
91.143296
20
187.556240
11
91.143296
21
187.556240
0
LINE
8
annotation
62
1
39
211
10
91.143296
20
187.556240
11
91.144395
21
187.557600
0
LINE
8
annotation
62
1
39
211
10
91.144395
20
187.557600
11
91.145449
21
187.558972
0
LINE
8
annotation
62
1
39
211
10
91.145449
20
187.558972
11
91.146465
21
187.560366
0
LINE
8
annotation
62
1
39
211
10
91.146465
20
187.560366
11
91.147449
21
187.561795
0
LINE
8
annotation
62
1
39
211
10
91.147449
20
187.561795
11
91.148409
21
187.563271
0
LINE
8
annotation
62
1
39
211
10
91.148409
20
187.563271
11
91.149352
21
187.564804
0
LINE
8
annotation
62
1
39
211
10
91.149352
20
187.564804
11
91.150285
21
187.566407
0
LINE
8
annotation
62
1
39
211
10
91.150285
20
187.566407
11
91.151214
21
187.568090
0
LINE
8
annotation
62
1
39
211
10
91.151214
20
187.568090
11
91.152146
21
187.569866
0
LINE
8
annotation
62
1
39
211
10
91.152146
20
187.569866
11
91.152146
21
187.569866
0
LINE
8
annotation
62
1
39
211
10
91.152146
20
187.569866
11
91.190102
21
187.651361
0
LINE
8
annotation
62
1
39
211
10
91.190102
20
187.651361
11
91.212276
21
187.735838
0
LINE
8
annotation
62
1
39
211
10
91.212276
20
187.735838
11
91.219209
21
187.821388
0
LINE
8
annotation
62
1
39
211
10
91.219209
20
187.821388
11
91.211447
21
187.906102
0
LINE
8
annotation
62
1
39
211
10
91.211447
20
187.906102
11
91.189533
21
187.988071
0
LINE
8
annotation
62
1
39
211
10
91.189533
20
187.988071
11
91.154009
21
188.065386
0
LINE
8
annotation
62
1
39
211
10
91.154009
20
188.065386
11
91.105419
21
188.136139
0
LINE
8
annotation
62
1
39
211
10
91.105419
20
188.136139
11
91.044307
21
188.198421
0
LINE
8
annotation
62
1
39
211
10
91.044307
20
188.198421
11
90.971215
21
188.250323
0
LINE
8
annotation
62
1
39
211
10
90.971215
20
188.250323
11
90.971215
21
188.250323
0
LINE
8
annotation
62
1
39
211
10
90.971215
20
188.250323
11
90.889494
21
188.287740
0
LINE
8
annotation
62
1
39
211
10
90.889494
20
188.287740
11
90.804888
21
188.309571
0
LINE
8
annotation
62
1
39
211
10
90.804888
20
188.309571
11
90.719288
21
188.316309
0
LINE
8
annotation
62
1
39
211
10
90.719288
20
188.316309
11
90.634587
21
188.308445
0
LINE
8
annotation
62
1
39
211
10
90.634587
20
188.308445
11
90.552676
21
188.286470
0
LINE
8
annotation
62
1
39
211
10
90.552676
20
188.286470
11
90.475446
21
188.250874
0
LINE
8
annotation
62
1
39
211
10
90.475446
20
188.250874
11
90.404789
21
188.202151
0
LINE
8
annotation
62
1
39
211
10
90.404789
20
188.202151
11
90.342596
21
188.140791
0
LINE
8
annotation
62
1
39
211
10
90.342596
20
188.140791
11
90.290759
21
188.067285
0
LINE
8
annotation
62
1
39
211
10
90.290759
20
188.067285
11
90.225438
21
187.941982
0
LINE
8
annotation
62
1
39
211
10
118.171022
20
29.951156
11
109.269925
21
29.951156
0
LINE
8
annotation
62
1
39
211
10
109.269925
20
29.951156
11
118.171022
21
45.981978
0
LINE
8
annotation
62
1
39
211
10
118.171022
20
45.981978
11
109.269925
21
45.981978
0
LINE
8
annotation
62
1
39
211
10
132.949467
20
37.966567
11
124.184088
21
37.966567
0
LINE
8
annotation
62
1
39
211
10
140.736922
20
29.951156
11
140.736922
21
29.951156
0
LINE
8
annotation
62
1
39
211
10
140.736922
20
29.951156
11
141.754930
21
30.330516
0
LINE
8
annotation
62
1
39
211
10
141.754930
20
30.330516
11
142.689335
21
30.843290
0
LINE
8
annotation
62
1
39
211
10
142.689335
20
30.843290
11
143.530481
21
31.476412
0
LINE
8
annotation
62
1
39
211
10
143.530481
20
31.476412
11
144.268712
21
32.216818
0
LINE
8
annotation
62
1
39
211
10
144.268712
20
32.216818
11
144.894372
21
33.051443
0
LINE
8
annotation
62
1
39
211
10
144.894372
20
33.051443
11
145.397806
21
33.967221
0
LINE
8
annotation
62
1
39
211
10
145.397806
20
33.967221
11
145.769356
21
34.951088
0
LINE
8
annotation
62
1
39
211
10
145.769356
20
34.951088
11
145.999367
21
35.989979
0
LINE
8
annotation
62
1
39
211
10
145.999367
20
35.989979
11
146.078184
21
37.070828
0
LINE
8
annotation
62
1
39
211
10
146.078184
20
37.070828
11
146.078184
21
42.417116
0
LINE
8
annotation
62
1
39
211
10
146.078184
20
42.417116
11
146.078184
21
42.417116
0
LINE
8
annotation
62
1
39
211
10
146.078184
20
42.417116
11
146.020875
21
43.057533
0
LINE
8
annotation
62
1
39
211
10
146.020875
20
43.057533
11
145.855629
21
43.660444
0
LINE
8
annotation
62
1
39
211
10
145.855629
20
43.660444
11
145.592465
21
44.215744
0
LINE
8
annotation
62
1
39
211
10
145.592465
20
44.215744
11
145.241405
21
44.713331
0
LINE
8
annotation
62
1
39
211
10
145.241405
20
44.713331
11
144.812467
21
45.143103
0
LINE
8
annotation
62
1
39
211
10
144.812467
20
45.143103
11
144.315673
21
45.494957
0
LINE
8
annotation
62
1
39
211
10
144.315673
20
45.494957
11
143.761041
21
45.758789
0
LINE
8
annotation
62
1
39
211
10
143.761041
20
45.758789
11
143.158593
21
45.924497
0
LINE
8
annotation
62
1
39
211
10
143.158593
20
45.924497
11
142.518348
21
45.981978
0
LINE
8
annotation
62
1
39
211
10
142.518348
20
45.981978
11
142.518348
21
45.981978
0
LINE
8
annotation
62
1
39
211
10
142.518348
20
45.981978
11
141.879427
21
45.924497
0
LINE
8
annotation
62
1
39
211
10
141.879427
20
45.924497
11
141.277682
21
45.758789
0
LINE
8
annotation
62
1
39
211
10
141.277682
20
45.758789
11
140.723257
21
45.494957
0
LINE
8
annotation
62
1
39
211
10
140.723257
20
45.494957
11
140.226297
21
45.143103
0
LINE
8
annotation
62
1
39
211
10
140.226297
20
45.143103
11
139.796946
21
44.713331
0
LINE
8
annotation
62
1
39
211
10
139.796946
20
44.713331
11
139.445347
21
44.215744
0
LINE
8
annotation
62
1
39
211
10
139.445347
20
44.215744
11
139.181646
21
43.660444
0
LINE
8
annotation
62
1
39
211
10
139.181646
20
43.660444
11
139.015986
21
43.057533
0
LINE
8
annotation
62
1
39
211
10
139.015986
20
43.057533
11
138.958512
21
42.417116
0
LINE
8
annotation
62
1
39
211
10
138.958512
20
42.417116
11
138.958512
21
40.634685
0
LINE
8
annotation
62
1
39
211
10
138.958512
20
40.634685
11
138.958512
21
40.634685
0
LINE
8
annotation
62
1
39
211
10
138.958512
20
40.634685
11
139.015986
21
39.994302
0
LINE
8
annotation
62
1
39
211
10
139.015986
20
39.994302
11
139.181646
21
39.391484
0
LINE
8
annotation
62
1
39
211
10
139.181646
20
39.391484
11
139.445347
21
38.836318
0
LINE
8
annotation
62
1
39
211
10
139.445347
20
38.836318
11
139.796946
21
38.338889
0
LINE
8
annotation
62
1
39
211
10
139.796946
20
38.338889
11
140.226297
21
37.909283
0
LINE
8
annotation
62
1
39
211
10
140.226297
20
37.909283
11
140.723257
21
37.557589
0
LINE
8
annotation
62
1
39
211
10
140.723257
20
37.557589
11
141.277682
21
37.293890
0
LINE
8
annotation
62
1
39
211
10
141.277682
20
37.293890
11
141.879427
21
37.128274
0
LINE
8
annotation
62
1
39
211
10
141.879427
20
37.128274
11
142.518348
21
37.070828
0
LINE
8
annotation
62
1
39
211
10
142.518348
20
37.070828
11
146.078184
21
37.070828
0
LINE
8
annotation
62
1
39
211
10
138.513658
20
27.947304
11
146.529069
21
27.947304
0
LINE
8
boundary
62
5
39
2
10
61.198887
20
282.236120
11
65.056755
21
271.467062
0
LINE
8
boundary
62
5
39
2
10
65.056755
20
271.467062
11
65.179589
21
265.840811
0
LINE
8
boundary
62
5
39
2
10
65.179589
20
265.840811
11
65.998123
21
264.347534
0
LINE
8
boundary
62
5
39
2
10
65.998123
20
264.347534
11
66.981193
21
265.935574
0
LINE
8
boundary
62
5
39
2
10
66.981193
20
265.935574
11
69.405609
21
270.346177
0
LINE
8
boundary
62
5
39
2
10
69.405609
20
270.346177
11
70.382045
21
273.305230
0
LINE
8
boundary
62
5
39
2
10
70.382045
20
273.305230
11
71.859335
21
275.213651
0
LINE
8
boundary
62
5
39
2
10
71.859335
20
275.213651
11
74.434979
21
276.251706
0
LINE
8
boundary
62
5
39
2
10
74.434979
20
276.251706
11
80.397792
21
265.823595
0
LINE
8
boundary
62
5
39
2
10
80.397792
20
265.823595
11
82.358386
21
263.031106
0
LINE
8
boundary
62
5
39
2
10
82.358386
20
263.031106
11
91.875618
21
249.718615
0
LINE
8
boundary
62
5
39
2
10
91.875618
20
249.718615
11
93.802070
21
247.117507
0
LINE
8
boundary
62
5
39
2
10
93.802070
20
247.117507
11
97.995661
21
240.364605
0
LINE
8
boundary
62
5
39
2
10
97.995661
20
240.364605
11
100.259205
21
238.073808
0
LINE
8
boundary
62
5
39
2
10
100.259205
20
238.073808
11
100.697504
21
237.531240
0
LINE
8
boundary
62
5
39
2
10
100.697504
20
237.531240
11
104.739846
21
236.480015
0
LINE
8
boundary
62
5
39
2
10
104.739846
20
236.480015
11
110.814051
21
235.265250
0
LINE
8
boundary
62
5
39
2
10
110.814051
20
235.265250
11
114.379391
21
234.578083
0
LINE
8
boundary
62
5
39
2
10
114.379391
20
234.578083
11
115.177583
21
234.345328
0
LINE
8
boundary
62
5
39
2
10
115.177583
20
234.345328
11
129.979741
21
232.581675
0
LINE
8
boundary
62
5
39
2
10
129.979741
20
232.581675
11
131.877246
21
232.470540
0
LINE
8
boundary
62
5
39
2
10
131.877246
20
232.470540
11
134.103631
21
232.670388
0
LINE
8
boundary
62
5
39
2
10
134.103631
20
232.670388
11
142.045576
21
234.554932
0
LINE
8
boundary
62
5
39
2
10
142.045576
20
234.554932
11
143.377025
21
235.427279
0
LINE
8
boundary
62
5
39
2
10
143.377025
20
235.427279
11
148.952776
21
237.693289
0
LINE
8
boundary
62
5
39
2
10
148.952776
20
237.693289
11
149.921690
21
239.548327
0
LINE
8
boundary
62
5
39
2
10
149.921690
20
239.548327
11
152.815981
21
247.525251
0
LINE
8
boundary
62
5
39
2
10
152.815981
20
247.525251
11
155.515178
21
254.030347
0
LINE
8
boundary
62
5
39
2
10
155.515178
20
254.030347
11
159.740825
21
265.227463
0
LINE
8
boundary
62
5
39
2
10
159.740825
20
265.227463
11
163.094239
21
275.634349
0
LINE
8
boundary
62
5
39
2
10
163.094239
20
275.634349
11
162.303692
21
285.135778
0
LINE
8
boundary
62
5
39
2
10
162.303692
20
285.135778
11
162.273942
21
287.189004
0
LINE
8
boundary
62
5
39
2
10
162.273942
20
287.189004
11
111.737525
21
287.189004
0
LINE
8
boundary
62
5
39
2
10
111.737525
20
287.189004
11
111.737525
21
288.335004
0
LINE
8
boundary
62
5
39
2
10
111.737525
20
288.335004
11
162.257338
21
288.335004
0
LINE
8
boundary
62
5
39
2
10
162.257338
20
288.335004
11
159.983011
21
306.241891
0
LINE
8
boundary
62
5
39
2
10
159.983011
20
306.241891
11
160.141938
21
311.358289
0
LINE
8
boundary
62
5
39
2
10
160.141938
20
311.358289
11
158.048214
21
320.225655
0
LINE
8
boundary
62
5
39
2
10
158.048214
20
320.225655
11
155.663593
21
329.661784
0
LINE
8
boundary
62
5
39
2
10
155.663593
20
329.661784
11
147.499329
21
358.270282
0
LINE
8
boundary
62
5
39
2
10
147.499329
20
358.270282
11
147.132744
21
359.278217
0
LINE
8
boundary
62
5
39
2
10
147.132744
20
359.278217
11
146.720467
21
361.577816
0
LINE
8
boundary
62
5
39
2
10
146.720467
20
361.577816
11
142.435913
21
382.279159
0
LINE
8
boundary
62
5
39
2
10
142.435913
20
382.279159
11
143.155887
21
389.956379
0
LINE
8
boundary
62
5
39
2
10
143.155887
20
389.956379
11
144.544092
21
401.551382
0
LINE
8
boundary
62
5
39
2
10
144.544092
20
401.551382
11
143.219065
21
406.517858
0
LINE
8
boundary
62
5
39
2
10
143.219065
20
406.517858
11
141.667590
21
410.398412
0
LINE
8
boundary
62
5
39
2
10
141.667590
20
410.398412
11
90.850946
21
410.398412
0
LINE
8
boundary
62
5
39
2
10
90.850946
20
410.398412
11
90.850946
21
411.544412
0
LINE
8
boundary
62
5
39
2
10
90.850946
20
411.544412
11
141.209411
21
411.544412
0
LINE
8
boundary
62
5
39
2
10
141.209411
20
411.544412
11
140.981220
21
412.115163
0
LINE
8
boundary
62
5
39
2
10
140.981220
20
412.115163
11
139.104162
21
420.572345
0
LINE
8
boundary
62
5
39
2
10
139.104162
20
420.572345
11
136.855349
21
425.552395
0
LINE
8
boundary
62
5
39
2
10
136.855349
20
425.552395
11
130.801360
21
437.817701
0
LINE
8
boundary
62
5
39
2
10
130.801360
20
437.817701
11
126.925575
21
442.954968
0
LINE
8
boundary
62
5
39
2
10
126.925575
20
442.954968
11
124.833235
21
445.147678
0
LINE
8
boundary
62
5
39
2
10
124.833235
20
445.147678
11
122.635167
21
445.230544
0
LINE
8
boundary
62
5
39
2
10
122.635167
20
445.230544
11
111.125817
21
445.863986
0
LINE
8
boundary
62
5
39
2
10
111.125817
20
445.863986
11
105.692831
21
446.084484
0
LINE
8
boundary
62
5
39
2
10
105.692831
20
446.084484
11
102.621010
21
443.974288
0
LINE
8
boundary
62
5
39
2
10
102.621010
20
443.974288
11
93.875173
21
436.005590
0
LINE
8
boundary
62
5
39
2
10
93.875173
20
436.005590
11
91.690569
21
433.636550
0
LINE
8
boundary
62
5
39
2
10
91.690569
20
433.636550
11
89.216474
21
430.985200
0
LINE
8
boundary
62
5
39
2
10
89.216474
20
430.985200
11
80.551785
21
423.865566
0
LINE
8
boundary
62
5
39
2
10
80.551785
20
423.865566
11
78.704173
21
422.252818
0
LINE
8
boundary
62
5
39
2
10
78.704173
20
422.252818
11
70.727741
21
416.664344
0
LINE
8
boundary
62
5
39
2
10
70.727741
20
416.664344
11
69.236656
21
415.284956
0
LINE
8
boundary
62
5
39
2
10
69.236656
20
415.284956
11
63.743658
21
416.484944
0
LINE
8
boundary
62
5
39
2
10
63.743658
20
416.484944
11
59.359280
21
417.511708
0
LINE
8
boundary
62
5
39
2
10
59.359280
20
417.511708
11
56.448434
21
418.679990
0
LINE
8
boundary
62
5
39
2
10
56.448434
20
418.679990
11
52.439688
21
419.745859
0
LINE
8
boundary
62
5
39
2
10
52.439688
20
419.745859
11
39.804427
21
423.757491
0
LINE
8
boundary
62
5
39
2
10
39.804427
20
423.757491
11
36.809214
21
424.717199
0
LINE
8
boundary
62
5
39
2
10
36.809214
20
424.717199
11
32.949855
21
425.867309
0
LINE
8
boundary
62
5
39
2
10
32.949855
20
425.867309
11
25.967061
21
428.065659
0
LINE
8
boundary
62
5
39
2
10
25.967061
20
428.065659
11
22.997030
21
429.398812
0
LINE
8
boundary
62
5
39
2
10
22.997030
20
429.398812
11
21.340966
21
430.735758
0
LINE
8
boundary
62
5
39
2
10
21.340966
20
430.735758
11
13.551455
21
437.085279
0
LINE
8
boundary
62
5
39
2
10
13.551455
20
437.085279
11
11.328189
21
439.424719
0
LINE
8
boundary
62
5
39
2
10
11.328189
20
439.424719
11
10.330480
21
443.149188
0
LINE
8
boundary
62
5
39
2
10
10.330480
20
443.149188
11
9.964736
21
447.561477
0
LINE
8
boundary
62
5
39
2
10
9.964736
20
447.561477
11
9.414971
21
449.179513
0
LINE
8
boundary
62
5
39
2
10
9.414971
20
449.179513
11
7.684045
21
454.302881
0
LINE
8
boundary
62
5
39
2
10
7.684045
20
454.302881
11
7.160121
21
449.668354
0
LINE
8
boundary
62
5
39
2
10
7.160121
20
449.668354
11
6.852543
21
447.175185
0
LINE
8
boundary
62
5
39
2
10
6.852543
20
447.175185
11
6.870680
21
445.302034
0
LINE
8
boundary
62
5
39
2
10
6.870680
20
445.302034
11
6.667500
21
437.263779
0
LINE
8
boundary
62
5
39
2
10
6.667500
20
437.263779
11
7.522282
21
435.529193
0
LINE
8
boundary
62
5
39
2
10
7.522282
20
435.529193
11
10.147364
21
431.751789
0
LINE
8
boundary
62
5
39
2
10
10.147364
20
431.751789
11
13.449783
21
428.430384
0
LINE
8
boundary
62
5
39
2
10
13.449783
20
428.430384
11
15.324158
21
426.749697
0
LINE
8
boundary
62
5
39
2
10
15.324158
20
426.749697
11
20.636752
21
422.331264
0
LINE
8
boundary
62
5
39
2
10
20.636752
20
422.331264
11
24.276868
21
419.436558
0
LINE
8
boundary
62
5
39
2
10
24.276868
20
419.436558
11
30.175260
21
416.136462
0
LINE
8
boundary
62
5
39
2
10
30.175260
20
416.136462
11
44.678588
21
408.523967
0
LINE
8
boundary
62
5
39
2
10
44.678588
20
408.523967
11
47.802646
21
406.701488
0
LINE
8
boundary
62
5
39
2
10
47.802646
20
406.701488
11
49.941187
21
405.562615
0
LINE
8
boundary
62
5
39
2
10
49.941187
20
405.562615
11
52.870203
21
403.964749
0
LINE
8
boundary
62
5
39
2
10
52.870203
20
403.964749
11
54.473700
21
403.039548
0
LINE
8
boundary
62
5
39
2
10
54.473700
20
403.039548
11
58.959932
21
400.753138
0
LINE
8
boundary
62
5
39
2
10
58.959932
20
400.753138
11
69.459695
21
395.432426
0
LINE
8
boundary
62
5
39
2
10
69.459695
20
395.432426
11
71.274647
21
394.789863
0
LINE
8
boundary
62
5
39
2
10
71.274647
20
394.789863
11
79.220957
21
392.296578
0
LINE
8
boundary
62
5
39
2
10
79.220957
20
392.296578
11
80.388643
21
392.179028
0
LINE
8
boundary
62
5
39
2
10
80.388643
20
392.179028
11
83.732057
21
391.281176
0
LINE
8
boundary
62
5
39
2
10
83.732057
20
391.281176
11
87.764618
21
390.162716
0
LINE
8
boundary
62
5
39
2
10
87.764618
20
390.162716
11
91.340009
21
387.730738
0
LINE
8
boundary
62
5
39
2
10
91.340009
20
387.730738
11
91.245792
21
388.990271
0
LINE
8
boundary
62
5
39
2
10
91.245792
20
388.990271
11
91.778980
21
390.461730
0
LINE
8
boundary
62
5
39
2
10
91.778980
20
390.461730
11
91.885684
21
391.080595
0
LINE
8
boundary
62
5
39
2
10
91.885684
20
391.080595
11
92.800343
21
393.815621
0
LINE
8
boundary
62
5
39
2
10
92.800343
20
393.815621
11
92.687478
21
393.090656
0
LINE
8
boundary
62
5
39
2
10
92.687478
20
393.090656
11
94.439504
21
388.002734
0
LINE
8
boundary
62
5
39
2
10
94.439504
20
388.002734
11
94.534044
21
386.781209
0
LINE
8
boundary
62
5
39
2
10
94.534044
20
386.781209
11
99.990333
21
383.454912
0
LINE
8
boundary
62
5
39
2
10
99.990333
20
383.454912
11
100.496748
21
380.398977
0
LINE
8
boundary
62
5
39
2
10
100.496748
20
380.398977
11
98.863502
21
379.895266
0
LINE
8
boundary
62
5
39
2
10
98.863502
20
379.895266
11
104.849077
21
368.800918
0
LINE
8
boundary
62
5
39
2
10
104.849077
20
368.800918
11
105.432442
21
364.847749
0
LINE
8
boundary
62
5
39
2
10
105.432442
20
364.847749
11
105.645985
21
348.294303
0
LINE
8
boundary
62
5
39
2
10
105.645985
20
348.294303
11
106.028745
21
346.103435
0
LINE
8
boundary
62
5
39
2
10
106.028745
20
346.103435
11
105.632382
21
345.530926
0
LINE
8
boundary
62
5
39
2
10
105.632382
20
345.530926
11
105.120901
21
345.102172
0
LINE
8
boundary
62
5
39
2
10
105.120901
20
345.102172
11
96.762909
21
335.646546
0
LINE
8
boundary
62
5
39
2
10
96.762909
20
335.646546
11
95.597510
21
334.313984
0
LINE
8
boundary
62
5
39
2
10
95.597510
20
334.313984
11
102.093160
21
327.099880
0
LINE
8
boundary
62
5
39
2
10
102.093160
20
327.099880
11
104.277528
21
323.120990
0
LINE
8
boundary
62
5
39
2
10
104.277528
20
323.120990
11
107.455127
21
318.785956
0
LINE
8
boundary
62
5
39
2
10
107.455127
20
318.785956
11
102.080057
21
310.703846
0
LINE
8
boundary
62
5
39
2
10
102.080057
20
310.703846
11
100.954062
21
308.918790
0
LINE
8
boundary
62
5
39
2
10
100.954062
20
308.918790
11
97.343095
21
304.443591
0
LINE
8
boundary
62
5
39
2
10
97.343095
20
304.443591
11
96.537077
21
302.703141
0
LINE
8
boundary
62
5
39
2
10
96.537077
20
302.703141
11
93.210387
21
300.172048
0
LINE
8
boundary
62
5
39
2
10
93.210387
20
300.172048
11
88.971447
21
296.756569
0
LINE
8
boundary
62
5
39
2
10
88.971447
20
296.756569
11
80.805266
21
296.875669
0
LINE
8
boundary
62
5
39
2
10
80.805266
20
296.875669
11
78.100079
21
297.864810
0
LINE
8
boundary
62
5
39
2
10
78.100079
20
297.864810
11
72.136790
21
302.841229
0
LINE
8
boundary
62
5
39
2
10
72.136790
20
302.841229
11
71.234343
21
303.684400
0
LINE
8
boundary
62
5
39
2
10
71.234343
20
303.684400
11
69.598376
21
305.636925
0
LINE
8
boundary
62
5
39
2
10
69.598376
20
305.636925
11
67.933756
21
306.908845
0
LINE
8
boundary
62
5
39
2
10
67.933756
20
306.908845
11
65.422316
21
306.168936
0
LINE
8
boundary
62
5
39
2
10
65.422316
20
306.168936
11
63.685880
21
304.614406
0
LINE
8
boundary
62
5
39
2
10
63.685880
20
304.614406
11
63.405555
21
304.029860
0
LINE
8
boundary
62
5
39
2
10
63.405555
20
304.029860
11
61.629933
21
300.370485
0
LINE
8
boundary
62
5
39
2
10
61.629933
20
300.370485
11
60.178389
21
296.039189
0
LINE
8
boundary
62
5
39
2
10
60.178389
20
296.039189
11
60.610580
21
293.859614
0
LINE
8
boundary
62
5
39
2
10
60.610580
20
293.859614
11
60.871191
21
290.173968
0
LINE
8
boundary
62
5
39
2
10
60.871191
20
290.173968
11
61.198887
21
282.236120
0
LINE
8
annotation
62
1
39
211
10
109.059305
20
286.642004
11
109.059305
21
288.882004
0
LINE
8
annotation
62
1
39
211
10
109.059305
20
288.882004
11
108.561324
21
288.383883
0
LINE
8
annotation
62
1
39
211
10
88.421084
20
409.851394
11
87.426247
21
409.851394
0
LINE
8
annotation
62
1
39
211
10
87.426247
20
409.851394
11
88.345509
21
411.331288
0
LINE
8
annotation
62
1
39
211
10
88.345509
20
411.331288
11
88.345509
21
411.331288
0
LINE
8
annotation
62
1
39
211
10
88.345509
20
411.331288
11
88.346608
21
411.332648
0
LINE
8
annotation
62
1
39
211
10
88.346608
20
411.332648
11
88.347662
21
411.334020
0
LINE
8
annotation
62
1
39
211
10
88.347662
20
411.334020
11
88.348678
21
411.335414
0
LINE
8
annotation
62
1
39
211
10
88.348678
20
411.335414
11
88.349662
21
411.336843
0
LINE
8
annotation
62
1
39
211
10
88.349662
20
411.336843
11
88.350622
21
411.338319
0
LINE
8
annotation
62
1
39
211
10
88.350622
20
411.338319
11
88.351565
21
411.339852
0
LINE
8
annotation
62
1
39
211
10
88.351565
20
411.339852
11
88.352498
21
411.341455
0
LINE
8
annotation
62
1
39
211
10
88.352498
20
411.341455
11
88.353427
21
411.343138
0
LINE
8
annotation
62
1
39
211
10
88.353427
20
411.343138
11
88.354359
21
411.344914
0
LINE
8
annotation
62
1
39
211
10
88.354359
20
411.344914
11
88.354359
21
411.344914
0
LINE
8
annotation
62
1
39
211
10
88.354359
20
411.344914
11
88.392315
21
411.426410
0
LINE
8
annotation
62
1
39
211
10
88.392315
20
411.426410
11
88.414489
21
411.510886
0
LINE
8
annotation
62
1
39
211
10
88.414489
20
411.510886
11
88.421423
21
411.596436
0
LINE
8
annotation
62
1
39
211
10
88.421423
20
411.596436
11
88.413660
21
411.681150
0
LINE
8
annotation
62
1
39
211
10
88.413660
20
411.681150
11
88.391746
21
411.763119
0
LINE
8
annotation
62
1
39
211
10
88.391746
20
411.763119
11
88.356222
21
411.840434
0
LINE
8
annotation
62
1
39
211
10
88.356222
20
411.840434
11
88.307632
21
411.911187
0
LINE
8
annotation
62
1
39
211
10
88.307632
20
411.911187
11
88.246520
21
411.973469
0
LINE
8
annotation
62
1
39
211
10
88.246520
20
411.973469
11
88.173429
21
412.025371
0
LINE
8
annotation
62
1
39
211
10
88.173429
20
412.025371
11
88.173429
21
412.025371
0
LINE
8
annotation
62
1
39
211
10
88.173429
20
412.025371
11
88.091707
21
412.062788
0
LINE
8
annotation
62
1
39
211
10
88.091707
20
412.062788
11
88.007101
21
412.084619
0
LINE
8
annotation
62
1
39
211
10
88.007101
20
412.084619
11
87.921501
21
412.091357
0
LINE
8
annotation
62
1
39
211
10
87.921501
20
412.091357
11
87.836800
21
412.083493
0
LINE
8
annotation
62
1
39
211
10
87.836800
20
412.083493
11
87.754889
21
412.061518
0
LINE
8
annotation
62
1
39
211
10
87.754889
20
412.061518
11
87.677659
21
412.025923
0
LINE
8
annotation
62
1
39
211
10
87.677659
20
412.025923
11
87.607002
21
411.977199
0
LINE
8
annotation
62
1
39
211
10
87.607002
20
411.977199
11
87.544809
21
411.915839
0
LINE
8
annotation
62
1
39
211
10
87.544809
20
411.915839
11
87.492972
21
411.842333
0
LINE
8
annotation
62
1
39
211
10
87.492972
20
411.842333
11
87.427652
21
411.717030
0
LINE
8
annotation
62
1
39
211
10
117.005816
20
255.670978
11
108.136532
21
255.670978
0
LINE
8
annotation
62
1
39
211
10
108.136532
20
255.670978
11
117.005816
21
271.644503
0
LINE
8
annotation
62
1
39
211
10
117.005816
20
271.644503
11
108.136532
21
271.644503
0
LINE
8
annotation
62
1
39
211
10
131.731441
20
263.657741
11
122.997390
21
263.657741
0
LINE
8
annotation
62
1
39
211
10
144.815441
20
255.670848
11
137.721216
21
255.670848
0
LINE
8
annotation
62
1
39
211
10
137.721216
20
255.670848
11
144.276513
21
266.224033
0
LINE
8
annotation
62
1
39
211
10
144.276513
20
266.224033
11
144.276513
21
266.224033
0
LINE
8
annotation
62
1
39
211
10
144.276513
20
266.224033
11
144.284349
21
266.233730
0
LINE
8
annotation
62
1
39
211
10
144.284349
20
266.233730
11
144.291864
21
266.243510
0
LINE
8
annotation
62
1
39
211
10
144.291864
20
266.243510
11
144.299107
21
266.253454
0
LINE
8
annotation
62
1
39
211
10
144.299107
20
266.253454
11
144.306127
21
266.263646
0
LINE
8
annotation
62
1
39
211
10
144.306127
20
266.263646
11
144.312975
21
266.274168
0
LINE
8
annotation
62
1
39
211
10
144.312975
20
266.274168
11
144.319698
21
266.285101
0
LINE
8
annotation
62
1
39
211
10
144.319698
20
266.285101
11
144.326347
21
266.296530
0
LINE
8
annotation
62
1
39
211
10
144.326347
20
266.296530
11
144.332972
21
266.308535
0
LINE
8
annotation
62
1
39
211
10
144.332972
20
266.308535
11
144.339621
21
266.321201
0
LINE
8
annotation
62
1
39
211
10
144.339621
20
266.321201
11
144.339621
21
266.321201
0
LINE
8
annotation
62
1
39
211
10
144.339621
20
266.321201
11
144.610288
21
266.902345
0
LINE
8
annotation
62
1
39
211
10
144.610288
20
266.902345
11
144.768407
21
267.504752
0
LINE
8
annotation
62
1
39
211
10
144.768407
20
267.504752
11
144.817853
21
268.114810
0
LINE
8
annotation
62
1
39
211
10
144.817853
20
268.114810
11
144.762501
21
268.718907
0
LINE
8
annotation
62
1
39
211
10
144.762501
20
268.718907
11
144.606226
21
269.303432
0
LINE
8
annotation
62
1
39
211
10
144.606226
20
269.303432
11
144.352904
21
269.854771
0
LINE
8
annotation
62
1
39
211
10
144.352904
20
269.854771
11
144.006408
21
270.359314
0
LINE
8
annotation
62
1
39
211
10
144.006408
20
270.359314
11
143.570614
21
270.803449
0
LINE
8
annotation
62
1
39
211
10
143.570614
20
270.803449
11
143.049398
21
271.173562
0
LINE
8
annotation
62
1
39
211
10
143.049398
20
271.173562
11
143.049398
21
271.173562
0
LINE
8
annotation
62
1
39
211
10
143.049398
20
271.173562
11
142.466638
21
271.440383
0
LINE
8
annotation
62
1
39
211
10
142.466638
20
271.440383
11
141.863308
21
271.596065
0
LINE
8
annotation
62
1
39
211
10
141.863308
20
271.596065
11
141.252895
21
271.644114
0
LINE
8
annotation
62
1
39
211
10
141.252895
20
271.644114
11
140.648888
21
271.588032
0
LINE
8
annotation
62
1
39
211
10
140.648888
20
271.588032
11
140.064776
21
271.431325
0
LINE
8
annotation
62
1
39
211
10
140.064776
20
271.431325
11
139.514047
21
271.177495
0
LINE
8
annotation
62
1
39
211
10
139.514047
20
271.177495
11
139.010188
21
270.830047
0
LINE
8
annotation
62
1
39
211
10
139.010188
20
270.830047
11
138.566688
21
270.392485
0
LINE
8
annotation
62
1
39
211
10
138.566688
20
270.392485
11
138.197036
21
269.868313
0
LINE
8
annotation
62
1
39
211
10
138.197036
20
269.868313
11
137.731234
21
268.974773
0
LINE
8
annotation
62
1
39
211
10
6.809197
20
457.621340
11
6.777130
21
457.574958
0
LINE
8
annotation
62
1
39
211
10
6.777130
20
457.574958
11
6.745057
21
457.621340
0
LINE
8
annotation
62
1
39
211
10
6.777130
20
457.578690
11
6.777130
21
457.525181
0
LINE
8
annotation
62
1
39
211
10
6.897841
20
457.573260
11
6.845266
21
457.573260
0
LINE
8
annotation
62
1
39
211
10
6.933889
20
457.525187
11
6.955241
21
457.525187
0
LINE
8
annotation
62
1
39
211
10
6.955241
20
457.525187
11
6.955241
21
457.525187
0
LINE
8
annotation
62
1
39
211
10
6.955241
20
457.525187
11
6.959081
21
457.525531
0
LINE
8
annotation
62
1
39
211
10
6.959081
20
457.525531
11
6.962695
21
457.526524
0
LINE
8
annotation
62
1
39
211
10
6.962695
20
457.526524
11
6.966022
21
457.528105
0
LINE
8
annotation
62
1
39
211
10
6.966022
20
457.528105
11
6.969001
21
457.530211
0
LINE
8
annotation
62
1
39
211
10
6.969001
20
457.530211
11
6.971574
21
457.532784
0
LINE
8
annotation
62
1
39
211
10
6.971574
20
457.532784
11
6.973680
21
457.535760
0
LINE
8
annotation
62
1
39
211
10
6.973680
20
457.535760
11
6.975258
21
457.539081
0
LINE
8
annotation
62
1
39
211
10
6.975258
20
457.539081
11
6.976249
21
457.542684
0
LINE
8
annotation
62
1
39
211
10
6.976249
20
457.542684
11
6.976593
21
457.546509
0
LINE
8
annotation
62
1
39
211
10
6.976593
20
457.546509
11
6.976593
21
457.557200
0
LINE
8
annotation
62
1
39
211
10
6.976593
20
457.557200
11
6.976593
21
457.557200
0
LINE
8
annotation
62
1
39
211
10
6.976593
20
457.557200
11
6.976249
21
457.561023
0
LINE
8
annotation
62
1
39
211
10
6.976249
20
457.561023
11
6.975258
21
457.564625
0
LINE
8
annotation
62
1
39
211
10
6.975258
20
457.564625
11
6.973680
21
457.567946
0
LINE
8
annotation
62
1
39
211
10
6.973680
20
457.567946
11
6.971574
21
457.570923
0
LINE
8
annotation
62
1
39
211
10
6.971574
20
457.570923
11
6.969001
21
457.573495
0
LINE
8
annotation
62
1
39
211
10
6.969001
20
457.573495
11
6.966022
21
457.575603
0
LINE
8
annotation
62
1
39
211
10
6.966022
20
457.575603
11
6.962695
21
457.577183
0
LINE
8
annotation
62
1
39
211
10
6.962695
20
457.577183
11
6.959081
21
457.578177
0
LINE
8
annotation
62
1
39
211
10
6.959081
20
457.578177
11
6.955241
21
457.578522
0
LINE
8
annotation
62
1
39
211
10
6.955241
20
457.578522
11
6.944550
21
457.578522
0
LINE
8
annotation
62
1
39
211
10
6.944550
20
457.578522
11
6.955241
21
457.578522
0
LINE
8
annotation
62
1
39
211
10
6.955241
20
457.578522
11
6.955241
21
457.578522
0
LINE
8
annotation
62
1
39
211
10
6.955241
20
457.578522
11
6.959081
21
457.578866
0
LINE
8
annotation
62
1
39
211
10
6.959081
20
457.578866
11
6.962695
21
457.579860
0
LINE
8
annotation
62
1
39
211
10
6.962695
20
457.579860
11
6.966022
21
457.581443
0
LINE
8
annotation
62
1
39
211
10
6.966022
20
457.581443
11
6.969001
21
457.583553
0
LINE
8
annotation
62
1
39
211
10
6.969001
20
457.583553
11
6.971574
21
457.586131
0
LINE
8
annotation
62
1
39
211
10
6.971574
20
457.586131
11
6.973680
21
457.589115
0
LINE
8
annotation
62
1
39
211
10
6.973680
20
457.589115
11
6.975258
21
457.592446
0
LINE
8
annotation
62
1
39
211
10
6.975258
20
457.592446
11
6.976249
21
457.596062
0
LINE
8
annotation
62
1
39
211
10
6.976249
20
457.596062
11
6.976593
21
457.599904
0
LINE
8
annotation
62
1
39
211
10
6.976593
20
457.599904
11
6.976593
21
457.599904
0
LINE
8
annotation
62
1
39
211
10
6.976593
20
457.599904
11
6.976249
21
457.603727
0
LINE
8
annotation
62
1
39
211
10
6.976249
20
457.603727
11
6.975258
21
457.607329
0
LINE
8
annotation
62
1
39
211
10
6.975258
20
457.607329
11
6.973680
21
457.610649
0
LINE
8
annotation
62
1
39
211
10
6.973680
20
457.610649
11
6.971574
21
457.613626
0
LINE
8
annotation
62
1
39
211
10
6.971574
20
457.613626
11
6.969001
21
457.616199
0
LINE
8
annotation
62
1
39
211
10
6.969001
20
457.616199
11
6.966022
21
457.618306
0
LINE
8
annotation
62
1
39
211
10
6.966022
20
457.618306
11
6.962695
21
457.619887
0
LINE
8
annotation
62
1
39
211
10
6.962695
20
457.619887
11
6.959081
21
457.620881
0
LINE
8
annotation
62
1
39
211
10
6.959081
20
457.620881
11
6.955241
21
457.621225
0
LINE
8
annotation
62
1
39
211
10
6.955241
20
457.621225
11
6.933889
21
457.621225
0
LINE
8
annotation
62
1
39
211
10
7.065234
20
457.573260
11
7.012660
21
457.573260
0
LINE
8
annotation
62
1
39
211
10
7.143994
20
457.525183
11
7.101290
21
457.525183
0
LINE
8
annotation
62
1
39
211
10
7.101290
20
457.525183
11
7.140750
21
457.588708
0
LINE
8
annotation
62
1
39
211
10
7.140750
20
457.588708
11
7.140750
21
457.588708
0
LINE
8
annotation
62
1
39
211
10
7.140750
20
457.588708
11
7.140797
21
457.588767
0
LINE
8
annotation
62
1
39
211
10
7.140797
20
457.588767
11
7.140842
21
457.588825
0
LINE
8
annotation
62
1
39
211
10
7.140842
20
457.588825
11
7.140886
21
457.588885
0
LINE
8
annotation
62
1
39
211
10
7.140886
20
457.588885
11
7.140928
21
457.588947
0
LINE
8
annotation
62
1
39
211
10
7.140928
20
457.588947
11
7.140969
21
457.589010
0
LINE
8
annotation
62
1
39
211
10
7.140969
20
457.589010
11
7.141010
21
457.589076
0
LINE
8
annotation
62
1
39
211
10
7.141010
20
457.589076
11
7.141050
21
457.589145
0
LINE
8
annotation
62
1
39
211
10
7.141050
20
457.589145
11
7.141089
21
457.589217
0
LINE
8
annotation
62
1
39
211
10
7.141089
20
457.589217
11
7.141129
21
457.589293
0
LINE
8
annotation
62
1
39
211
10
7.141129
20
457.589293
11
7.141129
21
457.589293
0
LINE
8
annotation
62
1
39
211
10
7.141129
20
457.589293
11
7.142759
21
457.592791
0
LINE
8
annotation
62
1
39
211
10
7.142759
20
457.592791
11
7.143711
21
457.596418
0
LINE
8
annotation
62
1
39
211
10
7.143711
20
457.596418
11
7.144008
21
457.600090
0
LINE
8
annotation
62
1
39
211
10
7.144008
20
457.600090
11
7.143675
21
457.603726
0
LINE
8
annotation
62
1
39
211
10
7.143675
20
457.603726
11
7.142734
21
457.607245
0
LINE
8
annotation
62
1
39
211
10
7.142734
20
457.607245
11
7.141209
21
457.610564
0
LINE
8
annotation
62
1
39
211
10
7.141209
20
457.610564
11
7.139124
21
457.613601
0
LINE
8
annotation
62
1
39
211
10
7.139124
20
457.613601
11
7.136500
21
457.616274
0
LINE
8
annotation
62
1
39
211
10
7.136500
20
457.616274
11
7.133363
21
457.618502
0
LINE
8
annotation
62
1
39
211
10
7.133363
20
457.618502
11
7.133363
21
457.618502
0
LINE
8
annotation
62
1
39
211
10
7.133363
20
457.618502
11
7.129855
21
457.620108
0
LINE
8
annotation
62
1
39
211
10
7.129855
20
457.620108
11
7.126223
21
457.621045
0
LINE
8
annotation
62
1
39
211
10
7.126223
20
457.621045
11
7.122549
21
457.621335
0
LINE
8
annotation
62
1
39
211
10
7.122549
20
457.621335
11
7.118913
21
457.620997
0
LINE
8
annotation
62
1
39
211
10
7.118913
20
457.620997
11
7.115397
21
457.620054
0
LINE
8
annotation
62
1
39
211
10
7.115397
20
457.620054
11
7.112082
21
457.618526
0
LINE
8
annotation
62
1
39
211
10
7.112082
20
457.618526
11
7.109049
21
457.616434
0
LINE
8
annotation
62
1
39
211
10
7.109049
20
457.616434
11
7.106379
21
457.613800
0
LINE
8
annotation
62
1
39
211
10
7.106379
20
457.613800
11
7.104154
21
457.610645
0
LINE
8
annotation
62
1
39
211
10
7.104154
20
457.610645
11
7.101350
21
457.605266
0
LINE
8
boundary
62
5
39
2
10
181.901432
20
25.851263
11
187.341108
21
17.679741
0
LINE
8
boundary
62
5
39
2
10
187.341108
20
17.679741
11
194.538082
21
10.795383
0
LINE
8
boundary
62
5
39
2
10
194.538082
20
10.795383
11
197.261354
21
8.962400
0
LINE
8
boundary
62
5
39
2
10
197.261354
20
8.962400
11
199.359090
21
6.851957
0
LINE
8
boundary
62
5
39
2
10
199.359090
20
6.851957
11
202.214200
21
7.184802
0
LINE
8
boundary
62
5
39
2
10
202.214200
20
7.184802
11
204.377705
21
7.116041
0
LINE
8
boundary
62
5
39
2
10
204.377705
20
7.116041
11
208.216361
21
6.667500
0
LINE
8
boundary
62
5
39
2
10
208.216361
20
6.667500
11
215.076630
21
6.702029
0
LINE
8
boundary
62
5
39
2
10
215.076630
20
6.702029
11
221.875017
21
7.698039
0
LINE
8
boundary
62
5
39
2
10
221.875017
20
7.698039
11
223.810417
21
8.422927
0
LINE
8
boundary
62
5
39
2
10
223.810417
20
8.422927
11
231.006948
21
11.853915
0
LINE
8
boundary
62
5
39
2
10
231.006948
20
11.853915
11
233.280548
21
12.857526
0
LINE
8
boundary
62
5
39
2
10
233.280548
20
12.857526
11
246.770544
21
21.596547
0
LINE
8
boundary
62
5
39
2
10
246.770544
20
21.596547
11
249.170851
21
23.276806
0
LINE
8
boundary
62
5
39
2
10
249.170851
20
23.276806
11
254.821694
21
32.886197
0
LINE
8
boundary
62
5
39
2
10
254.821694
20
32.886197
11
256.885967
21
37.149126
0
LINE
8
boundary
62
5
39
2
10
256.885967
20
37.149126
11
264.134389
21
51.108892
0
LINE
8
boundary
62
5
39
2
10
264.134389
20
51.108892
11
267.250182
21
60.021101
0
LINE
8
boundary
62
5
39
2
10
267.250182
20
60.021101
11
270.705930
21
72.667338
0
LINE
8
boundary
62
5
39
2
10
270.705930
20
72.667338
11
222.371738
21
72.667338
0
LINE
8
boundary
62
5
39
2
10
222.371738
20
72.667338
11
222.371738
21
73.813339
0
LINE
8
boundary
62
5
39
2
10
222.371738
20
73.813339
11
271.009583
21
73.813338
0
LINE
8
boundary
62
5
39
2
10
271.009583
20
73.813338
11
275.082281
21
92.450540
0
LINE
8
boundary
62
5
39
2
10
275.082281
20
92.450540
11
275.593961
21
95.781680
0
LINE
8
boundary
62
5
39
2
10
275.593961
20
95.781680
11
276.755871
21
119.596780
0
LINE
8
boundary
62
5
39
2
10
276.755871
20
119.596780
11
276.799110
21
123.450396
0
LINE
8
boundary
62
5
39
2
10
276.799110
20
123.450396
11
273.600139
21
140.400268
0
LINE
8
boundary
62
5
39
2
10
273.600139
20
140.400268
11
272.812559
21
144.717078
0
LINE
8
boundary
62
5
39
2
10
272.812559
20
144.717078
11
268.243776
21
158.312090
0
LINE
8
boundary
62
5
39
2
10
268.243776
20
158.312090
11
266.747878
21
162.394929
0
LINE
8
boundary
62
5
39
2
10
266.747878
20
162.394929
11
262.525609
21
171.908496
0
LINE
8
boundary
62
5
39
2
10
262.525609
20
171.908496
11
261.654183
21
173.608919
0
LINE
8
boundary
62
5
39
2
10
261.654183
20
173.608919
11
259.939979
21
176.404225
0
LINE
8
boundary
62
5
39
2
10
259.939979
20
176.404225
11
253.089666
21
187.050022
0
LINE
8
boundary
62
5
39
2
10
253.089666
20
187.050022
11
249.640838
21
192.895402
0
LINE
8
boundary
62
5
39
2
10
249.640838
20
192.895402
11
247.941352
21
195.876746
0
LINE
8
boundary
62
5
39
2
10
247.941352
20
195.876746
11
208.288300
21
195.876746
0
LINE
8
boundary
62
5
39
2
10
208.288300
20
195.876746
11
208.288300
21
197.022747
0
LINE
8
boundary
62
5
39
2
10
208.288300
20
197.022747
11
247.288086
21
197.022746
0
LINE
8
boundary
62
5
39
2
10
247.288086
20
197.022746
11
245.915369
21
199.430852
0
LINE
8
boundary
62
5
39
2
10
245.915369
20
199.430852
11
244.794344
21
201.890176
0
LINE
8
boundary
62
5
39
2
10
244.794344
20
201.890176
11
239.582871
21
219.319757
0
LINE
8
boundary
62
5
39
2
10
239.582871
20
219.319757
11
238.385230
21
223.243906
0
LINE
8
boundary
62
5
39
2
10
238.385230
20
223.243906
11
237.442328
21
228.318422
0
LINE
8
boundary
62
5
39
2
10
237.442328
20
228.318422
11
235.473826
21
237.589817
0
LINE
8
boundary
62
5
39
2
10
235.473826
20
237.589817
11
237.068257
21
244.350639
0
LINE
8
boundary
62
5
39
2
10
237.068257
20
244.350639
11
237.979050
21
248.134693
0
LINE
8
boundary
62
5
39
2
10
237.979050
20
248.134693
11
240.595839
21
258.115500
0
LINE
8
boundary
62
5
39
2
10
240.595839
20
258.115500
11
243.505232
21
262.455468
0
LINE
8
boundary
62
5
39
2
10
243.505232
20
262.455468
11
243.713063
21
263.354300
0
LINE
8
boundary
62
5
39
2
10
243.713063
20
263.354300
11
244.576378
21
267.773201
0
LINE
8
boundary
62
5
39
2
10
244.576378
20
267.773201
11
243.682933
21
269.191713
0
LINE
8
boundary
62
5
39
2
10
243.682933
20
269.191713
11
242.718102
21
273.532259
0
LINE
8
boundary
62
5
39
2
10
242.718102
20
273.532259
11
241.032058
21
278.395306
0
LINE
8
boundary
62
5
39
2
10
241.032058
20
278.395306
11
215.445345
21
278.465305
0
LINE
8
boundary
62
5
39
2
10
215.445345
20
278.465305
11
215.445345
21
279.611305
0
LINE
8
boundary
62
5
39
2
10
215.445345
20
279.611305
11
240.618945
21
279.611305
0
LINE
8
boundary
62
5
39
2
10
240.618945
20
279.611305
11
235.370390
21
292.454950
0
LINE
8
boundary
62
5
39
2
10
235.370390
20
292.454950
11
233.783180
21
296.670881
0
LINE
8
boundary
62
5
39
2
10
233.783180
20
296.670881
11
231.385784
21
304.212597
0
LINE
8
boundary
62
5
39
2
10
231.385784
20
304.212597
11
226.314626
21
310.083758
0
LINE
8
boundary
62
5
39
2
10
226.314626
20
310.083758
11
225.827855
21
310.657949
0
LINE
8
boundary
62
5
39
2
10
225.827855
20
310.657949
11
222.225453
21
314.029230
0
LINE
8
boundary
62
5
39
2
10
222.225453
20
314.029230
11
214.621931
21
321.292574
0
LINE
8
boundary
62
5
39
2
10
214.621931
20
321.292574
11
212.283018
21
323.685293
0
LINE
8
boundary
62
5
39
2
10
212.283018
20
323.685293
11
206.439985
21
327.312459
0
LINE
8
boundary
62
5
39
2
10
206.439985
20
327.312459
11
204.350541
21
328.969040
0
LINE
8
boundary
62
5
39
2
10
204.350541
20
328.969040
11
198.782647
21
331.742147
0
LINE
8
boundary
62
5
39
2
10
198.782647
20
331.742147
11
197.685330
21
331.709253
0
LINE
8
boundary
62
5
39
2
10
197.685330
20
331.709253
11
196.276708
21
331.035179
0
LINE
8
boundary
62
5
39
2
10
196.276708
20
331.035179
11
191.989934
21
329.350961
0
LINE
8
boundary
62
5
39
2
10
191.989934
20
329.350961
11
190.446462
21
327.807160
0
LINE
8
boundary
62
5
39
2
10
190.446462
20
327.807160
11
188.597583
21
323.552598
0
LINE
8
boundary
62
5
39
2
10
188.597583
20
323.552598
11
186.830136
21
319.937084
0
LINE
8
boundary
62
5
39
2
10
186.830136
20
319.937084
11
186.268695
21
318.043146
0
LINE
8
boundary
62
5
39
2
10
186.268695
20
318.043146
11
186.376414
21
314.032247
0
LINE
8
boundary
62
5
39
2
10
186.376414
20
314.032247
11
186.649522
21
311.813313
0
LINE
8
boundary
62
5
39
2
10
186.649522
20
311.813313
11
186.836242
21
311.029604
0
LINE
8
boundary
62
5
39
2
10
186.836242
20
311.029604
11
187.526523
21
307.126755
0
LINE
8
boundary
62
5
39
2
10
187.526523
20
307.126755
11
186.573704
21
304.931056
0
LINE
8
boundary
62
5
39
2
10
186.573704
20
304.931056
11
186.125693
21
303.948830
0
LINE
8
boundary
62
5
39
2
10
186.125693
20
303.948830
11
185.031425
21
300.946811
0
LINE
8
boundary
62
5
39
2
10
185.031425
20
300.946811
11
186.732227
21
292.226483
0
LINE
8
boundary
62
5
39
2
10
186.732227
20
292.226483
11
187.052285
21
291.241603
0
LINE
8
boundary
62
5
39
2
10
187.052285
20
291.241603
11
187.983711
21
288.092411
0
LINE
8
boundary
62
5
39
2
10
187.983711
20
288.092411
11
190.096829
21
281.246485
0
LINE
8
boundary
62
5
39
2
10
190.096829
20
281.246485
11
189.866864
21
278.774129
0
LINE
8
boundary
62
5
39
2
10
189.866864
20
278.774129
11
188.838112
21
273.622508
0
LINE
8
boundary
62
5
39
2
10
188.838112
20
273.622508
11
188.592503
21
268.313042
0
LINE
8
boundary
62
5
39
2
10
188.592503
20
268.313042
11
188.118594
21
264.275728
0
LINE
8
boundary
62
5
39
2
10
188.118594
20
264.275728
11
187.930172
21
260.220945
0
LINE
8
boundary
62
5
39
2
10
187.930172
20
260.220945
11
188.267144
21
256.201706
0
LINE
8
boundary
62
5
39
2
10
188.267144
20
256.201706
11
186.141004
21
252.363770
0
LINE
8
boundary
62
5
39
2
10
186.141004
20
252.363770
11
185.164547
21
250.633790
0
LINE
8
boundary
62
5
39
2
10
185.164547
20
250.633790
11
181.435293
21
243.421335
0
LINE
8
boundary
62
5
39
2
10
181.435293
20
243.421335
11
178.323291
21
237.428313
0
LINE
8
boundary
62
5
39
2
10
178.323291
20
237.428313
11
178.052869
21
236.856334
0
LINE
8
boundary
62
5
39
2
10
178.052869
20
236.856334
11
174.689146
21
226.767368
0
LINE
8
boundary
62
5
39
2
10
174.689146
20
226.767368
11
171.104082
21
209.311203
0
LINE
8
boundary
62
5
39
2
10
171.104082
20
209.311203
11
168.397539
21
200.001484
0
LINE
8
boundary
62
5
39
2
10
168.397539
20
200.001484
11
168.366772
21
190.878669
0
LINE
8
boundary
62
5
39
2
10
168.366772
20
190.878669
11
168.999370
21
177.145471
0
LINE
8
boundary
62
5
39
2
10
168.999370
20
177.145471
11
169.476145
21
161.948571
0
LINE
8
boundary
62
5
39
2
10
169.476145
20
161.948571
11
170.691680
21
153.703495
0
LINE
8
boundary
62
5
39
2
10
170.691680
20
153.703495
11
173.805525
21
135.001739
0
LINE
8
boundary
62
5
39
2
10
173.805525
20
135.001739
11
175.643615
21
126.566298
0
LINE
8
boundary
62
5
39
2
10
175.643615
20
126.566298
11
178.630024
21
115.881069
0
LINE
8
boundary
62
5
39
2
10
178.630024
20
115.881069
11
179.191934
21
112.853801
0
LINE
8
boundary
62
5
39
2
10
179.191934
20
112.853801
11
178.103658
21
102.410318
0
LINE
8
boundary
62
5
39
2
10
178.103658
20
102.410318
11
178.040922
21
96.955670
0
LINE
8
boundary
62
5
39
2
10
178.040922
20
96.955670
11
176.045105
21
83.291698
0
LINE
8
boundary
62
5
39
2
10
176.045105
20
83.291698
11
175.839715
21
82.033382
0
LINE
8
boundary
62
5
39
2
10
175.839715
20
82.033382
11
175.130907
21
79.348930
0
LINE
8
boundary
62
5
39
2
10
175.130907
20
79.348930
11
172.638126
21
69.260734
0
LINE
8
boundary
62
5
39
2
10
172.638126
20
69.260734
11
172.684941
21
66.578240
0
LINE
8
boundary
62
5
39
2
10
172.684941
20
66.578240
11
173.837337
21
61.114942
0
LINE
8
boundary
62
5
39
2
10
173.837337
20
61.114942
11
174.719549
21
56.602150
0
LINE
8
boundary
62
5
39
2
10
174.719549
20
56.602150
11
177.075354
21
44.673205
0
LINE
8
boundary
62
5
39
2
10
177.075354
20
44.673205
11
178.613698
21
38.859633
0
LINE
8
boundary
62
5
39
2
10
178.613698
20
38.859633
11
180.988771
21
28.548331
0
LINE
8
boundary
62
5
39
2
10
180.988771
20
28.548331
11
181.297240
21
27.416529
0
LINE
8
boundary
62
5
39
2
10
181.297240
20
27.416529
11
181.650044
21
26.495469
0
LINE
8
boundary
62
5
39
2
10
181.650044
20
26.495469
11
181.901432
21
25.851263
0
LINE
8
annotation
62
1
39
211
10
219.693518
20
72.120338
11
219.693518
21
74.360338
0
LINE
8
annotation
62
1
39
211
10
219.693518
20
74.360338
11
219.195537
21
73.862217
0
LINE
8
annotation
62
1
39
211
10
205.858438
20
195.329728
11
204.863601
21
195.329728
0
LINE
8
annotation
62
1
39
211
10
204.863601
20
195.329728
11
205.782863
21
196.809623
0
LINE
8
annotation
62
1
39
211
10
205.782863
20
196.809623
11
205.782863
21
196.809623
0
LINE
8
annotation
62
1
39
211
10
205.782863
20
196.809623
11
205.783962
21
196.810983
0
LINE
8
annotation
62
1
39
211
10
205.783962
20
196.810983
11
205.785016
21
196.812354
0
LINE
8
annotation
62
1
39
211
10
205.785016
20
196.812354
11
205.786032
21
196.813749
0
LINE
8
annotation
62
1
39
211
10
205.786032
20
196.813749
11
205.787016
21
196.815178
0
LINE
8
annotation
62
1
39
211
10
205.787016
20
196.815178
11
205.787976
21
196.816653
0
LINE
8
annotation
62
1
39
211
10
205.787976
20
196.816653
11
205.788919
21
196.818186
0
LINE
8
annotation
62
1
39
211
10
205.788919
20
196.818186
11
205.789852
21
196.819789
0
LINE
8
annotation
62
1
39
211
10
205.789852
20
196.819789
11
205.790780
21
196.821473
0
LINE
8
annotation
62
1
39
211
10
205.790780
20
196.821473
11
205.791713
21
196.823249
0
LINE
8
annotation
62
1
39
211
10
205.791713
20
196.823249
11
205.791713
21
196.823249
0
LINE
8
annotation
62
1
39
211
10
205.791713
20
196.823249
11
205.829669
21
196.904744
0
LINE
8
annotation
62
1
39
211
10
205.829669
20
196.904744
11
205.851842
21
196.989221
0
LINE
8
annotation
62
1
39
211
10
205.851842
20
196.989221
11
205.858776
21
197.074770
0
LINE
8
annotation
62
1
39
211
10
205.858776
20
197.074770
11
205.851014
21
197.159484
0
LINE
8
annotation
62
1
39
211
10
205.851014
20
197.159484
11
205.829099
21
197.241453
0
LINE
8
annotation
62
1
39
211
10
205.829099
20
197.241453
11
205.793576
21
197.318769
0
LINE
8
annotation
62
1
39
211
10
205.793576
20
197.318769
11
205.744986
21
197.389522
0
LINE
8
annotation
62
1
39
211
10
205.744986
20
197.389522
11
205.683874
21
197.451804
0
LINE
8
annotation
62
1
39
211
10
205.683874
20
197.451804
11
205.610782
21
197.503705
0
LINE
8
annotation
62
1
39
211
10
205.610782
20
197.503705
11
205.610782
21
197.503705
0
LINE
8
annotation
62
1
39
211
10
205.610782
20
197.503705
11
205.529061
21
197.541122
0
LINE
8
annotation
62
1
39
211
10
205.529061
20
197.541122
11
205.444454
21
197.562954
0
LINE
8
annotation
62
1
39
211
10
205.444454
20
197.562954
11
205.358855
21
197.569692
0
LINE
8
annotation
62
1
39
211
10
205.358855
20
197.569692
11
205.274154
21
197.561827
0
LINE
8
annotation
62
1
39
211
10
205.274154
20
197.561827
11
205.192243
21
197.539852
0
LINE
8
annotation
62
1
39
211
10
205.192243
20
197.539852
11
205.115013
21
197.504257
0
LINE
8
annotation
62
1
39
211
10
205.115013
20
197.504257
11
205.044356
21
197.455533
0
LINE
8
annotation
62
1
39
211
10
205.044356
20
197.455533
11
204.982163
21
197.394173
0
LINE
8
annotation
62
1
39
211
10
204.982163
20
197.394173
11
204.930326
21
197.320668
0
LINE
8
annotation
62
1
39
211
10
204.930326
20
197.320668
11
204.865005
21
197.195365
0
LINE
8
annotation
62
1
39
211
10
212.020646
20
277.918376
11
212.518064
21
277.918376
0
LINE
8
annotation
62
1
39
211
10
212.518064
20
277.918376
11
212.518064
21
277.918376
0
LINE
8
annotation
62
1
39
211
10
212.518064
20
277.918376
11
212.607526
21
277.926401
0
LINE
8
annotation
62
1
39
211
10
212.607526
20
277.926401
11
212.691707
21
277.949531
0
LINE
8
annotation
62
1
39
211
10
212.691707
20
277.949531
11
212.769206
21
277.986344
0
LINE
8
annotation
62
1
39
211
10
212.769206
20
277.986344
11
212.838624
21
278.035423
0
LINE
8
annotation
62
1
39
211
10
212.838624
20
278.035423
11
212.898560
21
278.095346
0
LINE
8
annotation
62
1
39
211
10
212.898560
20
278.095346
11
212.947613
21
278.164695
0
LINE
8
annotation
62
1
39
211
10
212.947613
20
278.164695
11
212.984386
21
278.242048
0
LINE
8
annotation
62
1
39
211
10
212.984386
20
278.242048
11
213.007475
21
278.325987
0
LINE
8
annotation
62
1
39
211
10
213.007475
20
278.325987
11
213.015483
21
278.415092
0
LINE
8
annotation
62
1
39
211
10
213.015483
20
278.415092
11
213.015483
21
278.664153
0
LINE
8
annotation
62
1
39
211
10
213.015483
20
278.664153
11
213.015483
21
278.664153
0
LINE
8
annotation
62
1
39
211
10
213.015483
20
278.664153
11
213.007475
21
278.753221
0
LINE
8
annotation
62
1
39
211
10
213.007475
20
278.753221
11
212.984386
21
278.837140
0
LINE
8
annotation
62
1
39
211
10
212.984386
20
278.837140
11
212.947613
21
278.914488
0
LINE
8
annotation
62
1
39
211
10
212.947613
20
278.914488
11
212.898560
21
278.983841
0
LINE
8
annotation
62
1
39
211
10
212.898560
20
278.983841
11
212.838624
21
279.043776
0
LINE
8
annotation
62
1
39
211
10
212.838624
20
279.043776
11
212.769206
21
279.092869
0
LINE
8
annotation
62
1
39
211
10
212.769206
20
279.092869
11
212.691707
21
279.129698
0
LINE
8
annotation
62
1
39
211
10
212.691707
20
279.129698
11
212.607526
21
279.152839
0
LINE
8
annotation
62
1
39
211
10
212.607526
20
279.152839
11
212.518064
21
279.160869
0
LINE
8
annotation
62
1
39
211
10
212.518064
20
279.160869
11
212.269004
21
279.160869
0
LINE
8
annotation
62
1
39
211
10
212.269004
20
279.160869
11
212.518064
21
279.160869
0
LINE
8
annotation
62
1
39
211
10
212.518064
20
279.160869
11
212.518064
21
279.160869
0
LINE
8
annotation
62
1
39
211
10
212.518064
20
279.160869
11
212.607526
21
279.168901
0
LINE
8
annotation
62
1
39
211
10
212.607526
20
279.168901
11
212.691707
21
279.192056
0
LINE
8
annotation
62
1
39
211
10
212.691707
20
279.192056
11
212.769206
21
279.228921
0
LINE
8
annotation
62
1
39
211
10
212.769206
20
279.228921
11
212.838624
21
279.278086
0
LINE
8
annotation
62
1
39
211
10
212.838624
20
279.278086
11
212.898560
21
279.338138
0
LINE
8
annotation
62
1
39
211
10
212.898560
20
279.338138
11
212.947613
21
279.407667
0
LINE
8
annotation
62
1
39
211
10
212.947613
20
279.407667
11
212.984386
21
279.485259
0
LINE
8
annotation
62
1
39
211
10
212.984386
20
279.485259
11
213.007475
21
279.569504
0
LINE
8
annotation
62
1
39
211
10
213.007475
20
279.569504
11
213.015483
21
279.658990
0
LINE
8
annotation
62
1
39
211
10
213.015483
20
279.658990
11
213.015483
21
279.658990
0
LINE
8
annotation
62
1
39
211
10
213.015483
20
279.658990
11
213.007475
21
279.748058
0
LINE
8
annotation
62
1
39
211
10
213.007475
20
279.748058
11
212.984386
21
279.831978
0
LINE
8
annotation
62
1
39
211
10
212.984386
20
279.831978
11
212.947613
21
279.909326
0
LINE
8
annotation
62
1
39
211
10
212.947613
20
279.909326
11
212.898560
21
279.978679
0
LINE
8
annotation
62
1
39
211
10
212.898560
20
279.978679
11
212.838624
21
280.038613
0
LINE
8
annotation
62
1
39
211
10
212.838624
20
280.038613
11
212.769206
21
280.087707
0
LINE
8
annotation
62
1
39
211
10
212.769206
20
280.087707
11
212.691707
21
280.124536
0
LINE
8
annotation
62
1
39
211
10
212.691707
20
280.124536
11
212.607526
21
280.147677
0
LINE
8
annotation
62
1
39
211
10
212.607526
20
280.147677
11
212.518064
21
280.155707
0
LINE
8
annotation
62
1
39
211
10
212.518064
20
280.155707
11
212.020646
21
280.155707
0
LINE
8
annotation
62
1
39
211
10
208.703234
20
121.942371
11
195.706125
21
121.942371
0
LINE
8
annotation
62
1
39
211
10
195.706125
20
121.942371
11
208.703234
21
145.350086
0
LINE
8
annotation
62
1
39
211
10
208.703234
20
145.350086
11
195.706125
21
145.350086
0
LINE
8
annotation
62
1
39
211
10
230.282267
20
133.646229
11
217.483329
21
133.646229
0
LINE
8
annotation
62
1
39
211
10
246.865913
20
145.350086
11
246.865913
21
145.350086
0
LINE
8
annotation
62
1
39
211
10
246.865913
20
145.350086
11
245.376827
21
144.791769
0
LINE
8
annotation
62
1
39
211
10
245.376827
20
144.791769
11
244.010396
21
144.039503
0
LINE
8
annotation
62
1
39
211
10
244.010396
20
144.039503
11
242.780646
21
143.112135
0
LINE
8
annotation
62
1
39
211
10
242.780646
20
143.112135
11
241.701604
21
142.028514
0
LINE
8
annotation
62
1
39
211
10
241.701604
20
142.028514
11
240.787297
21
140.807487
0
LINE
8
annotation
62
1
39
211
10
240.787297
20
140.807487
11
240.051752
21
139.467902
0
LINE
8
annotation
62
1
39
211
10
240.051752
20
139.467902
11
239.508996
21
138.028605
0
LINE
8
annotation
62
1
39
211
10
239.508996
20
138.028605
11
239.173056
21
136.508445
0
LINE
8
annotation
62
1
39
211
10
239.173056
20
136.508445
11
239.057959
21
134.926269
0
LINE
8
annotation
62
1
39
211
10
239.057959
20
134.926269
11
239.057959
21
127.146206
0
LINE
8
annotation
62
1
39
211
10
239.057959
20
127.146206
11
239.057959
21
127.146206
0
LINE
8
annotation
62
1
39
211
10
239.057959
20
127.146206
11
239.141881
21
126.211138
0
LINE
8
annotation
62
1
39
211
10
239.141881
20
126.211138
11
239.383772
21
125.330922
0
LINE
8
annotation
62
1
39
211
10
239.383772
20
125.330922
11
239.768821
21
124.520285
0
LINE
8
annotation
62
1
39
211
10
239.768821
20
124.520285
11
240.282214
21
123.793954
0
LINE
8
annotation
62
1
39
211
10
240.282214
20
123.793954
11
240.909139
21
123.166658
0
LINE
8
annotation
62
1
39
211
10
240.909139
20
123.166658
11
241.634785
21
122.653124
0
LINE
8
annotation
62
1
39
211
10
241.634785
20
122.653124
11
242.444339
21
122.268080
0
LINE
8
annotation
62
1
39
211
10
242.444339
20
122.268080
11
243.322989
21
122.026253
0
LINE
8
annotation
62
1
39
211
10
243.322989
20
122.026253
11
244.255922
21
121.942371
0
LINE
8
annotation
62
1
39
211
10
244.255922
20
121.942371
11
244.255922
21
121.942371
0
LINE
8
annotation
62
1
39
211
10
244.255922
20
121.942371
11
245.190788
21
122.026253
0
LINE
8
annotation
62
1
39
211
10
245.190788
20
122.026253
11
246.070464
21
122.268080
0
LINE
8
annotation
62
1
39
211
10
246.070464
20
122.268080
11
246.880320
21
122.653124
0
LINE
8
annotation
62
1
39
211
10
246.880320
20
122.653124
11
247.605725
21
123.166658
0
LINE
8
annotation
62
1
39
211
10
247.605725
20
123.166658
11
248.232046
21
123.793954
0
LINE
8
annotation
62
1
39
211
10
248.232046
20
123.793954
11
248.744654
21
124.520285
0
LINE
8
annotation
62
1
39
211
10
248.744654
20
124.520285
11
249.128917
21
125.330922
0
LINE
8
annotation
62
1
39
211
10
249.128917
20
125.330922
11
249.370204
21
126.211138
0
LINE
8
annotation
62
1
39
211
10
249.370204
20
126.211138
11
249.453885
21
127.146206
0
LINE
8
annotation
62
1
39
211
10
249.453885
20
127.146206
11
249.453885
21
129.735646
0
LINE
8
annotation
62
1
39
211
10
249.453885
20
129.735646
11
249.453885
21
129.735646
0
LINE
8
annotation
62
1
39
211
10
249.453885
20
129.735646
11
249.370204
21
130.670260
0
LINE
8
annotation
62
1
39
211
10
249.370204
20
130.670260
11
249.128917
21
131.549262
0
LINE
8
annotation
62
1
39
211
10
249.128917
20
131.549262
11
248.744654
21
132.358141
0
LINE
8
annotation
62
1
39
211
10
248.744654
20
132.358141
11
248.232046
21
133.082388
0
LINE
8
annotation
62
1
39
211
10
248.232046
20
133.082388
11
247.605725
21
133.707491
0
LINE
8
annotation
62
1
39
211
10
247.605725
20
133.707491
11
246.880320
21
134.218941
0
LINE
8
annotation
62
1
39
211
10
246.880320
20
134.218941
11
246.070464
21
134.602228
0
LINE
8
annotation
62
1
39
211
10
246.070464
20
134.602228
11
245.190788
21
134.842840
0
LINE
8
annotation
62
1
39
211
10
245.190788
20
134.842840
11
244.255922
21
134.926269
0
LINE
8
annotation
62
1
39
211
10
244.255922
20
134.926269
11
239.057959
21
134.926269
0
LINE
8
annotation
62
1
39
211
10
238.406929
20
119.016407
11
250.110786
21
119.016407
0
LINE
8
boundary
62
5
39
2
10
173.343116
20
340.758882
11
176.643748
21
337.388690
0
LINE
8
boundary
62
5
39
2
10
176.643748
20
337.388690
11
182.848161
21
335.256133
0
LINE
8
boundary
62
5
39
2
10
182.848161
20
335.256133
11
183.374471
21
334.917147
0
LINE
8
boundary
62
5
39
2
10
183.374471
20
334.917147
11
184.123660
21
334.960669
0
LINE
8
boundary
62
5
39
2
10
184.123660
20
334.960669
11
191.001052
21
336.267377
0
LINE
8
boundary
62
5
39
2
10
191.001052
20
336.267377
11
191.537520
21
336.383053
0
LINE
8
boundary
62
5
39
2
10
191.537520
20
336.383053
11
200.860504
21
340.348861
0
LINE
8
boundary
62
5
39
2
10
200.860504
20
340.348861
11
205.708459
21
341.549065
0
LINE
8
boundary
62
5
39
2
10
205.708459
20
341.549065
11
216.663161
21
344.322336
0
LINE
8
boundary
62
5
39
2
10
216.663161
20
344.322336
11
217.107641
21
344.628696
0
LINE
8
boundary
62
5
39
2
10
217.107641
20
344.628696
11
217.288079
21
345.427340
0
LINE
8
boundary
62
5
39
2
10
217.288079
20
345.427340
11
218.824517
21
349.495526
0
LINE
8
boundary
62
5
39
2
10
218.824517
20
349.495526
11
219.869076
21
353.178557
0
LINE
8
boundary
62
5
39
2
10
219.869076
20
353.178557
11
220.610325
21
364.686987
0
LINE
8
boundary
62
5
39
2
10
220.610325
20
364.686987
11
220.603140
21
365.196865
0
LINE
8
boundary
62
5
39
2
10
220.603140
20
365.196865
11
220.595959
21
365.826375
0
LINE
8
boundary
62
5
39
2
10
220.595959
20
365.826375
11
217.916153
21
374.145457
0
LINE
8
boundary
62
5
39
2
10
217.916153
20
374.145457
11
218.964831
21
376.257665
0
LINE
8
boundary
62
5
39
2
10
218.964831
20
376.257665
11
221.932505
21
376.881294
0
LINE
8
boundary
62
5
39
2
10
221.932505
20
376.881294
11
220.539031
21
377.234192
0
LINE
8
boundary
62
5
39
2
10
220.539031
20
377.234192
11
215.257553
21
377.741344
0
LINE
8
boundary
62
5
39
2
10
215.257553
20
377.741344
11
209.899946
21
378.624766
0
LINE
8
boundary
62
5
39
2
10
209.899946
20
378.624766
11
206.949394
21
379.519273
0
LINE
8
boundary
62
5
39
2
10
206.949394
20
379.519273
11
197.587028
21
382.679893
0
LINE
8
boundary
62
5
39
2
10
197.587028
20
382.679893
11
192.861630
21
384.362717
0
LINE
8
boundary
62
5
39
2
10
192.861630
20
384.362717
11
184.525951
21
386.255476
0
LINE
8
boundary
62
5
39
2
10
184.525951
20
386.255476
11
182.666923
21
386.436534
0
LINE
8
boundary
62
5
39
2
10
182.666923
20
386.436534
11
182.070384
21
386.121251
0
LINE
8
boundary
62
5
39
2
10
182.070384
20
386.121251
11
175.077171
21
382.215653
0
LINE
8
boundary
62
5
39
2
10
175.077171
20
382.215653
11
173.554316
21
381.303446
0
LINE
8
boundary
62
5
39
2
10
173.554316
20
381.303446
11
173.138835
21
380.429572
0
LINE
8
boundary
62
5
39
2
10
173.138835
20
380.429572
11
189.314068
21
380.359572
0
LINE
8
boundary
62
5
39
2
10
189.314068
20
380.359572
11
189.314068
21
379.213572
0
LINE
8
boundary
62
5
39
2
10
189.314068
20
379.213572
11
172.560691
21
379.213572
0
LINE
8
boundary
62
5
39
2
10
172.560691
20
379.213572
11
170.427142
21
376.218451
0
LINE
8
boundary
62
5
39
2
10
170.427142
20
376.218451
11
170.490586
21
373.872112
0
LINE
8
boundary
62
5
39
2
10
170.490586
20
373.872112
11
194.293494
21
373.508409
0
LINE
8
boundary
62
5
39
2
10
194.293494
20
373.508409
11
194.293494
21
372.362409
0
LINE
8
boundary
62
5
39
2
10
194.293494
20
372.362409
11
170.350467
21
372.362409
0
LINE
8
boundary
62
5
39
2
10
170.350467
20
372.362409
11
169.793636
21
366.362893
0
LINE
8
boundary
62
5
39
2
10
169.793636
20
366.362893
11
194.982271
21
366.040610
0
LINE
8
boundary
62
5
39
2
10
194.982271
20
366.040610
11
194.982270
21
364.894610
0
LINE
8
boundary
62
5
39
2
10
194.982270
20
364.894610
11
169.611142
21
364.894610
0
LINE
8
boundary
62
5
39
2
10
169.611142
20
364.894610
11
169.281533
21
362.242703
0
LINE
8
boundary
62
5
39
2
10
169.281533
20
362.242703
11
168.366772
21
359.951985
0
LINE
8
boundary
62
5
39
2
10
168.366772
20
359.951985
11
168.394703
21
358.987333
0
LINE
8
boundary
62
5
39
2
10
168.394703
20
358.987333
11
169.363016
21
356.922064
0
LINE
8
boundary
62
5
39
2
10
169.363016
20
356.922064
11
194.672693
21
356.494752
0
LINE
8
boundary
62
5
39
2
10
194.672693
20
356.494752
11
194.672693
21
355.348752
0
LINE
8
boundary
62
5
39
2
10
194.672693
20
355.348752
11
169.692285
21
355.348752
0
LINE
8
boundary
62
5
39
2
10
169.692285
20
355.348752
11
169.966496
21
354.038524
0
LINE
8
boundary
62
5
39
2
10
169.966496
20
354.038524
11
170.165442
21
350.911701
0
LINE
8
boundary
62
5
39
2
10
170.165442
20
350.911701
11
170.175393
21
349.863296
0
LINE
8
boundary
62
5
39
2
10
170.175393
20
349.863296
11
194.415513
21
349.793296
0
LINE
8
boundary
62
5
39
2
10
194.415513
20
349.793296
11
194.415513
21
348.647296
0
LINE
8
boundary
62
5
39
2
10
194.415513
20
348.647296
11
170.186936
21
348.647296
0
LINE
8
boundary
62
5
39
2
10
170.186936
20
348.647296
11
170.217767
21
345.399215
0
LINE
8
boundary
62
5
39
2
10
170.217767
20
345.399215
11
171.893549
21
342.777171
0
LINE
8
boundary
62
5
39
2
10
171.893549
20
342.777171
11
189.921716
21
342.707171
0
LINE
8
boundary
62
5
39
2
10
189.921716
20
342.707171
11
189.921716
21
341.561171
0
LINE
8
boundary
62
5
39
2
10
189.921716
20
341.561171
11
172.734784
21
341.561171
0
LINE
8
boundary
62
5
39
2
10
172.734784
20
341.561171
11
173.343116
21
340.758882
0
LINE
8
annotation
62
1
39
211
10
192.351016
20
341.014241
11
192.848435
21
341.014241
0
LINE
8
annotation
62
1
39
211
10
192.848435
20
341.014241
11
192.848435
21
341.014241
0
LINE
8
annotation
62
1
39
211
10
192.848435
20
341.014241
11
192.937897
21
341.022267
0
LINE
8
annotation
62
1
39
211
10
192.937897
20
341.022267
11
193.022077
21
341.045396
0
LINE
8
annotation
62
1
39
211
10
193.022077
20
341.045396
11
193.099576
21
341.082210
0
LINE
8
annotation
62
1
39
211
10
193.099576
20
341.082210
11
193.168994
21
341.131288
0
LINE
8
annotation
62
1
39
211
10
193.168994
20
341.131288
11
193.228930
21
341.191212
0
LINE
8
annotation
62
1
39
211
10
193.228930
20
341.191212
11
193.277984
21
341.260560
0
LINE
8
annotation
62
1
39
211
10
193.277984
20
341.260560
11
193.314756
21
341.337914
0
LINE
8
annotation
62
1
39
211
10
193.314756
20
341.337914
11
193.337846
21
341.421853
0
LINE
8
annotation
62
1
39
211
10
193.337846
20
341.421853
11
193.345853
21
341.510958
0
LINE
8
annotation
62
1
39
211
10
193.345853
20
341.510958
11
193.345853
21
341.760018
0
LINE
8
annotation
62
1
39
211
10
193.345853
20
341.760018
11
193.345853
21
341.760018
0
LINE
8
annotation
62
1
39
211
10
193.345853
20
341.760018
11
193.337846
21
341.849086
0
LINE
8
annotation
62
1
39
211
10
193.337846
20
341.849086
11
193.314756
21
341.933006
0
LINE
8
annotation
62
1
39
211
10
193.314756
20
341.933006
11
193.277984
21
342.010354
0
LINE
8
annotation
62
1
39
211
10
193.277984
20
342.010354
11
193.228930
21
342.079707
0
LINE
8
annotation
62
1
39
211
10
193.228930
20
342.079707
11
193.168994
21
342.139641
0
LINE
8
annotation
62
1
39
211
10
193.168994
20
342.139641
11
193.099576
21
342.188735
0
LINE
8
annotation
62
1
39
211
10
193.099576
20
342.188735
11
193.022077
21
342.225564
0
LINE
8
annotation
62
1
39
211
10
193.022077
20
342.225564
11
192.937897
21
342.248705
0
LINE
8
annotation
62
1
39
211
10
192.937897
20
342.248705
11
192.848435
21
342.256735
0
LINE
8
annotation
62
1
39
211
10
192.848435
20
342.256735
11
192.599374
21
342.256735
0
LINE
8
annotation
62
1
39
211
10
192.599374
20
342.256735
11
192.848435
21
342.256735
0
LINE
8
annotation
62
1
39
211
10
192.848435
20
342.256735
11
192.848435
21
342.256735
0
LINE
8
annotation
62
1
39
211
10
192.848435
20
342.256735
11
192.937897
21
342.264767
0
LINE
8
annotation
62
1
39
211
10
192.937897
20
342.264767
11
193.022077
21
342.287921
0
LINE
8
annotation
62
1
39
211
10
193.022077
20
342.287921
11
193.099576
21
342.324787
0
LINE
8
annotation
62
1
39
211
10
193.099576
20
342.324787
11
193.168994
21
342.373951
0
LINE
8
annotation
62
1
39
211
10
193.168994
20
342.373951
11
193.228930
21
342.434004
0
LINE
8
annotation
62
1
39
211
10
193.228930
20
342.434004
11
193.277984
21
342.503532
0
LINE
8
annotation
62
1
39
211
10
193.277984
20
342.503532
11
193.314756
21
342.581125
0
LINE
8
annotation
62
1
39
211
10
193.314756
20
342.581125
11
193.337846
21
342.665370
0
LINE
8
annotation
62
1
39
211
10
193.337846
20
342.665370
11
193.345853
21
342.754856
0
LINE
8
annotation
62
1
39
211
10
193.345853
20
342.754856
11
193.345853
21
342.754856
0
LINE
8
annotation
62
1
39
211
10
193.345853
20
342.754856
11
193.337846
21
342.843924
0
LINE
8
annotation
62
1
39
211
10
193.337846
20
342.843924
11
193.314756
21
342.927843
0
LINE
8
annotation
62
1
39
211
10
193.314756
20
342.927843
11
193.277984
21
343.005191
0
LINE
8
annotation
62
1
39
211
10
193.277984
20
343.005191
11
193.228930
21
343.074544
0
LINE
8
annotation
62
1
39
211
10
193.228930
20
343.074544
11
193.168994
21
343.134479
0
LINE
8
annotation
62
1
39
211
10
193.168994
20
343.134479
11
193.099576
21
343.183572
0
LINE
8
annotation
62
1
39
211
10
193.099576
20
343.183572
11
193.022077
21
343.220401
0
LINE
8
annotation
62
1
39
211
10
193.022077
20
343.220401
11
192.937897
21
343.243542
0
LINE
8
annotation
62
1
39
211
10
192.937897
20
343.243542
11
192.848435
21
343.251572
0
LINE
8
annotation
62
1
39
211
10
192.848435
20
343.251572
11
192.351016
21
343.251572
0
LINE
8
annotation
62
1
39
211
10
197.964111
20
348.598276
11
196.720353
21
348.598276
0
LINE
8
annotation
62
1
39
211
10
196.720353
20
348.598276
11
197.217070
21
350.340296
0
LINE
8
annotation
62
1
39
211
10
197.591293
20
348.100296
11
197.591293
21
349.095133
0
LINE
8
annotation
62
1
39
211
10
197.101994
20
354.801752
11
197.599412
21
354.801752
0
LINE
8
annotation
62
1
39
211
10
197.599412
20
354.801752
11
197.599412
21
354.801752
0
LINE
8
annotation
62
1
39
211
10
197.599412
20
354.801752
11
197.688689
21
354.809779
0
LINE
8
annotation
62
1
39
211
10
197.688689
20
354.809779
11
197.772772
21
354.832921
0
LINE
8
annotation
62
1
39
211
10
197.772772
20
354.832921
11
197.850242
21
354.869768
0
LINE
8
annotation
62
1
39
211
10
197.850242
20
354.869768
11
197.919682
21
354.918910
0
LINE
8
annotation
62
1
39
211
10
197.919682
20
354.918910
11
197.979676
21
354.978940
0
LINE
8
annotation
62
1
39
211
10
197.979676
20
354.978940
11
198.028805
21
355.048446
0
LINE
8
annotation
62
1
39
211
10
198.028805
20
355.048446
11
198.065652
21
355.126020
0
LINE
8
annotation
62
1
39
211
10
198.065652
20
355.126020
11
198.088800
21
355.210252
0
LINE
8
annotation
62
1
39
211
10
198.088800
20
355.210252
11
198.096831
21
355.299733
0
LINE
8
annotation
62
1
39
211
10
198.096831
20
355.299733
11
198.096831
21
355.547529
0
LINE
8
annotation
62
1
39
211
10
198.096831
20
355.547529
11
198.096831
21
355.547529
0
LINE
8
annotation
62
1
39
211
10
198.096831
20
355.547529
11
198.088805
21
355.636967
0
LINE
8
annotation
62
1
39
211
10
198.088805
20
355.636967
11
198.065669
21
355.721083
0
LINE
8
annotation
62
1
39
211
10
198.065669
20
355.721083
11
198.028836
21
355.798489
0
LINE
8
annotation
62
1
39
211
10
198.028836
20
355.798489
11
197.979722
21
355.867796
0
LINE
8
annotation
62
1
39
211
10
197.979722
20
355.867796
11
197.919740
21
355.927615
0
LINE
8
annotation
62
1
39
211
10
197.919740
20
355.927615
11
197.850304
21
355.976558
0
LINE
8
annotation
62
1
39
211
10
197.850304
20
355.976558
11
197.772828
21
356.013237
0
LINE
8
annotation
62
1
39
211
10
197.772828
20
356.013237
11
197.688726
21
356.036262
0
LINE
8
annotation
62
1
39
211
10
197.688726
20
356.036262
11
197.599412
21
356.044246
0
LINE
8
annotation
62
1
39
211
10
197.599412
20
356.044246
11
197.101994
21
356.044246
0
LINE
8
annotation
62
1
39
211
10
197.101994
20
356.044246
11
197.101994
21
357.041752
0
LINE
8
annotation
62
1
39
211
10
197.101994
20
357.041752
11
198.096831
21
357.041752
0
LINE
8
annotation
62
1
39
211
10
198.158752
20
366.587610
11
198.158752
21
366.587610
0
LINE
8
annotation
62
1
39
211
10
198.158752
20
366.587610
11
198.016255
21
366.534182
0
LINE
8
annotation
62
1
39
211
10
198.016255
20
366.534182
11
197.885494
21
366.462194
0
LINE
8
annotation
62
1
39
211
10
197.885494
20
366.462194
11
197.767813
21
366.373450
0
LINE
8
annotation
62
1
39
211
10
197.767813
20
366.373450
11
197.664554
21
366.269753
0
LINE
8
annotation
62
1
39
211
10
197.664554
20
366.269753
11
197.577060
21
366.152907
0
LINE
8
annotation
62
1
39
211
10
197.577060
20
366.152907
11
197.506672
21
366.024715
0
LINE
8
annotation
62
1
39
211
10
197.506672
20
366.024715
11
197.454733
21
365.886982
0
LINE
8
annotation
62
1
39
211
10
197.454733
20
365.886982
11
197.422585
21
365.741510
0
LINE
8
annotation
62
1
39
211
10
197.422585
20
365.741510
11
197.411571
21
365.590104
0
LINE
8
annotation
62
1
39
211
10
197.411571
20
365.590104
11
197.411571
21
364.845591
0
LINE
8
annotation
62
1
39
211
10
197.411571
20
364.845591
11
197.411571
21
364.845591
0
LINE
8
annotation
62
1
39
211
10
197.411571
20
364.845591
11
197.419602
21
364.756110
0
LINE
8
annotation
62
1
39
211
10
197.419602
20
364.756110
11
197.442749
21
364.671878
0
LINE
8
annotation
62
1
39
211
10
197.442749
20
364.671878
11
197.479597
21
364.594304
0
LINE
8
annotation
62
1
39
211
10
197.479597
20
364.594304
11
197.528726
21
364.524798
0
LINE
8
annotation
62
1
39
211
10
197.528726
20
364.524798
11
197.588719
21
364.464769
0
LINE
8
annotation
62
1
39
211
10
197.588719
20
364.464769
11
197.658160
21
364.415626
0
LINE
8
annotation
62
1
39
211
10
197.658160
20
364.415626
11
197.735630
21
364.378779
0
LINE
8
annotation
62
1
39
211
10
197.735630
20
364.378779
11
197.819713
21
364.355638
0
LINE
8
annotation
62
1
39
211
10
197.819713
20
364.355638
11
197.908990
21
364.347610
0
LINE
8
annotation
62
1
39
211
10
197.908990
20
364.347610
11
197.908990
21
364.347610
0
LINE
8
annotation
62
1
39
211
10
197.908990
20
364.347610
11
197.998452
21
364.355638
0
LINE
8
annotation
62
1
39
211
10
197.998452
20
364.355638
11
198.082632
21
364.378779
0
LINE
8
annotation
62
1
39
211
10
198.082632
20
364.378779
11
198.160131
21
364.415626
0
LINE
8
annotation
62
1
39
211
10
198.160131
20
364.415626
11
198.229549
21
364.464769
0
LINE
8
annotation
62
1
39
211
10
198.229549
20
364.464769
11
198.289485
21
364.524798
0
LINE
8
annotation
62
1
39
211
10
198.289485
20
364.524798
11
198.338539
21
364.594304
0
LINE
8
annotation
62
1
39
211
10
198.338539
20
364.594304
11
198.375311
21
364.671878
0
LINE
8
annotation
62
1
39
211
10
198.375311
20
364.671878
11
198.398401
21
364.756110
0
LINE
8
annotation
62
1
39
211
10
198.398401
20
364.756110
11
198.406408
21
364.845591
0
LINE
8
annotation
62
1
39
211
10
198.406408
20
364.845591
11
198.406408
21
365.093387
0
LINE
8
annotation
62
1
39
211
10
198.406408
20
365.093387
11
198.406408
21
365.093387
0
LINE
8
annotation
62
1
39
211
10
198.406408
20
365.093387
11
198.398401
21
365.182825
0
LINE
8
annotation
62
1
39
211
10
198.398401
20
365.182825
11
198.375311
21
365.266941
0
LINE
8
annotation
62
1
39
211
10
198.375311
20
365.266941
11
198.338539
21
365.344347
0
LINE
8
annotation
62
1
39
211
10
198.338539
20
365.344347
11
198.289485
21
365.413654
0
LINE
8
annotation
62
1
39
211
10
198.289485
20
365.413654
11
198.229549
21
365.473473
0
LINE
8
annotation
62
1
39
211
10
198.229549
20
365.473473
11
198.160131
21
365.522416
0
LINE
8
annotation
62
1
39
211
10
198.160131
20
365.522416
11
198.082632
21
365.559095
0
LINE
8
annotation
62
1
39
211
10
198.082632
20
365.559095
11
197.998452
21
365.582120
0
LINE
8
annotation
62
1
39
211
10
197.998452
20
365.582120
11
197.908990
21
365.590104
0
LINE
8
annotation
62
1
39
211
10
197.908990
20
365.590104
11
197.411571
21
365.590104
0
LINE
8
annotation
62
1
39
211
10
197.349270
20
364.067610
11
198.469270
21
364.067610
0
LINE
8
annotation
62
1
39
211
10
197.220213
20
371.815409
11
197.718194
21
374.055409
0
LINE
8
annotation
62
1
39
211
10
197.718194
20
374.055409
11
196.722092
21
374.055409
0
LINE
8
annotation
62
1
39
211
10
197.718194
20
373.057902
11
197.220213
21
373.057902
0
LINE
8
annotation
62
1
39
211
10
191.743368
20
379.163218
11
191.743368
21
379.163218
0
LINE
8
annotation
62
1
39
211
10
191.743368
20
379.163218
11
191.751399
21
379.073780
0
LINE
8
annotation
62
1
39
211
10
191.751399
20
379.073780
11
191.774547
21
378.989664
0
LINE
8
annotation
62
1
39
211
10
191.774547
20
378.989664
11
191.811394
21
378.912259
0
LINE
8
annotation
62
1
39
211
10
191.811394
20
378.912259
11
191.860523
21
378.842952
0
LINE
8
annotation
62
1
39
211
10
191.860523
20
378.842952
11
191.920517
21
378.783133
0
LINE
8
annotation
62
1
39
211
10
191.920517
20
378.783133
11
191.989957
21
378.734190
0
LINE
8
annotation
62
1
39
211
10
191.989957
20
378.734190
11
192.067428
21
378.697511
0
LINE
8
annotation
62
1
39
211
10
192.067428
20
378.697511
11
192.151510
21
378.674486
0
LINE
8
annotation
62
1
39
211
10
192.151510
20
378.674486
11
192.240787
21
378.666502
0
LINE
8
annotation
62
1
39
211
10
192.240787
20
378.666502
11
192.240787
21
378.666502
0
LINE
8
annotation
62
1
39
211
10
192.240787
20
378.666502
11
192.330064
21
378.674486
0
LINE
8
annotation
62
1
39
211
10
192.330064
20
378.674486
11
192.414146
21
378.697511
0
LINE
8
annotation
62
1
39
211
10
192.414146
20
378.697511
11
192.491616
21
378.734190
0
LINE
8
annotation
62
1
39
211
10
192.491616
20
378.734190
11
192.561057
21
378.783133
0
LINE
8
annotation
62
1
39
211
10
192.561057
20
378.783133
11
192.621051
21
378.842952
0
LINE
8
annotation
62
1
39
211
10
192.621051
20
378.842952
11
192.670180
21
378.912259
0
LINE
8
annotation
62
1
39
211
10
192.670180
20
378.912259
11
192.707027
21
378.989664
0
LINE
8
annotation
62
1
39
211
10
192.707027
20
378.989664
11
192.730175
21
379.073780
0
LINE
8
annotation
62
1
39
211
10
192.730175
20
379.073780
11
192.738206
21
379.163218
0
LINE
8
annotation
62
1
39
211
10
192.738206
20
379.163218
11
192.738206
21
379.411015
0
LINE
8
annotation
62
1
39
211
10
192.738206
20
379.411015
11
192.738206
21
379.411015
0
LINE
8
annotation
62
1
39
211
10
192.738206
20
379.411015
11
192.730179
21
379.500496
0
LINE
8
annotation
62
1
39
211
10
192.730179
20
379.500496
11
192.707043
21
379.584728
0
LINE
8
annotation
62
1
39
211
10
192.707043
20
379.584728
11
192.670211
21
379.662302
0
LINE
8
annotation
62
1
39
211
10
192.670211
20
379.662302
11
192.621097
21
379.731808
0
LINE
8
annotation
62
1
39
211
10
192.621097
20
379.731808
11
192.561115
21
379.791837
0
LINE
8
annotation
62
1
39
211
10
192.561115
20
379.791837
11
192.491679
21
379.840980
0
LINE
8
annotation
62
1
39
211
10
192.491679
20
379.840980
11
192.414203
21
379.877827
0
LINE
8
annotation
62
1
39
211
10
192.414203
20
379.877827
11
192.330101
21
379.900968
0
LINE
8
annotation
62
1
39
211
10
192.330101
20
379.900968
11
192.240787
21
379.908995
0
LINE
8
annotation
62
1
39
211
10
192.240787
20
379.908995
11
192.240787
21
379.908995
0
LINE
8
annotation
62
1
39
211
10
192.240787
20
379.908995
11
192.151473
21
379.900964
0
LINE
8
annotation
62
1
39
211
10
192.151473
20
379.900964
11
192.067371
21
379.877810
0
LINE
8
annotation
62
1
39
211
10
192.067371
20
379.877810
11
191.989895
21
379.840949
0
LINE
8
annotation
62
1
39
211
10
191.989895
20
379.840949
11
191.920459
21
379.791791
0
LINE
8
annotation
62
1
39
211
10
191.920459
20
379.791791
11
191.860477
21
379.731750
0
LINE
8
annotation
62
1
39
211
10
191.860477
20
379.731750
11
191.811363
21
379.662239
0
LINE
8
annotation
62
1
39
211
10
191.811363
20
379.662239
11
191.774531
21
379.584671
0
LINE
8
annotation
62
1
39
211
10
191.774531
20
379.584671
11
191.751394
21
379.500459
0
LINE
8
annotation
62
1
39
211
10
191.751394
20
379.500459
11
191.743368
21
379.411015
0
LINE
8
annotation
62
1
39
211
10
191.743368
20
379.411015
11
191.743368
21
379.163218
0
LINE
8
annotation
62
1
39
211
10
192.738206
20
380.407116
11
192.738206
21
380.407116
0
LINE
8
annotation
62
1
39
211
10
192.738206
20
380.407116
11
192.730179
21
380.496184
0
LINE
8
annotation
62
1
39
211
10
192.730179
20
380.496184
11
192.707043
21
380.580104
0
LINE
8
annotation
62
1
39
211
10
192.707043
20
380.580104
11
192.670211
21
380.657452
0
LINE
8
annotation
62
1
39
211
10
192.670211
20
380.657452
11
192.621097
21
380.726805
0
LINE
8
annotation
62
1
39
211
10
192.621097
20
380.726805
11
192.561115
21
380.786739
0
LINE
8
annotation
62
1
39
211
10
192.561115
20
380.786739
11
192.491679
21
380.835833
0
LINE
8
annotation
62
1
39
211
10
192.491679
20
380.835833
11
192.414203
21
380.872662
0
LINE
8
annotation
62
1
39
211
10
192.414203
20
380.872662
11
192.330101
21
380.895803
0
LINE
8
annotation
62
1
39
211
10
192.330101
20
380.895803
11
192.240787
21
380.903833
0
LINE
8
annotation
62
1
39
211
10
192.240787
20
380.903833
11
192.240787
21
380.903833
0
LINE
8
annotation
62
1
39
211
10
192.240787
20
380.903833
11
192.151473
21
380.895803
0
LINE
8
annotation
62
1
39
211
10
192.151473
20
380.895803
11
192.067371
21
380.872662
0
LINE
8
annotation
62
1
39
211
10
192.067371
20
380.872662
11
191.989895
21
380.835833
0
LINE
8
annotation
62
1
39
211
10
191.989895
20
380.835833
11
191.920459
21
380.786739
0
LINE
8
annotation
62
1
39
211
10
191.920459
20
380.786739
11
191.860477
21
380.726805
0
LINE
8
annotation
62
1
39
211
10
191.860477
20
380.726805
11
191.811363
21
380.657452
0
LINE
8
annotation
62
1
39
211
10
191.811363
20
380.657452
11
191.774531
21
380.580104
0
LINE
8
annotation
62
1
39
211
10
191.774531
20
380.580104
11
191.751394
21
380.496184
0
LINE
8
annotation
62
1
39
211
10
191.751394
20
380.496184
11
191.743368
21
380.407116
0
LINE
8
annotation
62
1
39
211
10
191.743368
20
380.407116
11
191.743368
21
380.407116
0
LINE
8
annotation
62
1
39
211
10
191.743368
20
380.407116
11
191.751399
21
380.317630
0
LINE
8
annotation
62
1
39
211
10
191.751399
20
380.317630
11
191.774547
21
380.233385
0
LINE
8
annotation
62
1
39
211
10
191.774547
20
380.233385
11
191.811394
21
380.155793
0
LINE
8
annotation
62
1
39
211
10
191.811394
20
380.155793
11
191.860523
21
380.086264
0
LINE
8
annotation
62
1
39
211
10
191.860523
20
380.086264
11
191.920517
21
380.026212
0
LINE
8
annotation
62
1
39
211
10
191.920517
20
380.026212
11
191.989957
21
379.977047
0
LINE
8
annotation
62
1
39
211
10
191.989957
20
379.977047
11
192.067428
21
379.940182
0
LINE
8
annotation
62
1
39
211
10
192.067428
20
379.940182
11
192.151510
21
379.917027
0
LINE
8
annotation
62
1
39
211
10
192.151510
20
379.917027
11
192.240787
21
379.908995
0
LINE
8
annotation
62
1
39
211
10
192.240787
20
379.908995
11
192.240787
21
379.908995
0
LINE
8
annotation
62
1
39
211
10
192.240787
20
379.908995
11
192.330064
21
379.917027
0
LINE
8
annotation
62
1
39
211
10
192.330064
20
379.917027
11
192.414146
21
379.940182
0
LINE
8
annotation
62
1
39
211
10
192.414146
20
379.940182
11
192.491616
21
379.977047
0
LINE
8
annotation
62
1
39
211
10
192.491616
20
379.977047
11
192.561057
21
380.026212
0
LINE
8
annotation
62
1
39
211
10
192.561057
20
380.026212
11
192.621051
21
380.086264
0
LINE
8
annotation
62
1
39
211
10
192.621051
20
380.086264
11
192.670180
21
380.155793
0
LINE
8
annotation
62
1
39
211
10
192.670180
20
380.155793
11
192.707027
21
380.233385
0
LINE
8
annotation
62
1
39
211
10
192.707027
20
380.233385
11
192.730175
21
380.317630
0
LINE
8
annotation
62
1
39
211
10
192.730175
20
380.317630
11
192.738206
21
380.407116
0
LINE
8
annotation
62
1
39
211
10
202.704122
20
364.279617
11
201.417771
21
362.419028
0
LINE
8
annotation
62
1
39
211
10
201.417771
20
362.419028
11
200.131178
21
364.279617
0
LINE
8
annotation
62
1
39
211
10
201.417771
20
362.568756
11
201.417771
21
360.422257
0
LINE
8
annotation
62
1
39
211
10
206.260032
20
362.350937
11
204.151025
21
362.350937
0
LINE
8
annotation
62
1
39
211
10
207.706088
20
360.422499
11
208.562608
21
360.422499
0
LINE
8
annotation
62
1
39
211
10
208.562608
20
360.422499
11
208.562608
21
360.422499
0
LINE
8
annotation
62
1
39
211
10
208.562608
20
360.422499
11
208.716655
21
360.436318
0
LINE
8
annotation
62
1
39
211
10
208.716655
20
360.436318
11
208.861608
21
360.476145
0
LINE
8
annotation
62
1
39
211
10
208.861608
20
360.476145
11
208.995056
21
360.539536
0
LINE
8
annotation
62
1
39
211
10
208.995056
20
360.539536
11
209.114588
21
360.624045
0
LINE
8
annotation
62
1
39
211
10
209.114588
20
360.624045
11
209.217793
21
360.727229
0
LINE
8
annotation
62
1
39
211
10
209.217793
20
360.727229
11
209.302260
21
360.846642
0
LINE
8
annotation
62
1
39
211
10
209.302260
20
360.846642
11
209.365579
21
360.979839
0
LINE
8
annotation
62
1
39
211
10
209.365579
20
360.979839
11
209.405338
21
361.124376
0
LINE
8
annotation
62
1
39
211
10
209.405338
20
361.124376
11
209.419127
21
361.277809
0
LINE
8
annotation
62
1
39
211
10
209.419127
20
361.277809
11
209.419127
21
361.706673
0
LINE
8
annotation
62
1
39
211
10
209.419127
20
361.706673
11
209.419127
21
361.706673
0
LINE
8
annotation
62
1
39
211
10
209.419127
20
361.706673
11
209.405338
21
361.860041
0
LINE
8
annotation
62
1
39
211
10
209.405338
20
361.860041
11
209.365579
21
362.004545
0
LINE
8
annotation
62
1
39
211
10
209.365579
20
362.004545
11
209.302260
21
362.137732
0
LINE
8
annotation
62
1
39
211
10
209.302260
20
362.137732
11
209.217793
21
362.257153
0
LINE
8
annotation
62
1
39
211
10
209.217793
20
362.257153
11
209.114588
21
362.360356
0
LINE
8
annotation
62
1
39
211
10
209.114588
20
362.360356
11
208.995056
21
362.444892
0
LINE
8
annotation
62
1
39
211
10
208.995056
20
362.444892
11
208.861608
21
362.508309
0
LINE
8
annotation
62
1
39
211
10
208.861608
20
362.508309
11
208.716655
21
362.548156
0
LINE
8
annotation
62
1
39
211
10
208.716655
20
362.548156
11
208.562608
21
362.561983
0
LINE
8
annotation
62
1
39
211
10
208.562608
20
362.561983
11
208.133743
21
362.561983
0
LINE
8
annotation
62
1
39
211
10
208.133743
20
362.561983
11
208.562608
21
362.561983
0
LINE
8
annotation
62
1
39
211
10
208.562608
20
362.561983
11
208.562608
21
362.561983
0
LINE
8
annotation
62
1
39
211
10
208.562608
20
362.561983
11
208.716655
21
362.575813
0
LINE
8
annotation
62
1
39
211
10
208.716655
20
362.575813
11
208.861608
21
362.615684
0
LINE
8
annotation
62
1
39
211
10
208.861608
20
362.615684
11
208.995056
21
362.679163
0
LINE
8
annotation
62
1
39
211
10
208.995056
20
362.679163
11
209.114588
21
362.763821
0
LINE
8
annotation
62
1
39
211
10
209.114588
20
362.763821
11
209.217793
21
362.867227
0
LINE
8
annotation
62
1
39
211
10
209.217793
20
362.867227
11
209.302260
21
362.986950
0
LINE
8
annotation
62
1
39
211
10
209.302260
20
362.986950
11
209.365579
21
363.120559
0
LINE
8
annotation
62
1
39
211
10
209.365579
20
363.120559
11
209.405338
21
363.265623
0
LINE
8
annotation
62
1
39
211
10
209.405338
20
363.265623
11
209.419127
21
363.419711
0
LINE
8
annotation
62
1
39
211
10
209.419127
20
363.419711
11
209.419127
21
363.419711
0
LINE
8
annotation
62
1
39
211
10
209.419127
20
363.419711
11
209.405338
21
363.573080
0
LINE
8
annotation
62
1
39
211
10
209.405338
20
363.573080
11
209.365579
21
363.717583
0
LINE
8
annotation
62
1
39
211
10
209.365579
20
363.717583
11
209.302260
21
363.850771
0
LINE
8
annotation
62
1
39
211
10
209.302260
20
363.850771
11
209.217793
21
363.970192
0
LINE
8
annotation
62
1
39
211
10
209.217793
20
363.970192
11
209.114588
21
364.073395
0
LINE
8
annotation
62
1
39
211
10
209.114588
20
364.073395
11
208.995056
21
364.157930
0
LINE
8
annotation
62
1
39
211
10
208.995056
20
364.157930
11
208.861608
21
364.221347
0
LINE
8
annotation
62
1
39
211
10
208.861608
20
364.221347
11
208.716655
21
364.261194
0
LINE
8
annotation
62
1
39
211
10
208.716655
20
364.261194
11
208.562608
21
364.275021
0
LINE
8
annotation
62
1
39
211
10
208.562608
20
364.275021
11
207.706088
21
364.275021
0
LINE
8
annotation
62
1
39
211
10
212.974916
20
362.350937
11
210.865909
21
362.350937
0
LINE
8
annotation
62
1
39
211
10
215.278580
20
360.422378
11
215.278580
21
364.279496
0
LINE
8
annotation
62
1
39
211
10
215.278580
20
364.279496
11
214.421093
21
363.421768
0
LINE
8
boundary
62
5
39
2
10
290.638707
20
36.624640
11
293.087368
21
27.250956
0
LINE
8
boundary
62
5
39
2
10
293.087368
20
27.250956
11
294.720076
21
23.162599
0
LINE
8
boundary
62
5
39
2
10
294.720076
20
23.162599
11
300.243648
21
16.566206
0
LINE
8
boundary
62
5
39
2
10
300.243648
20
16.566206
11
303.693675
21
12.914874
0
LINE
8
boundary
62
5
39
2
10
303.693675
20
12.914874
11
307.213336
21
9.990830
0
LINE
8
boundary
62
5
39
2
10
307.213336
20
9.990830
11
310.648852
21
6.972644
0
LINE
8
boundary
62
5
39
2
10
310.648852
20
6.972644
11
314.856889
21
6.667500
0
LINE
8
boundary
62
5
39
2
10
314.856889
20
6.667500
11
318.512180
21
7.003258
0
LINE
8
boundary
62
5
39
2
10
318.512180
20
7.003258
11
321.487633
21
7.418508
0
LINE
8
boundary
62
5
39
2
10
321.487633
20
7.418508
11
323.662894
21
7.021203
0
LINE
8
boundary
62
5
39
2
10
323.662894
20
7.021203
11
326.088502
21
6.737462
0
LINE
8
boundary
62
5
39
2
10
326.088502
20
6.737462
11
334.176402
21
8.128754
0
LINE
8
boundary
62
5
39
2
10
334.176402
20
8.128754
11
337.857469
21
9.567117
0
LINE
8
boundary
62
5
39
2
10
337.857469
20
9.567117
11
341.356820
21
11.271710
0
LINE
8
boundary
62
5
39
2
10
341.356820
20
11.271710
11
343.787854
21
12.300854
0
LINE
8
boundary
62
5
39
2
10
343.787854
20
12.300854
11
347.029733
21
13.995146
0
LINE
8
boundary
62
5
39
2
10
347.029733
20
13.995146
11
351.476635
21
16.888099
0
LINE
8
boundary
62
5
39
2
10
351.476635
20
16.888099
11
353.582347
21
18.280029
0
LINE
8
boundary
62
5
39
2
10
353.582347
20
18.280029
11
354.976945
21
18.895724
0
LINE
8
boundary
62
5
39
2
10
354.976945
20
18.895724
11
359.512078
21
22.113728
0
LINE
8
boundary
62
5
39
2
10
359.512078
20
22.113728
11
360.251164
21
22.823715
0
LINE
8
boundary
62
5
39
2
10
360.251164
20
22.823715
11
364.632632
21
30.383300
0
LINE
8
boundary
62
5
39
2
10
364.632632
20
30.383300
11
367.294747
21
35.253813
0
LINE
8
boundary
62
5
39
2
10
367.294747
20
35.253813
11
370.587744
21
40.964616
0
LINE
8
boundary
62
5
39
2
10
370.587744
20
40.964616
11
374.815899
21
49.289894
0
LINE
8
boundary
62
5
39
2
10
374.815899
20
49.289894
11
377.526288
21
55.863497
0
LINE
8
boundary
62
5
39
2
10
377.526288
20
55.863497
11
378.966255
21
61.436834
0
LINE
8
boundary
62
5
39
2
10
378.966255
20
61.436834
11
382.063971
21
72.619882
0
LINE
8
boundary
62
5
39
2
10
382.063971
20
72.619882
11
333.953618
21
72.689882
0
LINE
8
boundary
62
5
39
2
10
333.953618
20
72.689882
11
333.953618
21
73.835882
0
LINE
8
boundary
62
5
39
2
10
333.953618
20
73.835882
11
382.400804
21
73.835881
0
LINE
8
boundary
62
5
39
2
10
382.400804
20
73.835881
11
383.222343
21
76.801714
0
LINE
8
boundary
62
5
39
2
10
383.222343
20
76.801714
11
385.173113
21
89.416218
0
LINE
8
boundary
62
5
39
2
10
385.173113
20
89.416218
11
387.029298
21
95.956506
0
LINE
8
boundary
62
5
39
2
10
387.029298
20
95.956506
11
387.409070
21
101.814058
0
LINE
8
boundary
62
5
39
2
10
387.409070
20
101.814058
11
388.174059
21
113.866152
0
LINE
8
boundary
62
5
39
2
10
388.174059
20
113.866152
11
388.231461
21
120.842755
0
LINE
8
boundary
62
5
39
2
10
388.231461
20
120.842755
11
386.654491
21
131.908174
0
LINE
8
boundary
62
5
39
2
10
386.654491
20
131.908174
11
386.140964
21
135.587848
0
LINE
8
boundary
62
5
39
2
10
386.140964
20
135.587848
11
384.960260
21
140.705939
0
LINE
8
boundary
62
5
39
2
10
384.960260
20
140.705939
11
382.888555
21
149.623577
0
LINE
8
boundary
62
5
39
2
10
382.888555
20
149.623577
11
381.791763
21
152.647002
0
LINE
8
boundary
62
5
39
2
10
381.791763
20
152.647002
11
378.465115
21
160.615766
0
LINE
8
boundary
62
5
39
2
10
378.465115
20
160.615766
11
374.263467
21
171.297734
0
LINE
8
boundary
62
5
39
2
10
374.263467
20
171.297734
11
364.914303
21
186.698356
0
LINE
8
boundary
62
5
39
2
10
364.914303
20
186.698356
11
362.158028
21
191.273469
0
LINE
8
boundary
62
5
39
2
10
362.158028
20
191.273469
11
359.733455
21
195.899290
0
LINE
8
boundary
62
5
39
2
10
359.733455
20
195.899290
11
320.000035
21
195.899290
0
LINE
8
boundary
62
5
39
2
10
320.000035
20
195.899290
11
320.000035
21
197.045290
0
LINE
8
boundary
62
5
39
2
10
320.000035
20
197.045290
11
359.132792
21
197.045289
0
LINE
8
boundary
62
5
39
2
10
359.132792
20
197.045289
11
358.172975
21
198.876516
0
LINE
8
boundary
62
5
39
2
10
358.172975
20
198.876516
11
356.475552
21
201.552488
0
LINE
8
boundary
62
5
39
2
10
356.475552
20
201.552488
11
355.244673
21
204.916773
0
LINE
8
boundary
62
5
39
2
10
355.244673
20
204.916773
11
349.883230
21
223.269170
0
LINE
8
boundary
62
5
39
2
10
349.883230
20
223.269170
11
348.601670
21
227.521796
0
LINE
8
boundary
62
5
39
2
10
348.601670
20
227.521796
11
348.146818
21
228.400631
0
LINE
8
boundary
62
5
39
2
10
348.146818
20
228.400631
11
345.853363
21
236.251883
0
LINE
8
boundary
62
5
39
2
10
345.853363
20
236.251883
11
348.106790
21
244.958203
0
LINE
8
boundary
62
5
39
2
10
348.106790
20
244.958203
11
350.195121
21
250.378280
0
LINE
8
boundary
62
5
39
2
10
350.195121
20
250.378280
11
351.875924
21
256.805717
0
LINE
8
boundary
62
5
39
2
10
351.875924
20
256.805717
11
353.776730
21
259.919690
0
LINE
8
boundary
62
5
39
2
10
353.776730
20
259.919690
11
354.311399
21
262.390434
0
LINE
8
boundary
62
5
39
2
10
354.311399
20
262.390434
11
355.546696
21
266.592290
0
LINE
8
boundary
62
5
39
2
10
355.546696
20
266.592290
11
354.386058
21
272.472164
0
LINE
8
boundary
62
5
39
2
10
354.386058
20
272.472164
11
354.018686
21
274.361033
0
LINE
8
boundary
62
5
39
2
10
354.018686
20
274.361033
11
353.239902
21
276.634270
0
LINE
8
boundary
62
5
39
2
10
353.239902
20
276.634270
11
352.123111
21
278.417849
0
LINE
8
boundary
62
5
39
2
10
352.123111
20
278.417849
11
326.601426
21
278.487849
0
LINE
8
boundary
62
5
39
2
10
326.601426
20
278.487849
11
326.601426
21
279.633849
0
LINE
8
boundary
62
5
39
2
10
326.601426
20
279.633849
11
351.361711
21
279.633849
0
LINE
8
boundary
62
5
39
2
10
351.361711
20
279.633849
11
350.347044
21
281.254330
0
LINE
8
boundary
62
5
39
2
10
350.347044
20
281.254330
11
349.349706
21
285.118402
0
LINE
8
boundary
62
5
39
2
10
349.349706
20
285.118402
11
346.601893
21
293.068087
0
LINE
8
boundary
62
5
39
2
10
346.601893
20
293.068087
11
345.216062
21
296.254246
0
LINE
8
boundary
62
5
39
2
10
345.216062
20
296.254246
11
342.227503
21
304.781048
0
LINE
8
boundary
62
5
39
2
10
342.227503
20
304.781048
11
332.142447
21
315.528750
0
LINE
8
boundary
62
5
39
2
10
332.142447
20
315.528750
11
330.888475
21
316.859705
0
LINE
8
boundary
62
5
39
2
10
330.888475
20
316.859705
11
329.389319
21
318.405910
0
LINE
8
boundary
62
5
39
2
10
329.389319
20
318.405910
11
326.897886
21
320.890998
0
LINE
8
boundary
62
5
39
2
10
326.897886
20
320.890998
11
315.651107
21
329.545965
0
LINE
8
boundary
62
5
39
2
10
315.651107
20
329.545965
11
314.447691
21
330.552814
0
LINE
8
boundary
62
5
39
2
10
314.447691
20
330.552814
11
310.936324
21
331.494208
0
LINE
8
boundary
62
5
39
2
10
310.936324
20
331.494208
11
307.074554
21
330.774336
0
LINE
8
boundary
62
5
39
2
10
307.074554
20
330.774336
11
303.553002
21
328.274091
0
LINE
8
boundary
62
5
39
2
10
303.553002
20
328.274091
11
300.359920
21
325.351652
0
LINE
8
boundary
62
5
39
2
10
300.359920
20
325.351652
11
299.762747
21
322.643043
0
LINE
8
boundary
62
5
39
2
10
299.762747
20
322.643043
11
298.739194
21
319.600791
0
LINE
8
boundary
62
5
39
2
10
298.739194
20
319.600791
11
298.140479
21
313.353003
0
LINE
8
boundary
62
5
39
2
10
298.140479
20
313.353003
11
298.716648
21
310.782192
0
LINE
8
boundary
62
5
39
2
10
298.716648
20
310.782192
11
298.616076
21
309.174473
0
LINE
8
boundary
62
5
39
2
10
298.616076
20
309.174473
11
298.325400
21
307.087796
0
LINE
8
boundary
62
5
39
2
10
298.325400
20
307.087796
11
297.952882
21
305.374066
0
LINE
8
boundary
62
5
39
2
10
297.952882
20
305.374066
11
297.478256
21
302.644334
0
LINE
8
boundary
62
5
39
2
10
297.478256
20
302.644334
11
297.156758
21
300.573939
0
LINE
8
boundary
62
5
39
2
10
297.156758
20
300.573939
11
297.291871
21
297.138476
0
LINE
8
boundary
62
5
39
2
10
297.291871
20
297.138476
11
298.596513
21
292.305805
0
LINE
8
boundary
62
5
39
2
10
298.596513
20
292.305805
11
299.558376
21
289.211196
0
LINE
8
boundary
62
5
39
2
10
299.558376
20
289.211196
11
300.123342
21
287.187483
0
LINE
8
boundary
62
5
39
2
10
300.123342
20
287.187483
11
301.341420
21
280.032058
0
LINE
8
boundary
62
5
39
2
10
301.341420
20
280.032058
11
301.170241
21
278.269460
0
LINE
8
boundary
62
5
39
2
10
301.170241
20
278.269460
11
300.645636
21
277.087212
0
LINE
8
boundary
62
5
39
2
10
300.645636
20
277.087212
11
300.374076
21
275.805591
0
LINE
8
boundary
62
5
39
2
10
300.374076
20
275.805591
11
300.246488
21
272.390826
0
LINE
8
boundary
62
5
39
2
10
300.246488
20
272.390826
11
299.781213
21
264.191146
0
LINE
8
boundary
62
5
39
2
10
299.781213
20
264.191146
11
299.186580
21
259.350413
0
LINE
8
boundary
62
5
39
2
10
299.186580
20
259.350413
11
299.460400
21
256.434930
0
LINE
8
boundary
62
5
39
2
10
299.460400
20
256.434930
11
298.009581
21
253.679200
0
LINE
8
boundary
62
5
39
2
10
298.009581
20
253.679200
11
293.660212
21
245.115557
0
LINE
8
boundary
62
5
39
2
10
293.660212
20
245.115557
11
290.759756
21
239.151150
0
LINE
8
boundary
62
5
39
2
10
290.759756
20
239.151150
11
289.447988
21
235.831129
0
LINE
8
boundary
62
5
39
2
10
289.447988
20
235.831129
11
285.130804
21
223.005334
0
LINE
8
boundary
62
5
39
2
10
285.130804
20
223.005334
11
284.146680
21
220.107493
0
LINE
8
boundary
62
5
39
2
10
284.146680
20
220.107493
11
283.852644
21
219.117141
0
LINE
8
boundary
62
5
39
2
10
283.852644
20
219.117141
11
282.681062
21
214.766090
0
LINE
8
boundary
62
5
39
2
10
282.681062
20
214.766090
11
279.974109
21
201.120200
0
LINE
8
boundary
62
5
39
2
10
279.974109
20
201.120200
11
280.089283
21
188.931582
0
LINE
8
boundary
62
5
39
2
10
280.089283
20
188.931582
11
281.157265
21
166.596689
0
LINE
8
boundary
62
5
39
2
10
281.157265
20
166.596689
11
282.779384
21
150.751940
0
LINE
8
boundary
62
5
39
2
10
282.779384
20
150.751940
11
285.080765
21
137.736980
0
LINE
8
boundary
62
5
39
2
10
285.080765
20
137.736980
11
287.583128
21
126.060795
0
LINE
8
boundary
62
5
39
2
10
287.583128
20
126.060795
11
289.153522
21
116.839021
0
LINE
8
boundary
62
5
39
2
10
289.153522
20
116.839021
11
289.844900
21
113.641288
0
LINE
8
boundary
62
5
39
2
10
289.844900
20
113.641288
11
289.555464
21
98.292325
0
LINE
8
boundary
62
5
39
2
10
289.555464
20
98.292325
11
288.794473
21
90.328215
0
LINE
8
boundary
62
5
39
2
10
288.794473
20
90.328215
11
287.229728
21
81.323631
0
LINE
8
boundary
62
5
39
2
10
287.229728
20
81.323631
11
286.140874
21
75.600494
0
LINE
8
boundary
62
5
39
2
10
286.140874
20
75.600494
11
285.884416
21
74.722408
0
LINE
8
boundary
62
5
39
2
10
285.884416
20
74.722408
11
285.353367
21
73.004853
0
LINE
8
boundary
62
5
39
2
10
285.353367
20
73.004853
11
284.168527
21
69.307531
0
LINE
8
boundary
62
5
39
2
10
284.168527
20
69.307531
11
284.195409
21
66.189933
0
LINE
8
boundary
62
5
39
2
10
284.195409
20
66.189933
11
285.783164
21
59.170324
0
LINE
8
boundary
62
5
39
2
10
285.783164
20
59.170324
11
286.302606
21
56.490727
0
LINE
8
boundary
62
5
39
2
10
286.302606
20
56.490727
11
286.642974
21
55.088208
0
LINE
8
boundary
62
5
39
2
10
286.642974
20
55.088208
11
287.629949
21
50.707136
0
LINE
8
boundary
62
5
39
2
10
287.629949
20
50.707136
11
290.362588
21
38.517363
0
LINE
8
boundary
62
5
39
2
10
290.362588
20
38.517363
11
290.638707
21
36.624640
0
LINE
8
annotation
62
1
39
211
10
331.275398
20
72.142882
11
331.275398
21
74.382882
0
LINE
8
annotation
62
1
39
211
10
331.275398
20
74.382882
11
330.777417
21
73.884761
0
LINE
8
annotation
62
1
39
211
10
317.570173
20
195.352272
11
316.575335
21
195.352272
0
LINE
8
annotation
62
1
39
211
10
316.575335
20
195.352272
11
317.494598
21
196.832166
0
LINE
8
annotation
62
1
39
211
10
317.494598
20
196.832166
11
317.494598
21
196.832166
0
LINE
8
annotation
62
1
39
211
10
317.494598
20
196.832166
11
317.495697
21
196.833526
0
LINE
8
annotation
62
1
39
211
10
317.495697
20
196.833526
11
317.496750
21
196.834897
0
LINE
8
annotation
62
1
39
211
10
317.496750
20
196.834897
11
317.497766
21
196.836292
0
LINE
8
annotation
62
1
39
211
10
317.497766
20
196.836292
11
317.498751
21
196.837721
0
LINE
8
annotation
62
1
39
211
10
317.498751
20
196.837721
11
317.499711
21
196.839197
0
LINE
8
annotation
62
1
39
211
10
317.499711
20
196.839197
11
317.500654
21
196.840730
0
LINE
8
annotation
62
1
39
211
10
317.500654
20
196.840730
11
317.501586
21
196.842333
0
LINE
8
annotation
62
1
39
211
10
317.501586
20
196.842333
11
317.502515
21
196.844016
0
LINE
8
annotation
62
1
39
211
10
317.502515
20
196.844016
11
317.503448
21
196.845792
0
LINE
8
annotation
62
1
39
211
10
317.503448
20
196.845792
11
317.503448
21
196.845792
0
LINE
8
annotation
62
1
39
211
10
317.503448
20
196.845792
11
317.541404
21
196.927287
0
LINE
8
annotation
62
1
39
211
10
317.541404
20
196.927287
11
317.563577
21
197.011764
0
LINE
8
annotation
62
1
39
211
10
317.563577
20
197.011764
11
317.570511
21
197.097314
0
LINE
8
annotation
62
1
39
211
10
317.570511
20
197.097314
11
317.562749
21
197.182027
0
LINE
8
annotation
62
1
39
211
10
317.562749
20
197.182027
11
317.540834
21
197.263996
0
LINE
8
annotation
62
1
39
211
10
317.540834
20
197.263996
11
317.505310
21
197.341312
0
LINE
8
annotation
62
1
39
211
10
317.505310
20
197.341312
11
317.456720
21
197.412065
0
LINE
8
annotation
62
1
39
211
10
317.456720
20
197.412065
11
317.395608
21
197.474347
0
LINE
8
annotation
62
1
39
211
10
317.395608
20
197.474347
11
317.322517
21
197.526249
0
LINE
8
annotation
62
1
39
211
10
317.322517
20
197.526249
11
317.322517
21
197.526249
0
LINE
8
annotation
62
1
39
211
10
317.322517
20
197.526249
11
317.240795
21
197.563666
0
LINE
8
annotation
62
1
39
211
10
317.240795
20
197.563666
11
317.156189
21
197.585497
0
LINE
8
annotation
62
1
39
211
10
317.156189
20
197.585497
11
317.070590
21
197.592235
0
LINE
8
annotation
62
1
39
211
10
317.070590
20
197.592235
11
316.985889
21
197.584371
0
LINE
8
annotation
62
1
39
211
10
316.985889
20
197.584371
11
316.903977
21
197.562395
0
LINE
8
annotation
62
1
39
211
10
316.903977
20
197.562395
11
316.826747
21
197.526800
0
LINE
8
annotation
62
1
39
211
10
316.826747
20
197.526800
11
316.756090
21
197.478077
0
LINE
8
annotation
62
1
39
211
10
316.756090
20
197.478077
11
316.693897
21
197.416717
0
LINE
8
annotation
62
1
39
211
10
316.693897
20
197.416717
11
316.642060
21
197.343211
0
LINE
8
annotation
62
1
39
211
10
316.642060
20
197.343211
11
316.576740
21
197.217908
0
LINE
8
annotation
62
1
39
211
10
323.176727
20
277.940919
11
323.674146
21
277.940919
0
LINE
8
annotation
62
1
39
211
10
323.674146
20
277.940919
11
323.674146
21
277.940919
0
LINE
8
annotation
62
1
39
211
10
323.674146
20
277.940919
11
323.763607
21
277.948945
0
LINE
8
annotation
62
1
39
211
10
323.763607
20
277.948945
11
323.847788
21
277.972074
0
LINE
8
annotation
62
1
39
211
10
323.847788
20
277.972074
11
323.925287
21
278.008888
0
LINE
8
annotation
62
1
39
211
10
323.925287
20
278.008888
11
323.994705
21
278.057966
0
LINE
8
annotation
62
1
39
211
10
323.994705
20
278.057966
11
324.054641
21
278.117890
0
LINE
8
annotation
62
1
39
211
10
324.054641
20
278.117890
11
324.103695
21
278.187238
0
LINE
8
annotation
62
1
39
211
10
324.103695
20
278.187238
11
324.140467
21
278.264592
0
LINE
8
annotation
62
1
39
211
10
324.140467
20
278.264592
11
324.163557
21
278.348531
0
LINE
8
annotation
62
1
39
211
10
324.163557
20
278.348531
11
324.171564
21
278.437636
0
LINE
8
annotation
62
1
39
211
10
324.171564
20
278.437636
11
324.171564
21
278.686696
0
LINE
8
annotation
62
1
39
211
10
324.171564
20
278.686696
11
324.171564
21
278.686696
0
LINE
8
annotation
62
1
39
211
10
324.171564
20
278.686696
11
324.163557
21
278.775764
0
LINE
8
annotation
62
1
39
211
10
324.163557
20
278.775764
11
324.140467
21
278.859684
0
LINE
8
annotation
62
1
39
211
10
324.140467
20
278.859684
11
324.103695
21
278.937031
0
LINE
8
annotation
62
1
39
211
10
324.103695
20
278.937031
11
324.054641
21
279.006384
0
LINE
8
annotation
62
1
39
211
10
324.054641
20
279.006384
11
323.994705
21
279.066319
0
LINE
8
annotation
62
1
39
211
10
323.994705
20
279.066319
11
323.925287
21
279.115413
0
LINE
8
annotation
62
1
39
211
10
323.925287
20
279.115413
11
323.847788
21
279.152242
0
LINE
8
annotation
62
1
39
211
10
323.847788
20
279.152242
11
323.763607
21
279.175383
0
LINE
8
annotation
62
1
39
211
10
323.763607
20
279.175383
11
323.674146
21
279.183413
0
LINE
8
annotation
62
1
39
211
10
323.674146
20
279.183413
11
323.425085
21
279.183413
0
LINE
8
annotation
62
1
39
211
10
323.425085
20
279.183413
11
323.674146
21
279.183413
0
LINE
8
annotation
62
1
39
211
10
323.674146
20
279.183413
11
323.674146
21
279.183413
0
LINE
8
annotation
62
1
39
211
10
323.674146
20
279.183413
11
323.763607
21
279.191445
0
LINE
8
annotation
62
1
39
211
10
323.763607
20
279.191445
11
323.847788
21
279.214599
0
LINE
8
annotation
62
1
39
211
10
323.847788
20
279.214599
11
323.925287
21
279.251465
0
LINE
8
annotation
62
1
39
211
10
323.925287
20
279.251465
11
323.994705
21
279.300629
0
LINE
8
annotation
62
1
39
211
10
323.994705
20
279.300629
11
324.054641
21
279.360682
0
LINE
8
annotation
62
1
39
211
10
324.054641
20
279.360682
11
324.103695
21
279.430210
0
LINE
8
annotation
62
1
39
211
10
324.103695
20
279.430210
11
324.140467
21
279.507803
0
LINE
8
annotation
62
1
39
211
10
324.140467
20
279.507803
11
324.163557
21
279.592048
0
LINE
8
annotation
62
1
39
211
10
324.163557
20
279.592048
11
324.171564
21
279.681534
0
LINE
8
annotation
62
1
39
211
10
324.171564
20
279.681534
11
324.171564
21
279.681534
0
LINE
8
annotation
62
1
39
211
10
324.171564
20
279.681534
11
324.163557
21
279.770602
0
LINE
8
annotation
62
1
39
211
10
324.163557
20
279.770602
11
324.140467
21
279.854521
0
LINE
8
annotation
62
1
39
211
10
324.140467
20
279.854521
11
324.103695
21
279.931869
0
LINE
8
annotation
62
1
39
211
10
324.103695
20
279.931869
11
324.054641
21
280.001222
0
LINE
8
annotation
62
1
39
211
10
324.054641
20
280.001222
11
323.994705
21
280.061157
0
LINE
8
annotation
62
1
39
211
10
323.994705
20
280.061157
11
323.925287
21
280.110250
0
LINE
8
annotation
62
1
39
211
10
323.925287
20
280.110250
11
323.847788
21
280.147079
0
LINE
8
annotation
62
1
39
211
10
323.847788
20
280.147079
11
323.763607
21
280.170220
0
LINE
8
annotation
62
1
39
211
10
323.763607
20
280.170220
11
323.674146
21
280.178250
0
LINE
8
annotation
62
1
39
211
10
323.674146
20
280.178250
11
323.176727
21
280.178250
0
LINE
8
annotation
62
1
39
211
10
320.233665
20
121.854449
11
307.246468
21
121.854449
0
LINE
8
annotation
62
1
39
211
10
307.246468
20
121.854449
11
320.233665
21
145.244311
0
LINE
8
annotation
62
1
39
211
10
320.233665
20
145.244311
11
307.246468
21
145.244311
0
LINE
8
annotation
62
1
39
211
10
341.796240
20
133.549380
11
329.007063
21
133.549380
0
LINE
8
annotation
62
1
39
211
10
350.565238
20
121.854449
11
355.759236
21
121.854449
0
LINE
8
annotation
62
1
39
211
10
355.759236
20
121.854449
11
355.759236
21
121.854449
0
LINE
8
annotation
62
1
39
211
10
355.759236
20
121.854449
11
356.691458
21
121.938267
0
LINE
8
annotation
62
1
39
211
10
356.691458
20
121.938267
11
357.569437
21
122.179909
0
LINE
8
annotation
62
1
39
211
10
357.569437
20
122.179909
11
358.378373
21
122.564660
0
LINE
8
annotation
62
1
39
211
10
358.378373
20
122.564660
11
359.103466
21
123.077803
0
LINE
8
annotation
62
1
39
211
10
359.103466
20
123.077803
11
359.729913
21
123.704620
0
LINE
8
annotation
62
1
39
211
10
359.729913
20
123.704620
11
360.242915
21
124.430397
0
LINE
8
annotation
62
1
39
211
10
360.242915
20
124.430397
11
360.627670
21
125.240416
0
LINE
8
annotation
62
1
39
211
10
360.627670
20
125.240416
11
360.869377
21
126.119961
0
LINE
8
annotation
62
1
39
211
10
360.869377
20
126.119961
11
360.953235
21
127.054315
0
LINE
8
annotation
62
1
39
211
10
360.953235
20
127.054315
11
360.953235
21
129.641780
0
LINE
8
annotation
62
1
39
211
10
360.953235
20
129.641780
11
360.953235
21
129.641780
0
LINE
8
annotation
62
1
39
211
10
360.953235
20
129.641780
11
360.869425
21
130.575681
0
LINE
8
annotation
62
1
39
211
10
360.869425
20
130.575681
11
360.627839
21
131.454013
0
LINE
8
annotation
62
1
39
211
10
360.627839
20
131.454013
11
360.243241
21
132.262275
0
LINE
8
annotation
62
1
39
211
10
360.243241
20
132.262275
11
359.730396
21
132.985969
0
LINE
8
annotation
62
1
39
211
10
359.730396
20
132.985969
11
359.104069
21
133.610596
0
LINE
8
annotation
62
1
39
211
10
359.104069
20
133.610596
11
358.379025
21
134.121656
0
LINE
8
annotation
62
1
39
211
10
358.379025
20
134.121656
11
357.570029
21
134.504650
0
LINE
8
annotation
62
1
39
211
10
357.570029
20
134.504650
11
356.691844
21
134.745079
0
LINE
8
annotation
62
1
39
211
10
356.691844
20
134.745079
11
355.759236
21
134.828444
0
LINE
8
annotation
62
1
39
211
10
355.759236
20
134.828444
11
350.565238
21
134.828444
0
LINE
8
annotation
62
1
39
211
10
350.565238
20
134.828444
11
350.565238
21
145.244311
0
LINE
8
annotation
62
1
39
211
10
350.565238
20
145.244311
11
360.953235
21
145.244311
0
LINE
8
boundary
62
5
39
2
10
405.857307
20
30.254569
11
409.267006
21
20.402451
0
LINE
8
boundary
62
5
39
2
10
409.267006
20
20.402451
11
410.336025
21
17.369507
0
LINE
8
boundary
62
5
39
2
10
410.336025
20
17.369507
11
410.670690
21
16.649699
0
LINE
8
boundary
62
5
39
2
10
410.670690
20
16.649699
11
414.260554
21
12.048731
0
LINE
8
boundary
62
5
39
2
10
414.260554
20
12.048731
11
418.470739
21
8.611450
0
LINE
8
boundary
62
5
39
2
10
418.470739
20
8.611450
11
419.001001
21
8.469815
0
LINE
8
boundary
62
5
39
2
10
419.001001
20
8.469815
11
420.509462
21
8.208298
0
LINE
8
boundary
62
5
39
2
10
420.509462
20
8.208298
11
428.496948
21
7.513967
0
LINE
8
boundary
62
5
39
2
10
428.496948
20
7.513967
11
434.374463
21
7.284269
0
LINE
8
boundary
62
5
39
2
10
434.374463
20
7.284269
11
439.376101
21
6.667500
0
LINE
8
boundary
62
5
39
2
10
439.376101
20
6.667500
11
444.972084
21
9.061044
0
LINE
8
boundary
62
5
39
2
10
444.972084
20
9.061044
11
450.425285
21
11.315341
0
LINE
8
boundary
62
5
39
2
10
450.425285
20
11.315341
11
452.182739
21
12.458659
0
LINE
8
boundary
62
5
39
2
10
452.182739
20
12.458659
11
459.983935
21
17.615453
0
LINE
8
boundary
62
5
39
2
10
459.983935
20
17.615453
11
465.150615
21
19.896465
0
LINE
8
boundary
62
5
39
2
10
465.150615
20
19.896465
11
465.940123
21
20.456678
0
LINE
8
boundary
62
5
39
2
10
465.940123
20
20.456678
11
468.323653
21
22.746364
0
LINE
8
boundary
62
5
39
2
10
468.323653
20
22.746364
11
471.871239
21
28.867205
0
LINE
8
boundary
62
5
39
2
10
471.871239
20
28.867205
11
476.025871
21
37.195295
0
LINE
8
boundary
62
5
39
2
10
476.025871
20
37.195295
11
477.905109
21
41.637622
0
LINE
8
boundary
62
5
39
2
10
477.905109
20
41.637622
11
483.605838
21
55.202901
0
LINE
8
boundary
62
5
39
2
10
483.605838
20
55.202901
11
483.944852
21
56.088857
0
LINE
8
boundary
62
5
39
2
10
483.944852
20
56.088857
11
484.922203
21
59.776756
0
LINE
8
boundary
62
5
39
2
10
484.922203
20
59.776756
11
487.322798
21
69.068163
0
LINE
8
boundary
62
5
39
2
10
487.322798
20
69.068163
11
487.982111
21
71.448347
0
LINE
8
boundary
62
5
39
2
10
487.982111
20
71.448347
11
488.155874
21
72.571969
0
LINE
8
boundary
62
5
39
2
10
488.155874
20
72.571969
11
442.267894
21
72.641968
0
LINE
8
boundary
62
5
39
2
10
442.267894
20
72.641968
11
442.267894
21
73.787969
0
LINE
8
boundary
62
5
39
2
10
442.267894
20
73.787969
11
488.393714
21
73.787968
0
LINE
8
boundary
62
5
39
2
10
488.393714
20
73.787968
11
489.115663
21
76.331763
0
LINE
8
boundary
62
5
39
2
10
489.115663
20
76.331763
11
492.360110
21
89.900220
0
LINE
8
boundary
62
5
39
2
10
492.360110
20
89.900220
11
493.380334
21
98.541870
0
LINE
8
boundary
62
5
39
2
10
493.380334
20
98.541870
11
493.695831
21
103.408060
0
LINE
8
boundary
62
5
39
2
10
493.695831
20
103.408060
11
494.115593
21
110.021236
0
LINE
8
boundary
62
5
39
2
10
494.115593
20
110.021236
11
493.988219
21
123.681990
0
LINE
8
boundary
62
5
39
2
10
493.988219
20
123.681990
11
493.130905
21
129.825072
0
LINE
8
boundary
62
5
39
2
10
493.130905
20
129.825072
11
491.821687
21
135.500241
0
LINE
8
boundary
62
5
39
2
10
491.821687
20
135.500241
11
486.836926
21
152.640229
0
LINE
8
boundary
62
5
39
2
10
486.836926
20
152.640229
11
485.907727
21
154.866065
0
LINE
8
boundary
62
5
39
2
10
485.907727
20
154.866065
11
485.078163
21
156.975088
0
LINE
8
boundary
62
5
39
2
10
485.078163
20
156.975088
11
479.202937
21
171.609731
0
LINE
8
boundary
62
5
39
2
10
479.202937
20
171.609731
11
478.735011
21
172.376600
0
LINE
8
boundary
62
5
39
2
10
478.735011
20
172.376600
11
466.974577
21
191.897624
0
LINE
8
boundary
62
5
39
2
10
466.974577
20
191.897624
11
465.577458
21
194.563174
0
LINE
8
boundary
62
5
39
2
10
465.577458
20
194.563174
11
464.628611
21
195.781377
0
LINE
8
boundary
62
5
39
2
10
464.628611
20
195.781377
11
428.139334
21
195.851377
0
LINE
8
boundary
62
5
39
2
10
428.139334
20
195.851377
11
428.139334
21
196.997377
0
LINE
8
boundary
62
5
39
2
10
428.139334
20
196.997377
11
463.681480
21
196.997377
0
LINE
8
boundary
62
5
39
2
10
463.681480
20
196.997377
11
462.908262
21
197.990094
0
LINE
8
boundary
62
5
39
2
10
462.908262
20
197.990094
11
461.337404
21
204.223664
0
LINE
8
boundary
62
5
39
2
10
461.337404
20
204.223664
11
457.941840
21
215.864376
0
LINE
8
boundary
62
5
39
2
10
457.941840
20
215.864376
11
456.241584
21
222.436397
0
LINE
8
boundary
62
5
39
2
10
456.241584
20
222.436397
11
454.641924
21
226.303349
0
LINE
8
boundary
62
5
39
2
10
454.641924
20
226.303349
11
454.142756
21
232.244721
0
LINE
8
boundary
62
5
39
2
10
454.142756
20
232.244721
11
453.385760
21
234.836170
0
LINE
8
boundary
62
5
39
2
10
453.385760
20
234.836170
11
454.297726
21
238.359632
0
LINE
8
boundary
62
5
39
2
10
454.297726
20
238.359632
11
454.803632
21
247.031573
0
LINE
8
boundary
62
5
39
2
10
454.803632
20
247.031573
11
456.415819
21
252.663404
0
LINE
8
boundary
62
5
39
2
10
456.415819
20
252.663404
11
457.719182
21
256.328831
0
LINE
8
boundary
62
5
39
2
10
457.719182
20
256.328831
11
459.126946
21
259.813576
0
LINE
8
boundary
62
5
39
2
10
459.126946
20
259.813576
11
460.890926
21
262.693671
0
LINE
8
boundary
62
5
39
2
10
460.890926
20
262.693671
11
462.903131
21
265.912572
0
LINE
8
boundary
62
5
39
2
10
462.903131
20
265.912572
11
464.923071
21
267.868058
0
LINE
8
boundary
62
5
39
2
10
464.923071
20
267.868058
11
464.457555
21
269.757309
0
LINE
8
boundary
62
5
39
2
10
464.457555
20
269.757309
11
463.828334
21
275.208933
0
LINE
8
boundary
62
5
39
2
10
463.828334
20
275.208933
11
460.402302
21
277.591903
0
LINE
8
boundary
62
5
39
2
10
460.402302
20
277.591903
11
459.876482
21
278.369936
0
LINE
8
boundary
62
5
39
2
10
459.876482
20
278.369936
11
435.364977
21
278.439936
0
LINE
8
boundary
62
5
39
2
10
435.364977
20
278.439936
11
435.364977
21
279.585936
0
LINE
8
boundary
62
5
39
2
10
435.364977
20
279.585936
11
458.941009
21
279.585936
0
LINE
8
boundary
62
5
39
2
10
458.941009
20
279.585936
11
458.426347
21
280.206748
0
LINE
8
boundary
62
5
39
2
10
458.426347
20
280.206748
11
456.305502
21
286.320364
0
LINE
8
boundary
62
5
39
2
10
456.305502
20
286.320364
11
453.987508
21
292.055952
0
LINE
8
boundary
62
5
39
2
10
453.987508
20
292.055952
11
450.590260
21
302.908400
0
LINE
8
boundary
62
5
39
2
10
450.590260
20
302.908400
11
449.585297
21
304.987083
0
LINE
8
boundary
62
5
39
2
10
449.585297
20
304.987083
11
448.472311
21
305.370791
0
LINE
8
boundary
62
5
39
2
10
448.472311
20
305.370791
11
443.122262
21
308.214840
0
LINE
8
boundary
62
5
39
2
10
443.122262
20
308.214840
11
432.277895
21
311.884298
0
LINE
8
boundary
62
5
39
2
10
432.277895
20
311.884298
11
430.081268
21
312.281444
0
LINE
8
boundary
62
5
39
2
10
430.081268
20
312.281444
11
428.907814
21
312.216858
0
LINE
8
boundary
62
5
39
2
10
428.907814
20
312.216858
11
421.047857
21
314.755467
0
LINE
8
boundary
62
5
39
2
10
421.047857
20
314.755467
11
416.112016
21
309.819825
0
LINE
8
boundary
62
5
39
2
10
416.112016
20
309.819825
11
415.124060
21
308.646144
0
LINE
8
boundary
62
5
39
2
10
415.124060
20
308.646144
11
411.903246
21
300.169479
0
LINE
8
boundary
62
5
39
2
10
411.903246
20
300.169479
11
411.272104
21
292.039071
0
LINE
8
boundary
62
5
39
2
10
411.272104
20
292.039071
11
413.386115
21
287.599445
0
LINE
8
boundary
62
5
39
2
10
413.386115
20
287.599445
11
412.906317
21
284.755670
0
LINE
8
boundary
62
5
39
2
10
412.906317
20
284.755670
11
412.120202
21
283.901238
0
LINE
8
boundary
62
5
39
2
10
412.120202
20
283.901238
11
411.629418
21
283.243782
0
LINE
8
boundary
62
5
39
2
10
411.629418
20
283.243782
11
410.815716
21
278.668571
0
LINE
8
boundary
62
5
39
2
10
410.815716
20
278.668571
11
410.244017
21
277.380193
0
LINE
8
boundary
62
5
39
2
10
410.244017
20
277.380193
11
409.403896
21
273.415257
0
LINE
8
boundary
62
5
39
2
10
409.403896
20
273.415257
11
409.052087
21
263.999439
0
LINE
8
boundary
62
5
39
2
10
409.052087
20
263.999439
11
409.641244
21
256.679666
0
LINE
8
boundary
62
5
39
2
10
409.641244
20
256.679666
11
410.122444
21
255.379273
0
LINE
8
boundary
62
5
39
2
10
410.122444
20
255.379273
11
409.473244
21
253.978540
0
LINE
8
boundary
62
5
39
2
10
409.473244
20
253.978540
11
406.838224
21
248.916351
0
LINE
8
boundary
62
5
39
2
10
406.838224
20
248.916351
11
405.519499
21
246.012152
0
LINE
8
boundary
62
5
39
2
10
405.519499
20
246.012152
11
401.651439
21
237.590445
0
LINE
8
boundary
62
5
39
2
10
401.651439
20
237.590445
11
398.367782
21
227.921425
0
LINE
8
boundary
62
5
39
2
10
398.367782
20
227.921425
11
396.106175
21
220.580879
0
LINE
8
boundary
62
5
39
2
10
396.106175
20
220.580879
11
395.467018
21
217.912271
0
LINE
8
boundary
62
5
39
2
10
395.467018
20
217.912271
11
394.154627
21
214.447177
0
LINE
8
boundary
62
5
39
2
10
394.154627
20
214.447177
11
391.420706
21
204.770606
0
LINE
8
boundary
62
5
39
2
10
391.420706
20
204.770606
11
391.406461
21
203.224806
0
LINE
8
boundary
62
5
39
2
10
391.406461
20
203.224806
11
391.581026
21
178.583641
0
LINE
8
boundary
62
5
39
2
10
391.581026
20
178.583641
11
391.588373
21
177.806087
0
LINE
8
boundary
62
5
39
2
10
391.588373
20
177.806087
11
391.785241
21
175.781129
0
LINE
8
boundary
62
5
39
2
10
391.785241
20
175.781129
11
394.879582
21
145.084226
0
LINE
8
boundary
62
5
39
2
10
394.879582
20
145.084226
11
395.067700
21
143.308735
0
LINE
8
boundary
62
5
39
2
10
395.067700
20
143.308735
11
395.259126
21
142.100304
0
LINE
8
boundary
62
5
39
2
10
395.259126
20
142.100304
11
397.083214
21
133.569902
0
LINE
8
boundary
62
5
39
2
10
397.083214
20
133.569902
11
400.347732
21
118.337454
0
LINE
8
boundary
62
5
39
2
10
400.347732
20
118.337454
11
400.685457
21
116.354239
0
LINE
8
boundary
62
5
39
2
10
400.685457
20
116.354239
11
402.928189
21
105.981246
0
LINE
8
boundary
62
5
39
2
10
402.928189
20
105.981246
11
402.896958
21
104.325016
0
LINE
8
boundary
62
5
39
2
10
402.896958
20
104.325016
11
402.785115
21
103.154526
0
LINE
8
boundary
62
5
39
2
10
402.785115
20
103.154526
11
400.522722
21
87.187151
0
LINE
8
boundary
62
5
39
2
10
400.522722
20
87.187151
11
400.131163
21
85.129072
0
LINE
8
boundary
62
5
39
2
10
400.131163
20
85.129072
11
397.616763
21
76.520000
0
LINE
8
boundary
62
5
39
2
10
397.616763
20
76.520000
11
396.943452
21
74.342327
0
LINE
8
boundary
62
5
39
2
10
396.943452
20
74.342327
11
393.952727
21
70.568574
0
LINE
8
boundary
62
5
39
2
10
393.952727
20
70.568574
11
395.514269
21
63.119835
0
LINE
8
boundary
62
5
39
2
10
395.514269
20
63.119835
11
396.490815
21
60.212454
0
LINE
8
boundary
62
5
39
2
10
396.490815
20
60.212454
11
398.756790
21
51.398847
0
LINE
8
boundary
62
5
39
2
10
398.756790
20
51.398847
11
400.335057
21
47.010199
0
LINE
8
boundary
62
5
39
2
10
400.335057
20
47.010199
11
401.172025
21
44.805779
0
LINE
8
boundary
62
5
39
2
10
401.172025
20
44.805779
11
403.878440
21
36.160142
0
LINE
8
boundary
62
5
39
2
10
403.878440
20
36.160142
11
405.857307
21
30.254569
0
LINE
8
annotation
62
1
39
211
10
439.589674
20
72.094969
11
439.589674
21
74.334969
0
LINE
8
annotation
62
1
39
211
10
439.589674
20
74.334969
11
439.091693
21
73.836848
0
LINE
8
annotation
62
1
39
211
10
425.709471
20
195.304359
11
424.714634
21
195.304359
0
LINE
8
annotation
62
1
39
211
10
424.714634
20
195.304359
11
425.633896
21
196.784253
0
LINE
8
annotation
62
1
39
211
10
425.633896
20
196.784253
11
425.633896
21
196.784253
0
LINE
8
annotation
62
1
39
211
10
425.633896
20
196.784253
11
425.634995
21
196.785613
0
LINE
8
annotation
62
1
39
211
10
425.634995
20
196.785613
11
425.636049
21
196.786984
0
LINE
8
annotation
62
1
39
211
10
425.636049
20
196.786984
11
425.637065
21
196.788379
0
LINE
8
annotation
62
1
39
211
10
425.637065
20
196.788379
11
425.638049
21
196.789808
0
LINE
8
annotation
62
1
39
211
10
425.638049
20
196.789808
11
425.639009
21
196.791284
0
LINE
8
annotation
62
1
39
211
10
425.639009
20
196.791284
11
425.639952
21
196.792817
0
LINE
8
annotation
62
1
39
211
10
425.639952
20
196.792817
11
425.640885
21
196.794420
0
LINE
8
annotation
62
1
39
211
10
425.640885
20
196.794420
11
425.641814
21
196.796103
0
LINE
8
annotation
62
1
39
211
10
425.641814
20
196.796103
11
425.642746
21
196.797879
0
LINE
8
annotation
62
1
39
211
10
425.642746
20
196.797879
11
425.642746
21
196.797879
0
LINE
8
annotation
62
1
39
211
10
425.642746
20
196.797879
11
425.680702
21
196.879374
0
LINE
8
annotation
62
1
39
211
10
425.680702
20
196.879374
11
425.702876
21
196.963851
0
LINE
8
annotation
62
1
39
211
10
425.702876
20
196.963851
11
425.709810
21
197.049401
0
LINE
8
annotation
62
1
39
211
10
425.709810
20
197.049401
11
425.702047
21
197.134114
0
LINE
8
annotation
62
1
39
211
10
425.702047
20
197.134114
11
425.680133
21
197.216084
0
LINE
8
annotation
62
1
39
211
10
425.680133
20
197.216084
11
425.644609
21
197.293399
0
LINE
8
annotation
62
1
39
211
10
425.644609
20
197.293399
11
425.596019
21
197.364152
0
LINE
8
annotation
62
1
39
211
10
425.596019
20
197.364152
11
425.534907
21
197.426434
0
LINE
8
annotation
62
1
39
211
10
425.534907
20
197.426434
11
425.461816
21
197.478336
0
LINE
8
annotation
62
1
39
211
10
425.461816
20
197.478336
11
425.461816
21
197.478336
0
LINE
8
annotation
62
1
39
211
10
425.461816
20
197.478336
11
425.380094
21
197.515753
0
LINE
8
annotation
62
1
39
211
10
425.380094
20
197.515753
11
425.295488
21
197.537584
0
LINE
8
annotation
62
1
39
211
10
425.295488
20
197.537584
11
425.209888
21
197.544322
0
LINE
8
annotation
62
1
39
211
10
425.209888
20
197.544322
11
425.125187
21
197.536458
0
LINE
8
annotation
62
1
39
211
10
425.125187
20
197.536458
11
425.043276
21
197.514482
0
LINE
8
annotation
62
1
39
211
10
425.043276
20
197.514482
11
424.966046
21
197.478887
0
LINE
8
annotation
62
1
39
211
10
424.966046
20
197.478887
11
424.895389
21
197.430164
0
LINE
8
annotation
62
1
39
211
10
424.895389
20
197.430164
11
424.833196
21
197.368804
0
LINE
8
annotation
62
1
39
211
10
424.833196
20
197.368804
11
424.781359
21
197.295298
0
LINE
8
annotation
62
1
39
211
10
424.781359
20
197.295298
11
424.716039
21
197.169995
0
LINE
8
annotation
62
1
39
211
10
431.940277
20
277.893006
11
432.437696
21
277.893006
0
LINE
8
annotation
62
1
39
211
10
432.437696
20
277.893006
11
432.437696
21
277.893006
0
LINE
8
annotation
62
1
39
211
10
432.437696
20
277.893006
11
432.527158
21
277.901032
0
LINE
8
annotation
62
1
39
211
10
432.527158
20
277.901032
11
432.611339
21
277.924161
0
LINE
8
annotation
62
1
39
211
10
432.611339
20
277.924161
11
432.688838
21
277.960975
0
LINE
8
annotation
62
1
39
211
10
432.688838
20
277.960975
11
432.758255
21
278.010053
0
LINE
8
annotation
62
1
39
211
10
432.758255
20
278.010053
11
432.818191
21
278.069977
0
LINE
8
annotation
62
1
39
211
10
432.818191
20
278.069977
11
432.867245
21
278.139325
0
LINE
8
annotation
62
1
39
211
10
432.867245
20
278.139325
11
432.904017
21
278.216679
0
LINE
8
annotation
62
1
39
211
10
432.904017
20
278.216679
11
432.927107
21
278.300618
0
LINE
8
annotation
62
1
39
211
10
432.927107
20
278.300618
11
432.935115
21
278.389723
0
LINE
8
annotation
62
1
39
211
10
432.935115
20
278.389723
11
432.935115
21
278.638783
0
LINE
8
annotation
62
1
39
211
10
432.935115
20
278.638783
11
432.935115
21
278.638783
0
LINE
8
annotation
62
1
39
211
10
432.935115
20
278.638783
11
432.927107
21
278.727851
0
LINE
8
annotation
62
1
39
211
10
432.927107
20
278.727851
11
432.904017
21
278.811771
0
LINE
8
annotation
62
1
39
211
10
432.904017
20
278.811771
11
432.867245
21
278.889119
0
LINE
8
annotation
62
1
39
211
10
432.867245
20
278.889119
11
432.818191
21
278.958472
0
LINE
8
annotation
62
1
39
211
10
432.818191
20
278.958472
11
432.758255
21
279.018406
0
LINE
8
annotation
62
1
39
211
10
432.758255
20
279.018406
11
432.688838
21
279.067500
0
LINE
8
annotation
62
1
39
211
10
432.688838
20
279.067500
11
432.611339
21
279.104329
0
LINE
8
annotation
62
1
39
211
10
432.611339
20
279.104329
11
432.527158
21
279.127470
0
LINE
8
annotation
62
1
39
211
10
432.527158
20
279.127470
11
432.437696
21
279.135500
0
LINE
8
annotation
62
1
39
211
10
432.437696
20
279.135500
11
432.188636
21
279.135500
0
LINE
8
annotation
62
1
39
211
10
432.188636
20
279.135500
11
432.437696
21
279.135500
0
LINE
8
annotation
62
1
39
211
10
432.437696
20
279.135500
11
432.437696
21
279.135500
0
LINE
8
annotation
62
1
39
211
10
432.437696
20
279.135500
11
432.527158
21
279.143532
0
LINE
8
annotation
62
1
39
211
10
432.527158
20
279.143532
11
432.611339
21
279.166686
0
LINE
8
annotation
62
1
39
211
10
432.611339
20
279.166686
11
432.688838
21
279.203552
0
LINE
8
annotation
62
1
39
211
10
432.688838
20
279.203552
11
432.758255
21
279.252716
0
LINE
8
annotation
62
1
39
211
10
432.758255
20
279.252716
11
432.818191
21
279.312769
0
LINE
8
annotation
62
1
39
211
10
432.818191
20
279.312769
11
432.867245
21
279.382297
0
LINE
8
annotation
62
1
39
211
10
432.867245
20
279.382297
11
432.904017
21
279.459890
0
LINE
8
annotation
62
1
39
211
10
432.904017
20
279.459890
11
432.927107
21
279.544135
0
LINE
8
annotation
62
1
39
211
10
432.927107
20
279.544135
11
432.935115
21
279.633621
0
LINE
8
annotation
62
1
39
211
10
432.935115
20
279.633621
11
432.935115
21
279.633621
0
LINE
8
annotation
62
1
39
211
10
432.935115
20
279.633621
11
432.927107
21
279.722689
0
LINE
8
annotation
62
1
39
211
10
432.927107
20
279.722689
11
432.904017
21
279.806608
0
LINE
8
annotation
62
1
39
211
10
432.904017
20
279.806608
11
432.867245
21
279.883956
0
LINE
8
annotation
62
1
39
211
10
432.867245
20
279.883956
11
432.818191
21
279.953309
0
LINE
8
annotation
62
1
39
211
10
432.818191
20
279.953309
11
432.758255
21
280.013244
0
LINE
8
annotation
62
1
39
211
10
432.758255
20
280.013244
11
432.688838
21
280.062337
0
LINE
8
annotation
62
1
39
211
10
432.688838
20
280.062337
11
432.611339
21
280.099166
0
LINE
8
annotation
62
1
39
211
10
432.611339
20
280.099166
11
432.527158
21
280.122307
0
LINE
8
annotation
62
1
39
211
10
432.527158
20
280.122307
11
432.437696
21
280.130337
0
LINE
8
annotation
62
1
39
211
10
432.437696
20
280.130337
11
431.940277
21
280.130337
0
LINE
8
annotation
62
1
39
211
10
428.373971
20
115.918716
11
416.056021
21
115.918716
0
LINE
8
annotation
62
1
39
211
10
416.056021
20
115.918716
11
428.373971
21
138.103268
0
LINE
8
annotation
62
1
39
211
10
428.373971
20
138.103268
11
416.056021
21
138.103268
0
LINE
8
annotation
62
1
39
211
10
448.825398
20
127.010992
11
436.695264
21
127.010992
0
LINE
8
annotation
62
1
39
211
10
469.460467
20
120.850626
11
457.142518
21
120.850626
0
LINE
8
annotation
62
1
39
211
10
457.142518
20
120.850626
11
462.061907
21
138.103268
0
LINE
8
annotation
62
1
39
211
10
465.768143
20
115.918716
11
465.768143
21
125.771407
0
LINE
8
frame
62
5
39
2
10
0.000000
20
0.000000
11
560.000000
21
0.000000
0
LINE
8
frame
62
5
39
2
10
560.000000
20
0.000000
11
560.000000
21
480.000000
0
LINE
8
frame
62
5
39
2
10
560.000000
20
480.000000
11
0.000000
21
480.000000
0
LINE
8
frame
62
5
39
2
10
0.000000
20
480.000000
11
0.000000
21
0.000000
0
ENDSEC
0
EOF
