0
SECTION
2
HEADER
9
$ACADVER
1
AC1009
0
ENDSEC
0
SECTION
2
TABLES
0
TABLE
2
VPORT
70
1
0
VPORT
2
ACTIVE
70
0
10
0.0
20
0.0
11
0.0
21
0.0
12
0.0
22
0.0
13
0.0
23
0.0
14
0.0
24
0.0
15
0.0
25
0.0
16
0.0
26
0.0
36
0.0
17
0.0
27
0.0
37
0.0
40
0.0
41
0.0
42
0.0
43
0.0
44
0.0
50
0.0
51
0.0
71
0
72
1000
73
1
74
3
75
0
76
0
77
0
78
0
0
ENDTAB
0
ENDSEC
0
SECTION
2
ENTITIES
0
LINE
8
boundary
62
5
39
2
10
21.203007
20
29.305208
11
23.488220
21
23.027095
0
LINE
8
boundary
62
5
39
2
10
23.488220
20
23.027095
11
25.940954
21
15.931847
0
LINE
8
boundary
62
5
39
2
10
25.940954
20
15.931847
11
26.898157
21
14.502472
0
LINE
8
boundary
62
5
39
2
10
26.898157
20
14.502472
11
28.592598
21
12.765265
0
LINE
8
boundary
62
5
39
2
10
28.592598
20
12.765265
11
31.917719
21
9.236509
0
LINE
8
boundary
62
5
39
2
10
31.917719
20
9.236509
11
34.297126
21
7.694755
0
LINE
8
boundary
62
5
39
2
10
34.297126
20
7.694755
11
42.620952
21
7.166970
0
LINE
8
boundary
62
5
39
2
10
42.620952
20
7.166970
11
45.171631
21
7.085904
0
LINE
8
boundary
62
5
39
2
10
45.171631
20
7.085904
11
48.752374
21
6.667500
0
LINE
8
boundary
62
5
39
2
10
48.752374
20
6.667500
11
53.374822
21
7.104431
0
LINE
8
boundary
62
5
39
2
10
53.374822
20
7.104431
11
65.055462
21
11.164646
0
LINE
8
boundary
62
5
39
2
10
65.055462
20
11.164646
11
67.888080
21
12.213900
0
LINE
8
boundary
62
5
39
2
10
67.888080
20
12.213900
11
72.813067
21
15.480783
0
LINE
8
boundary
62
5
39
2
10
72.813067
20
15.480783
11
83.680145
21
22.619441
0
LINE
8
boundary
62
5
39
2
10
83.680145
20
22.619441
11
92.788440
21
41.447082
0
LINE
8
boundary
62
5
39
2
10
92.788440
20
41.447082
11
93.493410
21
43.139366
0
LINE
8
boundary
62
5
39
2
10
93.493410
20
43.139366
11
94.021638
21
44.508536
0
LINE
8
boundary
62
5
39
2
10
94.021638
20
44.508536
11
101.048953
21
64.561244
0
LINE
8
boundary
62
5
39
2
10
101.048953
20
64.561244
11
102.131212
21
68.856912
0
LINE
8
boundary
62
5
39
2
10
102.131212
20
68.856912
11
102.865959
21
72.027594
0
LINE
8
boundary
62
5
39
2
10
102.865959
20
72.027594
11
56.969920
21
72.027594
0
LINE
8
boundary
62
5
39
2
10
56.969920
20
72.027594
11
56.969920
21
73.173594
0
LINE
8
boundary
62
5
39
2
10
56.969920
20
73.173594
11
103.131524
21
73.173594
0
LINE
8
boundary
62
5
39
2
10
103.131524
20
73.173594
11
106.573523
21
88.026979
0
LINE
8
boundary
62
5
39
2
10
106.573523
20
88.026979
11
108.382233
21
101.902204
0
LINE
8
boundary
62
5
39
2
10
108.382233
20
101.902204
11
108.783777
21
110.115722
0
LINE
8
boundary
62
5
39
2
10
108.783777
20
110.115722
11
109.237651
21
122.059873
0
LINE
8
boundary
62
5
39
2
10
109.237651
20
122.059873
11
107.947141
21
128.908715
0
LINE
8
boundary
62
5
39
2
10
107.947141
20
128.908715
11
105.862759
21
137.328467
0
LINE
8
boundary
62
5
39
2
10
105.862759
20
137.328467
11
102.411133
21
150.267299
0
LINE
8
boundary
62
5
39
2
10
102.411133
20
150.267299
11
101.479343
21
153.031085
0
LINE
8
boundary
62
5
39
2
10
101.479343
20
153.031085
11
92.637469
21
172.192429
0
LINE
8
boundary
62
5
39
2
10
92.637469
20
172.192429
11
92.139773
21
173.285132
0
LINE
8
boundary
62
5
39
2
10
92.139773
20
173.285132
11
91.438052
21
174.375650
0
LINE
8
boundary
62
5
39
2
10
91.438052
20
174.375650
11
80.135717
21
193.531850
0
LINE
8
boundary
62
5
39
2
10
80.135717
20
193.531850
11
79.346147
21
194.916963
0
LINE
8
boundary
62
5
39
2
10
79.346147
20
194.916963
11
43.086136
21
195.237003
0
LINE
8
boundary
62
5
39
2
10
43.086136
20
195.237003
11
43.086136
21
196.383002
0
LINE
8
boundary
62
5
39
2
10
43.086136
20
196.383002
11
78.811149
21
196.383003
0
LINE
8
boundary
62
5
39
2
10
78.811149
20
196.383003
11
76.121299
21
203.753921
0
LINE
8
boundary
62
5
39
2
10
76.121299
20
203.753921
11
72.931513
21
214.409520
0
LINE
8
boundary
62
5
39
2
10
72.931513
20
214.409520
11
71.320983
21
221.005571
0
LINE
8
boundary
62
5
39
2
10
71.320983
20
221.005571
11
69.268884
21
230.194509
0
LINE
8
boundary
62
5
39
2
10
69.268884
20
230.194509
11
68.057026
21
235.902207
0
LINE
8
boundary
62
5
39
2
10
68.057026
20
235.902207
11
68.820238
21
239.138436
0
LINE
8
boundary
62
5
39
2
10
68.820238
20
239.138436
11
69.142524
21
246.061707
0
LINE
8
boundary
62
5
39
2
10
69.142524
20
246.061707
11
71.063369
21
250.779852
0
LINE
8
boundary
62
5
39
2
10
71.063369
20
250.779852
11
71.844513
21
253.530685
0
LINE
8
boundary
62
5
39
2
10
71.844513
20
253.530685
11
72.743889
21
256.175273
0
LINE
8
boundary
62
5
39
2
10
72.743889
20
256.175273
11
73.917249
21
260.765630
0
LINE
8
boundary
62
5
39
2
10
73.917249
20
260.765630
11
76.084387
21
262.076344
0
LINE
8
boundary
62
5
39
2
10
76.084387
20
262.076344
11
76.857690
21
263.050068
0
LINE
8
boundary
62
5
39
2
10
76.857690
20
263.050068
11
79.616881
21
266.282316
0
LINE
8
boundary
62
5
39
2
10
79.616881
20
266.282316
11
80.294435
21
269.170732
0
LINE
8
boundary
62
5
39
2
10
80.294435
20
269.170732
11
79.567484
21
270.923185
0
LINE
8
boundary
62
5
39
2
10
79.567484
20
270.923185
11
78.841111
21
273.777368
0
LINE
8
boundary
62
5
39
2
10
78.841111
20
273.777368
11
77.254519
21
274.143441
0
LINE
8
boundary
62
5
39
2
10
77.254519
20
274.143441
11
75.918270
21
275.471374
0
LINE
8
boundary
62
5
39
2
10
75.918270
20
275.471374
11
74.392750
21
277.755562
0
LINE
8
boundary
62
5
39
2
10
74.392750
20
277.755562
11
50.204866
21
277.825562
0
LINE
8
boundary
62
5
39
2
10
50.204866
20
277.825562
11
50.204867
21
278.971561
0
LINE
8
boundary
62
5
39
2
10
50.204867
20
278.971561
11
73.580630
21
278.971562
0
LINE
8
boundary
62
5
39
2
10
73.580630
20
278.971562
11
73.104817
21
279.684005
0
LINE
8
boundary
62
5
39
2
10
73.104817
20
279.684005
11
71.800283
21
282.972981
0
LINE
8
boundary
62
5
39
2
10
71.800283
20
282.972981
11
68.440233
21
290.845275
0
LINE
8
boundary
62
5
39
2
10
68.440233
20
290.845275
11
66.426760
21
298.776302
0
LINE
8
boundary
62
5
39
2
10
66.426760
20
298.776302
11
65.034824
21
302.934768
0
LINE
8
boundary
62
5
39
2
10
65.034824
20
302.934768
11
62.771726
21
305.156751
0
LINE
8
boundary
62
5
39
2
10
62.771726
20
305.156751
11
60.438050
21
306.412388
0
LINE
8
boundary
62
5
39
2
10
60.438050
20
306.412388
11
53.422888
21
307.643337
0
LINE
8
boundary
62
5
39
2
10
53.422888
20
307.643337
11
52.907362
21
307.647632
0
LINE
8
boundary
62
5
39
2
10
52.907362
20
307.647632
11
47.637464
21
309.443771
0
LINE
8
boundary
62
5
39
2
10
47.637464
20
309.443771
11
40.534207
21
311.853611
0
LINE
8
boundary
62
5
39
2
10
40.534207
20
311.853611
11
39.839925
21
312.203055
0
LINE
8
boundary
62
5
39
2
10
39.839925
20
312.203055
11
39.313780
21
311.685412
0
LINE
8
boundary
62
5
39
2
10
39.313780
20
311.685412
11
30.274175
21
306.220758
0
LINE
8
boundary
62
5
39
2
10
30.274175
20
306.220758
11
29.468953
21
304.382683
0
LINE
8
boundary
62
5
39
2
10
29.468953
20
304.382683
11
28.549630
21
300.368525
0
LINE
8
boundary
62
5
39
2
10
28.549630
20
300.368525
11
27.694676
21
295.543304
0
LINE
8
boundary
62
5
39
2
10
27.694676
20
295.543304
11
27.456300
21
290.549298
0
LINE
8
boundary
62
5
39
2
10
27.456300
20
290.549298
11
26.697276
21
289.043220
0
LINE
8
boundary
62
5
39
2
10
26.697276
20
289.043220
11
26.315689
21
283.477153
0
LINE
8
boundary
62
5
39
2
10
26.315689
20
283.477153
11
26.463818
21
280.504712
0
LINE
8
boundary
62
5
39
2
10
26.463818
20
280.504712
11
24.208773
21
269.123160
0
LINE
8
boundary
62
5
39
2
10
24.208773
20
269.123160
11
23.971924
21
264.003075
0
LINE
8
boundary
62
5
39
2
10
23.971924
20
264.003075
11
24.688361
21
259.695210
0
LINE
8
boundary
62
5
39
2
10
24.688361
20
259.695210
11
25.054762
21
256.004798
0
LINE
8
boundary
62
5
39
2
10
25.054762
20
256.004798
11
23.569878
21
251.242623
0
LINE
8
boundary
62
5
39
2
10
23.569878
20
251.242623
11
22.906412
21
249.949600
0
LINE
8
boundary
62
5
39
2
10
22.906412
20
249.949600
11
21.328401
21
246.910702
0
LINE
8
boundary
62
5
39
2
10
21.328401
20
246.910702
11
16.963798
21
237.678968
0
LINE
8
boundary
62
5
39
2
10
16.963798
20
237.678968
11
14.289279
21
230.146012
0
LINE
8
boundary
62
5
39
2
10
14.289279
20
230.146012
11
13.961674
21
228.838191
0
LINE
8
boundary
62
5
39
2
10
13.961674
20
228.838191
11
6.675261
21
203.775058
0
LINE
8
boundary
62
5
39
2
10
6.675261
20
203.775058
11
6.667500
21
201.474012
0
LINE
8
boundary
62
5
39
2
10
6.667500
20
201.474012
11
6.705484
21
192.443930
0
LINE
8
boundary
62
5
39
2
10
6.705484
20
192.443930
11
6.862850
21
182.824377
0
LINE
8
boundary
62
5
39
2
10
6.862850
20
182.824377
11
7.127909
21
167.667136
0
LINE
8
boundary
62
5
39
2
10
7.127909
20
167.667136
11
7.422764
21
162.163419
0
LINE
8
boundary
62
5
39
2
10
7.422764
20
162.163419
11
8.518825
21
154.520730
0
LINE
8
boundary
62
5
39
2
10
8.518825
20
154.520730
11
9.810528
21
145.758987
0
LINE
8
boundary
62
5
39
2
10
9.810528
20
145.758987
11
10.917560
21
139.110145
0
LINE
8
boundary
62
5
39
2
10
10.917560
20
139.110145
11
16.306340
21
114.379732
0
LINE
8
boundary
62
5
39
2
10
16.306340
20
114.379732
11
16.508540
21
113.505346
0
LINE
8
boundary
62
5
39
2
10
16.508540
20
113.505346
11
18.170652
21
107.300484
0
LINE
8
boundary
62
5
39
2
10
18.170652
20
107.300484
11
18.090186
21
99.638150
0
LINE
8
boundary
62
5
39
2
10
18.090186
20
99.638150
11
16.432375
21
90.822282
0
LINE
8
boundary
62
5
39
2
10
16.432375
20
90.822282
11
15.620701
21
85.849593
0
LINE
8
boundary
62
5
39
2
10
15.620701
20
85.849593
11
14.852424
21
82.939920
0
LINE
8
boundary
62
5
39
2
10
14.852424
20
82.939920
11
11.896348
21
74.165798
0
LINE
8
boundary
62
5
39
2
10
11.896348
20
74.165798
11
8.615297
21
69.919764
0
LINE
8
boundary
62
5
39
2
10
8.615297
20
69.919764
11
10.218796
21
64.308003
0
LINE
8
boundary
62
5
39
2
10
10.218796
20
64.308003
11
12.176768
21
56.363068
0
LINE
8
boundary
62
5
39
2
10
12.176768
20
56.363068
11
14.546824
21
48.000907
0
LINE
8
boundary
62
5
39
2
10
14.546824
20
48.000907
11
17.857274
21
38.607862
0
LINE
8
boundary
62
5
39
2
10
17.857274
20
38.607862
11
19.812612
21
32.712221
0
LINE
8
boundary
62
5
39
2
10
19.812612
20
32.712221
11
21.203007
21
29.305208
0
LINE
8
annotation
62
1
39
211
10
54.291700
20
71.480594
11
54.291700
21
73.720594
0
LINE
8
annotation
62
1
39
211
10
54.291700
20
73.720594
11
53.793719
21
73.222473
0
LINE
8
annotation
62
1
39
211
10
40.656274
20
194.689984
11
39.661436
21
194.689984
0
LINE
8
annotation
62
1
39
211
10
39.661436
20
194.689984
11
40.580698
21
196.169879
0
LINE
8
annotation
62
1
39
211
10
40.580698
20
196.169879
11
40.580698
21
196.169879
0
LINE
8
annotation
62
1
39
211
10
40.580698
20
196.169879
11
40.581797
21
196.171239
0
LINE
8
annotation
62
1
39
211
10
40.581797
20
196.171239
11
40.582851
21
196.172610
0
LINE
8
annotation
62
1
39
211
10
40.582851
20
196.172610
11
40.583867
21
196.174005
0
LINE
8
annotation
62
1
39
211
10
40.583867
20
196.174005
11
40.584851
21
196.175434
0
LINE
8
annotation
62
1
39
211
10
40.584851
20
196.175434
11
40.585812
21
196.176909
0
LINE
8
annotation
62
1
39
211
10
40.585812
20
196.176909
11
40.586754
21
196.178442
0
LINE
8
annotation
62
1
39
211
10
40.586754
20
196.178442
11
40.587687
21
196.180045
0
LINE
8
annotation
62
1
39
211
10
40.587687
20
196.180045
11
40.588616
21
196.181729
0
LINE
8
annotation
62
1
39
211
10
40.588616
20
196.181729
11
40.589548
21
196.183505
0
LINE
8
annotation
62
1
39
211
10
40.589548
20
196.183505
11
40.589548
21
196.183505
0
LINE
8
annotation
62
1
39
211
10
40.589548
20
196.183505
11
40.627504
21
196.265000
0
LINE
8
annotation
62
1
39
211
10
40.627504
20
196.265000
11
40.649678
21
196.349477
0
LINE
8
annotation
62
1
39
211
10
40.649678
20
196.349477
11
40.656612
21
196.435026
0
LINE
8
annotation
62
1
39
211
10
40.656612
20
196.435026
11
40.648850
21
196.519740
0
LINE
8
annotation
62
1
39
211
10
40.648850
20
196.519740
11
40.626935
21
196.601709
0
LINE
8
annotation
62
1
39
211
10
40.626935
20
196.601709
11
40.591411
21
196.679025
0
LINE
8
annotation
62
1
39
211
10
40.591411
20
196.679025
11
40.542821
21
196.749778
0
LINE
8
annotation
62
1
39
211
10
40.542821
20
196.749778
11
40.481709
21
196.812059
0
LINE
8
annotation
62
1
39
211
10
40.481709
20
196.812059
11
40.408618
21
196.863961
0
LINE
8
annotation
62
1
39
211
10
40.408618
20
196.863961
11
40.408618
21
196.863961
0
LINE
8
annotation
62
1
39
211
10
40.408618
20
196.863961
11
40.326896
21
196.901378
0
LINE
8
annotation
62
1
39
211
10
40.326896
20
196.901378
11
40.242290
21
196.923210
0
LINE
8
annotation
62
1
39
211
10
40.242290
20
196.923210
11
40.156690
21
196.929948
0
LINE
8
annotation
62
1
39
211
10
40.156690
20
196.929948
11
40.071989
21
196.922083
0
LINE
8
annotation
62
1
39
211
10
40.071989
20
196.922083
11
39.990078
21
196.900108
0
LINE
8
annotation
62
1
39
211
10
39.990078
20
196.900108
11
39.912848
21
196.864513
0
LINE
8
annotation
62
1
39
211
10
39.912848
20
196.864513
11
39.842191
21
196.815789
0
LINE
8
annotation
62
1
39
211
10
39.842191
20
196.815789
11
39.779998
21
196.754429
0
LINE
8
annotation
62
1
39
211
10
39.779998
20
196.754429
11
39.728161
21
196.680924
0
LINE
8
annotation
62
1
39
211
10
39.728161
20
196.680924
11
39.662841
21
196.555621
0
LINE
8
annotation
62
1
39
211
10
46.780167
20
277.278632
11
47.277585
21
277.278632
0
LINE
8
annotation
62
1
39
211
10
47.277585
20
277.278632
11
47.277585
21
277.278632
0
LINE
8
annotation
62
1
39
211
10
47.277585
20
277.278632
11
47.367047
21
277.286657
0
LINE
8
annotation
62
1
39
211
10
47.367047
20
277.286657
11
47.451228
21
277.309787
0
LINE
8
annotation
62
1
39
211
10
47.451228
20
277.309787
11
47.528727
21
277.346600
0
LINE
8
annotation
62
1
39
211
10
47.528727
20
277.346600
11
47.598145
21
277.395679
0
LINE
8
annotation
62
1
39
211
10
47.598145
20
277.395679
11
47.658080
21
277.455602
0
LINE
8
annotation
62
1
39
211
10
47.658080
20
277.455602
11
47.707134
21
277.524951
0
LINE
8
annotation
62
1
39
211
10
47.707134
20
277.524951
11
47.743906
21
277.602304
0
LINE
8
annotation
62
1
39
211
10
47.743906
20
277.602304
11
47.766996
21
277.686243
0
LINE
8
annotation
62
1
39
211
10
47.766996
20
277.686243
11
47.775004
21
277.775348
0
LINE
8
annotation
62
1
39
211
10
47.775004
20
277.775348
11
47.775004
21
278.024409
0
LINE
8
annotation
62
1
39
211
10
47.775004
20
278.024409
11
47.775004
21
278.024409
0
LINE
8
annotation
62
1
39
211
10
47.775004
20
278.024409
11
47.766996
21
278.113477
0
LINE
8
annotation
62
1
39
211
10
47.766996
20
278.113477
11
47.743906
21
278.197396
0
LINE
8
annotation
62
1
39
211
10
47.743906
20
278.197396
11
47.707134
21
278.274744
0
LINE
8
annotation
62
1
39
211
10
47.707134
20
278.274744
11
47.658080
21
278.344097
0
LINE
8
annotation
62
1
39
211
10
47.658080
20
278.344097
11
47.598145
21
278.404032
0
LINE
8
annotation
62
1
39
211
10
47.598145
20
278.404032
11
47.528727
21
278.453125
0
LINE
8
annotation
62
1
39
211
10
47.528727
20
278.453125
11
47.451228
21
278.489954
0
LINE
8
annotation
62
1
39
211
10
47.451228
20
278.489954
11
47.367047
21
278.513095
0
LINE
8
annotation
62
1
39
211
10
47.367047
20
278.513095
11
47.277585
21
278.521125
0
LINE
8
annotation
62
1
39
211
10
47.277585
20
278.521125
11
47.028525
21
278.521125
0
LINE
8
annotation
62
1
39
211
10
47.028525
20
278.521125
11
47.277585
21
278.521125
0
LINE
8
annotation
62
1
39
211
10
47.277585
20
278.521125
11
47.277585
21
278.521125
0
LINE
8
annotation
62
1
39
211
10
47.277585
20
278.521125
11
47.367047
21
278.529157
0
LINE
8
annotation
62
1
39
211
10
47.367047
20
278.529157
11
47.451228
21
278.552312
0
LINE
8
annotation
62
1
39
211
10
47.451228
20
278.552312
11
47.528727
21
278.589177
0
LINE
8
annotation
62
1
39
211
10
47.528727
20
278.589177
11
47.598145
21
278.638342
0
LINE
8
annotation
62
1
39
211
10
47.598145
20
278.638342
11
47.658080
21
278.698394
0
LINE
8
annotation
62
1
39
211
10
47.658080
20
278.698394
11
47.707134
21
278.767923
0
LINE
8
annotation
62
1
39
211
10
47.707134
20
278.767923
11
47.743906
21
278.845515
0
LINE
8
annotation
62
1
39
211
10
47.743906
20
278.845515
11
47.766996
21
278.929760
0
LINE
8
annotation
62
1
39
211
10
47.766996
20
278.929760
11
47.775004
21
279.019246
0
LINE
8
annotation
62
1
39
211
10
47.775004
20
279.019246
11
47.775004
21
279.019246
0
LINE
8
annotation
62
1
39
211
10
47.775004
20
279.019246
11
47.766996
21
279.108314
0
LINE
8
annotation
62
1
39
211
10
47.766996
20
279.108314
11
47.743906
21
279.192234
0
LINE
8
annotation
62
1
39
211
10
47.743906
20
279.192234
11
47.707134
21
279.269582
0
LINE
8
annotation
62
1
39
211
10
47.707134
20
279.269582
11
47.658080
21
279.338935
0
LINE
8
annotation
62
1
39
211
10
47.658080
20
279.338935
11
47.598145
21
279.398869
0
LINE
8
annotation
62
1
39
211
10
47.598145
20
279.398869
11
47.528727
21
279.447963
0
LINE
8
annotation
62
1
39
211
10
47.528727
20
279.447963
11
47.451228
21
279.484792
0
LINE
8
annotation
62
1
39
211
10
47.451228
20
279.484792
11
47.367047
21
279.507933
0
LINE
8
annotation
62
1
39
211
10
47.367047
20
279.507933
11
47.277585
21
279.515963
0
LINE
8
annotation
62
1
39
211
10
47.277585
20
279.515963
11
46.780167
21
279.515963
0
LINE
8
annotation
62
1
39
211
10
44.900920
20
115.013605
11
32.685021
21
115.013605
0
LINE
8
annotation
62
1
39
211
10
32.685021
20
115.013605
11
44.900920
21
137.014364
0
LINE
8
annotation
62
1
39
211
10
44.900920
20
137.014364
11
32.685021
21
137.014364
0
LINE
8
annotation
62
1
39
211
10
65.182914
20
126.013985
11
53.153275
21
126.013985
0
LINE
8
annotation
62
1
39
211
10
78.322870
20
115.013605
11
83.213921
21
137.014364
0
LINE
8
annotation
62
1
39
211
10
83.213921
20
137.014364
11
73.430440
21
137.014364
0
LINE
8
annotation
62
1
39
211
10
83.213921
20
127.217086
11
78.322870
21
127.217086
0
LINE
8
boundary
62
5
39
2
10
123.133615
20
46.001348
11
123.884003
21
44.630004
0
LINE
8
boundary
62
5
39
2
10
123.884003
20
44.630004
11
131.034344
21
28.570743
0
LINE
8
boundary
62
5
39
2
10
131.034344
20
28.570743
11
131.680646
21
27.185529
0
LINE
8
boundary
62
5
39
2
10
131.680646
20
27.185529
11
135.085954
21
17.970592
0
LINE
8
boundary
62
5
39
2
10
135.085954
20
17.970592
11
137.103076
21
14.541789
0
LINE
8
boundary
62
5
39
2
10
137.103076
20
14.541789
11
139.305686
21
9.209141
0
LINE
8
boundary
62
5
39
2
10
139.305686
20
9.209141
11
141.268930
21
7.871286
0
LINE
8
boundary
62
5
39
2
10
141.268930
20
7.871286
11
142.194049
21
7.624184
0
LINE
8
boundary
62
5
39
2
10
142.194049
20
7.624184
11
146.209676
21
6.928010
0
LINE
8
boundary
62
5
39
2
10
146.209676
20
6.928010
11
152.019575
21
6.667500
0
LINE
8
boundary
62
5
39
2
10
152.019575
20
6.667500
11
160.035016
21
6.734500
0
LINE
8
boundary
62
5
39
2
10
160.035016
20
6.734500
11
165.791851
21
7.236186
0
LINE
8
boundary
62
5
39
2
10
165.791851
20
7.236186
11
168.880755
21
8.663956
0
LINE
8
boundary
62
5
39
2
10
168.880755
20
8.663956
11
178.723406
21
13.651190
0
LINE
8
boundary
62
5
39
2
10
178.723406
20
13.651190
11
179.991255
21
14.289104
0
LINE
8
boundary
62
5
39
2
10
179.991255
20
14.289104
11
189.405790
21
20.108462
0
LINE
8
boundary
62
5
39
2
10
189.405790
20
20.108462
11
190.209528
21
22.044719
0
LINE
8
boundary
62
5
39
2
10
190.209528
20
22.044719
11
195.819627
21
35.306416
0
LINE
8
boundary
62
5
39
2
10
195.819627
20
35.306416
11
199.102608
21
43.118497
0
LINE
8
boundary
62
5
39
2
10
199.102608
20
43.118497
11
204.710319
21
57.773329
0
LINE
8
boundary
62
5
39
2
10
204.710319
20
57.773329
11
206.591308
21
64.870983
0
LINE
8
boundary
62
5
39
2
10
206.591308
20
64.870983
11
207.848035
21
69.853671
0
LINE
8
boundary
62
5
39
2
10
207.848035
20
69.853671
11
162.053443
21
69.923670
0
LINE
8
boundary
62
5
39
2
10
162.053443
20
69.923670
11
162.053443
21
71.069670
0
LINE
8
boundary
62
5
39
2
10
162.053443
20
71.069670
11
208.154733
21
71.069670
0
LINE
8
boundary
62
5
39
2
10
208.154733
20
71.069670
11
210.227336
21
79.287155
0
LINE
8
boundary
62
5
39
2
10
210.227336
20
79.287155
11
210.135291
21
82.672660
0
LINE
8
boundary
62
5
39
2
10
210.135291
20
82.672660
11
210.312751
21
93.077513
0
LINE
8
boundary
62
5
39
2
10
210.312751
20
93.077513
11
210.823684
21
103.063769
0
LINE
8
boundary
62
5
39
2
10
210.823684
20
103.063769
11
211.496002
21
112.560872
0
LINE
8
boundary
62
5
39
2
10
211.496002
20
112.560872
11
211.016425
21
115.012267
0
LINE
8
boundary
62
5
39
2
10
211.016425
20
115.012267
11
207.851771
21
125.359785
0
LINE
8
boundary
62
5
39
2
10
207.851771
20
125.359785
11
202.770603
21
139.412342
0
LINE
8
boundary
62
5
39
2
10
202.770603
20
139.412342
11
197.298659
21
153.845353
0
LINE
8
boundary
62
5
39
2
10
197.298659
20
153.845353
11
194.966841
21
158.659600
0
LINE
8
boundary
62
5
39
2
10
194.966841
20
158.659600
11
191.861266
21
170.378028
0
LINE
8
boundary
62
5
39
2
10
191.861266
20
170.378028
11
189.870425
21
173.971784
0
LINE
8
boundary
62
5
39
2
10
189.870425
20
173.971784
11
188.124759
21
177.751818
0
LINE
8
boundary
62
5
39
2
10
188.124759
20
177.751818
11
184.048494
21
185.548380
0
LINE
8
boundary
62
5
39
2
10
184.048494
20
185.548380
11
183.793523
21
187.497281
0
LINE
8
boundary
62
5
39
2
10
183.793523
20
187.497281
11
183.854388
21
191.156403
0
LINE
8
boundary
62
5
39
2
10
183.854388
20
191.156403
11
183.364215
21
193.063078
0
LINE
8
boundary
62
5
39
2
10
183.364215
20
193.063078
11
150.309811
21
193.133078
0
LINE
8
boundary
62
5
39
2
10
150.309811
20
193.133078
11
150.309811
21
194.279078
0
LINE
8
boundary
62
5
39
2
10
150.309811
20
194.279078
11
183.051602
21
194.279078
0
LINE
8
boundary
62
5
39
2
10
183.051602
20
194.279078
11
181.359039
21
200.862812
0
LINE
8
boundary
62
5
39
2
10
181.359039
20
200.862812
11
180.610775
21
202.808012
0
LINE
8
boundary
62
5
39
2
10
180.610775
20
202.808012
11
179.499200
21
206.961657
0
LINE
8
boundary
62
5
39
2
10
179.499200
20
206.961657
11
177.647731
21
214.118167
0
LINE
8
boundary
62
5
39
2
10
177.647731
20
214.118167
11
173.871538
21
223.246579
0
LINE
8
boundary
62
5
39
2
10
173.871538
20
223.246579
11
173.544409
21
227.140249
0
LINE
8
boundary
62
5
39
2
10
173.544409
20
227.140249
11
172.412688
21
233.195072
0
LINE
8
boundary
62
5
39
2
10
172.412688
20
233.195072
11
172.702624
21
238.239509
0
LINE
8
boundary
62
5
39
2
10
172.702624
20
238.239509
11
168.860635
21
240.175157
0
LINE
8
boundary
62
5
39
2
10
168.860635
20
240.175157
11
167.202739
21
241.069423
0
LINE
8
boundary
62
5
39
2
10
167.202739
20
241.069423
11
161.961280
21
241.484769
0
LINE
8
boundary
62
5
39
2
10
161.961280
20
241.484769
11
158.979691
21
243.750231
0
LINE
8
boundary
62
5
39
2
10
158.979691
20
243.750231
11
164.615495
21
250.398718
0
LINE
8
boundary
62
5
39
2
10
164.615495
20
250.398718
11
164.679472
21
251.657401
0
LINE
8
boundary
62
5
39
2
10
164.679472
20
251.657401
11
165.053968
21
252.166542
0
LINE
8
boundary
62
5
39
2
10
165.053968
20
252.166542
11
168.851997
21
255.111370
0
LINE
8
boundary
62
5
39
2
10
168.851997
20
255.111370
11
176.896424
21
261.961650
0
LINE
8
boundary
62
5
39
2
10
176.896424
20
261.961650
11
173.648982
21
263.689882
0
LINE
8
boundary
62
5
39
2
10
173.648982
20
263.689882
11
173.626247
21
267.357879
0
LINE
8
boundary
62
5
39
2
10
173.626247
20
267.357879
11
172.491501
21
272.320979
0
LINE
8
boundary
62
5
39
2
10
172.491501
20
272.320979
11
171.680894
21
275.651637
0
LINE
8
boundary
62
5
39
2
10
171.680894
20
275.651637
11
153.680429
21
275.721637
0
LINE
8
boundary
62
5
39
2
10
153.680429
20
275.721637
11
153.680429
21
276.867638
0
LINE
8
boundary
62
5
39
2
10
153.680429
20
276.867638
11
171.384947
21
276.867637
0
LINE
8
boundary
62
5
39
2
10
171.384947
20
276.867637
11
170.850058
21
279.065409
0
LINE
8
boundary
62
5
39
2
10
170.850058
20
279.065409
11
170.140628
21
281.771003
0
LINE
8
boundary
62
5
39
2
10
170.140628
20
281.771003
11
167.170481
21
290.430231
0
LINE
8
boundary
62
5
39
2
10
167.170481
20
290.430231
11
162.172349
21
288.826938
0
LINE
8
boundary
62
5
39
2
10
162.172349
20
288.826938
11
161.303406
21
289.386596
0
LINE
8
boundary
62
5
39
2
10
161.303406
20
289.386596
11
160.563500
21
289.822394
0
LINE
8
boundary
62
5
39
2
10
160.563500
20
289.822394
11
156.852496
21
292.294106
0
LINE
8
boundary
62
5
39
2
10
156.852496
20
292.294106
11
153.757327
21
292.853708
0
LINE
8
boundary
62
5
39
2
10
153.757327
20
292.853708
11
151.845851
21
292.748501
0
LINE
8
boundary
62
5
39
2
10
151.845851
20
292.748501
11
148.033648
21
291.248305
0
LINE
8
boundary
62
5
39
2
10
148.033648
20
291.248305
11
147.345890
21
290.086706
0
LINE
8
boundary
62
5
39
2
10
147.345890
20
290.086706
11
143.993567
21
288.566365
0
LINE
8
boundary
62
5
39
2
10
143.993567
20
288.566365
11
143.439852
21
288.164342
0
LINE
8
boundary
62
5
39
2
10
143.439852
20
288.164342
11
140.527313
21
283.114372
0
LINE
8
boundary
62
5
39
2
10
140.527313
20
283.114372
11
140.178756
21
281.048467
0
LINE
8
boundary
62
5
39
2
10
140.178756
20
281.048467
11
135.827236
21
276.318782
0
LINE
8
boundary
62
5
39
2
10
135.827236
20
276.318782
11
135.015664
21
275.231600
0
LINE
8
boundary
62
5
39
2
10
135.015664
20
275.231600
11
134.333990
21
272.485754
0
LINE
8
boundary
62
5
39
2
10
134.333990
20
272.485754
11
132.297896
21
268.574704
0
LINE
8
boundary
62
5
39
2
10
132.297896
20
268.574704
11
132.216549
21
268.053970
0
LINE
8
boundary
62
5
39
2
10
132.216549
20
268.053970
11
132.326095
21
265.090569
0
LINE
8
boundary
62
5
39
2
10
132.326095
20
265.090569
11
132.589633
21
261.676851
0
LINE
8
boundary
62
5
39
2
10
132.589633
20
261.676851
11
132.709776
21
261.071049
0
LINE
8
boundary
62
5
39
2
10
132.709776
20
261.071049
11
135.549400
21
254.601433
0
LINE
8
boundary
62
5
39
2
10
135.549400
20
254.601433
11
137.506369
21
248.431633
0
LINE
8
boundary
62
5
39
2
10
137.506369
20
248.431633
11
137.855203
21
248.027474
0
LINE
8
boundary
62
5
39
2
10
137.855203
20
248.027474
11
138.226274
21
247.596512
0
LINE
8
boundary
62
5
39
2
10
138.226274
20
247.596512
11
137.490240
21
247.254566
0
LINE
8
boundary
62
5
39
2
10
137.490240
20
247.254566
11
134.305537
21
243.296539
0
LINE
8
boundary
62
5
39
2
10
134.305537
20
243.296539
11
126.879139
21
233.988328
0
LINE
8
boundary
62
5
39
2
10
126.879139
20
233.988328
11
126.675908
21
233.516247
0
LINE
8
boundary
62
5
39
2
10
126.675908
20
233.516247
11
122.106648
21
218.685702
0
LINE
8
boundary
62
5
39
2
10
122.106648
20
218.685702
11
120.815321
21
213.294155
0
LINE
8
boundary
62
5
39
2
10
120.815321
20
213.294155
11
118.163818
21
206.293418
0
LINE
8
boundary
62
5
39
2
10
118.163818
20
206.293418
11
117.092683
21
202.502190
0
LINE
8
boundary
62
5
39
2
10
117.092683
20
202.502190
11
117.020059
21
194.621819
0
LINE
8
boundary
62
5
39
2
10
117.020059
20
194.621819
11
117.089339
21
184.842434
0
LINE
8
boundary
62
5
39
2
10
117.089339
20
184.842434
11
117.347129
21
168.846589
0
LINE
8
boundary
62
5
39
2
10
117.347129
20
168.846589
11
118.429501
21
158.109091
0
LINE
8
boundary
62
5
39
2
10
118.429501
20
158.109091
11
119.967899
21
143.589479
0
LINE
8
boundary
62
5
39
2
10
119.967899
20
143.589479
11
121.533339
21
133.707164
0
LINE
8
boundary
62
5
39
2
10
121.533339
20
133.707164
11
124.664436
21
119.064500
0
LINE
8
boundary
62
5
39
2
10
124.664436
20
119.064500
11
126.030347
21
113.156597
0
LINE
8
boundary
62
5
39
2
10
126.030347
20
113.156597
11
129.050945
21
105.556431
0
LINE
8
boundary
62
5
39
2
10
129.050945
20
105.556431
11
130.200241
21
100.675159
0
LINE
8
boundary
62
5
39
2
10
130.200241
20
100.675159
11
129.150918
21
93.457904
0
LINE
8
boundary
62
5
39
2
10
129.150918
20
93.457904
11
127.094907
21
87.213921
0
LINE
8
boundary
62
5
39
2
10
127.094907
20
87.213921
11
126.069517
21
83.714692
0
LINE
8
boundary
62
5
39
2
10
126.069517
20
83.714692
11
124.637594
21
78.957492
0
LINE
8
boundary
62
5
39
2
10
124.637594
20
78.957492
11
122.854774
21
76.419654
0
LINE
8
boundary
62
5
39
2
10
122.854774
20
76.419654
11
119.884875
21
73.396381
0
LINE
8
boundary
62
5
39
2
10
119.884875
20
73.396381
11
119.212897
21
72.555227
0
LINE
8
boundary
62
5
39
2
10
119.212897
20
72.555227
11
117.662579
21
71.804774
0
LINE
8
boundary
62
5
39
2
10
117.662579
20
71.804774
11
115.798217
21
70.302287
0
LINE
8
boundary
62
5
39
2
10
115.798217
20
70.302287
11
112.412651
21
68.881056
0
LINE
8
boundary
62
5
39
2
10
112.412651
20
68.881056
11
114.558828
21
63.665241
0
LINE
8
boundary
62
5
39
2
10
114.558828
20
63.665241
11
116.336882
21
59.122021
0
LINE
8
boundary
62
5
39
2
10
116.336882
20
59.122021
11
117.054410
21
58.210573
0
LINE
8
boundary
62
5
39
2
10
117.054410
20
58.210573
11
123.133615
21
46.001348
0
LINE
8
annotation
62
1
39
211
10
159.375223
20
69.376670
11
159.375223
21
71.616670
0
LINE
8
annotation
62
1
39
211
10
159.375223
20
71.616670
11
158.877242
21
71.118549
0
LINE
8
annotation
62
1
39
211
10
147.879949
20
192.586060
11
146.885111
21
192.586060
0
LINE
8
annotation
62
1
39
211
10
146.885111
20
192.586060
11
147.804374
21
194.065955
0
LINE
8
annotation
62
1
39
211
10
147.804374
20
194.065955
11
147.804374
21
194.065955
0
LINE
8
annotation
62
1
39
211
10
147.804374
20
194.065955
11
147.805473
21
194.067314
0
LINE
8
annotation
62
1
39
211
10
147.805473
20
194.067314
11
147.806527
21
194.068686
0
LINE
8
annotation
62
1
39
211
10
147.806527
20
194.068686
11
147.807542
21
194.070080
0
LINE
8
annotation
62
1
39
211
10
147.807542
20
194.070080
11
147.808527
21
194.071510
0
LINE
8
annotation
62
1
39
211
10
147.808527
20
194.071510
11
147.809487
21
194.072985
0
LINE
8
annotation
62
1
39
211
10
147.809487
20
194.072985
11
147.810430
21
194.074518
0
LINE
8
annotation
62
1
39
211
10
147.810430
20
194.074518
11
147.811362
21
194.076121
0
LINE
8
annotation
62
1
39
211
10
147.811362
20
194.076121
11
147.812291
21
194.077804
0
LINE
8
annotation
62
1
39
211
10
147.812291
20
194.077804
11
147.813224
21
194.079581
0
LINE
8
annotation
62
1
39
211
10
147.813224
20
194.079581
11
147.813224
21
194.079581
0
LINE
8
annotation
62
1
39
211
10
147.813224
20
194.079581
11
147.851180
21
194.161076
0
LINE
8
annotation
62
1
39
211
10
147.851180
20
194.161076
11
147.873353
21
194.245552
0
LINE
8
annotation
62
1
39
211
10
147.873353
20
194.245552
11
147.880287
21
194.331102
0
LINE
8
annotation
62
1
39
211
10
147.880287
20
194.331102
11
147.872525
21
194.415816
0
LINE
8
annotation
62
1
39
211
10
147.872525
20
194.415816
11
147.850610
21
194.497785
0
LINE
8
annotation
62
1
39
211
10
147.850610
20
194.497785
11
147.815086
21
194.575100
0
LINE
8
annotation
62
1
39
211
10
147.815086
20
194.575100
11
147.766496
21
194.645853
0
LINE
8
annotation
62
1
39
211
10
147.766496
20
194.645853
11
147.705384
21
194.708135
0
LINE
8
annotation
62
1
39
211
10
147.705384
20
194.708135
11
147.632293
21
194.760037
0
LINE
8
annotation
62
1
39
211
10
147.632293
20
194.760037
11
147.632293
21
194.760037
0
LINE
8
annotation
62
1
39
211
10
147.632293
20
194.760037
11
147.550571
21
194.797454
0
LINE
8
annotation
62
1
39
211
10
147.550571
20
194.797454
11
147.465965
21
194.819286
0
LINE
8
annotation
62
1
39
211
10
147.465965
20
194.819286
11
147.380366
21
194.826023
0
LINE
8
annotation
62
1
39
211
10
147.380366
20
194.826023
11
147.295665
21
194.818159
0
LINE
8
annotation
62
1
39
211
10
147.295665
20
194.818159
11
147.213753
21
194.796184
0
LINE
8
annotation
62
1
39
211
10
147.213753
20
194.796184
11
147.136523
21
194.760589
0
LINE
8
annotation
62
1
39
211
10
147.136523
20
194.760589
11
147.065866
21
194.711865
0
LINE
8
annotation
62
1
39
211
10
147.065866
20
194.711865
11
147.003673
21
194.650505
0
LINE
8
annotation
62
1
39
211
10
147.003673
20
194.650505
11
146.951836
21
194.576999
0
LINE
8
annotation
62
1
39
211
10
146.951836
20
194.576999
11
146.886516
21
194.451696
0
LINE
8
annotation
62
1
39
211
10
150.255729
20
275.174708
11
150.753148
21
275.174708
0
LINE
8
annotation
62
1
39
211
10
150.753148
20
275.174708
11
150.753148
21
275.174708
0
LINE
8
annotation
62
1
39
211
10
150.753148
20
275.174708
11
150.842610
21
275.182733
0
LINE
8
annotation
62
1
39
211
10
150.842610
20
275.182733
11
150.926791
21
275.205862
0
LINE
8
annotation
62
1
39
211
10
150.926791
20
275.205862
11
151.004290
21
275.242676
0
LINE
8
annotation
62
1
39
211
10
151.004290
20
275.242676
11
151.073707
21
275.291755
0
LINE
8
annotation
62
1
39
211
10
151.073707
20
275.291755
11
151.133643
21
275.351678
0
LINE
8
annotation
62
1
39
211
10
151.133643
20
275.351678
11
151.182697
21
275.421026
0
LINE
8
annotation
62
1
39
211
10
151.182697
20
275.421026
11
151.219469
21
275.498380
0
LINE
8
annotation
62
1
39
211
10
151.219469
20
275.498380
11
151.242559
21
275.582319
0
LINE
8
annotation
62
1
39
211
10
151.242559
20
275.582319
11
151.250567
21
275.671424
0
LINE
8
annotation
62
1
39
211
10
151.250567
20
275.671424
11
151.250567
21
275.920485
0
LINE
8
annotation
62
1
39
211
10
151.250567
20
275.920485
11
151.250567
21
275.920485
0
LINE
8
annotation
62
1
39
211
10
151.250567
20
275.920485
11
151.242559
21
276.009553
0
LINE
8
annotation
62
1
39
211
10
151.242559
20
276.009553
11
151.219469
21
276.093472
0
LINE
8
annotation
62
1
39
211
10
151.219469
20
276.093472
11
151.182697
21
276.170820
0
LINE
8
annotation
62
1
39
211
10
151.182697
20
276.170820
11
151.133643
21
276.240173
0
LINE
8
annotation
62
1
39
211
10
151.133643
20
276.240173
11
151.073707
21
276.300108
0
LINE
8
annotation
62
1
39
211
10
151.073707
20
276.300108
11
151.004290
21
276.349201
0
LINE
8
annotation
62
1
39
211
10
151.004290
20
276.349201
11
150.926791
21
276.386030
0
LINE
8
annotation
62
1
39
211
10
150.926791
20
276.386030
11
150.842610
21
276.409171
0
LINE
8
annotation
62
1
39
211
10
150.842610
20
276.409171
11
150.753148
21
276.417201
0
LINE
8
annotation
62
1
39
211
10
150.753148
20
276.417201
11
150.504087
21
276.417201
0
LINE
8
annotation
62
1
39
211
10
150.504087
20
276.417201
11
150.753148
21
276.417201
0
LINE
8
annotation
62
1
39
211
10
150.753148
20
276.417201
11
150.753148
21
276.417201
0
LINE
8
annotation
62
1
39
211
10
150.753148
20
276.417201
11
150.842610
21
276.425233
0
LINE
8
annotation
62
1
39
211
10
150.842610
20
276.425233
11
150.926791
21
276.448387
0
LINE
8
annotation
62
1
39
211
10
150.926791
20
276.448387
11
151.004290
21
276.485253
0
LINE
8
annotation
62
1
39
211
10
151.004290
20
276.485253
11
151.073707
21
276.534418
0
LINE
8
annotation
62
1
39
211
10
151.073707
20
276.534418
11
151.133643
21
276.594470
0
LINE
8
annotation
62
1
39
211
10
151.133643
20
276.594470
11
151.182697
21
276.663998
0
LINE
8
annotation
62
1
39
211
10
151.182697
20
276.663998
11
151.219469
21
276.741591
0
LINE
8
annotation
62
1
39
211
10
151.219469
20
276.741591
11
151.242559
21
276.825836
0
LINE
8
annotation
62
1
39
211
10
151.242559
20
276.825836
11
151.250567
21
276.915322
0
LINE
8
annotation
62
1
39
211
10
151.250567
20
276.915322
11
151.250567
21
276.915322
0
LINE
8
annotation
62
1
39
211
10
151.250567
20
276.915322
11
151.242559
21
277.004390
0
LINE
8
annotation
62
1
39
211
10
151.242559
20
277.004390
11
151.219469
21
277.088310
0
LINE
8
annotation
62
1
39
211
10
151.219469
20
277.088310
11
151.182697
21
277.165657
0
LINE
8
annotation
62
1
39
211
10
151.182697
20
277.165657
11
151.133643
21
277.235010
0
LINE
8
annotation
62
1
39
211
10
151.133643
20
277.235010
11
151.073707
21
277.294945
0
LINE
8
annotation
62
1
39
211
10
151.073707
20
277.294945
11
151.004290
21
277.344039
0
LINE
8
annotation
62
1
39
211
10
151.004290
20
277.344039
11
150.926791
21
277.380868
0
LINE
8
annotation
62
1
39
211
10
150.926791
20
277.380868
11
150.842610
21
277.404009
0
LINE
8
annotation
62
1
39
211
10
150.842610
20
277.404009
11
150.753148
21
277.412039
0
LINE
8
annotation
62
1
39
211
10
150.753148
20
277.412039
11
150.255729
21
277.412039
0
LINE
8
annotation
62
1
39
211
10
154.207146
20
108.152124
11
142.764871
21
108.152124
0
LINE
8
annotation
62
1
39
211
10
142.764871
20
108.152124
11
154.207146
21
128.759591
0
LINE
8
annotation
62
1
39
211
10
154.207146
20
128.759591
11
142.764871
21
128.759591
0
LINE
8
annotation
62
1
39
211
10
173.204695
20
118.455857
11
161.936885
21
118.455857
0
LINE
8
annotation
62
1
39
211
10
180.930557
20
108.152770
11
185.506692
21
108.152770
0
LINE
8
annotation
62
1
39
211
10
185.506692
20
108.152770
11
185.506692
21
108.152770
0
LINE
8
annotation
62
1
39
211
10
185.506692
20
108.152770
11
186.329720
21
108.226601
0
LINE
8
annotation
62
1
39
211
10
186.329720
20
108.226601
11
187.104162
21
108.439387
0
LINE
8
annotation
62
1
39
211
10
187.104162
20
108.439387
11
187.817135
21
108.778065
0
LINE
8
annotation
62
1
39
211
10
187.817135
20
108.778065
11
188.455760
21
109.229575
0
LINE
8
annotation
62
1
39
211
10
188.455760
20
109.229575
11
189.007155
21
109.780855
0
LINE
8
annotation
62
1
39
211
10
189.007155
20
109.780855
11
189.458440
21
110.418844
0
LINE
8
annotation
62
1
39
211
10
189.458440
20
110.418844
11
189.796734
21
111.130479
0
LINE
8
annotation
62
1
39
211
10
189.796734
20
111.130479
11
190.009156
21
111.902699
0
LINE
8
annotation
62
1
39
211
10
190.009156
20
111.902699
11
190.082826
21
112.722443
0
LINE
8
annotation
62
1
39
211
10
190.082826
20
112.722443
11
190.082826
21
115.013741
0
LINE
8
annotation
62
1
39
211
10
190.082826
20
115.013741
11
190.082826
21
115.013741
0
LINE
8
annotation
62
1
39
211
10
190.082826
20
115.013741
11
190.009156
21
115.833144
0
LINE
8
annotation
62
1
39
211
10
190.009156
20
115.833144
11
189.796734
21
116.605184
0
LINE
8
annotation
62
1
39
211
10
189.796734
20
116.605184
11
189.458440
21
117.316766
0
LINE
8
annotation
62
1
39
211
10
189.458440
20
117.316766
11
189.007155
21
117.954796
0
LINE
8
annotation
62
1
39
211
10
189.007155
20
117.954796
11
188.455760
21
118.506183
0
LINE
8
annotation
62
1
39
211
10
188.455760
20
118.506183
11
187.817135
21
118.957831
0
LINE
8
annotation
62
1
39
211
10
187.817135
20
118.957831
11
187.104162
21
119.296648
0
LINE
8
annotation
62
1
39
211
10
187.104162
20
119.296648
11
186.329720
21
119.509540
0
LINE
8
annotation
62
1
39
211
10
186.329720
20
119.509540
11
185.506692
21
119.583414
0
LINE
8
annotation
62
1
39
211
10
185.506692
20
119.583414
11
183.215394
21
119.583414
0
LINE
8
annotation
62
1
39
211
10
183.215394
20
119.583414
11
185.506692
21
119.583414
0
LINE
8
annotation
62
1
39
211
10
185.506692
20
119.583414
11
185.506692
21
119.583414
0
LINE
8
annotation
62
1
39
211
10
185.506692
20
119.583414
11
186.329720
21
119.657305
0
LINE
8
annotation
62
1
39
211
10
186.329720
20
119.657305
11
187.104162
21
119.870321
0
LINE
8
annotation
62
1
39
211
10
187.104162
20
119.870321
11
187.817135
21
120.209475
0
LINE
8
annotation
62
1
39
211
10
187.817135
20
120.209475
11
188.455760
21
120.661779
0
LINE
8
annotation
62
1
39
211
10
188.455760
20
120.661779
11
189.007155
21
121.214247
0
LINE
8
annotation
62
1
39
211
10
189.007155
20
121.214247
11
189.458440
21
121.853891
0
LINE
8
annotation
62
1
39
211
10
189.458440
20
121.853891
11
189.796734
21
122.567724
0
LINE
8
annotation
62
1
39
211
10
189.796734
20
122.567724
11
190.009156
21
123.342760
0
LINE
8
annotation
62
1
39
211
10
190.009156
20
123.342760
11
190.082826
21
124.166010
0
LINE
8
annotation
62
1
39
211
10
190.082826
20
124.166010
11
190.082826
21
124.166010
0
LINE
8
annotation
62
1
39
211
10
190.082826
20
124.166010
11
190.009156
21
124.985414
0
LINE
8
annotation
62
1
39
211
10
190.009156
20
124.985414
11
189.796734
21
125.757453
0
LINE
8
annotation
62
1
39
211
10
189.796734
20
125.757453
11
189.458440
21
126.469035
0
LINE
8
annotation
62
1
39
211
10
189.458440
20
126.469035
11
189.007155
21
127.107066
0
LINE
8
annotation
62
1
39
211
10
189.007155
20
127.107066
11
188.455760
21
127.658452
0
LINE
8
annotation
62
1
39
211
10
188.455760
20
127.658452
11
187.817135
21
128.110100
0
LINE
8
annotation
62
1
39
211
10
187.817135
20
128.110100
11
187.104162
21
128.448917
0
LINE
8
annotation
62
1
39
211
10
187.104162
20
128.448917
11
186.329720
21
128.661809
0
LINE
8
annotation
62
1
39
211
10
186.329720
20
128.661809
11
185.506692
21
128.735683
0
LINE
8
annotation
62
1
39
211
10
185.506692
20
128.735683
11
180.930557
21
128.735683
0
LINE
8
boundary
62
5
39
2
10
224.006824
20
48.414755
11
225.407972
21
45.995589
0
LINE
8
boundary
62
5
39
2
10
225.407972
20
45.995589
11
226.860447
21
42.658121
0
LINE
8
boundary
62
5
39
2
10
226.860447
20
42.658121
11
231.922024
21
30.461505
0
LINE
8
boundary
62
5
39
2
10
231.922024
20
30.461505
11
235.138941
21
22.286374
0
LINE
8
boundary
62
5
39
2
10
235.138941
20
22.286374
11
238.395792
21
15.759764
0
LINE
8
boundary
62
5
39
2
10
238.395792
20
15.759764
11
238.267427
21
14.872194
0
LINE
8
boundary
62
5
39
2
10
238.267427
20
14.872194
11
239.236879
21
12.362786
0
LINE
8
boundary
62
5
39
2
10
239.236879
20
12.362786
11
243.337296
21
7.220194
0
LINE
8
boundary
62
5
39
2
10
243.337296
20
7.220194
11
244.494715
21
7.016493
0
LINE
8
boundary
62
5
39
2
10
244.494715
20
7.016493
11
245.948466
21
6.667500
0
LINE
8
boundary
62
5
39
2
10
245.948466
20
6.667500
11
256.257648
21
6.796053
0
LINE
8
boundary
62
5
39
2
10
256.257648
20
6.796053
11
264.917735
21
6.688178
0
LINE
8
boundary
62
5
39
2
10
264.917735
20
6.688178
11
265.736008
21
6.765524
0
LINE
8
boundary
62
5
39
2
10
265.736008
20
6.765524
11
266.946730
21
7.186374
0
LINE
8
boundary
62
5
39
2
10
266.946730
20
7.186374
11
274.966407
21
10.422125
0
LINE
8
boundary
62
5
39
2
10
274.966407
20
10.422125
11
282.277965
21
13.864736
0
LINE
8
boundary
62
5
39
2
10
282.277965
20
13.864736
11
289.571838
21
18.261719
0
LINE
8
boundary
62
5
39
2
10
289.571838
20
18.261719
11
291.598490
21
19.568264
0
LINE
8
boundary
62
5
39
2
10
291.598490
20
19.568264
11
292.101120
21
20.820837
0
LINE
8
boundary
62
5
39
2
10
292.101120
20
20.820837
11
298.514249
21
36.215591
0
LINE
8
boundary
62
5
39
2
10
298.514249
20
36.215591
11
304.980028
21
52.974929
0
LINE
8
boundary
62
5
39
2
10
304.980028
20
52.974929
11
308.132339
21
61.970167
0
LINE
8
boundary
62
5
39
2
10
308.132339
20
61.970167
11
310.028650
21
69.496945
0
LINE
8
boundary
62
5
39
2
10
310.028650
20
69.496945
11
264.416808
21
69.566945
0
LINE
8
boundary
62
5
39
2
10
264.416808
20
69.566945
11
264.416808
21
70.712945
0
LINE
8
boundary
62
5
39
2
10
264.416808
20
70.712945
11
310.335011
21
70.712945
0
LINE
8
boundary
62
5
39
2
10
310.335011
20
70.712945
11
311.802845
21
76.539021
0
LINE
8
boundary
62
5
39
2
10
311.802845
20
76.539021
11
311.822235
21
82.891620
0
LINE
8
boundary
62
5
39
2
10
311.822235
20
82.891620
11
312.395675
21
94.525897
0
LINE
8
boundary
62
5
39
2
10
312.395675
20
94.525897
11
312.860852
21
106.243194
0
LINE
8
boundary
62
5
39
2
10
312.860852
20
106.243194
11
313.210498
21
112.602249
0
LINE
8
boundary
62
5
39
2
10
313.210498
20
112.602249
11
307.525157
21
132.251758
0
LINE
8
boundary
62
5
39
2
10
307.525157
20
132.251758
11
306.274913
21
136.502530
0
LINE
8
boundary
62
5
39
2
10
306.274913
20
136.502530
11
304.708423
21
140.715231
0
LINE
8
boundary
62
5
39
2
10
304.708423
20
140.715231
11
298.864185
21
153.952753
0
LINE
8
boundary
62
5
39
2
10
298.864185
20
153.952753
11
297.189376
21
157.387378
0
LINE
8
boundary
62
5
39
2
10
297.189376
20
157.387378
11
293.568516
21
170.116894
0
LINE
8
boundary
62
5
39
2
10
293.568516
20
170.116894
11
288.715402
21
179.516688
0
LINE
8
boundary
62
5
39
2
10
288.715402
20
179.516688
11
286.172075
21
185.542519
0
LINE
8
boundary
62
5
39
2
10
286.172075
20
185.542519
11
286.041244
21
189.125953
0
LINE
8
boundary
62
5
39
2
10
286.041244
20
189.125953
11
286.141444
21
192.706353
0
LINE
8
boundary
62
5
39
2
10
286.141444
20
192.706353
11
253.042132
21
192.776353
0
LINE
8
boundary
62
5
39
2
10
253.042132
20
192.776353
11
253.042131
21
193.922353
0
LINE
8
boundary
62
5
39
2
10
253.042131
20
193.922353
11
286.047961
21
193.922353
0
LINE
8
boundary
62
5
39
2
10
286.047961
20
193.922353
11
282.153283
21
204.949428
0
LINE
8
boundary
62
5
39
2
10
282.153283
20
204.949428
11
279.398250
21
216.247466
0
LINE
8
boundary
62
5
39
2
10
279.398250
20
216.247466
11
276.535150
21
223.074106
0
LINE
8
boundary
62
5
39
2
10
276.535150
20
223.074106
11
275.175216
21
228.308149
0
LINE
8
boundary
62
5
39
2
10
275.175216
20
228.308149
11
274.580112
21
233.824133
0
LINE
8
boundary
62
5
39
2
10
274.580112
20
233.824133
11
274.673452
21
237.537653
0
LINE
8
boundary
62
5
39
2
10
274.673452
20
237.537653
11
268.007457
21
241.225488
0
LINE
8
boundary
62
5
39
2
10
268.007457
20
241.225488
11
266.249094
21
242.296859
0
LINE
8
boundary
62
5
39
2
10
266.249094
20
242.296859
11
261.522016
21
242.358585
0
LINE
8
boundary
62
5
39
2
10
261.522016
20
242.358585
11
259.700205
21
243.529483
0
LINE
8
boundary
62
5
39
2
10
259.700205
20
243.529483
11
257.477026
21
245.602919
0
LINE
8
boundary
62
5
39
2
10
257.477026
20
245.602919
11
261.688618
21
247.131318
0
LINE
8
boundary
62
5
39
2
10
261.688618
20
247.131318
11
267.168090
21
252.819564
0
LINE
8
boundary
62
5
39
2
10
267.168090
20
252.819564
11
268.801406
21
254.321042
0
LINE
8
boundary
62
5
39
2
10
268.801406
20
254.321042
11
274.551075
21
260.966685
0
LINE
8
boundary
62
5
39
2
10
274.551075
20
260.966685
11
272.492341
21
268.749034
0
LINE
8
boundary
62
5
39
2
10
272.492341
20
268.749034
11
272.784964
21
273.279483
0
LINE
8
boundary
62
5
39
2
10
272.784964
20
273.279483
11
272.208681
21
275.294913
0
LINE
8
boundary
62
5
39
2
10
272.208681
20
275.294913
11
255.435289
21
275.364912
0
LINE
8
boundary
62
5
39
2
10
255.435289
20
275.364912
11
255.435289
21
276.510912
0
LINE
8
boundary
62
5
39
2
10
255.435289
20
276.510912
11
271.860984
21
276.510912
0
LINE
8
boundary
62
5
39
2
10
271.860984
20
276.510912
11
270.739041
21
285.065357
0
LINE
8
boundary
62
5
39
2
10
270.739041
20
285.065357
11
266.047237
21
287.469138
0
LINE
8
boundary
62
5
39
2
10
266.047237
20
287.469138
11
263.074544
21
288.261062
0
LINE
8
boundary
62
5
39
2
10
263.074544
20
288.261062
11
260.938540
21
288.583730
0
LINE
8
boundary
62
5
39
2
10
260.938540
20
288.583730
11
257.512844
21
291.852238
0
LINE
8
boundary
62
5
39
2
10
257.512844
20
291.852238
11
256.741494
21
291.926776
0
LINE
8
boundary
62
5
39
2
10
256.741494
20
291.926776
11
251.140451
21
290.514286
0
LINE
8
boundary
62
5
39
2
10
251.140451
20
290.514286
11
249.161849
21
287.618336
0
LINE
8
boundary
62
5
39
2
10
249.161849
20
287.618336
11
246.474025
21
287.878282
0
LINE
8
boundary
62
5
39
2
10
246.474025
20
287.878282
11
243.659482
21
282.539176
0
LINE
8
boundary
62
5
39
2
10
243.659482
20
282.539176
11
240.684613
21
279.638557
0
LINE
8
boundary
62
5
39
2
10
240.684613
20
279.638557
11
238.548513
21
275.654750
0
LINE
8
boundary
62
5
39
2
10
238.548513
20
275.654750
11
237.810850
21
275.063173
0
LINE
8
boundary
62
5
39
2
10
237.810850
20
275.063173
11
234.951811
21
267.237551
0
LINE
8
boundary
62
5
39
2
10
234.951811
20
267.237551
11
234.761720
21
266.082631
0
LINE
8
boundary
62
5
39
2
10
234.761720
20
266.082631
11
234.947204
21
264.957760
0
LINE
8
boundary
62
5
39
2
10
234.947204
20
264.957760
11
237.776498
21
254.913901
0
LINE
8
boundary
62
5
39
2
10
237.776498
20
254.913901
11
241.025019
21
249.989772
0
LINE
8
boundary
62
5
39
2
10
241.025019
20
249.989772
11
241.370805
21
249.000293
0
LINE
8
boundary
62
5
39
2
10
241.370805
20
249.000293
11
240.101333
21
247.558192
0
LINE
8
boundary
62
5
39
2
10
240.101333
20
247.558192
11
236.731283
21
242.490568
0
LINE
8
boundary
62
5
39
2
10
236.731283
20
242.490568
11
232.675240
21
237.791470
0
LINE
8
boundary
62
5
39
2
10
232.675240
20
237.791470
11
229.948057
21
233.868752
0
LINE
8
boundary
62
5
39
2
10
229.948057
20
233.868752
11
229.341054
21
233.120200
0
LINE
8
boundary
62
5
39
2
10
229.341054
20
233.120200
11
225.648814
21
221.064878
0
LINE
8
boundary
62
5
39
2
10
225.648814
20
221.064878
11
223.935129
21
217.102689
0
LINE
8
boundary
62
5
39
2
10
223.935129
20
217.102689
11
222.384636
21
211.134911
0
LINE
8
boundary
62
5
39
2
10
222.384636
20
211.134911
11
219.595446
21
201.707133
0
LINE
8
boundary
62
5
39
2
10
219.595446
20
201.707133
11
219.613436
21
197.430378
0
LINE
8
boundary
62
5
39
2
10
219.613436
20
197.430378
11
219.979698
21
175.041316
0
LINE
8
boundary
62
5
39
2
10
219.979698
20
175.041316
11
220.062376
21
170.313470
0
LINE
8
boundary
62
5
39
2
10
220.062376
20
170.313470
11
220.948899
21
153.765729
0
LINE
8
boundary
62
5
39
2
10
220.948899
20
153.765729
11
222.316872
21
144.227025
0
LINE
8
boundary
62
5
39
2
10
222.316872
20
144.227025
11
223.281905
21
138.018757
0
LINE
8
boundary
62
5
39
2
10
223.281905
20
138.018757
11
223.723580
21
135.174507
0
LINE
8
boundary
62
5
39
2
10
223.723580
20
135.174507
11
227.721412
21
116.096382
0
LINE
8
boundary
62
5
39
2
10
227.721412
20
116.096382
11
229.607723
21
109.688413
0
LINE
8
boundary
62
5
39
2
10
229.607723
20
109.688413
11
231.836108
21
101.852541
0
LINE
8
boundary
62
5
39
2
10
231.836108
20
101.852541
11
232.304265
21
100.104853
0
LINE
8
boundary
62
5
39
2
10
232.304265
20
100.104853
11
232.284330
21
98.206536
0
LINE
8
boundary
62
5
39
2
10
232.284330
20
98.206536
11
231.556419
21
94.335670
0
LINE
8
boundary
62
5
39
2
10
231.556419
20
94.335670
11
229.406300
21
85.952660
0
LINE
8
boundary
62
5
39
2
10
229.406300
20
85.952660
11
227.679085
21
81.139687
0
LINE
8
boundary
62
5
39
2
10
227.679085
20
81.139687
11
226.567550
21
77.807829
0
LINE
8
boundary
62
5
39
2
10
226.567550
20
77.807829
11
225.360155
21
76.201686
0
LINE
8
boundary
62
5
39
2
10
225.360155
20
76.201686
11
224.074260
21
74.608432
0
LINE
8
boundary
62
5
39
2
10
224.074260
20
74.608432
11
221.357455
21
72.081621
0
LINE
8
boundary
62
5
39
2
10
221.357455
20
72.081621
11
219.971457
21
70.701421
0
LINE
8
boundary
62
5
39
2
10
219.971457
20
70.701421
11
214.671002
21
68.231245
0
LINE
8
boundary
62
5
39
2
10
214.671002
20
68.231245
11
215.886934
21
65.117028
0
LINE
8
boundary
62
5
39
2
10
215.886934
20
65.117028
11
217.615171
21
60.687866
0
LINE
8
boundary
62
5
39
2
10
217.615171
20
60.687866
11
218.451623
21
59.347904
0
LINE
8
boundary
62
5
39
2
10
218.451623
20
59.347904
11
224.006824
21
48.414755
0
LINE
8
annotation
62
1
39
211
10
261.738588
20
69.019945
11
261.738588
21
71.259945
0
LINE
8
annotation
62
1
39
211
10
261.738588
20
71.259945
11
261.240607
21
70.761824
0
LINE
8
annotation
62
1
39
211
10
250.612269
20
192.229335
11
249.617432
21
192.229335
0
LINE
8
annotation
62
1
39
211
10
249.617432
20
192.229335
11
250.536694
21
193.709229
0
LINE
8
annotation
62
1
39
211
10
250.536694
20
193.709229
11
250.536694
21
193.709229
0
LINE
8
annotation
62
1
39
211
10
250.536694
20
193.709229
11
250.537793
21
193.710589
0
LINE
8
annotation
62
1
39
211
10
250.537793
20
193.710589
11
250.538847
21
193.711961
0
LINE
8
annotation
62
1
39
211
10
250.538847
20
193.711961
11
250.539863
21
193.713355
0
LINE
8
annotation
62
1
39
211
10
250.539863
20
193.713355
11
250.540847
21
193.714784
0
LINE
8
annotation
62
1
39
211
10
250.540847
20
193.714784
11
250.541807
21
193.716260
0
LINE
8
annotation
62
1
39
211
10
250.541807
20
193.716260
11
250.542750
21
193.717793
0
LINE
8
annotation
62
1
39
211
10
250.542750
20
193.717793
11
250.543683
21
193.719396
0
LINE
8
annotation
62
1
39
211
10
250.543683
20
193.719396
11
250.544612
21
193.721079
0
LINE
8
annotation
62
1
39
211
10
250.544612
20
193.721079
11
250.545544
21
193.722855
0
LINE
8
annotation
62
1
39
211
10
250.545544
20
193.722855
11
250.545544
21
193.722855
0
LINE
8
annotation
62
1
39
211
10
250.545544
20
193.722855
11
250.583500
21
193.804350
0
LINE
8
annotation
62
1
39
211
10
250.583500
20
193.804350
11
250.605674
21
193.888827
0
LINE
8
annotation
62
1
39
211
10
250.605674
20
193.888827
11
250.612608
21
193.974377
0
LINE
8
annotation
62
1
39
211
10
250.612608
20
193.974377
11
250.604845
21
194.059091
0
LINE
8
annotation
62
1
39
211
10
250.604845
20
194.059091
11
250.582931
21
194.141060
0
LINE
8
annotation
62
1
39
211
10
250.582931
20
194.141060
11
250.547407
21
194.218375
0
LINE
8
annotation
62
1
39
211
10
250.547407
20
194.218375
11
250.498817
21
194.289128
0
LINE
8
annotation
62
1
39
211
10
250.498817
20
194.289128
11
250.437705
21
194.351410
0
LINE
8
annotation
62
1
39
211
10
250.437705
20
194.351410
11
250.364614
21
194.403312
0
LINE
8
annotation
62
1
39
211
10
250.364614
20
194.403312
11
250.364614
21
194.403312
0
LINE
8
annotation
62
1
39
211
10
250.364614
20
194.403312
11
250.282892
21
194.440729
0
LINE
8
annotation
62
1
39
211
10
250.282892
20
194.440729
11
250.198286
21
194.462560
0
LINE
8
annotation
62
1
39
211
10
250.198286
20
194.462560
11
250.112686
21
194.469298
0
LINE
8
annotation
62
1
39
211
10
250.112686
20
194.469298
11
250.027985
21
194.461434
0
LINE
8
annotation
62
1
39
211
10
250.027985
20
194.461434
11
249.946074
21
194.439458
0
LINE
8
annotation
62
1
39
211
10
249.946074
20
194.439458
11
249.868844
21
194.403863
0
LINE
8
annotation
62
1
39
211
10
249.868844
20
194.403863
11
249.798187
21
194.355140
0
LINE
8
annotation
62
1
39
211
10
249.798187
20
194.355140
11
249.735994
21
194.293780
0
LINE
8
annotation
62
1
39
211
10
249.735994
20
194.293780
11
249.684157
21
194.220274
0
LINE
8
annotation
62
1
39
211
10
249.684157
20
194.220274
11
249.618837
21
194.094971
0
LINE
8
annotation
62
1
39
211
10
252.010589
20
274.817982
11
252.508008
21
274.817982
0
LINE
8
annotation
62
1
39
211
10
252.508008
20
274.817982
11
252.508008
21
274.817982
0
LINE
8
annotation
62
1
39
211
10
252.508008
20
274.817982
11
252.597470
21
274.826008
0
LINE
8
annotation
62
1
39
211
10
252.597470
20
274.826008
11
252.681651
21
274.849137
0
LINE
8
annotation
62
1
39
211
10
252.681651
20
274.849137
11
252.759150
21
274.885951
0
LINE
8
annotation
62
1
39
211
10
252.759150
20
274.885951
11
252.828567
21
274.935030
0
LINE
8
annotation
62
1
39
211
10
252.828567
20
274.935030
11
252.888503
21
274.994953
0
LINE
8
annotation
62
1
39
211
10
252.888503
20
274.994953
11
252.937557
21
275.064301
0
LINE
8
annotation
62
1
39
211
10
252.937557
20
275.064301
11
252.974329
21
275.141655
0
LINE
8
annotation
62
1
39
211
10
252.974329
20
275.141655
11
252.997419
21
275.225594
0
LINE
8
annotation
62
1
39
211
10
252.997419
20
275.225594
11
253.005427
21
275.314699
0
LINE
8
annotation
62
1
39
211
10
253.005427
20
275.314699
11
253.005427
21
275.563759
0
LINE
8
annotation
62
1
39
211
10
253.005427
20
275.563759
11
253.005427
21
275.563759
0
LINE
8
annotation
62
1
39
211
10
253.005427
20
275.563759
11
252.997419
21
275.652827
0
LINE
8
annotation
62
1
39
211
10
252.997419
20
275.652827
11
252.974329
21
275.736747
0
LINE
8
annotation
62
1
39
211
10
252.974329
20
275.736747
11
252.937557
21
275.814095
0
LINE
8
annotation
62
1
39
211
10
252.937557
20
275.814095
11
252.888503
21
275.883448
0
LINE
8
annotation
62
1
39
211
10
252.888503
20
275.883448
11
252.828567
21
275.943383
0
LINE
8
annotation
62
1
39
211
10
252.828567
20
275.943383
11
252.759150
21
275.992476
0
LINE
8
annotation
62
1
39
211
10
252.759150
20
275.992476
11
252.681651
21
276.029305
0
LINE
8
annotation
62
1
39
211
10
252.681651
20
276.029305
11
252.597470
21
276.052446
0
LINE
8
annotation
62
1
39
211
10
252.597470
20
276.052446
11
252.508008
21
276.060476
0
LINE
8
annotation
62
1
39
211
10
252.508008
20
276.060476
11
252.258948
21
276.060476
0
LINE
8
annotation
62
1
39
211
10
252.258948
20
276.060476
11
252.508008
21
276.060476
0
LINE
8
annotation
62
1
39
211
10
252.508008
20
276.060476
11
252.508008
21
276.060476
0
LINE
8
annotation
62
1
39
211
10
252.508008
20
276.060476
11
252.597470
21
276.068508
0
LINE
8
annotation
62
1
39
211
10
252.597470
20
276.068508
11
252.681651
21
276.091662
0
LINE
8
annotation
62
1
39
211
10
252.681651
20
276.091662
11
252.759150
21
276.128528
0
LINE
8
annotation
62
1
39
211
10
252.759150
20
276.128528
11
252.828567
21
276.177693
0
LINE
8
annotation
62
1
39
211
10
252.828567
20
276.177693
11
252.888503
21
276.237745
0
LINE
8
annotation
62
1
39
211
10
252.888503
20
276.237745
11
252.937557
21
276.307273
0
LINE
8
annotation
62
1
39
211
10
252.937557
20
276.307273
11
252.974329
21
276.384866
0
LINE
8
annotation
62
1
39
211
10
252.974329
20
276.384866
11
252.997419
21
276.469111
0
LINE
8
annotation
62
1
39
211
10
252.997419
20
276.469111
11
253.005427
21
276.558597
0
LINE
8
annotation
62
1
39
211
10
253.005427
20
276.558597
11
253.005427
21
276.558597
0
LINE
8
annotation
62
1
39
211
10
253.005427
20
276.558597
11
252.997419
21
276.647665
0
LINE
8
annotation
62
1
39
211
10
252.997419
20
276.647665
11
252.974329
21
276.731584
0
LINE
8
annotation
62
1
39
211
10
252.974329
20
276.731584
11
252.937557
21
276.808932
0
LINE
8
annotation
62
1
39
211
10
252.937557
20
276.808932
11
252.888503
21
276.878285
0
LINE
8
annotation
62
1
39
211
10
252.888503
20
276.878285
11
252.828567
21
276.938220
0
LINE
8
annotation
62
1
39
211
10
252.828567
20
276.938220
11
252.759150
21
276.987314
0
LINE
8
annotation
62
1
39
211
10
252.759150
20
276.987314
11
252.681651
21
277.024142
0
LINE
8
annotation
62
1
39
211
10
252.681651
20
277.024142
11
252.597470
21
277.047283
0
LINE
8
annotation
62
1
39
211
10
252.597470
20
277.047283
11
252.508008
21
277.055313
0
LINE
8
annotation
62
1
39
211
10
252.508008
20
277.055313
11
252.010589
21
277.055313
0
LINE
8
annotation
62
1
39
211
10
256.218055
20
107.831377
11
244.811944
21
107.831377
0
LINE
8
annotation
62
1
39
211
10
244.811944
20
107.831377
11
256.218055
21
128.373713
0
LINE
8
annotation
62
1
39
211
10
256.218055
20
128.373713
11
244.811944
21
128.373713
0
LINE
8
annotation
62
1
39
211
10
275.155562
20
118.102545
11
263.923363
21
118.102545
0
LINE
8
annotation
62
1
39
211
10
282.857005
20
112.385963
11
282.857005
21
112.385963
0
LINE
8
annotation
62
1
39
211
10
282.857005
20
112.385963
11
282.930654
21
111.565756
0
LINE
8
annotation
62
1
39
211
10
282.930654
20
111.565756
11
283.142936
21
110.794354
0
LINE
8
annotation
62
1
39
211
10
283.142936
20
110.794354
11
283.480849
21
110.084491
0
LINE
8
annotation
62
1
39
211
10
283.480849
20
110.084491
11
283.931397
21
109.448901
0
LINE
8
annotation
62
1
39
211
10
283.931397
20
109.448901
11
284.481580
21
108.900318
0
LINE
8
annotation
62
1
39
211
10
284.481580
20
108.900318
11
285.118398
21
108.451475
0
LINE
8
annotation
62
1
39
211
10
285.118398
20
108.451475
11
285.828853
21
108.115108
0
LINE
8
annotation
62
1
39
211
10
285.828853
20
108.115108
11
286.599946
21
107.903949
0
LINE
8
annotation
62
1
39
211
10
286.599946
20
107.903949
11
287.418677
21
107.830733
0
LINE
8
annotation
62
1
39
211
10
287.418677
20
107.830733
11
287.418677
21
107.830733
0
LINE
8
annotation
62
1
39
211
10
287.418677
20
107.830733
11
288.237408
21
107.903949
0
LINE
8
annotation
62
1
39
211
10
288.237408
20
107.903949
11
289.008501
21
108.115108
0
LINE
8
annotation
62
1
39
211
10
289.008501
20
108.115108
11
289.718956
21
108.451475
0
LINE
8
annotation
62
1
39
211
10
289.718956
20
108.451475
11
290.355774
21
108.900318
0
LINE
8
annotation
62
1
39
211
10
290.355774
20
108.900318
11
290.905957
21
109.448901
0
LINE
8
annotation
62
1
39
211
10
290.905957
20
109.448901
11
291.356504
21
110.084491
0
LINE
8
annotation
62
1
39
211
10
291.356504
20
110.084491
11
291.694418
21
110.794354
0
LINE
8
annotation
62
1
39
211
10
291.694418
20
110.794354
11
291.906699
21
111.565756
0
LINE
8
annotation
62
1
39
211
10
291.906699
20
111.565756
11
291.980348
21
112.385963
0
LINE
8
annotation
62
1
39
211
10
291.980348
20
112.385963
11
291.980348
21
114.658425
0
LINE
8
annotation
62
1
39
211
10
291.980348
20
114.658425
11
291.980348
21
114.658425
0
LINE
8
annotation
62
1
39
211
10
291.980348
20
114.658425
11
291.906742
21
115.479029
0
LINE
8
annotation
62
1
39
211
10
291.906742
20
115.479029
11
291.694567
21
116.251497
0
LINE
8
annotation
62
1
39
211
10
291.694567
20
116.251497
11
291.356791
21
116.962902
0
LINE
8
annotation
62
1
39
211
10
291.356791
20
116.962902
11
290.906381
21
117.600322
0
LINE
8
annotation
62
1
39
211
10
290.906381
20
117.600322
11
290.356304
21
118.150829
0
LINE
8
annotation
62
1
39
211
10
290.356304
20
118.150829
11
289.719528
21
118.601501
0
LINE
8
annotation
62
1
39
211
10
289.719528
20
118.601501
11
289.009020
21
118.939411
0
LINE
8
annotation
62
1
39
211
10
289.009020
20
118.939411
11
288.237747
21
119.151636
0
LINE
8
annotation
62
1
39
211
10
288.237747
20
119.151636
11
287.418677
21
119.225250
0
LINE
8
annotation
62
1
39
211
10
287.418677
20
119.225250
11
287.418677
21
119.225250
0
LINE
8
annotation
62
1
39
211
10
287.418677
20
119.225250
11
286.599607
21
119.151593
0
LINE
8
annotation
62
1
39
211
10
286.599607
20
119.151593
11
285.828334
21
118.939263
0
LINE
8
annotation
62
1
39
211
10
285.828334
20
118.939263
11
285.117826
21
118.601215
0
LINE
8
annotation
62
1
39
211
10
285.117826
20
118.601215
11
284.481050
21
118.150405
0
LINE
8
annotation
62
1
39
211
10
284.481050
20
118.150405
11
283.930973
21
117.599792
0
LINE
8
annotation
62
1
39
211
10
283.930973
20
117.599792
11
283.480563
21
116.962330
0
LINE
8
annotation
62
1
39
211
10
283.480563
20
116.962330
11
283.142787
21
116.250977
0
LINE
8
annotation
62
1
39
211
10
283.142787
20
116.250977
11
282.930612
21
115.478690
0
LINE
8
annotation
62
1
39
211
10
282.930612
20
115.478690
11
282.857005
21
114.658425
0
LINE
8
annotation
62
1
39
211
10
282.857005
20
114.658425
11
282.857005
21
112.385963
0
LINE
8
annotation
62
1
39
211
10
291.980348
20
123.793362
11
291.980348
21
123.793362
0
LINE
8
annotation
62
1
39
211
10
291.980348
20
123.793362
11
291.906742
21
124.610176
0
LINE
8
annotation
62
1
39
211
10
291.906742
20
124.610176
11
291.694567
21
125.379775
0
LINE
8
annotation
62
1
39
211
10
291.694567
20
125.379775
11
291.356791
21
126.089108
0
LINE
8
annotation
62
1
39
211
10
291.356791
20
126.089108
11
290.906381
21
126.725123
0
LINE
8
annotation
62
1
39
211
10
290.906381
20
126.725123
11
290.356304
21
127.274766
0
LINE
8
annotation
62
1
39
211
10
290.356304
20
127.274766
11
289.719528
21
127.724987
0
LINE
8
annotation
62
1
39
211
10
289.719528
20
127.724987
11
289.009020
21
128.062733
0
LINE
8
annotation
62
1
39
211
10
289.009020
20
128.062733
11
288.237747
21
128.274952
0
LINE
8
annotation
62
1
39
211
10
288.237747
20
128.274952
11
287.418677
21
128.348593
0
LINE
8
annotation
62
1
39
211
10
287.418677
20
128.348593
11
287.418677
21
128.348593
0
LINE
8
annotation
62
1
39
211
10
287.418677
20
128.348593
11
286.599607
21
128.274952
0
LINE
8
annotation
62
1
39
211
10
286.599607
20
128.274952
11
285.828334
21
128.062733
0
LINE
8
annotation
62
1
39
211
10
285.828334
20
128.062733
11
285.117826
21
127.724987
0
LINE
8
annotation
62
1
39
211
10
285.117826
20
127.724987
11
284.481050
21
127.274766
0
LINE
8
annotation
62
1
39
211
10
284.481050
20
127.274766
11
283.930973
21
126.725123
0
LINE
8
annotation
62
1
39
211
10
283.930973
20
126.725123
11
283.480563
21
126.089108
0
LINE
8
annotation
62
1
39
211
10
283.480563
20
126.089108
11
283.142787
21
125.379775
0
LINE
8
annotation
62
1
39
211
10
283.142787
20
125.379775
11
282.930612
21
124.610176
0
LINE
8
annotation
62
1
39
211
10
282.930612
20
124.610176
11
282.857005
21
123.793362
0
LINE
8
annotation
62
1
39
211
10
282.857005
20
123.793362
11
282.857005
21
123.793362
0
LINE
8
annotation
62
1
39
211
10
282.857005
20
123.793362
11
282.930654
21
122.972714
0
LINE
8
annotation
62
1
39
211
10
282.930654
20
122.972714
11
283.142936
21
122.200128
0
LINE
8
annotation
62
1
39
211
10
283.142936
20
122.200128
11
283.480849
21
121.488551
0
LINE
8
annotation
62
1
39
211
10
283.480849
20
121.488551
11
283.931397
21
120.850928
0
LINE
8
annotation
62
1
39
211
10
283.931397
20
120.850928
11
284.481580
21
120.300207
0
LINE
8
annotation
62
1
39
211
10
284.481580
20
120.300207
11
285.118398
21
119.849332
0
LINE
8
annotation
62
1
39
211
10
285.118398
20
119.849332
11
285.828853
21
119.511250
0
LINE
8
annotation
62
1
39
211
10
285.828853
20
119.511250
11
286.599946
21
119.298907
0
LINE
8
annotation
62
1
39
211
10
286.599946
20
119.298907
11
287.418677
21
119.225250
0
LINE
8
annotation
62
1
39
211
10
287.418677
20
119.225250
11
287.418677
21
119.225250
0
LINE
8
annotation
62
1
39
211
10
287.418677
20
119.225250
11
288.237408
21
119.298907
0
LINE
8
annotation
62
1
39
211
10
288.237408
20
119.298907
11
289.008501
21
119.511250
0
LINE
8
annotation
62
1
39
211
10
289.008501
20
119.511250
11
289.718956
21
119.849332
0
LINE
8
annotation
62
1
39
211
10
289.718956
20
119.849332
11
290.355774
21
120.300207
0
LINE
8
annotation
62
1
39
211
10
290.355774
20
120.300207
11
290.905957
21
120.850928
0
LINE
8
annotation
62
1
39
211
10
290.905957
20
120.850928
11
291.356504
21
121.488551
0
LINE
8
annotation
62
1
39
211
10
291.356504
20
121.488551
11
291.694418
21
122.200128
0
LINE
8
annotation
62
1
39
211
10
291.694418
20
122.200128
11
291.906699
21
122.972714
0
LINE
8
annotation
62
1
39
211
10
291.906699
20
122.972714
11
291.980348
21
123.793362
0
LINE
8
boundary
62
5
39
2
10
316.385498
20
27.721328
11
317.005803
21
21.537469
0
LINE
8
boundary
62
5
39
2
10
317.005803
20
21.537469
11
317.500289
21
17.670276
0
LINE
8
boundary
62
5
39
2
10
317.500289
20
17.670276
11
318.391487
21
16.774327
0
LINE
8
boundary
62
5
39
2
10
318.391487
20
16.774327
11
321.368294
21
16.139568
0
LINE
8
boundary
62
5
39
2
10
321.368294
20
16.139568
11
328.468534
21
14.444977
0
LINE
8
boundary
62
5
39
2
10
328.468534
20
14.444977
11
337.869435
21
11.810813
0
LINE
8
boundary
62
5
39
2
10
337.869435
20
11.810813
11
342.203386
21
10.885982
0
LINE
8
boundary
62
5
39
2
10
342.203386
20
10.885982
11
346.514169
21
9.853614
0
LINE
8
boundary
62
5
39
2
10
346.514169
20
9.853614
11
358.100534
21
7.048260
0
LINE
8
boundary
62
5
39
2
10
358.100534
20
7.048260
11
359.926707
21
6.667500
0
LINE
8
boundary
62
5
39
2
10
359.926707
20
6.667500
11
361.067926
21
6.900989
0
LINE
8
boundary
62
5
39
2
10
361.067926
20
6.900989
11
364.363552
21
8.128916
0
LINE
8
boundary
62
5
39
2
10
364.363552
20
8.128916
11
366.068767
21
9.839802
0
LINE
8
boundary
62
5
39
2
10
366.068767
20
9.839802
11
367.292290
21
12.099188
0
LINE
8
boundary
62
5
39
2
10
367.292290
20
12.099188
11
371.793744
21
21.161716
0
LINE
8
boundary
62
5
39
2
10
371.793744
20
21.161716
11
374.013071
21
24.917310
0
LINE
8
boundary
62
5
39
2
10
374.013071
20
24.917310
11
375.830651
21
27.992222
0
LINE
8
boundary
62
5
39
2
10
375.830651
20
27.992222
11
376.437355
21
29.830817
0
LINE
8
boundary
62
5
39
2
10
376.437355
20
29.830817
11
381.631155
21
36.540372
0
LINE
8
boundary
62
5
39
2
10
381.631155
20
36.540372
11
383.326192
21
39.438293
0
LINE
8
boundary
62
5
39
2
10
383.326192
20
39.438293
11
383.616011
21
39.896100
0
LINE
8
boundary
62
5
39
2
10
383.616011
20
39.896100
11
391.976571
21
28.959462
0
LINE
8
boundary
62
5
39
2
10
391.976571
20
28.959462
11
392.961772
21
27.389435
0
LINE
8
boundary
62
5
39
2
10
392.961772
20
27.389435
11
394.503159
21
25.134863
0
LINE
8
boundary
62
5
39
2
10
394.503159
20
25.134863
11
401.242106
21
15.970119
0
LINE
8
boundary
62
5
39
2
10
401.242106
20
15.970119
11
403.620420
21
15.579589
0
LINE
8
boundary
62
5
39
2
10
403.620420
20
15.579589
11
406.922738
21
14.222903
0
LINE
8
boundary
62
5
39
2
10
406.922738
20
14.222903
11
416.922400
21
11.967521
0
LINE
8
boundary
62
5
39
2
10
416.922400
20
11.967521
11
429.345699
21
9.573111
0
LINE
8
boundary
62
5
39
2
10
429.345699
20
9.573111
11
431.369263
21
8.983033
0
LINE
8
boundary
62
5
39
2
10
431.369263
20
8.983033
11
438.907024
21
8.527005
0
LINE
8
boundary
62
5
39
2
10
438.907024
20
8.527005
11
447.961666
21
12.166346
0
LINE
8
boundary
62
5
39
2
10
447.961666
20
12.166346
11
454.473697
21
15.716049
0
LINE
8
boundary
62
5
39
2
10
454.473697
20
15.716049
11
460.846440
21
22.874824
0
LINE
8
boundary
62
5
39
2
10
460.846440
20
22.874824
11
463.027297
21
28.861200
0
LINE
8
boundary
62
5
39
2
10
463.027297
20
28.861200
11
463.822933
21
31.211991
0
LINE
8
boundary
62
5
39
2
10
463.822933
20
31.211991
11
466.026101
21
39.116952
0
LINE
8
boundary
62
5
39
2
10
466.026101
20
39.116952
11
465.709258
21
43.341198
0
LINE
8
boundary
62
5
39
2
10
465.709258
20
43.341198
11
464.153754
21
52.239482
0
LINE
8
boundary
62
5
39
2
10
464.153754
20
52.239482
11
415.617025
21
52.309482
0
LINE
8
boundary
62
5
39
2
10
415.617025
20
52.309482
11
415.617025
21
53.455482
0
LINE
8
boundary
62
5
39
2
10
415.617025
20
53.455482
11
463.941186
21
53.455482
0
LINE
8
boundary
62
5
39
2
10
463.941186
20
53.455482
11
463.729231
21
54.667973
0
LINE
8
boundary
62
5
39
2
10
463.729231
20
54.667973
11
462.406711
21
64.013947
0
LINE
8
boundary
62
5
39
2
10
462.406711
20
64.013947
11
460.958989
21
70.757188
0
LINE
8
boundary
62
5
39
2
10
460.958989
20
70.757188
11
455.530420
21
73.194809
0
LINE
8
boundary
62
5
39
2
10
455.530420
20
73.194809
11
450.928231
21
75.123828
0
LINE
8
boundary
62
5
39
2
10
450.928231
20
75.123828
11
445.213756
21
77.482998
0
LINE
8
boundary
62
5
39
2
10
445.213756
20
77.482998
11
442.963028
21
80.126360
0
LINE
8
boundary
62
5
39
2
10
442.963028
20
80.126360
11
438.097341
21
82.821578
0
LINE
8
boundary
62
5
39
2
10
438.097341
20
82.821578
11
436.991805
21
87.412053
0
LINE
8
boundary
62
5
39
2
10
436.991805
20
87.412053
11
430.134078
21
89.578658
0
LINE
8
boundary
62
5
39
2
10
430.134078
20
89.578658
11
426.913211
21
87.244670
0
LINE
8
boundary
62
5
39
2
10
426.913211
20
87.244670
11
426.015009
21
82.141395
0
LINE
8
boundary
62
5
39
2
10
426.015009
20
82.141395
11
424.290248
21
81.671181
0
LINE
8
boundary
62
5
39
2
10
424.290248
20
81.671181
11
419.979908
21
78.864123
0
LINE
8
boundary
62
5
39
2
10
419.979908
20
78.864123
11
418.502153
21
78.267161
0
LINE
8
boundary
62
5
39
2
10
418.502153
20
78.267161
11
414.365034
21
76.233328
0
LINE
8
boundary
62
5
39
2
10
414.365034
20
76.233328
11
413.476577
21
75.826352
0
LINE
8
boundary
62
5
39
2
10
413.476577
20
75.826352
11
412.245476
21
75.053620
0
LINE
8
boundary
62
5
39
2
10
412.245476
20
75.053620
11
410.928793
21
75.524432
0
LINE
8
boundary
62
5
39
2
10
410.928793
20
75.524432
11
404.842135
21
76.871114
0
LINE
8
boundary
62
5
39
2
10
404.842135
20
76.871114
11
399.131287
21
78.741372
0
LINE
8
boundary
62
5
39
2
10
399.131287
20
78.741372
11
397.157968
21
79.425596
0
LINE
8
boundary
62
5
39
2
10
397.157968
20
79.425596
11
394.660930
21
78.337132
0
LINE
8
boundary
62
5
39
2
10
394.660930
20
78.337132
11
392.826556
21
77.773075
0
LINE
8
boundary
62
5
39
2
10
392.826556
20
77.773075
11
385.357666
21
75.312178
0
LINE
8
boundary
62
5
39
2
10
385.357666
20
75.312178
11
382.106882
21
74.181804
0
LINE
8
boundary
62
5
39
2
10
382.106882
20
74.181804
11
381.132869
21
73.941227
0
LINE
8
boundary
62
5
39
2
10
381.132869
20
73.941227
11
373.508834
21
70.762997
0
LINE
8
boundary
62
5
39
2
10
373.508834
20
70.762997
11
371.512361
21
66.826966
0
LINE
8
boundary
62
5
39
2
10
371.512361
20
66.826966
11
371.204002
21
66.191469
0
LINE
8
boundary
62
5
39
2
10
371.204002
20
66.191469
11
370.774036
21
64.908483
0
LINE
8
boundary
62
5
39
2
10
370.774036
20
64.908483
11
365.786054
21
49.565906
0
LINE
8
boundary
62
5
39
2
10
365.786054
20
49.565906
11
365.085870
21
47.287993
0
LINE
8
boundary
62
5
39
2
10
365.085870
20
47.287993
11
364.072368
21
43.770156
0
LINE
8
boundary
62
5
39
2
10
364.072368
20
43.770156
11
361.136969
21
35.714118
0
LINE
8
boundary
62
5
39
2
10
361.136969
20
35.714118
11
359.421145
21
30.134954
0
LINE
8
boundary
62
5
39
2
10
359.421145
20
30.134954
11
358.514567
21
26.264245
0
LINE
8
boundary
62
5
39
2
10
358.514567
20
26.264245
11
356.484357
21
21.253540
0
LINE
8
boundary
62
5
39
2
10
356.484357
20
21.253540
11
356.172879
21
20.110768
0
LINE
8
boundary
62
5
39
2
10
356.172879
20
20.110768
11
354.374270
21
20.236337
0
LINE
8
boundary
62
5
39
2
10
354.374270
20
20.236337
11
349.573149
21
20.636102
0
LINE
8
boundary
62
5
39
2
10
349.573149
20
20.636102
11
341.887931
21
21.460901
0
LINE
8
boundary
62
5
39
2
10
341.887931
20
21.460901
11
333.620917
21
22.063043
0
LINE
8
boundary
62
5
39
2
10
333.620917
20
22.063043
11
330.127474
21
22.888534
0
LINE
8
boundary
62
5
39
2
10
330.127474
20
22.888534
11
322.417144
21
23.896192
0
LINE
8
boundary
62
5
39
2
10
322.417144
20
23.896192
11
320.935150
21
27.555345
0
LINE
8
boundary
62
5
39
2
10
320.935150
20
27.555345
11
320.000021
21
28.685696
0
LINE
8
boundary
62
5
39
2
10
320.000021
20
28.685696
11
320.246779
21
29.165402
0
LINE
8
boundary
62
5
39
2
10
320.246779
20
29.165402
11
319.900729
21
35.040560
0
LINE
8
boundary
62
5
39
2
10
319.900729
20
35.040560
11
318.397720
21
36.972383
0
LINE
8
boundary
62
5
39
2
10
318.397720
20
36.972383
11
317.292573
21
38.883296
0
LINE
8
boundary
62
5
39
2
10
317.292573
20
38.883296
11
316.872114
21
33.082854
0
LINE
8
boundary
62
5
39
2
10
316.872114
20
33.082854
11
316.385498
21
27.721328
0
LINE
8
annotation
62
1
39
211
10
412.938805
20
51.762482
11
412.938805
21
54.002482
0
LINE
8
annotation
62
1
39
211
10
412.938805
20
54.002482
11
412.440824
21
53.504360
0
LINE
8
annotation
62
1
39
211
10
418.490064
20
28.349837
11
409.515685
21
28.349837
0
LINE
8
annotation
62
1
39
211
10
409.515685
20
28.349837
11
418.490064
21
44.512638
0
LINE
8
annotation
62
1
39
211
10
418.490064
20
44.512638
11
409.515685
21
44.512638
0
LINE
8
annotation
62
1
39
211
10
433.390178
20
36.431238
11
424.552635
21
36.431238
0
LINE
8
annotation
62
1
39
211
10
443.043413
20
28.349837
11
443.043413
21
44.512638
0
LINE
8
annotation
62
1
39
211
10
443.043413
20
44.512638
11
439.450215
21
40.918427
0
LINE
8
boundary
62
5
39
2
10
316.518580
20
97.977127
11
316.875287
21
96.103273
0
LINE
8
boundary
62
5
39
2
10
316.875287
20
96.103273
11
331.097728
21
93.730985
0
LINE
8
boundary
62
5
39
2
10
331.097728
20
93.730985
11
331.929068
21
93.649680
0
LINE
8
boundary
62
5
39
2
10
331.929068
20
93.649680
11
333.554078
21
93.468035
0
LINE
8
boundary
62
5
39
2
10
333.554078
20
93.468035
11
351.271485
21
92.753658
0
LINE
8
boundary
62
5
39
2
10
351.271485
20
92.753658
11
354.078952
21
92.825251
0
LINE
8
boundary
62
5
39
2
10
354.078952
20
92.825251
11
357.819749
21
92.885125
0
LINE
8
boundary
62
5
39
2
10
357.819749
20
92.885125
11
375.244092
21
94.437747
0
LINE
8
boundary
62
5
39
2
10
375.244092
20
94.437747
11
389.767723
21
95.707579
0
LINE
8
boundary
62
5
39
2
10
389.767723
20
95.707579
11
391.655807
21
95.899194
0
LINE
8
boundary
62
5
39
2
10
391.655807
20
95.899194
11
392.995441
21
96.206777
0
LINE
8
boundary
62
5
39
2
10
392.995441
20
96.206777
11
409.944946
21
100.103071
0
LINE
8
boundary
62
5
39
2
10
409.944946
20
100.103071
11
417.582153
21
107.074090
0
LINE
8
boundary
62
5
39
2
10
417.582153
20
107.074090
11
420.129256
21
109.364135
0
LINE
8
boundary
62
5
39
2
10
420.129256
20
109.364135
11
421.113218
21
110.122007
0
LINE
8
boundary
62
5
39
2
10
421.113218
20
110.122007
11
427.919302
21
116.323405
0
LINE
8
boundary
62
5
39
2
10
427.919302
20
116.323405
11
430.791516
21
118.659809
0
LINE
8
boundary
62
5
39
2
10
430.791516
20
118.659809
11
434.542540
21
126.825098
0
LINE
8
boundary
62
5
39
2
10
434.542540
20
126.825098
11
435.152614
21
128.282107
0
LINE
8
boundary
62
5
39
2
10
435.152614
20
128.282107
11
435.270901
21
128.857228
0
LINE
8
boundary
62
5
39
2
10
435.270901
20
128.857228
11
436.456931
21
131.167394
0
LINE
8
boundary
62
5
39
2
10
436.456931
20
131.167394
11
440.308646
21
140.414582
0
LINE
8
boundary
62
5
39
2
10
440.308646
20
140.414582
11
438.293867
21
145.461352
0
LINE
8
boundary
62
5
39
2
10
438.293867
20
145.461352
11
436.262528
21
149.712644
0
LINE
8
boundary
62
5
39
2
10
436.262528
20
149.712644
11
434.529545
21
154.066061
0
LINE
8
boundary
62
5
39
2
10
434.529545
20
154.066061
11
430.977494
21
161.932514
0
LINE
8
boundary
62
5
39
2
10
430.977494
20
161.932514
11
428.297888
21
164.353383
0
LINE
8
boundary
62
5
39
2
10
428.297888
20
164.353383
11
423.368520
21
168.924724
0
LINE
8
boundary
62
5
39
2
10
423.368520
20
168.924724
11
419.978786
21
171.534082
0
LINE
8
boundary
62
5
39
2
10
419.978786
20
171.534082
11
415.582295
21
176.388090
0
LINE
8
boundary
62
5
39
2
10
415.582295
20
176.388090
11
412.955768
21
178.388948
0
LINE
8
boundary
62
5
39
2
10
412.955768
20
178.388948
11
409.343923
21
181.062021
0
LINE
8
boundary
62
5
39
2
10
409.343923
20
181.062021
11
396.883911
21
184.098943
0
LINE
8
boundary
62
5
39
2
10
396.883911
20
184.098943
11
392.122734
21
185.237090
0
LINE
8
boundary
62
5
39
2
10
392.122734
20
185.237090
11
389.134068
21
185.419289
0
LINE
8
boundary
62
5
39
2
10
389.134068
20
185.419289
11
366.944444
21
187.169429
0
LINE
8
boundary
62
5
39
2
10
366.944444
20
187.169429
11
351.476364
21
187.881538
0
LINE
8
boundary
62
5
39
2
10
351.476364
20
187.881538
11
344.816648
21
188.054484
0
LINE
8
boundary
62
5
39
2
10
344.816648
20
188.054484
11
342.746385
21
187.829163
0
LINE
8
boundary
62
5
39
2
10
342.746385
20
187.829163
11
340.718319
21
187.810942
0
LINE
8
boundary
62
5
39
2
10
340.718319
20
187.810942
11
334.130187
21
187.523656
0
LINE
8
boundary
62
5
39
2
10
334.130187
20
187.523656
11
328.317864
21
187.192105
0
LINE
8
boundary
62
5
39
2
10
328.317864
20
187.192105
11
326.801352
21
186.964146
0
LINE
8
boundary
62
5
39
2
10
326.801352
20
186.964146
11
317.290225
21
185.353211
0
LINE
8
boundary
62
5
39
2
10
317.290225
20
185.353211
11
316.584081
21
184.402407
0
LINE
8
boundary
62
5
39
2
10
316.584081
20
184.402407
11
316.493733
21
178.423038
0
LINE
8
boundary
62
5
39
2
10
316.493733
20
178.423038
11
365.039876
21
178.353038
0
LINE
8
boundary
62
5
39
2
10
365.039876
20
178.353038
11
365.039876
21
177.207038
0
LINE
8
boundary
62
5
39
2
10
365.039876
20
177.207038
11
316.475359
21
177.207038
0
LINE
8
boundary
62
5
39
2
10
316.475359
20
177.207038
11
316.458127
21
176.066574
0
LINE
8
boundary
62
5
39
2
10
316.458127
20
176.066574
11
316.478919
21
174.428061
0
LINE
8
boundary
62
5
39
2
10
316.478919
20
174.428061
11
317.136989
21
171.251605
0
LINE
8
boundary
62
5
39
2
10
317.136989
20
171.251605
11
318.468973
21
170.729098
0
LINE
8
boundary
62
5
39
2
10
318.468973
20
170.729098
11
322.883638
21
169.402375
0
LINE
8
boundary
62
5
39
2
10
322.883638
20
169.402375
11
323.858496
21
169.058049
0
LINE
8
boundary
62
5
39
2
10
323.858496
20
169.058049
11
374.633363
21
168.988049
0
LINE
8
boundary
62
5
39
2
10
374.633363
20
168.988049
11
374.633363
21
167.842049
0
LINE
8
boundary
62
5
39
2
10
374.633363
20
167.842049
11
327.649486
21
167.842049
0
LINE
8
boundary
62
5
39
2
10
327.649486
20
167.842049
11
328.921215
21
167.397725
0
LINE
8
boundary
62
5
39
2
10
328.921215
20
167.397725
11
332.411228
21
163.195629
0
LINE
8
boundary
62
5
39
2
10
332.411228
20
163.195629
11
336.757183
21
161.380867
0
LINE
8
boundary
62
5
39
2
10
336.757183
20
161.380867
11
339.590699
21
160.665869
0
LINE
8
boundary
62
5
39
2
10
339.590699
20
160.665869
11
340.128842
21
160.075204
0
LINE
8
boundary
62
5
39
2
10
340.128842
20
160.075204
11
386.047045
21
160.075204
0
LINE
8
boundary
62
5
39
2
10
386.047045
20
160.075204
11
386.047045
21
158.929204
0
LINE
8
boundary
62
5
39
2
10
386.047045
20
158.929204
11
341.172940
21
158.929204
0
LINE
8
boundary
62
5
39
2
10
341.172940
20
158.929204
11
341.620835
21
158.437596
0
LINE
8
boundary
62
5
39
2
10
341.620835
20
158.437596
11
342.469023
21
155.692746
0
LINE
8
boundary
62
5
39
2
10
342.469023
20
155.692746
11
342.429180
21
154.171747
0
LINE
8
boundary
62
5
39
2
10
342.429180
20
154.171747
11
342.632211
21
153.294041
0
LINE
8
boundary
62
5
39
2
10
342.632211
20
153.294041
11
388.810007
21
153.224041
0
LINE
8
boundary
62
5
39
2
10
388.810007
20
153.224041
11
388.810007
21
152.078041
0
LINE
8
boundary
62
5
39
2
10
388.810007
20
152.078041
11
342.913496
21
152.078041
0
LINE
8
boundary
62
5
39
2
10
342.913496
20
152.078041
11
343.121097
21
151.180581
0
LINE
8
boundary
62
5
39
2
10
343.121097
20
151.180581
11
342.541082
21
148.686806
0
LINE
8
boundary
62
5
39
2
10
342.541082
20
148.686806
11
341.495151
21
146.212002
0
LINE
8
boundary
62
5
39
2
10
341.495151
20
146.212002
11
389.660122
21
145.756243
0
LINE
8
boundary
62
5
39
2
10
389.660122
20
145.756243
11
389.660122
21
144.610243
0
LINE
8
boundary
62
5
39
2
10
389.660122
20
144.610243
11
340.979345
21
144.610243
0
LINE
8
boundary
62
5
39
2
10
340.979345
20
144.610243
11
339.981776
21
141.512445
0
LINE
8
boundary
62
5
39
2
10
339.981776
20
141.512445
11
339.403211
21
140.491905
0
LINE
8
boundary
62
5
39
2
10
339.403211
20
140.491905
11
340.803672
21
137.711945
0
LINE
8
boundary
62
5
39
2
10
340.803672
20
137.711945
11
341.316923
21
136.210385
0
LINE
8
boundary
62
5
39
2
10
341.316923
20
136.210385
11
389.776344
21
136.210385
0
LINE
8
boundary
62
5
39
2
10
389.776344
20
136.210385
11
389.776344
21
135.064385
0
LINE
8
boundary
62
5
39
2
10
389.776344
20
135.064385
11
341.692937
21
135.064385
0
LINE
8
boundary
62
5
39
2
10
341.692937
20
135.064385
11
343.361761
21
129.840882
0
LINE
8
boundary
62
5
39
2
10
343.361761
20
129.840882
11
389.069889
21
129.508928
0
LINE
8
boundary
62
5
39
2
10
389.069889
20
129.508928
11
389.069889
21
128.362928
0
LINE
8
boundary
62
5
39
2
10
389.069889
20
128.362928
11
342.944068
21
128.362928
0
LINE
8
boundary
62
5
39
2
10
342.944068
20
128.362928
11
342.576957
21
127.063952
0
LINE
8
boundary
62
5
39
2
10
342.576957
20
127.063952
11
342.068567
21
124.842560
0
LINE
8
boundary
62
5
39
2
10
342.068567
20
124.842560
11
340.627425
21
122.422803
0
LINE
8
boundary
62
5
39
2
10
340.627425
20
122.422803
11
386.046188
21
122.422803
0
LINE
8
boundary
62
5
39
2
10
386.046188
20
122.422803
11
386.046188
21
121.276803
0
LINE
8
boundary
62
5
39
2
10
386.046188
20
121.276803
11
339.944899
21
121.276804
0
LINE
8
boundary
62
5
39
2
10
339.944899
20
121.276804
11
337.815371
21
119.061863
0
LINE
8
boundary
62
5
39
2
10
337.815371
20
119.061863
11
335.515288
21
119.007758
0
LINE
8
boundary
62
5
39
2
10
335.515288
20
119.007758
11
333.458290
21
118.574847
0
LINE
8
boundary
62
5
39
2
10
333.458290
20
118.574847
11
329.796826
21
114.389514
0
LINE
8
boundary
62
5
39
2
10
329.796826
20
114.389514
11
328.818101
21
113.612245
0
LINE
8
boundary
62
5
39
2
10
328.818101
20
113.612245
11
326.984226
21
112.444293
0
LINE
8
boundary
62
5
39
2
10
326.984226
20
112.444293
11
322.373023
21
111.427295
0
LINE
8
boundary
62
5
39
2
10
322.373023
20
111.427295
11
321.901808
21
111.234134
0
LINE
8
boundary
62
5
39
2
10
321.901808
20
111.234134
11
370.845973
21
111.164134
0
LINE
8
boundary
62
5
39
2
10
370.845973
20
111.164134
11
370.845973
21
110.018134
0
LINE
8
boundary
62
5
39
2
10
370.845973
20
110.018134
11
318.935378
21
110.018134
0
LINE
8
boundary
62
5
39
2
10
318.935378
20
110.018134
11
318.037719
21
109.650165
0
LINE
8
boundary
62
5
39
2
10
318.037719
20
109.650165
11
316.835340
21
109.172068
0
LINE
8
boundary
62
5
39
2
10
316.835340
20
109.172068
11
316.608767
21
105.910263
0
LINE
8
boundary
62
5
39
2
10
316.608767
20
105.910263
11
316.526627
21
104.083420
0
LINE
8
boundary
62
5
39
2
10
316.526627
20
104.083420
11
364.999592
21
104.083420
0
LINE
8
boundary
62
5
39
2
10
364.999592
20
104.083420
11
364.999592
21
102.937420
0
LINE
8
boundary
62
5
39
2
10
364.999592
20
102.937420
11
316.475100
21
102.937420
0
LINE
8
boundary
62
5
39
2
10
316.475100
20
102.937420
11
316.385498
21
100.944614
0
LINE
8
boundary
62
5
39
2
10
316.385498
20
100.944614
11
316.518580
21
97.977127
0
LINE
8
annotation
62
1
39
211
10
368.175372
20
102.390420
11
368.175372
21
104.630420
0
LINE
8
annotation
62
1
39
211
10
368.175372
20
104.630420
11
367.677391
21
104.132299
0
LINE
8
annotation
62
1
39
211
10
374.270111
20
109.471116
11
373.275273
21
109.471116
0
LINE
8
annotation
62
1
39
211
10
373.275273
20
109.471116
11
374.194536
21
110.951010
0
LINE
8
annotation
62
1
39
211
10
374.194536
20
110.951010
11
374.194536
21
110.951010
0
LINE
8
annotation
62
1
39
211
10
374.194536
20
110.951010
11
374.195635
21
110.952370
0
LINE
8
annotation
62
1
39
211
10
374.195635
20
110.952370
11
374.196689
21
110.953741
0
LINE
8
annotation
62
1
39
211
10
374.196689
20
110.953741
11
374.197704
21
110.955136
0
LINE
8
annotation
62
1
39
211
10
374.197704
20
110.955136
11
374.198689
21
110.956565
0
LINE
8
annotation
62
1
39
211
10
374.198689
20
110.956565
11
374.199649
21
110.958041
0
LINE
8
annotation
62
1
39
211
10
374.199649
20
110.958041
11
374.200592
21
110.959574
0
LINE
8
annotation
62
1
39
211
10
374.200592
20
110.959574
11
374.201524
21
110.961177
0
LINE
8
annotation
62
1
39
211
10
374.201524
20
110.961177
11
374.202453
21
110.962860
0
LINE
8
annotation
62
1
39
211
10
374.202453
20
110.962860
11
374.203386
21
110.964636
0
LINE
8
annotation
62
1
39
211
10
374.203386
20
110.964636
11
374.203386
21
110.964636
0
LINE
8
annotation
62
1
39
211
10
374.203386
20
110.964636
11
374.241342
21
111.046131
0
LINE
8
annotation
62
1
39
211
10
374.241342
20
111.046131
11
374.263515
21
111.130608
0
LINE
8
annotation
62
1
39
211
10
374.263515
20
111.130608
11
374.270449
21
111.216158
0
LINE
8
annotation
62
1
39
211
10
374.270449
20
111.216158
11
374.262687
21
111.300871
0
LINE
8
annotation
62
1
39
211
10
374.262687
20
111.300871
11
374.240772
21
111.382840
0
LINE
8
annotation
62
1
39
211
10
374.240772
20
111.382840
11
374.205248
21
111.460156
0
LINE
8
annotation
62
1
39
211
10
374.205248
20
111.460156
11
374.156658
21
111.530909
0
LINE
8
annotation
62
1
39
211
10
374.156658
20
111.530909
11
374.095546
21
111.593191
0
LINE
8
annotation
62
1
39
211
10
374.095546
20
111.593191
11
374.022455
21
111.645093
0
LINE
8
annotation
62
1
39
211
10
374.022455
20
111.645093
11
374.022455
21
111.645093
0
LINE
8
annotation
62
1
39
211
10
374.022455
20
111.645093
11
373.940733
21
111.682509
0
LINE
8
annotation
62
1
39
211
10
373.940733
20
111.682509
11
373.856127
21
111.704341
0
LINE
8
annotation
62
1
39
211
10
373.856127
20
111.704341
11
373.770528
21
111.711079
0
LINE
8
annotation
62
1
39
211
10
373.770528
20
111.711079
11
373.685827
21
111.703215
0
LINE
8
annotation
62
1
39
211
10
373.685827
20
111.703215
11
373.603915
21
111.681239
0
LINE
8
annotation
62
1
39
211
10
373.603915
20
111.681239
11
373.526686
21
111.645644
0
LINE
8
annotation
62
1
39
211
10
373.526686
20
111.645644
11
373.456028
21
111.596921
0
LINE
8
annotation
62
1
39
211
10
373.456028
20
111.596921
11
373.393836
21
111.535561
0
LINE
8
annotation
62
1
39
211
10
373.393836
20
111.535561
11
373.341998
21
111.462055
0
LINE
8
annotation
62
1
39
211
10
373.341998
20
111.462055
11
373.276678
21
111.336752
0
LINE
8
annotation
62
1
39
211
10
388.475488
20
120.729874
11
388.972907
21
120.729874
0
LINE
8
annotation
62
1
39
211
10
388.972907
20
120.729874
11
388.972907
21
120.729874
0
LINE
8
annotation
62
1
39
211
10
388.972907
20
120.729874
11
389.062369
21
120.737899
0
LINE
8
annotation
62
1
39
211
10
389.062369
20
120.737899
11
389.146550
21
120.761028
0
LINE
8
annotation
62
1
39
211
10
389.146550
20
120.761028
11
389.224049
21
120.797842
0
LINE
8
annotation
62
1
39
211
10
389.224049
20
120.797842
11
389.293466
21
120.846921
0
LINE
8
annotation
62
1
39
211
10
389.293466
20
120.846921
11
389.353402
21
120.906844
0
LINE
8
annotation
62
1
39
211
10
389.353402
20
120.906844
11
389.402456
21
120.976192
0
LINE
8
annotation
62
1
39
211
10
389.402456
20
120.976192
11
389.439228
21
121.053546
0
LINE
8
annotation
62
1
39
211
10
389.439228
20
121.053546
11
389.462318
21
121.137485
0
LINE
8
annotation
62
1
39
211
10
389.462318
20
121.137485
11
389.470326
21
121.226590
0
LINE
8
annotation
62
1
39
211
10
389.470326
20
121.226590
11
389.470326
21
121.475651
0
LINE
8
annotation
62
1
39
211
10
389.470326
20
121.475651
11
389.470326
21
121.475651
0
LINE
8
annotation
62
1
39
211
10
389.470326
20
121.475651
11
389.462318
21
121.564719
0
LINE
8
annotation
62
1
39
211
10
389.462318
20
121.564719
11
389.439228
21
121.648638
0
LINE
8
annotation
62
1
39
211
10
389.439228
20
121.648638
11
389.402456
21
121.725986
0
LINE
8
annotation
62
1
39
211
10
389.402456
20
121.725986
11
389.353402
21
121.795339
0
LINE
8
annotation
62
1
39
211
10
389.353402
20
121.795339
11
389.293466
21
121.855274
0
LINE
8
annotation
62
1
39
211
10
389.293466
20
121.855274
11
389.224049
21
121.904367
0
LINE
8
annotation
62
1
39
211
10
389.224049
20
121.904367
11
389.146550
21
121.941196
0
LINE
8
annotation
62
1
39
211
10
389.146550
20
121.941196
11
389.062369
21
121.964337
0
LINE
8
annotation
62
1
39
211
10
389.062369
20
121.964337
11
388.972907
21
121.972367
0
LINE
8
annotation
62
1
39
211
10
388.972907
20
121.972367
11
388.723847
21
121.972367
0
LINE
8
annotation
62
1
39
211
10
388.723847
20
121.972367
11
388.972907
21
121.972367
0
LINE
8
annotation
62
1
39
211
10
388.972907
20
121.972367
11
388.972907
21
121.972367
0
LINE
8
annotation
62
1
39
211
10
388.972907
20
121.972367
11
389.062369
21
121.980399
0
LINE
8
annotation
62
1
39
211
10
389.062369
20
121.980399
11
389.146550
21
122.003554
0
LINE
8
annotation
62
1
39
211
10
389.146550
20
122.003554
11
389.224049
21
122.040419
0
LINE
8
annotation
62
1
39
211
10
389.224049
20
122.040419
11
389.293466
21
122.089584
0
LINE
8
annotation
62
1
39
211
10
389.293466
20
122.089584
11
389.353402
21
122.149636
0
LINE
8
annotation
62
1
39
211
10
389.353402
20
122.149636
11
389.402456
21
122.219164
0
LINE
8
annotation
62
1
39
211
10
389.402456
20
122.219164
11
389.439228
21
122.296757
0
LINE
8
annotation
62
1
39
211
10
389.439228
20
122.296757
11
389.462318
21
122.381002
0
LINE
8
annotation
62
1
39
211
10
389.462318
20
122.381002
11
389.470326
21
122.470488
0
LINE
8
annotation
62
1
39
211
10
389.470326
20
122.470488
11
389.470326
21
122.470488
0
LINE
8
annotation
62
1
39
211
10
389.470326
20
122.470488
11
389.462318
21
122.559556
0
LINE
8
annotation
62
1
39
211
10
389.462318
20
122.559556
11
389.439228
21
122.643476
0
LINE
8
annotation
62
1
39
211
10
389.439228
20
122.643476
11
389.402456
21
122.720824
0
LINE
8
annotation
62
1
39
211
10
389.402456
20
122.720824
11
389.353402
21
122.790176
0
LINE
8
annotation
62
1
39
211
10
389.353402
20
122.790176
11
389.293466
21
122.850111
0
LINE
8
annotation
62
1
39
211
10
389.293466
20
122.850111
11
389.224049
21
122.899205
0
LINE
8
annotation
62
1
39
211
10
389.224049
20
122.899205
11
389.146550
21
122.936034
0
LINE
8
annotation
62
1
39
211
10
389.146550
20
122.936034
11
389.062369
21
122.959175
0
LINE
8
annotation
62
1
39
211
10
389.062369
20
122.959175
11
388.972907
21
122.967205
0
LINE
8
annotation
62
1
39
211
10
388.972907
20
122.967205
11
388.475488
21
122.967205
0
LINE
8
annotation
62
1
39
211
10
392.618487
20
128.313909
11
391.374729
21
128.313909
0
LINE
8
annotation
62
1
39
211
10
391.374729
20
128.313909
11
391.871445
21
130.055928
0
LINE
8
annotation
62
1
39
211
10
392.245668
20
127.815928
11
392.245668
21
128.810766
0
LINE
8
annotation
62
1
39
211
10
392.205644
20
134.517385
11
392.703063
21
134.517385
0
LINE
8
annotation
62
1
39
211
10
392.703063
20
134.517385
11
392.703063
21
134.517385
0
LINE
8
annotation
62
1
39
211
10
392.703063
20
134.517385
11
392.792340
21
134.525412
0
LINE
8
annotation
62
1
39
211
10
392.792340
20
134.525412
11
392.876422
21
134.548553
0
LINE
8
annotation
62
1
39
211
10
392.876422
20
134.548553
11
392.953892
21
134.585400
0
LINE
8
annotation
62
1
39
211
10
392.953892
20
134.585400
11
393.023333
21
134.634543
0
LINE
8
annotation
62
1
39
211
10
393.023333
20
134.634543
11
393.083327
21
134.694572
0
LINE
8
annotation
62
1
39
211
10
393.083327
20
134.694572
11
393.132456
21
134.764078
0
LINE
8
annotation
62
1
39
211
10
393.132456
20
134.764078
11
393.169303
21
134.841652
0
LINE
8
annotation
62
1
39
211
10
393.169303
20
134.841652
11
393.192451
21
134.925884
0
LINE
8
annotation
62
1
39
211
10
393.192451
20
134.925884
11
393.200482
21
135.015365
0
LINE
8
annotation
62
1
39
211
10
393.200482
20
135.015365
11
393.200482
21
135.263162
0
LINE
8
annotation
62
1
39
211
10
393.200482
20
135.263162
11
393.200482
21
135.263162
0
LINE
8
annotation
62
1
39
211
10
393.200482
20
135.263162
11
393.192455
21
135.352600
0
LINE
8
annotation
62
1
39
211
10
393.192455
20
135.352600
11
393.169319
21
135.436716
0
LINE
8
annotation
62
1
39
211
10
393.169319
20
135.436716
11
393.132487
21
135.514121
0
LINE
8
annotation
62
1
39
211
10
393.132487
20
135.514121
11
393.083373
21
135.583428
0
LINE
8
annotation
62
1
39
211
10
393.083373
20
135.583428
11
393.023391
21
135.643247
0
LINE
8
annotation
62
1
39
211
10
393.023391
20
135.643247
11
392.953955
21
135.692190
0
LINE
8
annotation
62
1
39
211
10
392.953955
20
135.692190
11
392.876479
21
135.728869
0
LINE
8
annotation
62
1
39
211
10
392.876479
20
135.728869
11
392.792377
21
135.751894
0
LINE
8
annotation
62
1
39
211
10
392.792377
20
135.751894
11
392.703063
21
135.759878
0
LINE
8
annotation
62
1
39
211
10
392.703063
20
135.759878
11
392.205644
21
135.759878
0
LINE
8
annotation
62
1
39
211
10
392.205644
20
135.759878
11
392.205644
21
136.757385
0
LINE
8
annotation
62
1
39
211
10
392.205644
20
136.757385
11
393.200482
21
136.757385
0
LINE
8
annotation
62
1
39
211
10
392.836604
20
146.303243
11
392.836604
21
146.303243
0
LINE
8
annotation
62
1
39
211
10
392.836604
20
146.303243
11
392.694106
21
146.249815
0
LINE
8
annotation
62
1
39
211
10
392.694106
20
146.249815
11
392.563345
21
146.177827
0
LINE
8
annotation
62
1
39
211
10
392.563345
20
146.177827
11
392.445664
21
146.089082
0
LINE
8
annotation
62
1
39
211
10
392.445664
20
146.089082
11
392.342406
21
145.985385
0
LINE
8
annotation
62
1
39
211
10
392.342406
20
145.985385
11
392.254911
21
145.868539
0
LINE
8
annotation
62
1
39
211
10
392.254911
20
145.868539
11
392.184523
21
145.740347
0
LINE
8
annotation
62
1
39
211
10
392.184523
20
145.740347
11
392.132584
21
145.602614
0
LINE
8
annotation
62
1
39
211
10
392.132584
20
145.602614
11
392.100436
21
145.457142
0
LINE
8
annotation
62
1
39
211
10
392.100436
20
145.457142
11
392.089422
21
145.305736
0
LINE
8
annotation
62
1
39
211
10
392.089422
20
145.305736
11
392.089422
21
144.561223
0
LINE
8
annotation
62
1
39
211
10
392.089422
20
144.561223
11
392.089422
21
144.561223
0
LINE
8
annotation
62
1
39
211
10
392.089422
20
144.561223
11
392.097453
21
144.471742
0
LINE
8
annotation
62
1
39
211
10
392.097453
20
144.471742
11
392.120601
21
144.387510
0
LINE
8
annotation
62
1
39
211
10
392.120601
20
144.387510
11
392.157448
21
144.309936
0
LINE
8
annotation
62
1
39
211
10
392.157448
20
144.309936
11
392.206577
21
144.240430
0
LINE
8
annotation
62
1
39
211
10
392.206577
20
144.240430
11
392.266571
21
144.180401
0
LINE
8
annotation
62
1
39
211
10
392.266571
20
144.180401
11
392.336011
21
144.131258
0
LINE
8
annotation
62
1
39
211
10
392.336011
20
144.131258
11
392.413482
21
144.094411
0
LINE
8
annotation
62
1
39
211
10
392.413482
20
144.094411
11
392.497564
21
144.071270
0
LINE
8
annotation
62
1
39
211
10
392.497564
20
144.071270
11
392.586841
21
144.063243
0
LINE
8
annotation
62
1
39
211
10
392.586841
20
144.063243
11
392.586841
21
144.063243
0
LINE
8
annotation
62
1
39
211
10
392.586841
20
144.063243
11
392.676303
21
144.071270
0
LINE
8
annotation
62
1
39
211
10
392.676303
20
144.071270
11
392.760483
21
144.094411
0
LINE
8
annotation
62
1
39
211
10
392.760483
20
144.094411
11
392.837983
21
144.131258
0
LINE
8
annotation
62
1
39
211
10
392.837983
20
144.131258
11
392.907400
21
144.180401
0
LINE
8
annotation
62
1
39
211
10
392.907400
20
144.180401
11
392.967336
21
144.240430
0
LINE
8
annotation
62
1
39
211
10
392.967336
20
144.240430
11
393.016390
21
144.309936
0
LINE
8
annotation
62
1
39
211
10
393.016390
20
144.309936
11
393.053162
21
144.387510
0
LINE
8
annotation
62
1
39
211
10
393.053162
20
144.387510
11
393.076252
21
144.471742
0
LINE
8
annotation
62
1
39
211
10
393.076252
20
144.471742
11
393.084260
21
144.561223
0
LINE
8
annotation
62
1
39
211
10
393.084260
20
144.561223
11
393.084260
21
144.809020
0
LINE
8
annotation
62
1
39
211
10
393.084260
20
144.809020
11
393.084260
21
144.809020
0
LINE
8
annotation
62
1
39
211
10
393.084260
20
144.809020
11
393.076252
21
144.898458
0
LINE
8
annotation
62
1
39
211
10
393.076252
20
144.898458
11
393.053162
21
144.982574
0
LINE
8
annotation
62
1
39
211
10
393.053162
20
144.982574
11
393.016390
21
145.059979
0
LINE
8
annotation
62
1
39
211
10
393.016390
20
145.059979
11
392.967336
21
145.129286
0
LINE
8
annotation
62
1
39
211
10
392.967336
20
145.129286
11
392.907400
21
145.189105
0
LINE
8
annotation
62
1
39
211
10
392.907400
20
145.189105
11
392.837983
21
145.238049
0
LINE
8
annotation
62
1
39
211
10
392.837983
20
145.238049
11
392.760483
21
145.274727
0
LINE
8
annotation
62
1
39
211
10
392.760483
20
145.274727
11
392.676303
21
145.297753
0
LINE
8
annotation
62
1
39
211
10
392.676303
20
145.297753
11
392.586841
21
145.305736
0
LINE
8
annotation
62
1
39
211
10
392.586841
20
145.305736
11
392.089422
21
145.305736
0
LINE
8
annotation
62
1
39
211
10
392.027122
20
143.783243
11
393.147122
21
143.783243
0
LINE
8
annotation
62
1
39
211
10
391.736726
20
151.531041
11
392.234706
21
153.771041
0
LINE
8
annotation
62
1
39
211
10
392.234706
20
153.771041
11
391.238605
21
153.771041
0
LINE
8
annotation
62
1
39
211
10
392.234706
20
152.773534
11
391.736726
21
152.773534
0
LINE
8
annotation
62
1
39
211
10
388.476346
20
158.878851
11
388.476346
21
158.878851
0
LINE
8
annotation
62
1
39
211
10
388.476346
20
158.878851
11
388.484376
21
158.789413
0
LINE
8
annotation
62
1
39
211
10
388.484376
20
158.789413
11
388.507524
21
158.705297
0
LINE
8
annotation
62
1
39
211
10
388.507524
20
158.705297
11
388.544371
21
158.627891
0
LINE
8
annotation
62
1
39
211
10
388.544371
20
158.627891
11
388.593501
21
158.558584
0
LINE
8
annotation
62
1
39
211
10
388.593501
20
158.558584
11
388.653494
21
158.498765
0
LINE
8
annotation
62
1
39
211
10
388.653494
20
158.498765
11
388.722935
21
158.449822
0
LINE
8
annotation
62
1
39
211
10
388.722935
20
158.449822
11
388.800405
21
158.413143
0
LINE
8
annotation
62
1
39
211
10
388.800405
20
158.413143
11
388.884487
21
158.390118
0
LINE
8
annotation
62
1
39
211
10
388.884487
20
158.390118
11
388.973764
21
158.382134
0
LINE
8
annotation
62
1
39
211
10
388.973764
20
158.382134
11
388.973764
21
158.382134
0
LINE
8
annotation
62
1
39
211
10
388.973764
20
158.382134
11
389.063041
21
158.390118
0
LINE
8
annotation
62
1
39
211
10
389.063041
20
158.390118
11
389.147124
21
158.413143
0
LINE
8
annotation
62
1
39
211
10
389.147124
20
158.413143
11
389.224594
21
158.449822
0
LINE
8
annotation
62
1
39
211
10
389.224594
20
158.449822
11
389.294035
21
158.498765
0
LINE
8
annotation
62
1
39
211
10
389.294035
20
158.498765
11
389.354028
21
158.558584
0
LINE
8
annotation
62
1
39
211
10
389.354028
20
158.558584
11
389.403157
21
158.627891
0
LINE
8
annotation
62
1
39
211
10
389.403157
20
158.627891
11
389.440004
21
158.705297
0
LINE
8
annotation
62
1
39
211
10
389.440004
20
158.705297
11
389.463152
21
158.789413
0
LINE
8
annotation
62
1
39
211
10
389.463152
20
158.789413
11
389.471183
21
158.878851
0
LINE
8
annotation
62
1
39
211
10
389.471183
20
158.878851
11
389.471183
21
159.126647
0
LINE
8
annotation
62
1
39
211
10
389.471183
20
159.126647
11
389.471183
21
159.126647
0
LINE
8
annotation
62
1
39
211
10
389.471183
20
159.126647
11
389.463157
21
159.216128
0
LINE
8
annotation
62
1
39
211
10
389.463157
20
159.216128
11
389.440021
21
159.300360
0
LINE
8
annotation
62
1
39
211
10
389.440021
20
159.300360
11
389.403188
21
159.377934
0
LINE
8
annotation
62
1
39
211
10
389.403188
20
159.377934
11
389.354074
21
159.447440
0
LINE
8
annotation
62
1
39
211
10
389.354074
20
159.447440
11
389.294092
21
159.507470
0
LINE
8
annotation
62
1
39
211
10
389.294092
20
159.507470
11
389.224656
21
159.556612
0
LINE
8
annotation
62
1
39
211
10
389.224656
20
159.556612
11
389.147180
21
159.593459
0
LINE
8
annotation
62
1
39
211
10
389.147180
20
159.593459
11
389.063078
21
159.616601
0
LINE
8
annotation
62
1
39
211
10
389.063078
20
159.616601
11
388.973764
21
159.624628
0
LINE
8
annotation
62
1
39
211
10
388.973764
20
159.624628
11
388.973764
21
159.624628
0
LINE
8
annotation
62
1
39
211
10
388.973764
20
159.624628
11
388.884450
21
159.616596
0
LINE
8
annotation
62
1
39
211
10
388.884450
20
159.616596
11
388.800348
21
159.593443
0
LINE
8
annotation
62
1
39
211
10
388.800348
20
159.593443
11
388.722872
21
159.556581
0
LINE
8
annotation
62
1
39
211
10
388.722872
20
159.556581
11
388.653436
21
159.507423
0
LINE
8
annotation
62
1
39
211
10
388.653436
20
159.507423
11
388.593454
21
159.447383
0
LINE
8
annotation
62
1
39
211
10
388.593454
20
159.447383
11
388.544340
21
159.377872
0
LINE
8
annotation
62
1
39
211
10
388.544340
20
159.377872
11
388.507508
21
159.300304
0
LINE
8
annotation
62
1
39
211
10
388.507508
20
159.300304
11
388.484372
21
159.216091
0
LINE
8
annotation
62
1
39
211
10
388.484372
20
159.216091
11
388.476346
21
159.126647
0
LINE
8
annotation
62
1
39
211
10
388.476346
20
159.126647
11
388.476346
21
158.878851
0
LINE
8
annotation
62
1
39
211
10
389.471183
20
160.122749
11
389.471183
21
160.122749
0
LINE
8
annotation
62
1
39
211
10
389.471183
20
160.122749
11
389.463157
21
160.211817
0
LINE
8
annotation
62
1
39
211
10
389.463157
20
160.211817
11
389.440021
21
160.295736
0
LINE
8
annotation
62
1
39
211
10
389.440021
20
160.295736
11
389.403188
21
160.373084
0
LINE
8
annotation
62
1
39
211
10
389.403188
20
160.373084
11
389.354074
21
160.442437
0
LINE
8
annotation
62
1
39
211
10
389.354074
20
160.442437
11
389.294092
21
160.502372
0
LINE
8
annotation
62
1
39
211
10
389.294092
20
160.502372
11
389.224656
21
160.551465
0
LINE
8
annotation
62
1
39
211
10
389.224656
20
160.551465
11
389.147180
21
160.588294
0
LINE
8
annotation
62
1
39
211
10
389.147180
20
160.588294
11
389.063078
21
160.611435
0
LINE
8
annotation
62
1
39
211
10
389.063078
20
160.611435
11
388.973764
21
160.619465
0
LINE
8
annotation
62
1
39
211
10
388.973764
20
160.619465
11
388.973764
21
160.619465
0
LINE
8
annotation
62
1
39
211
10
388.973764
20
160.619465
11
388.884450
21
160.611435
0
LINE
8
annotation
62
1
39
211
10
388.884450
20
160.611435
11
388.800348
21
160.588294
0
LINE
8
annotation
62
1
39
211
10
388.800348
20
160.588294
11
388.722872
21
160.551465
0
LINE
8
annotation
62
1
39
211
10
388.722872
20
160.551465
11
388.653436
21
160.502372
0
LINE
8
annotation
62
1
39
211
10
388.653436
20
160.502372
11
388.593454
21
160.442437
0
LINE
8
annotation
62
1
39
211
10
388.593454
20
160.442437
11
388.544340
21
160.373084
0
LINE
8
annotation
62
1
39
211
10
388.544340
20
160.373084
11
388.507508
21
160.295736
0
LINE
8
annotation
62
1
39
211
10
388.507508
20
160.295736
11
388.484372
21
160.211817
0
LINE
8
annotation
62
1
39
211
10
388.484372
20
160.211817
11
388.476346
21
160.122749
0
LINE
8
annotation
62
1
39
211
10
388.476346
20
160.122749
11
388.476346
21
160.122749
0
LINE
8
annotation
62
1
39
211
10
388.476346
20
160.122749
11
388.484376
21
160.033263
0
LINE
8
annotation
62
1
39
211
10
388.484376
20
160.033263
11
388.507524
21
159.949018
0
LINE
8
annotation
62
1
39
211
10
388.507524
20
159.949018
11
388.544371
21
159.871425
0
LINE
8
annotation
62
1
39
211
10
388.544371
20
159.871425
11
388.593501
21
159.801897
0
LINE
8
annotation
62
1
39
211
10
388.593501
20
159.801897
11
388.653494
21
159.741844
0
LINE
8
annotation
62
1
39
211
10
388.653494
20
159.741844
11
388.722935
21
159.692680
0
LINE
8
annotation
62
1
39
211
10
388.722935
20
159.692680
11
388.800405
21
159.655814
0
LINE
8
annotation
62
1
39
211
10
388.800405
20
159.655814
11
388.884487
21
159.632659
0
LINE
8
annotation
62
1
39
211
10
388.884487
20
159.632659
11
388.973764
21
159.624628
0
LINE
8
annotation
62
1
39
211
10
388.973764
20
159.624628
11
388.973764
21
159.624628
0
LINE
8
annotation
62
1
39
211
10
388.973764
20
159.624628
11
389.063041
21
159.632659
0
LINE
8
annotation
62
1
39
211
10
389.063041
20
159.632659
11
389.147124
21
159.655814
0
LINE
8
annotation
62
1
39
211
10
389.147124
20
159.655814
11
389.224594
21
159.692680
0
LINE
8
annotation
62
1
39
211
10
389.224594
20
159.692680
11
389.294035
21
159.741844
0
LINE
8
annotation
62
1
39
211
10
389.294035
20
159.741844
11
389.354028
21
159.801897
0
LINE
8
annotation
62
1
39
211
10
389.354028
20
159.801897
11
389.403157
21
159.871425
0
LINE
8
annotation
62
1
39
211
10
389.403157
20
159.871425
11
389.440004
21
159.949018
0
LINE
8
annotation
62
1
39
211
10
389.440004
20
159.949018
11
389.463152
21
160.033263
0
LINE
8
annotation
62
1
39
211
10
389.463152
20
160.033263
11
389.471183
21
160.122749
0
LINE
8
annotation
62
1
39
211
10
377.311022
20
167.295049
11
377.311022
21
167.295049
0
LINE
8
annotation
62
1
39
211
10
377.311022
20
167.295049
11
377.453269
21
167.348058
0
LINE
8
annotation
62
1
39
211
10
377.453269
20
167.348058
11
377.583834
21
167.419708
0
LINE
8
annotation
62
1
39
211
10
377.583834
20
167.419708
11
377.701368
21
167.508175
0
LINE
8
annotation
62
1
39
211
10
377.701368
20
167.508175
11
377.804522
21
167.611632
0
LINE
8
annotation
62
1
39
211
10
377.804522
20
167.611632
11
377.891946
21
167.728255
0
LINE
8
annotation
62
1
39
211
10
377.891946
20
167.728255
11
377.962291
21
167.856217
0
LINE
8
annotation
62
1
39
211
10
377.962291
20
167.856217
11
378.014208
21
167.993694
0
LINE
8
annotation
62
1
39
211
10
378.014208
20
167.993694
11
378.046348
21
168.138859
0
LINE
8
annotation
62
1
39
211
10
378.046348
20
168.138859
11
378.057361
21
168.289887
0
LINE
8
annotation
62
1
39
211
10
378.057361
20
168.289887
11
378.057361
21
169.036928
0
LINE
8
annotation
62
1
39
211
10
378.057361
20
169.036928
11
378.057361
21
169.036928
0
LINE
8
annotation
62
1
39
211
10
378.057361
20
169.036928
11
378.049353
21
169.126414
0
LINE
8
annotation
62
1
39
211
10
378.049353
20
169.126414
11
378.026263
21
169.210659
0
LINE
8
annotation
62
1
39
211
10
378.026263
20
169.210659
11
377.989491
21
169.288252
0
LINE
8
annotation
62
1
39
211
10
377.989491
20
169.288252
11
377.940437
21
169.357780
0
LINE
8
annotation
62
1
39
211
10
377.940437
20
169.357780
11
377.880501
21
169.417833
0
LINE
8
annotation
62
1
39
211
10
377.880501
20
169.417833
11
377.811084
21
169.466997
0
LINE
8
annotation
62
1
39
211
10
377.811084
20
169.466997
11
377.733584
21
169.503863
0
LINE
8
annotation
62
1
39
211
10
377.733584
20
169.503863
11
377.649404
21
169.527017
0
LINE
8
annotation
62
1
39
211
10
377.649404
20
169.527017
11
377.559942
21
169.535049
0
LINE
8
annotation
62
1
39
211
10
377.559942
20
169.535049
11
377.559942
21
169.535049
0
LINE
8
annotation
62
1
39
211
10
377.559942
20
169.535049
11
377.470665
21
169.527017
0
LINE
8
annotation
62
1
39
211
10
377.470665
20
169.527017
11
377.386583
21
169.503863
0
LINE
8
annotation
62
1
39
211
10
377.386583
20
169.503863
11
377.309112
21
169.466997
0
LINE
8
annotation
62
1
39
211
10
377.309112
20
169.466997
11
377.239672
21
169.417833
0
LINE
8
annotation
62
1
39
211
10
377.239672
20
169.417833
11
377.179678
21
169.357780
0
LINE
8
annotation
62
1
39
211
10
377.179678
20
169.357780
11
377.130549
21
169.288252
0
LINE
8
annotation
62
1
39
211
10
377.130549
20
169.288252
11
377.093702
21
169.210659
0
LINE
8
annotation
62
1
39
211
10
377.093702
20
169.210659
11
377.070554
21
169.126414
0
LINE
8
annotation
62
1
39
211
10
377.070554
20
169.126414
11
377.062523
21
169.036928
0
LINE
8
annotation
62
1
39
211
10
377.062523
20
169.036928
11
377.062523
21
168.787868
0
LINE
8
annotation
62
1
39
211
10
377.062523
20
168.787868
11
377.062523
21
168.787868
0
LINE
8
annotation
62
1
39
211
10
377.062523
20
168.787868
11
377.070554
21
168.698386
0
LINE
8
annotation
62
1
39
211
10
377.070554
20
168.698386
11
377.093702
21
168.614154
0
LINE
8
annotation
62
1
39
211
10
377.093702
20
168.614154
11
377.130549
21
168.536580
0
LINE
8
annotation
62
1
39
211
10
377.130549
20
168.536580
11
377.179678
21
168.467074
0
LINE
8
annotation
62
1
39
211
10
377.179678
20
168.467074
11
377.239672
21
168.407045
0
LINE
8
annotation
62
1
39
211
10
377.239672
20
168.407045
11
377.309112
21
168.357902
0
LINE
8
annotation
62
1
39
211
10
377.309112
20
168.357902
11
377.386583
21
168.321056
0
LINE
8
annotation
62
1
39
211
10
377.386583
20
168.321056
11
377.470665
21
168.297914
0
LINE
8
annotation
62
1
39
211
10
377.470665
20
168.297914
11
377.559942
21
168.289887
0
LINE
8
annotation
62
1
39
211
10
377.559942
20
168.289887
11
378.057361
21
168.289887
0
LINE
8
annotation
62
1
39
211
10
377.000363
20
167.015049
11
378.120363
21
167.015049
0
LINE
8
annotation
62
1
39
211
10
367.325743
20
176.702570
11
367.325743
21
178.857506
0
LINE
8
annotation
62
1
39
211
10
367.325743
20
178.857506
11
366.846673
21
178.378301
0
LINE
8
annotation
62
1
39
211
10
368.479917
20
176.730995
11
368.479917
21
176.730995
0
LINE
8
annotation
62
1
39
211
10
368.479917
20
176.730995
11
368.530000
21
176.712272
0
LINE
8
annotation
62
1
39
211
10
368.530000
20
176.712272
11
368.581365
21
176.702971
0
LINE
8
annotation
62
1
39
211
10
368.581365
20
176.702971
11
368.632850
21
176.702711
0
LINE
8
annotation
62
1
39
211
10
368.632850
20
176.702711
11
368.683293
21
176.711113
0
LINE
8
annotation
62
1
39
211
10
368.683293
20
176.711113
11
368.731535
21
176.727798
0
LINE
8
annotation
62
1
39
211
10
368.731535
20
176.727798
11
368.776413
21
176.752387
0
LINE
8
annotation
62
1
39
211
10
368.776413
20
176.752387
11
368.816766
21
176.784500
0
LINE
8
annotation
62
1
39
211
10
368.816766
20
176.784500
11
368.851434
21
176.823759
0
LINE
8
annotation
62
1
39
211
10
368.851434
20
176.823759
11
368.879254
21
176.869783
0
LINE
8
annotation
62
1
39
211
10
368.879254
20
176.869783
11
368.879254
21
176.869783
0
LINE
8
annotation
62
1
39
211
10
368.879254
20
176.869783
11
368.962260
21
177.064078
0
LINE
8
annotation
62
1
39
211
10
368.962260
20
177.064078
11
369.024514
21
177.263997
0
LINE
8
annotation
62
1
39
211
10
369.024514
20
177.263997
11
369.066017
21
177.467946
0
LINE
8
annotation
62
1
39
211
10
369.066017
20
177.467946
11
369.086768
21
177.674330
0
LINE
8
annotation
62
1
39
211
10
369.086768
20
177.674330
11
369.086768
21
177.881557
0
LINE
8
annotation
62
1
39
211
10
369.086768
20
177.881557
11
369.066017
21
178.088031
0
LINE
8
annotation
62
1
39
211
10
369.066017
20
178.088031
11
369.024514
21
178.292160
0
LINE
8
annotation
62
1
39
211
10
369.024514
20
178.292160
11
368.962260
21
178.492349
0
LINE
8
annotation
62
1
39
211
10
368.962260
20
178.492349
11
368.879254
21
178.687005
0
LINE
8
annotation
62
1
39
211
10
368.879254
20
178.687005
11
368.879254
21
178.687005
0
LINE
8
annotation
62
1
39
211
10
368.879254
20
178.687005
11
368.868698
21
178.706650
0
LINE
8
annotation
62
1
39
211
10
368.868698
20
178.706650
11
368.856731
21
178.725432
0
LINE
8
annotation
62
1
39
211
10
368.856731
20
178.725432
11
368.843442
21
178.743258
0
LINE
8
annotation
62
1
39
211
10
368.843442
20
178.743258
11
368.828922
21
178.760037
0
LINE
8
annotation
62
1
39
211
10
368.828922
20
178.760037
11
368.813261
21
178.775675
0
LINE
8
annotation
62
1
39
211
10
368.813261
20
178.775675
11
368.796549
21
178.790082
0
LINE
8
annotation
62
1
39
211
10
368.796549
20
178.790082
11
368.778875
21
178.803163
0
LINE
8
annotation
62
1
39
211
10
368.778875
20
178.803163
11
368.760331
21
178.814828
0
LINE
8
annotation
62
1
39
211
10
368.760331
20
178.814828
11
368.741006
21
178.824983
0
LINE
8
annotation
62
1
39
211
10
368.741006
20
178.824983
11
368.741006
21
178.824983
0
LINE
8
annotation
62
1
39
211
10
368.741006
20
178.824983
11
368.690525
21
178.844111
0
LINE
8
annotation
62
1
39
211
10
368.690525
20
178.844111
11
368.638860
21
178.853730
0
LINE
8
annotation
62
1
39
211
10
368.638860
20
178.853730
11
368.587157
21
178.854223
0
LINE
8
annotation
62
1
39
211
10
368.587157
20
178.854223
11
368.536566
21
178.845970
0
LINE
8
annotation
62
1
39
211
10
368.536566
20
178.845970
11
368.488234
21
178.829352
0
LINE
8
annotation
62
1
39
211
10
368.488234
20
178.829352
11
368.443309
21
178.804752
0
LINE
8
annotation
62
1
39
211
10
368.443309
20
178.804752
11
368.402938
21
178.772550
0
LINE
8
annotation
62
1
39
211
10
368.402938
20
178.772550
11
368.368270
21
178.733129
0
LINE
8
annotation
62
1
39
211
10
368.368270
20
178.733129
11
368.340453
21
178.686870
0
LINE
8
annotation
62
1
39
211
10
368.340453
20
178.686870
11
368.340453
21
178.686870
0
LINE
8
annotation
62
1
39
211
10
368.340453
20
178.686870
11
368.257847
21
178.492615
0
LINE
8
annotation
62
1
39
211
10
368.257847
20
178.492615
11
368.195893
21
178.292726
0
LINE
8
annotation
62
1
39
211
10
368.195893
20
178.292726
11
368.154591
21
178.088797
0
LINE
8
annotation
62
1
39
211
10
368.154591
20
178.088797
11
368.133939
21
177.882423
0
LINE
8
annotation
62
1
39
211
10
368.133939
20
177.882423
11
368.133939
21
177.675196
0
LINE
8
annotation
62
1
39
211
10
368.133939
20
177.675196
11
368.154591
21
177.468712
0
LINE
8
annotation
62
1
39
211
10
368.154591
20
177.468712
11
368.195893
21
177.264563
0
LINE
8
annotation
62
1
39
211
10
368.195893
20
177.264563
11
368.257847
21
177.064344
0
LINE
8
annotation
62
1
39
211
10
368.257847
20
177.064344
11
368.340453
21
176.869648
0
LINE
8
annotation
62
1
39
211
10
368.340453
20
176.869648
11
368.340453
21
176.869648
0
LINE
8
annotation
62
1
39
211
10
368.340453
20
176.869648
11
368.350970
21
176.850042
0
LINE
8
annotation
62
1
39
211
10
368.350970
20
176.850042
11
368.362849
21
176.831354
0
LINE
8
annotation
62
1
39
211
10
368.362849
20
176.831354
11
368.376039
21
176.813640
0
LINE
8
annotation
62
1
39
211
10
368.376039
20
176.813640
11
368.390491
21
176.796957
0
LINE
8
annotation
62
1
39
211
10
368.390491
20
176.796957
11
368.406154
21
176.781362
0
LINE
8
annotation
62
1
39
211
10
368.406154
20
176.781362
11
368.422978
21
176.766912
0
LINE
8
annotation
62
1
39
211
10
368.422978
20
176.766912
11
368.440913
21
176.753663
0
LINE
8
annotation
62
1
39
211
10
368.440913
20
176.753663
11
368.459909
21
176.741671
0
LINE
8
annotation
62
1
39
211
10
368.459909
20
176.741671
11
368.479917
21
176.730995
0
LINE
8
annotation
62
1
39
211
10
405.563112
20
147.097010
11
401.099194
21
140.640361
0
LINE
8
annotation
62
1
39
211
10
401.099194
20
140.640361
11
396.634437
21
147.097010
0
LINE
8
annotation
62
1
39
211
10
401.099194
20
141.159949
11
401.099194
21
133.711132
0
LINE
8
annotation
62
1
39
211
10
417.902890
20
140.404071
11
410.584180
21
140.404071
0
LINE
8
annotation
62
1
39
211
10
425.897105
20
133.711552
11
425.897105
21
147.096590
0
LINE
8
annotation
62
1
39
211
10
425.897105
20
147.096590
11
422.921440
21
144.120085
0
LINE
8
boundary
62
5
39
2
10
316.609628
20
213.440076
11
316.829943
21
209.142402
0
LINE
8
boundary
62
5
39
2
10
316.829943
20
209.142402
11
317.308359
21
201.196786
0
LINE
8
boundary
62
5
39
2
10
317.308359
20
201.196786
11
318.486798
21
200.740327
0
LINE
8
boundary
62
5
39
2
10
318.486798
20
200.740327
11
324.679917
21
198.772827
0
LINE
8
boundary
62
5
39
2
10
324.679917
20
198.772827
11
326.257710
21
198.448170
0
LINE
8
boundary
62
5
39
2
10
326.257710
20
198.448170
11
337.667293
21
196.369718
0
LINE
8
boundary
62
5
39
2
10
337.667293
20
196.369718
11
341.446888
21
195.512294
0
LINE
8
boundary
62
5
39
2
10
341.446888
20
195.512294
11
346.179782
21
194.084346
0
LINE
8
boundary
62
5
39
2
10
346.179782
20
194.084346
11
349.909350
21
193.165346
0
LINE
8
boundary
62
5
39
2
10
349.909350
20
193.165346
11
357.565598
21
191.299079
0
LINE
8
boundary
62
5
39
2
10
357.565598
20
191.299079
11
360.965136
21
191.229484
0
LINE
8
boundary
62
5
39
2
10
360.965136
20
191.229484
11
363.218926
21
192.120196
0
LINE
8
boundary
62
5
39
2
10
363.218926
20
192.120196
11
365.621523
21
196.076737
0
LINE
8
boundary
62
5
39
2
10
365.621523
20
196.076737
11
368.083706
21
198.041550
0
LINE
8
boundary
62
5
39
2
10
368.083706
20
198.041550
11
370.631554
21
202.447376
0
LINE
8
boundary
62
5
39
2
10
370.631554
20
202.447376
11
372.194557
21
205.270933
0
LINE
8
boundary
62
5
39
2
10
372.194557
20
205.270933
11
375.996129
21
212.273394
0
LINE
8
boundary
62
5
39
2
10
375.996129
20
212.273394
11
377.893723
21
216.051153
0
LINE
8
boundary
62
5
39
2
10
377.893723
20
216.051153
11
379.080786
21
218.288896
0
LINE
8
boundary
62
5
39
2
10
379.080786
20
218.288896
11
379.542784
21
219.124079
0
LINE
8
boundary
62
5
39
2
10
379.542784
20
219.124079
11
379.880626
21
219.697613
0
LINE
8
boundary
62
5
39
2
10
379.880626
20
219.697613
11
380.873013
21
220.464410
0
LINE
8
boundary
62
5
39
2
10
380.873013
20
220.464410
11
383.386637
21
224.041297
0
LINE
8
boundary
62
5
39
2
10
383.386637
20
224.041297
11
384.889604
21
223.877794
0
LINE
8
boundary
62
5
39
2
10
384.889604
20
223.877794
11
389.223606
21
216.960834
0
LINE
8
boundary
62
5
39
2
10
389.223606
20
216.960834
11
389.448536
21
216.312552
0
LINE
8
boundary
62
5
39
2
10
389.448536
20
216.312552
11
396.205355
21
206.573773
0
LINE
8
boundary
62
5
39
2
10
396.205355
20
206.573773
11
397.543552
21
204.901051
0
LINE
8
boundary
62
5
39
2
10
397.543552
20
204.901051
11
399.976591
21
202.441333
0
LINE
8
boundary
62
5
39
2
10
399.976591
20
202.441333
11
402.121578
21
199.691511
0
LINE
8
boundary
62
5
39
2
10
402.121578
20
199.691511
11
406.374507
21
199.034078
0
LINE
8
boundary
62
5
39
2
10
406.374507
20
199.034078
11
407.800685
21
198.656016
0
LINE
8
boundary
62
5
39
2
10
407.800685
20
198.656016
11
410.901488
21
197.922341
0
LINE
8
boundary
62
5
39
2
10
410.901488
20
197.922341
11
428.425577
21
194.970853
0
LINE
8
boundary
62
5
39
2
10
428.425577
20
194.970853
11
443.369702
21
192.973989
0
LINE
8
boundary
62
5
39
2
10
443.369702
20
192.973989
11
445.755677
21
193.317350
0
LINE
8
boundary
62
5
39
2
10
445.755677
20
193.317350
11
457.686724
21
204.887553
0
LINE
8
boundary
62
5
39
2
10
457.686724
20
204.887553
11
459.408226
21
206.252170
0
LINE
8
boundary
62
5
39
2
10
459.408226
20
206.252170
11
460.764495
21
207.829664
0
LINE
8
boundary
62
5
39
2
10
460.764495
20
207.829664
11
464.413220
21
218.357557
0
LINE
8
boundary
62
5
39
2
10
464.413220
20
218.357557
11
465.489021
21
221.606848
0
LINE
8
boundary
62
5
39
2
10
465.489021
20
221.606848
11
465.052780
21
230.634306
0
LINE
8
boundary
62
5
39
2
10
465.052780
20
230.634306
11
464.267931
21
236.265063
0
LINE
8
boundary
62
5
39
2
10
464.267931
20
236.265063
11
415.693657
21
236.335063
0
LINE
8
boundary
62
5
39
2
10
415.693657
20
236.335063
11
415.693657
21
237.481063
0
LINE
8
boundary
62
5
39
2
10
415.693657
20
237.481063
11
464.049274
21
237.481063
0
LINE
8
boundary
62
5
39
2
10
464.049274
20
237.481063
11
462.454945
21
246.132831
0
LINE
8
boundary
62
5
39
2
10
462.454945
20
246.132831
11
460.930648
21
253.344277
0
LINE
8
boundary
62
5
39
2
10
460.930648
20
253.344277
11
456.475929
21
256.372844
0
LINE
8
boundary
62
5
39
2
10
456.475929
20
256.372844
11
450.180184
21
258.750624
0
LINE
8
boundary
62
5
39
2
10
450.180184
20
258.750624
11
437.692221
21
266.205274
0
LINE
8
boundary
62
5
39
2
10
437.692221
20
266.205274
11
436.629702
21
266.567649
0
LINE
8
boundary
62
5
39
2
10
436.629702
20
266.567649
11
430.625516
21
268.401320
0
LINE
8
boundary
62
5
39
2
10
430.625516
20
268.401320
11
428.266868
21
269.471344
0
LINE
8
boundary
62
5
39
2
10
428.266868
20
269.471344
11
427.637355
21
269.671021
0
LINE
8
boundary
62
5
39
2
10
427.637355
20
269.671021
11
427.493683
21
269.130729
0
LINE
8
boundary
62
5
39
2
10
427.493683
20
269.130729
11
427.005706
21
268.354076
0
LINE
8
boundary
62
5
39
2
10
427.005706
20
268.354076
11
424.266179
21
264.463917
0
LINE
8
boundary
62
5
39
2
10
424.266179
20
264.463917
11
421.787226
21
264.170832
0
LINE
8
boundary
62
5
39
2
10
421.787226
20
264.170832
11
416.775388
21
262.324209
0
LINE
8
boundary
62
5
39
2
10
416.775388
20
262.324209
11
414.865476
21
259.408447
0
LINE
8
boundary
62
5
39
2
10
414.865476
20
259.408447
11
412.266015
21
260.159013
0
LINE
8
boundary
62
5
39
2
10
412.266015
20
260.159013
11
408.963074
21
261.109530
0
LINE
8
boundary
62
5
39
2
10
408.963074
20
261.109530
11
401.885063
21
261.594775
0
LINE
8
boundary
62
5
39
2
10
401.885063
20
261.594775
11
399.177230
21
262.308037
0
LINE
8
boundary
62
5
39
2
10
399.177230
20
262.308037
11
397.666405
21
262.020038
0
LINE
8
boundary
62
5
39
2
10
397.666405
20
262.020038
11
396.779709
21
263.321960
0
LINE
8
boundary
62
5
39
2
10
396.779709
20
263.321960
11
391.219617
21
261.379066
0
LINE
8
boundary
62
5
39
2
10
391.219617
20
261.379066
11
386.810356
21
259.981563
0
LINE
8
boundary
62
5
39
2
10
386.810356
20
259.981563
11
374.314507
21
254.999892
0
LINE
8
boundary
62
5
39
2
10
374.314507
20
254.999892
11
373.377849
21
254.572488
0
LINE
8
boundary
62
5
39
2
10
373.377849
20
254.572488
11
373.162023
21
254.109075
0
LINE
8
boundary
62
5
39
2
10
373.162023
20
254.109075
11
372.414404
21
252.101906
0
LINE
8
boundary
62
5
39
2
10
372.414404
20
252.101906
11
368.849696
21
242.879491
0
LINE
8
boundary
62
5
39
2
10
368.849696
20
242.879491
11
368.238969
21
240.712020
0
LINE
8
boundary
62
5
39
2
10
368.238969
20
240.712020
11
366.327111
21
235.345446
0
LINE
8
boundary
62
5
39
2
10
366.327111
20
235.345446
11
360.885777
21
218.642452
0
LINE
8
boundary
62
5
39
2
10
360.885777
20
218.642452
11
360.000409
21
215.763388
0
LINE
8
boundary
62
5
39
2
10
360.000409
20
215.763388
11
359.643250
21
214.276260
0
LINE
8
boundary
62
5
39
2
10
359.643250
20
214.276260
11
358.905735
21
212.238570
0
LINE
8
boundary
62
5
39
2
10
358.905735
20
212.238570
11
358.403172
21
210.425337
0
LINE
8
boundary
62
5
39
2
10
358.403172
20
210.425337
11
354.645505
21
204.605512
0
LINE
8
boundary
62
5
39
2
10
354.645505
20
204.605512
11
352.996278
21
204.412162
0
LINE
8
boundary
62
5
39
2
10
352.996278
20
204.412162
11
335.562507
21
206.182150
0
LINE
8
boundary
62
5
39
2
10
335.562507
20
206.182150
11
331.588631
21
206.326735
0
LINE
8
boundary
62
5
39
2
10
331.588631
20
206.326735
11
330.696521
21
206.835597
0
LINE
8
boundary
62
5
39
2
10
330.696521
20
206.835597
11
322.636079
21
208.349440
0
LINE
8
boundary
62
5
39
2
10
322.636079
20
208.349440
11
320.935878
21
208.962156
0
LINE
8
boundary
62
5
39
2
10
320.935878
20
208.962156
11
320.120213
21
215.918604
0
LINE
8
boundary
62
5
39
2
10
320.120213
20
215.918604
11
319.778236
21
219.869514
0
LINE
8
boundary
62
5
39
2
10
319.778236
20
219.869514
11
318.988587
21
220.829479
0
LINE
8
boundary
62
5
39
2
10
318.988587
20
220.829479
11
317.858519
21
222.590703
0
LINE
8
boundary
62
5
39
2
10
317.858519
20
222.590703
11
317.179830
21
222.783206
0
LINE
8
boundary
62
5
39
2
10
317.179830
20
222.783206
11
316.385498
21
215.933506
0
LINE
8
boundary
62
5
39
2
10
316.385498
20
215.933506
11
316.466441
21
214.835875
0
LINE
8
boundary
62
5
39
2
10
316.466441
20
214.835875
11
316.609628
21
213.440076
0
LINE
8
annotation
62
1
39
211
10
413.015437
20
235.788063
11
413.015437
21
238.028063
0
LINE
8
annotation
62
1
39
211
10
413.015437
20
238.028063
11
412.517456
21
237.529942
0
LINE
8
annotation
62
1
39
211
10
420.984576
20
211.102136
11
415.023130
21
211.102136
0
LINE
8
annotation
62
1
39
211
10
415.023130
20
211.102136
11
420.984576
21
221.838663
0
LINE
8
annotation
62
1
39
211
10
420.984576
20
221.838663
11
415.023130
21
221.838663
0
LINE
8
annotation
62
1
39
211
10
430.882333
20
216.470400
11
425.011784
21
216.470400
0
LINE
8
annotation
62
1
39
211
10
437.294725
20
211.102136
11
437.294725
21
221.838663
0
LINE
8
annotation
62
1
39
211
10
437.294725
20
221.838663
11
434.907857
21
219.451122
0
LINE
8
annotation
62
1
39
211
10
443.045158
20
211.243755
11
443.045158
21
211.243755
0
LINE
8
annotation
62
1
39
211
10
443.045158
20
211.243755
11
443.294688
21
211.150474
0
LINE
8
annotation
62
1
39
211
10
443.294688
20
211.150474
11
443.550602
21
211.104130
0
LINE
8
annotation
62
1
39
211
10
443.550602
20
211.104130
11
443.807115
21
211.102834
0
LINE
8
annotation
62
1
39
211
10
443.807115
20
211.102834
11
444.058441
21
211.144697
0
LINE
8
annotation
62
1
39
211
10
444.058441
20
211.144697
11
444.298794
21
211.227827
0
LINE
8
annotation
62
1
39
211
10
444.298794
20
211.227827
11
444.522390
21
211.350336
0
LINE
8
annotation
62
1
39
211
10
444.522390
20
211.350336
11
444.723442
21
211.510335
0
LINE
8
annotation
62
1
39
211
10
444.723442
20
211.510335
11
444.896166
21
211.705932
0
LINE
8
annotation
62
1
39
211
10
444.896166
20
211.705932
11
445.034775
21
211.935239
0
LINE
8
annotation
62
1
39
211
10
445.034775
20
211.935239
11
445.034775
21
211.935239
0
LINE
8
annotation
62
1
39
211
10
445.034775
20
211.935239
11
445.448334
21
212.903276
0
LINE
8
annotation
62
1
39
211
10
445.448334
20
212.903276
11
445.758504
21
213.899331
0
LINE
8
annotation
62
1
39
211
10
445.758504
20
213.899331
11
445.965283
21
214.915463
0
LINE
8
annotation
62
1
39
211
10
445.965283
20
214.915463
11
446.068673
21
215.943732
0
LINE
8
annotation
62
1
39
211
10
446.068673
20
215.943732
11
446.068673
21
216.976195
0
LINE
8
annotation
62
1
39
211
10
446.068673
20
216.976195
11
445.965283
21
218.004912
0
LINE
8
annotation
62
1
39
211
10
445.965283
20
218.004912
11
445.758504
21
219.021943
0
LINE
8
annotation
62
1
39
211
10
445.758504
20
219.021943
11
445.448334
21
220.019344
0
LINE
8
annotation
62
1
39
211
10
445.448334
20
220.019344
11
445.034775
21
220.989176
0
LINE
8
annotation
62
1
39
211
10
445.034775
20
220.989176
11
445.034775
21
220.989176
0
LINE
8
annotation
62
1
39
211
10
445.034775
20
220.989176
11
444.982183
21
221.087053
0
LINE
8
annotation
62
1
39
211
10
444.982183
20
221.087053
11
444.922558
21
221.180630
0
LINE
8
annotation
62
1
39
211
10
444.922558
20
221.180630
11
444.856349
21
221.269446
0
LINE
8
annotation
62
1
39
211
10
444.856349
20
221.269446
11
444.784006
21
221.353042
0
LINE
8
annotation
62
1
39
211
10
444.784006
20
221.353042
11
444.705978
21
221.430958
0
LINE
8
annotation
62
1
39
211
10
444.705978
20
221.430958
11
444.622712
21
221.502734
0
LINE
8
annotation
62
1
39
211
10
444.622712
20
221.502734
11
444.534659
21
221.567910
0
LINE
8
annotation
62
1
39
211
10
444.534659
20
221.567910
11
444.442267
21
221.626025
0
LINE
8
annotation
62
1
39
211
10
444.442267
20
221.626025
11
444.345984
21
221.676621
0
LINE
8
annotation
62
1
39
211
10
444.345984
20
221.676621
11
444.345984
21
221.676621
0
LINE
8
annotation
62
1
39
211
10
444.345984
20
221.676621
11
444.094472
21
221.771924
0
LINE
8
annotation
62
1
39
211
10
444.094472
20
221.771924
11
443.837059
21
221.819851
0
LINE
8
annotation
62
1
39
211
10
443.837059
20
221.819851
11
443.579463
21
221.822304
0
LINE
8
annotation
62
1
39
211
10
443.579463
20
221.822304
11
443.327403
21
221.781184
0
LINE
8
annotation
62
1
39
211
10
443.327403
20
221.781184
11
443.086598
21
221.698390
0
LINE
8
annotation
62
1
39
211
10
443.086598
20
221.698390
11
442.862767
21
221.575825
0
LINE
8
annotation
62
1
39
211
10
442.862767
20
221.575825
11
442.661629
21
221.415388
0
LINE
8
annotation
62
1
39
211
10
442.661629
20
221.415388
11
442.488902
21
221.218980
0
LINE
8
annotation
62
1
39
211
10
442.488902
20
221.218980
11
442.350307
21
220.988503
0
LINE
8
annotation
62
1
39
211
10
442.350307
20
220.988503
11
442.350307
21
220.988503
0
LINE
8
annotation
62
1
39
211
10
442.350307
20
220.988503
11
441.938743
21
220.020666
0
LINE
8
annotation
62
1
39
211
10
441.938743
20
220.020666
11
441.630070
21
219.024760
0
LINE
8
annotation
62
1
39
211
10
441.630070
20
219.024760
11
441.424288
21
218.008728
0
LINE
8
annotation
62
1
39
211
10
441.424288
20
218.008728
11
441.321396
21
216.980509
0
LINE
8
annotation
62
1
39
211
10
441.321396
20
216.980509
11
441.321396
21
215.948046
0
LINE
8
annotation
62
1
39
211
10
441.321396
20
215.948046
11
441.424288
21
214.919279
0
LINE
8
annotation
62
1
39
211
10
441.424288
20
214.919279
11
441.630070
21
213.902149
0
LINE
8
annotation
62
1
39
211
10
441.630070
20
213.902149
11
441.938743
21
212.904598
0
LINE
8
annotation
62
1
39
211
10
441.938743
20
212.904598
11
442.350307
21
211.934566
0
LINE
8
annotation
62
1
39
211
10
442.350307
20
211.934566
11
442.350307
21
211.934566
0
LINE
8
annotation
62
1
39
211
10
442.350307
20
211.934566
11
442.402708
21
211.836884
0
LINE
8
annotation
62
1
39
211
10
442.402708
20
211.836884
11
442.461893
21
211.743774
0
LINE
8
annotation
62
1
39
211
10
442.461893
20
211.743774
11
442.527611
21
211.655518
0
LINE
8
annotation
62
1
39
211
10
442.527611
20
211.655518
11
442.599613
21
211.572400
0
LINE
8
annotation
62
1
39
211
10
442.599613
20
211.572400
11
442.677650
21
211.494701
0
LINE
8
annotation
62
1
39
211
10
442.677650
20
211.494701
11
442.761472
21
211.422704
0
LINE
8
annotation
62
1
39
211
10
442.761472
20
211.422704
11
442.850830
21
211.356693
0
LINE
8
annotation
62
1
39
211
10
442.850830
20
211.356693
11
442.945475
21
211.296949
0
LINE
8
annotation
62
1
39
211
10
442.945475
20
211.296949
11
443.045158
21
211.243755
0
LINE
8
boundary
62
5
39
2
10
316.971049
20
276.249878
11
319.844411
21
275.487300
0
LINE
8
boundary
62
5
39
2
10
319.844411
20
275.487300
11
324.848301
21
274.968744
0
LINE
8
boundary
62
5
39
2
10
324.848301
20
274.968744
11
327.191781
21
275.008318
0
LINE
8
boundary
62
5
39
2
10
327.191781
20
275.008318
11
328.577936
21
274.948347
0
LINE
8
boundary
62
5
39
2
10
328.577936
20
274.948347
11
333.437139
21
274.577478
0
LINE
8
boundary
62
5
39
2
10
333.437139
20
274.577478
11
345.124805
21
273.995296
0
LINE
8
boundary
62
5
39
2
10
345.124805
20
273.995296
11
354.592712
21
273.717953
0
LINE
8
boundary
62
5
39
2
10
354.592712
20
273.717953
11
362.526691
21
273.503623
0
LINE
8
boundary
62
5
39
2
10
362.526691
20
273.503623
11
370.558882
21
273.219736
0
LINE
8
boundary
62
5
39
2
10
370.558882
20
273.219736
11
384.713934
21
273.243164
0
LINE
8
boundary
62
5
39
2
10
384.713934
20
273.243164
11
390.788361
21
272.846021
0
LINE
8
boundary
62
5
39
2
10
390.788361
20
272.846021
11
402.311879
21
273.685124
0
LINE
8
boundary
62
5
39
2
10
402.311879
20
273.685124
11
408.302443
21
274.397421
0
LINE
8
boundary
62
5
39
2
10
408.302443
20
274.397421
11
409.680857
21
274.886177
0
LINE
8
boundary
62
5
39
2
10
409.680857
20
274.886177
11
421.087829
21
280.988715
0
LINE
8
boundary
62
5
39
2
10
421.087829
20
280.988715
11
422.392156
21
281.642289
0
LINE
8
boundary
62
5
39
2
10
422.392156
20
281.642289
11
422.621018
21
282.276445
0
LINE
8
boundary
62
5
39
2
10
422.621018
20
282.276445
11
425.250728
21
292.724245
0
LINE
8
boundary
62
5
39
2
10
425.250728
20
292.724245
11
426.838756
21
296.049376
0
LINE
8
boundary
62
5
39
2
10
426.838756
20
296.049376
11
429.627828
21
298.924936
0
LINE
8
boundary
62
5
39
2
10
429.627828
20
298.924936
11
433.153064
21
305.058030
0
LINE
8
boundary
62
5
39
2
10
433.153064
20
305.058030
11
433.592869
21
307.888606
0
LINE
8
boundary
62
5
39
2
10
433.592869
20
307.888606
11
434.983957
21
310.421122
0
LINE
8
boundary
62
5
39
2
10
434.983957
20
310.421122
11
433.216935
21
312.594536
0
LINE
8
boundary
62
5
39
2
10
433.216935
20
312.594536
11
428.898583
21
320.225644
0
LINE
8
boundary
62
5
39
2
10
428.898583
20
320.225644
11
427.432901
21
323.756909
0
LINE
8
boundary
62
5
39
2
10
427.432901
20
323.756909
11
425.665242
21
327.728462
0
LINE
8
boundary
62
5
39
2
10
425.665242
20
327.728462
11
424.338785
21
329.915175
0
LINE
8
boundary
62
5
39
2
10
424.338785
20
329.915175
11
424.085125
21
330.493170
0
LINE
8
boundary
62
5
39
2
10
424.085125
20
330.493170
11
422.594386
21
336.077245
0
LINE
8
boundary
62
5
39
2
10
422.594386
20
336.077245
11
421.918928
21
338.134407
0
LINE
8
boundary
62
5
39
2
10
421.918928
20
338.134407
11
421.539747
21
338.624442
0
LINE
8
boundary
62
5
39
2
10
421.539747
20
338.624442
11
416.492657
21
340.963435
0
LINE
8
boundary
62
5
39
2
10
416.492657
20
340.963435
11
411.535401
21
343.101558
0
LINE
8
boundary
62
5
39
2
10
411.535401
20
343.101558
11
408.118118
21
344.493766
0
LINE
8
boundary
62
5
39
2
10
408.118118
20
344.493766
11
399.143653
21
345.278317
0
LINE
8
boundary
62
5
39
2
10
399.143653
20
345.278317
11
394.507084
21
345.448455
0
LINE
8
boundary
62
5
39
2
10
394.507084
20
345.448455
11
375.547394
21
345.597950
0
LINE
8
boundary
62
5
39
2
10
375.547394
20
345.597950
11
369.696093
21
345.397012
0
LINE
8
boundary
62
5
39
2
10
369.696093
20
345.397012
11
367.481835
21
345.393612
0
LINE
8
boundary
62
5
39
2
10
367.481835
20
345.393612
11
364.091736
21
345.402098
0
LINE
8
boundary
62
5
39
2
10
364.091736
20
345.402098
11
347.150343
21
344.397314
0
LINE
8
boundary
62
5
39
2
10
347.150343
20
344.397314
11
335.156173
21
343.889139
0
LINE
8
boundary
62
5
39
2
10
335.156173
20
343.889139
11
331.435751
21
343.734609
0
LINE
8
boundary
62
5
39
2
10
331.435751
20
343.734609
11
328.570326
21
343.609853
0
LINE
8
boundary
62
5
39
2
10
328.570326
20
343.609853
11
325.980720
21
343.372002
0
LINE
8
boundary
62
5
39
2
10
325.980720
20
343.372002
11
321.730909
21
343.031010
0
LINE
8
boundary
62
5
39
2
10
321.730909
20
343.031010
11
318.255568
21
342.364207
0
LINE
8
boundary
62
5
39
2
10
318.255568
20
342.364207
11
317.415737
21
341.114296
0
LINE
8
boundary
62
5
39
2
10
317.415737
20
341.114296
11
317.051385
21
340.458125
0
LINE
8
boundary
62
5
39
2
10
317.051385
20
340.458125
11
316.862423
21
339.843882
0
LINE
8
boundary
62
5
39
2
10
316.862423
20
339.843882
11
317.326187
21
338.142793
0
LINE
8
boundary
62
5
39
2
10
317.326187
20
338.142793
11
369.710124
21
337.777096
0
LINE
8
boundary
62
5
39
2
10
369.710124
20
337.777096
11
369.710124
21
336.631096
0
LINE
8
boundary
62
5
39
2
10
369.710124
20
336.631096
11
317.909492
21
336.631096
0
LINE
8
boundary
62
5
39
2
10
317.909492
20
336.631096
11
318.248128
21
336.010911
0
LINE
8
boundary
62
5
39
2
10
318.248128
20
336.010911
11
324.568408
21
335.470438
0
LINE
8
boundary
62
5
39
2
10
324.568408
20
335.470438
11
327.818054
21
335.128007
0
LINE
8
boundary
62
5
39
2
10
327.818054
20
335.128007
11
328.636403
21
335.174996
0
LINE
8
boundary
62
5
39
2
10
328.636403
20
335.174996
11
334.949768
21
334.817110
0
LINE
8
boundary
62
5
39
2
10
334.949768
20
334.817110
11
345.810398
21
334.333847
0
LINE
8
boundary
62
5
39
2
10
345.810398
20
334.333847
11
351.301796
21
335.437276
0
LINE
8
boundary
62
5
39
2
10
351.301796
20
335.437276
11
354.252721
21
335.829125
0
LINE
8
boundary
62
5
39
2
10
354.252721
20
335.829125
11
354.916082
21
335.907103
0
LINE
8
boundary
62
5
39
2
10
354.916082
20
335.907103
11
359.587889
21
336.469879
0
LINE
8
boundary
62
5
39
2
10
359.587889
20
336.469879
11
360.992800
21
336.040229
0
LINE
8
boundary
62
5
39
2
10
360.992800
20
336.040229
11
361.586693
21
333.316706
0
LINE
8
boundary
62
5
39
2
10
361.586693
20
333.316706
11
360.329480
21
331.898811
0
LINE
8
boundary
62
5
39
2
10
360.329480
20
331.898811
11
359.109271
21
328.934251
0
LINE
8
boundary
62
5
39
2
10
359.109271
20
328.934251
11
391.952547
21
328.864251
0
LINE
8
boundary
62
5
39
2
10
391.952547
20
328.864251
11
391.952547
21
327.718251
0
LINE
8
boundary
62
5
39
2
10
391.952547
20
327.718251
11
358.608767
21
327.718251
0
LINE
8
boundary
62
5
39
2
10
358.608767
20
327.718251
11
357.299286
21
324.536799
0
LINE
8
boundary
62
5
39
2
10
357.299286
20
324.536799
11
356.321754
21
322.083087
0
LINE
8
boundary
62
5
39
2
10
356.321754
20
322.083087
11
392.206400
21
322.013087
0
LINE
8
boundary
62
5
39
2
10
392.206400
20
322.013087
11
392.206400
21
320.867087
0
LINE
8
boundary
62
5
39
2
10
392.206400
20
320.867087
11
355.837313
21
320.867087
0
LINE
8
boundary
62
5
39
2
10
355.837313
20
320.867087
11
355.270107
21
319.443338
0
LINE
8
boundary
62
5
39
2
10
355.270107
20
319.443338
11
353.424080
21
314.545289
0
LINE
8
boundary
62
5
39
2
10
353.424080
20
314.545289
11
392.856862
21
314.545289
0
LINE
8
boundary
62
5
39
2
10
392.856862
20
314.545289
11
392.856862
21
313.399289
0
LINE
8
boundary
62
5
39
2
10
392.856862
20
313.399289
11
352.992164
21
313.399289
0
LINE
8
boundary
62
5
39
2
10
352.992164
20
313.399289
11
351.785747
21
310.198310
0
LINE
8
boundary
62
5
39
2
10
351.785747
20
310.198310
11
351.592322
21
309.561862
0
LINE
8
boundary
62
5
39
2
10
351.592322
20
309.561862
11
351.759123
21
308.988231
0
LINE
8
boundary
62
5
39
2
10
351.759123
20
308.988231
11
353.147179
21
305.069431
0
LINE
8
boundary
62
5
39
2
10
353.147179
20
305.069431
11
393.102939
21
304.999431
0
LINE
8
boundary
62
5
39
2
10
393.102939
20
304.999431
11
393.102939
21
303.853431
0
LINE
8
boundary
62
5
39
2
10
393.102939
20
303.853431
11
353.577892
21
303.853431
0
LINE
8
boundary
62
5
39
2
10
353.577892
20
303.853431
11
355.329582
21
298.908007
0
LINE
8
boundary
62
5
39
2
10
355.329582
20
298.908007
11
355.540124
21
298.367974
0
LINE
8
boundary
62
5
39
2
10
355.540124
20
298.367974
11
392.221507
21
298.297974
0
LINE
8
boundary
62
5
39
2
10
392.221507
20
298.297974
11
392.221507
21
297.151974
0
LINE
8
boundary
62
5
39
2
10
392.221507
20
297.151974
11
356.014205
21
297.151975
0
LINE
8
boundary
62
5
39
2
10
356.014205
20
297.151975
11
358.302784
21
291.281850
0
LINE
8
boundary
62
5
39
2
10
358.302784
20
291.281850
11
391.582734
21
291.211850
0
LINE
8
boundary
62
5
39
2
10
391.582734
20
291.211850
11
391.582734
21
290.065850
0
LINE
8
boundary
62
5
39
2
10
391.582734
20
290.065850
11
358.776865
21
290.065850
0
LINE
8
boundary
62
5
39
2
10
358.776865
20
290.065850
11
358.983379
21
289.536148
0
LINE
8
boundary
62
5
39
2
10
358.983379
20
289.536148
11
360.323093
21
286.215136
0
LINE
8
boundary
62
5
39
2
10
360.323093
20
286.215136
11
359.630296
21
285.461863
0
LINE
8
boundary
62
5
39
2
10
359.630296
20
285.461863
11
358.372838
21
282.268368
0
LINE
8
boundary
62
5
39
2
10
358.372838
20
282.268368
11
351.214911
21
283.377444
0
LINE
8
boundary
62
5
39
2
10
351.214911
20
283.377444
11
348.153066
21
283.527255
0
LINE
8
boundary
62
5
39
2
10
348.153066
20
283.527255
11
346.419478
21
284.128815
0
LINE
8
boundary
62
5
39
2
10
346.419478
20
284.128815
11
343.400875
21
284.572785
0
LINE
8
boundary
62
5
39
2
10
343.400875
20
284.572785
11
335.216756
21
284.160531
0
LINE
8
boundary
62
5
39
2
10
335.216756
20
284.160531
11
326.155456
21
283.479490
0
LINE
8
boundary
62
5
39
2
10
326.155456
20
283.479490
11
322.438064
21
283.119145
0
LINE
8
boundary
62
5
39
2
10
322.438064
20
283.119145
11
318.485169
21
282.889862
0
LINE
8
boundary
62
5
39
2
10
318.485169
20
282.889862
11
317.795193
21
282.058262
0
LINE
8
boundary
62
5
39
2
10
317.795193
20
282.058262
11
317.097592
21
281.452099
0
LINE
8
boundary
62
5
39
2
10
317.097592
20
281.452099
11
316.385498
21
280.044288
0
LINE
8
boundary
62
5
39
2
10
316.385498
20
280.044288
11
367.239572
21
279.953180
0
LINE
8
boundary
62
5
39
2
10
367.239572
20
279.953180
11
367.239573
21
278.807180
0
LINE
8
boundary
62
5
39
2
10
367.239573
20
278.807180
11
316.893752
21
278.807180
0
LINE
8
boundary
62
5
39
2
10
316.893752
20
278.807180
11
316.843828
21
276.344248
0
LINE
8
boundary
62
5
39
2
10
316.843828
20
276.344248
11
316.971049
21
276.249878
0
LINE
8
annotation
62
1
39
211
10
370.663710
20
278.260162
11
369.668873
21
278.260162
0
LINE
8
annotation
62
1
39
211
10
369.668873
20
278.260162
11
370.588135
21
279.740057
0
LINE
8
annotation
62
1
39
211
10
370.588135
20
279.740057
11
370.588135
21
279.740057
0
LINE
8
annotation
62
1
39
211
10
370.588135
20
279.740057
11
370.589234
21
279.741416
0
LINE
8
annotation
62
1
39
211
10
370.589234
20
279.741416
11
370.590288
21
279.742788
0
LINE
8
annotation
62
1
39
211
10
370.590288
20
279.742788
11
370.591304
21
279.744182
0
LINE
8
annotation
62
1
39
211
10
370.591304
20
279.744182
11
370.592288
21
279.745612
0
LINE
8
annotation
62
1
39
211
10
370.592288
20
279.745612
11
370.593248
21
279.747087
0
LINE
8
annotation
62
1
39
211
10
370.593248
20
279.747087
11
370.594191
21
279.748620
0
LINE
8
annotation
62
1
39
211
10
370.594191
20
279.748620
11
370.595124
21
279.750223
0
LINE
8
annotation
62
1
39
211
10
370.595124
20
279.750223
11
370.596053
21
279.751906
0
LINE
8
annotation
62
1
39
211
10
370.596053
20
279.751906
11
370.596985
21
279.753683
0
LINE
8
annotation
62
1
39
211
10
370.596985
20
279.753683
11
370.596985
21
279.753683
0
LINE
8
annotation
62
1
39
211
10
370.596985
20
279.753683
11
370.634941
21
279.835178
0
LINE
8
annotation
62
1
39
211
10
370.634941
20
279.835178
11
370.657115
21
279.919654
0
LINE
8
annotation
62
1
39
211
10
370.657115
20
279.919654
11
370.664049
21
280.005204
0
LINE
8
annotation
62
1
39
211
10
370.664049
20
280.005204
11
370.656286
21
280.089918
0
LINE
8
annotation
62
1
39
211
10
370.656286
20
280.089918
11
370.634372
21
280.171887
0
LINE
8
annotation
62
1
39
211
10
370.634372
20
280.171887
11
370.598848
21
280.249202
0
LINE
8
annotation
62
1
39
211
10
370.598848
20
280.249202
11
370.550258
21
280.319955
0
LINE
8
annotation
62
1
39
211
10
370.550258
20
280.319955
11
370.489146
21
280.382237
0
LINE
8
annotation
62
1
39
211
10
370.489146
20
280.382237
11
370.416055
21
280.434139
0
LINE
8
annotation
62
1
39
211
10
370.416055
20
280.434139
11
370.416055
21
280.434139
0
LINE
8
annotation
62
1
39
211
10
370.416055
20
280.434139
11
370.334333
21
280.471556
0
LINE
8
annotation
62
1
39
211
10
370.334333
20
280.471556
11
370.249727
21
280.493388
0
LINE
8
annotation
62
1
39
211
10
370.249727
20
280.493388
11
370.164127
21
280.500125
0
LINE
8
annotation
62
1
39
211
10
370.164127
20
280.500125
11
370.079426
21
280.492261
0
LINE
8
annotation
62
1
39
211
10
370.079426
20
280.492261
11
369.997515
21
280.470286
0
LINE
8
annotation
62
1
39
211
10
369.997515
20
280.470286
11
369.920285
21
280.434691
0
LINE
8
annotation
62
1
39
211
10
369.920285
20
280.434691
11
369.849628
21
280.385967
0
LINE
8
annotation
62
1
39
211
10
369.849628
20
280.385967
11
369.787435
21
280.324607
0
LINE
8
annotation
62
1
39
211
10
369.787435
20
280.324607
11
369.735598
21
280.251101
0
LINE
8
annotation
62
1
39
211
10
369.735598
20
280.251101
11
369.670278
21
280.125798
0
LINE
8
annotation
62
1
39
211
10
394.012035
20
289.518920
11
394.509453
21
289.518920
0
LINE
8
annotation
62
1
39
211
10
394.509453
20
289.518920
11
394.509453
21
289.518920
0
LINE
8
annotation
62
1
39
211
10
394.509453
20
289.518920
11
394.598915
21
289.526945
0
LINE
8
annotation
62
1
39
211
10
394.598915
20
289.526945
11
394.683096
21
289.550075
0
LINE
8
annotation
62
1
39
211
10
394.683096
20
289.550075
11
394.760595
21
289.586889
0
LINE
8
annotation
62
1
39
211
10
394.760595
20
289.586889
11
394.830013
21
289.635967
0
LINE
8
annotation
62
1
39
211
10
394.830013
20
289.635967
11
394.889948
21
289.695890
0
LINE
8
annotation
62
1
39
211
10
394.889948
20
289.695890
11
394.939002
21
289.765239
0
LINE
8
annotation
62
1
39
211
10
394.939002
20
289.765239
11
394.975774
21
289.842592
0
LINE
8
annotation
62
1
39
211
10
394.975774
20
289.842592
11
394.998864
21
289.926532
0
LINE
8
annotation
62
1
39
211
10
394.998864
20
289.926532
11
395.006872
21
290.015636
0
LINE
8
annotation
62
1
39
211
10
395.006872
20
290.015636
11
395.006872
21
290.264697
0
LINE
8
annotation
62
1
39
211
10
395.006872
20
290.264697
11
395.006872
21
290.264697
0
LINE
8
annotation
62
1
39
211
10
395.006872
20
290.264697
11
394.998864
21
290.353765
0
LINE
8
annotation
62
1
39
211
10
394.998864
20
290.353765
11
394.975774
21
290.437684
0
LINE
8
annotation
62
1
39
211
10
394.975774
20
290.437684
11
394.939002
21
290.515032
0
LINE
8
annotation
62
1
39
211
10
394.939002
20
290.515032
11
394.889948
21
290.584385
0
LINE
8
annotation
62
1
39
211
10
394.889948
20
290.584385
11
394.830013
21
290.644320
0
LINE
8
annotation
62
1
39
211
10
394.830013
20
290.644320
11
394.760595
21
290.693414
0
LINE
8
annotation
62
1
39
211
10
394.760595
20
290.693414
11
394.683096
21
290.730242
0
LINE
8
annotation
62
1
39
211
10
394.683096
20
290.730242
11
394.598915
21
290.753384
0
LINE
8
annotation
62
1
39
211
10
394.598915
20
290.753384
11
394.509453
21
290.761413
0
LINE
8
annotation
62
1
39
211
10
394.509453
20
290.761413
11
394.260393
21
290.761413
0
LINE
8
annotation
62
1
39
211
10
394.260393
20
290.761413
11
394.509453
21
290.761413
0
LINE
8
annotation
62
1
39
211
10
394.509453
20
290.761413
11
394.509453
21
290.761413
0
LINE
8
annotation
62
1
39
211
10
394.509453
20
290.761413
11
394.598915
21
290.769445
0
LINE
8
annotation
62
1
39
211
10
394.598915
20
290.769445
11
394.683096
21
290.792600
0
LINE
8
annotation
62
1
39
211
10
394.683096
20
290.792600
11
394.760595
21
290.829465
0
LINE
8
annotation
62
1
39
211
10
394.760595
20
290.829465
11
394.830013
21
290.878630
0
LINE
8
annotation
62
1
39
211
10
394.830013
20
290.878630
11
394.889948
21
290.938683
0
LINE
8
annotation
62
1
39
211
10
394.889948
20
290.938683
11
394.939002
21
291.008211
0
LINE
8
annotation
62
1
39
211
10
394.939002
20
291.008211
11
394.975774
21
291.085803
0
LINE
8
annotation
62
1
39
211
10
394.975774
20
291.085803
11
394.998864
21
291.170049
0
LINE
8
annotation
62
1
39
211
10
394.998864
20
291.170049
11
395.006872
21
291.259535
0
LINE
8
annotation
62
1
39
211
10
395.006872
20
291.259535
11
395.006872
21
291.259535
0
LINE
8
annotation
62
1
39
211
10
395.006872
20
291.259535
11
394.998864
21
291.348603
0
LINE
8
annotation
62
1
39
211
10
394.998864
20
291.348603
11
394.975774
21
291.432522
0
LINE
8
annotation
62
1
39
211
10
394.975774
20
291.432522
11
394.939002
21
291.509870
0
LINE
8
annotation
62
1
39
211
10
394.939002
20
291.509870
11
394.889948
21
291.579223
0
LINE
8
annotation
62
1
39
211
10
394.889948
20
291.579223
11
394.830013
21
291.639158
0
LINE
8
annotation
62
1
39
211
10
394.830013
20
291.639158
11
394.760595
21
291.688251
0
LINE
8
annotation
62
1
39
211
10
394.760595
20
291.688251
11
394.683096
21
291.725080
0
LINE
8
annotation
62
1
39
211
10
394.683096
20
291.725080
11
394.598915
21
291.748221
0
LINE
8
annotation
62
1
39
211
10
394.598915
20
291.748221
11
394.509453
21
291.756251
0
LINE
8
annotation
62
1
39
211
10
394.509453
20
291.756251
11
394.012035
21
291.756251
0
LINE
8
annotation
62
1
39
211
10
395.770104
20
297.102955
11
394.526347
21
297.102955
0
LINE
8
annotation
62
1
39
211
10
394.526347
20
297.102955
11
395.023063
21
298.844974
0
LINE
8
annotation
62
1
39
211
10
395.397286
20
296.604974
11
395.397286
21
297.599812
0
LINE
8
annotation
62
1
39
211
10
395.532239
20
303.306431
11
396.029658
21
303.306431
0
LINE
8
annotation
62
1
39
211
10
396.029658
20
303.306431
11
396.029658
21
303.306431
0
LINE
8
annotation
62
1
39
211
10
396.029658
20
303.306431
11
396.118935
21
303.314458
0
LINE
8
annotation
62
1
39
211
10
396.118935
20
303.314458
11
396.203017
21
303.337600
0
LINE
8
annotation
62
1
39
211
10
396.203017
20
303.337600
11
396.280487
21
303.374447
0
LINE
8
annotation
62
1
39
211
10
396.280487
20
303.374447
11
396.349928
21
303.423589
0
LINE
8
annotation
62
1
39
211
10
396.349928
20
303.423589
11
396.409921
21
303.483618
0
LINE
8
annotation
62
1
39
211
10
396.409921
20
303.483618
11
396.459051
21
303.553124
0
LINE
8
annotation
62
1
39
211
10
396.459051
20
303.553124
11
396.495898
21
303.630698
0
LINE
8
annotation
62
1
39
211
10
396.495898
20
303.630698
11
396.519046
21
303.714931
0
LINE
8
annotation
62
1
39
211
10
396.519046
20
303.714931
11
396.527076
21
303.804412
0
LINE
8
annotation
62
1
39
211
10
396.527076
20
303.804412
11
396.527076
21
304.052208
0
LINE
8
annotation
62
1
39
211
10
396.527076
20
304.052208
11
396.527076
21
304.052208
0
LINE
8
annotation
62
1
39
211
10
396.527076
20
304.052208
11
396.519050
21
304.141646
0
LINE
8
annotation
62
1
39
211
10
396.519050
20
304.141646
11
396.495914
21
304.225762
0
LINE
8
annotation
62
1
39
211
10
396.495914
20
304.225762
11
396.459082
21
304.303168
0
LINE
8
annotation
62
1
39
211
10
396.459082
20
304.303168
11
396.409968
21
304.372474
0
LINE
8
annotation
62
1
39
211
10
396.409968
20
304.372474
11
396.349986
21
304.432294
0
LINE
8
annotation
62
1
39
211
10
396.349986
20
304.432294
11
396.280550
21
304.481237
0
LINE
8
annotation
62
1
39
211
10
396.280550
20
304.481237
11
396.203074
21
304.517915
0
LINE
8
annotation
62
1
39
211
10
396.203074
20
304.517915
11
396.118972
21
304.540941
0
LINE
8
annotation
62
1
39
211
10
396.118972
20
304.540941
11
396.029658
21
304.548924
0
LINE
8
annotation
62
1
39
211
10
396.029658
20
304.548924
11
395.532239
21
304.548924
0
LINE
8
annotation
62
1
39
211
10
395.532239
20
304.548924
11
395.532239
21
305.546431
0
LINE
8
annotation
62
1
39
211
10
395.532239
20
305.546431
11
396.527076
21
305.546431
0
LINE
8
annotation
62
1
39
211
10
396.033344
20
315.092289
11
396.033344
21
315.092289
0
LINE
8
annotation
62
1
39
211
10
396.033344
20
315.092289
11
395.890846
21
315.038861
0
LINE
8
annotation
62
1
39
211
10
395.890846
20
315.038861
11
395.760086
21
314.966873
0
LINE
8
annotation
62
1
39
211
10
395.760086
20
314.966873
11
395.642405
21
314.878129
0
LINE
8
annotation
62
1
39
211
10
395.642405
20
314.878129
11
395.539146
21
314.774432
0
LINE
8
annotation
62
1
39
211
10
395.539146
20
314.774432
11
395.451651
21
314.657585
0
LINE
8
annotation
62
1
39
211
10
395.451651
20
314.657585
11
395.381263
21
314.529394
0
LINE
8
annotation
62
1
39
211
10
395.381263
20
314.529394
11
395.329325
21
314.391660
0
LINE
8
annotation
62
1
39
211
10
395.329325
20
314.391660
11
395.297177
21
314.246189
0
LINE
8
annotation
62
1
39
211
10
395.297177
20
314.246189
11
395.286163
21
314.094783
0
LINE
8
annotation
62
1
39
211
10
395.286163
20
314.094783
11
395.286163
21
313.350270
0
LINE
8
annotation
62
1
39
211
10
395.286163
20
313.350270
11
395.286163
21
313.350270
0
LINE
8
annotation
62
1
39
211
10
395.286163
20
313.350270
11
395.294193
21
313.260789
0
LINE
8
annotation
62
1
39
211
10
395.294193
20
313.260789
11
395.317341
21
313.176556
0
LINE
8
annotation
62
1
39
211
10
395.317341
20
313.176556
11
395.354188
21
313.098983
0
LINE
8
annotation
62
1
39
211
10
395.354188
20
313.098983
11
395.403318
21
313.029476
0
LINE
8
annotation
62
1
39
211
10
395.403318
20
313.029476
11
395.463311
21
312.969447
0
LINE
8
annotation
62
1
39
211
10
395.463311
20
312.969447
11
395.532752
21
312.920305
0
LINE
8
annotation
62
1
39
211
10
395.532752
20
312.920305
11
395.610222
21
312.883458
0
LINE
8
annotation
62
1
39
211
10
395.610222
20
312.883458
11
395.694304
21
312.860316
0
LINE
8
annotation
62
1
39
211
10
395.694304
20
312.860316
11
395.783581
21
312.852289
0
LINE
8
annotation
62
1
39
211
10
395.783581
20
312.852289
11
395.783581
21
312.852289
0
LINE
8
annotation
62
1
39
211
10
395.783581
20
312.852289
11
395.873043
21
312.860316
0
LINE
8
annotation
62
1
39
211
10
395.873043
20
312.860316
11
395.957224
21
312.883458
0
LINE
8
annotation
62
1
39
211
10
395.957224
20
312.883458
11
396.034723
21
312.920305
0
LINE
8
annotation
62
1
39
211
10
396.034723
20
312.920305
11
396.104141
21
312.969447
0
LINE
8
annotation
62
1
39
211
10
396.104141
20
312.969447
11
396.164076
21
313.029476
0
LINE
8
annotation
62
1
39
211
10
396.164076
20
313.029476
11
396.213130
21
313.098983
0
LINE
8
annotation
62
1
39
211
10
396.213130
20
313.098983
11
396.249902
21
313.176556
0
LINE
8
annotation
62
1
39
211
10
396.249902
20
313.176556
11
396.272992
21
313.260789
0
LINE
8
annotation
62
1
39
211
10
396.272992
20
313.260789
11
396.281000
21
313.350270
0
LINE
8
annotation
62
1
39
211
10
396.281000
20
313.350270
11
396.281000
21
313.598066
0
LINE
8
annotation
62
1
39
211
10
396.281000
20
313.598066
11
396.281000
21
313.598066
0
LINE
8
annotation
62
1
39
211
10
396.281000
20
313.598066
11
396.272992
21
313.687504
0
LINE
8
annotation
62
1
39
211
10
396.272992
20
313.687504
11
396.249902
21
313.771620
0
LINE
8
annotation
62
1
39
211
10
396.249902
20
313.771620
11
396.213130
21
313.849026
0
LINE
8
annotation
62
1
39
211
10
396.213130
20
313.849026
11
396.164076
21
313.918332
0
LINE
8
annotation
62
1
39
211
10
396.164076
20
313.918332
11
396.104141
21
313.978152
0
LINE
8
annotation
62
1
39
211
10
396.104141
20
313.978152
11
396.034723
21
314.027095
0
LINE
8
annotation
62
1
39
211
10
396.034723
20
314.027095
11
395.957224
21
314.063773
0
LINE
8
annotation
62
1
39
211
10
395.957224
20
314.063773
11
395.873043
21
314.086799
0
LINE
8
annotation
62
1
39
211
10
395.873043
20
314.086799
11
395.783581
21
314.094783
0
LINE
8
annotation
62
1
39
211
10
395.783581
20
314.094783
11
395.286163
21
314.094783
0
LINE
8
annotation
62
1
39
211
10
395.223862
20
312.572289
11
396.343862
21
312.572289
0
LINE
8
annotation
62
1
39
211
10
395.133119
20
320.320087
11
395.631100
21
322.560087
0
LINE
8
annotation
62
1
39
211
10
395.631100
20
322.560087
11
394.634998
21
322.560087
0
LINE
8
annotation
62
1
39
211
10
395.631100
20
321.562581
11
395.133119
21
321.562581
0
LINE
8
annotation
62
1
39
211
10
394.381847
20
327.667897
11
394.381847
21
327.667897
0
LINE
8
annotation
62
1
39
211
10
394.381847
20
327.667897
11
394.389878
21
327.578459
0
LINE
8
annotation
62
1
39
211
10
394.389878
20
327.578459
11
394.413026
21
327.494343
0
LINE
8
annotation
62
1
39
211
10
394.413026
20
327.494343
11
394.449873
21
327.416937
0
LINE
8
annotation
62
1
39
211
10
394.449873
20
327.416937
11
394.499002
21
327.347631
0
LINE
8
annotation
62
1
39
211
10
394.499002
20
327.347631
11
394.558996
21
327.287811
0
LINE
8
annotation
62
1
39
211
10
394.558996
20
327.287811
11
394.628437
21
327.238868
0
LINE
8
annotation
62
1
39
211
10
394.628437
20
327.238868
11
394.705907
21
327.202190
0
LINE
8
annotation
62
1
39
211
10
394.705907
20
327.202190
11
394.789989
21
327.179164
0
LINE
8
annotation
62
1
39
211
10
394.789989
20
327.179164
11
394.879266
21
327.171181
0
LINE
8
annotation
62
1
39
211
10
394.879266
20
327.171181
11
394.879266
21
327.171181
0
LINE
8
annotation
62
1
39
211
10
394.879266
20
327.171181
11
394.968543
21
327.179164
0
LINE
8
annotation
62
1
39
211
10
394.968543
20
327.179164
11
395.052625
21
327.202190
0
LINE
8
annotation
62
1
39
211
10
395.052625
20
327.202190
11
395.130096
21
327.238868
0
LINE
8
annotation
62
1
39
211
10
395.130096
20
327.238868
11
395.199536
21
327.287811
0
LINE
8
annotation
62
1
39
211
10
395.199536
20
327.287811
11
395.259530
21
327.347631
0
LINE
8
annotation
62
1
39
211
10
395.259530
20
327.347631
11
395.308659
21
327.416937
0
LINE
8
annotation
62
1
39
211
10
395.308659
20
327.416937
11
395.345506
21
327.494343
0
LINE
8
annotation
62
1
39
211
10
395.345506
20
327.494343
11
395.368654
21
327.578459
0
LINE
8
annotation
62
1
39
211
10
395.368654
20
327.578459
11
395.376685
21
327.667897
0
LINE
8
annotation
62
1
39
211
10
395.376685
20
327.667897
11
395.376685
21
327.915693
0
LINE
8
annotation
62
1
39
211
10
395.376685
20
327.915693
11
395.376685
21
327.915693
0
LINE
8
annotation
62
1
39
211
10
395.376685
20
327.915693
11
395.368659
21
328.005175
0
LINE
8
annotation
62
1
39
211
10
395.368659
20
328.005175
11
395.345522
21
328.089407
0
LINE
8
annotation
62
1
39
211
10
395.345522
20
328.089407
11
395.308690
21
328.166981
0
LINE
8
annotation
62
1
39
211
10
395.308690
20
328.166981
11
395.259576
21
328.236487
0
LINE
8
annotation
62
1
39
211
10
395.259576
20
328.236487
11
395.199594
21
328.296516
0
LINE
8
annotation
62
1
39
211
10
395.199594
20
328.296516
11
395.130158
21
328.345659
0
LINE
8
annotation
62
1
39
211
10
395.130158
20
328.345659
11
395.052682
21
328.382505
0
LINE
8
annotation
62
1
39
211
10
395.052682
20
328.382505
11
394.968580
21
328.405647
0
LINE
8
annotation
62
1
39
211
10
394.968580
20
328.405647
11
394.879266
21
328.413674
0
LINE
8
annotation
62
1
39
211
10
394.879266
20
328.413674
11
394.879266
21
328.413674
0
LINE
8
annotation
62
1
39
211
10
394.879266
20
328.413674
11
394.789952
21
328.405642
0
LINE
8
annotation
62
1
39
211
10
394.789952
20
328.405642
11
394.705850
21
328.382489
0
LINE
8
annotation
62
1
39
211
10
394.705850
20
328.382489
11
394.628374
21
328.345627
0
LINE
8
annotation
62
1
39
211
10
394.628374
20
328.345627
11
394.558938
21
328.296470
0
LINE
8
annotation
62
1
39
211
10
394.558938
20
328.296470
11
394.498956
21
328.236429
0
LINE
8
annotation
62
1
39
211
10
394.498956
20
328.236429
11
394.449842
21
328.166918
0
LINE
8
annotation
62
1
39
211
10
394.449842
20
328.166918
11
394.413010
21
328.089350
0
LINE
8
annotation
62
1
39
211
10
394.413010
20
328.089350
11
394.389874
21
328.005138
0
LINE
8
annotation
62
1
39
211
10
394.389874
20
328.005138
11
394.381847
21
327.915693
0
LINE
8
annotation
62
1
39
211
10
394.381847
20
327.915693
11
394.381847
21
327.667897
0
LINE
8
annotation
62
1
39
211
10
395.376685
20
328.911795
11
395.376685
21
328.911795
0
LINE
8
annotation
62
1
39
211
10
395.376685
20
328.911795
11
395.368659
21
329.000863
0
LINE
8
annotation
62
1
39
211
10
395.368659
20
329.000863
11
395.345522
21
329.084783
0
LINE
8
annotation
62
1
39
211
10
395.345522
20
329.084783
11
395.308690
21
329.162130
0
LINE
8
annotation
62
1
39
211
10
395.308690
20
329.162130
11
395.259576
21
329.231483
0
LINE
8
annotation
62
1
39
211
10
395.259576
20
329.231483
11
395.199594
21
329.291418
0
LINE
8
annotation
62
1
39
211
10
395.199594
20
329.291418
11
395.130158
21
329.340512
0
LINE
8
annotation
62
1
39
211
10
395.130158
20
329.340512
11
395.052682
21
329.377341
0
LINE
8
annotation
62
1
39
211
10
395.052682
20
329.377341
11
394.968580
21
329.400482
0
LINE
8
annotation
62
1
39
211
10
394.968580
20
329.400482
11
394.879266
21
329.408512
0
LINE
8
annotation
62
1
39
211
10
394.879266
20
329.408512
11
394.879266
21
329.408512
0
LINE
8
annotation
62
1
39
211
10
394.879266
20
329.408512
11
394.789952
21
329.400482
0
LINE
8
annotation
62
1
39
211
10
394.789952
20
329.400482
11
394.705850
21
329.377341
0
LINE
8
annotation
62
1
39
211
10
394.705850
20
329.377341
11
394.628374
21
329.340512
0
LINE
8
annotation
62
1
39
211
10
394.628374
20
329.340512
11
394.558938
21
329.291418
0
LINE
8
annotation
62
1
39
211
10
394.558938
20
329.291418
11
394.498956
21
329.231483
0
LINE
8
annotation
62
1
39
211
10
394.498956
20
329.231483
11
394.449842
21
329.162130
0
LINE
8
annotation
62
1
39
211
10
394.449842
20
329.162130
11
394.413010
21
329.084783
0
LINE
8
annotation
62
1
39
211
10
394.413010
20
329.084783
11
394.389874
21
329.000863
0
LINE
8
annotation
62
1
39
211
10
394.389874
20
329.000863
11
394.381847
21
328.911795
0
LINE
8
annotation
62
1
39
211
10
394.381847
20
328.911795
11
394.381847
21
328.911795
0
LINE
8
annotation
62
1
39
211
10
394.381847
20
328.911795
11
394.389878
21
328.822309
0
LINE
8
annotation
62
1
39
211
10
394.389878
20
328.822309
11
394.413026
21
328.738064
0
LINE
8
annotation
62
1
39
211
10
394.413026
20
328.738064
11
394.449873
21
328.660471
0
LINE
8
annotation
62
1
39
211
10
394.449873
20
328.660471
11
394.499002
21
328.590943
0
LINE
8
annotation
62
1
39
211
10
394.499002
20
328.590943
11
394.558996
21
328.530891
0
LINE
8
annotation
62
1
39
211
10
394.558996
20
328.530891
11
394.628437
21
328.481726
0
LINE
8
annotation
62
1
39
211
10
394.628437
20
328.481726
11
394.705907
21
328.444860
0
LINE
8
annotation
62
1
39
211
10
394.705907
20
328.444860
11
394.789989
21
328.421706
0
LINE
8
annotation
62
1
39
211
10
394.789989
20
328.421706
11
394.879266
21
328.413674
0
LINE
8
annotation
62
1
39
211
10
394.879266
20
328.413674
11
394.879266
21
328.413674
0
LINE
8
annotation
62
1
39
211
10
394.879266
20
328.413674
11
394.968543
21
328.421706
0
LINE
8
annotation
62
1
39
211
10
394.968543
20
328.421706
11
395.052625
21
328.444860
0
LINE
8
annotation
62
1
39
211
10
395.052625
20
328.444860
11
395.130096
21
328.481726
0
LINE
8
annotation
62
1
39
211
10
395.130096
20
328.481726
11
395.199536
21
328.530891
0
LINE
8
annotation
62
1
39
211
10
395.199536
20
328.530891
11
395.259530
21
328.590943
0
LINE
8
annotation
62
1
39
211
10
395.259530
20
328.590943
11
395.308659
21
328.660471
0
LINE
8
annotation
62
1
39
211
10
395.308659
20
328.660471
11
395.345506
21
328.738064
0
LINE
8
annotation
62
1
39
211
10
395.345506
20
328.738064
11
395.368654
21
328.822309
0
LINE
8
annotation
62
1
39
211
10
395.368654
20
328.822309
11
395.376685
21
328.911795
0
LINE
8
annotation
62
1
39
211
10
372.387782
20
336.084096
11
372.387782
21
336.084096
0
LINE
8
annotation
62
1
39
211
10
372.387782
20
336.084096
11
372.530029
21
336.137104
0
LINE
8
annotation
62
1
39
211
10
372.530029
20
336.137104
11
372.660594
21
336.208754
0
LINE
8
annotation
62
1
39
211
10
372.660594
20
336.208754
11
372.778128
21
336.297221
0
LINE
8
annotation
62
1
39
211
10
372.778128
20
336.297221
11
372.881282
21
336.400678
0
LINE
8
annotation
62
1
39
211
10
372.881282
20
336.400678
11
372.968706
21
336.517301
0
LINE
8
annotation
62
1
39
211
10
372.968706
20
336.517301
11
373.039051
21
336.645264
0
LINE
8
annotation
62
1
39
211
10
373.039051
20
336.645264
11
373.090968
21
336.782740
0
LINE
8
annotation
62
1
39
211
10
373.090968
20
336.782740
11
373.123108
21
336.927905
0
LINE
8
annotation
62
1
39
211
10
373.123108
20
336.927905
11
373.134121
21
337.078933
0
LINE
8
annotation
62
1
39
211
10
373.134121
20
337.078933
11
373.134121
21
337.825975
0
LINE
8
annotation
62
1
39
211
10
373.134121
20
337.825975
11
373.134121
21
337.825975
0
LINE
8
annotation
62
1
39
211
10
373.134121
20
337.825975
11
373.126113
21
337.915461
0
LINE
8
annotation
62
1
39
211
10
373.126113
20
337.915461
11
373.103023
21
337.999706
0
LINE
8
annotation
62
1
39
211
10
373.103023
20
337.999706
11
373.066251
21
338.077298
0
LINE
8
annotation
62
1
39
211
10
373.066251
20
338.077298
11
373.017197
21
338.146827
0
LINE
8
annotation
62
1
39
211
10
373.017197
20
338.146827
11
372.957261
21
338.206879
0
LINE
8
annotation
62
1
39
211
10
372.957261
20
338.206879
11
372.887844
21
338.256044
0
LINE
8
annotation
62
1
39
211
10
372.887844
20
338.256044
11
372.810345
21
338.292909
0
LINE
8
annotation
62
1
39
211
10
372.810345
20
338.292909
11
372.726164
21
338.316064
0
LINE
8
annotation
62
1
39
211
10
372.726164
20
338.316064
11
372.636702
21
338.324096
0
LINE
8
annotation
62
1
39
211
10
372.636702
20
338.324096
11
372.636702
21
338.324096
0
LINE
8
annotation
62
1
39
211
10
372.636702
20
338.324096
11
372.547425
21
338.316064
0
LINE
8
annotation
62
1
39
211
10
372.547425
20
338.316064
11
372.463343
21
338.292909
0
LINE
8
annotation
62
1
39
211
10
372.463343
20
338.292909
11
372.385873
21
338.256044
0
LINE
8
annotation
62
1
39
211
10
372.385873
20
338.256044
11
372.316432
21
338.206879
0
LINE
8
annotation
62
1
39
211
10
372.316432
20
338.206879
11
372.256439
21
338.146827
0
LINE
8
annotation
62
1
39
211
10
372.256439
20
338.146827
11
372.207309
21
338.077298
0
LINE
8
annotation
62
1
39
211
10
372.207309
20
338.077298
11
372.170462
21
337.999706
0
LINE
8
annotation
62
1
39
211
10
372.170462
20
337.999706
11
372.147314
21
337.915461
0
LINE
8
annotation
62
1
39
211
10
372.147314
20
337.915461
11
372.139284
21
337.825975
0
LINE
8
annotation
62
1
39
211
10
372.139284
20
337.825975
11
372.139284
21
337.576914
0
LINE
8
annotation
62
1
39
211
10
372.139284
20
337.576914
11
372.139284
21
337.576914
0
LINE
8
annotation
62
1
39
211
10
372.139284
20
337.576914
11
372.147314
21
337.487433
0
LINE
8
annotation
62
1
39
211
10
372.147314
20
337.487433
11
372.170462
21
337.403200
0
LINE
8
annotation
62
1
39
211
10
372.170462
20
337.403200
11
372.207309
21
337.325627
0
LINE
8
annotation
62
1
39
211
10
372.207309
20
337.325627
11
372.256439
21
337.256120
0
LINE
8
annotation
62
1
39
211
10
372.256439
20
337.256120
11
372.316432
21
337.196091
0
LINE
8
annotation
62
1
39
211
10
372.316432
20
337.196091
11
372.385873
21
337.146949
0
LINE
8
annotation
62
1
39
211
10
372.385873
20
337.146949
11
372.463343
21
337.110102
0
LINE
8
annotation
62
1
39
211
10
372.463343
20
337.110102
11
372.547425
21
337.086960
0
LINE
8
annotation
62
1
39
211
10
372.547425
20
337.086960
11
372.636702
21
337.078933
0
LINE
8
annotation
62
1
39
211
10
372.636702
20
337.078933
11
373.134121
21
337.078933
0
LINE
8
annotation
62
1
39
211
10
372.077124
20
335.804096
11
373.197124
21
335.804096
0
LINE
8
annotation
62
1
39
211
10
402.603331
20
315.345511
11
399.755255
21
311.226030
0
LINE
8
annotation
62
1
39
211
10
399.755255
20
311.226030
11
396.906644
21
315.345511
0
LINE
8
annotation
62
1
39
211
10
399.755255
20
311.557538
11
399.755255
21
306.805033
0
LINE
8
annotation
62
1
39
211
10
410.476375
20
311.075272
11
405.806880
21
311.075272
0
LINE
8
annotation
62
1
39
211
10
417.471488
20
306.805231
11
413.678695
21
306.805231
0
LINE
8
annotation
62
1
39
211
10
413.678695
20
306.805231
11
417.183360
21
312.447292
0
LINE
8
annotation
62
1
39
211
10
417.183360
20
312.447292
11
417.183360
21
312.447292
0
LINE
8
annotation
62
1
39
211
10
417.183360
20
312.447292
11
417.187550
21
312.452476
0
LINE
8
annotation
62
1
39
211
10
417.187550
20
312.452476
11
417.191567
21
312.457705
0
LINE
8
annotation
62
1
39
211
10
417.191567
20
312.457705
11
417.195440
21
312.463021
0
LINE
8
annotation
62
1
39
211
10
417.195440
20
312.463021
11
417.199193
21
312.468470
0
LINE
8
annotation
62
1
39
211
10
417.199193
20
312.468470
11
417.202854
21
312.474095
0
LINE
8
annotation
62
1
39
211
10
417.202854
20
312.474095
11
417.206448
21
312.479941
0
LINE
8
annotation
62
1
39
211
10
417.206448
20
312.479941
11
417.210003
21
312.486051
0
LINE
8
annotation
62
1
39
211
10
417.210003
20
312.486051
11
417.213545
21
312.492469
0
LINE
8
annotation
62
1
39
211
10
417.213545
20
312.492469
11
417.217100
21
312.499240
0
LINE
8
annotation
62
1
39
211
10
417.217100
20
312.499240
11
417.217100
21
312.499240
0
LINE
8
annotation
62
1
39
211
10
417.217100
20
312.499240
11
417.361807
21
312.809938
0
LINE
8
annotation
62
1
39
211
10
417.361807
20
312.809938
11
417.446342
21
313.132004
0
LINE
8
annotation
62
1
39
211
10
417.446342
20
313.132004
11
417.472777
21
313.458160
0
LINE
8
annotation
62
1
39
211
10
417.472777
20
313.458160
11
417.443184
21
313.781129
0
LINE
8
annotation
62
1
39
211
10
417.443184
20
313.781129
11
417.359635
21
314.093634
0
LINE
8
annotation
62
1
39
211
10
417.359635
20
314.093634
11
417.224201
21
314.388397
0
LINE
8
annotation
62
1
39
211
10
417.224201
20
314.388397
11
417.038954
21
314.658141
0
LINE
8
annotation
62
1
39
211
10
417.038954
20
314.658141
11
416.805965
21
314.895589
0
LINE
8
annotation
62
1
39
211
10
416.805965
20
314.895589
11
416.527306
21
315.093464
0
LINE
8
annotation
62
1
39
211
10
416.527306
20
315.093464
11
416.527306
21
315.093464
0
LINE
8
annotation
62
1
39
211
10
416.527306
20
315.093464
11
416.215745
21
315.236114
0
LINE
8
annotation
62
1
39
211
10
416.215745
20
315.236114
11
415.893186
21
315.319347
0
LINE
8
annotation
62
1
39
211
10
415.893186
20
315.319347
11
415.566840
21
315.345035
0
LINE
8
annotation
62
1
39
211
10
415.566840
20
315.345035
11
415.243919
21
315.315052
0
LINE
8
annotation
62
1
39
211
10
415.243919
20
315.315052
11
414.931635
21
315.231271
0
LINE
8
annotation
62
1
39
211
10
414.931635
20
315.231271
11
414.637198
21
315.095566
0
LINE
8
annotation
62
1
39
211
10
414.637198
20
315.095566
11
414.367819
21
314.909810
0
LINE
8
annotation
62
1
39
211
10
414.367819
20
314.909810
11
414.130711
21
314.675876
0
LINE
8
annotation
62
1
39
211
10
414.130711
20
314.675876
11
413.933083
21
314.395637
0
LINE
8
annotation
62
1
39
211
10
413.933083
20
314.395637
11
413.684051
21
313.917923
0
LINE
8
frame
62
5
39
2
10
0.000000
20
0.000000
11
560.000000
21
0.000000
0
LINE
8
frame
62
5
39
2
10
560.000000
20
0.000000
11
560.000000
21
480.000000
0
LINE
8
frame
62
5
39
2
10
560.000000
20
480.000000
11
0.000000
21
480.000000
0
LINE
8
frame
62
5
39
2
10
0.000000
20
480.000000
11
0.000000
21
0.000000
0
ENDSEC
0
EOF
