0
SECTION
2
HEADER
9
$ACADVER
1
AC1009
0
ENDSEC
0
SECTION
2
TABLES
0
TABLE
2
VPORT
70
1
0
VPORT
2
ACTIVE
70
0
10
0.0
20
0.0
11
0.0
21
0.0
12
0.0
22
0.0
13
0.0
23
0.0
14
0.0
24
0.0
15
0.0
25
0.0
16
0.0
26
0.0
36
0.0
17
0.0
27
0.0
37
0.0
40
0.0
41
0.0
42
0.0
43
0.0
44
0.0
50
0.0
51
0.0
71
0
72
1000
73
1
74
3
75
0
76
0
77
0
78
0
0
ENDTAB
0
ENDSEC
0
SECTION
2
ENTITIES
0
LINE
8
hole
62
5
39
2
10
21.811748
20
34.637550
11
21.787695
21
34.631444
0
LINE
8
hole
62
5
39
2
10
21.787695
20
34.631444
11
21.799038
21
34.642805
0
LINE
8
hole
62
5
39
2
10
21.799038
20
34.642805
11
21.811748
21
34.637550
0
LINE
8
hole
62
5
39
2
10
13.874084
20
7.305117
11
13.918814
21
7.275352
0
LINE
8
hole
62
5
39
2
10
13.918814
20
7.275352
11
13.813153
21
7.319695
0
LINE
8
hole
62
5
39
2
10
13.813153
20
7.319695
11
13.789716
21
7.324394
0
LINE
8
hole
62
5
39
2
10
13.789716
20
7.324394
11
13.793619
21
7.332190
0
LINE
8
hole
62
5
39
2
10
13.793619
20
7.332190
11
13.873005
21
7.305836
0
LINE
8
hole
62
5
39
2
10
13.873005
20
7.305836
11
13.874084
21
7.305117
0
LINE
8
hole
62
5
39
2
10
26.271691
20
34.907642
11
26.238860
21
34.843158
0
LINE
8
hole
62
5
39
2
10
26.238860
20
34.843158
11
26.107457
21
34.707939
0
LINE
8
hole
62
5
39
2
10
26.107457
20
34.707939
11
26.103050
21
34.698446
0
LINE
8
hole
62
5
39
2
10
26.103050
20
34.698446
11
26.100009
21
34.691201
0
LINE
8
hole
62
5
39
2
10
26.100009
20
34.691201
11
26.099202
21
34.689901
0
LINE
8
hole
62
5
39
2
10
26.099202
20
34.689901
11
26.123883
21
34.520101
0
LINE
8
hole
62
5
39
2
10
26.123883
20
34.520101
11
26.034523
21
34.450025
0
LINE
8
hole
62
5
39
2
10
26.034523
20
34.450025
11
26.019109
21
34.438273
0
LINE
8
hole
62
5
39
2
10
26.019109
20
34.438273
11
25.951456
21
34.387101
0
LINE
8
hole
62
5
39
2
10
25.951456
20
34.387101
11
25.942380
21
34.380423
0
LINE
8
hole
62
5
39
2
10
25.942380
20
34.380423
11
25.924726
21
34.325382
0
LINE
8
hole
62
5
39
2
10
25.924726
20
34.325382
11
25.914906
21
34.299686
0
LINE
8
hole
62
5
39
2
10
25.914906
20
34.299686
11
25.908694
21
34.282474
0
LINE
8
hole
62
5
39
2
10
25.908694
20
34.282474
11
25.864296
21
34.314318
0
LINE
8
hole
62
5
39
2
10
25.864296
20
34.314318
11
25.873932
21
34.323232
0
LINE
8
hole
62
5
39
2
10
25.873932
20
34.323232
11
25.870047
21
34.355361
0
LINE
8
hole
62
5
39
2
10
25.870047
20
34.355361
11
25.862706
21
34.401670
0
LINE
8
hole
62
5
39
2
10
25.862706
20
34.401670
11
25.893831
21
34.667497
0
LINE
8
hole
62
5
39
2
10
25.893831
20
34.667497
11
25.902723
21
34.741270
0
LINE
8
hole
62
5
39
2
10
25.902723
20
34.741270
11
25.908827
21
34.805613
0
LINE
8
hole
62
5
39
2
10
25.908827
20
34.805613
11
25.910989
21
34.807367
0
LINE
8
hole
62
5
39
2
10
25.910989
20
34.807367
11
25.945032
21
34.830000
0
LINE
8
hole
62
5
39
2
10
25.945032
20
34.830000
11
25.945916
21
34.830614
0
LINE
8
hole
62
5
39
2
10
25.945916
20
34.830614
11
26.082382
21
34.862882
0
LINE
8
hole
62
5
39
2
10
26.082382
20
34.862882
11
26.138465
21
34.876200
0
LINE
8
hole
62
5
39
2
10
26.138465
20
34.876200
11
26.147916
21
34.878287
0
LINE
8
hole
62
5
39
2
10
26.147916
20
34.878287
11
26.165860
21
34.882347
0
LINE
8
hole
62
5
39
2
10
26.165860
20
34.882347
11
26.271691
21
34.907642
0
LINE
8
hole
62
5
39
2
10
26.900912
20
34.794772
11
26.915024
21
34.788445
0
LINE
8
hole
62
5
39
2
10
26.915024
20
34.788445
11
26.927976
21
34.773341
0
LINE
8
hole
62
5
39
2
10
26.927976
20
34.773341
11
26.937400
21
34.762275
0
LINE
8
hole
62
5
39
2
10
26.937400
20
34.762275
11
26.948027
21
34.750282
0
LINE
8
hole
62
5
39
2
10
26.948027
20
34.750282
11
26.970990
21
34.723392
0
LINE
8
hole
62
5
39
2
10
26.970990
20
34.723392
11
27.001638
21
34.677984
0
LINE
8
hole
62
5
39
2
10
27.001638
20
34.677984
11
27.031340
21
34.634052
0
LINE
8
hole
62
5
39
2
10
27.031340
20
34.634052
11
27.135870
21
34.479901
0
LINE
8
hole
62
5
39
2
10
27.135870
20
34.479901
11
27.193954
21
34.394493
0
LINE
8
hole
62
5
39
2
10
27.193954
20
34.394493
11
27.188889
21
34.384334
0
LINE
8
hole
62
5
39
2
10
27.188889
20
34.384334
11
27.081102
21
34.227652
0
LINE
8
hole
62
5
39
2
10
27.081102
20
34.227652
11
26.975544
21
34.376229
0
LINE
8
hole
62
5
39
2
10
26.975544
20
34.376229
11
26.955463
21
34.410639
0
LINE
8
hole
62
5
39
2
10
26.955463
20
34.410639
11
26.825022
21
34.380449
0
LINE
8
hole
62
5
39
2
10
26.825022
20
34.380449
11
26.816414
21
34.373324
0
LINE
8
hole
62
5
39
2
10
26.816414
20
34.373324
11
26.799939
21
34.358891
0
LINE
8
hole
62
5
39
2
10
26.799939
20
34.358891
11
26.738996
21
34.446488
0
LINE
8
hole
62
5
39
2
10
26.738996
20
34.446488
11
26.702981
21
34.497821
0
LINE
8
hole
62
5
39
2
10
26.702981
20
34.497821
11
26.629689
21
34.524786
0
LINE
8
hole
62
5
39
2
10
26.629689
20
34.524786
11
26.604484
21
34.530811
0
LINE
8
hole
62
5
39
2
10
26.604484
20
34.530811
11
26.597831
21
34.534748
0
LINE
8
hole
62
5
39
2
10
26.597831
20
34.534748
11
26.629464
21
34.565252
0
LINE
8
hole
62
5
39
2
10
26.629464
20
34.565252
11
26.668361
21
34.604275
0
LINE
8
hole
62
5
39
2
10
26.668361
20
34.604275
11
26.686847
21
34.608432
0
LINE
8
hole
62
5
39
2
10
26.686847
20
34.608432
11
26.717345
21
34.616263
0
LINE
8
hole
62
5
39
2
10
26.717345
20
34.616263
11
26.730116
21
34.627985
0
LINE
8
hole
62
5
39
2
10
26.730116
20
34.627985
11
26.841015
21
34.723731
0
LINE
8
hole
62
5
39
2
10
26.841015
20
34.723731
11
26.857659
21
34.738175
0
LINE
8
hole
62
5
39
2
10
26.857659
20
34.738175
11
26.859336
21
34.741130
0
LINE
8
hole
62
5
39
2
10
26.859336
20
34.741130
11
26.885076
21
34.789129
0
LINE
8
hole
62
5
39
2
10
26.885076
20
34.789129
11
26.900912
21
34.794772
0
LINE
8
hole
62
5
39
2
10
26.158309
20
35.604017
11
26.158027
21
35.581808
0
LINE
8
hole
62
5
39
2
10
26.158027
20
35.581808
11
26.158554
21
35.568513
0
LINE
8
hole
62
5
39
2
10
26.158554
20
35.568513
11
26.133191
21
35.567622
0
LINE
8
hole
62
5
39
2
10
26.133191
20
35.567622
11
26.132569
21
35.567605
0
LINE
8
hole
62
5
39
2
10
26.132569
20
35.567605
11
26.096609
21
35.567443
0
LINE
8
hole
62
5
39
2
10
26.096609
20
35.567443
11
25.975746
21
35.564534
0
LINE
8
hole
62
5
39
2
10
25.975746
20
35.564534
11
25.899348
21
35.566057
0
LINE
8
hole
62
5
39
2
10
25.899348
20
35.566057
11
25.854704
21
35.546582
0
LINE
8
hole
62
5
39
2
10
25.854704
20
35.546582
11
25.848283
21
35.537898
0
LINE
8
hole
62
5
39
2
10
25.848283
20
35.537898
11
25.842999
21
35.535505
0
LINE
8
hole
62
5
39
2
10
25.842999
20
35.535505
11
25.814501
21
35.522922
0
LINE
8
hole
62
5
39
2
10
25.814501
20
35.522922
11
25.733721
21
35.470501
0
LINE
8
hole
62
5
39
2
10
25.733721
20
35.470501
11
25.507144
21
35.325818
0
LINE
8
hole
62
5
39
2
10
25.507144
20
35.325818
11
25.391150
21
35.248938
0
LINE
8
hole
62
5
39
2
10
25.391150
20
35.248938
11
25.362779
21
35.230131
0
LINE
8
hole
62
5
39
2
10
25.362779
20
35.230131
11
25.244818
21
35.106541
0
LINE
8
hole
62
5
39
2
10
25.244818
20
35.106541
11
25.128047
21
34.979055
0
LINE
8
hole
62
5
39
2
10
25.128047
20
34.979055
11
25.112520
21
34.962272
0
LINE
8
hole
62
5
39
2
10
25.112520
20
34.962272
11
25.037824
21
34.817899
0
LINE
8
hole
62
5
39
2
10
25.037824
20
34.817899
11
25.020724
21
34.784221
0
LINE
8
hole
62
5
39
2
10
25.020724
20
34.784221
11
24.983415
21
34.752092
0
LINE
8
hole
62
5
39
2
10
24.983415
20
34.752092
11
24.814842
21
34.597396
0
LINE
8
hole
62
5
39
2
10
24.814842
20
34.597396
11
24.584999
21
34.391022
0
LINE
8
hole
62
5
39
2
10
24.584999
20
34.391022
11
23.487758
21
33.937415
0
LINE
8
hole
62
5
39
2
10
23.487758
20
33.937415
11
23.008485
21
33.451735
0
LINE
8
hole
62
5
39
2
10
23.008485
20
33.451735
11
22.560189
21
33.309425
0
LINE
8
hole
62
5
39
2
10
22.560189
20
33.309425
11
21.794452
21
32.964427
0
LINE
8
hole
62
5
39
2
10
21.794452
20
32.964427
11
21.658648
21
33.974957
0
LINE
8
hole
62
5
39
2
10
21.658648
20
33.974957
11
21.647670
21
34.048786
0
LINE
8
hole
62
5
39
2
10
21.647670
20
34.048786
11
21.624960
21
34.201562
0
LINE
8
hole
62
5
39
2
10
21.624960
20
34.201562
11
21.758613
21
34.574478
0
LINE
8
hole
62
5
39
2
10
21.758613
20
34.574478
11
21.761385
21
34.581304
0
LINE
8
hole
62
5
39
2
10
21.761385
20
34.581304
11
21.775918
21
34.595087
0
LINE
8
hole
62
5
39
2
10
21.775918
20
34.595087
11
21.802029
21
34.613999
0
LINE
8
hole
62
5
39
2
10
21.802029
20
34.613999
11
21.983536
21
34.344636
0
LINE
8
hole
62
5
39
2
10
21.983536
20
34.344636
11
22.049090
21
34.383969
0
LINE
8
hole
62
5
39
2
10
22.049090
20
34.383969
11
22.049319
21
34.384058
0
LINE
8
hole
62
5
39
2
10
22.049319
20
34.384058
11
22.801370
21
34.335058
0
LINE
8
hole
62
5
39
2
10
22.801370
20
34.335058
11
22.801454
21
34.335015
0
LINE
8
hole
62
5
39
2
10
22.801454
20
34.335015
11
22.801573
21
34.334955
0
LINE
8
hole
62
5
39
2
10
22.801573
20
34.334955
11
22.833934
21
34.332572
0
LINE
8
hole
62
5
39
2
10
22.833934
20
34.332572
11
22.856968
21
34.329818
0
LINE
8
hole
62
5
39
2
10
22.856968
20
34.329818
11
22.941554
21
34.261996
0
LINE
8
hole
62
5
39
2
10
22.941554
20
34.261996
11
23.073881
21
34.158765
0
LINE
8
hole
62
5
39
2
10
23.073881
20
34.158765
11
23.078152
21
34.155148
0
LINE
8
hole
62
5
39
2
10
23.078152
20
34.155148
11
23.078680
21
34.155304
0
LINE
8
hole
62
5
39
2
10
23.078680
20
34.155304
11
23.157196
21
34.091935
0
LINE
8
hole
62
5
39
2
10
23.157196
20
34.091935
11
23.239391
21
34.025513
0
LINE
8
hole
62
5
39
2
10
23.239391
20
34.025513
11
23.266572
21
34.037355
0
LINE
8
hole
62
5
39
2
10
23.266572
20
34.037355
11
23.314918
21
34.048723
0
LINE
8
hole
62
5
39
2
10
23.314918
20
34.048723
11
23.354261
21
34.074902
0
LINE
8
hole
62
5
39
2
10
23.354261
20
34.074902
11
23.497001
21
34.208357
0
LINE
8
hole
62
5
39
2
10
23.497001
20
34.208357
11
24.555388
21
34.726304
0
LINE
8
hole
62
5
39
2
10
24.555388
20
34.726304
11
24.804412
21
34.970434
0
LINE
8
hole
62
5
39
2
10
24.804412
20
34.970434
11
25.244427
21
35.356857
0
LINE
8
hole
62
5
39
2
10
25.244427
20
35.356857
11
25.591993
21
35.586006
0
LINE
8
hole
62
5
39
2
10
25.591993
20
35.586006
11
25.889247
21
35.603747
0
LINE
8
hole
62
5
39
2
10
25.889247
20
35.603747
11
25.890750
21
35.604344
0
LINE
8
hole
62
5
39
2
10
25.890750
20
35.604344
11
25.898382
21
35.607365
0
LINE
8
hole
62
5
39
2
10
25.898382
20
35.607365
11
26.114817
21
35.626340
0
LINE
8
hole
62
5
39
2
10
26.114817
20
35.626340
11
26.144909
21
35.610784
0
LINE
8
hole
62
5
39
2
10
26.144909
20
35.610784
11
26.158309
21
35.604017
0
LINE
8
boundary
62
5
39
2
10
8.123301
20
1.814228
11
8.171051
21
1.840728
0
LINE
8
boundary
62
5
39
2
10
8.171051
20
1.840728
11
14.094602
21
5.128151
0
LINE
8
boundary
62
5
39
2
10
14.094602
20
5.128151
11
14.364780
21
5.219022
0
LINE
8
boundary
62
5
39
2
10
14.364780
20
5.219022
11
14.949153
21
5.471320
0
LINE
8
boundary
62
5
39
2
10
14.949153
20
5.471320
11
15.158958
21
5.734263
0
LINE
8
boundary
62
5
39
2
10
15.158958
20
5.734263
11
14.511952
21
5.771678
0
LINE
8
boundary
62
5
39
2
10
14.511952
20
5.771678
11
14.238582
21
7.087684
0
LINE
8
boundary
62
5
39
2
10
14.238582
20
7.087684
11
14.221034
21
7.173135
0
LINE
8
boundary
62
5
39
2
10
14.221034
20
7.173135
11
14.213773
21
7.206263
0
LINE
8
boundary
62
5
39
2
10
14.213773
20
7.206263
11
14.208602
21
7.229858
0
LINE
8
boundary
62
5
39
2
10
14.208602
20
7.229858
11
14.197763
21
7.284515
0
LINE
8
boundary
62
5
39
2
10
14.197763
20
7.284515
11
14.128732
21
7.247596
0
LINE
8
boundary
62
5
39
2
10
14.128732
20
7.247596
11
14.079273
21
7.221148
0
LINE
8
boundary
62
5
39
2
10
14.079273
20
7.221148
11
14.052834
21
7.229106
0
LINE
8
boundary
62
5
39
2
10
14.052834
20
7.229106
11
14.038907
21
7.230495
0
LINE
8
boundary
62
5
39
2
10
14.038907
20
7.230495
11
14.037408
21
7.229551
0
LINE
8
boundary
62
5
39
2
10
14.037408
20
7.229551
11
14.049168
21
7.221937
0
LINE
8
boundary
62
5
39
2
10
14.049168
20
7.221937
11
13.920887
21
7.153736
0
LINE
8
boundary
62
5
39
2
10
13.920887
20
7.153736
11
13.919252
21
7.152916
0
LINE
8
boundary
62
5
39
2
10
13.919252
20
7.152916
11
13.920006
21
7.154171
0
LINE
8
boundary
62
5
39
2
10
13.920006
20
7.154171
11
13.926990
21
7.178675
0
LINE
8
boundary
62
5
39
2
10
13.926990
20
7.178675
11
13.949849
21
7.210006
0
LINE
8
boundary
62
5
39
2
10
13.949849
20
7.210006
11
13.982465
21
7.255159
0
LINE
8
boundary
62
5
39
2
10
13.982465
20
7.255159
11
14.159237
21
7.521578
0
LINE
8
boundary
62
5
39
2
10
14.159237
20
7.521578
11
14.557530
21
8.118207
0
LINE
8
boundary
62
5
39
2
10
14.557530
20
8.118207
11
14.597129
21
8.181541
0
LINE
8
boundary
62
5
39
2
10
14.597129
20
8.181541
11
14.872848
21
8.959217
0
LINE
8
boundary
62
5
39
2
10
14.872848
20
8.959217
11
15.275894
21
9.774976
0
LINE
8
boundary
62
5
39
2
10
15.275894
20
9.774976
11
15.724539
21
10.418239
0
LINE
8
boundary
62
5
39
2
10
15.724539
20
10.418239
11
17.157025
21
11.439224
0
LINE
8
boundary
62
5
39
2
10
17.157025
20
11.439224
11
17.407160
21
11.658636
0
LINE
8
boundary
62
5
39
2
10
17.407160
20
11.658636
11
17.394630
21
11.685136
0
LINE
8
boundary
62
5
39
2
10
17.394630
20
11.685136
11
16.615207
21
11.685136
0
LINE
8
boundary
62
5
39
2
10
16.615207
20
11.685136
11
15.211153
21
10.686606
0
LINE
8
boundary
62
5
39
2
10
15.211153
20
10.686606
11
14.862280
21
10.183331
0
LINE
8
boundary
62
5
39
2
10
14.862280
20
10.183331
11
14.566538
21
9.575511
0
LINE
8
boundary
62
5
39
2
10
14.566538
20
9.575511
11
14.380843
21
8.984648
0
LINE
8
boundary
62
5
39
2
10
14.380843
20
8.984648
11
13.593838
21
7.551194
0
LINE
8
boundary
62
5
39
2
10
13.593838
20
7.551194
11
13.635967
21
7.501915
0
LINE
8
boundary
62
5
39
2
10
13.635967
20
7.501915
11
13.712294
21
7.408127
0
LINE
8
boundary
62
5
39
2
10
13.712294
20
7.408127
11
13.915922
21
7.156675
0
LINE
8
boundary
62
5
39
2
10
13.915922
20
7.156675
11
13.919979
21
7.151665
0
LINE
8
boundary
62
5
39
2
10
13.919979
20
7.151665
11
13.934174
21
7.125014
0
LINE
8
boundary
62
5
39
2
10
13.934174
20
7.125014
11
14.352926
21
5.670467
0
LINE
8
boundary
62
5
39
2
10
14.352926
20
5.670467
11
11.748996
21
4.218050
0
LINE
8
boundary
62
5
39
2
10
11.748996
20
4.218050
11
7.327210
21
1.814228
0
LINE
8
boundary
62
5
39
2
10
7.327210
20
1.814228
11
8.123301
21
1.814228
0
LINE
8
boundary
62
5
39
2
10
18.012628
20
12.189736
11
18.042839
21
12.216236
0
LINE
8
boundary
62
5
39
2
10
18.042839
20
12.216236
11
18.364272
21
12.498189
0
LINE
8
boundary
62
5
39
2
10
18.364272
20
12.498189
11
19.449819
21
13.576474
0
LINE
8
boundary
62
5
39
2
10
19.449819
20
13.576474
11
20.928141
21
15.052458
0
LINE
8
boundary
62
5
39
2
10
20.928141
20
15.052458
11
21.781709
21
15.918585
0
LINE
8
boundary
62
5
39
2
10
21.781709
20
15.918585
11
22.932115
21
17.447211
0
LINE
8
boundary
62
5
39
2
10
22.932115
20
17.447211
11
23.515415
21
18.281849
0
LINE
8
boundary
62
5
39
2
10
23.515415
20
18.281849
11
24.488899
21
19.659907
0
LINE
8
boundary
62
5
39
2
10
24.488899
20
19.659907
11
24.909784
21
20.259010
0
LINE
8
boundary
62
5
39
2
10
24.909784
20
20.259010
11
25.151251
21
20.827735
0
LINE
8
boundary
62
5
39
2
10
25.151251
20
20.827735
11
25.502702
21
21.614933
0
LINE
8
boundary
62
5
39
2
10
25.502702
20
21.614933
11
25.689468
21
22.034144
0
LINE
8
boundary
62
5
39
2
10
25.689468
20
22.034144
11
25.676938
21
22.060644
0
LINE
8
boundary
62
5
39
2
10
25.676938
20
22.060644
11
25.165454
21
22.060644
0
LINE
8
boundary
62
5
39
2
10
25.165454
20
22.060644
11
24.962176
21
21.604067
0
LINE
8
boundary
62
5
39
2
10
24.962176
20
21.604067
11
24.468475
21
20.506832
0
LINE
8
boundary
62
5
39
2
10
24.468475
20
20.506832
11
24.435329
21
20.460266
0
LINE
8
boundary
62
5
39
2
10
24.435329
20
20.460266
11
22.315189
21
17.481185
0
LINE
8
boundary
62
5
39
2
10
22.315189
20
17.481185
11
21.381240
21
16.243027
0
LINE
8
boundary
62
5
39
2
10
21.381240
20
16.243027
11
20.683928
21
15.536535
0
LINE
8
boundary
62
5
39
2
10
20.683928
20
15.536535
11
19.054452
21
13.923409
0
LINE
8
boundary
62
5
39
2
10
19.054452
20
13.923409
11
17.920177
21
12.804782
0
LINE
8
boundary
62
5
39
2
10
17.920177
20
12.804782
11
17.225400
21
12.189736
0
LINE
8
boundary
62
5
39
2
10
17.225400
20
12.189736
11
18.012628
21
12.189736
0
LINE
8
boundary
62
5
39
2
10
29.897090
20
35.636829
11
28.769647
21
35.562967
0
LINE
8
boundary
62
5
39
2
10
28.769647
20
35.562967
11
28.479742
21
35.610635
0
LINE
8
boundary
62
5
39
2
10
28.479742
20
35.610635
11
27.461476
21
35.618335
0
LINE
8
boundary
62
5
39
2
10
27.461476
20
35.618335
11
27.614754
21
35.920898
0
LINE
8
boundary
62
5
39
2
10
27.614754
20
35.920898
11
27.170463
21
36.082940
0
LINE
8
boundary
62
5
39
2
10
27.170463
20
36.082940
11
26.420449
21
36.302324
0
LINE
8
boundary
62
5
39
2
10
26.420449
20
36.302324
11
26.036569
21
36.460231
0
LINE
8
boundary
62
5
39
2
10
26.036569
20
36.460231
11
25.762645
21
36.449952
0
LINE
8
boundary
62
5
39
2
10
25.762645
20
36.449952
11
24.630323
21
35.769687
0
LINE
8
boundary
62
5
39
2
10
24.630323
20
35.769687
11
24.473299
21
35.632458
0
LINE
8
boundary
62
5
39
2
10
24.473299
20
35.632458
11
24.371680
21
35.537050
0
LINE
8
boundary
62
5
39
2
10
24.371680
20
35.537050
11
23.940375
21
35.262822
0
LINE
8
boundary
62
5
39
2
10
23.940375
20
35.262822
11
23.293125
21
34.552064
0
LINE
8
boundary
62
5
39
2
10
23.293125
20
34.552064
11
23.115547
21
34.454837
0
LINE
8
boundary
62
5
39
2
10
23.115547
20
34.454837
11
23.107667
21
34.454118
0
LINE
8
boundary
62
5
39
2
10
23.107667
20
34.454118
11
23.022182
21
34.396888
0
LINE
8
boundary
62
5
39
2
10
23.022182
20
34.396888
11
22.911038
21
34.345771
0
LINE
8
boundary
62
5
39
2
10
22.911038
20
34.345771
11
22.276025
21
35.108185
0
LINE
8
boundary
62
5
39
2
10
22.276025
20
35.108185
11
22.271417
21
35.113539
0
LINE
8
boundary
62
5
39
2
10
22.271417
20
35.113539
11
21.260589
21
35.066559
0
LINE
8
boundary
62
5
39
2
10
21.260589
20
35.066559
11
20.916423
21
34.834687
0
LINE
8
boundary
62
5
39
2
10
20.916423
20
34.834687
11
20.505837
21
34.309225
0
LINE
8
boundary
62
5
39
2
10
20.505837
20
34.309225
11
20.463718
21
34.200529
0
LINE
8
boundary
62
5
39
2
10
20.463718
20
34.200529
11
20.744627
21
33.173815
0
LINE
8
boundary
62
5
39
2
10
20.744627
20
33.173815
11
21.014970
21
32.131832
0
LINE
8
boundary
62
5
39
2
10
21.014970
20
32.131832
11
21.108906
21
31.837086
0
LINE
8
boundary
62
5
39
2
10
21.108906
20
31.837086
11
20.170489
21
30.443257
0
LINE
8
boundary
62
5
39
2
10
20.170489
20
30.443257
11
20.163907
21
30.220953
0
LINE
8
boundary
62
5
39
2
10
20.163907
20
30.220953
11
20.054008
21
30.211165
0
LINE
8
boundary
62
5
39
2
10
20.054008
20
30.211165
11
19.570301
21
29.119015
0
LINE
8
boundary
62
5
39
2
10
19.570301
20
29.119015
11
18.595259
21
28.116209
0
LINE
8
boundary
62
5
39
2
10
18.595259
20
28.116209
11
18.215035
21
27.926549
0
LINE
8
boundary
62
5
39
2
10
18.215035
20
27.926549
11
17.328804
21
27.068069
0
LINE
8
boundary
62
5
39
2
10
17.328804
20
27.068069
11
16.954685
21
26.722369
0
LINE
8
boundary
62
5
39
2
10
16.954685
20
26.722369
11
16.198965
21
25.921324
0
LINE
8
boundary
62
5
39
2
10
16.198965
20
25.921324
11
15.473745
21
25.661237
0
LINE
8
boundary
62
5
39
2
10
15.473745
20
25.661237
11
13.461720
21
24.824941
0
LINE
8
boundary
62
5
39
2
10
13.461720
20
24.824941
11
12.143749
21
24.305319
0
LINE
8
boundary
62
5
39
2
10
12.143749
20
24.305319
11
10.379575
21
23.278971
0
LINE
8
boundary
62
5
39
2
10
10.379575
20
23.278971
11
9.272716
21
22.583415
0
LINE
8
boundary
62
5
39
2
10
9.272716
20
22.583415
11
7.532054
21
21.529771
0
LINE
8
boundary
62
5
39
2
10
7.532054
20
21.529771
11
6.119378
21
20.182701
0
LINE
8
boundary
62
5
39
2
10
6.119378
20
20.182701
11
4.919712
21
18.618480
0
LINE
8
boundary
62
5
39
2
10
4.919712
20
18.618480
11
3.804968
21
16.940390
0
LINE
8
boundary
62
5
39
2
10
3.804968
20
16.940390
11
2.286836
21
14.646621
0
LINE
8
boundary
62
5
39
2
10
2.286836
20
14.646621
11
1.405255
21
12.475197
0
LINE
8
boundary
62
5
39
2
10
1.405255
20
12.475197
11
0.748764
21
7.504918
0
LINE
8
boundary
62
5
39
2
10
0.748764
20
7.504918
11
0.686750
21
6.774401
0
LINE
8
boundary
62
5
39
2
10
0.686750
20
6.774401
11
0.691715
21
6.765233
0
LINE
8
boundary
62
5
39
2
10
0.691715
20
6.765233
11
0.710136
21
6.720347
0
LINE
8
boundary
62
5
39
2
10
0.710136
20
6.720347
11
1.101640
21
5.778484
0
LINE
8
boundary
62
5
39
2
10
1.101640
20
5.778484
11
2.758134
21
2.593936
0
LINE
8
boundary
62
5
39
2
10
2.758134
20
2.593936
11
3.150797
21
2.375710
0
LINE
8
boundary
62
5
39
2
10
3.150797
20
2.375710
11
6.092046
21
0.686750
0
LINE
8
boundary
62
5
39
2
10
6.092046
20
0.686750
11
6.110981
21
0.688166
0
LINE
8
boundary
62
5
39
2
10
6.110981
20
0.688166
11
6.131625
21
0.693528
0
LINE
8
boundary
62
5
39
2
10
6.131625
20
0.693528
11
6.155884
21
0.711816
0
LINE
8
boundary
62
5
39
2
10
6.155884
20
0.711816
11
6.219844
21
0.766356
0
LINE
8
boundary
62
5
39
2
10
6.219844
20
0.766356
11
6.243035
21
0.783395
0
LINE
8
boundary
62
5
39
2
10
6.243035
20
0.783395
11
6.691427
21
1.019574
0
LINE
8
boundary
62
5
39
2
10
6.691427
20
1.019574
11
7.311178
21
1.363520
0
LINE
8
boundary
62
5
39
2
10
7.311178
20
1.363520
11
7.311178
21
1.805512
0
LINE
8
boundary
62
5
39
2
10
7.311178
20
1.805512
11
7.166321
21
1.726764
0
LINE
8
boundary
62
5
39
2
10
7.166321
20
1.726764
11
7.166321
21
1.283128
0
LINE
8
boundary
62
5
39
2
10
7.166321
20
1.283128
11
7.153791
21
1.309628
0
LINE
8
boundary
62
5
39
2
10
7.153791
20
1.309628
11
7.048222
21
1.309628
0
LINE
8
boundary
62
5
39
2
10
7.048222
20
1.309628
11
7.048222
21
1.283128
0
LINE
8
boundary
62
5
39
2
10
7.048222
20
1.283128
11
6.350261
21
1.283128
0
LINE
8
boundary
62
5
39
2
10
6.350261
20
1.283128
11
6.081946
21
1.137263
0
LINE
8
boundary
62
5
39
2
10
6.081946
20
1.137263
11
5.993282
21
1.188424
0
LINE
8
boundary
62
5
39
2
10
5.993282
20
1.188424
11
5.841639
21
1.283128
0
LINE
8
boundary
62
5
39
2
10
5.841639
20
1.283128
11
5.799207
21
1.309628
0
LINE
8
boundary
62
5
39
2
10
5.799207
20
1.309628
11
5.042452
21
1.309628
0
LINE
8
boundary
62
5
39
2
10
5.042452
20
1.309628
11
5.042452
21
1.782237
0
LINE
8
boundary
62
5
39
2
10
5.042452
20
1.782237
11
4.518484
21
2.109467
0
LINE
8
boundary
62
5
39
2
10
4.518484
20
2.109467
11
3.279523
21
2.904138
0
LINE
8
boundary
62
5
39
2
10
3.279523
20
2.904138
11
3.175005
21
2.959954
0
LINE
8
boundary
62
5
39
2
10
3.175005
20
2.959954
11
1.497116
21
6.147212
0
LINE
8
boundary
62
5
39
2
10
1.497116
20
6.147212
11
1.227594
21
6.815928
0
LINE
8
boundary
62
5
39
2
10
1.227594
20
6.815928
11
1.218265
21
6.832115
0
LINE
8
boundary
62
5
39
2
10
1.218265
20
6.832115
11
1.207425
21
6.858791
0
LINE
8
boundary
62
5
39
2
10
1.207425
20
6.858791
11
1.204753
21
6.864918
0
LINE
8
boundary
62
5
39
2
10
1.204753
20
6.864918
11
1.202711
21
6.869978
0
LINE
8
boundary
62
5
39
2
10
1.202711
20
6.869978
11
1.249658
21
7.374951
0
LINE
8
boundary
62
5
39
2
10
1.249658
20
7.374951
11
1.827675
21
11.658636
0
LINE
8
boundary
62
5
39
2
10
1.827675
20
11.658636
11
1.815145
21
11.685136
0
LINE
8
boundary
62
5
39
2
10
1.815145
20
11.685136
11
1.612175
21
11.685136
0
LINE
8
boundary
62
5
39
2
10
1.612175
20
11.685136
11
1.612175
21
12.189736
0
LINE
8
boundary
62
5
39
2
10
1.612175
20
12.189736
11
1.890384
21
12.189736
0
LINE
8
boundary
62
5
39
2
10
1.890384
20
12.189736
11
1.902914
21
12.216236
0
LINE
8
boundary
62
5
39
2
10
1.902914
20
12.216236
11
1.921500
21
12.353977
0
LINE
8
boundary
62
5
39
2
10
1.921500
20
12.353977
11
2.723761
21
14.334136
0
LINE
8
boundary
62
5
39
2
10
2.723761
20
14.334136
11
4.273097
21
16.661743
0
LINE
8
boundary
62
5
39
2
10
4.273097
20
16.661743
11
5.280031
21
18.188481
0
LINE
8
boundary
62
5
39
2
10
5.280031
20
18.188481
11
6.511973
21
19.824489
0
LINE
8
boundary
62
5
39
2
10
6.511973
20
19.824489
11
7.763402
21
21.033079
0
LINE
8
boundary
62
5
39
2
10
7.763402
20
21.033079
11
9.592458
21
22.122740
0
LINE
8
boundary
62
5
39
2
10
9.592458
20
22.122740
11
10.531186
21
22.717407
0
LINE
8
boundary
62
5
39
2
10
10.531186
20
22.717407
11
12.463751
21
23.815449
0
LINE
8
boundary
62
5
39
2
10
12.463751
20
23.815449
11
13.469952
21
24.218959
0
LINE
8
boundary
62
5
39
2
10
13.469952
20
24.218959
11
14.942988
21
24.800618
0
LINE
8
boundary
62
5
39
2
10
14.942988
20
24.800618
11
16.322393
21
25.311549
0
LINE
8
boundary
62
5
39
2
10
16.322393
20
25.311549
11
17.071528
21
26.068894
0
LINE
8
boundary
62
5
39
2
10
17.071528
20
26.068894
11
17.697135
21
26.644788
0
LINE
8
boundary
62
5
39
2
10
17.697135
20
26.644788
11
18.458796
21
27.388482
0
LINE
8
boundary
62
5
39
2
10
18.458796
20
27.388482
11
19.150031
21
27.751636
0
LINE
8
boundary
62
5
39
2
10
19.150031
20
27.751636
11
20.062553
21
28.710190
0
LINE
8
boundary
62
5
39
2
10
20.062553
20
28.710190
11
20.474301
21
29.663301
0
LINE
8
boundary
62
5
39
2
10
20.474301
20
29.663301
11
21.115807
21
29.701005
0
LINE
8
boundary
62
5
39
2
10
21.115807
20
29.701005
11
21.200608
21
31.153588
0
LINE
8
boundary
62
5
39
2
10
21.200608
20
31.153588
11
21.589145
21
31.815148
0
LINE
8
boundary
62
5
39
2
10
21.589145
20
31.815148
11
21.555549
21
31.970638
0
LINE
8
boundary
62
5
39
2
10
21.555549
20
31.970638
11
21.444003
21
32.409652
0
LINE
8
boundary
62
5
39
2
10
21.444003
20
32.409652
11
21.431473
21
32.436152
0
LINE
8
boundary
62
5
39
2
10
21.431473
20
32.436152
11
21.133883
21
32.436152
0
LINE
8
boundary
62
5
39
2
10
21.133883
20
32.436152
11
21.133883
21
32.940752
0
LINE
8
boundary
62
5
39
2
10
21.133883
20
32.940752
11
21.289797
21
32.940752
0
LINE
8
boundary
62
5
39
2
10
21.289797
20
32.940752
11
21.302327
21
32.967252
0
LINE
8
boundary
62
5
39
2
10
21.302327
20
32.967252
11
21.251002
21
33.169254
0
LINE
8
boundary
62
5
39
2
10
21.251002
20
33.169254
11
20.989821
21
34.096015
0
LINE
8
boundary
62
5
39
2
10
20.989821
20
34.096015
11
21.093044
21
34.449630
0
LINE
8
boundary
62
5
39
2
10
21.093044
20
34.449630
11
21.206385
21
34.608652
0
LINE
8
boundary
62
5
39
2
10
21.206385
20
34.608652
11
21.348100
21
34.727372
0
LINE
8
boundary
62
5
39
2
10
21.348100
20
34.727372
11
21.748905
21
34.752670
0
LINE
8
boundary
62
5
39
2
10
21.748905
20
34.752670
11
21.770705
21
34.730865
0
LINE
8
boundary
62
5
39
2
10
21.770705
20
34.730865
11
21.781268
21
34.705389
0
LINE
8
boundary
62
5
39
2
10
21.781268
20
34.705389
11
21.459210
21
34.667627
0
LINE
8
boundary
62
5
39
2
10
21.459210
20
34.667627
11
21.307129
21
34.543832
0
LINE
8
boundary
62
5
39
2
10
21.307129
20
34.543832
11
21.280087
21
34.526311
0
LINE
8
boundary
62
5
39
2
10
21.280087
20
34.526311
11
21.276994
21
34.524116
0
LINE
8
boundary
62
5
39
2
10
21.276994
20
34.524116
11
21.274149
21
34.516185
0
LINE
8
boundary
62
5
39
2
10
21.274149
20
34.516185
11
21.183085
21
34.354309
0
LINE
8
boundary
62
5
39
2
10
21.183085
20
34.354309
11
21.137570
21
34.177529
0
LINE
8
boundary
62
5
39
2
10
21.137570
20
34.177529
11
21.118413
21
34.099220
0
LINE
8
boundary
62
5
39
2
10
21.118413
20
34.099220
11
21.451651
21
32.967252
0
LINE
8
boundary
62
5
39
2
10
21.451651
20
32.967252
11
21.483367
21
32.859517
0
LINE
8
boundary
62
5
39
2
10
21.483367
20
32.859517
11
21.483367
21
32.940752
0
LINE
8
boundary
62
5
39
2
10
21.483367
20
32.940752
11
21.495897
21
32.967252
0
LINE
8
boundary
62
5
39
2
10
21.495897
20
32.967252
11
21.599960
21
32.967252
0
LINE
8
boundary
62
5
39
2
10
21.599960
20
32.967252
11
21.599960
21
32.409652
0
LINE
8
boundary
62
5
39
2
10
21.599960
20
32.409652
11
21.736932
21
31.879042
0
LINE
8
boundary
62
5
39
2
10
21.736932
20
31.879042
11
21.746757
21
31.808302
0
LINE
8
boundary
62
5
39
2
10
21.746757
20
31.808302
11
21.593627
21
31.529117
0
LINE
8
boundary
62
5
39
2
10
21.593627
20
31.529117
11
21.507772
21
29.471089
0
LINE
8
boundary
62
5
39
2
10
21.507772
20
29.471089
11
20.617921
21
29.441836
0
LINE
8
boundary
62
5
39
2
10
20.617921
20
29.441836
11
20.239990
21
28.545330
0
LINE
8
boundary
62
5
39
2
10
20.239990
20
28.545330
11
19.362277
21
27.615261
0
LINE
8
boundary
62
5
39
2
10
19.362277
20
27.615261
11
18.548978
21
27.179569
0
LINE
8
boundary
62
5
39
2
10
18.548978
20
27.179569
11
17.833831
21
26.481168
0
LINE
8
boundary
62
5
39
2
10
17.833831
20
26.481168
11
17.098248
21
25.804242
0
LINE
8
boundary
62
5
39
2
10
17.098248
20
25.804242
11
16.359554
21
25.070796
0
LINE
8
boundary
62
5
39
2
10
16.359554
20
25.070796
11
14.677841
21
24.440281
0
LINE
8
boundary
62
5
39
2
10
14.677841
20
24.440281
11
13.452374
21
23.968530
0
LINE
8
boundary
62
5
39
2
10
13.452374
20
23.968530
11
12.594632
21
23.621536
0
LINE
8
boundary
62
5
39
2
10
12.594632
20
23.621536
11
10.584242
21
22.491358
0
LINE
8
boundary
62
5
39
2
10
10.584242
20
22.491358
11
9.718292
21
21.940389
0
LINE
8
boundary
62
5
39
2
10
9.718292
20
21.940389
11
7.850518
21
20.835938
0
LINE
8
boundary
62
5
39
2
10
7.850518
20
20.835938
11
6.664931
21
19.684045
0
LINE
8
boundary
62
5
39
2
10
6.664931
20
19.684045
11
5.419584
21
18.017400
0
LINE
8
boundary
62
5
39
2
10
5.419584
20
18.017400
11
4.456192
21
16.552472
0
LINE
8
boundary
62
5
39
2
10
4.456192
20
16.552472
11
2.893630
21
14.211084
0
LINE
8
boundary
62
5
39
2
10
2.893630
20
14.211084
11
2.124413
21
12.303089
0
LINE
8
boundary
62
5
39
2
10
2.124413
20
12.303089
11
1.444289
21
7.320797
0
LINE
8
boundary
62
5
39
2
10
1.444289
20
7.320797
11
1.403890
21
6.905625
0
LINE
8
boundary
62
5
39
2
10
1.403890
20
6.905625
11
1.648712
21
6.298900
0
LINE
8
boundary
62
5
39
2
10
1.648712
20
6.298900
11
3.313803
21
3.159564
0
LINE
8
boundary
62
5
39
2
10
3.313803
20
3.159564
11
3.340255
21
3.109647
0
LINE
8
boundary
62
5
39
2
10
3.340255
20
3.109647
11
3.341902
21
3.106712
0
LINE
8
boundary
62
5
39
2
10
3.341902
20
3.106712
11
3.343193
21
3.104793
0
LINE
8
boundary
62
5
39
2
10
3.343193
20
3.104793
11
5.301641
21
1.814228
0
LINE
8
boundary
62
5
39
2
10
5.301641
20
1.814228
11
6.112520
21
1.814228
0
LINE
8
boundary
62
5
39
2
10
6.112520
20
1.814228
11
6.329519
21
1.814228
0
LINE
8
boundary
62
5
39
2
10
6.329519
20
1.814228
11
6.999195
21
1.814228
0
LINE
8
boundary
62
5
39
2
10
6.999195
20
1.814228
11
7.048222
21
1.840728
0
LINE
8
boundary
62
5
39
2
10
7.048222
20
1.840728
11
9.618299
21
3.229906
0
LINE
8
boundary
62
5
39
2
10
9.618299
20
3.229906
11
14.186790
21
5.830824
0
LINE
8
boundary
62
5
39
2
10
14.186790
20
5.830824
11
13.832949
21
6.970465
0
LINE
8
boundary
62
5
39
2
10
13.832949
20
6.970465
11
13.813098
21
7.044298
0
LINE
8
boundary
62
5
39
2
10
13.813098
20
7.044298
11
13.807222
21
7.069473
0
LINE
8
boundary
62
5
39
2
10
13.807222
20
7.069473
11
13.451153
21
7.712643
0
LINE
8
boundary
62
5
39
2
10
13.451153
20
7.712643
11
14.291041
21
9.323559
0
LINE
8
boundary
62
5
39
2
10
14.291041
20
9.323559
11
14.448926
21
9.831865
0
LINE
8
boundary
62
5
39
2
10
14.448926
20
9.831865
11
14.699261
21
10.348258
0
LINE
8
boundary
62
5
39
2
10
14.699261
20
10.348258
11
15.000975
21
10.784977
0
LINE
8
boundary
62
5
39
2
10
15.000975
20
10.784977
11
16.268279
21
11.685136
0
LINE
8
boundary
62
5
39
2
10
16.268279
20
11.685136
11
9.411242
21
11.685136
0
LINE
8
boundary
62
5
39
2
10
9.411242
20
11.685136
11
9.411242
21
12.189736
0
LINE
8
boundary
62
5
39
2
10
9.411242
20
12.189736
11
16.919941
21
12.189736
0
LINE
8
boundary
62
5
39
2
10
16.919941
20
12.189736
11
17.741888
21
12.920556
0
LINE
8
boundary
62
5
39
2
10
17.741888
20
12.920556
11
18.898583
21
14.056941
0
LINE
8
boundary
62
5
39
2
10
18.898583
20
14.056941
11
20.593652
21
15.732975
0
LINE
8
boundary
62
5
39
2
10
20.593652
20
15.732975
11
21.223717
21
16.371005
0
LINE
8
boundary
62
5
39
2
10
21.223717
20
16.371005
11
22.065459
21
17.485925
0
LINE
8
boundary
62
5
39
2
10
22.065459
20
17.485925
11
24.293269
21
20.603970
0
LINE
8
boundary
62
5
39
2
10
24.293269
20
20.603970
11
24.949449
21
22.060644
0
LINE
8
boundary
62
5
39
2
10
24.949449
20
22.060644
11
16.883969
21
22.060644
0
LINE
8
boundary
62
5
39
2
10
16.883969
20
22.060644
11
16.883969
21
22.565244
0
LINE
8
boundary
62
5
39
2
10
16.883969
20
22.565244
11
25.176753
21
22.565244
0
LINE
8
boundary
62
5
39
2
10
25.176753
20
22.565244
11
25.605810
21
23.517720
0
LINE
8
boundary
62
5
39
2
10
25.605810
20
23.517720
11
25.827710
21
24.016918
0
LINE
8
boundary
62
5
39
2
10
25.827710
20
24.016918
11
26.401944
21
26.100813
0
LINE
8
boundary
62
5
39
2
10
26.401944
20
26.100813
11
26.421597
21
26.218948
0
LINE
8
boundary
62
5
39
2
10
26.421597
20
26.218948
11
26.460290
21
26.619682
0
LINE
8
boundary
62
5
39
2
10
26.460290
20
26.619682
11
26.276771
21
26.954131
0
LINE
8
boundary
62
5
39
2
10
26.276771
20
26.954131
11
26.345949
21
27.315936
0
LINE
8
boundary
62
5
39
2
10
26.345949
20
27.315936
11
26.489925
21
27.414700
0
LINE
8
boundary
62
5
39
2
10
26.489925
20
27.414700
11
26.832712
21
27.651021
0
LINE
8
boundary
62
5
39
2
10
26.832712
20
27.651021
11
27.140596
21
28.073336
0
LINE
8
boundary
62
5
39
2
10
27.140596
20
28.073336
11
27.170536
21
28.137934
0
LINE
8
boundary
62
5
39
2
10
27.170536
20
28.137934
11
27.715775
21
28.744220
0
LINE
8
boundary
62
5
39
2
10
27.715775
20
28.744220
11
27.770214
21
28.827561
0
LINE
8
boundary
62
5
39
2
10
27.770214
20
28.827561
11
28.092322
21
29.474706
0
LINE
8
boundary
62
5
39
2
10
28.092322
20
29.474706
11
28.094962
21
29.480596
0
LINE
8
boundary
62
5
39
2
10
28.094962
20
29.480596
11
28.106746
21
29.506596
0
LINE
8
boundary
62
5
39
2
10
28.106746
20
29.506596
11
28.235940
21
29.892582
0
LINE
8
boundary
62
5
39
2
10
28.235940
20
29.892582
11
28.186388
21
30.642140
0
LINE
8
boundary
62
5
39
2
10
28.186388
20
30.642140
11
28.221174
21
31.179500
0
LINE
8
boundary
62
5
39
2
10
28.221174
20
31.179500
11
28.444462
21
31.988868
0
LINE
8
boundary
62
5
39
2
10
28.444462
20
31.988868
11
28.492089
21
32.409652
0
LINE
8
boundary
62
5
39
2
10
28.492089
20
32.409652
11
28.490687
21
32.412616
0
LINE
8
boundary
62
5
39
2
10
28.490687
20
32.412616
11
28.479559
21
32.436152
0
LINE
8
boundary
62
5
39
2
10
28.479559
20
32.436152
11
22.025752
21
32.436152
0
LINE
8
boundary
62
5
39
2
10
22.025752
20
32.436152
11
22.025752
21
32.940752
0
LINE
8
boundary
62
5
39
2
10
22.025752
20
32.940752
11
28.232710
21
32.940752
0
LINE
8
boundary
62
5
39
2
10
28.232710
20
32.940752
11
28.245240
21
32.967252
0
LINE
8
boundary
62
5
39
2
10
28.245240
20
32.967252
11
28.185104
21
33.348453
0
LINE
8
boundary
62
5
39
2
10
28.185104
20
33.348453
11
28.259037
21
33.489268
0
LINE
8
boundary
62
5
39
2
10
28.259037
20
33.489268
11
28.219910
21
33.635336
0
LINE
8
boundary
62
5
39
2
10
28.219910
20
33.635336
11
27.977946
21
33.802010
0
LINE
8
boundary
62
5
39
2
10
27.977946
20
33.802010
11
27.957484
21
33.816483
0
LINE
8
boundary
62
5
39
2
10
27.957484
20
33.816483
11
27.913402
21
33.847183
0
LINE
8
boundary
62
5
39
2
10
27.913402
20
33.847183
11
27.924936
21
33.893231
0
LINE
8
boundary
62
5
39
2
10
27.924936
20
33.893231
11
27.950620
21
33.996673
0
LINE
8
boundary
62
5
39
2
10
27.950620
20
33.996673
11
27.957609
21
34.025517
0
LINE
8
boundary
62
5
39
2
10
27.957609
20
34.025517
11
27.960225
21
34.055825
0
LINE
8
boundary
62
5
39
2
10
27.960225
20
34.055825
11
27.929364
21
34.166633
0
LINE
8
boundary
62
5
39
2
10
27.929364
20
34.166633
11
27.896227
21
34.281157
0
LINE
8
boundary
62
5
39
2
10
27.896227
20
34.281157
11
27.825215
21
34.526025
0
LINE
8
boundary
62
5
39
2
10
27.825215
20
34.526025
11
27.821251
21
34.539703
0
LINE
8
boundary
62
5
39
2
10
27.821251
20
34.539703
11
27.812463
21
34.570104
0
LINE
8
boundary
62
5
39
2
10
27.812463
20
34.570104
11
27.843911
21
34.548383
0
LINE
8
boundary
62
5
39
2
10
27.843911
20
34.548383
11
27.964348
21
34.465039
0
LINE
8
boundary
62
5
39
2
10
27.964348
20
34.465039
11
28.580324
21
34.060088
0
LINE
8
boundary
62
5
39
2
10
28.580324
20
34.060088
11
28.866126
21
33.873874
0
LINE
8
boundary
62
5
39
2
10
28.866126
20
33.873874
11
29.009004
21
33.333718
0
LINE
8
boundary
62
5
39
2
10
29.009004
20
33.333718
11
28.734663
21
32.854847
0
LINE
8
boundary
62
5
39
2
10
28.734663
20
32.854847
11
28.757477
21
32.668661
0
LINE
8
boundary
62
5
39
2
10
28.757477
20
32.668661
11
28.791398
21
32.633314
0
LINE
8
boundary
62
5
39
2
10
28.791398
20
32.633314
11
28.791398
21
32.940752
0
LINE
8
boundary
62
5
39
2
10
28.791398
20
32.940752
11
28.803928
21
32.967252
0
LINE
8
boundary
62
5
39
2
10
28.803928
20
32.967252
11
28.804976
21
32.967252
0
LINE
8
boundary
62
5
39
2
10
28.804976
20
32.967252
11
28.804976
21
32.619164
0
LINE
8
boundary
62
5
39
2
10
28.804976
20
32.619164
11
28.826015
21
32.597241
0
LINE
8
boundary
62
5
39
2
10
28.826015
20
32.597241
11
28.810951
21
32.432171
0
LINE
8
boundary
62
5
39
2
10
28.810951
20
32.432171
11
28.804976
21
32.409652
0
LINE
8
boundary
62
5
39
2
10
28.804976
20
32.409652
11
28.449143
21
31.068616
0
LINE
8
boundary
62
5
39
2
10
28.449143
20
31.068616
11
28.403428
21
30.638896
0
LINE
8
boundary
62
5
39
2
10
28.403428
20
30.638896
11
28.450041
21
29.983776
0
LINE
8
boundary
62
5
39
2
10
28.450041
20
29.983776
11
28.278992
21
29.432513
0
LINE
8
boundary
62
5
39
2
10
28.278992
20
29.432513
11
28.262395
21
29.393116
0
LINE
8
boundary
62
5
39
2
10
28.262395
20
29.393116
11
27.933552
21
28.731243
0
LINE
8
boundary
62
5
39
2
10
27.933552
20
28.731243
11
27.933232
21
28.730506
0
LINE
8
boundary
62
5
39
2
10
27.933232
20
28.730506
11
27.932992
21
28.729938
0
LINE
8
boundary
62
5
39
2
10
27.932992
20
28.729938
11
27.931844
21
28.727764
0
LINE
8
boundary
62
5
39
2
10
27.931844
20
28.727764
11
27.925948
21
28.718620
0
LINE
8
boundary
62
5
39
2
10
27.925948
20
28.718620
11
27.924307
21
28.716126
0
LINE
8
boundary
62
5
39
2
10
27.924307
20
28.716126
11
27.862719
21
28.623188
0
LINE
8
boundary
62
5
39
2
10
27.862719
20
28.623188
11
27.315406
21
28.020565
0
LINE
8
boundary
62
5
39
2
10
27.315406
20
28.020565
11
27.276332
21
27.937352
0
LINE
8
boundary
62
5
39
2
10
27.276332
20
27.937352
11
26.835486
21
27.373883
0
LINE
8
boundary
62
5
39
2
10
26.835486
20
27.373883
11
26.624918
21
27.233388
0
LINE
8
boundary
62
5
39
2
10
26.624918
20
27.233388
11
26.601416
21
27.098574
0
LINE
8
boundary
62
5
39
2
10
26.601416
20
27.098574
11
26.675874
21
26.948952
0
LINE
8
boundary
62
5
39
2
10
26.675874
20
26.948952
11
26.608435
21
26.203467
0
LINE
8
boundary
62
5
39
2
10
26.608435
20
26.203467
11
26.570080
21
25.977372
0
LINE
8
boundary
62
5
39
2
10
26.570080
20
25.977372
11
26.009753
21
23.966785
0
LINE
8
boundary
62
5
39
2
10
26.009753
20
23.966785
11
25.390044
21
22.565244
0
LINE
8
boundary
62
5
39
2
10
25.390044
20
22.565244
11
25.924783
21
22.565244
0
LINE
8
boundary
62
5
39
2
10
25.924783
20
22.565244
11
25.937313
21
22.591744
0
LINE
8
boundary
62
5
39
2
10
25.937313
20
22.591744
11
26.475921
21
23.829005
0
LINE
8
boundary
62
5
39
2
10
26.475921
20
23.829005
11
27.029370
21
25.685514
0
LINE
8
boundary
62
5
39
2
10
27.029370
20
25.685514
11
27.113661
21
26.162660
0
LINE
8
boundary
62
5
39
2
10
27.113661
20
26.162660
11
27.166317
21
27.024834
0
LINE
8
boundary
62
5
39
2
10
27.166317
20
27.024834
11
27.163742
21
27.100436
0
LINE
8
boundary
62
5
39
2
10
27.163742
20
27.100436
11
27.640999
21
27.595521
0
LINE
8
boundary
62
5
39
2
10
27.640999
20
27.595521
11
27.697737
21
27.709769
0
LINE
8
boundary
62
5
39
2
10
27.697737
20
27.709769
11
28.251185
21
28.308381
0
LINE
8
boundary
62
5
39
2
10
28.251185
20
28.308381
11
28.359546
21
28.472948
0
LINE
8
boundary
62
5
39
2
10
28.359546
20
28.472948
11
28.702793
21
29.175199
0
LINE
8
boundary
62
5
39
2
10
28.702793
20
29.175199
11
28.731411
21
29.245625
0
LINE
8
boundary
62
5
39
2
10
28.731411
20
29.245625
11
28.990943
21
30.296462
0
LINE
8
boundary
62
5
39
2
10
28.990943
20
30.296462
11
28.965639
21
30.580720
0
LINE
8
boundary
62
5
39
2
10
28.965639
20
30.580720
11
28.994909
21
30.733802
0
LINE
8
boundary
62
5
39
2
10
28.994909
20
30.733802
11
29.100457
21
31.200494
0
LINE
8
boundary
62
5
39
2
10
29.100457
20
31.200494
11
29.411460
21
31.234517
0
LINE
8
boundary
62
5
39
2
10
29.411460
20
31.234517
11
29.438359
21
31.382335
0
LINE
8
boundary
62
5
39
2
10
29.438359
20
31.382335
11
29.667187
21
31.805014
0
LINE
8
boundary
62
5
39
2
10
29.667187
20
31.805014
11
29.676848
21
31.836306
0
LINE
8
boundary
62
5
39
2
10
29.676848
20
31.836306
11
29.726624
21
31.915293
0
LINE
8
boundary
62
5
39
2
10
29.726624
20
31.915293
11
29.727984
21
31.916166
0
LINE
8
boundary
62
5
39
2
10
29.727984
20
31.916166
11
29.771825
21
31.953136
0
LINE
8
boundary
62
5
39
2
10
29.771825
20
31.953136
11
29.834388
21
32.005414
0
LINE
8
boundary
62
5
39
2
10
29.834388
20
32.005414
11
30.327053
21
32.409652
0
LINE
8
boundary
62
5
39
2
10
30.327053
20
32.409652
11
30.314524
21
32.436152
0
LINE
8
boundary
62
5
39
2
10
30.314524
20
32.436152
11
29.641555
21
32.436152
0
LINE
8
boundary
62
5
39
2
10
29.641555
20
32.436152
11
29.641555
21
32.940752
0
LINE
8
boundary
62
5
39
2
10
29.641555
20
32.940752
11
30.490743
21
32.940752
0
LINE
8
boundary
62
5
39
2
10
30.490743
20
32.940752
11
30.503273
21
32.967252
0
LINE
8
boundary
62
5
39
2
10
30.503273
20
32.967252
11
30.506449
21
33.103965
0
LINE
8
boundary
62
5
39
2
10
30.506449
20
33.103965
11
30.618619
21
33.558315
0
LINE
8
boundary
62
5
39
2
10
30.618619
20
33.558315
11
30.486096
21
33.957334
0
LINE
8
boundary
62
5
39
2
10
30.486096
20
33.957334
11
30.606113
21
34.353432
0
LINE
8
boundary
62
5
39
2
10
30.606113
20
34.353432
11
30.127220
21
35.547053
0
LINE
8
boundary
62
5
39
2
10
30.127220
20
35.547053
11
29.897090
21
35.636829
0
LINE
8
annotation
62
1
39
211
10
4.827559
20
1.473164
11
4.827559
21
1.650692
0
LINE
8
annotation
62
1
39
211
10
4.827559
20
1.650692
11
4.788092
21
1.611214
0
LINE
8
annotation
62
1
39
211
10
7.112453
20
1.480262
11
7.112453
21
1.643594
0
LINE
8
annotation
62
1
39
211
10
7.112453
20
1.643594
11
7.076142
21
1.607273
0
LINE
8
annotation
62
1
39
211
10
5.757793
20
1.623776
11
5.757793
21
1.924080
0
LINE
8
annotation
62
1
39
211
10
5.757793
20
1.924080
11
5.691032
21
1.857300
0
LINE
8
annotation
62
1
39
211
10
8.526744
20
11.513429
11
8.150127
21
11.513429
0
LINE
8
annotation
62
1
39
211
10
8.150127
20
11.513429
11
8.498134
21
12.073675
0
LINE
8
annotation
62
1
39
211
10
8.498134
20
12.073675
11
8.498134
21
12.073675
0
LINE
8
annotation
62
1
39
211
10
8.498134
20
12.073675
11
8.498550
21
12.074190
0
LINE
8
annotation
62
1
39
211
10
8.498550
20
12.074190
11
8.498949
21
12.074709
0
LINE
8
annotation
62
1
39
211
10
8.498949
20
12.074709
11
8.499333
21
12.075237
0
LINE
8
annotation
62
1
39
211
10
8.499333
20
12.075237
11
8.499706
21
12.075778
0
LINE
8
annotation
62
1
39
211
10
8.499706
20
12.075778
11
8.500070
21
12.076336
0
LINE
8
annotation
62
1
39
211
10
8.500070
20
12.076336
11
8.500426
21
12.076917
0
LINE
8
annotation
62
1
39
211
10
8.500426
20
12.076917
11
8.500779
21
12.077524
0
LINE
8
annotation
62
1
39
211
10
8.500779
20
12.077524
11
8.501131
21
12.078161
0
LINE
8
annotation
62
1
39
211
10
8.501131
20
12.078161
11
8.501484
21
12.078833
0
LINE
8
annotation
62
1
39
211
10
8.501484
20
12.078833
11
8.501484
21
12.078833
0
LINE
8
annotation
62
1
39
211
10
8.501484
20
12.078833
11
8.515853
21
12.109685
0
LINE
8
annotation
62
1
39
211
10
8.515853
20
12.109685
11
8.524247
21
12.141665
0
LINE
8
annotation
62
1
39
211
10
8.524247
20
12.141665
11
8.526872
21
12.174052
0
LINE
8
annotation
62
1
39
211
10
8.526872
20
12.174052
11
8.523934
21
12.206122
0
LINE
8
annotation
62
1
39
211
10
8.523934
20
12.206122
11
8.515638
21
12.237153
0
LINE
8
annotation
62
1
39
211
10
8.515638
20
12.237153
11
8.502189
21
12.266423
0
LINE
8
annotation
62
1
39
211
10
8.502189
20
12.266423
11
8.483795
21
12.293208
0
LINE
8
annotation
62
1
39
211
10
8.483795
20
12.293208
11
8.460659
21
12.316786
0
LINE
8
annotation
62
1
39
211
10
8.460659
20
12.316786
11
8.432989
21
12.336435
0
LINE
8
annotation
62
1
39
211
10
8.432989
20
12.336435
11
8.432989
21
12.336435
0
LINE
8
annotation
62
1
39
211
10
8.432989
20
12.336435
11
8.402052
21
12.350600
0
LINE
8
annotation
62
1
39
211
10
8.402052
20
12.350600
11
8.370022
21
12.358864
0
LINE
8
annotation
62
1
39
211
10
8.370022
20
12.358864
11
8.337617
21
12.361415
0
LINE
8
annotation
62
1
39
211
10
8.337617
20
12.361415
11
8.305551
21
12.358438
0
LINE
8
annotation
62
1
39
211
10
8.305551
20
12.358438
11
8.274542
21
12.350119
0
LINE
8
annotation
62
1
39
211
10
8.274542
20
12.350119
11
8.245305
21
12.336643
0
LINE
8
annotation
62
1
39
211
10
8.245305
20
12.336643
11
8.218556
21
12.318198
0
LINE
8
annotation
62
1
39
211
10
8.218556
20
12.318198
11
8.195012
21
12.294969
0
LINE
8
annotation
62
1
39
211
10
8.195012
20
12.294969
11
8.175388
21
12.267142
0
LINE
8
annotation
62
1
39
211
10
8.175388
20
12.267142
11
8.150659
21
12.219706
0
LINE
8
annotation
62
1
39
211
10
1.438188
20
11.858993
11
1.368513
21
11.858993
0
LINE
8
annotation
62
1
39
211
10
1.368513
20
11.858993
11
1.432895
21
11.962641
0
LINE
8
annotation
62
1
39
211
10
1.432895
20
11.962641
11
1.432895
21
11.962641
0
LINE
8
annotation
62
1
39
211
10
1.432895
20
11.962641
11
1.432972
21
11.962736
0
LINE
8
annotation
62
1
39
211
10
1.432972
20
11.962736
11
1.433046
21
11.962832
0
LINE
8
annotation
62
1
39
211
10
1.433046
20
11.962832
11
1.433117
21
11.962930
0
LINE
8
annotation
62
1
39
211
10
1.433117
20
11.962930
11
1.433186
21
11.963030
0
LINE
8
annotation
62
1
39
211
10
1.433186
20
11.963030
11
1.433254
21
11.963133
0
LINE
8
annotation
62
1
39
211
10
1.433254
20
11.963133
11
1.433320
21
11.963240
0
LINE
8
annotation
62
1
39
211
10
1.433320
20
11.963240
11
1.433385
21
11.963353
0
LINE
8
annotation
62
1
39
211
10
1.433385
20
11.963353
11
1.433450
21
11.963471
0
LINE
8
annotation
62
1
39
211
10
1.433450
20
11.963471
11
1.433515
21
11.963595
0
LINE
8
annotation
62
1
39
211
10
1.433515
20
11.963595
11
1.433515
21
11.963595
0
LINE
8
annotation
62
1
39
211
10
1.433515
20
11.963595
11
1.436174
21
11.969303
0
LINE
8
annotation
62
1
39
211
10
1.436174
20
11.969303
11
1.437727
21
11.975219
0
LINE
8
annotation
62
1
39
211
10
1.437727
20
11.975219
11
1.438212
21
11.981211
0
LINE
8
annotation
62
1
39
211
10
1.438212
20
11.981211
11
1.437669
21
11.987144
0
LINE
8
annotation
62
1
39
211
10
1.437669
20
11.987144
11
1.436134
21
11.992885
0
LINE
8
annotation
62
1
39
211
10
1.436134
20
11.992885
11
1.433646
21
11.998300
0
LINE
8
annotation
62
1
39
211
10
1.433646
20
11.998300
11
1.430243
21
12.003255
0
LINE
8
annotation
62
1
39
211
10
1.430243
20
12.003255
11
1.425962
21
12.007617
0
LINE
8
annotation
62
1
39
211
10
1.425962
20
12.007617
11
1.420843
21
12.011252
0
LINE
8
annotation
62
1
39
211
10
1.420843
20
12.011252
11
1.420843
21
12.011252
0
LINE
8
annotation
62
1
39
211
10
1.420843
20
12.011252
11
1.415120
21
12.013873
0
LINE
8
annotation
62
1
39
211
10
1.415120
20
12.013873
11
1.409194
21
12.015402
0
LINE
8
annotation
62
1
39
211
10
1.409194
20
12.015402
11
1.403199
21
12.015874
0
LINE
8
annotation
62
1
39
211
10
1.403199
20
12.015874
11
1.397267
21
12.015323
0
LINE
8
annotation
62
1
39
211
10
1.397267
20
12.015323
11
1.391530
21
12.013784
0
LINE
8
annotation
62
1
39
211
10
1.391530
20
12.013784
11
1.386121
21
12.011291
0
LINE
8
annotation
62
1
39
211
10
1.386121
20
12.011291
11
1.381172
21
12.007879
0
LINE
8
annotation
62
1
39
211
10
1.381172
20
12.007879
11
1.376816
21
12.003581
0
LINE
8
annotation
62
1
39
211
10
1.376816
20
12.003581
11
1.373186
21
11.998433
0
LINE
8
annotation
62
1
39
211
10
1.373186
20
11.998433
11
1.368611
21
11.989657
0
LINE
8
annotation
62
1
39
211
10
15.622854
20
21.888970
11
15.811163
21
21.888970
0
LINE
8
annotation
62
1
39
211
10
15.811163
20
21.888970
11
15.811163
21
21.888970
0
LINE
8
annotation
62
1
39
211
10
15.811163
20
21.888970
11
15.845031
21
21.892009
0
LINE
8
annotation
62
1
39
211
10
15.845031
20
21.892009
11
15.876899
21
21.900765
0
LINE
8
annotation
62
1
39
211
10
15.876899
20
21.900765
11
15.906238
21
21.914701
0
LINE
8
annotation
62
1
39
211
10
15.906238
20
21.914701
11
15.932518
21
21.933281
0
LINE
8
annotation
62
1
39
211
10
15.932518
20
21.933281
11
15.955208
21
21.955966
0
LINE
8
annotation
62
1
39
211
10
15.955208
20
21.955966
11
15.973778
21
21.982220
0
LINE
8
annotation
62
1
39
211
10
15.973778
20
21.982220
11
15.987699
21
22.011504
0
LINE
8
annotation
62
1
39
211
10
15.987699
20
22.011504
11
15.996440
21
22.043281
0
LINE
8
annotation
62
1
39
211
10
15.996440
20
22.043281
11
15.999472
21
22.077013
0
LINE
8
annotation
62
1
39
211
10
15.999472
20
22.077013
11
15.999472
21
22.171300
0
LINE
8
annotation
62
1
39
211
10
15.999472
20
22.171300
11
15.999472
21
22.171300
0
LINE
8
annotation
62
1
39
211
10
15.999472
20
22.171300
11
15.996440
21
22.205019
0
LINE
8
annotation
62
1
39
211
10
15.996440
20
22.205019
11
15.987699
21
22.236788
0
LINE
8
annotation
62
1
39
211
10
15.987699
20
22.236788
11
15.973778
21
22.266070
0
LINE
8
annotation
62
1
39
211
10
15.973778
20
22.266070
11
15.955208
21
22.292325
0
LINE
8
annotation
62
1
39
211
10
15.955208
20
22.292325
11
15.932518
21
22.315015
0
LINE
8
annotation
62
1
39
211
10
15.932518
20
22.315015
11
15.906238
21
22.333600
0
LINE
8
annotation
62
1
39
211
10
15.906238
20
22.333600
11
15.876899
21
22.347543
0
LINE
8
annotation
62
1
39
211
10
15.876899
20
22.347543
11
15.845031
21
22.356303
0
LINE
8
annotation
62
1
39
211
10
15.845031
20
22.356303
11
15.811163
21
22.359343
0
LINE
8
annotation
62
1
39
211
10
15.811163
20
22.359343
11
15.716876
21
22.359343
0
LINE
8
annotation
62
1
39
211
10
15.716876
20
22.359343
11
15.811163
21
22.359343
0
LINE
8
annotation
62
1
39
211
10
15.811163
20
22.359343
11
15.811163
21
22.359343
0
LINE
8
annotation
62
1
39
211
10
15.811163
20
22.359343
11
15.845031
21
22.362384
0
LINE
8
annotation
62
1
39
211
10
15.845031
20
22.362384
11
15.876899
21
22.371149
0
LINE
8
annotation
62
1
39
211
10
15.876899
20
22.371149
11
15.906238
21
22.385105
0
LINE
8
annotation
62
1
39
211
10
15.906238
20
22.385105
11
15.932518
21
22.403718
0
LINE
8
annotation
62
1
39
211
10
15.932518
20
22.403718
11
15.955208
21
22.426452
0
LINE
8
annotation
62
1
39
211
10
15.955208
20
22.426452
11
15.973778
21
22.452773
0
LINE
8
annotation
62
1
39
211
10
15.973778
20
22.452773
11
15.987699
21
22.482148
0
LINE
8
annotation
62
1
39
211
10
15.987699
20
22.482148
11
15.996440
21
22.514041
0
LINE
8
annotation
62
1
39
211
10
15.996440
20
22.514041
11
15.999472
21
22.547917
0
LINE
8
annotation
62
1
39
211
10
15.999472
20
22.547917
11
15.999472
21
22.547917
0
LINE
8
annotation
62
1
39
211
10
15.999472
20
22.547917
11
15.996440
21
22.581636
0
LINE
8
annotation
62
1
39
211
10
15.996440
20
22.581636
11
15.987699
21
22.613405
0
LINE
8
annotation
62
1
39
211
10
15.987699
20
22.613405
11
15.973778
21
22.642687
0
LINE
8
annotation
62
1
39
211
10
15.973778
20
22.642687
11
15.955208
21
22.668942
0
LINE
8
annotation
62
1
39
211
10
15.955208
20
22.668942
11
15.932518
21
22.691632
0
LINE
8
annotation
62
1
39
211
10
15.932518
20
22.691632
11
15.906238
21
22.710217
0
LINE
8
annotation
62
1
39
211
10
15.906238
20
22.710217
11
15.876899
21
22.724160
0
LINE
8
annotation
62
1
39
211
10
15.876899
20
22.724160
11
15.845031
21
22.732920
0
LINE
8
annotation
62
1
39
211
10
15.845031
20
22.732920
11
15.811163
21
22.735960
0
LINE
8
annotation
62
1
39
211
10
15.811163
20
22.735960
11
15.622854
21
22.735960
0
LINE
8
annotation
62
1
39
211
10
20.960271
20
32.854505
11
20.868399
21
32.854505
0
LINE
8
annotation
62
1
39
211
10
20.868399
20
32.854505
11
20.905090
21
32.983183
0
LINE
8
annotation
62
1
39
211
10
20.932732
20
32.817721
11
20.932732
21
32.891207
0
LINE
8
annotation
62
1
39
211
10
21.419235
20
32.673766
11
21.389870
21
32.673766
0
LINE
8
annotation
62
1
39
211
10
21.389870
20
32.673766
11
21.401598
21
32.714895
0
LINE
8
annotation
62
1
39
211
10
21.410433
20
32.662009
11
21.410433
21
32.685497
0
LINE
8
annotation
62
1
39
211
10
21.757554
20
32.615497
11
21.611677
21
32.615497
0
LINE
8
annotation
62
1
39
211
10
21.611677
20
32.615497
11
21.669936
21
32.819813
0
LINE
8
annotation
62
1
39
211
10
21.713827
20
32.557090
11
21.713827
21
32.673772
0
LINE
8
annotation
62
1
39
211
10
29.163251
20
32.555504
11
28.897415
21
32.555504
0
LINE
8
annotation
62
1
39
211
10
28.897415
20
32.555504
11
29.003581
21
32.927837
0
LINE
8
annotation
62
1
39
211
10
29.083566
20
32.449067
11
29.083566
21
32.661700
0
LINE
8
annotation
62
1
39
211
10
21.397514
20
32.680690
11
21.381994
21
32.680690
0
LINE
8
annotation
62
1
39
211
10
21.381994
20
32.680690
11
21.388192
21
32.702428
0
LINE
8
annotation
62
1
39
211
10
21.392862
20
32.674476
11
21.392862
21
32.686890
0
LINE
8
annotation
62
1
39
211
10
24.152589
20
32.452973
11
23.681738
21
32.452973
0
LINE
8
annotation
62
1
39
211
10
23.681738
20
32.452973
11
23.869781
21
33.112452
0
LINE
8
annotation
62
1
39
211
10
24.011451
20
32.264452
11
24.011451
21
32.641069
0
LINE
8
annotation
62
1
39
211
10
28.765612
20
32.684715
11
28.758141
21
32.684715
0
LINE
8
annotation
62
1
39
211
10
28.758141
20
32.684715
11
28.761125
21
32.695180
0
LINE
8
annotation
62
1
39
211
10
28.763373
20
32.681724
11
28.763373
21
32.687700
0
LINE
8
annotation
62
1
39
211
10
11.889199
20
15.608467
11
10.458906
21
15.608467
0
LINE
8
annotation
62
1
39
211
10
10.458906
20
15.608467
11
11.889199
21
18.184415
0
LINE
8
annotation
62
1
39
211
10
11.889199
20
18.184415
11
10.458906
21
18.184415
0
LINE
8
annotation
62
1
39
211
10
14.263906
20
16.896441
11
12.855422
21
16.896441
0
LINE
8
annotation
62
1
39
211
10
15.229644
20
15.608467
11
15.801664
21
15.608467
0
LINE
8
annotation
62
1
39
211
10
15.801664
20
15.608467
11
15.801664
21
15.608467
0
LINE
8
annotation
62
1
39
211
10
15.801664
20
15.608467
11
15.904331
21
15.617698
0
LINE
8
annotation
62
1
39
211
10
15.904331
20
15.617698
11
16.001024
21
15.644310
0
LINE
8
annotation
62
1
39
211
10
16.001024
20
15.644310
11
16.090113
21
15.686683
0
LINE
8
annotation
62
1
39
211
10
16.090113
20
15.686683
11
16.169968
21
15.743196
0
LINE
8
annotation
62
1
39
211
10
16.169968
20
15.743196
11
16.238959
21
15.812228
0
LINE
8
annotation
62
1
39
211
10
16.238959
20
15.812228
11
16.295456
21
15.892158
0
LINE
8
annotation
62
1
39
211
10
16.295456
20
15.892158
11
16.337830
21
15.981366
0
LINE
8
annotation
62
1
39
211
10
16.337830
20
15.981366
11
16.364449
21
16.078232
0
LINE
8
annotation
62
1
39
211
10
16.364449
20
16.078232
11
16.373684
21
16.181133
0
LINE
8
annotation
62
1
39
211
10
16.373684
20
16.181133
11
16.373684
21
16.466093
0
LINE
8
annotation
62
1
39
211
10
16.373684
20
16.466093
11
16.373684
21
16.466093
0
LINE
8
annotation
62
1
39
211
10
16.373684
20
16.466093
11
16.364454
21
16.568944
0
LINE
8
annotation
62
1
39
211
10
16.364454
20
16.568944
11
16.337848
21
16.665676
0
LINE
8
annotation
62
1
39
211
10
16.337848
20
16.665676
11
16.295492
21
16.754691
0
LINE
8
annotation
62
1
39
211
10
16.295492
20
16.754691
11
16.239012
21
16.834392
0
LINE
8
annotation
62
1
39
211
10
16.239012
20
16.834392
11
16.170034
21
16.903183
0
LINE
8
annotation
62
1
39
211
10
16.170034
20
16.903183
11
16.090184
21
16.959466
0
LINE
8
annotation
62
1
39
211
10
16.090184
20
16.959466
11
16.001089
21
17.001646
0
LINE
8
annotation
62
1
39
211
10
16.001089
20
17.001646
11
15.904373
21
17.028124
0
LINE
8
annotation
62
1
39
211
10
15.904373
20
17.028124
11
15.801664
21
17.037305
0
LINE
8
annotation
62
1
39
211
10
15.801664
20
17.037305
11
15.229644
21
17.037305
0
LINE
8
annotation
62
1
39
211
10
15.229644
20
17.037305
11
15.229644
21
18.184415
0
LINE
8
annotation
62
1
39
211
10
15.229644
20
18.184415
11
16.373684
21
18.184415
0
LINE
8
frame
62
5
39
2
10
0.000000
20
0.000000
11
40.000000
21
0.000000
0
LINE
8
frame
62
5
39
2
10
40.000000
20
0.000000
11
40.000000
21
40.000000
0
LINE
8
frame
62
5
39
2
10
40.000000
20
40.000000
11
0.000000
21
40.000000
0
LINE
8
frame
62
5
39
2
10
0.000000
20
40.000000
11
0.000000
21
0.000000
0
ENDSEC
0
EOF
