0
SECTION
2
HEADER
9
$ACADVER
1
AC1009
0
ENDSEC
0
SECTION
2
TABLES
0
TABLE
2
VPORT
70
1
0
VPORT
2
ACTIVE
70
0
10
0.0
20
0.0
11
0.0
21
0.0
12
0.0
22
0.0
13
0.0
23
0.0
14
0.0
24
0.0
15
0.0
25
0.0
16
0.0
26
0.0
36
0.0
17
0.0
27
0.0
37
0.0
40
0.0
41
0.0
42
0.0
43
0.0
44
0.0
50
0.0
51
0.0
71
0
72
1000
73
1
74
3
75
0
76
0
77
0
78
0
0
ENDTAB
0
ENDSEC
0
SECTION
2
ENTITIES
0
LINE
8
boundary
62
5
39
2
10
14.753504
20
21.763729
11
14.603503
21
21.775084
0
LINE
8
boundary
62
5
39
2
10
14.603503
20
21.775084
11
14.603477
21
21.775137
0
LINE
8
boundary
62
5
39
2
10
14.603477
20
21.775137
11
14.603443
21
21.775168
0
LINE
8
boundary
62
5
39
2
10
14.603443
20
21.775168
11
14.603245
21
21.774996
0
LINE
8
boundary
62
5
39
2
10
14.603245
20
21.774996
11
14.485905
21
21.780714
0
LINE
8
boundary
62
5
39
2
10
14.485905
20
21.780714
11
14.398643
21
21.789971
0
LINE
8
boundary
62
5
39
2
10
14.398643
20
21.789971
11
14.371224
21
21.793144
0
LINE
8
boundary
62
5
39
2
10
14.371224
20
21.793144
11
14.370349
21
21.793519
0
LINE
8
boundary
62
5
39
2
10
14.370349
20
21.793519
11
14.370320
21
21.793598
0
LINE
8
boundary
62
5
39
2
10
14.370320
20
21.793598
11
14.370284
21
21.793702
0
LINE
8
boundary
62
5
39
2
10
14.370284
20
21.793702
11
14.370160
21
21.794067
0
LINE
8
boundary
62
5
39
2
10
14.370160
20
21.794067
11
14.287745
21
21.799769
0
LINE
8
boundary
62
5
39
2
10
14.287745
20
21.799769
11
14.220228
21
21.805706
0
LINE
8
boundary
62
5
39
2
10
14.220228
20
21.805706
11
14.220162
21
21.806001
0
LINE
8
boundary
62
5
39
2
10
14.220162
20
21.806001
11
14.220173
21
21.805237
0
LINE
8
boundary
62
5
39
2
10
14.220173
20
21.805237
11
13.800304
21
19.330180
0
LINE
8
boundary
62
5
39
2
10
13.800304
20
19.330180
11
12.139734
21
15.600418
0
LINE
8
boundary
62
5
39
2
10
12.139734
20
15.600418
11
9.009521
21
11.450622
0
LINE
8
boundary
62
5
39
2
10
9.009521
20
11.450622
11
6.672423
21
9.082757
0
LINE
8
boundary
62
5
39
2
10
6.672423
20
9.082757
11
4.075630
21
6.783965
0
LINE
8
boundary
62
5
39
2
10
4.075630
20
6.783965
11
2.241761
21
4.138474
0
LINE
8
boundary
62
5
39
2
10
2.241761
20
4.138474
11
0.687177
21
0.943443
0
LINE
8
boundary
62
5
39
2
10
0.687177
20
0.943443
11
0.687161
21
0.943389
0
LINE
8
boundary
62
5
39
2
10
0.687161
20
0.943389
11
0.687011
21
0.943263
0
LINE
8
boundary
62
5
39
2
10
0.687011
20
0.943263
11
0.686750
21
0.942975
0
LINE
8
boundary
62
5
39
2
10
0.686750
20
0.942975
11
0.795651
21
0.864849
0
LINE
8
boundary
62
5
39
2
10
0.795651
20
0.864849
11
0.795903
21
0.865012
0
LINE
8
boundary
62
5
39
2
10
0.795903
20
0.865012
11
0.795991
21
0.865069
0
LINE
8
boundary
62
5
39
2
10
0.795991
20
0.865069
11
0.796083
21
0.864978
0
LINE
8
boundary
62
5
39
2
10
0.796083
20
0.864978
11
0.811015
21
0.857438
0
LINE
8
boundary
62
5
39
2
10
0.811015
20
0.857438
11
0.892917
21
0.809894
0
LINE
8
boundary
62
5
39
2
10
0.892917
20
0.809894
11
0.895007
21
0.808124
0
LINE
8
boundary
62
5
39
2
10
0.895007
20
0.808124
11
0.958491
21
0.762971
0
LINE
8
boundary
62
5
39
2
10
0.958491
20
0.762971
11
0.970196
21
0.753157
0
LINE
8
boundary
62
5
39
2
10
0.970196
20
0.753157
11
0.970331
21
0.753105
0
LINE
8
boundary
62
5
39
2
10
0.970331
20
0.753105
11
0.970478
21
0.753181
0
LINE
8
boundary
62
5
39
2
10
0.970478
20
0.753181
11
1.086026
21
0.686750
0
LINE
8
boundary
62
5
39
2
10
1.086026
20
0.686750
11
1.086076
21
0.686802
0
LINE
8
boundary
62
5
39
2
10
1.086076
20
0.686802
11
1.086125
21
0.686846
0
LINE
8
boundary
62
5
39
2
10
1.086125
20
0.686846
11
2.668214
21
3.888983
0
LINE
8
boundary
62
5
39
2
10
2.668214
20
3.888983
11
4.429288
21
6.413997
0
LINE
8
boundary
62
5
39
2
10
4.429288
20
6.413997
11
5.445535
21
7.305421
0
LINE
8
boundary
62
5
39
2
10
5.445535
20
7.305421
11
5.433005
21
7.331921
0
LINE
8
boundary
62
5
39
2
10
5.433005
20
7.331921
11
5.325264
21
7.331921
0
LINE
8
boundary
62
5
39
2
10
5.325264
20
7.331921
11
5.325264
21
7.836521
0
LINE
8
boundary
62
5
39
2
10
5.325264
20
7.836521
11
6.051003
21
7.836521
0
LINE
8
boundary
62
5
39
2
10
6.051003
20
7.836521
11
6.081214
21
7.863021
0
LINE
8
boundary
62
5
39
2
10
6.081214
20
7.863021
11
7.037752
21
8.702069
0
LINE
8
boundary
62
5
39
2
10
7.037752
20
8.702069
11
9.398097
21
11.097142
0
LINE
8
boundary
62
5
39
2
10
9.398097
20
11.097142
11
12.579267
21
15.324188
0
LINE
8
boundary
62
5
39
2
10
12.579267
20
15.324188
11
13.631455
21
17.680929
0
LINE
8
boundary
62
5
39
2
10
13.631455
20
17.680929
11
13.618925
21
17.707429
0
LINE
8
boundary
62
5
39
2
10
13.618925
20
17.707429
11
13.433458
21
17.707429
0
LINE
8
boundary
62
5
39
2
10
13.433458
20
17.707429
11
13.433458
21
18.212029
0
LINE
8
boundary
62
5
39
2
10
13.433458
20
18.212029
11
13.867871
21
18.212029
0
LINE
8
boundary
62
5
39
2
10
13.867871
20
18.212029
11
13.880401
21
18.238529
0
LINE
8
boundary
62
5
39
2
10
13.880401
20
18.238529
11
14.294753
21
19.166613
0
LINE
8
boundary
62
5
39
2
10
14.294753
20
19.166613
11
14.753511
21
21.763488
0
LINE
8
boundary
62
5
39
2
10
14.753511
20
21.763488
11
14.753504
21
21.763729
0
LINE
8
annotation
62
1
39
211
10
5.166625
20
7.513242
11
5.103580
21
7.513242
0
LINE
8
annotation
62
1
39
211
10
5.103580
20
7.513242
11
5.161836
21
7.607027
0
LINE
8
annotation
62
1
39
211
10
5.161836
20
7.607027
11
5.161836
21
7.607027
0
LINE
8
annotation
62
1
39
211
10
5.161836
20
7.607027
11
5.161906
21
7.607113
0
LINE
8
annotation
62
1
39
211
10
5.161906
20
7.607113
11
5.161972
21
7.607200
0
LINE
8
annotation
62
1
39
211
10
5.161972
20
7.607200
11
5.162037
21
7.607289
0
LINE
8
annotation
62
1
39
211
10
5.162037
20
7.607289
11
5.162099
21
7.607379
0
LINE
8
annotation
62
1
39
211
10
5.162099
20
7.607379
11
5.162160
21
7.607473
0
LINE
8
annotation
62
1
39
211
10
5.162160
20
7.607473
11
5.162220
21
7.607570
0
LINE
8
annotation
62
1
39
211
10
5.162220
20
7.607570
11
5.162279
21
7.607672
0
LINE
8
annotation
62
1
39
211
10
5.162279
20
7.607672
11
5.162338
21
7.607778
0
LINE
8
annotation
62
1
39
211
10
5.162338
20
7.607778
11
5.162397
21
7.607891
0
LINE
8
annotation
62
1
39
211
10
5.162397
20
7.607891
11
5.162397
21
7.607891
0
LINE
8
annotation
62
1
39
211
10
5.162397
20
7.607891
11
5.164802
21
7.613055
0
LINE
8
annotation
62
1
39
211
10
5.164802
20
7.613055
11
5.166207
21
7.618409
0
LINE
8
annotation
62
1
39
211
10
5.166207
20
7.618409
11
5.166647
21
7.623830
0
LINE
8
annotation
62
1
39
211
10
5.166647
20
7.623830
11
5.166155
21
7.629199
0
LINE
8
annotation
62
1
39
211
10
5.166155
20
7.629199
11
5.164766
21
7.634394
0
LINE
8
annotation
62
1
39
211
10
5.164766
20
7.634394
11
5.162515
21
7.639293
0
LINE
8
annotation
62
1
39
211
10
5.162515
20
7.639293
11
5.159436
21
7.643777
0
LINE
8
annotation
62
1
39
211
10
5.159436
20
7.643777
11
5.155563
21
7.647724
0
LINE
8
annotation
62
1
39
211
10
5.155563
20
7.647724
11
5.150931
21
7.651013
0
LINE
8
annotation
62
1
39
211
10
5.150931
20
7.651013
11
5.150931
21
7.651013
0
LINE
8
annotation
62
1
39
211
10
5.150931
20
7.651013
11
5.145752
21
7.653384
0
LINE
8
annotation
62
1
39
211
10
5.145752
20
7.653384
11
5.140390
21
7.654768
0
LINE
8
annotation
62
1
39
211
10
5.140390
20
7.654768
11
5.134965
21
7.655195
0
LINE
8
annotation
62
1
39
211
10
5.134965
20
7.655195
11
5.129598
21
7.654697
0
LINE
8
annotation
62
1
39
211
10
5.129598
20
7.654697
11
5.124407
21
7.653304
0
LINE
8
annotation
62
1
39
211
10
5.124407
20
7.653304
11
5.119512
21
7.651048
0
LINE
8
annotation
62
1
39
211
10
5.119512
20
7.651048
11
5.115035
21
7.647960
0
LINE
8
annotation
62
1
39
211
10
5.115035
20
7.647960
11
5.111093
21
7.644072
0
LINE
8
annotation
62
1
39
211
10
5.111093
20
7.644072
11
5.107808
21
7.639414
0
LINE
8
annotation
62
1
39
211
10
5.107808
20
7.639414
11
5.103669
21
7.631473
0
LINE
8
annotation
62
1
39
211
10
13.241710
20
17.898923
11
13.268718
21
17.898923
0
LINE
8
annotation
62
1
39
211
10
13.268718
20
17.898923
11
13.268718
21
17.898923
0
LINE
8
annotation
62
1
39
211
10
13.268718
20
17.898923
11
13.273575
21
17.899358
0
LINE
8
annotation
62
1
39
211
10
13.273575
20
17.899358
11
13.278145
21
17.900614
0
LINE
8
annotation
62
1
39
211
10
13.278145
20
17.900614
11
13.282353
21
17.902613
0
LINE
8
annotation
62
1
39
211
10
13.282353
20
17.902613
11
13.286122
21
17.905278
0
LINE
8
annotation
62
1
39
211
10
13.286122
20
17.905278
11
13.289376
21
17.908531
0
LINE
8
annotation
62
1
39
211
10
13.289376
20
17.908531
11
13.292040
21
17.912296
0
LINE
8
annotation
62
1
39
211
10
13.292040
20
17.912296
11
13.294036
21
17.916496
0
LINE
8
annotation
62
1
39
211
10
13.294036
20
17.916496
11
13.295290
21
17.921054
0
LINE
8
annotation
62
1
39
211
10
13.295290
20
17.921054
11
13.295725
21
17.925892
0
LINE
8
annotation
62
1
39
211
10
13.295725
20
17.925892
11
13.295725
21
17.939414
0
LINE
8
annotation
62
1
39
211
10
13.295725
20
17.939414
11
13.295725
21
17.939414
0
LINE
8
annotation
62
1
39
211
10
13.295725
20
17.939414
11
13.295290
21
17.944250
0
LINE
8
annotation
62
1
39
211
10
13.295290
20
17.944250
11
13.294036
21
17.948807
0
LINE
8
annotation
62
1
39
211
10
13.294036
20
17.948807
11
13.292040
21
17.953006
0
LINE
8
annotation
62
1
39
211
10
13.292040
20
17.953006
11
13.289376
21
17.956772
0
LINE
8
annotation
62
1
39
211
10
13.289376
20
17.956772
11
13.286122
21
17.960026
0
LINE
8
annotation
62
1
39
211
10
13.286122
20
17.960026
11
13.282353
21
17.962691
0
LINE
8
annotation
62
1
39
211
10
13.282353
20
17.962691
11
13.278145
21
17.964691
0
LINE
8
annotation
62
1
39
211
10
13.278145
20
17.964691
11
13.273575
21
17.965947
0
LINE
8
annotation
62
1
39
211
10
13.273575
20
17.965947
11
13.268718
21
17.966383
0
LINE
8
annotation
62
1
39
211
10
13.268718
20
17.966383
11
13.255195
21
17.966383
0
LINE
8
annotation
62
1
39
211
10
13.255195
20
17.966383
11
13.268718
21
17.966383
0
LINE
8
annotation
62
1
39
211
10
13.268718
20
17.966383
11
13.268718
21
17.966383
0
LINE
8
annotation
62
1
39
211
10
13.268718
20
17.966383
11
13.273575
21
17.966820
0
LINE
8
annotation
62
1
39
211
10
13.273575
20
17.966820
11
13.278145
21
17.968077
0
LINE
8
annotation
62
1
39
211
10
13.278145
20
17.968077
11
13.282353
21
17.970078
0
LINE
8
annotation
62
1
39
211
10
13.282353
20
17.970078
11
13.286122
21
17.972748
0
LINE
8
annotation
62
1
39
211
10
13.286122
20
17.972748
11
13.289376
21
17.976008
0
LINE
8
annotation
62
1
39
211
10
13.289376
20
17.976008
11
13.292040
21
17.979783
0
LINE
8
annotation
62
1
39
211
10
13.292040
20
17.979783
11
13.294036
21
17.983996
0
LINE
8
annotation
62
1
39
211
10
13.294036
20
17.983996
11
13.295290
21
17.988570
0
LINE
8
annotation
62
1
39
211
10
13.295290
20
17.988570
11
13.295725
21
17.993429
0
LINE
8
annotation
62
1
39
211
10
13.295725
20
17.993429
11
13.295725
21
17.993429
0
LINE
8
annotation
62
1
39
211
10
13.295725
20
17.993429
11
13.295290
21
17.998265
0
LINE
8
annotation
62
1
39
211
10
13.295290
20
17.998265
11
13.294036
21
18.002821
0
LINE
8
annotation
62
1
39
211
10
13.294036
20
18.002821
11
13.292040
21
18.007021
0
LINE
8
annotation
62
1
39
211
10
13.292040
20
18.007021
11
13.289376
21
18.010786
0
LINE
8
annotation
62
1
39
211
10
13.289376
20
18.010786
11
13.286122
21
18.014040
0
LINE
8
annotation
62
1
39
211
10
13.286122
20
18.014040
11
13.282353
21
18.016706
0
LINE
8
annotation
62
1
39
211
10
13.282353
20
18.016706
11
13.278145
21
18.018705
0
LINE
8
annotation
62
1
39
211
10
13.278145
20
18.018705
11
13.273575
21
18.019962
0
LINE
8
annotation
62
1
39
211
10
13.273575
20
18.019962
11
13.268718
21
18.020398
0
LINE
8
annotation
62
1
39
211
10
13.268718
20
18.020398
11
13.241710
21
18.020398
0
LINE
8
annotation
62
1
39
211
10
6.332898
20
8.517430
11
6.280123
21
8.517430
0
LINE
8
annotation
62
1
39
211
10
6.280123
20
8.517430
11
6.332898
21
8.612476
0
LINE
8
annotation
62
1
39
211
10
6.332898
20
8.612476
11
6.280123
21
8.612476
0
LINE
8
annotation
62
1
39
211
10
6.420518
20
8.564953
11
6.368549
21
8.564953
0
LINE
8
annotation
62
1
39
211
10
6.508926
20
8.538560
11
6.456152
21
8.538560
0
LINE
8
annotation
62
1
39
211
10
6.456152
20
8.538560
11
6.477228
21
8.612476
0
LINE
8
annotation
62
1
39
211
10
6.493107
20
8.517430
11
6.493107
21
8.559642
0
LINE
8
annotation
62
1
39
211
10
6.596547
20
8.564953
11
6.544577
21
8.564953
0
LINE
8
annotation
62
1
39
211
10
6.684955
20
8.538560
11
6.632180
21
8.538560
0
LINE
8
annotation
62
1
39
211
10
6.632180
20
8.538560
11
6.653257
21
8.612476
0
LINE
8
annotation
62
1
39
211
10
6.669135
20
8.517430
11
6.669135
21
8.559642
0
LINE
8
boundary
62
5
39
2
10
13.602267
20
23.098918
11
13.602399
21
23.098848
0
LINE
8
boundary
62
5
39
2
10
13.602399
20
23.098848
11
13.619203
21
23.112888
0
LINE
8
boundary
62
5
39
2
10
13.619203
20
23.112888
11
14.166853
21
23.751369
0
LINE
8
boundary
62
5
39
2
10
14.166853
20
23.751369
11
14.169680
21
23.813255
0
LINE
8
boundary
62
5
39
2
10
14.169680
20
23.813255
11
14.186366
21
24.694354
0
LINE
8
boundary
62
5
39
2
10
14.186366
20
24.694354
11
14.078070
21
24.697142
0
LINE
8
boundary
62
5
39
2
10
14.078070
20
24.697142
11
14.068602
21
24.696350
0
LINE
8
boundary
62
5
39
2
10
14.068602
20
24.696350
11
14.074053
21
24.670049
0
LINE
8
boundary
62
5
39
2
10
14.074053
20
24.670049
11
14.054301
21
24.675662
0
LINE
8
boundary
62
5
39
2
10
14.054301
20
24.675662
11
14.001034
21
24.678343
0
LINE
8
boundary
62
5
39
2
10
14.001034
20
24.678343
11
13.944052
21
24.682841
0
LINE
8
boundary
62
5
39
2
10
13.944052
20
24.682841
11
13.933957
21
24.304268
0
LINE
8
boundary
62
5
39
2
10
13.933957
20
24.304268
11
13.927275
21
23.987344
0
LINE
8
boundary
62
5
39
2
10
13.927275
20
23.987344
11
13.887116
21
23.944622
0
LINE
8
boundary
62
5
39
2
10
13.887116
20
23.944622
11
13.493554
21
23.538577
0
LINE
8
boundary
62
5
39
2
10
13.493554
20
23.538577
11
13.475774
21
23.520457
0
LINE
8
boundary
62
5
39
2
10
13.475774
20
23.520457
11
13.463836
21
23.501463
0
LINE
8
boundary
62
5
39
2
10
13.463836
20
23.501463
11
13.451977
21
23.482593
0
LINE
8
boundary
62
5
39
2
10
13.451977
20
23.482593
11
13.309578
21
23.439862
0
LINE
8
boundary
62
5
39
2
10
13.309578
20
23.439862
11
13.309578
21
23.093052
0
LINE
8
boundary
62
5
39
2
10
13.309578
20
23.093052
11
12.399143
21
23.093052
0
LINE
8
boundary
62
5
39
2
10
12.399143
20
23.093052
11
12.257124
21
23.093052
0
LINE
8
boundary
62
5
39
2
10
12.257124
20
23.093052
11
12.153832
21
23.093052
0
LINE
8
boundary
62
5
39
2
10
12.153832
20
23.093052
11
12.065520
21
23.066552
0
LINE
8
boundary
62
5
39
2
10
12.065520
20
23.066552
11
11.338484
21
22.848387
0
LINE
8
boundary
62
5
39
2
10
11.338484
20
22.848387
11
9.607545
21
22.709871
0
LINE
8
boundary
62
5
39
2
10
9.607545
20
22.709871
11
8.099629
21
22.768674
0
LINE
8
boundary
62
5
39
2
10
8.099629
20
22.768674
11
6.952006
21
23.129382
0
LINE
8
boundary
62
5
39
2
10
6.952006
20
23.129382
11
6.952006
21
23.093052
0
LINE
8
boundary
62
5
39
2
10
6.952006
20
23.093052
11
6.939476
21
23.066552
0
LINE
8
boundary
62
5
39
2
10
6.939476
20
23.066552
11
5.724005
21
23.066552
0
LINE
8
boundary
62
5
39
2
10
5.724005
20
23.066552
11
5.724005
21
23.624152
0
LINE
8
boundary
62
5
39
2
10
5.724005
20
23.624152
11
5.518508
21
23.715341
0
LINE
8
boundary
62
5
39
2
10
5.518508
20
23.715341
11
3.362049
21
24.415004
0
LINE
8
boundary
62
5
39
2
10
3.362049
20
24.415004
11
3.156004
21
24.537276
0
LINE
8
boundary
62
5
39
2
10
3.156004
20
24.537276
11
1.813861
21
26.355646
0
LINE
8
boundary
62
5
39
2
10
1.813861
20
26.355646
11
1.738496
21
26.544864
0
LINE
8
boundary
62
5
39
2
10
1.738496
20
26.544864
11
1.233277
21
30.436451
0
LINE
8
boundary
62
5
39
2
10
1.233277
20
30.436451
11
1.228357
21
30.542782
0
LINE
8
boundary
62
5
39
2
10
1.228357
20
30.542782
11
1.228295
21
30.544116
0
LINE
8
boundary
62
5
39
2
10
1.228295
20
30.544116
11
1.233277
21
30.651746
0
LINE
8
boundary
62
5
39
2
10
1.233277
20
30.651746
11
1.738496
21
34.543341
0
LINE
8
boundary
62
5
39
2
10
1.738496
20
34.543341
11
1.813861
21
34.732562
0
LINE
8
boundary
62
5
39
2
10
1.813861
20
34.732562
11
3.155990
21
36.550924
0
LINE
8
boundary
62
5
39
2
10
3.155990
20
36.550924
11
3.362039
21
36.673198
0
LINE
8
boundary
62
5
39
2
10
3.362039
20
36.673198
11
5.518473
21
37.372857
0
LINE
8
boundary
62
5
39
2
10
5.518473
20
37.372857
11
5.723997
21
37.464056
0
LINE
8
boundary
62
5
39
2
10
5.723997
20
37.464056
11
5.723997
21
38.021656
0
LINE
8
boundary
62
5
39
2
10
5.723997
20
38.021656
11
6.939479
21
38.021656
0
LINE
8
boundary
62
5
39
2
10
6.939479
20
38.021656
11
6.952009
21
37.995156
0
LINE
8
boundary
62
5
39
2
10
6.952009
20
37.995156
11
6.952009
21
37.958825
0
LINE
8
boundary
62
5
39
2
10
6.952009
20
37.958825
11
8.099625
21
38.319532
0
LINE
8
boundary
62
5
39
2
10
8.099625
20
38.319532
11
9.607545
21
38.378336
0
LINE
8
boundary
62
5
39
2
10
9.607545
20
38.378336
11
11.338487
21
38.239820
0
LINE
8
boundary
62
5
39
2
10
11.338487
20
38.239820
11
12.061165
21
38.021656
0
LINE
8
boundary
62
5
39
2
10
12.061165
20
38.021656
11
12.148947
21
37.995156
0
LINE
8
boundary
62
5
39
2
10
12.148947
20
37.995156
11
12.315411
21
37.995156
0
LINE
8
boundary
62
5
39
2
10
12.315411
20
37.995156
11
12.394684
21
37.995156
0
LINE
8
boundary
62
5
39
2
10
12.394684
20
37.995156
11
13.303946
21
37.995156
0
LINE
8
boundary
62
5
39
2
10
13.303946
20
37.995156
11
13.303946
21
37.646482
0
LINE
8
boundary
62
5
39
2
10
13.303946
20
37.646482
11
13.439593
21
37.605533
0
LINE
8
boundary
62
5
39
2
10
13.439593
20
37.605533
11
13.476723
21
37.567554
0
LINE
8
boundary
62
5
39
2
10
13.476723
20
37.567554
11
13.497635
21
37.546055
0
LINE
8
boundary
62
5
39
2
10
13.497635
20
37.546055
11
13.922567
21
37.107919
0
LINE
8
boundary
62
5
39
2
10
13.922567
20
37.107919
11
13.936907
21
36.579262
0
LINE
8
boundary
62
5
39
2
10
13.936907
20
36.579262
11
13.941474
21
36.408002
0
LINE
8
boundary
62
5
39
2
10
13.941474
20
36.408002
11
14.034007
21
36.414804
0
LINE
8
boundary
62
5
39
2
10
14.034007
20
36.414804
11
14.070286
21
36.416280
0
LINE
8
boundary
62
5
39
2
10
14.070286
20
36.416280
11
14.073932
21
36.406527
0
LINE
8
boundary
62
5
39
2
10
14.073932
20
36.406527
11
14.077164
21
36.406109
0
LINE
8
boundary
62
5
39
2
10
14.077164
20
36.406109
11
14.093037
21
36.404150
0
LINE
8
boundary
62
5
39
2
10
14.093037
20
36.404150
11
14.174199
21
36.402671
0
LINE
8
boundary
62
5
39
2
10
14.174199
20
36.402671
11
14.157442
21
37.281272
0
LINE
8
boundary
62
5
39
2
10
14.157442
20
37.281272
11
14.159157
21
37.344122
0
LINE
8
boundary
62
5
39
2
10
14.159157
20
37.344122
11
13.614921
21
37.979164
0
LINE
8
boundary
62
5
39
2
10
13.614921
20
37.979164
11
13.602784
21
37.993320
0
LINE
8
boundary
62
5
39
2
10
13.602784
20
37.993320
11
13.598569
21
37.992492
0
LINE
8
boundary
62
5
39
2
10
13.598569
20
37.992492
11
13.587425
21
37.998948
0
LINE
8
boundary
62
5
39
2
10
13.587425
20
37.998948
11
11.543414
21
38.736449
0
LINE
8
boundary
62
5
39
2
10
11.543414
20
38.736449
11
9.623763
21
38.924751
0
LINE
8
boundary
62
5
39
2
10
9.623763
20
38.924751
11
8.038799
21
38.836726
0
LINE
8
boundary
62
5
39
2
10
8.038799
20
38.836726
11
6.297999
21
38.297306
0
LINE
8
boundary
62
5
39
2
10
6.297999
20
38.297306
11
5.619265
21
38.004760
0
LINE
8
boundary
62
5
39
2
10
5.619265
20
38.004760
11
5.623806
21
37.995156
0
LINE
8
boundary
62
5
39
2
10
5.623806
20
37.995156
11
5.623806
21
37.490556
0
LINE
8
boundary
62
5
39
2
10
5.623806
20
37.490556
11
4.180796
21
37.490556
0
LINE
8
boundary
62
5
39
2
10
4.180796
20
37.490556
11
4.101273
21
37.464056
0
LINE
8
boundary
62
5
39
2
10
4.101273
20
37.464056
11
3.190393
21
37.160517
0
LINE
8
boundary
62
5
39
2
10
3.190393
20
37.160517
11
2.804461
21
36.925251
0
LINE
8
boundary
62
5
39
2
10
2.804461
20
36.925251
11
1.840661
21
35.622072
0
LINE
8
boundary
62
5
39
2
10
1.840661
20
35.622072
11
1.853191
21
35.595572
0
LINE
8
boundary
62
5
39
2
10
1.853191
20
35.595572
11
1.936648
21
35.595572
0
LINE
8
boundary
62
5
39
2
10
1.936648
20
35.595572
11
1.936648
21
35.090972
0
LINE
8
boundary
62
5
39
2
10
1.936648
20
35.090972
11
1.447872
21
35.090972
0
LINE
8
boundary
62
5
39
2
10
1.447872
20
35.090972
11
1.340330
21
34.945562
0
LINE
8
boundary
62
5
39
2
10
1.340330
20
34.945562
11
1.239447
21
34.694789
0
LINE
8
boundary
62
5
39
2
10
1.239447
20
34.694789
11
1.037918
21
33.222488
0
LINE
8
boundary
62
5
39
2
10
1.037918
20
33.222488
11
1.050448
21
33.195988
0
LINE
8
boundary
62
5
39
2
10
1.050448
20
33.195988
11
1.252305
21
33.195988
0
LINE
8
boundary
62
5
39
2
10
1.252305
20
33.195988
11
1.252305
21
32.691388
0
LINE
8
boundary
62
5
39
2
10
1.252305
20
32.691388
11
0.974123
21
32.691388
0
LINE
8
boundary
62
5
39
2
10
0.974123
20
32.691388
11
0.961593
21
32.664888
0
LINE
8
boundary
62
5
39
2
10
0.961593
20
32.664888
11
0.709462
21
30.822904
0
LINE
8
boundary
62
5
39
2
10
0.709462
20
30.822904
11
0.721992
21
30.796404
0
LINE
8
boundary
62
5
39
2
10
0.721992
20
30.796404
11
0.956831
21
30.796404
0
LINE
8
boundary
62
5
39
2
10
0.956831
20
30.796404
11
0.956831
21
30.291804
0
LINE
8
boundary
62
5
39
2
10
0.956831
20
30.291804
11
0.721990
21
30.291804
0
LINE
8
boundary
62
5
39
2
10
0.721990
20
30.291804
11
0.709460
21
30.265304
0
LINE
8
boundary
62
5
39
2
10
0.709460
20
30.265304
11
0.961592
21
28.423320
0
LINE
8
boundary
62
5
39
2
10
0.961592
20
28.423320
11
0.974122
21
28.396820
0
LINE
8
boundary
62
5
39
2
10
0.974122
20
28.396820
11
1.252304
21
28.396820
0
LINE
8
boundary
62
5
39
2
10
1.252304
20
28.396820
11
1.252304
21
27.892220
0
LINE
8
boundary
62
5
39
2
10
1.252304
20
27.892220
11
1.050447
21
27.892220
0
LINE
8
boundary
62
5
39
2
10
1.050447
20
27.892220
11
1.037917
21
27.865720
0
LINE
8
boundary
62
5
39
2
10
1.037917
20
27.865720
11
1.239447
21
26.393417
0
LINE
8
boundary
62
5
39
2
10
1.239447
20
26.393417
11
1.340330
21
26.142647
0
LINE
8
boundary
62
5
39
2
10
1.340330
20
26.142647
11
1.428274
21
26.023736
0
LINE
8
boundary
62
5
39
2
10
1.428274
20
26.023736
11
1.447872
21
25.997236
0
LINE
8
boundary
62
5
39
2
10
1.447872
20
25.997236
11
1.936650
21
25.997236
0
LINE
8
boundary
62
5
39
2
10
1.936650
20
25.997236
11
1.936650
21
25.492636
0
LINE
8
boundary
62
5
39
2
10
1.936650
20
25.492636
11
1.853192
21
25.492636
0
LINE
8
boundary
62
5
39
2
10
1.853192
20
25.492636
11
1.840662
21
25.466136
0
LINE
8
boundary
62
5
39
2
10
1.840662
20
25.466136
11
2.804468
21
24.162953
0
LINE
8
boundary
62
5
39
2
10
2.804468
20
24.162953
11
3.190398
21
23.927688
0
LINE
8
boundary
62
5
39
2
10
3.190398
20
23.927688
11
4.101512
21
23.624152
0
LINE
8
boundary
62
5
39
2
10
4.101512
20
23.624152
11
4.181056
21
23.597652
0
LINE
8
boundary
62
5
39
2
10
4.181056
20
23.597652
11
5.623978
21
23.597652
0
LINE
8
boundary
62
5
39
2
10
5.623978
20
23.597652
11
5.623978
21
23.093052
0
LINE
8
boundary
62
5
39
2
10
5.623978
20
23.093052
11
5.619515
21
23.083612
0
LINE
8
boundary
62
5
39
2
10
5.619515
20
23.083612
11
6.298488
21
22.790908
0
LINE
8
boundary
62
5
39
2
10
6.298488
20
22.790908
11
8.039116
21
22.251619
0
LINE
8
boundary
62
5
39
2
10
8.039116
20
22.251619
11
9.623749
21
22.163501
0
LINE
8
boundary
62
5
39
2
10
9.623749
20
22.163501
11
11.543018
21
22.351851
0
LINE
8
boundary
62
5
39
2
10
11.543018
20
22.351851
11
13.596012
21
23.094667
0
LINE
8
boundary
62
5
39
2
10
13.596012
20
23.094667
11
13.602267
21
23.098918
0
LINE
8
annotation
62
1
39
211
10
13.526196
20
23.270441
11
13.526196
21
23.420264
0
LINE
8
annotation
62
1
39
211
10
13.526196
20
23.420264
11
13.492889
21
23.386947
0
LINE
8
annotation
62
1
39
211
10
5.968276
20
23.223536
11
5.968276
21
23.467168
0
LINE
8
annotation
62
1
39
211
10
5.968276
20
23.467168
11
5.914114
21
23.412990
0
LINE
8
annotation
62
1
39
211
10
12.629435
20
23.265417
11
12.629435
21
23.425287
0
LINE
8
annotation
62
1
39
211
10
12.629435
20
23.425287
11
12.593894
21
23.389736
0
LINE
8
annotation
62
1
39
211
10
7.420907
20
23.177762
11
7.420907
21
23.512942
0
LINE
8
annotation
62
1
39
211
10
7.420907
20
23.512942
11
7.346392
21
23.438406
0
LINE
8
annotation
62
1
39
211
10
2.281844
20
25.419990
11
2.181522
21
25.419990
0
LINE
8
annotation
62
1
39
211
10
2.181522
20
25.419990
11
2.274223
21
25.569227
0
LINE
8
annotation
62
1
39
211
10
2.274223
20
25.569227
11
2.274223
21
25.569227
0
LINE
8
annotation
62
1
39
211
10
2.274223
20
25.569227
11
2.274334
21
25.569364
0
LINE
8
annotation
62
1
39
211
10
2.274334
20
25.569364
11
2.274440
21
25.569503
0
LINE
8
annotation
62
1
39
211
10
2.274440
20
25.569503
11
2.274543
21
25.569643
0
LINE
8
annotation
62
1
39
211
10
2.274543
20
25.569643
11
2.274642
21
25.569788
0
LINE
8
annotation
62
1
39
211
10
2.274642
20
25.569788
11
2.274739
21
25.569936
0
LINE
8
annotation
62
1
39
211
10
2.274739
20
25.569936
11
2.274834
21
25.570091
0
LINE
8
annotation
62
1
39
211
10
2.274834
20
25.570091
11
2.274928
21
25.570253
0
LINE
8
annotation
62
1
39
211
10
2.274928
20
25.570253
11
2.275022
21
25.570422
0
LINE
8
annotation
62
1
39
211
10
2.275022
20
25.570422
11
2.275116
21
25.570601
0
LINE
8
annotation
62
1
39
211
10
2.275116
20
25.570601
11
2.275116
21
25.570601
0
LINE
8
annotation
62
1
39
211
10
2.275116
20
25.570601
11
2.278943
21
25.578820
0
LINE
8
annotation
62
1
39
211
10
2.278943
20
25.578820
11
2.281179
21
25.587339
0
LINE
8
annotation
62
1
39
211
10
2.281179
20
25.587339
11
2.281879
21
25.595966
0
LINE
8
annotation
62
1
39
211
10
2.281879
20
25.595966
11
2.281096
21
25.604509
0
LINE
8
annotation
62
1
39
211
10
2.281096
20
25.604509
11
2.278886
21
25.612775
0
LINE
8
annotation
62
1
39
211
10
2.278886
20
25.612775
11
2.275303
21
25.620571
0
LINE
8
annotation
62
1
39
211
10
2.275303
20
25.620571
11
2.270404
21
25.627706
0
LINE
8
annotation
62
1
39
211
10
2.270404
20
25.627706
11
2.264241
21
25.633987
0
LINE
8
annotation
62
1
39
211
10
2.264241
20
25.633987
11
2.256870
21
25.639221
0
LINE
8
annotation
62
1
39
211
10
2.256870
20
25.639221
11
2.256870
21
25.639221
0
LINE
8
annotation
62
1
39
211
10
2.256870
20
25.639221
11
2.248629
21
25.642994
0
LINE
8
annotation
62
1
39
211
10
2.248629
20
25.642994
11
2.240097
21
25.645196
0
LINE
8
annotation
62
1
39
211
10
2.240097
20
25.645196
11
2.231465
21
25.645875
0
LINE
8
annotation
62
1
39
211
10
2.231465
20
25.645875
11
2.222923
21
25.645082
0
LINE
8
annotation
62
1
39
211
10
2.222923
20
25.645082
11
2.214663
21
25.642866
0
LINE
8
annotation
62
1
39
211
10
2.214663
20
25.642866
11
2.206875
21
25.639277
0
LINE
8
annotation
62
1
39
211
10
2.206875
20
25.639277
11
2.199750
21
25.634363
0
LINE
8
annotation
62
1
39
211
10
2.199750
20
25.634363
11
2.193478
21
25.628175
0
LINE
8
annotation
62
1
39
211
10
2.193478
20
25.628175
11
2.188250
21
25.620763
0
LINE
8
annotation
62
1
39
211
10
2.188250
20
25.620763
11
2.181663
21
25.608127
0
LINE
8
annotation
62
1
39
211
10
1.443496
20
27.845694
11
1.482060
21
27.845694
0
LINE
8
annotation
62
1
39
211
10
1.482060
20
27.845694
11
1.482060
21
27.845694
0
LINE
8
annotation
62
1
39
211
10
1.482060
20
27.845694
11
1.488996
21
27.846317
0
LINE
8
annotation
62
1
39
211
10
1.488996
20
27.846317
11
1.495522
21
27.848110
0
LINE
8
annotation
62
1
39
211
10
1.495522
20
27.848110
11
1.501530
21
27.850964
0
LINE
8
annotation
62
1
39
211
10
1.501530
20
27.850964
11
1.506912
21
27.854769
0
LINE
8
annotation
62
1
39
211
10
1.506912
20
27.854769
11
1.511559
21
27.859415
0
LINE
8
annotation
62
1
39
211
10
1.511559
20
27.859415
11
1.515362
21
27.864791
0
LINE
8
annotation
62
1
39
211
10
1.515362
20
27.864791
11
1.518213
21
27.870788
0
LINE
8
annotation
62
1
39
211
10
1.518213
20
27.870788
11
1.520003
21
27.877296
0
LINE
8
annotation
62
1
39
211
10
1.520003
20
27.877296
11
1.520624
21
27.884204
0
LINE
8
annotation
62
1
39
211
10
1.520624
20
27.884204
11
1.520624
21
27.903513
0
LINE
8
annotation
62
1
39
211
10
1.520624
20
27.903513
11
1.520624
21
27.903513
0
LINE
8
annotation
62
1
39
211
10
1.520624
20
27.903513
11
1.520003
21
27.910418
0
LINE
8
annotation
62
1
39
211
10
1.520003
20
27.910418
11
1.518213
21
27.916924
0
LINE
8
annotation
62
1
39
211
10
1.518213
20
27.916924
11
1.515362
21
27.922921
0
LINE
8
annotation
62
1
39
211
10
1.515362
20
27.922921
11
1.511559
21
27.928298
0
LINE
8
annotation
62
1
39
211
10
1.511559
20
27.928298
11
1.506912
21
27.932944
0
LINE
8
annotation
62
1
39
211
10
1.506912
20
27.932944
11
1.501530
21
27.936750
0
LINE
8
annotation
62
1
39
211
10
1.501530
20
27.936750
11
1.495522
21
27.939606
0
LINE
8
annotation
62
1
39
211
10
1.495522
20
27.939606
11
1.488996
21
27.941400
0
LINE
8
annotation
62
1
39
211
10
1.488996
20
27.941400
11
1.482060
21
27.942022
0
LINE
8
annotation
62
1
39
211
10
1.482060
20
27.942022
11
1.462751
21
27.942022
0
LINE
8
annotation
62
1
39
211
10
1.462751
20
27.942022
11
1.482060
21
27.942022
0
LINE
8
annotation
62
1
39
211
10
1.482060
20
27.942022
11
1.482060
21
27.942022
0
LINE
8
annotation
62
1
39
211
10
1.482060
20
27.942022
11
1.488996
21
27.942645
0
LINE
8
annotation
62
1
39
211
10
1.488996
20
27.942645
11
1.495522
21
27.944440
0
LINE
8
annotation
62
1
39
211
10
1.495522
20
27.944440
11
1.501530
21
27.947298
0
LINE
8
annotation
62
1
39
211
10
1.501530
20
27.947298
11
1.506912
21
27.951110
0
LINE
8
annotation
62
1
39
211
10
1.506912
20
27.951110
11
1.511559
21
27.955765
0
LINE
8
annotation
62
1
39
211
10
1.511559
20
27.955765
11
1.515362
21
27.961156
0
LINE
8
annotation
62
1
39
211
10
1.515362
20
27.961156
11
1.518213
21
27.967171
0
LINE
8
annotation
62
1
39
211
10
1.518213
20
27.967171
11
1.520003
21
27.973703
0
LINE
8
annotation
62
1
39
211
10
1.520003
20
27.973703
11
1.520624
21
27.980640
0
LINE
8
annotation
62
1
39
211
10
1.520624
20
27.980640
11
1.520624
21
27.980640
0
LINE
8
annotation
62
1
39
211
10
1.520624
20
27.980640
11
1.520003
21
27.987546
0
LINE
8
annotation
62
1
39
211
10
1.520003
20
27.987546
11
1.518213
21
27.994052
0
LINE
8
annotation
62
1
39
211
10
1.518213
20
27.994052
11
1.515362
21
28.000048
0
LINE
8
annotation
62
1
39
211
10
1.515362
20
28.000048
11
1.511559
21
28.005425
0
LINE
8
annotation
62
1
39
211
10
1.511559
20
28.005425
11
1.506912
21
28.010072
0
LINE
8
annotation
62
1
39
211
10
1.506912
20
28.010072
11
1.501530
21
28.013878
0
LINE
8
annotation
62
1
39
211
10
1.501530
20
28.013878
11
1.495522
21
28.016733
0
LINE
8
annotation
62
1
39
211
10
1.495522
20
28.016733
11
1.488996
21
28.018527
0
LINE
8
annotation
62
1
39
211
10
1.488996
20
28.018527
11
1.482060
21
28.019150
0
LINE
8
annotation
62
1
39
211
10
1.482060
20
28.019150
11
1.443496
21
28.019150
0
LINE
8
annotation
62
1
39
211
10
1.209909
20
30.288405
11
1.122531
21
30.288405
0
LINE
8
annotation
62
1
39
211
10
1.122531
20
30.288405
11
1.157427
21
30.410787
0
LINE
8
annotation
62
1
39
211
10
1.183717
20
30.253421
11
1.183717
21
30.323311
0
LINE
8
annotation
62
1
39
211
10
1.426750
20
32.865004
11
1.461695
21
32.865004
0
LINE
8
annotation
62
1
39
211
10
1.461695
20
32.865004
11
1.461695
21
32.865004
0
LINE
8
annotation
62
1
39
211
10
1.461695
20
32.865004
11
1.467967
21
32.865568
0
LINE
8
annotation
62
1
39
211
10
1.467967
20
32.865568
11
1.473874
21
32.867194
0
LINE
8
annotation
62
1
39
211
10
1.473874
20
32.867194
11
1.479317
21
32.869782
0
LINE
8
annotation
62
1
39
211
10
1.479317
20
32.869782
11
1.484196
21
32.873235
0
LINE
8
annotation
62
1
39
211
10
1.484196
20
32.873235
11
1.488410
21
32.877452
0
LINE
8
annotation
62
1
39
211
10
1.488410
20
32.877452
11
1.491862
21
32.882335
0
LINE
8
annotation
62
1
39
211
10
1.491862
20
32.882335
11
1.494450
21
32.887785
0
LINE
8
annotation
62
1
39
211
10
1.494450
20
32.887785
11
1.496077
21
32.893702
0
LINE
8
annotation
62
1
39
211
10
1.496077
20
32.893702
11
1.496641
21
32.899989
0
LINE
8
annotation
62
1
39
211
10
1.496641
20
32.899989
11
1.496641
21
32.917397
0
LINE
8
annotation
62
1
39
211
10
1.496641
20
32.917397
11
1.496641
21
32.917397
0
LINE
8
annotation
62
1
39
211
10
1.496641
20
32.917397
11
1.496077
21
32.923681
0
LINE
8
annotation
62
1
39
211
10
1.496077
20
32.923681
11
1.494452
21
32.929590
0
LINE
8
annotation
62
1
39
211
10
1.494452
20
32.929590
11
1.491864
21
32.935028
0
LINE
8
annotation
62
1
39
211
10
1.491864
20
32.935028
11
1.488414
21
32.939897
0
LINE
8
annotation
62
1
39
211
10
1.488414
20
32.939897
11
1.484200
21
32.944100
0
LINE
8
annotation
62
1
39
211
10
1.484200
20
32.944100
11
1.479321
21
32.947538
0
LINE
8
annotation
62
1
39
211
10
1.479321
20
32.947538
11
1.473878
21
32.950115
0
LINE
8
annotation
62
1
39
211
10
1.473878
20
32.950115
11
1.467970
21
32.951733
0
LINE
8
annotation
62
1
39
211
10
1.467970
20
32.951733
11
1.461695
21
32.952294
0
LINE
8
annotation
62
1
39
211
10
1.461695
20
32.952294
11
1.426750
21
32.952294
0
LINE
8
annotation
62
1
39
211
10
1.426750
20
32.952294
11
1.426750
21
33.022372
0
LINE
8
annotation
62
1
39
211
10
1.426750
20
33.022372
11
1.496641
21
33.022372
0
LINE
8
annotation
62
1
39
211
10
2.154875
20
35.418757
11
2.154875
21
35.418757
0
LINE
8
annotation
62
1
39
211
10
2.154875
20
35.418757
11
2.145271
21
35.415156
0
LINE
8
annotation
62
1
39
211
10
2.145271
20
35.415156
11
2.136458
21
35.410304
0
LINE
8
annotation
62
1
39
211
10
2.136458
20
35.410304
11
2.128527
21
35.404323
0
LINE
8
annotation
62
1
39
211
10
2.128527
20
35.404323
11
2.121568
21
35.397334
0
LINE
8
annotation
62
1
39
211
10
2.121568
20
35.397334
11
2.115671
21
35.389459
0
LINE
8
annotation
62
1
39
211
10
2.115671
20
35.389459
11
2.110927
21
35.380819
0
LINE
8
annotation
62
1
39
211
10
2.110927
20
35.380819
11
2.107426
21
35.371537
0
LINE
8
annotation
62
1
39
211
10
2.107426
20
35.371537
11
2.105260
21
35.361732
0
LINE
8
annotation
62
1
39
211
10
2.105260
20
35.361732
11
2.104517
21
35.351528
0
LINE
8
annotation
62
1
39
211
10
2.104517
20
35.351528
11
2.104517
21
35.301349
0
LINE
8
annotation
62
1
39
211
10
2.104517
20
35.301349
11
2.104517
21
35.301349
0
LINE
8
annotation
62
1
39
211
10
2.104517
20
35.301349
11
2.105058
21
35.295319
0
LINE
8
annotation
62
1
39
211
10
2.105058
20
35.295319
11
2.106619
21
35.289641
0
LINE
8
annotation
62
1
39
211
10
2.106619
20
35.289641
11
2.109102
21
35.284413
0
LINE
8
annotation
62
1
39
211
10
2.109102
20
35.284413
11
2.112413
21
35.279729
0
LINE
8
annotation
62
1
39
211
10
2.112413
20
35.279729
11
2.116457
21
35.275683
0
LINE
8
annotation
62
1
39
211
10
2.116457
20
35.275683
11
2.121137
21
35.272371
0
LINE
8
annotation
62
1
39
211
10
2.121137
20
35.272371
11
2.126358
21
35.269887
0
LINE
8
annotation
62
1
39
211
10
2.126358
20
35.269887
11
2.132025
21
35.268328
0
LINE
8
annotation
62
1
39
211
10
2.132025
20
35.268328
11
2.138042
21
35.267787
0
LINE
8
annotation
62
1
39
211
10
2.138042
20
35.267787
11
2.138042
21
35.267787
0
LINE
8
annotation
62
1
39
211
10
2.138042
20
35.267787
11
2.144072
21
35.268328
0
LINE
8
annotation
62
1
39
211
10
2.144072
20
35.268328
11
2.149745
21
35.269887
0
LINE
8
annotation
62
1
39
211
10
2.149745
20
35.269887
11
2.154968
21
35.272371
0
LINE
8
annotation
62
1
39
211
10
2.154968
20
35.272371
11
2.159647
21
35.275683
0
LINE
8
annotation
62
1
39
211
10
2.159647
20
35.275683
11
2.163686
21
35.279729
0
LINE
8
annotation
62
1
39
211
10
2.163686
20
35.279729
11
2.166993
21
35.284413
0
LINE
8
annotation
62
1
39
211
10
2.166993
20
35.284413
11
2.169471
21
35.289641
0
LINE
8
annotation
62
1
39
211
10
2.169471
20
35.289641
11
2.171027
21
35.295319
0
LINE
8
annotation
62
1
39
211
10
2.171027
20
35.295319
11
2.171567
21
35.301349
0
LINE
8
annotation
62
1
39
211
10
2.171567
20
35.301349
11
2.171567
21
35.318050
0
LINE
8
annotation
62
1
39
211
10
2.171567
20
35.318050
11
2.171567
21
35.318050
0
LINE
8
annotation
62
1
39
211
10
2.171567
20
35.318050
11
2.171027
21
35.324078
0
LINE
8
annotation
62
1
39
211
10
2.171027
20
35.324078
11
2.169471
21
35.329747
0
LINE
8
annotation
62
1
39
211
10
2.169471
20
35.329747
11
2.166993
21
35.334964
0
LINE
8
annotation
62
1
39
211
10
2.166993
20
35.334964
11
2.163686
21
35.339635
0
LINE
8
annotation
62
1
39
211
10
2.163686
20
35.339635
11
2.159647
21
35.343667
0
LINE
8
annotation
62
1
39
211
10
2.159647
20
35.343667
11
2.154968
21
35.346966
0
LINE
8
annotation
62
1
39
211
10
2.154968
20
35.346966
11
2.149745
21
35.349438
0
LINE
8
annotation
62
1
39
211
10
2.149745
20
35.349438
11
2.144072
21
35.350990
0
LINE
8
annotation
62
1
39
211
10
2.144072
20
35.350990
11
2.138042
21
35.351528
0
LINE
8
annotation
62
1
39
211
10
2.138042
20
35.351528
11
2.104517
21
35.351528
0
LINE
8
annotation
62
1
39
211
10
2.100318
20
35.248915
11
2.175804
21
35.248915
0
LINE
8
annotation
62
1
39
211
10
12.598369
20
37.666454
11
12.632339
21
37.819258
0
LINE
8
annotation
62
1
39
211
10
12.632339
20
37.819258
11
12.564389
21
37.819258
0
LINE
8
annotation
62
1
39
211
10
12.632339
20
37.751212
11
12.598369
21
37.751212
0
LINE
8
annotation
62
1
39
211
10
7.383641
20
37.575266
11
7.458156
21
37.910445
0
LINE
8
annotation
62
1
39
211
10
7.458156
20
37.910445
11
7.309105
21
37.910445
0
LINE
8
annotation
62
1
39
211
10
7.458156
20
37.761185
11
7.383641
21
37.761185
0
LINE
8
annotation
62
1
39
211
10
13.507499
20
37.666507
11
13.541445
21
37.819205
0
LINE
8
annotation
62
1
39
211
10
13.541445
20
37.819205
11
13.473543
21
37.819205
0
LINE
8
annotation
62
1
39
211
10
13.541445
20
37.751206
11
13.507499
21
37.751206
0
LINE
8
annotation
62
1
39
211
10
5.926670
20
37.626779
11
5.978280
21
37.858933
0
LINE
8
annotation
62
1
39
211
10
5.978280
20
37.858933
11
5.875044
21
37.858933
0
LINE
8
annotation
62
1
39
211
10
5.978280
20
37.755551
11
5.926670
21
37.755551
0
LINE
8
annotation
62
1
39
211
10
9.123111
20
22.565502
11
9.072797
21
22.492728
0
LINE
8
annotation
62
1
39
211
10
9.072797
20
22.492728
11
9.022474
21
22.565502
0
LINE
8
annotation
62
1
39
211
10
9.072797
20
22.498584
11
9.072797
21
22.414626
0
LINE
8
annotation
62
1
39
211
10
9.262196
20
22.490064
11
9.179705
21
22.490064
0
LINE
8
annotation
62
1
39
211
10
9.385771
20
22.414630
11
9.318768
21
22.414630
0
LINE
8
annotation
62
1
39
211
10
9.318768
20
22.414630
11
9.380681
21
22.514302
0
LINE
8
annotation
62
1
39
211
10
9.380681
20
22.514302
11
9.380681
21
22.514302
0
LINE
8
annotation
62
1
39
211
10
9.380681
20
22.514302
11
9.380755
21
22.514394
0
LINE
8
annotation
62
1
39
211
10
9.380755
20
22.514394
11
9.380826
21
22.514486
0
LINE
8
annotation
62
1
39
211
10
9.380826
20
22.514486
11
9.380895
21
22.514580
0
LINE
8
annotation
62
1
39
211
10
9.380895
20
22.514580
11
9.380961
21
22.514676
0
LINE
8
annotation
62
1
39
211
10
9.380961
20
22.514676
11
9.381026
21
22.514776
0
LINE
8
annotation
62
1
39
211
10
9.381026
20
22.514776
11
9.381089
21
22.514879
0
LINE
8
annotation
62
1
39
211
10
9.381089
20
22.514879
11
9.381152
21
22.514987
0
LINE
8
annotation
62
1
39
211
10
9.381152
20
22.514987
11
9.381215
21
22.515100
0
LINE
8
annotation
62
1
39
211
10
9.381215
20
22.515100
11
9.381277
21
22.515220
0
LINE
8
annotation
62
1
39
211
10
9.381277
20
22.515220
11
9.381277
21
22.515220
0
LINE
8
annotation
62
1
39
211
10
9.381277
20
22.515220
11
9.383834
21
22.520709
0
LINE
8
annotation
62
1
39
211
10
9.383834
20
22.520709
11
9.385327
21
22.526398
0
LINE
8
annotation
62
1
39
211
10
9.385327
20
22.526398
11
9.385794
21
22.532160
0
LINE
8
annotation
62
1
39
211
10
9.385794
20
22.532160
11
9.385271
21
22.537866
0
LINE
8
annotation
62
1
39
211
10
9.385271
20
22.537866
11
9.383795
21
22.543387
0
LINE
8
annotation
62
1
39
211
10
9.383795
20
22.543387
11
9.381403
21
22.548594
0
LINE
8
annotation
62
1
39
211
10
9.381403
20
22.548594
11
9.378130
21
22.553359
0
LINE
8
annotation
62
1
39
211
10
9.378130
20
22.553359
11
9.374014
21
22.557554
0
LINE
8
annotation
62
1
39
211
10
9.374014
20
22.557554
11
9.369092
21
22.561050
0
LINE
8
annotation
62
1
39
211
10
9.369092
20
22.561050
11
9.369092
21
22.561050
0
LINE
8
annotation
62
1
39
211
10
9.369092
20
22.561050
11
9.363588
21
22.563570
0
LINE
8
annotation
62
1
39
211
10
9.363588
20
22.563570
11
9.357889
21
22.565040
0
LINE
8
annotation
62
1
39
211
10
9.357889
20
22.565040
11
9.352124
21
22.565494
0
LINE
8
annotation
62
1
39
211
10
9.352124
20
22.565494
11
9.346419
21
22.564964
0
LINE
8
annotation
62
1
39
211
10
9.346419
20
22.564964
11
9.340903
21
22.563484
0
LINE
8
annotation
62
1
39
211
10
9.340903
20
22.563484
11
9.335701
21
22.561087
0
LINE
8
annotation
62
1
39
211
10
9.335701
20
22.561087
11
9.330942
21
22.557805
0
LINE
8
annotation
62
1
39
211
10
9.330942
20
22.557805
11
9.326753
21
22.553672
0
LINE
8
annotation
62
1
39
211
10
9.326753
20
22.553672
11
9.323262
21
22.548722
0
LINE
8
annotation
62
1
39
211
10
9.323262
20
22.548722
11
9.318863
21
22.540282
0
LINE
8
annotation
62
1
39
211
10
9.524863
20
22.490064
11
9.442372
21
22.490064
0
LINE
8
annotation
62
1
39
211
10
9.648438
20
22.414630
11
9.581435
21
22.414630
0
LINE
8
annotation
62
1
39
211
10
9.581435
20
22.414630
11
9.643348
21
22.514302
0
LINE
8
annotation
62
1
39
211
10
9.643348
20
22.514302
11
9.643348
21
22.514302
0
LINE
8
annotation
62
1
39
211
10
9.643348
20
22.514302
11
9.643422
21
22.514394
0
LINE
8
annotation
62
1
39
211
10
9.643422
20
22.514394
11
9.643493
21
22.514486
0
LINE
8
annotation
62
1
39
211
10
9.643493
20
22.514486
11
9.643562
21
22.514580
0
LINE
8
annotation
62
1
39
211
10
9.643562
20
22.514580
11
9.643628
21
22.514676
0
LINE
8
annotation
62
1
39
211
10
9.643628
20
22.514676
11
9.643693
21
22.514776
0
LINE
8
annotation
62
1
39
211
10
9.643693
20
22.514776
11
9.643756
21
22.514879
0
LINE
8
annotation
62
1
39
211
10
9.643756
20
22.514879
11
9.643819
21
22.514987
0
LINE
8
annotation
62
1
39
211
10
9.643819
20
22.514987
11
9.643882
21
22.515100
0
LINE
8
annotation
62
1
39
211
10
9.643882
20
22.515100
11
9.643944
21
22.515220
0
LINE
8
annotation
62
1
39
211
10
9.643944
20
22.515220
11
9.643944
21
22.515220
0
LINE
8
annotation
62
1
39
211
10
9.643944
20
22.515220
11
9.646501
21
22.520709
0
LINE
8
annotation
62
1
39
211
10
9.646501
20
22.520709
11
9.647994
21
22.526398
0
LINE
8
annotation
62
1
39
211
10
9.647994
20
22.526398
11
9.648461
21
22.532160
0
LINE
8
annotation
62
1
39
211
10
9.648461
20
22.532160
11
9.647938
21
22.537866
0
LINE
8
annotation
62
1
39
211
10
9.647938
20
22.537866
11
9.646462
21
22.543387
0
LINE
8
annotation
62
1
39
211
10
9.646462
20
22.543387
11
9.644070
21
22.548594
0
LINE
8
annotation
62
1
39
211
10
9.644070
20
22.548594
11
9.640797
21
22.553359
0
LINE
8
annotation
62
1
39
211
10
9.640797
20
22.553359
11
9.636681
21
22.557554
0
LINE
8
annotation
62
1
39
211
10
9.636681
20
22.557554
11
9.631759
21
22.561050
0
LINE
8
annotation
62
1
39
211
10
9.631759
20
22.561050
11
9.631759
21
22.561050
0
LINE
8
annotation
62
1
39
211
10
9.631759
20
22.561050
11
9.626255
21
22.563570
0
LINE
8
annotation
62
1
39
211
10
9.626255
20
22.563570
11
9.620556
21
22.565040
0
LINE
8
annotation
62
1
39
211
10
9.620556
20
22.565040
11
9.614791
21
22.565494
0
LINE
8
annotation
62
1
39
211
10
9.614791
20
22.565494
11
9.609086
21
22.564964
0
LINE
8
annotation
62
1
39
211
10
9.609086
20
22.564964
11
9.603570
21
22.563484
0
LINE
8
annotation
62
1
39
211
10
9.603570
20
22.563484
11
9.598368
21
22.561087
0
LINE
8
annotation
62
1
39
211
10
9.598368
20
22.561087
11
9.593609
21
22.557805
0
LINE
8
annotation
62
1
39
211
10
9.593609
20
22.557805
11
9.589420
21
22.553672
0
LINE
8
annotation
62
1
39
211
10
9.589420
20
22.553672
11
9.585929
21
22.548722
0
LINE
8
annotation
62
1
39
211
10
9.585929
20
22.548722
11
9.581530
21
22.540282
0
LINE
8
hole
62
5
39
2
10
26.831005
20
13.858613
11
26.823745
21
13.856074
0
LINE
8
hole
62
5
39
2
10
26.823745
20
13.856074
11
26.812526
21
13.872405
0
LINE
8
hole
62
5
39
2
10
26.812526
20
13.872405
11
26.790169
21
13.893308
0
LINE
8
hole
62
5
39
2
10
26.790169
20
13.893308
11
26.832245
21
13.901988
0
LINE
8
hole
62
5
39
2
10
26.832245
20
13.901988
11
26.875528
21
13.912968
0
LINE
8
hole
62
5
39
2
10
26.875528
20
13.912968
11
26.868644
21
13.876953
0
LINE
8
hole
62
5
39
2
10
26.868644
20
13.876953
11
26.831005
21
13.858613
0
LINE
8
hole
62
5
39
2
10
31.262203
20
8.028403
11
30.401636
21
6.186419
0
LINE
8
hole
62
5
39
2
10
30.401636
20
6.186419
11
30.414166
21
6.159919
0
LINE
8
hole
62
5
39
2
10
30.414166
20
6.159919
11
30.650937
21
6.159919
0
LINE
8
hole
62
5
39
2
10
30.650937
20
6.159919
11
30.650937
21
5.655319
0
LINE
8
hole
62
5
39
2
10
30.650937
20
5.655319
11
30.153657
21
5.655319
0
LINE
8
hole
62
5
39
2
10
30.153657
20
5.655319
11
30.141128
21
5.628821
0
LINE
8
hole
62
5
39
2
10
30.141128
20
5.628821
11
30.098385
21
5.537333
0
LINE
8
hole
62
5
39
2
10
30.098385
20
5.537333
11
29.485781
21
4.417560
0
LINE
8
hole
62
5
39
2
10
29.485781
20
4.417560
11
27.497057
21
3.850369
0
LINE
8
hole
62
5
39
2
10
27.497057
20
3.850369
11
26.663164
21
2.915995
0
LINE
8
hole
62
5
39
2
10
26.663164
20
2.915995
11
26.766679
21
2.828198
0
LINE
8
hole
62
5
39
2
10
26.766679
20
2.828198
11
26.772463
21
2.803751
0
LINE
8
hole
62
5
39
2
10
26.772463
20
2.803751
11
26.783987
21
2.776407
0
LINE
8
hole
62
5
39
2
10
26.783987
20
2.776407
11
26.781980
21
2.774786
0
LINE
8
hole
62
5
39
2
10
26.781980
20
2.774786
11
26.783861
21
2.773757
0
LINE
8
hole
62
5
39
2
10
26.783861
20
2.773757
11
26.794368
21
2.735835
0
LINE
8
hole
62
5
39
2
10
26.794368
20
2.735835
11
26.794533
21
2.735479
0
LINE
8
hole
62
5
39
2
10
26.794533
20
2.735479
11
26.796890
21
2.730380
0
LINE
8
hole
62
5
39
2
10
26.796890
20
2.730380
11
26.815857
21
2.759369
0
LINE
8
hole
62
5
39
2
10
26.815857
20
2.759369
11
26.834651
21
2.752421
0
LINE
8
hole
62
5
39
2
10
26.834651
20
2.752421
11
26.874141
21
2.733070
0
LINE
8
hole
62
5
39
2
10
26.874141
20
2.733070
11
26.874520
21
2.731793
0
LINE
8
hole
62
5
39
2
10
26.874520
20
2.731793
11
26.881527
21
2.701167
0
LINE
8
hole
62
5
39
2
10
26.881527
20
2.701167
11
26.844785
21
2.708633
0
LINE
8
hole
62
5
39
2
10
26.844785
20
2.708633
11
26.835452
21
2.710314
0
LINE
8
hole
62
5
39
2
10
26.835452
20
2.710314
11
26.796731
21
2.725363
0
LINE
8
hole
62
5
39
2
10
26.796731
20
2.725363
11
26.795318
21
2.723513
0
LINE
8
hole
62
5
39
2
10
26.795318
20
2.723513
11
26.812295
21
2.670290
0
LINE
8
hole
62
5
39
2
10
26.812295
20
2.670290
11
26.822818
21
2.610830
0
LINE
8
hole
62
5
39
2
10
26.822818
20
2.610830
11
26.763535
21
2.617783
0
LINE
8
hole
62
5
39
2
10
26.763535
20
2.617783
11
26.754005
21
2.614779
0
LINE
8
hole
62
5
39
2
10
26.754005
20
2.614779
11
26.710666
21
2.621225
0
LINE
8
hole
62
5
39
2
10
26.710666
20
2.621225
11
26.656087
21
2.785814
0
LINE
8
hole
62
5
39
2
10
26.656087
20
2.785814
11
26.655505
21
2.802303
0
LINE
8
hole
62
5
39
2
10
26.655505
20
2.802303
11
26.657980
21
2.897168
0
LINE
8
hole
62
5
39
2
10
26.657980
20
2.897168
11
26.556070
21
3.035417
0
LINE
8
hole
62
5
39
2
10
26.556070
20
3.035417
11
27.404883
21
4.039296
0
LINE
8
hole
62
5
39
2
10
27.404883
20
4.039296
11
29.240228
21
4.610727
0
LINE
8
hole
62
5
39
2
10
29.240228
20
4.610727
11
30.038902
21
6.060923
0
LINE
8
hole
62
5
39
2
10
30.038902
20
6.060923
11
31.089955
21
8.307195
0
LINE
8
hole
62
5
39
2
10
31.089955
20
8.307195
11
30.038902
21
10.553477
0
LINE
8
hole
62
5
39
2
10
30.038902
20
10.553477
11
29.240230
21
12.003679
0
LINE
8
hole
62
5
39
2
10
29.240230
20
12.003679
11
27.404786
21
12.574942
0
LINE
8
hole
62
5
39
2
10
27.404786
20
12.574942
11
26.555979
21
13.578521
0
LINE
8
hole
62
5
39
2
10
26.555979
20
13.578521
11
26.657841
21
13.716976
0
LINE
8
hole
62
5
39
2
10
26.657841
20
13.716976
11
26.682490
21
13.830101
0
LINE
8
hole
62
5
39
2
10
26.682490
20
13.830101
11
26.729933
21
14.003615
0
LINE
8
hole
62
5
39
2
10
26.729933
20
14.003615
11
26.757290
21
14.007314
0
LINE
8
hole
62
5
39
2
10
26.757290
20
14.007314
11
26.805713
21
14.012790
0
LINE
8
hole
62
5
39
2
10
26.805713
20
14.012790
11
26.804643
21
14.008620
0
LINE
8
hole
62
5
39
2
10
26.804643
20
14.008620
11
26.763990
21
13.850152
0
LINE
8
hole
62
5
39
2
10
26.763990
20
13.850152
11
26.763546
21
13.831481
0
LINE
8
hole
62
5
39
2
10
26.763546
20
13.831481
11
26.763792
21
13.812233
0
LINE
8
hole
62
5
39
2
10
26.763792
20
13.812233
11
26.763787
21
13.811331
0
LINE
8
hole
62
5
39
2
10
26.763787
20
13.811331
11
26.767871
21
13.784442
0
LINE
8
hole
62
5
39
2
10
26.767871
20
13.784442
11
26.664577
21
13.695961
0
LINE
8
hole
62
5
39
2
10
26.664577
20
13.695961
11
27.498607
21
12.761675
0
LINE
8
hole
62
5
39
2
10
27.498607
20
12.761675
11
29.485783
21
12.196846
0
LINE
8
hole
62
5
39
2
10
29.485783
20
12.196846
11
30.098384
21
11.077071
0
LINE
8
hole
62
5
39
2
10
30.098384
20
11.077071
11
30.141125
21
10.985586
0
LINE
8
hole
62
5
39
2
10
30.141125
20
10.985586
11
30.153655
21
10.959087
0
LINE
8
hole
62
5
39
2
10
30.153655
20
10.959087
11
30.650937
21
10.959087
0
LINE
8
hole
62
5
39
2
10
30.650937
20
10.959087
11
30.650937
21
10.454487
0
LINE
8
hole
62
5
39
2
10
30.650937
20
10.454487
11
30.414162
21
10.454487
0
LINE
8
hole
62
5
39
2
10
30.414162
20
10.454487
11
30.401632
21
10.427987
0
LINE
8
hole
62
5
39
2
10
30.401632
20
10.427987
11
31.262197
21
8.586002
0
LINE
8
hole
62
5
39
2
10
31.262197
20
8.586002
11
31.262719
21
8.584897
0
LINE
8
hole
62
5
39
2
10
31.262719
20
8.584897
11
31.274726
21
8.559503
0
LINE
8
hole
62
5
39
2
10
31.274726
20
8.559503
11
31.311444
21
8.559503
0
LINE
8
hole
62
5
39
2
10
31.311444
20
8.559503
11
31.712688
21
8.559503
0
LINE
8
hole
62
5
39
2
10
31.712688
20
8.559503
11
31.712688
21
8.054903
0
LINE
8
hole
62
5
39
2
10
31.712688
20
8.054903
11
31.311444
21
8.054903
0
LINE
8
hole
62
5
39
2
10
31.311444
20
8.054903
11
31.274733
21
8.054903
0
LINE
8
hole
62
5
39
2
10
31.274733
20
8.054903
11
31.262203
21
8.028403
0
LINE
8
boundary
62
5
39
2
10
27.590775
20
3.290368
11
30.101265
21
3.898720
0
LINE
8
boundary
62
5
39
2
10
30.101265
20
3.898720
11
30.225406
21
4.128475
0
LINE
8
boundary
62
5
39
2
10
30.225406
20
4.128475
11
32.176202
21
8.307196
0
LINE
8
boundary
62
5
39
2
10
32.176202
20
8.307196
11
30.225485
21
12.485783
0
LINE
8
boundary
62
5
39
2
10
30.225485
20
12.485783
11
30.101263
21
12.715614
0
LINE
8
boundary
62
5
39
2
10
30.101263
20
12.715614
11
27.685141
21
13.240945
0
LINE
8
boundary
62
5
39
2
10
27.685141
20
13.240945
11
27.617142
21
13.299415
0
LINE
8
boundary
62
5
39
2
10
27.617142
20
13.299415
11
27.590617
21
13.322845
0
LINE
8
boundary
62
5
39
2
10
27.590617
20
13.322845
11
27.526485
21
13.382062
0
LINE
8
boundary
62
5
39
2
10
27.526485
20
13.382062
11
27.457821
21
13.446373
0
LINE
8
boundary
62
5
39
2
10
27.457821
20
13.446373
11
27.363241
21
13.532969
0
LINE
8
boundary
62
5
39
2
10
27.363241
20
13.532969
11
27.035926
21
13.843107
0
LINE
8
boundary
62
5
39
2
10
27.035926
20
13.843107
11
26.887280
21
13.983399
0
LINE
8
boundary
62
5
39
2
10
26.887280
20
13.983399
11
26.888281
21
13.985228
0
LINE
8
boundary
62
5
39
2
10
26.888281
20
13.985228
11
26.852512
21
14.017956
0
LINE
8
boundary
62
5
39
2
10
26.852512
20
14.017956
11
26.852096
21
14.018337
0
LINE
8
boundary
62
5
39
2
10
26.852096
20
14.018337
11
26.852013
21
14.018426
0
LINE
8
boundary
62
5
39
2
10
26.852013
20
14.018426
11
26.852778
21
14.018214
0
LINE
8
boundary
62
5
39
2
10
26.852778
20
14.018214
11
26.896964
21
14.006100
0
LINE
8
boundary
62
5
39
2
10
26.896964
20
14.006100
11
26.894350
21
13.998371
0
LINE
8
boundary
62
5
39
2
10
26.894350
20
13.998371
11
26.896569
21
14.003209
0
LINE
8
boundary
62
5
39
2
10
26.896569
20
14.003209
11
26.898230
21
14.003416
0
LINE
8
boundary
62
5
39
2
10
26.898230
20
14.003416
11
26.899221
21
14.006668
0
LINE
8
boundary
62
5
39
2
10
26.899221
20
14.006668
11
26.944632
21
13.990947
0
LINE
8
boundary
62
5
39
2
10
26.944632
20
13.990947
11
26.949792
21
13.989121
0
LINE
8
boundary
62
5
39
2
10
26.949792
20
13.989121
11
26.954680
21
14.035798
0
LINE
8
boundary
62
5
39
2
10
26.954680
20
14.035798
11
27.307912
21
14.085070
0
LINE
8
boundary
62
5
39
2
10
27.307912
20
14.085070
11
27.325631
21
14.087269
0
LINE
8
boundary
62
5
39
2
10
27.325631
20
14.087269
11
27.353326
21
14.092026
0
LINE
8
boundary
62
5
39
2
10
27.353326
20
14.092026
11
27.352314
21
14.091936
0
LINE
8
boundary
62
5
39
2
10
27.352314
20
14.091936
11
27.352364
21
14.093203
0
LINE
8
boundary
62
5
39
2
10
27.352364
20
14.093203
11
27.352441
21
14.095174
0
LINE
8
boundary
62
5
39
2
10
27.352441
20
14.095174
11
27.352456
21
14.095562
0
LINE
8
boundary
62
5
39
2
10
27.352456
20
14.095562
11
27.350835
21
14.110314
0
LINE
8
boundary
62
5
39
2
10
27.350835
20
14.110314
11
27.335828
21
14.110474
0
LINE
8
boundary
62
5
39
2
10
27.335828
20
14.110474
11
27.332752
21
14.110178
0
LINE
8
boundary
62
5
39
2
10
27.332752
20
14.110178
11
27.329881
21
14.110411
0
LINE
8
boundary
62
5
39
2
10
27.329881
20
14.110411
11
27.328072
21
14.110557
0
LINE
8
boundary
62
5
39
2
10
27.328072
20
14.110557
11
27.310790
21
14.109178
0
LINE
8
boundary
62
5
39
2
10
27.310790
20
14.109178
11
26.960139
21
14.090410
0
LINE
8
boundary
62
5
39
2
10
26.960139
20
14.090410
11
26.962445
21
14.110063
0
LINE
8
boundary
62
5
39
2
10
26.962445
20
14.110063
11
26.963937
21
14.136121
0
LINE
8
boundary
62
5
39
2
10
26.963937
20
14.136121
11
27.323474
21
14.158117
0
LINE
8
boundary
62
5
39
2
10
27.323474
20
14.158117
11
27.352585
21
14.159015
0
LINE
8
boundary
62
5
39
2
10
27.352585
20
14.159015
11
27.352706
21
14.159757
0
LINE
8
boundary
62
5
39
2
10
27.352706
20
14.159757
11
27.465672
21
14.164940
0
LINE
8
boundary
62
5
39
2
10
27.465672
20
14.164940
11
27.489805
21
14.166025
0
LINE
8
boundary
62
5
39
2
10
27.489805
20
14.166025
11
27.486626
21
14.265638
0
LINE
8
boundary
62
5
39
2
10
27.486626
20
14.265638
11
27.469143
21
14.781413
0
LINE
8
boundary
62
5
39
2
10
27.469143
20
14.781413
11
27.102275
21
15.144841
0
LINE
8
boundary
62
5
39
2
10
27.102275
20
15.144841
11
27.101366
21
15.146101
0
LINE
8
boundary
62
5
39
2
10
27.101366
20
15.146101
11
27.021997
21
15.222302
0
LINE
8
boundary
62
5
39
2
10
27.021997
20
15.222302
11
26.603437
21
15.339378
0
LINE
8
boundary
62
5
39
2
10
26.603437
20
15.339378
11
26.603437
21
15.253655
0
LINE
8
boundary
62
5
39
2
10
26.603437
20
15.253655
11
26.590907
21
15.227155
0
LINE
8
boundary
62
5
39
2
10
26.590907
20
15.227155
11
25.011168
21
15.227155
0
LINE
8
boundary
62
5
39
2
10
25.011168
20
15.227155
11
25.011168
21
15.784755
0
LINE
8
boundary
62
5
39
2
10
25.011168
20
15.784755
11
24.937060
21
15.805484
0
LINE
8
boundary
62
5
39
2
10
24.937060
20
15.805484
11
23.269206
21
15.927656
0
LINE
8
boundary
62
5
39
2
10
23.269206
20
15.927656
11
21.789010
21
15.879269
0
LINE
8
boundary
62
5
39
2
10
21.789010
20
15.879269
11
21.489583
21
15.784755
0
LINE
8
boundary
62
5
39
2
10
21.489583
20
15.784755
11
21.502113
21
15.758255
0
LINE
8
boundary
62
5
39
2
10
21.502113
20
15.758255
11
23.416577
21
15.758255
0
LINE
8
boundary
62
5
39
2
10
23.416577
20
15.758255
11
23.416577
21
15.253655
0
LINE
8
boundary
62
5
39
2
10
23.416577
20
15.253655
11
19.962786
21
15.253655
0
LINE
8
boundary
62
5
39
2
10
19.962786
20
15.253655
11
19.903810
21
15.227155
0
LINE
8
boundary
62
5
39
2
10
19.903810
20
15.227155
11
19.284237
21
14.948757
0
LINE
8
boundary
62
5
39
2
10
19.284237
20
14.948757
11
17.094336
21
14.247251
0
LINE
8
boundary
62
5
39
2
10
17.094336
20
14.247251
11
16.957229
21
14.166810
0
LINE
8
boundary
62
5
39
2
10
16.957229
20
14.166810
11
16.380815
21
13.385171
0
LINE
8
boundary
62
5
39
2
10
16.380815
20
13.385171
11
16.393345
21
13.358671
0
LINE
8
boundary
62
5
39
2
10
16.393345
20
13.358671
11
22.764334
21
13.358671
0
LINE
8
boundary
62
5
39
2
10
22.764334
20
13.358671
11
22.764334
21
12.854071
0
LINE
8
boundary
62
5
39
2
10
22.764334
20
12.854071
11
15.989158
21
12.854071
0
LINE
8
boundary
62
5
39
2
10
15.989158
20
12.854071
11
15.969616
21
12.827571
0
LINE
8
boundary
62
5
39
2
10
15.969616
20
12.827571
11
15.664744
21
12.414153
0
LINE
8
boundary
62
5
39
2
10
15.664744
20
12.414153
11
15.598779
21
12.247698
0
LINE
8
boundary
62
5
39
2
10
15.598779
20
12.247698
11
15.440458
21
10.985587
0
LINE
8
boundary
62
5
39
2
10
15.440458
20
10.985587
11
15.452988
21
10.959087
0
LINE
8
boundary
62
5
39
2
10
15.452988
20
10.959087
11
22.716828
21
10.959087
0
LINE
8
boundary
62
5
39
2
10
22.716828
20
10.959087
11
22.716828
21
10.454487
0
LINE
8
boundary
62
5
39
2
10
22.716828
20
10.454487
11
15.383041
21
10.454487
0
LINE
8
boundary
62
5
39
2
10
15.383041
20
10.454487
11
15.370511
21
10.427987
0
LINE
8
boundary
62
5
39
2
10
15.370511
20
10.427987
11
15.139449
21
8.586003
0
LINE
8
boundary
62
5
39
2
10
15.139449
20
8.586003
11
15.151979
21
8.559503
0
LINE
8
boundary
62
5
39
2
10
15.151979
20
8.559503
11
23.087806
21
8.559503
0
LINE
8
boundary
62
5
39
2
10
23.087806
20
8.559503
11
23.087806
21
8.054903
0
LINE
8
boundary
62
5
39
2
10
23.087806
20
8.054903
11
15.151978
21
8.054903
0
LINE
8
boundary
62
5
39
2
10
15.151978
20
8.054903
11
15.139448
21
8.028403
0
LINE
8
boundary
62
5
39
2
10
15.139448
20
8.028403
11
15.370513
21
6.186419
0
LINE
8
boundary
62
5
39
2
10
15.370513
20
6.186419
11
15.383043
21
6.159919
0
LINE
8
boundary
62
5
39
2
10
15.383043
20
6.159919
11
22.716831
21
6.159919
0
LINE
8
boundary
62
5
39
2
10
22.716831
20
6.159919
11
22.716831
21
5.655319
0
LINE
8
boundary
62
5
39
2
10
22.716831
20
5.655319
11
15.452991
21
5.655319
0
LINE
8
boundary
62
5
39
2
10
15.452991
20
5.655319
11
15.440461
21
5.628819
0
LINE
8
boundary
62
5
39
2
10
15.440461
20
5.628819
11
15.598787
21
4.366692
0
LINE
8
boundary
62
5
39
2
10
15.598787
20
4.366692
11
15.664751
21
4.200239
0
LINE
8
boundary
62
5
39
2
10
15.664751
20
4.200239
11
15.989158
21
3.760335
0
LINE
8
boundary
62
5
39
2
10
15.989158
20
3.760335
11
22.813399
21
3.760335
0
LINE
8
boundary
62
5
39
2
10
22.813399
20
3.760335
11
22.813399
21
3.255735
0
LINE
8
boundary
62
5
39
2
10
22.813399
20
3.255735
11
16.393347
21
3.255735
0
LINE
8
boundary
62
5
39
2
10
16.393347
20
3.255735
11
16.380817
21
3.229235
0
LINE
8
boundary
62
5
39
2
10
16.380817
20
3.229235
11
16.957247
21
2.447583
0
LINE
8
boundary
62
5
39
2
10
16.957247
20
2.447583
11
17.094347
21
2.367147
0
LINE
8
boundary
62
5
39
2
10
17.094347
20
2.367147
11
19.284270
21
1.665638
0
LINE
8
boundary
62
5
39
2
10
19.284270
20
1.665638
11
19.903815
21
1.387251
0
LINE
8
boundary
62
5
39
2
10
19.903815
20
1.387251
11
19.962790
21
1.360751
0
LINE
8
boundary
62
5
39
2
10
19.962790
20
1.360751
11
20.050362
21
1.360751
0
LINE
8
boundary
62
5
39
2
10
20.050362
20
1.360751
11
23.418593
21
1.360751
0
LINE
8
boundary
62
5
39
2
10
23.418593
20
1.360751
11
23.418593
21
0.856151
0
LINE
8
boundary
62
5
39
2
10
23.418593
20
0.856151
11
21.502113
21
0.856151
0
LINE
8
boundary
62
5
39
2
10
21.502113
20
0.856151
11
21.489583
21
0.829651
0
LINE
8
boundary
62
5
39
2
10
21.489583
20
0.829651
11
21.789011
21
0.735137
0
LINE
8
boundary
62
5
39
2
10
21.789011
20
0.735137
11
23.269200
21
0.686750
0
LINE
8
boundary
62
5
39
2
10
23.269200
20
0.686750
11
24.937061
21
0.808922
0
LINE
8
boundary
62
5
39
2
10
24.937061
20
0.808922
11
25.011460
21
0.829651
0
LINE
8
boundary
62
5
39
2
10
25.011460
20
0.829651
11
25.011460
21
1.387251
0
LINE
8
boundary
62
5
39
2
10
25.011460
20
1.387251
11
26.599879
21
1.387251
0
LINE
8
boundary
62
5
39
2
10
26.599879
20
1.387251
11
26.612409
21
1.360751
0
LINE
8
boundary
62
5
39
2
10
26.612409
20
1.360751
11
26.612409
21
1.275700
0
LINE
8
boundary
62
5
39
2
10
26.612409
20
1.275700
11
27.021317
21
1.389628
0
LINE
8
boundary
62
5
39
2
10
27.021317
20
1.389628
11
27.117874
21
1.485733
0
LINE
8
boundary
62
5
39
2
10
27.117874
20
1.485733
11
27.451935
21
1.816864
0
LINE
8
boundary
62
5
39
2
10
27.451935
20
1.816864
11
27.470126
21
1.831138
0
LINE
8
boundary
62
5
39
2
10
27.470126
20
1.831138
11
27.476935
21
2.143676
0
LINE
8
boundary
62
5
39
2
10
27.476935
20
2.143676
11
27.486795
21
2.451397
0
LINE
8
boundary
62
5
39
2
10
27.486795
20
2.451397
11
27.400995
21
2.455269
0
LINE
8
boundary
62
5
39
2
10
27.400995
20
2.455269
11
27.355977
21
2.457276
0
LINE
8
boundary
62
5
39
2
10
27.355977
20
2.457276
11
27.359374
21
2.467245
0
LINE
8
boundary
62
5
39
2
10
27.359374
20
2.467245
11
27.081231
21
2.475958
0
LINE
8
boundary
62
5
39
2
10
27.081231
20
2.475958
11
27.080639
21
2.476014
0
LINE
8
boundary
62
5
39
2
10
27.080639
20
2.476014
11
27.070306
21
2.476997
0
LINE
8
boundary
62
5
39
2
10
27.070306
20
2.476997
11
27.011818
21
2.478563
0
LINE
8
boundary
62
5
39
2
10
27.011818
20
2.478563
11
26.978301
21
2.479200
0
LINE
8
boundary
62
5
39
2
10
26.978301
20
2.479200
11
26.978199
21
2.477925
0
LINE
8
boundary
62
5
39
2
10
26.978199
20
2.477925
11
26.977836
21
2.477924
0
LINE
8
boundary
62
5
39
2
10
26.977836
20
2.477924
11
26.963243
21
2.481537
0
LINE
8
boundary
62
5
39
2
10
26.963243
20
2.481537
11
26.962507
21
2.488562
0
LINE
8
boundary
62
5
39
2
10
26.962507
20
2.488562
11
26.960761
21
2.521047
0
LINE
8
boundary
62
5
39
2
10
26.960761
20
2.521047
11
27.115318
21
2.511940
0
LINE
8
boundary
62
5
39
2
10
27.115318
20
2.511940
11
27.278922
21
2.499805
0
LINE
8
boundary
62
5
39
2
10
27.278922
20
2.499805
11
27.333972
21
2.495814
0
LINE
8
boundary
62
5
39
2
10
27.333972
20
2.495814
11
27.337772
21
2.495032
0
LINE
8
boundary
62
5
39
2
10
27.337772
20
2.495032
11
27.361669
21
2.494957
0
LINE
8
boundary
62
5
39
2
10
27.361669
20
2.494957
11
27.361435
21
2.519627
0
LINE
8
boundary
62
5
39
2
10
27.361435
20
2.519627
11
27.360759
21
2.519534
0
LINE
8
boundary
62
5
39
2
10
27.360759
20
2.519534
11
27.319941
21
2.525283
0
LINE
8
boundary
62
5
39
2
10
27.319941
20
2.525283
11
27.360476
21
2.520718
0
LINE
8
boundary
62
5
39
2
10
27.360476
20
2.520718
11
27.354706
21
2.537684
0
LINE
8
boundary
62
5
39
2
10
27.354706
20
2.537684
11
27.165746
21
2.558967
0
LINE
8
boundary
62
5
39
2
10
27.165746
20
2.558967
11
26.955301
21
2.586542
0
LINE
8
boundary
62
5
39
2
10
26.955301
20
2.586542
11
26.952325
21
2.586932
0
LINE
8
boundary
62
5
39
2
10
26.952325
20
2.586932
11
26.947905
21
2.626831
0
LINE
8
boundary
62
5
39
2
10
26.947905
20
2.626831
11
26.943524
21
2.625075
0
LINE
8
boundary
62
5
39
2
10
26.943524
20
2.625075
11
26.898565
21
2.612732
0
LINE
8
boundary
62
5
39
2
10
26.898565
20
2.612732
11
26.897618
21
2.615284
0
LINE
8
boundary
62
5
39
2
10
26.897618
20
2.615284
11
26.896396
21
2.614611
0
LINE
8
boundary
62
5
39
2
10
26.896396
20
2.614611
11
26.892180
21
2.612296
0
LINE
8
boundary
62
5
39
2
10
26.892180
20
2.612296
11
26.892212
21
2.610651
0
LINE
8
boundary
62
5
39
2
10
26.892212
20
2.610651
11
26.892337
21
2.609995
0
LINE
8
boundary
62
5
39
2
10
26.892337
20
2.609995
11
26.890057
21
2.609283
0
LINE
8
boundary
62
5
39
2
10
26.890057
20
2.609283
11
26.860736
21
2.601413
0
LINE
8
boundary
62
5
39
2
10
26.860736
20
2.601413
11
26.854468
21
2.602787
0
LINE
8
boundary
62
5
39
2
10
26.854468
20
2.602787
11
26.858709
21
2.607247
0
LINE
8
boundary
62
5
39
2
10
26.858709
20
2.607247
11
26.889485
21
2.640737
0
LINE
8
boundary
62
5
39
2
10
26.889485
20
2.640737
11
26.960403
21
2.706690
0
LINE
8
boundary
62
5
39
2
10
26.960403
20
2.706690
11
27.365432
21
3.086347
0
LINE
8
boundary
62
5
39
2
10
27.365432
20
3.086347
11
27.454301
21
3.161861
0
LINE
8
boundary
62
5
39
2
10
27.454301
20
3.161861
11
27.528260
21
3.237184
0
LINE
8
boundary
62
5
39
2
10
27.528260
20
3.237184
11
27.590775
21
3.290368
0
LINE
8
annotation
62
1
39
211
10
26.979321
20
0.978328
11
26.979321
21
1.238575
0
LINE
8
annotation
62
1
39
211
10
26.979321
20
1.238575
11
26.921465
21
1.180702
0
LINE
8
annotation
62
1
39
211
10
20.278127
20
1.029445
11
20.278127
21
1.187458
0
LINE
8
annotation
62
1
39
211
10
20.278127
20
1.187458
11
20.242998
21
1.152319
0
LINE
8
annotation
62
1
39
211
10
24.162280
20
0.839916
11
24.162280
21
1.376987
0
LINE
8
annotation
62
1
39
211
10
24.162280
20
1.376987
11
24.042882
21
1.257555
0
LINE
8
annotation
62
1
39
211
10
24.074301
20
3.084028
11
23.697684
21
3.084028
0
LINE
8
annotation
62
1
39
211
10
23.697684
20
3.084028
11
24.045690
21
3.644274
0
LINE
8
annotation
62
1
39
211
10
24.045690
20
3.644274
11
24.045690
21
3.644274
0
LINE
8
annotation
62
1
39
211
10
24.045690
20
3.644274
11
24.046106
21
3.644789
0
LINE
8
annotation
62
1
39
211
10
24.046106
20
3.644789
11
24.046505
21
3.645308
0
LINE
8
annotation
62
1
39
211
10
24.046505
20
3.645308
11
24.046890
21
3.645836
0
LINE
8
annotation
62
1
39
211
10
24.046890
20
3.645836
11
24.047263
21
3.646377
0
LINE
8
annotation
62
1
39
211
10
24.047263
20
3.646377
11
24.047626
21
3.646936
0
LINE
8
annotation
62
1
39
211
10
24.047626
20
3.646936
11
24.047983
21
3.647516
0
LINE
8
annotation
62
1
39
211
10
24.047983
20
3.647516
11
24.048336
21
3.648123
0
LINE
8
annotation
62
1
39
211
10
24.048336
20
3.648123
11
24.048688
21
3.648760
0
LINE
8
annotation
62
1
39
211
10
24.048688
20
3.648760
11
24.049041
21
3.649433
0
LINE
8
annotation
62
1
39
211
10
24.049041
20
3.649433
11
24.049041
21
3.649433
0
LINE
8
annotation
62
1
39
211
10
24.049041
20
3.649433
11
24.063410
21
3.680284
0
LINE
8
annotation
62
1
39
211
10
24.063410
20
3.680284
11
24.071804
21
3.712265
0
LINE
8
annotation
62
1
39
211
10
24.071804
20
3.712265
11
24.074429
21
3.744651
0
LINE
8
annotation
62
1
39
211
10
24.074429
20
3.744651
11
24.071491
21
3.776722
0
LINE
8
annotation
62
1
39
211
10
24.071491
20
3.776722
11
24.063194
21
3.807753
0
LINE
8
annotation
62
1
39
211
10
24.063194
20
3.807753
11
24.049746
21
3.837022
0
LINE
8
annotation
62
1
39
211
10
24.049746
20
3.837022
11
24.031351
21
3.863807
0
LINE
8
annotation
62
1
39
211
10
24.031351
20
3.863807
11
24.008216
21
3.887385
0
LINE
8
annotation
62
1
39
211
10
24.008216
20
3.887385
11
23.980546
21
3.907034
0
LINE
8
annotation
62
1
39
211
10
23.980546
20
3.907034
11
23.980546
21
3.907034
0
LINE
8
annotation
62
1
39
211
10
23.980546
20
3.907034
11
23.949608
21
3.921199
0
LINE
8
annotation
62
1
39
211
10
23.949608
20
3.921199
11
23.917579
21
3.929464
0
LINE
8
annotation
62
1
39
211
10
23.917579
20
3.929464
11
23.885173
21
3.932015
0
LINE
8
annotation
62
1
39
211
10
23.885173
20
3.932015
11
23.853108
21
3.929037
0
LINE
8
annotation
62
1
39
211
10
23.853108
20
3.929037
11
23.822098
21
3.920718
0
LINE
8
annotation
62
1
39
211
10
23.822098
20
3.920718
11
23.792861
21
3.907243
0
LINE
8
annotation
62
1
39
211
10
23.792861
20
3.907243
11
23.766113
21
3.888797
0
LINE
8
annotation
62
1
39
211
10
23.766113
20
3.888797
11
23.742568
21
3.865568
0
LINE
8
annotation
62
1
39
211
10
23.742568
20
3.865568
11
23.722944
21
3.837741
0
LINE
8
annotation
62
1
39
211
10
23.722944
20
3.837741
11
23.698216
21
3.790305
0
LINE
8
annotation
62
1
39
211
10
30.874731
20
5.804935
11
30.920339
21
5.804935
0
LINE
8
annotation
62
1
39
211
10
30.920339
20
5.804935
11
30.920339
21
5.804935
0
LINE
8
annotation
62
1
39
211
10
30.920339
20
5.804935
11
30.928541
21
5.805670
0
LINE
8
annotation
62
1
39
211
10
30.928541
20
5.805670
11
30.936260
21
5.807791
0
LINE
8
annotation
62
1
39
211
10
30.936260
20
5.807791
11
30.943365
21
5.811167
0
LINE
8
annotation
62
1
39
211
10
30.943365
20
5.811167
11
30.949730
21
5.815666
0
LINE
8
annotation
62
1
39
211
10
30.949730
20
5.815666
11
30.955226
21
5.821161
0
LINE
8
annotation
62
1
39
211
10
30.955226
20
5.821161
11
30.959723
21
5.827519
0
LINE
8
annotation
62
1
39
211
10
30.959723
20
5.827519
11
30.963095
21
5.834612
0
LINE
8
annotation
62
1
39
211
10
30.963095
20
5.834612
11
30.965212
21
5.842308
0
LINE
8
annotation
62
1
39
211
10
30.965212
20
5.842308
11
30.965946
21
5.850478
0
LINE
8
annotation
62
1
39
211
10
30.965946
20
5.850478
11
30.965946
21
5.873314
0
LINE
8
annotation
62
1
39
211
10
30.965946
20
5.873314
11
30.965946
21
5.873314
0
LINE
8
annotation
62
1
39
211
10
30.965946
20
5.873314
11
30.965212
21
5.881480
0
LINE
8
annotation
62
1
39
211
10
30.965212
20
5.881480
11
30.963095
21
5.889175
0
LINE
8
annotation
62
1
39
211
10
30.963095
20
5.889175
11
30.959723
21
5.896267
0
LINE
8
annotation
62
1
39
211
10
30.959723
20
5.896267
11
30.955226
21
5.902625
0
LINE
8
annotation
62
1
39
211
10
30.955226
20
5.902625
11
30.949730
21
5.908121
0
LINE
8
annotation
62
1
39
211
10
30.949730
20
5.908121
11
30.943365
21
5.912622
0
LINE
8
annotation
62
1
39
211
10
30.943365
20
5.912622
11
30.936260
21
5.915999
0
LINE
8
annotation
62
1
39
211
10
30.936260
20
5.915999
11
30.928541
21
5.918121
0
LINE
8
annotation
62
1
39
211
10
30.928541
20
5.918121
11
30.920339
21
5.918857
0
LINE
8
annotation
62
1
39
211
10
30.920339
20
5.918857
11
30.897503
21
5.918857
0
LINE
8
annotation
62
1
39
211
10
30.897503
20
5.918857
11
30.920339
21
5.918857
0
LINE
8
annotation
62
1
39
211
10
30.920339
20
5.918857
11
30.920339
21
5.918857
0
LINE
8
annotation
62
1
39
211
10
30.920339
20
5.918857
11
30.928541
21
5.919593
0
LINE
8
annotation
62
1
39
211
10
30.928541
20
5.919593
11
30.936260
21
5.921716
0
LINE
8
annotation
62
1
39
211
10
30.936260
20
5.921716
11
30.943365
21
5.925096
0
LINE
8
annotation
62
1
39
211
10
30.943365
20
5.925096
11
30.949730
21
5.929604
0
LINE
8
annotation
62
1
39
211
10
30.949730
20
5.929604
11
30.955226
21
5.935110
0
LINE
8
annotation
62
1
39
211
10
30.955226
20
5.935110
11
30.959723
21
5.941485
0
LINE
8
annotation
62
1
39
211
10
30.959723
20
5.941485
11
30.963095
21
5.948600
0
LINE
8
annotation
62
1
39
211
10
30.963095
20
5.948600
11
30.965212
21
5.956324
0
LINE
8
annotation
62
1
39
211
10
30.965212
20
5.956324
11
30.965946
21
5.964529
0
LINE
8
annotation
62
1
39
211
10
30.965946
20
5.964529
11
30.965946
21
5.964529
0
LINE
8
annotation
62
1
39
211
10
30.965946
20
5.964529
11
30.965212
21
5.972695
0
LINE
8
annotation
62
1
39
211
10
30.965212
20
5.972695
11
30.963095
21
5.980390
0
LINE
8
annotation
62
1
39
211
10
30.963095
20
5.980390
11
30.959723
21
5.987482
0
LINE
8
annotation
62
1
39
211
10
30.959723
20
5.987482
11
30.955226
21
5.993840
0
LINE
8
annotation
62
1
39
211
10
30.955226
20
5.993840
11
30.949730
21
5.999336
0
LINE
8
annotation
62
1
39
211
10
30.949730
20
5.999336
11
30.943365
21
6.003837
0
LINE
8
annotation
62
1
39
211
10
30.943365
20
6.003837
11
30.936260
21
6.007214
0
LINE
8
annotation
62
1
39
211
10
30.936260
20
6.007214
11
30.928541
21
6.009336
0
LINE
8
annotation
62
1
39
211
10
30.928541
20
6.009336
11
30.920339
21
6.010072
0
LINE
8
annotation
62
1
39
211
10
30.920339
20
6.010072
11
30.874731
21
6.010072
0
LINE
8
annotation
62
1
39
211
10
23.601116
20
5.483646
11
23.789424
21
5.483646
0
LINE
8
annotation
62
1
39
211
10
23.789424
20
5.483646
11
23.789424
21
5.483646
0
LINE
8
annotation
62
1
39
211
10
23.789424
20
5.483646
11
23.823292
21
5.486684
0
LINE
8
annotation
62
1
39
211
10
23.823292
20
5.486684
11
23.855160
21
5.495440
0
LINE
8
annotation
62
1
39
211
10
23.855160
20
5.495440
11
23.884499
21
5.509377
0
LINE
8
annotation
62
1
39
211
10
23.884499
20
5.509377
11
23.910779
21
5.527956
0
LINE
8
annotation
62
1
39
211
10
23.910779
20
5.527956
11
23.933469
21
5.550642
0
LINE
8
annotation
62
1
39
211
10
23.933469
20
5.550642
11
23.952039
21
5.576895
0
LINE
8
annotation
62
1
39
211
10
23.952039
20
5.576895
11
23.965960
21
5.606179
0
LINE
8
annotation
62
1
39
211
10
23.965960
20
5.606179
11
23.974701
21
5.637956
0
LINE
8
annotation
62
1
39
211
10
23.974701
20
5.637956
11
23.977733
21
5.671688
0
LINE
8
annotation
62
1
39
211
10
23.977733
20
5.671688
11
23.977733
21
5.765976
0
LINE
8
annotation
62
1
39
211
10
23.977733
20
5.765976
11
23.977733
21
5.765976
0
LINE
8
annotation
62
1
39
211
10
23.977733
20
5.765976
11
23.974701
21
5.799694
0
LINE
8
annotation
62
1
39
211
10
23.974701
20
5.799694
11
23.965960
21
5.831464
0
LINE
8
annotation
62
1
39
211
10
23.965960
20
5.831464
11
23.952039
21
5.860745
0
LINE
8
annotation
62
1
39
211
10
23.952039
20
5.860745
11
23.933469
21
5.887000
0
LINE
8
annotation
62
1
39
211
10
23.933469
20
5.887000
11
23.910779
21
5.909690
0
LINE
8
annotation
62
1
39
211
10
23.910779
20
5.909690
11
23.884499
21
5.928275
0
LINE
8
annotation
62
1
39
211
10
23.884499
20
5.928275
11
23.855160
21
5.942218
0
LINE
8
annotation
62
1
39
211
10
23.855160
20
5.942218
11
23.823292
21
5.950978
0
LINE
8
annotation
62
1
39
211
10
23.823292
20
5.950978
11
23.789424
21
5.954018
0
LINE
8
annotation
62
1
39
211
10
23.789424
20
5.954018
11
23.695137
21
5.954018
0
LINE
8
annotation
62
1
39
211
10
23.695137
20
5.954018
11
23.789424
21
5.954018
0
LINE
8
annotation
62
1
39
211
10
23.789424
20
5.954018
11
23.789424
21
5.954018
0
LINE
8
annotation
62
1
39
211
10
23.789424
20
5.954018
11
23.823292
21
5.957059
0
LINE
8
annotation
62
1
39
211
10
23.823292
20
5.957059
11
23.855160
21
5.965825
0
LINE
8
annotation
62
1
39
211
10
23.855160
20
5.965825
11
23.884499
21
5.979781
0
LINE
8
annotation
62
1
39
211
10
23.884499
20
5.979781
11
23.910779
21
5.998393
0
LINE
8
annotation
62
1
39
211
10
23.910779
20
5.998393
11
23.933469
21
6.021127
0
LINE
8
annotation
62
1
39
211
10
23.933469
20
6.021127
11
23.952039
21
6.047449
0
LINE
8
annotation
62
1
39
211
10
23.952039
20
6.047449
11
23.965960
21
6.076823
0
LINE
8
annotation
62
1
39
211
10
23.965960
20
6.076823
11
23.974701
21
6.108716
0
LINE
8
annotation
62
1
39
211
10
23.974701
20
6.108716
11
23.977733
21
6.142593
0
LINE
8
annotation
62
1
39
211
10
23.977733
20
6.142593
11
23.977733
21
6.142593
0
LINE
8
annotation
62
1
39
211
10
23.977733
20
6.142593
11
23.974701
21
6.176311
0
LINE
8
annotation
62
1
39
211
10
23.974701
20
6.176311
11
23.965960
21
6.208081
0
LINE
8
annotation
62
1
39
211
10
23.965960
20
6.208081
11
23.952039
21
6.237362
0
LINE
8
annotation
62
1
39
211
10
23.952039
20
6.237362
11
23.933469
21
6.263618
0
LINE
8
annotation
62
1
39
211
10
23.933469
20
6.263618
11
23.910779
21
6.286307
0
LINE
8
annotation
62
1
39
211
10
23.910779
20
6.286307
11
23.884499
21
6.304893
0
LINE
8
annotation
62
1
39
211
10
23.884499
20
6.304893
11
23.855160
21
6.318835
0
LINE
8
annotation
62
1
39
211
10
23.855160
20
6.318835
11
23.823292
21
6.327595
0
LINE
8
annotation
62
1
39
211
10
23.823292
20
6.327595
11
23.789424
21
6.330635
0
LINE
8
annotation
62
1
39
211
10
23.789424
20
6.330635
11
23.601116
21
6.330635
0
LINE
8
annotation
62
1
39
211
10
31.477252
20
8.067369
11
31.421597
21
8.067369
0
LINE
8
annotation
62
1
39
211
10
31.421597
20
8.067369
11
31.443824
21
8.145321
0
LINE
8
annotation
62
1
39
211
10
31.460570
20
8.045086
11
31.460570
21
8.089602
0
LINE
8
annotation
62
1
39
211
10
24.395825
20
8.071724
11
23.924974
21
8.071724
0
LINE
8
annotation
62
1
39
211
10
23.924974
20
8.071724
11
24.113017
21
8.731203
0
LINE
8
annotation
62
1
39
211
10
24.254687
20
7.883203
11
24.254687
21
8.259820
0
LINE
8
annotation
62
1
39
211
10
32.072603
20
8.244082
11
31.946390
21
8.244082
0
LINE
8
annotation
62
1
39
211
10
31.946390
20
8.244082
11
31.996795
21
8.420858
0
LINE
8
annotation
62
1
39
211
10
32.034771
20
8.193548
11
32.034771
21
8.294502
0
LINE
8
annotation
62
1
39
211
10
30.927982
20
10.366191
11
30.985094
21
10.366191
0
LINE
8
annotation
62
1
39
211
10
30.985094
20
10.366191
11
30.985094
21
10.366191
0
LINE
8
annotation
62
1
39
211
10
30.985094
20
10.366191
11
30.995345
21
10.367113
0
LINE
8
annotation
62
1
39
211
10
30.995345
20
10.367113
11
31.004999
21
10.369770
0
LINE
8
annotation
62
1
39
211
10
31.004999
20
10.369770
11
31.013894
21
10.374001
0
LINE
8
annotation
62
1
39
211
10
31.013894
20
10.374001
11
31.021867
21
10.379643
0
LINE
8
annotation
62
1
39
211
10
31.021867
20
10.379643
11
31.028755
21
10.386535
0
LINE
8
annotation
62
1
39
211
10
31.028755
20
10.386535
11
31.034396
21
10.394516
0
LINE
8
annotation
62
1
39
211
10
31.034396
20
10.394516
11
31.038627
21
10.403423
0
LINE
8
annotation
62
1
39
211
10
31.038627
20
10.403423
11
31.041284
21
10.413094
0
LINE
8
annotation
62
1
39
211
10
31.041284
20
10.413094
11
31.042206
21
10.423368
0
LINE
8
annotation
62
1
39
211
10
31.042206
20
10.423368
11
31.042206
21
10.451820
0
LINE
8
annotation
62
1
39
211
10
31.042206
20
10.451820
11
31.042206
21
10.451820
0
LINE
8
annotation
62
1
39
211
10
31.042206
20
10.451820
11
31.041285
21
10.462089
0
LINE
8
annotation
62
1
39
211
10
31.041285
20
10.462089
11
31.038628
21
10.471747
0
LINE
8
annotation
62
1
39
211
10
31.038628
20
10.471747
11
31.034399
21
10.480634
0
LINE
8
annotation
62
1
39
211
10
31.034399
20
10.480634
11
31.028760
21
10.488592
0
LINE
8
annotation
62
1
39
211
10
31.028760
20
10.488592
11
31.021873
21
10.495460
0
LINE
8
annotation
62
1
39
211
10
31.021873
20
10.495460
11
31.013901
21
10.501080
0
LINE
8
annotation
62
1
39
211
10
31.013901
20
10.501080
11
31.005005
21
10.505291
0
LINE
8
annotation
62
1
39
211
10
31.005005
20
10.505291
11
30.995349
21
10.507935
0
LINE
8
annotation
62
1
39
211
10
30.995349
20
10.507935
11
30.985094
21
10.508851
0
LINE
8
annotation
62
1
39
211
10
30.985094
20
10.508851
11
30.927982
21
10.508851
0
LINE
8
annotation
62
1
39
211
10
30.927982
20
10.508851
11
30.927982
21
10.623383
0
LINE
8
annotation
62
1
39
211
10
30.927982
20
10.623383
11
31.042206
21
10.623383
0
LINE
8
annotation
62
1
39
211
10
23.601113
20
10.282787
11
23.789422
21
10.282787
0
LINE
8
annotation
62
1
39
211
10
23.789422
20
10.282787
11
23.789422
21
10.282787
0
LINE
8
annotation
62
1
39
211
10
23.789422
20
10.282787
11
23.823219
21
10.285826
0
LINE
8
annotation
62
1
39
211
10
23.823219
20
10.285826
11
23.855050
21
10.294587
0
LINE
8
annotation
62
1
39
211
10
23.855050
20
10.294587
11
23.884378
21
10.308536
0
LINE
8
annotation
62
1
39
211
10
23.884378
20
10.308536
11
23.910667
21
10.327140
0
LINE
8
annotation
62
1
39
211
10
23.910667
20
10.327140
11
23.933379
21
10.349865
0
LINE
8
annotation
62
1
39
211
10
23.933379
20
10.349865
11
23.951977
21
10.376178
0
LINE
8
annotation
62
1
39
211
10
23.951977
20
10.376178
11
23.965927
21
10.405545
0
LINE
8
annotation
62
1
39
211
10
23.965927
20
10.405545
11
23.974690
21
10.437433
0
LINE
8
annotation
62
1
39
211
10
23.974690
20
10.437433
11
23.977730
21
10.471308
0
LINE
8
annotation
62
1
39
211
10
23.977730
20
10.471308
11
23.977730
21
10.565117
0
LINE
8
annotation
62
1
39
211
10
23.977730
20
10.565117
11
23.977730
21
10.565117
0
LINE
8
annotation
62
1
39
211
10
23.977730
20
10.565117
11
23.974692
21
10.598976
0
LINE
8
annotation
62
1
39
211
10
23.974692
20
10.598976
11
23.965933
21
10.630819
0
LINE
8
annotation
62
1
39
211
10
23.965933
20
10.630819
11
23.951989
21
10.660123
0
LINE
8
annotation
62
1
39
211
10
23.951989
20
10.660123
11
23.933396
21
10.686361
0
LINE
8
annotation
62
1
39
211
10
23.933396
20
10.686361
11
23.910689
21
10.709006
0
LINE
8
annotation
62
1
39
211
10
23.910689
20
10.709006
11
23.884402
21
10.727535
0
LINE
8
annotation
62
1
39
211
10
23.884402
20
10.727535
11
23.855072
21
10.741420
0
LINE
8
annotation
62
1
39
211
10
23.855072
20
10.741420
11
23.823233
21
10.750137
0
LINE
8
annotation
62
1
39
211
10
23.823233
20
10.750137
11
23.789422
21
10.753160
0
LINE
8
annotation
62
1
39
211
10
23.789422
20
10.753160
11
23.601113
21
10.753160
0
LINE
8
annotation
62
1
39
211
10
23.601113
20
10.753160
11
23.601113
21
11.130787
0
LINE
8
annotation
62
1
39
211
10
23.601113
20
11.130787
11
23.977730
21
11.130787
0
LINE
8
annotation
62
1
39
211
10
23.931481
20
13.530371
11
23.931481
21
13.530371
0
LINE
8
annotation
62
1
39
211
10
23.931481
20
13.530371
11
23.877536
21
13.510145
0
LINE
8
annotation
62
1
39
211
10
23.877536
20
13.510145
11
23.828033
21
13.482892
0
LINE
8
annotation
62
1
39
211
10
23.828033
20
13.482892
11
23.783483
21
13.449296
0
LINE
8
annotation
62
1
39
211
10
23.783483
20
13.449296
11
23.744392
21
13.410039
0
LINE
8
annotation
62
1
39
211
10
23.744392
20
13.410039
11
23.711269
21
13.365805
0
LINE
8
annotation
62
1
39
211
10
23.711269
20
13.365805
11
23.684622
21
13.317275
0
LINE
8
annotation
62
1
39
211
10
23.684622
20
13.317275
11
23.664959
21
13.265133
0
LINE
8
annotation
62
1
39
211
10
23.664959
20
13.265133
11
23.652789
21
13.210062
0
LINE
8
annotation
62
1
39
211
10
23.652789
20
13.210062
11
23.648620
21
13.152743
0
LINE
8
annotation
62
1
39
211
10
23.648620
20
13.152743
11
23.648620
21
12.870892
0
LINE
8
annotation
62
1
39
211
10
23.648620
20
12.870892
11
23.648620
21
12.870892
0
LINE
8
annotation
62
1
39
211
10
23.648620
20
12.870892
11
23.651660
21
12.837017
0
LINE
8
annotation
62
1
39
211
10
23.651660
20
12.837017
11
23.660423
21
12.805129
0
LINE
8
annotation
62
1
39
211
10
23.660423
20
12.805129
11
23.674372
21
12.775762
0
LINE
8
annotation
62
1
39
211
10
23.674372
20
12.775762
11
23.692971
21
12.749449
0
LINE
8
annotation
62
1
39
211
10
23.692971
20
12.749449
11
23.715683
21
12.726724
0
LINE
8
annotation
62
1
39
211
10
23.715683
20
12.726724
11
23.741971
21
12.708120
0
LINE
8
annotation
62
1
39
211
10
23.741971
20
12.708120
11
23.771299
21
12.694171
0
LINE
8
annotation
62
1
39
211
10
23.771299
20
12.694171
11
23.803130
21
12.685410
0
LINE
8
annotation
62
1
39
211
10
23.803130
20
12.685410
11
23.836928
21
12.682371
0
LINE
8
annotation
62
1
39
211
10
23.836928
20
12.682371
11
23.836928
21
12.682371
0
LINE
8
annotation
62
1
39
211
10
23.836928
20
12.682371
11
23.870796
21
12.685410
0
LINE
8
annotation
62
1
39
211
10
23.870796
20
12.685410
11
23.902664
21
12.694171
0
LINE
8
annotation
62
1
39
211
10
23.902664
20
12.694171
11
23.932003
21
12.708120
0
LINE
8
annotation
62
1
39
211
10
23.932003
20
12.708120
11
23.958283
21
12.726724
0
LINE
8
annotation
62
1
39
211
10
23.958283
20
12.726724
11
23.980973
21
12.749449
0
LINE
8
annotation
62
1
39
211
10
23.980973
20
12.749449
11
23.999543
21
12.775762
0
LINE
8
annotation
62
1
39
211
10
23.999543
20
12.775762
11
24.013464
21
12.805129
0
LINE
8
annotation
62
1
39
211
10
24.013464
20
12.805129
11
24.022205
21
12.837017
0
LINE
8
annotation
62
1
39
211
10
24.022205
20
12.837017
11
24.025237
21
12.870892
0
LINE
8
annotation
62
1
39
211
10
24.025237
20
12.870892
11
24.025237
21
12.964701
0
LINE
8
annotation
62
1
39
211
10
24.025237
20
12.964701
11
24.025237
21
12.964701
0
LINE
8
annotation
62
1
39
211
10
24.025237
20
12.964701
11
24.022205
21
12.998559
0
LINE
8
annotation
62
1
39
211
10
24.022205
20
12.998559
11
24.013464
21
13.030403
0
LINE
8
annotation
62
1
39
211
10
24.013464
20
13.030403
11
23.999543
21
13.059707
0
LINE
8
annotation
62
1
39
211
10
23.999543
20
13.059707
11
23.980973
21
13.085945
0
LINE
8
annotation
62
1
39
211
10
23.980973
20
13.085945
11
23.958283
21
13.108590
0
LINE
8
annotation
62
1
39
211
10
23.958283
20
13.108590
11
23.932003
21
13.127119
0
LINE
8
annotation
62
1
39
211
10
23.932003
20
13.127119
11
23.902664
21
13.141004
0
LINE
8
annotation
62
1
39
211
10
23.902664
20
13.141004
11
23.870796
21
13.149721
0
LINE
8
annotation
62
1
39
211
10
23.870796
20
13.149721
11
23.836928
21
13.152743
0
LINE
8
annotation
62
1
39
211
10
23.836928
20
13.152743
11
23.648620
21
13.152743
0
LINE
8
annotation
62
1
39
211
10
23.625034
20
12.576371
11
24.049034
21
12.576371
0
LINE
8
annotation
62
1
39
211
10
24.091514
20
15.241034
11
24.209304
21
15.770876
0
LINE
8
annotation
62
1
39
211
10
24.209304
20
15.770876
11
23.973690
21
15.770876
0
LINE
8
annotation
62
1
39
211
10
24.209304
20
15.534929
11
24.091514
21
15.534929
0
LINE
8
annotation
62
1
39
211
10
26.940160
20
15.376333
11
26.997793
21
15.635577
0
LINE
8
annotation
62
1
39
211
10
26.997793
20
15.635577
11
26.882510
21
15.635577
0
LINE
8
annotation
62
1
39
211
10
26.997793
20
15.520132
11
26.940160
21
15.520132
0
LINE
8
annotation
62
1
39
211
10
20.251150
20
15.430710
11
20.284606
21
15.581199
0
LINE
8
annotation
62
1
39
211
10
20.284606
20
15.581199
11
20.217685
21
15.581199
0
LINE
8
annotation
62
1
39
211
10
20.284606
20
15.514184
11
20.251150
21
15.514184
0
LINE
8
annotation
62
1
39
211
10
24.983571
20
8.921650
11
24.573760
21
8.328896
0
LINE
8
annotation
62
1
39
211
10
24.573760
20
8.328896
11
24.163872
21
8.921650
0
LINE
8
annotation
62
1
39
211
10
24.573760
20
8.376597
11
24.573760
21
7.692756
0
LINE
8
annotation
62
1
39
211
10
26.116427
20
8.307203
11
25.444531
21
8.307203
0
LINE
8
annotation
62
1
39
211
10
27.122958
20
7.692785
11
26.577211
21
7.692785
0
LINE
8
annotation
62
1
39
211
10
26.577211
20
7.692785
11
27.081499
21
8.504624
0
LINE
8
annotation
62
1
39
211
10
27.081499
20
8.504624
11
27.081499
21
8.504624
0
LINE
8
annotation
62
1
39
211
10
27.081499
20
8.504624
11
27.082101
21
8.505370
0
LINE
8
annotation
62
1
39
211
10
27.082101
20
8.505370
11
27.082680
21
8.506122
0
LINE
8
annotation
62
1
39
211
10
27.082680
20
8.506122
11
27.083237
21
8.506887
0
LINE
8
annotation
62
1
39
211
10
27.083237
20
8.506887
11
27.083777
21
8.507671
0
LINE
8
annotation
62
1
39
211
10
27.083777
20
8.507671
11
27.084304
21
8.508480
0
LINE
8
annotation
62
1
39
211
10
27.084304
20
8.508480
11
27.084821
21
8.509322
0
LINE
8
annotation
62
1
39
211
10
27.084821
20
8.509322
11
27.085332
21
8.510201
0
LINE
8
annotation
62
1
39
211
10
27.085332
20
8.510201
11
27.085842
21
8.511124
0
LINE
8
annotation
62
1
39
211
10
27.085842
20
8.511124
11
27.086353
21
8.512099
0
LINE
8
annotation
62
1
39
211
10
27.086353
20
8.512099
11
27.086353
21
8.512099
0
LINE
8
annotation
62
1
39
211
10
27.086353
20
8.512099
11
27.107175
21
8.556805
0
LINE
8
annotation
62
1
39
211
10
27.107175
20
8.556805
11
27.119339
21
8.603147
0
LINE
8
annotation
62
1
39
211
10
27.119339
20
8.603147
11
27.123143
21
8.650078
0
LINE
8
annotation
62
1
39
211
10
27.123143
20
8.650078
11
27.118885
21
8.696550
0
LINE
8
annotation
62
1
39
211
10
27.118885
20
8.696550
11
27.106863
21
8.741517
0
LINE
8
annotation
62
1
39
211
10
27.106863
20
8.741517
11
27.087375
21
8.783930
0
LINE
8
annotation
62
1
39
211
10
27.087375
20
8.783930
11
27.060720
21
8.822744
0
LINE
8
annotation
62
1
39
211
10
27.060720
20
8.822744
11
27.027195
21
8.856910
0
LINE
8
annotation
62
1
39
211
10
27.027195
20
8.856910
11
26.987099
21
8.885383
0
LINE
8
annotation
62
1
39
211
10
26.987099
20
8.885383
11
26.987099
21
8.885383
0
LINE
8
annotation
62
1
39
211
10
26.987099
20
8.885383
11
26.942268
21
8.905909
0
LINE
8
annotation
62
1
39
211
10
26.942268
20
8.905909
11
26.895855
21
8.917885
0
LINE
8
annotation
62
1
39
211
10
26.895855
20
8.917885
11
26.848897
21
8.921581
0
LINE
8
annotation
62
1
39
211
10
26.848897
20
8.921581
11
26.802432
21
8.917267
0
LINE
8
annotation
62
1
39
211
10
26.802432
20
8.917267
11
26.757497
21
8.905212
0
LINE
8
annotation
62
1
39
211
10
26.757497
20
8.905212
11
26.715130
21
8.885685
0
LINE
8
annotation
62
1
39
211
10
26.715130
20
8.885685
11
26.676369
21
8.858957
0
LINE
8
annotation
62
1
39
211
10
26.676369
20
8.858957
11
26.642251
21
8.825296
0
LINE
8
annotation
62
1
39
211
10
26.642251
20
8.825296
11
26.613815
21
8.784972
0
LINE
8
annotation
62
1
39
211
10
26.613815
20
8.784972
11
26.577981
21
8.716234
0
LINE
8
annotation
62
1
39
211
10
28.255868
20
8.307203
11
27.583972
21
8.307203
0
LINE
8
annotation
62
1
39
211
10
28.989779
20
7.692795
11
28.989779
21
8.921611
0
LINE
8
annotation
62
1
39
211
10
28.989779
20
8.921611
11
28.716597
21
8.648353
0
LINE
8
hole
62
5
39
2
10
32.643550
20
18.844974
11
32.641926
21
18.852277
0
LINE
8
hole
62
5
39
2
10
32.641926
20
18.852277
11
32.671343
21
18.861987
0
LINE
8
hole
62
5
39
2
10
32.671343
20
18.861987
11
32.644314
21
18.843955
0
LINE
8
hole
62
5
39
2
10
32.644314
20
18.843955
11
32.643550
21
18.844974
0
LINE
8
hole
62
5
39
2
10
32.571870
20
18.822201
11
32.571511
21
18.822756
0
LINE
8
hole
62
5
39
2
10
32.571511
20
18.822756
11
32.616256
21
18.842171
0
LINE
8
hole
62
5
39
2
10
32.616256
20
18.842171
11
32.638820
21
18.843191
0
LINE
8
hole
62
5
39
2
10
32.638820
20
18.843191
11
32.640868
21
18.843568
0
LINE
8
hole
62
5
39
2
10
32.640868
20
18.843568
11
32.574618
21
18.816305
0
LINE
8
hole
62
5
39
2
10
32.574618
20
18.816305
11
32.571870
21
18.822201
0
LINE
8
hole
62
5
39
2
10
32.695379
20
25.476969
11
32.699068
21
25.474747
0
LINE
8
hole
62
5
39
2
10
32.699068
20
25.474747
11
32.733120
21
25.455662
0
LINE
8
hole
62
5
39
2
10
32.733120
20
25.455662
11
32.765008
21
25.437492
0
LINE
8
hole
62
5
39
2
10
32.765008
20
25.437492
11
32.764723
21
25.436957
0
LINE
8
hole
62
5
39
2
10
32.764723
20
25.436957
11
32.757644
21
25.439412
0
LINE
8
hole
62
5
39
2
10
32.757644
20
25.439412
11
32.696596
21
25.463037
0
LINE
8
hole
62
5
39
2
10
32.696596
20
25.463037
11
32.642678
21
25.483703
0
LINE
8
hole
62
5
39
2
10
32.642678
20
25.483703
11
32.641009
21
25.484642
0
LINE
8
hole
62
5
39
2
10
32.641009
20
25.484642
11
32.640391
21
25.485039
0
LINE
8
hole
62
5
39
2
10
32.640391
20
25.485039
11
32.637447
21
25.486018
0
LINE
8
hole
62
5
39
2
10
32.637447
20
25.486018
11
32.572634
21
25.514903
0
LINE
8
hole
62
5
39
2
10
32.572634
20
25.514903
11
32.572246
21
25.515050
0
LINE
8
hole
62
5
39
2
10
32.572246
20
25.515050
11
32.572821
21
25.515958
0
LINE
8
hole
62
5
39
2
10
32.572821
20
25.515958
11
32.578069
21
25.524036
0
LINE
8
hole
62
5
39
2
10
32.578069
20
25.524036
11
32.649244
21
25.497505
0
LINE
8
hole
62
5
39
2
10
32.649244
20
25.497505
11
32.649612
21
25.497367
0
LINE
8
hole
62
5
39
2
10
32.649612
20
25.497367
11
32.650416
21
25.498719
0
LINE
8
hole
62
5
39
2
10
32.650416
20
25.498719
11
32.695379
21
25.476969
0
LINE
8
boundary
62
5
39
2
10
25.407266
20
27.219749
11
24.814136
21
27.278688
0
LINE
8
boundary
62
5
39
2
10
24.814136
20
27.278688
11
24.206362
21
27.312814
0
LINE
8
boundary
62
5
39
2
10
24.206362
20
27.312814
11
23.951597
21
27.219749
0
LINE
8
boundary
62
5
39
2
10
23.951597
20
27.219749
11
25.407266
21
27.219749
0
LINE
8
boundary
62
5
39
2
10
23.951601
20
17.116813
11
24.206374
21
17.023746
0
LINE
8
boundary
62
5
39
2
10
24.206374
20
17.023746
11
24.814136
21
17.057872
0
LINE
8
boundary
62
5
39
2
10
24.814136
20
17.057872
11
25.407281
21
17.116813
0
LINE
8
boundary
62
5
39
2
10
25.407281
20
17.116813
11
23.951601
21
17.116813
0
LINE
8
boundary
62
5
39
2
10
15.256270
20
21.889481
11
15.844634
21
20.760238
0
LINE
8
boundary
62
5
39
2
10
15.844634
20
20.760238
11
16.555642
21
20.047497
0
LINE
8
boundary
62
5
39
2
10
16.555642
20
20.047497
11
16.582077
21
20.020997
0
LINE
8
boundary
62
5
39
2
10
16.582077
20
20.020997
11
17.643197
21
20.020997
0
LINE
8
boundary
62
5
39
2
10
17.643197
20
20.020997
11
17.382021
21
20.277008
0
LINE
8
boundary
62
5
39
2
10
17.382021
20
20.277008
11
16.285450
21
21.313867
0
LINE
8
boundary
62
5
39
2
10
16.285450
20
21.313867
11
15.899807
21
22.048563
0
LINE
8
boundary
62
5
39
2
10
15.899807
20
22.048563
11
15.899807
21
21.915981
0
LINE
8
boundary
62
5
39
2
10
15.899807
20
21.915981
11
15.527510
21
21.915981
0
LINE
8
boundary
62
5
39
2
10
15.527510
20
21.915981
11
15.475986
21
21.915981
0
LINE
8
boundary
62
5
39
2
10
15.475986
20
21.915981
11
15.268800
21
21.915981
0
LINE
8
boundary
62
5
39
2
10
15.268800
20
21.915981
11
15.256270
21
21.889481
0
LINE
8
boundary
62
5
39
2
10
16.582082
20
24.315565
11
16.555646
21
24.289065
0
LINE
8
boundary
62
5
39
2
10
16.555646
20
24.289065
11
15.844631
21
23.576315
0
LINE
8
boundary
62
5
39
2
10
15.844631
20
23.576315
11
15.256275
21
22.447081
0
LINE
8
boundary
62
5
39
2
10
15.256275
20
22.447081
11
15.268805
21
22.420581
0
LINE
8
boundary
62
5
39
2
10
15.268805
20
22.420581
11
15.360108
21
22.420581
0
LINE
8
boundary
62
5
39
2
10
15.360108
20
22.420581
11
15.527510
21
22.420581
0
LINE
8
boundary
62
5
39
2
10
15.527510
20
22.420581
11
15.899807
21
22.420581
0
LINE
8
boundary
62
5
39
2
10
15.899807
20
22.420581
11
15.899807
21
22.287988
0
LINE
8
boundary
62
5
39
2
10
15.899807
20
22.287988
11
16.285449
21
23.022684
0
LINE
8
boundary
62
5
39
2
10
16.285449
20
23.022684
11
17.382031
21
24.059559
0
LINE
8
boundary
62
5
39
2
10
17.382031
20
24.059559
11
17.643201
21
24.315565
0
LINE
8
boundary
62
5
39
2
10
17.643201
20
24.315565
11
16.582082
21
24.315565
0
LINE
8
boundary
62
5
39
2
10
20.510748
20
26.715149
11
20.410459
21
26.688649
0
LINE
8
boundary
62
5
39
2
10
20.410459
20
26.688649
11
18.444704
21
26.169228
0
LINE
8
boundary
62
5
39
2
10
18.444704
20
26.169228
11
18.098089
21
25.846095
0
LINE
8
boundary
62
5
39
2
10
18.098089
20
25.846095
11
17.603005
21
25.338979
0
LINE
8
boundary
62
5
39
2
10
17.603005
20
25.338979
11
17.111889
21
24.846665
0
LINE
8
boundary
62
5
39
2
10
17.111889
20
24.846665
11
17.124419
21
24.820165
0
LINE
8
boundary
62
5
39
2
10
17.124419
20
24.820165
11
18.157980
21
24.820165
0
LINE
8
boundary
62
5
39
2
10
18.157980
20
24.820165
11
18.409903
21
25.067107
0
LINE
8
boundary
62
5
39
2
10
18.409903
20
25.067107
11
19.140820
21
25.693341
0
LINE
8
boundary
62
5
39
2
10
19.140820
20
25.693341
11
20.715903
21
26.114324
0
LINE
8
boundary
62
5
39
2
10
20.715903
20
26.114324
11
21.985282
21
26.715149
0
LINE
8
boundary
62
5
39
2
10
21.985282
20
26.715149
11
20.510748
21
26.715149
0
LINE
8
boundary
62
5
39
2
10
17.111887
20
19.489897
11
17.602985
21
18.997602
0
LINE
8
boundary
62
5
39
2
10
17.602985
20
18.997602
11
18.098082
21
18.490435
0
LINE
8
boundary
62
5
39
2
10
18.098082
20
18.490435
11
18.444889
21
18.167153
0
LINE
8
boundary
62
5
39
2
10
18.444889
20
18.167153
11
20.408761
21
17.647913
0
LINE
8
boundary
62
5
39
2
10
20.408761
20
17.647913
11
20.508989
21
17.621413
0
LINE
8
boundary
62
5
39
2
10
20.508989
20
17.621413
11
21.985277
21
17.621413
0
LINE
8
boundary
62
5
39
2
10
21.985277
20
17.621413
11
20.715904
21
18.222235
0
LINE
8
boundary
62
5
39
2
10
20.715904
20
18.222235
11
19.140830
21
18.643216
0
LINE
8
boundary
62
5
39
2
10
19.140830
20
18.643216
11
18.409901
21
19.269457
0
LINE
8
boundary
62
5
39
2
10
18.409901
20
19.269457
11
18.157978
21
19.516397
0
LINE
8
boundary
62
5
39
2
10
18.157978
20
19.516397
11
17.124417
21
19.516397
0
LINE
8
boundary
62
5
39
2
10
17.124417
20
19.516397
11
17.111887
21
19.489897
0
LINE
8
boundary
62
5
39
2
10
18.049309
20
24.315565
11
17.305710
21
23.600595
0
LINE
8
boundary
62
5
39
2
10
17.305710
20
23.600595
11
16.458829
21
22.820812
0
LINE
8
boundary
62
5
39
2
10
16.458829
20
22.820812
11
16.262069
21
22.447081
0
LINE
8
boundary
62
5
39
2
10
16.262069
20
22.447081
11
16.274599
21
22.420581
0
LINE
8
boundary
62
5
39
2
10
16.274599
20
22.420581
11
25.074182
21
22.420581
0
LINE
8
boundary
62
5
39
2
10
25.074182
20
22.420581
11
25.074182
21
21.915981
0
LINE
8
boundary
62
5
39
2
10
25.074182
20
21.915981
11
16.274593
21
21.915981
0
LINE
8
boundary
62
5
39
2
10
16.274593
20
21.915981
11
16.262063
21
21.889481
0
LINE
8
boundary
62
5
39
2
10
16.262063
20
21.889481
11
16.458830
21
21.515738
0
LINE
8
boundary
62
5
39
2
10
16.458830
20
21.515738
11
17.305702
21
20.735968
0
LINE
8
boundary
62
5
39
2
10
17.305702
20
20.735968
11
18.049304
21
20.020997
0
LINE
8
boundary
62
5
39
2
10
18.049304
20
20.020997
11
33.176215
21
20.020997
0
LINE
8
boundary
62
5
39
2
10
33.176215
20
20.020997
11
33.419907
21
20.605230
0
LINE
8
boundary
62
5
39
2
10
33.419907
20
20.605230
11
34.058479
21
22.168272
0
LINE
8
boundary
62
5
39
2
10
34.058479
20
22.168272
11
33.419915
21
23.731317
0
LINE
8
boundary
62
5
39
2
10
33.419915
20
23.731317
11
33.176219
21
24.315565
0
LINE
8
boundary
62
5
39
2
10
33.176219
20
24.315565
11
18.049309
21
24.315565
0
LINE
8
boundary
62
5
39
2
10
30.838105
20
16.390164
11
33.426170
21
17.109445
0
LINE
8
boundary
62
5
39
2
10
33.426170
20
17.109445
11
33.375140
21
18.258336
0
LINE
8
boundary
62
5
39
2
10
33.375140
20
18.258336
11
33.219433
21
18.457827
0
LINE
8
boundary
62
5
39
2
10
33.219433
20
18.457827
11
33.135113
21
18.565928
0
LINE
8
boundary
62
5
39
2
10
33.135113
20
18.565928
11
33.329145
21
18.622112
0
LINE
8
boundary
62
5
39
2
10
33.329145
20
18.622112
11
33.591104
21
19.229291
0
LINE
8
boundary
62
5
39
2
10
33.591104
20
19.229291
11
34.199349
21
20.652880
0
LINE
8
boundary
62
5
39
2
10
34.199349
20
20.652880
11
34.845650
21
22.168276
0
LINE
8
boundary
62
5
39
2
10
34.845650
20
22.168276
11
34.197232
21
23.688585
0
LINE
8
boundary
62
5
39
2
10
34.197232
20
23.688585
11
33.590141
21
25.109512
0
LINE
8
boundary
62
5
39
2
10
33.590141
20
25.109512
11
33.329151
21
25.714448
0
LINE
8
boundary
62
5
39
2
10
33.329151
20
25.714448
11
33.136572
21
25.770711
0
LINE
8
boundary
62
5
39
2
10
33.136572
20
25.770711
11
33.219887
21
25.878062
0
LINE
8
boundary
62
5
39
2
10
33.219887
20
25.878062
11
33.375141
21
26.078222
0
LINE
8
boundary
62
5
39
2
10
33.375141
20
26.078222
11
33.426171
21
27.227115
0
LINE
8
boundary
62
5
39
2
10
33.426171
20
27.227115
11
30.838105
21
27.946397
0
LINE
8
boundary
62
5
39
2
10
30.838105
20
27.946397
11
30.364699
21
28.033192
0
LINE
8
boundary
62
5
39
2
10
30.364699
20
28.033192
11
30.013341
21
28.017095
0
LINE
8
boundary
62
5
39
2
10
30.013341
20
28.017095
11
28.296479
21
28.023892
0
LINE
8
boundary
62
5
39
2
10
28.296479
20
28.023892
11
25.758920
21
27.802379
0
LINE
8
boundary
62
5
39
2
10
25.758920
20
27.802379
11
24.765670
21
28.008903
0
LINE
8
boundary
62
5
39
2
10
24.765670
20
28.008903
11
23.900202
21
28.051404
0
LINE
8
boundary
62
5
39
2
10
23.900202
20
28.051404
11
21.963096
21
27.384885
0
LINE
8
boundary
62
5
39
2
10
21.963096
20
27.384885
11
21.665841
21
27.246249
0
LINE
8
boundary
62
5
39
2
10
21.665841
20
27.246249
11
21.678371
21
27.219749
0
LINE
8
boundary
62
5
39
2
10
21.678371
20
27.219749
11
23.279855
21
27.219749
0
LINE
8
boundary
62
5
39
2
10
23.279855
20
27.219749
11
24.115900
21
27.521671
0
LINE
8
boundary
62
5
39
2
10
24.115900
20
27.521671
11
24.797320
21
27.484877
0
LINE
8
boundary
62
5
39
2
10
24.797320
20
27.484877
11
25.715608
21
27.364828
0
LINE
8
boundary
62
5
39
2
10
25.715608
20
27.364828
11
25.818020
21
27.371716
0
LINE
8
boundary
62
5
39
2
10
25.818020
20
27.371716
11
25.885042
21
27.375025
0
LINE
8
boundary
62
5
39
2
10
25.885042
20
27.375025
11
26.051664
21
27.383249
0
LINE
8
boundary
62
5
39
2
10
26.051664
20
27.383249
11
28.089240
21
27.483691
0
LINE
8
boundary
62
5
39
2
10
28.089240
20
27.483691
11
29.987835
21
27.471186
0
LINE
8
boundary
62
5
39
2
10
29.987835
20
27.471186
11
30.342589
21
27.487948
0
LINE
8
boundary
62
5
39
2
10
30.342589
20
27.487948
11
30.803632
21
27.437236
0
LINE
8
boundary
62
5
39
2
10
30.803632
20
27.437236
11
31.934120
21
27.219749
0
LINE
8
boundary
62
5
39
2
10
31.934120
20
27.219749
11
33.286541
21
27.219749
0
LINE
8
boundary
62
5
39
2
10
33.286541
20
27.219749
11
33.286541
21
26.715149
0
LINE
8
boundary
62
5
39
2
10
33.286541
20
26.715149
11
33.193669
21
26.715149
0
LINE
8
boundary
62
5
39
2
10
33.193669
20
26.715149
11
33.181139
21
26.688649
0
LINE
8
boundary
62
5
39
2
10
33.181139
20
26.688649
11
33.171350
21
26.168832
0
LINE
8
boundary
62
5
39
2
10
33.171350
20
26.168832
11
33.067542
21
26.007749
0
LINE
8
boundary
62
5
39
2
10
33.067542
20
26.007749
11
32.949513
21
25.831886
0
LINE
8
boundary
62
5
39
2
10
32.949513
20
25.831886
11
32.942901
21
25.824324
0
LINE
8
boundary
62
5
39
2
10
32.942901
20
25.824324
11
32.870235
21
25.848162
0
LINE
8
boundary
62
5
39
2
10
32.870235
20
25.848162
11
32.996451
21
26.043232
0
LINE
8
boundary
62
5
39
2
10
32.996451
20
26.043232
11
33.091154
21
26.190256
0
LINE
8
boundary
62
5
39
2
10
33.091154
20
26.190256
11
33.096662
21
26.688649
0
LINE
8
boundary
62
5
39
2
10
33.096662
20
26.688649
11
31.796374
21
26.688649
0
LINE
8
boundary
62
5
39
2
10
31.796374
20
26.688649
11
31.796374
21
27.080248
0
LINE
8
boundary
62
5
39
2
10
31.796374
20
27.080248
11
30.798671
21
27.235547
0
LINE
8
boundary
62
5
39
2
10
30.798671
20
27.235547
11
30.336026
21
27.272241
0
LINE
8
boundary
62
5
39
2
10
30.336026
20
27.272241
11
29.973721
21
27.255168
0
LINE
8
boundary
62
5
39
2
10
29.973721
20
27.255168
11
27.955218
21
27.270972
0
LINE
8
boundary
62
5
39
2
10
27.955218
20
27.270972
11
26.458959
21
27.219749
0
LINE
8
boundary
62
5
39
2
10
26.458959
20
27.219749
11
26.606735
21
27.219749
0
LINE
8
boundary
62
5
39
2
10
26.606735
20
27.219749
11
26.606735
21
26.715149
0
LINE
8
boundary
62
5
39
2
10
26.606735
20
26.715149
11
22.570252
21
26.715149
0
LINE
8
boundary
62
5
39
2
10
22.570252
20
26.715149
11
22.462589
21
26.675820
0
LINE
8
boundary
62
5
39
2
10
22.462589
20
26.675820
11
20.787164
21
25.875672
0
LINE
8
boundary
62
5
39
2
10
20.787164
20
25.875672
11
19.413565
21
25.506618
0
LINE
8
boundary
62
5
39
2
10
19.413565
20
25.506618
11
18.580823
21
24.820165
0
LINE
8
boundary
62
5
39
2
10
18.580823
20
24.820165
11
32.965745
21
24.820165
0
LINE
8
boundary
62
5
39
2
10
32.965745
20
24.820165
11
32.798212
21
25.221817
0
LINE
8
boundary
62
5
39
2
10
32.798212
20
25.221817
11
32.031414
21
25.511540
0
LINE
8
boundary
62
5
39
2
10
32.031414
20
25.511540
11
30.578552
21
26.156743
0
LINE
8
boundary
62
5
39
2
10
30.578552
20
26.156743
11
31.213302
21
25.952149
0
LINE
8
boundary
62
5
39
2
10
31.213302
20
25.952149
11
32.029657
21
25.688487
0
LINE
8
boundary
62
5
39
2
10
32.029657
20
25.688487
11
32.125855
21
25.648770
0
LINE
8
boundary
62
5
39
2
10
32.125855
20
25.648770
11
32.142404
21
25.641941
0
LINE
8
boundary
62
5
39
2
10
32.142404
20
25.641941
11
32.571377
21
25.491457
0
LINE
8
boundary
62
5
39
2
10
32.571377
20
25.491457
11
32.780438
21
25.418119
0
LINE
8
boundary
62
5
39
2
10
32.780438
20
25.418119
11
32.826938
21
25.401806
0
LINE
8
boundary
62
5
39
2
10
32.826938
20
25.401806
11
32.909180
21
25.372927
0
LINE
8
boundary
62
5
39
2
10
32.909180
20
25.372927
11
32.951439
21
25.355500
0
LINE
8
boundary
62
5
39
2
10
32.951439
20
25.355500
11
32.960419
21
25.351813
0
LINE
8
boundary
62
5
39
2
10
32.960419
20
25.351813
11
33.085380
21
25.051265
0
LINE
8
boundary
62
5
39
2
10
33.085380
20
25.051265
11
33.181131
21
24.820165
0
LINE
8
boundary
62
5
39
2
10
33.181131
20
24.820165
11
33.542543
21
24.820165
0
LINE
8
boundary
62
5
39
2
10
33.542543
20
24.820165
11
33.542543
21
24.315565
0
LINE
8
boundary
62
5
39
2
10
33.542543
20
24.315565
11
33.390198
21
24.315565
0
LINE
8
boundary
62
5
39
2
10
33.390198
20
24.315565
11
34.164356
21
22.447081
0
LINE
8
boundary
62
5
39
2
10
34.164356
20
22.447081
11
34.176886
21
22.420581
0
LINE
8
boundary
62
5
39
2
10
34.176886
20
22.420581
11
34.497777
21
22.420581
0
LINE
8
boundary
62
5
39
2
10
34.497777
20
22.420581
11
34.497777
21
21.915981
0
LINE
8
boundary
62
5
39
2
10
34.497777
20
21.915981
11
34.176853
21
21.915981
0
LINE
8
boundary
62
5
39
2
10
34.176853
20
21.915981
11
34.164323
21
21.889482
0
LINE
8
boundary
62
5
39
2
10
34.164323
20
21.889482
11
33.389909
21
20.020997
0
LINE
8
boundary
62
5
39
2
10
33.389909
20
20.020997
11
33.542371
21
20.020997
0
LINE
8
boundary
62
5
39
2
10
33.542371
20
20.020997
11
33.542371
21
19.516397
0
LINE
8
boundary
62
5
39
2
10
33.542371
20
19.516397
11
33.180772
21
19.516397
0
LINE
8
boundary
62
5
39
2
10
33.180772
20
19.516397
11
33.093207
21
19.305124
0
LINE
8
boundary
62
5
39
2
10
33.093207
20
19.305124
11
32.961562
21
18.988526
0
LINE
8
boundary
62
5
39
2
10
32.961562
20
18.988526
11
32.952425
21
18.978815
0
LINE
8
boundary
62
5
39
2
10
32.952425
20
18.978815
11
32.800500
21
18.925470
0
LINE
8
boundary
62
5
39
2
10
32.800500
20
18.925470
11
32.749633
21
18.907627
0
LINE
8
boundary
62
5
39
2
10
32.749633
20
18.907627
11
32.504559
21
18.821656
0
LINE
8
boundary
62
5
39
2
10
32.504559
20
18.821656
11
32.492761
21
18.820907
0
LINE
8
boundary
62
5
39
2
10
32.492761
20
18.820907
11
32.142420
21
18.694622
0
LINE
8
boundary
62
5
39
2
10
32.142420
20
18.694622
11
32.120290
21
18.685490
0
LINE
8
boundary
62
5
39
2
10
32.120290
20
18.685490
11
32.003153
21
18.637127
0
LINE
8
boundary
62
5
39
2
10
32.003153
20
18.637127
11
31.187344
21
18.374253
0
LINE
8
boundary
62
5
39
2
10
31.187344
20
18.374253
11
30.516448
21
18.158497
0
LINE
8
boundary
62
5
39
2
10
30.516448
20
18.158497
11
32.028902
21
18.827062
0
LINE
8
boundary
62
5
39
2
10
32.028902
20
18.827062
11
32.798200
21
19.114734
0
LINE
8
boundary
62
5
39
2
10
32.798200
20
19.114734
11
32.965740
21
19.516397
0
LINE
8
boundary
62
5
39
2
10
32.965740
20
19.516397
11
18.580819
21
19.516397
0
LINE
8
boundary
62
5
39
2
10
18.580819
20
19.516397
11
19.413575
21
18.829938
0
LINE
8
boundary
62
5
39
2
10
19.413575
20
18.829938
11
20.787165
21
18.460887
0
LINE
8
boundary
62
5
39
2
10
20.787165
20
18.460887
11
22.462604
21
17.660733
0
LINE
8
boundary
62
5
39
2
10
22.462604
20
17.660733
11
22.570243
21
17.621413
0
LINE
8
boundary
62
5
39
2
10
22.570243
20
17.621413
11
26.606355
21
17.621413
0
LINE
8
boundary
62
5
39
2
10
26.606355
20
17.621413
11
26.606355
21
17.116813
0
LINE
8
boundary
62
5
39
2
10
26.606355
20
17.116813
11
26.482712
21
17.116813
0
LINE
8
boundary
62
5
39
2
10
26.482712
20
17.116813
11
27.955217
21
17.065588
0
LINE
8
boundary
62
5
39
2
10
27.955217
20
17.065588
11
29.973735
21
17.081393
0
LINE
8
boundary
62
5
39
2
10
29.973735
20
17.081393
11
30.336035
21
17.064321
0
LINE
8
boundary
62
5
39
2
10
30.336035
20
17.064321
11
30.798673
21
17.101014
0
LINE
8
boundary
62
5
39
2
10
30.798673
20
17.101014
11
31.796368
21
17.256310
0
LINE
8
boundary
62
5
39
2
10
31.796368
20
17.256310
11
31.796368
21
17.647913
0
LINE
8
boundary
62
5
39
2
10
31.796368
20
17.647913
11
33.096692
21
17.647913
0
LINE
8
boundary
62
5
39
2
10
33.096692
20
17.647913
11
33.091263
21
18.145924
0
LINE
8
boundary
62
5
39
2
10
33.091263
20
18.145924
11
32.996153
21
18.293039
0
LINE
8
boundary
62
5
39
2
10
32.996153
20
18.293039
11
32.870349
21
18.489196
0
LINE
8
boundary
62
5
39
2
10
32.870349
20
18.489196
11
32.943282
21
18.512909
0
LINE
8
boundary
62
5
39
2
10
32.943282
20
18.512909
11
32.947827
21
18.508410
0
LINE
8
boundary
62
5
39
2
10
32.947827
20
18.508410
11
33.067634
21
18.328735
0
LINE
8
boundary
62
5
39
2
10
33.067634
20
18.328735
11
33.171344
21
18.167748
0
LINE
8
boundary
62
5
39
2
10
33.171344
20
18.167748
11
33.181137
21
17.647913
0
LINE
8
boundary
62
5
39
2
10
33.181137
20
17.647913
11
33.193667
21
17.621413
0
LINE
8
boundary
62
5
39
2
10
33.193667
20
17.621413
11
33.286541
21
17.621413
0
LINE
8
boundary
62
5
39
2
10
33.286541
20
17.621413
11
33.286541
21
17.116813
0
LINE
8
boundary
62
5
39
2
10
33.286541
20
17.116813
11
31.934113
21
17.116813
0
LINE
8
boundary
62
5
39
2
10
31.934113
20
17.116813
11
30.803630
21
16.899326
0
LINE
8
boundary
62
5
39
2
10
30.803630
20
16.899326
11
30.342588
21
16.848614
0
LINE
8
boundary
62
5
39
2
10
30.342588
20
16.848614
11
29.987834
21
16.865376
0
LINE
8
boundary
62
5
39
2
10
29.987834
20
16.865376
11
28.089221
21
16.852870
0
LINE
8
boundary
62
5
39
2
10
28.089221
20
16.852870
11
26.050995
21
16.953344
0
LINE
8
boundary
62
5
39
2
10
26.050995
20
16.953344
11
25.872638
21
16.962148
0
LINE
8
boundary
62
5
39
2
10
25.872638
20
16.962148
11
25.817857
21
16.964853
0
LINE
8
boundary
62
5
39
2
10
25.817857
20
16.964853
11
25.713709
21
16.968637
0
LINE
8
boundary
62
5
39
2
10
25.713709
20
16.968637
11
24.797321
21
16.851683
0
LINE
8
boundary
62
5
39
2
10
24.797321
20
16.851683
11
24.115913
21
16.814889
0
LINE
8
boundary
62
5
39
2
10
24.115913
20
16.814889
11
23.279854
21
17.116813
0
LINE
8
boundary
62
5
39
2
10
23.279854
20
17.116813
11
21.678097
21
17.116813
0
LINE
8
boundary
62
5
39
2
10
21.678097
20
17.116813
11
21.665567
21
17.090313
0
LINE
8
boundary
62
5
39
2
10
21.665567
20
17.090313
11
21.963129
21
16.951621
0
LINE
8
boundary
62
5
39
2
10
21.963129
20
16.951621
11
23.900214
21
16.285156
0
LINE
8
boundary
62
5
39
2
10
23.900214
20
16.285156
11
24.765668
21
16.327657
0
LINE
8
boundary
62
5
39
2
10
24.765668
20
16.327657
11
25.756835
21
16.535556
0
LINE
8
boundary
62
5
39
2
10
25.756835
20
16.535556
11
28.296469
21
16.312669
0
LINE
8
boundary
62
5
39
2
10
28.296469
20
16.312669
11
30.013346
21
16.319467
0
LINE
8
boundary
62
5
39
2
10
30.013346
20
16.319467
11
30.364701
21
16.303370
0
LINE
8
boundary
62
5
39
2
10
30.364701
20
16.303370
11
30.838105
21
16.390164
0
LINE
8
annotation
62
1
39
211
10
33.410024
20
17.119481
11
33.376598
21
17.119481
0
LINE
8
annotation
62
1
39
211
10
33.376598
20
17.119481
11
33.407485
21
17.169205
0
LINE
8
annotation
62
1
39
211
10
33.407485
20
17.169205
11
33.407485
21
17.169205
0
LINE
8
annotation
62
1
39
211
10
33.407485
20
17.169205
11
33.407522
21
17.169251
0
LINE
8
annotation
62
1
39
211
10
33.407522
20
17.169251
11
33.407557
21
17.169297
0
LINE
8
annotation
62
1
39
211
10
33.407557
20
17.169297
11
33.407592
21
17.169344
0
LINE
8
annotation
62
1
39
211
10
33.407592
20
17.169344
11
33.407625
21
17.169392
0
LINE
8
annotation
62
1
39
211
10
33.407625
20
17.169392
11
33.407657
21
17.169441
0
LINE
8
annotation
62
1
39
211
10
33.407657
20
17.169441
11
33.407689
21
17.169493
0
LINE
8
annotation
62
1
39
211
10
33.407689
20
17.169493
11
33.407720
21
17.169547
0
LINE
8
annotation
62
1
39
211
10
33.407720
20
17.169547
11
33.407751
21
17.169603
0
LINE
8
annotation
62
1
39
211
10
33.407751
20
17.169603
11
33.407782
21
17.169663
0
LINE
8
annotation
62
1
39
211
10
33.407782
20
17.169663
11
33.407782
21
17.169663
0
LINE
8
annotation
62
1
39
211
10
33.407782
20
17.169663
11
33.409058
21
17.172401
0
LINE
8
annotation
62
1
39
211
10
33.409058
20
17.172401
11
33.409803
21
17.175240
0
LINE
8
annotation
62
1
39
211
10
33.409803
20
17.175240
11
33.410036
21
17.178114
0
LINE
8
annotation
62
1
39
211
10
33.410036
20
17.178114
11
33.409775
21
17.180961
0
LINE
8
annotation
62
1
39
211
10
33.409775
20
17.180961
11
33.409039
21
17.183715
0
LINE
8
annotation
62
1
39
211
10
33.409039
20
17.183715
11
33.407845
21
17.186313
0
LINE
8
annotation
62
1
39
211
10
33.407845
20
17.186313
11
33.406212
21
17.188690
0
LINE
8
annotation
62
1
39
211
10
33.406212
20
17.188690
11
33.404159
21
17.190782
0
LINE
8
annotation
62
1
39
211
10
33.404159
20
17.190782
11
33.401703
21
17.192526
0
LINE
8
annotation
62
1
39
211
10
33.401703
20
17.192526
11
33.401703
21
17.192526
0
LINE
8
annotation
62
1
39
211
10
33.401703
20
17.192526
11
33.398957
21
17.193784
0
LINE
8
annotation
62
1
39
211
10
33.398957
20
17.193784
11
33.396115
21
17.194517
0
LINE
8
annotation
62
1
39
211
10
33.396115
20
17.194517
11
33.393238
21
17.194744
0
LINE
8
annotation
62
1
39
211
10
33.393238
20
17.194744
11
33.390392
21
17.194479
0
LINE
8
annotation
62
1
39
211
10
33.390392
20
17.194479
11
33.387640
21
17.193741
0
LINE
8
annotation
62
1
39
211
10
33.387640
20
17.193741
11
33.385045
21
17.192545
0
LINE
8
annotation
62
1
39
211
10
33.385045
20
17.192545
11
33.382671
21
17.190908
0
LINE
8
annotation
62
1
39
211
10
33.382671
20
17.190908
11
33.380582
21
17.188846
0
LINE
8
annotation
62
1
39
211
10
33.380582
20
17.188846
11
33.378840
21
17.186376
0
LINE
8
annotation
62
1
39
211
10
33.378840
20
17.186376
11
33.376645
21
17.182166
0
LINE
8
annotation
62
1
39
211
10
27.195590
20
17.173268
11
27.021634
21
17.173268
0
LINE
8
annotation
62
1
39
211
10
27.021634
20
17.173268
11
27.182375
21
17.432041
0
LINE
8
annotation
62
1
39
211
10
27.182375
20
17.432041
11
27.182375
21
17.432041
0
LINE
8
annotation
62
1
39
211
10
27.182375
20
17.432041
11
27.182567
21
17.432279
0
LINE
8
annotation
62
1
39
211
10
27.182567
20
17.432279
11
27.182751
21
17.432519
0
LINE
8
annotation
62
1
39
211
10
27.182751
20
17.432519
11
27.182929
21
17.432762
0
LINE
8
annotation
62
1
39
211
10
27.182929
20
17.432762
11
27.183101
21
17.433012
0
LINE
8
annotation
62
1
39
211
10
27.183101
20
17.433012
11
27.183269
21
17.433270
0
LINE
8
annotation
62
1
39
211
10
27.183269
20
17.433270
11
27.183434
21
17.433539
0
LINE
8
annotation
62
1
39
211
10
27.183434
20
17.433539
11
27.183597
21
17.433819
0
LINE
8
annotation
62
1
39
211
10
27.183597
20
17.433819
11
27.183759
21
17.434113
0
LINE
8
annotation
62
1
39
211
10
27.183759
20
17.434113
11
27.183923
21
17.434424
0
LINE
8
annotation
62
1
39
211
10
27.183923
20
17.434424
11
27.183923
21
17.434424
0
LINE
8
annotation
62
1
39
211
10
27.183923
20
17.434424
11
27.190560
21
17.448674
0
LINE
8
annotation
62
1
39
211
10
27.190560
20
17.448674
11
27.194437
21
17.463445
0
LINE
8
annotation
62
1
39
211
10
27.194437
20
17.463445
11
27.195649
21
17.478405
0
LINE
8
annotation
62
1
39
211
10
27.195649
20
17.478405
11
27.194292
21
17.493218
0
LINE
8
annotation
62
1
39
211
10
27.194292
20
17.493218
11
27.190460
21
17.507551
0
LINE
8
annotation
62
1
39
211
10
27.190460
20
17.507551
11
27.184248
21
17.521070
0
LINE
8
annotation
62
1
39
211
10
27.184248
20
17.521070
11
27.175752
21
17.533442
0
LINE
8
annotation
62
1
39
211
10
27.175752
20
17.533442
11
27.165066
21
17.544332
0
LINE
8
annotation
62
1
39
211
10
27.165066
20
17.544332
11
27.152285
21
17.553408
0
LINE
8
annotation
62
1
39
211
10
27.152285
20
17.553408
11
27.152285
21
17.553408
0
LINE
8
annotation
62
1
39
211
10
27.152285
20
17.553408
11
27.137995
21
17.559950
0
LINE
8
annotation
62
1
39
211
10
27.137995
20
17.559950
11
27.123201
21
17.563768
0
LINE
8
annotation
62
1
39
211
10
27.123201
20
17.563768
11
27.108233
21
17.564946
0
LINE
8
annotation
62
1
39
211
10
27.108233
20
17.564946
11
27.093423
21
17.563571
0
LINE
8
annotation
62
1
39
211
10
27.093423
20
17.563571
11
27.079100
21
17.559728
0
LINE
8
annotation
62
1
39
211
10
27.079100
20
17.559728
11
27.065595
21
17.553504
0
LINE
8
annotation
62
1
39
211
10
27.065595
20
17.553504
11
27.053240
21
17.544985
0
LINE
8
annotation
62
1
39
211
10
27.053240
20
17.544985
11
27.042365
21
17.534255
0
LINE
8
annotation
62
1
39
211
10
27.042365
20
17.534255
11
27.033301
21
17.521402
0
LINE
8
annotation
62
1
39
211
10
27.033301
20
17.521402
11
27.021879
21
17.499492
0
LINE
8
annotation
62
1
39
211
10
33.700433
20
19.697987
11
33.731839
21
19.697987
0
LINE
8
annotation
62
1
39
211
10
33.731839
20
19.697987
11
33.731839
21
19.697987
0
LINE
8
annotation
62
1
39
211
10
33.731839
20
19.697987
11
33.737488
21
19.698494
0
LINE
8
annotation
62
1
39
211
10
33.737488
20
19.698494
11
33.742803
21
19.699954
0
LINE
8
annotation
62
1
39
211
10
33.742803
20
19.699954
11
33.747696
21
19.702279
0
LINE
8
annotation
62
1
39
211
10
33.747696
20
19.702279
11
33.752079
21
19.705377
0
LINE
8
annotation
62
1
39
211
10
33.752079
20
19.705377
11
33.755863
21
19.709161
0
LINE
8
annotation
62
1
39
211
10
33.755863
20
19.709161
11
33.758960
21
19.713539
0
LINE
8
annotation
62
1
39
211
10
33.758960
20
19.713539
11
33.761282
21
19.718423
0
LINE
8
annotation
62
1
39
211
10
33.761282
20
19.718423
11
33.762739
21
19.723723
0
LINE
8
annotation
62
1
39
211
10
33.762739
20
19.723723
11
33.763245
21
19.729349
0
LINE
8
annotation
62
1
39
211
10
33.763245
20
19.729349
11
33.763245
21
19.745074
0
LINE
8
annotation
62
1
39
211
10
33.763245
20
19.745074
11
33.763245
21
19.745074
0
LINE
8
annotation
62
1
39
211
10
33.763245
20
19.745074
11
33.762739
21
19.750698
0
LINE
8
annotation
62
1
39
211
10
33.762739
20
19.750698
11
33.761282
21
19.755996
0
LINE
8
annotation
62
1
39
211
10
33.761282
20
19.755996
11
33.758960
21
19.760880
0
LINE
8
annotation
62
1
39
211
10
33.758960
20
19.760880
11
33.755863
21
19.765259
0
LINE
8
annotation
62
1
39
211
10
33.755863
20
19.765259
11
33.752079
21
19.769043
0
LINE
8
annotation
62
1
39
211
10
33.752079
20
19.769043
11
33.747696
21
19.772142
0
LINE
8
annotation
62
1
39
211
10
33.747696
20
19.772142
11
33.742803
21
19.774468
0
LINE
8
annotation
62
1
39
211
10
33.742803
20
19.774468
11
33.737488
21
19.775929
0
LINE
8
annotation
62
1
39
211
10
33.737488
20
19.775929
11
33.731839
21
19.776436
0
LINE
8
annotation
62
1
39
211
10
33.731839
20
19.776436
11
33.716114
21
19.776436
0
LINE
8
annotation
62
1
39
211
10
33.716114
20
19.776436
11
33.731839
21
19.776436
0
LINE
8
annotation
62
1
39
211
10
33.731839
20
19.776436
11
33.731839
21
19.776436
0
LINE
8
annotation
62
1
39
211
10
33.731839
20
19.776436
11
33.737488
21
19.776943
0
LINE
8
annotation
62
1
39
211
10
33.737488
20
19.776943
11
33.742803
21
19.778405
0
LINE
8
annotation
62
1
39
211
10
33.742803
20
19.778405
11
33.747696
21
19.780732
0
LINE
8
annotation
62
1
39
211
10
33.747696
20
19.780732
11
33.752079
21
19.783837
0
LINE
8
annotation
62
1
39
211
10
33.752079
20
19.783837
11
33.755863
21
19.787628
0
LINE
8
annotation
62
1
39
211
10
33.755863
20
19.787628
11
33.758960
21
19.792018
0
LINE
8
annotation
62
1
39
211
10
33.758960
20
19.792018
11
33.761282
21
19.796917
0
LINE
8
annotation
62
1
39
211
10
33.761282
20
19.796917
11
33.762739
21
19.802236
0
LINE
8
annotation
62
1
39
211
10
33.762739
20
19.802236
11
33.763245
21
19.807886
0
LINE
8
annotation
62
1
39
211
10
33.763245
20
19.807886
11
33.763245
21
19.807886
0
LINE
8
annotation
62
1
39
211
10
33.763245
20
19.807886
11
33.762739
21
19.813510
0
LINE
8
annotation
62
1
39
211
10
33.762739
20
19.813510
11
33.761282
21
19.818808
0
LINE
8
annotation
62
1
39
211
10
33.761282
20
19.818808
11
33.758960
21
19.823692
0
LINE
8
annotation
62
1
39
211
10
33.758960
20
19.823692
11
33.755863
21
19.828070
0
LINE
8
annotation
62
1
39
211
10
33.755863
20
19.828070
11
33.752079
21
19.831855
0
LINE
8
annotation
62
1
39
211
10
33.752079
20
19.831855
11
33.747696
21
19.834954
0
LINE
8
annotation
62
1
39
211
10
33.747696
20
19.834954
11
33.742803
21
19.837280
0
LINE
8
annotation
62
1
39
211
10
33.742803
20
19.837280
11
33.737488
21
19.838741
0
LINE
8
annotation
62
1
39
211
10
33.737488
20
19.838741
11
33.731839
21
19.839248
0
LINE
8
annotation
62
1
39
211
10
33.731839
20
19.839248
11
33.700433
21
19.839248
0
LINE
8
annotation
62
1
39
211
10
26.382201
20
21.932803
11
25.911350
21
21.932803
0
LINE
8
annotation
62
1
39
211
10
25.911350
20
21.932803
11
26.099392
21
22.592281
0
LINE
8
annotation
62
1
39
211
10
26.241062
20
21.744281
11
26.241062
21
22.120898
0
LINE
8
annotation
62
1
39
211
10
16.097220
20
22.134702
11
16.030077
21
22.134702
0
LINE
8
annotation
62
1
39
211
10
16.030077
20
22.134702
11
16.056892
21
22.228744
0
LINE
8
annotation
62
1
39
211
10
16.077094
20
22.107819
11
16.077094
21
22.161524
0
LINE
8
annotation
62
1
39
211
10
15.848556
20
21.900226
11
15.736472
21
21.900226
0
LINE
8
annotation
62
1
39
211
10
15.736472
20
21.900226
11
15.781234
21
22.057213
0
LINE
8
annotation
62
1
39
211
10
15.814959
20
21.855350
11
15.814959
21
21.945002
0
LINE
8
annotation
62
1
39
211
10
34.772118
20
22.120717
11
34.677011
21
22.120717
0
LINE
8
annotation
62
1
39
211
10
34.677011
20
22.120717
11
34.714993
21
22.253925
0
LINE
8
annotation
62
1
39
211
10
34.743609
20
22.082638
11
34.743609
21
22.158710
0
LINE
8
annotation
62
1
39
211
10
33.749911
20
24.261165
11
33.791969
21
24.261165
0
LINE
8
annotation
62
1
39
211
10
33.791969
20
24.261165
11
33.791969
21
24.261165
0
LINE
8
annotation
62
1
39
211
10
33.791969
20
24.261165
11
33.799518
21
24.261844
0
LINE
8
annotation
62
1
39
211
10
33.799518
20
24.261844
11
33.806627
21
24.263801
0
LINE
8
annotation
62
1
39
211
10
33.806627
20
24.263801
11
33.813178
21
24.266916
0
LINE
8
annotation
62
1
39
211
10
33.813178
20
24.266916
11
33.819049
21
24.271071
0
LINE
8
annotation
62
1
39
211
10
33.819049
20
24.271071
11
33.824122
21
24.276147
0
LINE
8
annotation
62
1
39
211
10
33.824122
20
24.276147
11
33.828276
21
24.282024
0
LINE
8
annotation
62
1
39
211
10
33.828276
20
24.282024
11
33.831392
21
24.288583
0
LINE
8
annotation
62
1
39
211
10
33.831392
20
24.288583
11
33.833349
21
24.295705
0
LINE
8
annotation
62
1
39
211
10
33.833349
20
24.295705
11
33.834028
21
24.303271
0
LINE
8
annotation
62
1
39
211
10
33.834028
20
24.303271
11
33.834028
21
24.324223
0
LINE
8
annotation
62
1
39
211
10
33.834028
20
24.324223
11
33.834028
21
24.324223
0
LINE
8
annotation
62
1
39
211
10
33.834028
20
24.324223
11
33.833349
21
24.331786
0
LINE
8
annotation
62
1
39
211
10
33.833349
20
24.331786
11
33.831393
21
24.338898
0
LINE
8
annotation
62
1
39
211
10
33.831393
20
24.338898
11
33.828279
21
24.345443
0
LINE
8
annotation
62
1
39
211
10
33.828279
20
24.345443
11
33.824126
21
24.351303
0
LINE
8
annotation
62
1
39
211
10
33.824126
20
24.351303
11
33.819054
21
24.356361
0
LINE
8
annotation
62
1
39
211
10
33.819054
20
24.356361
11
33.813183
21
24.360499
0
LINE
8
annotation
62
1
39
211
10
33.813183
20
24.360499
11
33.806632
21
24.363601
0
LINE
8
annotation
62
1
39
211
10
33.806632
20
24.363601
11
33.799521
21
24.365547
0
LINE
8
annotation
62
1
39
211
10
33.799521
20
24.365547
11
33.791969
21
24.366222
0
LINE
8
annotation
62
1
39
211
10
33.791969
20
24.366222
11
33.749911
21
24.366222
0
LINE
8
annotation
62
1
39
211
10
33.749911
20
24.366222
11
33.749911
21
24.450565
0
LINE
8
annotation
62
1
39
211
10
33.749911
20
24.450565
11
33.834028
21
24.450565
0
LINE
8
annotation
62
1
39
211
10
33.395437
20
27.002779
11
33.395437
21
27.002779
0
LINE
8
annotation
62
1
39
211
10
33.395437
20
27.002779
11
33.390942
21
27.001094
0
LINE
8
annotation
62
1
39
211
10
33.390942
20
27.001094
11
33.386817
21
26.998823
0
LINE
8
annotation
62
1
39
211
10
33.386817
20
26.998823
11
33.383105
21
26.996024
0
LINE
8
annotation
62
1
39
211
10
33.383105
20
26.996024
11
33.379847
21
26.992753
0
LINE
8
annotation
62
1
39
211
10
33.379847
20
26.992753
11
33.377087
21
26.989067
0
LINE
8
annotation
62
1
39
211
10
33.377087
20
26.989067
11
33.374867
21
26.985023
0
LINE
8
annotation
62
1
39
211
10
33.374867
20
26.985023
11
33.373228
21
26.980678
0
LINE
8
annotation
62
1
39
211
10
33.373228
20
26.980678
11
33.372214
21
26.976089
0
LINE
8
annotation
62
1
39
211
10
33.372214
20
26.976089
11
33.371867
21
26.971313
0
LINE
8
annotation
62
1
39
211
10
33.371867
20
26.971313
11
33.371867
21
26.947828
0
LINE
8
annotation
62
1
39
211
10
33.371867
20
26.947828
11
33.371867
21
26.947828
0
LINE
8
annotation
62
1
39
211
10
33.371867
20
26.947828
11
33.372120
21
26.945005
0
LINE
8
annotation
62
1
39
211
10
33.372120
20
26.945005
11
33.372850
21
26.942348
0
LINE
8
annotation
62
1
39
211
10
33.372850
20
26.942348
11
33.374013
21
26.939901
0
LINE
8
annotation
62
1
39
211
10
33.374013
20
26.939901
11
33.375563
21
26.937708
0
LINE
8
annotation
62
1
39
211
10
33.375563
20
26.937708
11
33.377455
21
26.935815
0
LINE
8
annotation
62
1
39
211
10
33.377455
20
26.935815
11
33.379646
21
26.934264
0
LINE
8
annotation
62
1
39
211
10
33.379646
20
26.934264
11
33.382089
21
26.933102
0
LINE
8
annotation
62
1
39
211
10
33.382089
20
26.933102
11
33.384742
21
26.932372
0
LINE
8
annotation
62
1
39
211
10
33.384742
20
26.932372
11
33.387558
21
26.932119
0
LINE
8
annotation
62
1
39
211
10
33.387558
20
26.932119
11
33.387558
21
26.932119
0
LINE
8
annotation
62
1
39
211
10
33.387558
20
26.932119
11
33.390380
21
26.932372
0
LINE
8
annotation
62
1
39
211
10
33.390380
20
26.932372
11
33.393035
21
26.933102
0
LINE
8
annotation
62
1
39
211
10
33.393035
20
26.933102
11
33.395480
21
26.934264
0
LINE
8
annotation
62
1
39
211
10
33.395480
20
26.934264
11
33.397670
21
26.935815
0
LINE
8
annotation
62
1
39
211
10
33.397670
20
26.935815
11
33.399561
21
26.937708
0
LINE
8
annotation
62
1
39
211
10
33.399561
20
26.937708
11
33.401108
21
26.939901
0
LINE
8
annotation
62
1
39
211
10
33.401108
20
26.939901
11
33.402268
21
26.942348
0
LINE
8
annotation
62
1
39
211
10
33.402268
20
26.942348
11
33.402996
21
26.945005
0
LINE
8
annotation
62
1
39
211
10
33.402996
20
26.945005
11
33.403249
21
26.947828
0
LINE
8
annotation
62
1
39
211
10
33.403249
20
26.947828
11
33.403249
21
26.955644
0
LINE
8
annotation
62
1
39
211
10
33.403249
20
26.955644
11
33.403249
21
26.955644
0
LINE
8
annotation
62
1
39
211
10
33.403249
20
26.955644
11
33.402996
21
26.958466
0
LINE
8
annotation
62
1
39
211
10
33.402996
20
26.958466
11
33.402268
21
26.961119
0
LINE
8
annotation
62
1
39
211
10
33.402268
20
26.961119
11
33.401108
21
26.963561
0
LINE
8
annotation
62
1
39
211
10
33.401108
20
26.963561
11
33.399561
21
26.965747
0
LINE
8
annotation
62
1
39
211
10
33.399561
20
26.965747
11
33.397670
21
26.967634
0
LINE
8
annotation
62
1
39
211
10
33.397670
20
26.967634
11
33.395480
21
26.969178
0
LINE
8
annotation
62
1
39
211
10
33.395480
20
26.969178
11
33.393035
21
26.970335
0
LINE
8
annotation
62
1
39
211
10
33.393035
20
26.970335
11
33.390380
21
26.971061
0
LINE
8
annotation
62
1
39
211
10
33.390380
20
26.971061
11
33.387558
21
26.971313
0
LINE
8
annotation
62
1
39
211
10
33.387558
20
26.971313
11
33.371867
21
26.971313
0
LINE
8
annotation
62
1
39
211
10
33.369902
20
26.923286
11
33.405232
21
26.923286
0
LINE
8
annotation
62
1
39
211
10
27.312103
20
27.009849
11
27.312103
21
27.009849
0
LINE
8
annotation
62
1
39
211
10
27.312103
20
27.009849
11
27.279735
21
26.997713
0
LINE
8
annotation
62
1
39
211
10
27.279735
20
26.997713
11
27.250034
21
26.981362
0
LINE
8
annotation
62
1
39
211
10
27.250034
20
26.981362
11
27.223304
21
26.961204
0
LINE
8
annotation
62
1
39
211
10
27.223304
20
26.961204
11
27.199849
21
26.937650
0
LINE
8
annotation
62
1
39
211
10
27.199849
20
26.937650
11
27.179975
21
26.911109
0
LINE
8
annotation
62
1
39
211
10
27.179975
20
26.911109
11
27.163987
21
26.881991
0
LINE
8
annotation
62
1
39
211
10
27.163987
20
26.881991
11
27.152190
21
26.850706
0
LINE
8
annotation
62
1
39
211
10
27.152190
20
26.850706
11
27.144888
21
26.817663
0
LINE
8
annotation
62
1
39
211
10
27.144888
20
26.817663
11
27.142386
21
26.783273
0
LINE
8
annotation
62
1
39
211
10
27.142386
20
26.783273
11
27.142386
21
26.614162
0
LINE
8
annotation
62
1
39
211
10
27.142386
20
26.614162
11
27.142386
21
26.614162
0
LINE
8
annotation
62
1
39
211
10
27.142386
20
26.614162
11
27.144210
21
26.593837
0
LINE
8
annotation
62
1
39
211
10
27.144210
20
26.593837
11
27.149468
21
26.574704
0
LINE
8
annotation
62
1
39
211
10
27.149468
20
26.574704
11
27.157837
21
26.557084
0
LINE
8
annotation
62
1
39
211
10
27.157837
20
26.557084
11
27.168997
21
26.541296
0
LINE
8
annotation
62
1
39
211
10
27.168997
20
26.541296
11
27.182624
21
26.527661
0
LINE
8
annotation
62
1
39
211
10
27.182624
20
26.527661
11
27.198397
21
26.516498
0
LINE
8
annotation
62
1
39
211
10
27.198397
20
26.516498
11
27.215994
21
26.508129
0
LINE
8
annotation
62
1
39
211
10
27.215994
20
26.508129
11
27.235092
21
26.502872
0
LINE
8
annotation
62
1
39
211
10
27.235092
20
26.502872
11
27.255371
21
26.501049
0
LINE
8
annotation
62
1
39
211
10
27.255371
20
26.501049
11
27.255371
21
26.501049
0
LINE
8
annotation
62
1
39
211
10
27.255371
20
26.501049
11
27.275691
21
26.502872
0
LINE
8
annotation
62
1
39
211
10
27.275691
20
26.502872
11
27.294813
21
26.508129
0
LINE
8
annotation
62
1
39
211
10
27.294813
20
26.508129
11
27.312416
21
26.516498
0
LINE
8
annotation
62
1
39
211
10
27.312416
20
26.516498
11
27.328184
21
26.527661
0
LINE
8
annotation
62
1
39
211
10
27.328184
20
26.527661
11
27.341798
21
26.541296
0
LINE
8
annotation
62
1
39
211
10
27.341798
20
26.541296
11
27.352940
21
26.557084
0
LINE
8
annotation
62
1
39
211
10
27.352940
20
26.557084
11
27.361292
21
26.574704
0
LINE
8
annotation
62
1
39
211
10
27.361292
20
26.574704
11
27.366537
21
26.593837
0
LINE
8
annotation
62
1
39
211
10
27.366537
20
26.593837
11
27.368356
21
26.614162
0
LINE
8
annotation
62
1
39
211
10
27.368356
20
26.614162
11
27.368356
21
26.670447
0
LINE
8
annotation
62
1
39
211
10
27.368356
20
26.670447
11
27.368356
21
26.670447
0
LINE
8
annotation
62
1
39
211
10
27.368356
20
26.670447
11
27.366537
21
26.690762
0
LINE
8
annotation
62
1
39
211
10
27.366537
20
26.690762
11
27.361292
21
26.709869
0
LINE
8
annotation
62
1
39
211
10
27.361292
20
26.709869
11
27.352940
21
26.727451
0
LINE
8
annotation
62
1
39
211
10
27.352940
20
26.727451
11
27.341798
21
26.743193
0
LINE
8
annotation
62
1
39
211
10
27.341798
20
26.743193
11
27.328184
21
26.756781
0
LINE
8
annotation
62
1
39
211
10
27.328184
20
26.756781
11
27.312416
21
26.767898
0
LINE
8
annotation
62
1
39
211
10
27.312416
20
26.767898
11
27.294813
21
26.776229
0
LINE
8
annotation
62
1
39
211
10
27.294813
20
26.776229
11
27.275691
21
26.781459
0
LINE
8
annotation
62
1
39
211
10
27.275691
20
26.781459
11
27.255371
21
26.783273
0
LINE
8
annotation
62
1
39
211
10
27.255371
20
26.783273
11
27.142386
21
26.783273
0
LINE
8
annotation
62
1
39
211
10
27.128235
20
26.437449
11
27.382635
21
26.437449
0
LINE
8
annotation
62
1
39
211
10
26.373815
20
23.187227
11
25.899899
21
22.501751
0
LINE
8
annotation
62
1
39
211
10
25.899899
20
22.501751
11
25.425893
21
23.187227
0
LINE
8
annotation
62
1
39
211
10
25.899899
20
22.556913
11
25.899899
21
21.766102
0
LINE
8
annotation
62
1
39
211
10
27.683880
20
22.476665
11
26.906882
21
22.476665
0
LINE
8
annotation
62
1
39
211
10
28.216635
20
21.766191
11
28.532193
21
21.766191
0
LINE
8
annotation
62
1
39
211
10
28.532193
20
21.766191
11
28.532193
21
21.766191
0
LINE
8
annotation
62
1
39
211
10
28.532193
20
21.766191
11
28.588947
21
21.771282
0
LINE
8
annotation
62
1
39
211
10
28.588947
20
21.771282
11
28.642350
21
21.785955
0
LINE
8
annotation
62
1
39
211
10
28.642350
20
21.785955
11
28.691515
21
21.809310
0
LINE
8
annotation
62
1
39
211
10
28.691515
20
21.809310
11
28.735553
21
21.840445
0
LINE
8
annotation
62
1
39
211
10
28.735553
20
21.840445
11
28.773575
21
21.878460
0
LINE
8
annotation
62
1
39
211
10
28.773575
20
21.878460
11
28.804695
21
21.922454
0
LINE
8
annotation
62
1
39
211
10
28.804695
20
21.922454
11
28.828023
21
21.971526
0
LINE
8
annotation
62
1
39
211
10
28.828023
20
21.971526
11
28.842671
21
22.024776
0
LINE
8
annotation
62
1
39
211
10
28.842671
20
22.024776
11
28.847751
21
22.081304
0
LINE
8
annotation
62
1
39
211
10
28.847751
20
22.081304
11
28.847751
21
22.239305
0
LINE
8
annotation
62
1
39
211
10
28.847751
20
22.239305
11
28.847751
21
22.239305
0
LINE
8
annotation
62
1
39
211
10
28.847751
20
22.239305
11
28.842671
21
22.295809
0
LINE
8
annotation
62
1
39
211
10
28.842671
20
22.295809
11
28.828023
21
22.349047
0
LINE
8
annotation
62
1
39
211
10
28.828023
20
22.349047
11
28.804695
21
22.398116
0
LINE
8
annotation
62
1
39
211
10
28.804695
20
22.398116
11
28.773575
21
22.442113
0
LINE
8
annotation
62
1
39
211
10
28.773575
20
22.442113
11
28.735553
21
22.480135
0
LINE
8
annotation
62
1
39
211
10
28.735553
20
22.480135
11
28.691515
21
22.511279
0
LINE
8
annotation
62
1
39
211
10
28.691515
20
22.511279
11
28.642350
21
22.534643
0
LINE
8
annotation
62
1
39
211
10
28.642350
20
22.534643
11
28.588947
21
22.549324
0
LINE
8
annotation
62
1
39
211
10
28.588947
20
22.549324
11
28.532193
21
22.554418
0
LINE
8
annotation
62
1
39
211
10
28.532193
20
22.554418
11
28.374191
21
22.554418
0
LINE
8
annotation
62
1
39
211
10
28.374191
20
22.554418
11
28.532193
21
22.554418
0
LINE
8
annotation
62
1
39
211
10
28.532193
20
22.554418
11
28.532193
21
22.554418
0
LINE
8
annotation
62
1
39
211
10
28.532193
20
22.554418
11
28.588947
21
22.559513
0
LINE
8
annotation
62
1
39
211
10
28.588947
20
22.559513
11
28.642350
21
22.574202
0
LINE
8
annotation
62
1
39
211
10
28.642350
20
22.574202
11
28.691515
21
22.597589
0
LINE
8
annotation
62
1
39
211
10
28.691515
20
22.597589
11
28.735553
21
22.628779
0
LINE
8
annotation
62
1
39
211
10
28.735553
20
22.628779
11
28.773575
21
22.666876
0
LINE
8
annotation
62
1
39
211
10
28.773575
20
22.666876
11
28.804695
21
22.710984
0
LINE
8
annotation
62
1
39
211
10
28.804695
20
22.710984
11
28.828023
21
22.760208
0
LINE
8
annotation
62
1
39
211
10
28.828023
20
22.760208
11
28.842671
21
22.813652
0
LINE
8
annotation
62
1
39
211
10
28.842671
20
22.813652
11
28.847751
21
22.870422
0
LINE
8
annotation
62
1
39
211
10
28.847751
20
22.870422
11
28.847751
21
22.870422
0
LINE
8
annotation
62
1
39
211
10
28.847751
20
22.870422
11
28.842671
21
22.926925
0
LINE
8
annotation
62
1
39
211
10
28.842671
20
22.926925
11
28.828023
21
22.980163
0
LINE
8
annotation
62
1
39
211
10
28.828023
20
22.980163
11
28.804695
21
23.029232
0
LINE
8
annotation
62
1
39
211
10
28.804695
20
23.029232
11
28.773575
21
23.073229
0
LINE
8
annotation
62
1
39
211
10
28.773575
20
23.073229
11
28.735553
21
23.111251
0
LINE
8
annotation
62
1
39
211
10
28.735553
20
23.111251
11
28.691515
21
23.142395
0
LINE
8
annotation
62
1
39
211
10
28.691515
20
23.142395
11
28.642350
21
23.165759
0
LINE
8
annotation
62
1
39
211
10
28.642350
20
23.165759
11
28.588947
21
23.180440
0
LINE
8
annotation
62
1
39
211
10
28.588947
20
23.180440
11
28.532193
21
23.185534
0
LINE
8
annotation
62
1
39
211
10
28.532193
20
23.185534
11
28.216635
21
23.185534
0
LINE
8
boundary
62
5
39
2
10
25.348193
20
29.923316
11
25.795021
21
30.179173
0
LINE
8
boundary
62
5
39
2
10
25.795021
20
30.179173
11
25.756175
21
30.198279
0
LINE
8
boundary
62
5
39
2
10
25.756175
20
30.198279
11
25.694235
21
30.293690
0
LINE
8
boundary
62
5
39
2
10
25.694235
20
30.293690
11
25.663670
21
30.317952
0
LINE
8
boundary
62
5
39
2
10
25.663670
20
30.317952
11
25.637901
21
30.354890
0
LINE
8
boundary
62
5
39
2
10
25.637901
20
30.354890
11
25.625216
21
30.361686
0
LINE
8
boundary
62
5
39
2
10
25.625216
20
30.361686
11
25.618551
21
30.371743
0
LINE
8
boundary
62
5
39
2
10
25.618551
20
30.371743
11
25.591640
21
30.412342
0
LINE
8
boundary
62
5
39
2
10
25.591640
20
30.412342
11
25.566314
21
30.455400
0
LINE
8
boundary
62
5
39
2
10
25.566314
20
30.455400
11
25.544719
21
30.478096
0
LINE
8
boundary
62
5
39
2
10
25.544719
20
30.478096
11
25.519793
21
30.492672
0
LINE
8
boundary
62
5
39
2
10
25.519793
20
30.492672
11
25.452741
21
30.600125
0
LINE
8
boundary
62
5
39
2
10
25.452741
20
30.600125
11
25.194415
21
30.460991
0
LINE
8
boundary
62
5
39
2
10
25.194415
20
30.460991
11
24.616888
21
30.288105
0
LINE
8
boundary
62
5
39
2
10
24.616888
20
30.288105
11
24.626787
21
30.267171
0
LINE
8
boundary
62
5
39
2
10
24.626787
20
30.267171
11
24.626787
21
29.762571
0
LINE
8
boundary
62
5
39
2
10
24.626787
20
29.762571
11
23.274433
21
29.762571
0
LINE
8
boundary
62
5
39
2
10
23.274433
20
29.762571
11
22.016942
21
29.093499
0
LINE
8
boundary
62
5
39
2
10
22.016942
20
29.093499
11
20.943517
21
29.003969
0
LINE
8
boundary
62
5
39
2
10
20.943517
20
29.003969
11
20.550868
21
29.014642
0
LINE
8
boundary
62
5
39
2
10
20.550868
20
29.014642
11
20.514741
21
29.014318
0
LINE
8
boundary
62
5
39
2
10
20.514741
20
29.014318
11
20.468751
21
29.013895
0
LINE
8
boundary
62
5
39
2
10
20.468751
20
29.013895
11
20.465290
21
29.013950
0
LINE
8
boundary
62
5
39
2
10
20.465290
20
29.013950
11
20.327421
21
29.009720
0
LINE
8
boundary
62
5
39
2
10
20.327421
20
29.009720
11
19.861820
21
29.225462
0
LINE
8
boundary
62
5
39
2
10
19.861820
20
29.225462
11
18.713798
21
29.505123
0
LINE
8
boundary
62
5
39
2
10
18.713798
20
29.505123
11
18.634460
21
29.533328
0
LINE
8
boundary
62
5
39
2
10
18.634460
20
29.533328
11
18.386013
21
29.589126
0
LINE
8
boundary
62
5
39
2
10
18.386013
20
29.589126
11
17.387781
21
29.781122
0
LINE
8
boundary
62
5
39
2
10
17.387781
20
29.781122
11
17.006563
21
29.813551
0
LINE
8
boundary
62
5
39
2
10
17.006563
20
29.813551
11
17.006563
21
29.762571
0
LINE
8
boundary
62
5
39
2
10
17.006563
20
29.762571
11
16.994033
21
29.736071
0
LINE
8
boundary
62
5
39
2
10
16.994033
20
29.736071
11
16.234059
21
29.736071
0
LINE
8
boundary
62
5
39
2
10
16.234059
20
29.736071
11
16.234059
21
30.293671
0
LINE
8
boundary
62
5
39
2
10
16.234059
20
30.293671
11
16.032507
21
30.667726
0
LINE
8
boundary
62
5
39
2
10
16.032507
20
30.667726
11
16.059121
21
30.704284
0
LINE
8
boundary
62
5
39
2
10
16.059121
20
30.704284
11
16.076189
21
30.815117
0
LINE
8
boundary
62
5
39
2
10
16.076189
20
30.815117
11
15.807316
21
31.508549
0
LINE
8
boundary
62
5
39
2
10
15.807316
20
31.508549
11
15.652145
21
32.414441
0
LINE
8
boundary
62
5
39
2
10
15.652145
20
32.414441
11
15.807317
21
33.320361
0
LINE
8
boundary
62
5
39
2
10
15.807317
20
33.320361
11
16.076190
21
34.013790
0
LINE
8
boundary
62
5
39
2
10
16.076190
20
34.013790
11
16.059121
21
34.124627
0
LINE
8
boundary
62
5
39
2
10
16.059121
20
34.124627
11
16.032506
21
34.161185
0
LINE
8
boundary
62
5
39
2
10
16.032506
20
34.161185
11
16.234063
21
34.535239
0
LINE
8
boundary
62
5
39
2
10
16.234063
20
34.535239
11
16.234063
21
35.092839
0
LINE
8
boundary
62
5
39
2
10
16.234063
20
35.092839
11
16.998951
21
35.092839
0
LINE
8
boundary
62
5
39
2
10
16.998951
20
35.092839
11
17.011481
21
35.066339
0
LINE
8
boundary
62
5
39
2
10
17.011481
20
35.066339
11
17.011481
21
35.015433
0
LINE
8
boundary
62
5
39
2
10
17.011481
20
35.015433
11
17.397883
21
35.047695
0
LINE
8
boundary
62
5
39
2
10
17.397883
20
35.047695
11
18.352750
21
35.233729
0
LINE
8
boundary
62
5
39
2
10
18.352750
20
35.233729
11
18.627371
21
35.295543
0
LINE
8
boundary
62
5
39
2
10
18.627371
20
35.295543
11
18.715998
21
35.326930
0
LINE
8
boundary
62
5
39
2
10
18.715998
20
35.326930
11
19.861767
21
35.603429
0
LINE
8
boundary
62
5
39
2
10
19.861767
20
35.603429
11
20.327405
21
35.819190
0
LINE
8
boundary
62
5
39
2
10
20.327405
20
35.819190
11
20.465440
21
35.814947
0
LINE
8
boundary
62
5
39
2
10
20.465440
20
35.814947
11
20.468873
21
35.815016
0
LINE
8
boundary
62
5
39
2
10
20.468873
20
35.815016
11
20.514660
21
35.814604
0
LINE
8
boundary
62
5
39
2
10
20.514660
20
35.814604
11
20.550907
21
35.814281
0
LINE
8
boundary
62
5
39
2
10
20.550907
20
35.814281
11
20.948863
21
35.827049
0
LINE
8
boundary
62
5
39
2
10
20.948863
20
35.827049
11
22.014222
21
35.740736
0
LINE
8
boundary
62
5
39
2
10
22.014222
20
35.740736
11
23.277141
21
35.066339
0
LINE
8
boundary
62
5
39
2
10
23.277141
20
35.066339
11
24.627283
21
35.066339
0
LINE
8
boundary
62
5
39
2
10
24.627283
20
35.066339
11
24.627283
21
34.561739
0
LINE
8
boundary
62
5
39
2
10
24.627283
20
34.561739
11
24.617306
21
34.540637
0
LINE
8
boundary
62
5
39
2
10
24.617306
20
34.540637
11
25.194506
21
34.367809
0
LINE
8
boundary
62
5
39
2
10
25.194506
20
34.367809
11
25.452566
21
34.228804
0
LINE
8
boundary
62
5
39
2
10
25.452566
20
34.228804
11
25.475361
21
34.242852
0
LINE
8
boundary
62
5
39
2
10
25.475361
20
34.242852
11
25.583513
21
34.410625
0
LINE
8
boundary
62
5
39
2
10
25.583513
20
34.410625
11
25.595993
21
34.417842
0
LINE
8
boundary
62
5
39
2
10
25.595993
20
34.417842
11
25.609034
21
34.425486
0
LINE
8
boundary
62
5
39
2
10
25.609034
20
34.425486
11
25.624034
21
34.433334
0
LINE
8
boundary
62
5
39
2
10
25.624034
20
34.433334
11
25.693962
21
34.534991
0
LINE
8
boundary
62
5
39
2
10
25.693962
20
34.534991
11
25.731338
21
34.554592
0
LINE
8
boundary
62
5
39
2
10
25.731338
20
34.554592
11
25.795188
21
34.649541
0
LINE
8
boundary
62
5
39
2
10
25.795188
20
34.649541
11
25.348215
21
34.905494
0
LINE
8
boundary
62
5
39
2
10
25.348215
20
34.905494
11
24.300772
21
35.192430
0
LINE
8
boundary
62
5
39
2
10
24.300772
20
35.192430
11
24.096241
21
35.241061
0
LINE
8
boundary
62
5
39
2
10
24.096241
20
35.241061
11
23.816337
21
35.361333
0
LINE
8
boundary
62
5
39
2
10
23.816337
20
35.361333
11
22.236029
21
36.229217
0
LINE
8
boundary
62
5
39
2
10
22.236029
20
36.229217
11
20.605211
21
36.384947
0
LINE
8
boundary
62
5
39
2
10
20.605211
20
36.384947
11
20.424527
21
36.419993
0
LINE
8
boundary
62
5
39
2
10
20.424527
20
36.419993
11
20.281640
21
36.390110
0
LINE
8
boundary
62
5
39
2
10
20.281640
20
36.390110
11
19.722523
21
36.139748
0
LINE
8
boundary
62
5
39
2
10
19.722523
20
36.139748
11
18.641747
21
35.898254
0
LINE
8
boundary
62
5
39
2
10
18.641747
20
35.898254
11
18.483921
21
35.840912
0
LINE
8
boundary
62
5
39
2
10
18.483921
20
35.840912
11
18.013268
21
35.714388
0
LINE
8
boundary
62
5
39
2
10
18.013268
20
35.714388
11
17.219355
21
35.542454
0
LINE
8
boundary
62
5
39
2
10
17.219355
20
35.542454
11
16.661753
21
35.475342
0
LINE
8
boundary
62
5
39
2
10
16.661753
20
35.475342
11
16.289682
21
35.512478
0
LINE
8
boundary
62
5
39
2
10
16.289682
20
35.512478
11
16.044546
21
35.092839
0
LINE
8
boundary
62
5
39
2
10
16.044546
20
35.092839
11
16.057076
21
35.066339
0
LINE
8
boundary
62
5
39
2
10
16.057076
20
35.066339
11
16.119611
21
35.066339
0
LINE
8
boundary
62
5
39
2
10
16.119611
20
35.066339
11
16.119611
21
34.561739
0
LINE
8
boundary
62
5
39
2
10
16.119611
20
34.561739
11
15.734300
21
34.561739
0
LINE
8
boundary
62
5
39
2
10
15.734300
20
34.561739
11
15.718820
21
34.535239
0
LINE
8
boundary
62
5
39
2
10
15.718820
20
34.535239
11
15.624784
21
34.374261
0
LINE
8
boundary
62
5
39
2
10
15.624784
20
34.374261
11
15.538809
21
34.230915
0
LINE
8
boundary
62
5
39
2
10
15.538809
20
34.230915
11
15.572172
21
34.154218
0
LINE
8
boundary
62
5
39
2
10
15.572172
20
34.154218
11
15.603624
21
34.044414
0
LINE
8
boundary
62
5
39
2
10
15.603624
20
34.044414
11
15.281340
21
33.102717
0
LINE
8
boundary
62
5
39
2
10
15.281340
20
33.102717
11
15.180008
21
32.693255
0
LINE
8
boundary
62
5
39
2
10
15.180008
20
32.693255
11
15.192538
21
32.666755
0
LINE
8
boundary
62
5
39
2
10
15.192538
20
32.666755
11
15.390487
21
32.666755
0
LINE
8
boundary
62
5
39
2
10
15.390487
20
32.666755
11
15.390487
21
32.162155
0
LINE
8
boundary
62
5
39
2
10
15.390487
20
32.162155
11
15.192538
21
32.162155
0
LINE
8
boundary
62
5
39
2
10
15.192538
20
32.162155
11
15.180008
21
32.135655
0
LINE
8
boundary
62
5
39
2
10
15.180008
20
32.135655
11
15.281341
21
31.726191
0
LINE
8
boundary
62
5
39
2
10
15.281341
20
31.726191
11
15.603626
21
30.784493
0
LINE
8
boundary
62
5
39
2
10
15.603626
20
30.784493
11
15.572173
21
30.674689
0
LINE
8
boundary
62
5
39
2
10
15.572173
20
30.674689
11
15.538811
21
30.597992
0
LINE
8
boundary
62
5
39
2
10
15.538811
20
30.597992
11
15.624786
21
30.454648
0
LINE
8
boundary
62
5
39
2
10
15.624786
20
30.454648
11
15.718823
21
30.293671
0
LINE
8
boundary
62
5
39
2
10
15.718823
20
30.293671
11
15.734304
21
30.267171
0
LINE
8
boundary
62
5
39
2
10
15.734304
20
30.267171
11
16.119608
21
30.267171
0
LINE
8
boundary
62
5
39
2
10
16.119608
20
30.267171
11
16.119608
21
29.762571
0
LINE
8
boundary
62
5
39
2
10
16.119608
20
29.762571
11
16.057084
21
29.762571
0
LINE
8
boundary
62
5
39
2
10
16.057084
20
29.762571
11
16.044554
21
29.736071
0
LINE
8
boundary
62
5
39
2
10
16.044554
20
29.736071
11
16.289718
21
29.316388
0
LINE
8
boundary
62
5
39
2
10
16.289718
20
29.316388
11
16.661750
21
29.353552
0
LINE
8
boundary
62
5
39
2
10
16.661750
20
29.353552
11
17.190495
21
29.289551
0
LINE
8
boundary
62
5
39
2
10
17.190495
20
29.289551
11
18.085960
21
29.099039
0
LINE
8
boundary
62
5
39
2
10
18.085960
20
29.099039
11
18.503446
21
28.987414
0
LINE
8
boundary
62
5
39
2
10
18.503446
20
28.987414
11
18.639966
21
28.937261
0
LINE
8
boundary
62
5
39
2
10
18.639966
20
28.937261
11
19.720864
21
28.689340
0
LINE
8
boundary
62
5
39
2
10
19.720864
20
28.689340
11
20.281718
21
28.438773
0
LINE
8
boundary
62
5
39
2
10
20.281718
20
28.438773
11
20.424531
21
28.408904
0
LINE
8
boundary
62
5
39
2
10
20.424531
20
28.408904
11
20.605092
21
28.443927
0
LINE
8
boundary
62
5
39
2
10
20.605092
20
28.443927
11
22.235615
21
28.599700
0
LINE
8
boundary
62
5
39
2
10
22.235615
20
28.599700
11
23.814843
21
29.466821
0
LINE
8
boundary
62
5
39
2
10
23.814843
20
29.466821
11
24.096221
21
29.587839
0
LINE
8
boundary
62
5
39
2
10
24.096221
20
29.587839
11
24.300777
21
29.636476
0
LINE
8
boundary
62
5
39
2
10
24.300777
20
29.636476
11
25.348193
21
29.923316
0
LINE
8
annotation
62
1
39
211
10
24.907475
20
29.884510
11
24.965375
21
29.884510
0
LINE
8
annotation
62
1
39
211
10
24.965375
20
29.884510
11
24.965375
21
29.884510
0
LINE
8
annotation
62
1
39
211
10
24.965375
20
29.884510
11
24.975788
21
29.885445
0
LINE
8
annotation
62
1
39
211
10
24.975788
20
29.885445
11
24.985587
21
29.888137
0
LINE
8
annotation
62
1
39
211
10
24.985587
20
29.888137
11
24.994608
21
29.892422
0
LINE
8
annotation
62
1
39
211
10
24.994608
20
29.892422
11
25.002688
21
29.898135
0
LINE
8
annotation
62
1
39
211
10
25.002688
20
29.898135
11
25.009665
21
29.905110
0
LINE
8
annotation
62
1
39
211
10
25.009665
20
29.905110
11
25.015375
21
29.913182
0
LINE
8
annotation
62
1
39
211
10
25.015375
20
29.913182
11
25.019655
21
29.922186
0
LINE
8
annotation
62
1
39
211
10
25.019655
20
29.922186
11
25.022343
21
29.931957
0
LINE
8
annotation
62
1
39
211
10
25.022343
20
29.931957
11
25.023275
21
29.942328
0
LINE
8
annotation
62
1
39
211
10
25.023275
20
29.942328
11
25.023275
21
29.971319
0
LINE
8
annotation
62
1
39
211
10
25.023275
20
29.971319
11
25.023275
21
29.971319
0
LINE
8
annotation
62
1
39
211
10
25.023275
20
29.971319
11
25.022343
21
29.981687
0
LINE
8
annotation
62
1
39
211
10
25.022343
20
29.981687
11
25.019655
21
29.991455
0
LINE
8
annotation
62
1
39
211
10
25.019655
20
29.991455
11
25.015375
21
30.000458
0
LINE
8
annotation
62
1
39
211
10
25.015375
20
30.000458
11
25.009665
21
30.008531
0
LINE
8
annotation
62
1
39
211
10
25.009665
20
30.008531
11
25.002688
21
30.015507
0
LINE
8
annotation
62
1
39
211
10
25.002688
20
30.015507
11
24.994608
21
30.021222
0
LINE
8
annotation
62
1
39
211
10
24.994608
20
30.021222
11
24.985587
21
30.025509
0
LINE
8
annotation
62
1
39
211
10
24.985587
20
30.025509
11
24.975788
21
30.028202
0
LINE
8
annotation
62
1
39
211
10
24.975788
20
30.028202
11
24.965375
21
30.029137
0
LINE
8
annotation
62
1
39
211
10
24.965375
20
30.029137
11
24.936384
21
30.029137
0
LINE
8
annotation
62
1
39
211
10
24.936384
20
30.029137
11
24.965375
21
30.029137
0
LINE
8
annotation
62
1
39
211
10
24.965375
20
30.029137
11
24.965375
21
30.029137
0
LINE
8
annotation
62
1
39
211
10
24.965375
20
30.029137
11
24.975788
21
30.030072
0
LINE
8
annotation
62
1
39
211
10
24.975788
20
30.030072
11
24.985587
21
30.032767
0
LINE
8
annotation
62
1
39
211
10
24.985587
20
30.032767
11
24.994608
21
30.037058
0
LINE
8
annotation
62
1
39
211
10
24.994608
20
30.037058
11
25.002688
21
30.042781
0
LINE
8
annotation
62
1
39
211
10
25.002688
20
30.042781
11
25.009665
21
30.049771
0
LINE
8
annotation
62
1
39
211
10
25.009665
20
30.049771
11
25.015375
21
30.057864
0
LINE
8
annotation
62
1
39
211
10
25.015375
20
30.057864
11
25.019655
21
30.066896
0
LINE
8
annotation
62
1
39
211
10
25.019655
20
30.066896
11
25.022343
21
30.076702
0
LINE
8
annotation
62
1
39
211
10
25.022343
20
30.076702
11
25.023275
21
30.087119
0
LINE
8
annotation
62
1
39
211
10
25.023275
20
30.087119
11
25.023275
21
30.087119
0
LINE
8
annotation
62
1
39
211
10
25.023275
20
30.087119
11
25.022343
21
30.097486
0
LINE
8
annotation
62
1
39
211
10
25.022343
20
30.097486
11
25.019655
21
30.107254
0
LINE
8
annotation
62
1
39
211
10
25.019655
20
30.107254
11
25.015375
21
30.116258
0
LINE
8
annotation
62
1
39
211
10
25.015375
20
30.116258
11
25.009665
21
30.124330
0
LINE
8
annotation
62
1
39
211
10
25.009665
20
30.124330
11
25.002688
21
30.131307
0
LINE
8
annotation
62
1
39
211
10
25.002688
20
30.131307
11
24.994608
21
30.137021
0
LINE
8
annotation
62
1
39
211
10
24.994608
20
30.137021
11
24.985587
21
30.141308
0
LINE
8
annotation
62
1
39
211
10
24.985587
20
30.141308
11
24.975788
21
30.144002
0
LINE
8
annotation
62
1
39
211
10
24.975788
20
30.144002
11
24.965375
21
30.144937
0
LINE
8
annotation
62
1
39
211
10
24.965375
20
30.144937
11
24.907475
21
30.144937
0
LINE
8
annotation
62
1
39
211
10
17.336261
20
29.860670
11
17.404749
21
29.860670
0
LINE
8
annotation
62
1
39
211
10
17.404749
20
29.860670
11
17.404749
21
29.860670
0
LINE
8
annotation
62
1
39
211
10
17.404749
20
29.860670
11
17.417067
21
29.861775
0
LINE
8
annotation
62
1
39
211
10
17.417067
20
29.861775
11
17.428657
21
29.864960
0
LINE
8
annotation
62
1
39
211
10
17.428657
20
29.864960
11
17.439328
21
29.870029
0
LINE
8
annotation
62
1
39
211
10
17.439328
20
29.870029
11
17.448886
21
29.876786
0
LINE
8
annotation
62
1
39
211
10
17.448886
20
29.876786
11
17.457138
21
29.885037
0
LINE
8
annotation
62
1
39
211
10
17.457138
20
29.885037
11
17.463892
21
29.894585
0
LINE
8
annotation
62
1
39
211
10
17.463892
20
29.894585
11
17.468955
21
29.905236
0
LINE
8
annotation
62
1
39
211
10
17.468955
20
29.905236
11
17.472135
21
29.916793
0
LINE
8
annotation
62
1
39
211
10
17.472135
20
29.916793
11
17.473237
21
29.929062
0
LINE
8
annotation
62
1
39
211
10
17.473237
20
29.929062
11
17.473237
21
29.963355
0
LINE
8
annotation
62
1
39
211
10
17.473237
20
29.963355
11
17.473237
21
29.963355
0
LINE
8
annotation
62
1
39
211
10
17.473237
20
29.963355
11
17.472135
21
29.975618
0
LINE
8
annotation
62
1
39
211
10
17.472135
20
29.975618
11
17.468955
21
29.987173
0
LINE
8
annotation
62
1
39
211
10
17.468955
20
29.987173
11
17.463892
21
29.997823
0
LINE
8
annotation
62
1
39
211
10
17.463892
20
29.997823
11
17.457138
21
30.007372
0
LINE
8
annotation
62
1
39
211
10
17.457138
20
30.007372
11
17.448886
21
30.015624
0
LINE
8
annotation
62
1
39
211
10
17.448886
20
30.015624
11
17.439328
21
30.022383
0
LINE
8
annotation
62
1
39
211
10
17.439328
20
30.022383
11
17.428657
21
30.027454
0
LINE
8
annotation
62
1
39
211
10
17.428657
20
30.027454
11
17.417067
21
30.030640
0
LINE
8
annotation
62
1
39
211
10
17.417067
20
30.030640
11
17.404749
21
30.031746
0
LINE
8
annotation
62
1
39
211
10
17.404749
20
30.031746
11
17.370456
21
30.031746
0
LINE
8
annotation
62
1
39
211
10
17.370456
20
30.031746
11
17.404749
21
30.031746
0
LINE
8
annotation
62
1
39
211
10
17.404749
20
30.031746
11
17.404749
21
30.031746
0
LINE
8
annotation
62
1
39
211
10
17.404749
20
30.031746
11
17.417067
21
30.032852
0
LINE
8
annotation
62
1
39
211
10
17.417067
20
30.032852
11
17.428657
21
30.036040
0
LINE
8
annotation
62
1
39
211
10
17.428657
20
30.036040
11
17.439328
21
30.041116
0
LINE
8
annotation
62
1
39
211
10
17.439328
20
30.041116
11
17.448886
21
30.047885
0
LINE
8
annotation
62
1
39
211
10
17.448886
20
30.047885
11
17.457138
21
30.056154
0
LINE
8
annotation
62
1
39
211
10
17.457138
20
30.056154
11
17.463892
21
30.065727
0
LINE
8
annotation
62
1
39
211
10
17.463892
20
30.065727
11
17.468955
21
30.076411
0
LINE
8
annotation
62
1
39
211
10
17.468955
20
30.076411
11
17.472135
21
30.088010
0
LINE
8
annotation
62
1
39
211
10
17.472135
20
30.088010
11
17.473237
21
30.100331
0
LINE
8
annotation
62
1
39
211
10
17.473237
20
30.100331
11
17.473237
21
30.100331
0
LINE
8
annotation
62
1
39
211
10
17.473237
20
30.100331
11
17.472135
21
30.112595
0
LINE
8
annotation
62
1
39
211
10
17.472135
20
30.112595
11
17.468955
21
30.124149
0
LINE
8
annotation
62
1
39
211
10
17.468955
20
30.124149
11
17.463892
21
30.134799
0
LINE
8
annotation
62
1
39
211
10
17.463892
20
30.134799
11
17.457138
21
30.144348
0
LINE
8
annotation
62
1
39
211
10
17.457138
20
30.144348
11
17.448886
21
30.152600
0
LINE
8
annotation
62
1
39
211
10
17.448886
20
30.152600
11
17.439328
21
30.159360
0
LINE
8
annotation
62
1
39
211
10
17.439328
20
30.159360
11
17.428657
21
30.164431
0
LINE
8
annotation
62
1
39
211
10
17.428657
20
30.164431
11
17.417067
21
30.167617
0
LINE
8
annotation
62
1
39
211
10
17.417067
20
30.167617
11
17.404749
21
30.168723
0
LINE
8
annotation
62
1
39
211
10
17.404749
20
30.168723
11
17.336261
21
30.168723
0
LINE
8
annotation
62
1
39
211
10
16.324023
20
29.709613
11
16.365443
21
29.709613
0
LINE
8
annotation
62
1
39
211
10
16.365443
20
29.709613
11
16.365443
21
29.709613
0
LINE
8
annotation
62
1
39
211
10
16.365443
20
29.709613
11
16.372893
21
29.710281
0
LINE
8
annotation
62
1
39
211
10
16.372893
20
29.710281
11
16.379903
21
29.712207
0
LINE
8
annotation
62
1
39
211
10
16.379903
20
29.712207
11
16.386356
21
29.715273
0
LINE
8
annotation
62
1
39
211
10
16.386356
20
29.715273
11
16.392137
21
29.719360
0
LINE
8
annotation
62
1
39
211
10
16.392137
20
29.719360
11
16.397128
21
29.724350
0
LINE
8
annotation
62
1
39
211
10
16.397128
20
29.724350
11
16.401212
21
29.730124
0
LINE
8
annotation
62
1
39
211
10
16.401212
20
29.730124
11
16.404274
21
29.736566
0
LINE
8
annotation
62
1
39
211
10
16.404274
20
29.736566
11
16.406197
21
29.743555
0
LINE
8
annotation
62
1
39
211
10
16.406197
20
29.743555
11
16.406864
21
29.750975
0
LINE
8
annotation
62
1
39
211
10
16.406864
20
29.750975
11
16.406864
21
29.771715
0
LINE
8
annotation
62
1
39
211
10
16.406864
20
29.771715
11
16.406864
21
29.771715
0
LINE
8
annotation
62
1
39
211
10
16.406864
20
29.771715
11
16.406197
21
29.779131
0
LINE
8
annotation
62
1
39
211
10
16.406197
20
29.779131
11
16.404274
21
29.786119
0
LINE
8
annotation
62
1
39
211
10
16.404274
20
29.786119
11
16.401212
21
29.792560
0
LINE
8
annotation
62
1
39
211
10
16.401212
20
29.792560
11
16.397128
21
29.798335
0
LINE
8
annotation
62
1
39
211
10
16.397128
20
29.798335
11
16.392137
21
29.803326
0
LINE
8
annotation
62
1
39
211
10
16.392137
20
29.803326
11
16.386356
21
29.807414
0
LINE
8
annotation
62
1
39
211
10
16.386356
20
29.807414
11
16.379903
21
29.810481
0
LINE
8
annotation
62
1
39
211
10
16.379903
20
29.810481
11
16.372893
21
29.812408
0
LINE
8
annotation
62
1
39
211
10
16.372893
20
29.812408
11
16.365443
21
29.813077
0
LINE
8
annotation
62
1
39
211
10
16.365443
20
29.813077
11
16.344704
21
29.813077
0
LINE
8
annotation
62
1
39
211
10
16.344704
20
29.813077
11
16.365443
21
29.813077
0
LINE
8
annotation
62
1
39
211
10
16.365443
20
29.813077
11
16.365443
21
29.813077
0
LINE
8
annotation
62
1
39
211
10
16.365443
20
29.813077
11
16.372893
21
29.813745
0
LINE
8
annotation
62
1
39
211
10
16.372893
20
29.813745
11
16.379903
21
29.815674
0
LINE
8
annotation
62
1
39
211
10
16.379903
20
29.815674
11
16.386356
21
29.818743
0
LINE
8
annotation
62
1
39
211
10
16.386356
20
29.818743
11
16.392137
21
29.822837
0
LINE
8
annotation
62
1
39
211
10
16.392137
20
29.822837
11
16.397128
21
29.827838
0
LINE
8
annotation
62
1
39
211
10
16.397128
20
29.827838
11
16.401212
21
29.833628
0
LINE
8
annotation
62
1
39
211
10
16.401212
20
29.833628
11
16.404274
21
29.840089
0
LINE
8
annotation
62
1
39
211
10
16.404274
20
29.840089
11
16.406197
21
29.847104
0
LINE
8
annotation
62
1
39
211
10
16.406197
20
29.847104
11
16.406864
21
29.854556
0
LINE
8
annotation
62
1
39
211
10
16.406864
20
29.854556
11
16.406864
21
29.854556
0
LINE
8
annotation
62
1
39
211
10
16.406864
20
29.854556
11
16.406197
21
29.861972
0
LINE
8
annotation
62
1
39
211
10
16.406197
20
29.861972
11
16.404274
21
29.868960
0
LINE
8
annotation
62
1
39
211
10
16.404274
20
29.868960
11
16.401212
21
29.875401
0
LINE
8
annotation
62
1
39
211
10
16.401212
20
29.875401
11
16.397128
21
29.881176
0
LINE
8
annotation
62
1
39
211
10
16.397128
20
29.881176
11
16.392137
21
29.886167
0
LINE
8
annotation
62
1
39
211
10
16.392137
20
29.886167
11
16.386356
21
29.890255
0
LINE
8
annotation
62
1
39
211
10
16.386356
20
29.890255
11
16.379903
21
29.893322
0
LINE
8
annotation
62
1
39
211
10
16.379903
20
29.893322
11
16.372893
21
29.895249
0
LINE
8
annotation
62
1
39
211
10
16.372893
20
29.895249
11
16.365443
21
29.895918
0
LINE
8
annotation
62
1
39
211
10
16.365443
20
29.895918
11
16.324023
21
29.895918
0
LINE
8
annotation
62
1
39
211
10
15.646718
20
32.158183
11
15.558194
21
32.158183
0
LINE
8
annotation
62
1
39
211
10
15.558194
20
32.158183
11
15.593548
21
32.282170
0
LINE
8
annotation
62
1
39
211
10
15.620183
20
32.122739
11
15.620183
21
32.193546
0
LINE
8
annotation
62
1
39
211
10
24.907780
20
34.683764
11
24.965638
21
34.683764
0
LINE
8
annotation
62
1
39
211
10
24.965638
20
34.683764
11
24.965638
21
34.683764
0
LINE
8
annotation
62
1
39
211
10
24.965638
20
34.683764
11
24.976022
21
34.684697
0
LINE
8
annotation
62
1
39
211
10
24.976022
20
34.684697
11
24.985802
21
34.687389
0
LINE
8
annotation
62
1
39
211
10
24.985802
20
34.687389
11
24.994813
21
34.691675
0
LINE
8
annotation
62
1
39
211
10
24.994813
20
34.691675
11
25.002890
21
34.697391
0
LINE
8
annotation
62
1
39
211
10
25.002890
20
34.697391
11
25.009869
21
34.704374
0
LINE
8
annotation
62
1
39
211
10
25.009869
20
34.704374
11
25.015583
21
34.712458
0
LINE
8
annotation
62
1
39
211
10
25.015583
20
34.712458
11
25.019869
21
34.721481
0
LINE
8
annotation
62
1
39
211
10
25.019869
20
34.721481
11
25.022562
21
34.731279
0
LINE
8
annotation
62
1
39
211
10
25.022562
20
34.731279
11
25.023496
21
34.741687
0
LINE
8
annotation
62
1
39
211
10
25.023496
20
34.741687
11
25.023496
21
34.770510
0
LINE
8
annotation
62
1
39
211
10
25.023496
20
34.770510
11
25.023496
21
34.770510
0
LINE
8
annotation
62
1
39
211
10
25.023496
20
34.770510
11
25.022562
21
34.780913
0
LINE
8
annotation
62
1
39
211
10
25.022562
20
34.780913
11
25.019871
21
34.790697
0
LINE
8
annotation
62
1
39
211
10
25.019871
20
34.790697
11
25.015587
21
34.799701
0
LINE
8
annotation
62
1
39
211
10
25.015587
20
34.799701
11
25.009874
21
34.807762
0
LINE
8
annotation
62
1
39
211
10
25.009874
20
34.807762
11
25.002897
21
34.814720
0
LINE
8
annotation
62
1
39
211
10
25.002897
20
34.814720
11
24.994821
21
34.820413
0
LINE
8
annotation
62
1
39
211
10
24.994821
20
34.820413
11
24.985809
21
34.824680
0
LINE
8
annotation
62
1
39
211
10
24.985809
20
34.824680
11
24.976026
21
34.827358
0
LINE
8
annotation
62
1
39
211
10
24.976026
20
34.827358
11
24.965638
21
34.828287
0
LINE
8
annotation
62
1
39
211
10
24.965638
20
34.828287
11
24.907780
21
34.828287
0
LINE
8
annotation
62
1
39
211
10
24.907780
20
34.828287
11
24.907780
21
34.944313
0
LINE
8
annotation
62
1
39
211
10
24.907780
20
34.944313
11
25.023496
21
34.944313
0
LINE
8
annotation
62
1
39
211
10
17.341264
20
34.659787
11
17.409771
21
34.659787
0
LINE
8
annotation
62
1
39
211
10
17.409771
20
34.659787
11
17.409771
21
34.659787
0
LINE
8
annotation
62
1
39
211
10
17.409771
20
34.659787
11
17.422066
21
34.660893
0
LINE
8
annotation
62
1
39
211
10
17.422066
20
34.660893
11
17.433647
21
34.664080
0
LINE
8
annotation
62
1
39
211
10
17.433647
20
34.664080
11
17.444316
21
34.669155
0
LINE
8
annotation
62
1
39
211
10
17.444316
20
34.669155
11
17.453880
21
34.675923
0
LINE
8
annotation
62
1
39
211
10
17.453880
20
34.675923
11
17.462142
21
34.684190
0
LINE
8
annotation
62
1
39
211
10
17.462142
20
34.684190
11
17.468909
21
34.693763
0
LINE
8
annotation
62
1
39
211
10
17.468909
20
34.693763
11
17.473983
21
34.704447
0
LINE
8
annotation
62
1
39
211
10
17.473983
20
34.704447
11
17.477171
21
34.716048
0
LINE
8
annotation
62
1
39
211
10
17.477171
20
34.716048
11
17.478277
21
34.728371
0
LINE
8
annotation
62
1
39
211
10
17.478277
20
34.728371
11
17.478277
21
34.762499
0
LINE
8
annotation
62
1
39
211
10
17.478277
20
34.762499
11
17.478277
21
34.762499
0
LINE
8
annotation
62
1
39
211
10
17.478277
20
34.762499
11
17.477172
21
34.774817
0
LINE
8
annotation
62
1
39
211
10
17.477172
20
34.774817
11
17.473986
21
34.786401
0
LINE
8
annotation
62
1
39
211
10
17.473986
20
34.786401
11
17.468913
21
34.797062
0
LINE
8
annotation
62
1
39
211
10
17.468913
20
34.797062
11
17.462149
21
34.806607
0
LINE
8
annotation
62
1
39
211
10
17.462149
20
34.806607
11
17.453888
21
34.814846
0
LINE
8
annotation
62
1
39
211
10
17.453888
20
34.814846
11
17.444325
21
34.821587
0
LINE
8
annotation
62
1
39
211
10
17.444325
20
34.821587
11
17.433654
21
34.826638
0
LINE
8
annotation
62
1
39
211
10
17.433654
20
34.826638
11
17.422071
21
34.829809
0
LINE
8
annotation
62
1
39
211
10
17.422071
20
34.829809
11
17.409771
21
34.830909
0
LINE
8
annotation
62
1
39
211
10
17.409771
20
34.830909
11
17.341264
21
34.830909
0
LINE
8
annotation
62
1
39
211
10
17.341264
20
34.830909
11
17.341264
21
34.968290
0
LINE
8
annotation
62
1
39
211
10
17.341264
20
34.968290
11
17.478277
21
34.968290
0
LINE
8
annotation
62
1
39
211
10
16.264613
20
34.749678
11
16.293197
21
34.749678
0
LINE
8
annotation
62
1
39
211
10
16.293197
20
34.749678
11
16.293197
21
34.749678
0
LINE
8
annotation
62
1
39
211
10
16.293197
20
34.749678
11
16.298328
21
34.750139
0
LINE
8
annotation
62
1
39
211
10
16.298328
20
34.750139
11
16.303159
21
34.751469
0
LINE
8
annotation
62
1
39
211
10
16.303159
20
34.751469
11
16.307611
21
34.753586
0
LINE
8
annotation
62
1
39
211
10
16.307611
20
34.753586
11
16.311602
21
34.756410
0
LINE
8
annotation
62
1
39
211
10
16.311602
20
34.756410
11
16.315049
21
34.759860
0
LINE
8
annotation
62
1
39
211
10
16.315049
20
34.759860
11
16.317872
21
34.763854
0
LINE
8
annotation
62
1
39
211
10
16.317872
20
34.763854
11
16.319990
21
34.768312
0
LINE
8
annotation
62
1
39
211
10
16.319990
20
34.768312
11
16.321320
21
34.773152
0
LINE
8
annotation
62
1
39
211
10
16.321320
20
34.773152
11
16.321782
21
34.778294
0
LINE
8
annotation
62
1
39
211
10
16.321782
20
34.778294
11
16.321782
21
34.792534
0
LINE
8
annotation
62
1
39
211
10
16.321782
20
34.792534
11
16.321782
21
34.792534
0
LINE
8
annotation
62
1
39
211
10
16.321782
20
34.792534
11
16.321320
21
34.797673
0
LINE
8
annotation
62
1
39
211
10
16.321320
20
34.797673
11
16.319991
21
34.802507
0
LINE
8
annotation
62
1
39
211
10
16.319991
20
34.802507
11
16.317874
21
34.806955
0
LINE
8
annotation
62
1
39
211
10
16.317874
20
34.806955
11
16.315052
21
34.810938
0
LINE
8
annotation
62
1
39
211
10
16.315052
20
34.810938
11
16.311605
21
34.814375
0
LINE
8
annotation
62
1
39
211
10
16.311605
20
34.814375
11
16.307615
21
34.817188
0
LINE
8
annotation
62
1
39
211
10
16.307615
20
34.817188
11
16.303163
21
34.819296
0
LINE
8
annotation
62
1
39
211
10
16.303163
20
34.819296
11
16.298330
21
34.820619
0
LINE
8
annotation
62
1
39
211
10
16.298330
20
34.820619
11
16.293197
21
34.821078
0
LINE
8
annotation
62
1
39
211
10
16.293197
20
34.821078
11
16.264613
21
34.821078
0
LINE
8
annotation
62
1
39
211
10
16.264613
20
34.821078
11
16.264613
21
34.878399
0
LINE
8
annotation
62
1
39
211
10
16.264613
20
34.878399
11
16.321782
21
34.878399
0
LINE
8
annotation
62
1
39
211
10
20.777377
20
28.921047
11
20.713233
21
28.828269
0
LINE
8
annotation
62
1
39
211
10
20.713233
20
28.828269
11
20.649077
21
28.921047
0
LINE
8
annotation
62
1
39
211
10
20.713233
20
28.835735
11
20.713233
21
28.728701
0
LINE
8
annotation
62
1
39
211
10
20.954691
20
28.824874
11
20.849526
21
28.824874
0
LINE
8
annotation
62
1
39
211
10
21.133592
20
28.771465
11
21.026799
21
28.771465
0
LINE
8
annotation
62
1
39
211
10
21.026799
20
28.771465
11
21.069449
21
28.921041
0
LINE
8
annotation
62
1
39
211
10
21.101581
20
28.728707
11
21.101581
21
28.814127
0
LINE
8
annotation
62
1
39
211
10
21.310901
20
28.824874
11
21.205736
21
28.824874
0
LINE
8
annotation
62
1
39
211
10
21.425773
20
28.728707
11
21.425773
21
28.921041
0
LINE
8
annotation
62
1
39
211
10
21.425773
20
28.921041
11
21.383014
21
28.878271
0
LINE
8
frame
62
5
39
2
10
0.000000
20
0.000000
11
40.000000
21
0.000000
0
LINE
8
frame
62
5
39
2
10
40.000000
20
0.000000
11
40.000000
21
40.000000
0
LINE
8
frame
62
5
39
2
10
40.000000
20
40.000000
11
0.000000
21
40.000000
0
LINE
8
frame
62
5
39
2
10
0.000000
20
40.000000
11
0.000000
21
0.000000
0
ENDSEC
0
EOF
