0
SECTION
2
HEADER
9
$ACADVER
1
AC1009
0
ENDSEC
0
SECTION
2
TABLES
0
TABLE
2
VPORT
70
1
0
VPORT
2
ACTIVE
70
0
10
0.0
20
0.0
11
0.0
21
0.0
12
0.0
22
0.0
13
0.0
23
0.0
14
0.0
24
0.0
15
0.0
25
0.0
16
0.0
26
0.0
36
0.0
17
0.0
27
0.0
37
0.0
40
0.0
41
0.0
42
0.0
43
0.0
44
0.0
50
0.0
51
0.0
71
0
72
1000
73
1
74
3
75
0
76
0
77
0
78
0
0
ENDTAB
0
ENDSEC
0
SECTION
2
ENTITIES
0
LINE
8
hole
62
5
39
2
10
19.828606
20
24.421435
11
19.836018
21
24.433756
0
LINE
8
hole
62
5
39
2
10
19.836018
20
24.433756
11
19.929738
21
24.334108
0
LINE
8
hole
62
5
39
2
10
19.929738
20
24.334108
11
19.920868
21
24.321883
0
LINE
8
hole
62
5
39
2
10
19.920868
20
24.321883
11
19.908314
21
24.311092
0
LINE
8
hole
62
5
39
2
10
19.908314
20
24.311092
11
19.837507
21
24.388346
0
LINE
8
hole
62
5
39
2
10
19.837507
20
24.388346
11
19.828837
21
24.414998
0
LINE
8
hole
62
5
39
2
10
19.828837
20
24.414998
11
19.828606
21
24.421435
0
LINE
8
hole
62
5
39
2
10
20.034007
20
24.250385
11
20.018426
21
24.233103
0
LINE
8
hole
62
5
39
2
10
20.018426
20
24.233103
11
20.131025
21
24.103665
0
LINE
8
hole
62
5
39
2
10
20.131025
20
24.103665
11
20.131535
21
24.102828
0
LINE
8
hole
62
5
39
2
10
20.131535
20
24.102828
11
20.132886
21
24.100574
0
LINE
8
hole
62
5
39
2
10
20.132886
20
24.100574
11
20.127147
21
24.093366
0
LINE
8
hole
62
5
39
2
10
20.127147
20
24.093366
11
20.106725
21
24.068366
0
LINE
8
hole
62
5
39
2
10
20.106725
20
24.068366
11
20.102695
21
24.072333
0
LINE
8
hole
62
5
39
2
10
20.102695
20
24.072333
11
20.102242
21
24.072864
0
LINE
8
hole
62
5
39
2
10
20.102242
20
24.072864
11
19.998721
21
24.194348
0
LINE
8
hole
62
5
39
2
10
19.998721
20
24.194348
11
19.991861
21
24.176437
0
LINE
8
hole
62
5
39
2
10
19.991861
20
24.176437
11
19.978769
21
24.155268
0
LINE
8
hole
62
5
39
2
10
19.978769
20
24.155268
11
19.952062
21
24.187516
0
LINE
8
hole
62
5
39
2
10
19.952062
20
24.187516
11
19.941871
21
24.198893
0
LINE
8
hole
62
5
39
2
10
19.941871
20
24.198893
11
19.950517
21
24.212024
0
LINE
8
hole
62
5
39
2
10
19.950517
20
24.212024
11
19.964639
21
24.234548
0
LINE
8
hole
62
5
39
2
10
19.964639
20
24.234548
11
19.937549
21
24.269877
0
LINE
8
hole
62
5
39
2
10
19.937549
20
24.269877
11
19.945837
21
24.293482
0
LINE
8
hole
62
5
39
2
10
19.945837
20
24.293482
11
19.951981
21
24.304217
0
LINE
8
hole
62
5
39
2
10
19.951981
20
24.304217
11
19.988067
21
24.262446
0
LINE
8
hole
62
5
39
2
10
19.988067
20
24.262446
11
20.002293
21
24.281594
0
LINE
8
hole
62
5
39
2
10
20.002293
20
24.281594
11
20.014682
21
24.296793
0
LINE
8
hole
62
5
39
2
10
20.014682
20
24.296793
11
20.007077
21
24.277247
0
LINE
8
hole
62
5
39
2
10
20.007077
20
24.277247
11
20.033452
21
24.252120
0
LINE
8
hole
62
5
39
2
10
20.033452
20
24.252120
11
20.034173
21
24.250927
0
LINE
8
hole
62
5
39
2
10
20.034173
20
24.250927
11
20.034007
21
24.250385
0
LINE
8
boundary
62
5
39
2
10
12.887105
20
15.911005
11
12.548984
21
15.295331
0
LINE
8
boundary
62
5
39
2
10
12.548984
20
15.295331
11
12.695886
21
15.125260
0
LINE
8
boundary
62
5
39
2
10
12.695886
20
15.125260
11
12.701495
21
15.118319
0
LINE
8
boundary
62
5
39
2
10
12.701495
20
15.118319
11
12.685297
21
15.097723
0
LINE
8
boundary
62
5
39
2
10
12.685297
20
15.097723
11
12.696173
21
15.089497
0
LINE
8
boundary
62
5
39
2
10
12.696173
20
15.089497
11
12.711057
21
15.080535
0
LINE
8
boundary
62
5
39
2
10
12.711057
20
15.080535
11
12.712227
21
15.082162
0
LINE
8
boundary
62
5
39
2
10
12.712227
20
15.082162
11
12.713720
21
15.084241
0
LINE
8
boundary
62
5
39
2
10
12.713720
20
15.084241
11
12.721100
21
15.066229
0
LINE
8
boundary
62
5
39
2
10
12.721100
20
15.066229
11
12.726019
21
15.079117
0
LINE
8
boundary
62
5
39
2
10
12.726019
20
15.079117
11
12.732125
21
15.075966
0
LINE
8
boundary
62
5
39
2
10
12.732125
20
15.075966
11
12.835506
21
15.005944
0
LINE
8
boundary
62
5
39
2
10
12.835506
20
15.005944
11
12.836990
21
15.001135
0
LINE
8
boundary
62
5
39
2
10
12.836990
20
15.001135
11
12.842623
21
14.979740
0
LINE
8
boundary
62
5
39
2
10
12.842623
20
14.979740
11
12.763260
21
15.002661
0
LINE
8
boundary
62
5
39
2
10
12.763260
20
15.002661
11
12.759052
21
15.004464
0
LINE
8
boundary
62
5
39
2
10
12.759052
20
15.004464
11
12.731881
21
15.010995
0
LINE
8
boundary
62
5
39
2
10
12.731881
20
15.010995
11
12.847928
21
14.615492
0
LINE
8
boundary
62
5
39
2
10
12.847928
20
14.615492
11
12.915385
21
14.381070
0
LINE
8
boundary
62
5
39
2
10
12.915385
20
14.381070
11
12.936674
21
14.377115
0
LINE
8
boundary
62
5
39
2
10
12.936674
20
14.377115
11
12.944096
21
14.376776
0
LINE
8
boundary
62
5
39
2
10
12.944096
20
14.376776
11
12.999136
21
14.370894
0
LINE
8
boundary
62
5
39
2
10
12.999136
20
14.370894
11
12.999478
21
14.369771
0
LINE
8
boundary
62
5
39
2
10
12.999478
20
14.369771
11
13.016960
21
14.366694
0
LINE
8
boundary
62
5
39
2
10
13.016960
20
14.366694
11
13.039514
21
14.357049
0
LINE
8
boundary
62
5
39
2
10
13.039514
20
14.357049
11
13.055019
21
14.350457
0
LINE
8
boundary
62
5
39
2
10
13.055019
20
14.350457
11
13.022454
21
14.501655
0
LINE
8
boundary
62
5
39
2
10
13.022454
20
14.501655
11
13.007689
21
14.569989
0
LINE
8
boundary
62
5
39
2
10
13.007689
20
14.569989
11
12.938577
21
14.910620
0
LINE
8
boundary
62
5
39
2
10
12.938577
20
14.910620
11
12.907713
21
14.891683
0
LINE
8
boundary
62
5
39
2
10
12.907713
20
14.891683
11
12.876805
21
14.878948
0
LINE
8
boundary
62
5
39
2
10
12.876805
20
14.878948
11
12.855973
21
14.935122
0
LINE
8
boundary
62
5
39
2
10
12.855973
20
14.935122
11
12.855800
21
14.934981
0
LINE
8
boundary
62
5
39
2
10
12.855800
20
14.934981
11
12.855207
21
14.934496
0
LINE
8
boundary
62
5
39
2
10
12.855207
20
14.934496
11
12.860164
21
14.892938
0
LINE
8
boundary
62
5
39
2
10
12.860164
20
14.892938
11
12.864326
21
14.875639
0
LINE
8
boundary
62
5
39
2
10
12.864326
20
14.875639
11
12.823254
21
14.856324
0
LINE
8
boundary
62
5
39
2
10
12.823254
20
14.856324
11
12.796988
21
14.845758
0
LINE
8
boundary
62
5
39
2
10
12.796988
20
14.845758
11
12.828054
21
14.900319
0
LINE
8
boundary
62
5
39
2
10
12.828054
20
14.900319
11
12.832810
21
14.908673
0
LINE
8
boundary
62
5
39
2
10
12.832810
20
14.908673
11
12.833146
21
14.909292
0
LINE
8
boundary
62
5
39
2
10
12.833146
20
14.909292
11
12.835636
21
14.911539
0
LINE
8
boundary
62
5
39
2
10
12.835636
20
14.911539
11
12.849165
21
14.931476
0
LINE
8
boundary
62
5
39
2
10
12.849165
20
14.931476
11
12.854143
21
14.940609
0
LINE
8
boundary
62
5
39
2
10
12.854143
20
14.940609
11
13.294307
21
15.611607
0
LINE
8
boundary
62
5
39
2
10
13.294307
20
15.611607
11
13.427095
21
15.817900
0
LINE
8
boundary
62
5
39
2
10
13.427095
20
15.817900
11
13.466566
21
15.868632
0
LINE
8
boundary
62
5
39
2
10
13.466566
20
15.868632
11
13.475280
21
15.884506
0
LINE
8
boundary
62
5
39
2
10
13.475280
20
15.884506
11
13.462750
21
15.911005
0
LINE
8
boundary
62
5
39
2
10
13.462750
20
15.911005
11
12.887105
21
15.911005
0
LINE
8
boundary
62
5
39
2
10
12.345138
20
5.535498
11
12.075678
21
3.677031
0
LINE
8
boundary
62
5
39
2
10
12.075678
20
3.677031
11
13.895175
21
2.855594
0
LINE
8
boundary
62
5
39
2
10
13.895175
20
2.855594
11
18.161742
21
0.969721
0
LINE
8
boundary
62
5
39
2
10
18.161742
20
0.969721
11
18.556007
21
1.493716
0
LINE
8
boundary
62
5
39
2
10
18.556007
20
1.493716
11
18.556279
21
1.494076
0
LINE
8
boundary
62
5
39
2
10
18.556279
20
1.494076
11
19.354456
21
2.655855
0
LINE
8
boundary
62
5
39
2
10
19.354456
20
2.655855
11
19.369395
21
2.677486
0
LINE
8
boundary
62
5
39
2
10
19.369395
20
2.677486
11
19.395763
21
2.711405
0
LINE
8
boundary
62
5
39
2
10
19.395763
20
2.711405
11
19.357213
21
2.650535
0
LINE
8
boundary
62
5
39
2
10
19.357213
20
2.650535
11
18.685787
21
1.568800
0
LINE
8
boundary
62
5
39
2
10
18.685787
20
1.568800
11
18.176271
21
0.890954
0
LINE
8
boundary
62
5
39
2
10
18.176271
20
0.890954
11
14.049532
21
2.682435
0
LINE
8
boundary
62
5
39
2
10
14.049532
20
2.682435
11
12.000517
21
3.612944
0
LINE
8
boundary
62
5
39
2
10
12.000517
20
3.612944
11
12.177317
21
4.609228
0
LINE
8
boundary
62
5
39
2
10
12.177317
20
4.609228
11
12.325263
21
5.535498
0
LINE
8
boundary
62
5
39
2
10
12.325263
20
5.535498
11
12.301675
21
5.535498
0
LINE
8
boundary
62
5
39
2
10
12.301675
20
5.535498
11
12.301675
21
6.040098
0
LINE
8
boundary
62
5
39
2
10
12.301675
20
6.040098
11
12.397562
21
6.040098
0
LINE
8
boundary
62
5
39
2
10
12.397562
20
6.040098
11
12.410092
21
6.066598
0
LINE
8
boundary
62
5
39
2
10
12.410092
20
6.066598
11
12.419382
21
6.124761
0
LINE
8
boundary
62
5
39
2
10
12.419382
20
6.124761
11
12.457954
21
6.366586
0
LINE
8
boundary
62
5
39
2
10
12.457954
20
6.366586
11
12.479049
21
6.505051
0
LINE
8
boundary
62
5
39
2
10
12.479049
20
6.505051
11
12.480009
21
6.510141
0
LINE
8
boundary
62
5
39
2
10
12.480009
20
6.510141
11
12.482313
21
6.524486
0
LINE
8
boundary
62
5
39
2
10
12.482313
20
6.524486
11
12.818278
21
8.616628
0
LINE
8
boundary
62
5
39
2
10
12.818278
20
8.616628
11
12.818232
21
8.616637
0
LINE
8
boundary
62
5
39
2
10
12.818232
20
8.616637
11
12.809887
21
8.593751
0
LINE
8
boundary
62
5
39
2
10
12.809887
20
8.593751
11
12.804932
21
8.583011
0
LINE
8
boundary
62
5
39
2
10
12.804932
20
8.583011
11
12.481749
21
7.064566
0
LINE
8
boundary
62
5
39
2
10
12.481749
20
7.064566
11
12.173928
21
5.615027
0
LINE
8
boundary
62
5
39
2
10
12.173928
20
5.615027
11
11.799469
21
3.452448
0
LINE
8
boundary
62
5
39
2
10
11.799469
20
3.452448
11
14.185533
21
2.352679
0
LINE
8
boundary
62
5
39
2
10
14.185533
20
2.352679
11
18.229574
21
0.686750
0
LINE
8
boundary
62
5
39
2
10
18.229574
20
0.686750
11
18.972548
21
1.680061
0
LINE
8
boundary
62
5
39
2
10
18.972548
20
1.680061
11
19.703875
21
3.083536
0
LINE
8
boundary
62
5
39
2
10
19.703875
20
3.083536
11
19.801897
21
3.272146
0
LINE
8
boundary
62
5
39
2
10
19.801897
20
3.272146
11
19.949674
21
3.466938
0
LINE
8
boundary
62
5
39
2
10
19.949674
20
3.466938
11
19.889553
21
3.435003
0
LINE
8
boundary
62
5
39
2
10
19.889553
20
3.435003
11
19.923441
21
3.503586
0
LINE
8
boundary
62
5
39
2
10
19.923441
20
3.503586
11
19.931588
21
3.516469
0
LINE
8
boundary
62
5
39
2
10
19.931588
20
3.516469
11
19.940343
21
3.529865
0
LINE
8
boundary
62
5
39
2
10
19.940343
20
3.529865
11
19.935423
21
3.528584
0
LINE
8
boundary
62
5
39
2
10
19.935423
20
3.528584
11
19.938475
21
3.534124
0
LINE
8
boundary
62
5
39
2
10
19.938475
20
3.534124
11
19.941935
21
3.540759
0
LINE
8
boundary
62
5
39
2
10
19.941935
20
3.540759
11
20.027510
21
3.702969
0
LINE
8
boundary
62
5
39
2
10
20.027510
20
3.702969
11
19.556572
21
3.751275
0
LINE
8
boundary
62
5
39
2
10
19.556572
20
3.751275
11
18.932941
21
3.874633
0
LINE
8
boundary
62
5
39
2
10
18.932941
20
3.874633
11
18.777632
21
3.622197
0
LINE
8
boundary
62
5
39
2
10
18.777632
20
3.622197
11
18.179490
21
2.321185
0
LINE
8
boundary
62
5
39
2
10
18.179490
20
2.321185
11
16.887562
21
3.112809
0
LINE
8
boundary
62
5
39
2
10
16.887562
20
3.112809
11
14.387193
21
4.349583
0
LINE
8
boundary
62
5
39
2
10
14.387193
20
4.349583
11
14.840523
21
5.508998
0
LINE
8
boundary
62
5
39
2
10
14.840523
20
5.508998
11
14.847870
21
5.527789
0
LINE
8
boundary
62
5
39
2
10
14.847870
20
5.527789
11
14.844225
21
5.535498
0
LINE
8
boundary
62
5
39
2
10
14.844225
20
5.535498
11
14.844225
21
6.040098
0
LINE
8
boundary
62
5
39
2
10
14.844225
20
6.040098
11
15.040570
21
6.040098
0
LINE
8
boundary
62
5
39
2
10
15.040570
20
6.040098
11
15.053100
21
6.066598
0
LINE
8
boundary
62
5
39
2
10
15.053100
20
6.066598
11
16.839641
21
11.200582
0
LINE
8
boundary
62
5
39
2
10
16.839641
20
11.200582
11
14.937537
21
14.212780
0
LINE
8
boundary
62
5
39
2
10
14.937537
20
14.212780
11
14.860164
21
14.216368
0
LINE
8
boundary
62
5
39
2
10
14.860164
20
14.216368
11
14.769709
21
14.218871
0
LINE
8
boundary
62
5
39
2
10
14.769709
20
14.218871
11
14.757583
21
14.219629
0
LINE
8
boundary
62
5
39
2
10
14.757583
20
14.219629
11
13.289054
21
14.311576
0
LINE
8
boundary
62
5
39
2
10
13.289054
20
14.311576
11
13.612373
21
14.263922
0
LINE
8
boundary
62
5
39
2
10
13.612373
20
14.263922
11
13.941165
21
14.217260
0
LINE
8
boundary
62
5
39
2
10
13.941165
20
14.217260
11
14.261794
21
14.175610
0
LINE
8
boundary
62
5
39
2
10
14.261794
20
14.175610
11
14.306209
21
14.167736
0
LINE
8
boundary
62
5
39
2
10
14.306209
20
14.167736
11
14.246239
21
14.170996
0
LINE
8
boundary
62
5
39
2
10
14.246239
20
14.170996
11
14.209141
21
14.175317
0
LINE
8
boundary
62
5
39
2
10
14.209141
20
14.175317
11
14.134995
21
14.183910
0
LINE
8
boundary
62
5
39
2
10
14.134995
20
14.183910
11
14.058091
21
14.184333
0
LINE
8
boundary
62
5
39
2
10
14.058091
20
14.184333
11
13.781759
21
14.210866
0
LINE
8
boundary
62
5
39
2
10
13.781759
20
14.210866
11
14.793908
21
14.025838
0
LINE
8
boundary
62
5
39
2
10
14.793908
20
14.025838
11
16.533204
21
11.213163
0
LINE
8
boundary
62
5
39
2
10
16.533204
20
11.213163
11
14.813661
21
6.066598
0
LINE
8
boundary
62
5
39
2
10
14.813661
20
6.066598
11
14.840523
21
6.066598
0
LINE
8
boundary
62
5
39
2
10
14.840523
20
6.066598
11
14.840523
21
5.508998
0
LINE
8
boundary
62
5
39
2
10
14.840523
20
5.508998
11
14.827993
21
5.535498
0
LINE
8
boundary
62
5
39
2
10
14.827993
20
5.535498
11
14.636213
21
5.535498
0
LINE
8
boundary
62
5
39
2
10
14.636213
20
5.535498
11
14.564403
21
5.320572
0
LINE
8
boundary
62
5
39
2
10
14.564403
20
5.320572
11
14.203399
21
4.333988
0
LINE
8
boundary
62
5
39
2
10
14.203399
20
4.333988
11
17.039858
21
2.823730
0
LINE
8
boundary
62
5
39
2
10
17.039858
20
2.823730
11
18.231379
21
2.114160
0
LINE
8
boundary
62
5
39
2
10
18.231379
20
2.114160
11
18.529358
21
2.567756
0
LINE
8
boundary
62
5
39
2
10
18.529358
20
2.567756
11
19.162215
21
3.554094
0
LINE
8
boundary
62
5
39
2
10
19.162215
20
3.554094
11
19.560226
21
3.513260
0
LINE
8
boundary
62
5
39
2
10
19.560226
20
3.513260
11
19.625106
21
3.520753
0
LINE
8
boundary
62
5
39
2
10
19.625106
20
3.520753
11
19.866492
21
3.562100
0
LINE
8
boundary
62
5
39
2
10
19.866492
20
3.562100
11
19.928379
21
3.572019
0
LINE
8
boundary
62
5
39
2
10
19.928379
20
3.572019
11
19.929269
21
3.572088
0
LINE
8
boundary
62
5
39
2
10
19.929269
20
3.572088
11
19.928842
21
3.571163
0
LINE
8
boundary
62
5
39
2
10
19.928842
20
3.571163
11
19.891555
21
3.506127
0
LINE
8
boundary
62
5
39
2
10
19.891555
20
3.506127
11
19.761718
21
3.466822
0
LINE
8
boundary
62
5
39
2
10
19.761718
20
3.466822
11
19.614203
21
3.422039
0
LINE
8
boundary
62
5
39
2
10
19.614203
20
3.422039
11
19.280800
21
3.414468
0
LINE
8
boundary
62
5
39
2
10
19.280800
20
3.414468
11
19.130834
21
3.206273
0
LINE
8
boundary
62
5
39
2
10
19.130834
20
3.206273
11
18.253237
21
2.023313
0
LINE
8
boundary
62
5
39
2
10
18.253237
20
2.023313
11
17.141070
21
2.680663
0
LINE
8
boundary
62
5
39
2
10
17.141070
20
2.680663
11
14.131044
21
4.326368
0
LINE
8
boundary
62
5
39
2
10
14.131044
20
4.326368
11
14.355521
21
4.955484
0
LINE
8
boundary
62
5
39
2
10
14.355521
20
4.955484
11
14.537813
21
5.508998
0
LINE
8
boundary
62
5
39
2
10
14.537813
20
5.508998
11
14.525283
21
5.535498
0
LINE
8
boundary
62
5
39
2
10
14.525283
20
5.535498
11
13.520753
21
5.535498
0
LINE
8
boundary
62
5
39
2
10
13.520753
20
5.535498
11
12.345138
21
5.535498
0
LINE
8
boundary
62
5
39
2
10
28.759244
20
22.318242
11
25.634487
21
23.347476
0
LINE
8
boundary
62
5
39
2
10
25.634487
20
23.347476
11
24.562322
21
23.674223
0
LINE
8
boundary
62
5
39
2
10
24.562322
20
23.674223
11
24.570940
21
26.260014
0
LINE
8
boundary
62
5
39
2
10
24.570940
20
26.260014
11
24.558410
21
26.286513
0
LINE
8
boundary
62
5
39
2
10
24.558410
20
26.286513
11
24.469173
21
26.286514
0
LINE
8
boundary
62
5
39
2
10
24.469173
20
26.286514
11
24.469173
21
26.791113
0
LINE
8
boundary
62
5
39
2
10
24.469173
20
26.791113
11
24.560268
21
26.791114
0
LINE
8
boundary
62
5
39
2
10
24.560268
20
26.791114
11
24.572798
21
26.817613
0
LINE
8
boundary
62
5
39
2
10
24.572798
20
26.817613
11
24.579178
21
28.731983
0
LINE
8
boundary
62
5
39
2
10
24.579178
20
28.731983
11
24.559209
21
28.799644
0
LINE
8
boundary
62
5
39
2
10
24.559209
20
28.799644
11
24.442476
21
29.195515
0
LINE
8
boundary
62
5
39
2
10
24.442476
20
29.195515
11
24.412570
21
29.294624
0
LINE
8
boundary
62
5
39
2
10
24.412570
20
29.294624
11
24.403832
21
29.325728
0
LINE
8
boundary
62
5
39
2
10
24.403832
20
29.325728
11
23.215895
21
30.108628
0
LINE
8
boundary
62
5
39
2
10
23.215895
20
30.108628
11
20.295116
21
31.736011
0
LINE
8
boundary
62
5
39
2
10
20.295116
20
31.736011
11
19.338363
21
31.211243
0
LINE
8
boundary
62
5
39
2
10
19.338363
20
31.211243
11
17.372721
21
30.220071
0
LINE
8
boundary
62
5
39
2
10
17.372721
20
30.220071
11
15.729844
21
28.755942
0
LINE
8
boundary
62
5
39
2
10
15.729844
20
28.755942
11
14.781829
21
28.079687
0
LINE
8
boundary
62
5
39
2
10
14.781829
20
28.079687
11
13.748079
21
27.525625
0
LINE
8
boundary
62
5
39
2
10
13.748079
20
27.525625
11
11.679526
21
26.185715
0
LINE
8
boundary
62
5
39
2
10
11.679526
20
26.185715
11
9.900360
21
25.518065
0
LINE
8
boundary
62
5
39
2
10
9.900360
20
25.518065
11
9.128298
21
25.260132
0
LINE
8
boundary
62
5
39
2
10
9.128298
20
25.260132
11
6.111968
21
23.860772
0
LINE
8
boundary
62
5
39
2
10
6.111968
20
23.860772
11
6.009102
21
23.774072
0
LINE
8
boundary
62
5
39
2
10
6.009102
20
23.774072
11
3.960373
21
20.907511
0
LINE
8
boundary
62
5
39
2
10
3.960373
20
20.907511
11
3.496139
21
20.389229
0
LINE
8
boundary
62
5
39
2
10
3.496139
20
20.389229
11
1.188984
21
16.777945
0
LINE
8
boundary
62
5
39
2
10
1.188984
20
16.777945
11
0.711205
21
11.432075
0
LINE
8
boundary
62
5
39
2
10
0.711205
20
11.432075
11
0.686750
21
11.031316
0
LINE
8
boundary
62
5
39
2
10
0.686750
20
11.031316
11
0.720080
21
10.967558
0
LINE
8
boundary
62
5
39
2
10
0.720080
20
10.967558
11
1.887391
21
8.881693
0
LINE
8
boundary
62
5
39
2
10
1.887391
20
8.881693
11
2.779998
21
7.471499
0
LINE
8
boundary
62
5
39
2
10
2.779998
20
7.471499
11
3.908197
21
6.842520
0
LINE
8
boundary
62
5
39
2
10
3.908197
20
6.842520
11
6.765686
21
5.323766
0
LINE
8
boundary
62
5
39
2
10
6.765686
20
5.323766
11
7.099415
21
5.508998
0
LINE
8
boundary
62
5
39
2
10
7.099415
20
5.508998
11
7.086885
21
5.535497
0
LINE
8
boundary
62
5
39
2
10
7.086885
20
5.535497
11
6.675542
21
5.535498
0
LINE
8
boundary
62
5
39
2
10
6.675542
20
5.535498
11
6.675542
21
5.836896
0
LINE
8
boundary
62
5
39
2
10
6.675542
20
5.836896
11
3.941893
21
7.414219
0
LINE
8
boundary
62
5
39
2
10
3.941893
20
7.414219
11
3.176557
21
7.892186
0
LINE
8
boundary
62
5
39
2
10
3.176557
20
7.892186
11
2.219146
21
9.346219
0
LINE
8
boundary
62
5
39
2
10
2.219146
20
9.346219
11
1.282742
21
11.016877
0
LINE
8
boundary
62
5
39
2
10
1.282742
20
11.016877
11
1.483504
21
11.476775
0
LINE
8
boundary
62
5
39
2
10
1.483504
20
11.476775
11
1.394939
21
11.957729
0
LINE
8
boundary
62
5
39
2
10
1.394939
20
11.957729
11
1.739731
21
15.884505
0
LINE
8
boundary
62
5
39
2
10
1.739731
20
15.884505
11
1.727201
21
15.911006
0
LINE
8
boundary
62
5
39
2
10
1.727201
20
15.911006
11
1.461634
21
15.911006
0
LINE
8
boundary
62
5
39
2
10
1.461634
20
15.911006
11
1.461634
21
16.415605
0
LINE
8
boundary
62
5
39
2
10
1.461634
20
16.415605
11
1.776161
21
16.415606
0
LINE
8
boundary
62
5
39
2
10
1.776161
20
16.415606
11
1.788691
21
16.442106
0
LINE
8
boundary
62
5
39
2
10
1.788691
20
16.442106
11
1.800982
21
16.582078
0
LINE
8
boundary
62
5
39
2
10
1.800982
20
16.582078
11
3.640307
21
19.401649
0
LINE
8
boundary
62
5
39
2
10
3.640307
20
19.401649
11
4.642422
21
20.541505
0
LINE
8
boundary
62
5
39
2
10
4.642422
20
20.541505
11
6.333558
21
22.903814
0
LINE
8
boundary
62
5
39
2
10
6.333558
20
22.903814
11
6.802050
21
23.289359
0
LINE
8
boundary
62
5
39
2
10
6.802050
20
23.289359
11
9.256914
21
24.396848
0
LINE
8
boundary
62
5
39
2
10
9.256914
20
24.396848
11
10.476272
21
24.798356
0
LINE
8
boundary
62
5
39
2
10
10.476272
20
24.798356
11
11.735351
21
25.275908
0
LINE
8
boundary
62
5
39
2
10
11.735351
20
25.275908
11
13.307436
21
26.299202
0
LINE
8
boundary
62
5
39
2
10
13.307436
20
26.299202
11
15.448585
21
27.489541
0
LINE
8
boundary
62
5
39
2
10
15.448585
20
27.489541
11
17.623850
21
28.970015
0
LINE
8
boundary
62
5
39
2
10
17.623850
20
28.970015
11
18.111156
21
29.414998
0
LINE
8
boundary
62
5
39
2
10
18.111156
20
29.414998
11
18.659845
21
29.688771
0
LINE
8
boundary
62
5
39
2
10
18.659845
20
29.688771
11
20.632672
21
30.845881
0
LINE
8
boundary
62
5
39
2
10
20.632672
20
30.845881
11
23.569439
21
29.326369
0
LINE
8
boundary
62
5
39
2
10
23.569439
20
29.326369
11
24.097101
21
28.773900
0
LINE
8
boundary
62
5
39
2
10
24.097101
20
28.773900
11
24.337186
21
27.018453
0
LINE
8
boundary
62
5
39
2
10
24.337186
20
27.018453
11
24.384232
21
23.512290
0
LINE
8
boundary
62
5
39
2
10
24.384232
20
23.512290
11
25.360006
21
23.186649
0
LINE
8
boundary
62
5
39
2
10
25.360006
20
23.186649
11
25.321374
21
22.949568
0
LINE
8
boundary
62
5
39
2
10
25.321374
20
22.949568
11
25.300881
21
20.897962
0
LINE
8
boundary
62
5
39
2
10
25.300881
20
20.897962
11
22.476137
21
21.286703
0
LINE
8
boundary
62
5
39
2
10
22.476137
20
21.286703
11
22.336956
21
21.450037
0
LINE
8
boundary
62
5
39
2
10
22.336956
20
21.450037
11
20.179779
21
23.978294
0
LINE
8
boundary
62
5
39
2
10
20.179779
20
23.978294
11
20.193148
21
24.007326
0
LINE
8
boundary
62
5
39
2
10
20.193148
20
24.007326
11
20.198241
21
24.014428
0
LINE
8
boundary
62
5
39
2
10
20.198241
20
24.014428
11
22.435617
21
21.431912
0
LINE
8
boundary
62
5
39
2
10
22.435617
20
21.431912
11
22.504108
21
21.352634
0
LINE
8
boundary
62
5
39
2
10
22.504108
20
21.352634
11
23.829547
21
21.172002
0
LINE
8
boundary
62
5
39
2
10
23.829547
20
21.172002
11
23.985755
21
23.062641
0
LINE
8
boundary
62
5
39
2
10
23.985755
20
23.062641
11
24.130014
21
23.626777
0
LINE
8
boundary
62
5
39
2
10
24.130014
20
23.626777
11
23.721546
21
26.260014
0
LINE
8
boundary
62
5
39
2
10
23.721546
20
26.260014
11
23.709016
21
26.286513
0
LINE
8
boundary
62
5
39
2
10
23.709016
20
26.286513
11
17.788988
21
26.286514
0
LINE
8
boundary
62
5
39
2
10
17.788988
20
26.286514
11
17.788988
21
26.791113
0
LINE
8
boundary
62
5
39
2
10
17.788988
20
26.791113
11
23.622521
21
26.791113
0
LINE
8
boundary
62
5
39
2
10
23.622521
20
26.791113
11
23.635051
21
26.817614
0
LINE
8
boundary
62
5
39
2
10
23.635051
20
26.817614
11
23.434302
21
28.111768
0
LINE
8
boundary
62
5
39
2
10
23.434302
20
28.111768
11
20.802944
21
30.288042
0
LINE
8
boundary
62
5
39
2
10
20.802944
20
30.288042
11
18.636634
21
28.882331
0
LINE
8
boundary
62
5
39
2
10
18.636634
20
28.882331
11
18.162931
21
28.910621
0
LINE
8
boundary
62
5
39
2
10
18.162931
20
28.910621
11
15.716406
21
27.267392
0
LINE
8
boundary
62
5
39
2
10
15.716406
20
27.267392
11
13.086767
21
25.791639
0
LINE
8
boundary
62
5
39
2
10
13.086767
20
25.791639
11
11.744654
21
24.914836
0
LINE
8
boundary
62
5
39
2
10
11.744654
20
24.914836
11
10.702458
21
24.517839
0
LINE
8
boundary
62
5
39
2
10
10.702458
20
24.517839
11
9.296050
21
24.054908
0
LINE
8
boundary
62
5
39
2
10
9.296050
20
24.054908
11
7.071778
21
23.064422
0
LINE
8
boundary
62
5
39
2
10
7.071778
20
23.064422
11
6.451182
21
22.556353
0
LINE
8
boundary
62
5
39
2
10
6.451182
20
22.556353
11
4.908430
21
20.401687
0
LINE
8
boundary
62
5
39
2
10
4.908430
20
20.401687
11
3.681241
21
18.999304
0
LINE
8
boundary
62
5
39
2
10
3.681241
20
18.999304
11
2.039091
21
16.504018
0
LINE
8
boundary
62
5
39
2
10
2.039091
20
16.504018
11
1.679537
21
12.385746
0
LINE
8
boundary
62
5
39
2
10
1.679537
20
12.385746
11
1.809792
21
11.678440
0
LINE
8
boundary
62
5
39
2
10
1.809792
20
11.678440
11
1.512090
21
11.009462
0
LINE
8
boundary
62
5
39
2
10
1.512090
20
11.009462
11
2.346262
21
9.523004
0
LINE
8
boundary
62
5
39
2
10
2.346262
20
9.523004
11
3.332465
21
8.056449
0
LINE
8
boundary
62
5
39
2
10
3.332465
20
8.056449
11
3.966917
21
7.638361
0
LINE
8
boundary
62
5
39
2
10
3.966917
20
7.638361
11
6.675542
21
6.017861
0
LINE
8
boundary
62
5
39
2
10
6.675542
20
6.017861
11
6.675542
21
6.040098
0
LINE
8
boundary
62
5
39
2
10
6.675542
20
6.040098
11
7.073208
21
6.040098
0
LINE
8
boundary
62
5
39
2
10
7.073208
20
6.040098
11
12.861244
21
8.940700
0
LINE
8
boundary
62
5
39
2
10
12.861244
20
8.940700
11
12.855919
21
8.877157
0
LINE
8
boundary
62
5
39
2
10
12.855919
20
8.877157
11
12.856122
21
8.869833
0
LINE
8
boundary
62
5
39
2
10
12.856122
20
8.869833
11
8.880960
21
6.818379
0
LINE
8
boundary
62
5
39
2
10
8.880960
20
6.818379
11
7.373753
21
6.040098
0
LINE
8
boundary
62
5
39
2
10
7.373753
20
6.040098
11
8.117319
21
6.040098
0
LINE
8
boundary
62
5
39
2
10
8.117319
20
6.040098
11
8.164951
21
6.066598
0
LINE
8
boundary
62
5
39
2
10
8.164951
20
6.066598
11
8.774215
21
6.405564
0
LINE
8
boundary
62
5
39
2
10
8.774215
20
6.405564
11
12.818733
21
8.664173
0
LINE
8
boundary
62
5
39
2
10
12.818733
20
8.664173
11
12.832519
21
8.720391
0
LINE
8
boundary
62
5
39
2
10
12.832519
20
8.720391
11
12.835706
21
8.721906
0
LINE
8
boundary
62
5
39
2
10
12.835706
20
8.721906
11
12.837793
21
8.735883
0
LINE
8
boundary
62
5
39
2
10
12.837793
20
8.735883
11
12.840555
21
8.753118
0
LINE
8
boundary
62
5
39
2
10
12.840555
20
8.753118
11
12.844003
21
8.779892
0
LINE
8
boundary
62
5
39
2
10
12.844003
20
8.779892
11
12.849115
21
8.817030
0
LINE
8
boundary
62
5
39
2
10
12.849115
20
8.817030
11
12.843943
21
8.761628
0
LINE
8
boundary
62
5
39
2
10
12.843943
20
8.761628
11
12.429418
21
6.066598
0
LINE
8
boundary
62
5
39
2
10
12.429418
20
6.066598
11
14.537813
21
6.066598
0
LINE
8
boundary
62
5
39
2
10
14.537813
20
6.066598
11
14.537813
21
6.040098
0
LINE
8
boundary
62
5
39
2
10
14.537813
20
6.040098
11
14.708920
21
6.040098
0
LINE
8
boundary
62
5
39
2
10
14.708920
20
6.040098
11
14.721450
21
6.066597
0
LINE
8
boundary
62
5
39
2
10
14.721450
20
6.066597
11
16.419465
21
11.222483
0
LINE
8
boundary
62
5
39
2
10
16.419465
20
11.222483
11
14.730816
21
13.944698
0
LINE
8
boundary
62
5
39
2
10
14.730816
20
13.944698
11
13.374165
21
14.247315
0
LINE
8
boundary
62
5
39
2
10
13.374165
20
14.247315
11
13.206487
21
14.261528
0
LINE
8
boundary
62
5
39
2
10
13.206487
20
14.261528
11
13.080096
21
14.294993
0
LINE
8
boundary
62
5
39
2
10
13.080096
20
14.294993
11
13.082226
21
14.273517
0
LINE
8
boundary
62
5
39
2
10
13.082226
20
14.273517
11
13.075150
21
14.273484
0
LINE
8
boundary
62
5
39
2
10
13.075150
20
14.273484
11
13.073641
21
14.274128
0
LINE
8
boundary
62
5
39
2
10
13.073641
20
14.274128
11
13.069445
21
14.294778
0
LINE
8
boundary
62
5
39
2
10
13.069445
20
14.294778
11
13.030825
21
14.318493
0
LINE
8
boundary
62
5
39
2
10
13.030825
20
14.318493
11
13.026214
21
14.320216
0
LINE
8
boundary
62
5
39
2
10
13.026214
20
14.320216
11
13.013132
21
14.325106
0
LINE
8
boundary
62
5
39
2
10
13.013132
20
14.325106
11
13.010962
21
14.318744
0
LINE
8
boundary
62
5
39
2
10
13.010962
20
14.318744
11
12.912112
21
14.343780
0
LINE
8
boundary
62
5
39
2
10
12.912112
20
14.343780
11
12.892015
21
14.353295
0
LINE
8
boundary
62
5
39
2
10
12.892015
20
14.353295
11
12.832021
21
14.365059
0
LINE
8
boundary
62
5
39
2
10
12.832021
20
14.365059
11
12.825865
21
14.366507
0
LINE
8
boundary
62
5
39
2
10
12.825865
20
14.366507
11
12.807542
21
14.370665
0
LINE
8
boundary
62
5
39
2
10
12.807542
20
14.370665
11
12.797914
21
14.401767
0
LINE
8
boundary
62
5
39
2
10
12.797914
20
14.401767
11
12.602264
21
15.031609
0
LINE
8
boundary
62
5
39
2
10
12.602264
20
15.031609
11
12.599739
21
15.052388
0
LINE
8
boundary
62
5
39
2
10
12.599739
20
15.052388
11
12.589559
21
15.175724
0
LINE
8
boundary
62
5
39
2
10
12.589559
20
15.175724
11
12.427402
21
15.468088
0
LINE
8
boundary
62
5
39
2
10
12.427402
20
15.468088
11
12.658290
21
15.911005
0
LINE
8
boundary
62
5
39
2
10
12.658290
20
15.911005
11
8.672927
21
15.911006
0
LINE
8
boundary
62
5
39
2
10
8.672927
20
15.911006
11
8.672927
21
16.415606
0
LINE
8
boundary
62
5
39
2
10
8.672927
20
16.415606
11
12.921333
21
16.415606
0
LINE
8
boundary
62
5
39
2
10
12.921333
20
16.415606
11
13.036052
21
16.635673
0
LINE
8
boundary
62
5
39
2
10
13.036052
20
16.635673
11
14.709266
21
17.161408
0
LINE
8
boundary
62
5
39
2
10
14.709266
20
17.161408
11
14.950597
21
17.582534
0
LINE
8
boundary
62
5
39
2
10
14.950597
20
17.582534
11
15.782564
21
19.021939
0
LINE
8
boundary
62
5
39
2
10
15.782564
20
19.021939
11
16.142621
21
20.302655
0
LINE
8
boundary
62
5
39
2
10
16.142621
20
20.302655
11
16.955284
21
21.130863
0
LINE
8
boundary
62
5
39
2
10
16.955284
20
21.130863
11
19.208138
21
24.126498
0
LINE
8
boundary
62
5
39
2
10
19.208138
20
24.126498
11
19.641253
21
24.700155
0
LINE
8
boundary
62
5
39
2
10
19.641253
20
24.700155
11
19.717763
21
24.611121
0
LINE
8
boundary
62
5
39
2
10
19.717763
20
24.611121
11
19.734765
21
24.591986
0
LINE
8
boundary
62
5
39
2
10
19.734765
20
24.591986
11
19.732439
21
24.587004
0
LINE
8
boundary
62
5
39
2
10
19.732439
20
24.587004
11
19.714929
21
24.576838
0
LINE
8
boundary
62
5
39
2
10
19.714929
20
24.576838
11
19.773057
21
24.511680
0
LINE
8
boundary
62
5
39
2
10
19.773057
20
24.511680
11
19.770129
21
24.507527
0
LINE
8
boundary
62
5
39
2
10
19.770129
20
24.507527
11
19.565390
21
24.217084
0
LINE
8
boundary
62
5
39
2
10
19.565390
20
24.217084
11
17.395475
21
21.039084
0
LINE
8
boundary
62
5
39
2
10
17.395475
20
21.039084
11
16.416003
21
20.043510
0
LINE
8
boundary
62
5
39
2
10
16.416003
20
20.043510
11
16.092888
21
18.904609
0
LINE
8
boundary
62
5
39
2
10
16.092888
20
18.904609
11
15.174575
21
17.328879
0
LINE
8
boundary
62
5
39
2
10
15.174575
20
17.328879
11
14.957850
21
16.988315
0
LINE
8
boundary
62
5
39
2
10
14.957850
20
16.988315
11
13.196446
21
16.474277
0
LINE
8
boundary
62
5
39
2
10
13.196446
20
16.474277
11
13.164225
21
16.415606
0
LINE
8
boundary
62
5
39
2
10
13.164225
20
16.415606
11
15.333137
21
16.415606
0
LINE
8
boundary
62
5
39
2
10
15.333137
20
16.415606
11
15.439219
21
16.442105
0
LINE
8
boundary
62
5
39
2
10
15.439219
20
16.442105
11
15.483820
21
16.453247
0
LINE
8
boundary
62
5
39
2
10
15.483820
20
16.453247
11
15.520282
21
16.469495
0
LINE
8
boundary
62
5
39
2
10
15.520282
20
16.469495
11
15.589723
21
16.498349
0
LINE
8
boundary
62
5
39
2
10
15.589723
20
16.498349
11
15.730264
21
16.652759
0
LINE
8
boundary
62
5
39
2
10
15.730264
20
16.652759
11
16.871603
21
18.566171
0
LINE
8
boundary
62
5
39
2
10
16.871603
20
18.566171
11
17.111223
21
19.381220
0
LINE
8
boundary
62
5
39
2
10
17.111223
20
19.381220
11
18.483765
21
20.768371
0
LINE
8
boundary
62
5
39
2
10
18.483765
20
20.768371
11
19.788822
21
23.458281
0
LINE
8
boundary
62
5
39
2
10
19.788822
20
23.458281
11
20.104652
21
23.899332
0
LINE
8
boundary
62
5
39
2
10
20.104652
20
23.899332
11
22.111846
21
21.425529
0
LINE
8
boundary
62
5
39
2
10
22.111846
20
21.425529
11
22.383990
21
21.089695
0
LINE
8
boundary
62
5
39
2
10
22.383990
20
21.089695
11
28.648846
21
20.183437
0
LINE
8
boundary
62
5
39
2
10
28.648846
20
20.183437
11
28.940187
21
21.667178
0
LINE
8
boundary
62
5
39
2
10
28.940187
20
21.667178
11
28.759244
21
22.318242
0
LINE
8
annotation
62
1
39
211
10
12.233119
20
5.763276
11
12.233119
21
5.812319
0
LINE
8
annotation
62
1
39
211
10
12.233119
20
5.812319
11
12.222216
21
5.801413
0
LINE
8
annotation
62
1
39
211
10
14.756159
20
5.754711
11
14.756159
21
5.820884
0
LINE
8
annotation
62
1
39
211
10
14.756159
20
5.820884
11
14.741448
21
5.806169
0
LINE
8
annotation
62
1
39
211
10
12.688895
20
5.428182
11
12.688895
21
6.147413
0
LINE
8
annotation
62
1
39
211
10
12.688895
20
6.147413
11
12.529001
21
5.987473
0
LINE
8
annotation
62
1
39
211
10
6.564913
20
5.744806
11
6.564913
21
5.830789
0
LINE
8
annotation
62
1
39
211
10
6.564913
20
5.830789
11
6.545798
21
5.811669
0
LINE
8
annotation
62
1
39
211
10
7.788429
20
15.739299
11
7.411812
21
15.739299
0
LINE
8
annotation
62
1
39
211
10
7.411812
20
15.739299
11
7.759818
21
16.299544
0
LINE
8
annotation
62
1
39
211
10
7.759818
20
16.299544
11
7.759818
21
16.299544
0
LINE
8
annotation
62
1
39
211
10
7.759818
20
16.299544
11
7.760234
21
16.300059
0
LINE
8
annotation
62
1
39
211
10
7.760234
20
16.300059
11
7.760633
21
16.300578
0
LINE
8
annotation
62
1
39
211
10
7.760633
20
16.300578
11
7.761018
21
16.301106
0
LINE
8
annotation
62
1
39
211
10
7.761018
20
16.301106
11
7.761390
21
16.301647
0
LINE
8
annotation
62
1
39
211
10
7.761390
20
16.301647
11
7.761754
21
16.302206
0
LINE
8
annotation
62
1
39
211
10
7.761754
20
16.302206
11
7.762111
21
16.302786
0
LINE
8
annotation
62
1
39
211
10
7.762111
20
16.302786
11
7.762464
21
16.303393
0
LINE
8
annotation
62
1
39
211
10
7.762464
20
16.303393
11
7.762815
21
16.304030
0
LINE
8
annotation
62
1
39
211
10
7.762815
20
16.304030
11
7.763168
21
16.304703
0
LINE
8
annotation
62
1
39
211
10
7.763168
20
16.304703
11
7.763168
21
16.304703
0
LINE
8
annotation
62
1
39
211
10
7.763168
20
16.304703
11
7.777538
21
16.335555
0
LINE
8
annotation
62
1
39
211
10
7.777538
20
16.335555
11
7.785932
21
16.367535
0
LINE
8
annotation
62
1
39
211
10
7.785932
20
16.367535
11
7.788557
21
16.399922
0
LINE
8
annotation
62
1
39
211
10
7.788557
20
16.399922
11
7.785618
21
16.431992
0
LINE
8
annotation
62
1
39
211
10
7.785618
20
16.431992
11
7.777322
21
16.463023
0
LINE
8
annotation
62
1
39
211
10
7.777322
20
16.463023
11
7.763874
21
16.492292
0
LINE
8
annotation
62
1
39
211
10
7.763874
20
16.492292
11
7.745479
21
16.519078
0
LINE
8
annotation
62
1
39
211
10
7.745479
20
16.519078
11
7.722344
21
16.542656
0
LINE
8
annotation
62
1
39
211
10
7.722344
20
16.542656
11
7.694673
21
16.562304
0
LINE
8
annotation
62
1
39
211
10
7.694673
20
16.562304
11
7.694673
21
16.562304
0
LINE
8
annotation
62
1
39
211
10
7.694673
20
16.562304
11
7.663736
21
16.576469
0
LINE
8
annotation
62
1
39
211
10
7.663736
20
16.576469
11
7.631706
21
16.584734
0
LINE
8
annotation
62
1
39
211
10
7.631706
20
16.584734
11
7.599301
21
16.587285
0
LINE
8
annotation
62
1
39
211
10
7.599301
20
16.587285
11
7.567235
21
16.584308
0
LINE
8
annotation
62
1
39
211
10
7.567235
20
16.584308
11
7.536226
21
16.575988
0
LINE
8
annotation
62
1
39
211
10
7.536226
20
16.575988
11
7.506989
21
16.562513
0
LINE
8
annotation
62
1
39
211
10
7.506989
20
16.562513
11
7.480240
21
16.544068
0
LINE
8
annotation
62
1
39
211
10
7.480240
20
16.544068
11
7.456696
21
16.520839
0
LINE
8
annotation
62
1
39
211
10
7.456696
20
16.520839
11
7.437072
21
16.493011
0
LINE
8
annotation
62
1
39
211
10
7.437072
20
16.493011
11
7.412343
21
16.445575
0
LINE
8
annotation
62
1
39
211
10
1.254240
20
16.068614
11
1.170132
21
16.068614
0
LINE
8
annotation
62
1
39
211
10
1.170132
20
16.068614
11
1.247850
21
16.193731
0
LINE
8
annotation
62
1
39
211
10
1.247850
20
16.193731
11
1.247850
21
16.193731
0
LINE
8
annotation
62
1
39
211
10
1.247850
20
16.193731
11
1.247943
21
16.193846
0
LINE
8
annotation
62
1
39
211
10
1.247943
20
16.193846
11
1.248032
21
16.193962
0
LINE
8
annotation
62
1
39
211
10
1.248032
20
16.193962
11
1.248118
21
16.194080
0
LINE
8
annotation
62
1
39
211
10
1.248118
20
16.194080
11
1.248202
21
16.194201
0
LINE
8
annotation
62
1
39
211
10
1.248202
20
16.194201
11
1.248283
21
16.194325
0
LINE
8
annotation
62
1
39
211
10
1.248283
20
16.194325
11
1.248362
21
16.194455
0
LINE
8
annotation
62
1
39
211
10
1.248362
20
16.194455
11
1.248441
21
16.194590
0
LINE
8
annotation
62
1
39
211
10
1.248441
20
16.194590
11
1.248520
21
16.194733
0
LINE
8
annotation
62
1
39
211
10
1.248520
20
16.194733
11
1.248599
21
16.194883
0
LINE
8
annotation
62
1
39
211
10
1.248599
20
16.194883
11
1.248599
21
16.194883
0
LINE
8
annotation
62
1
39
211
10
1.248599
20
16.194883
11
1.251808
21
16.201773
0
LINE
8
annotation
62
1
39
211
10
1.251808
20
16.201773
11
1.253682
21
16.208915
0
LINE
8
annotation
62
1
39
211
10
1.253682
20
16.208915
11
1.254269
21
16.216148
0
LINE
8
annotation
62
1
39
211
10
1.254269
20
16.216148
11
1.253612
21
16.223310
0
LINE
8
annotation
62
1
39
211
10
1.253612
20
16.223310
11
1.251760
21
16.230240
0
LINE
8
annotation
62
1
39
211
10
1.251760
20
16.230240
11
1.248756
21
16.236776
0
LINE
8
annotation
62
1
39
211
10
1.248756
20
16.236776
11
1.244648
21
16.242758
0
LINE
8
annotation
62
1
39
211
10
1.244648
20
16.242758
11
1.239481
21
16.248024
0
LINE
8
annotation
62
1
39
211
10
1.239481
20
16.248024
11
1.233302
21
16.252412
0
LINE
8
annotation
62
1
39
211
10
1.233302
20
16.252412
11
1.233302
21
16.252412
0
LINE
8
annotation
62
1
39
211
10
1.233302
20
16.252412
11
1.226393
21
16.255575
0
LINE
8
annotation
62
1
39
211
10
1.226393
20
16.255575
11
1.219240
21
16.257421
0
LINE
8
annotation
62
1
39
211
10
1.219240
20
16.257421
11
1.212003
21
16.257990
0
LINE
8
annotation
62
1
39
211
10
1.212003
20
16.257990
11
1.204842
21
16.257326
0
LINE
8
annotation
62
1
39
211
10
1.204842
20
16.257326
11
1.197917
21
16.255468
0
LINE
8
annotation
62
1
39
211
10
1.197917
20
16.255468
11
1.191388
21
16.252458
0
LINE
8
annotation
62
1
39
211
10
1.191388
20
16.252458
11
1.185414
21
16.248339
0
LINE
8
annotation
62
1
39
211
10
1.185414
20
16.248339
11
1.180156
21
16.243151
0
LINE
8
annotation
62
1
39
211
10
1.180156
20
16.243151
11
1.175773
21
16.236937
0
LINE
8
annotation
62
1
39
211
10
1.175773
20
16.236937
11
1.170251
21
16.226343
0
LINE
8
annotation
62
1
39
211
10
16.527873
20
26.114840
11
16.716181
21
26.114840
0
LINE
8
annotation
62
1
39
211
10
16.716181
20
26.114840
11
16.716181
21
26.114840
0
LINE
8
annotation
62
1
39
211
10
16.716181
20
26.114840
11
16.750049
21
26.117878
0
LINE
8
annotation
62
1
39
211
10
16.750049
20
26.117878
11
16.781917
21
26.126634
0
LINE
8
annotation
62
1
39
211
10
16.781917
20
26.126634
11
16.811256
21
26.140571
0
LINE
8
annotation
62
1
39
211
10
16.811256
20
26.140571
11
16.837536
21
26.159151
0
LINE
8
annotation
62
1
39
211
10
16.837536
20
26.159151
11
16.860226
21
26.181836
0
LINE
8
annotation
62
1
39
211
10
16.860226
20
26.181836
11
16.878796
21
26.208089
0
LINE
8
annotation
62
1
39
211
10
16.878796
20
26.208089
11
16.892717
21
26.237373
0
LINE
8
annotation
62
1
39
211
10
16.892717
20
26.237373
11
16.901458
21
26.269150
0
LINE
8
annotation
62
1
39
211
10
16.901458
20
26.269150
11
16.904490
21
26.302883
0
LINE
8
annotation
62
1
39
211
10
16.904490
20
26.302883
11
16.904490
21
26.397170
0
LINE
8
annotation
62
1
39
211
10
16.904490
20
26.397170
11
16.904490
21
26.397170
0
LINE
8
annotation
62
1
39
211
10
16.904490
20
26.397170
11
16.901458
21
26.430889
0
LINE
8
annotation
62
1
39
211
10
16.901458
20
26.430889
11
16.892717
21
26.462658
0
LINE
8
annotation
62
1
39
211
10
16.892717
20
26.462658
11
16.878796
21
26.491940
0
LINE
8
annotation
62
1
39
211
10
16.878796
20
26.491940
11
16.860226
21
26.518195
0
LINE
8
annotation
62
1
39
211
10
16.860226
20
26.518195
11
16.837536
21
26.540884
0
LINE
8
annotation
62
1
39
211
10
16.837536
20
26.540884
11
16.811256
21
26.559470
0
LINE
8
annotation
62
1
39
211
10
16.811256
20
26.559470
11
16.781917
21
26.573412
0
LINE
8
annotation
62
1
39
211
10
16.781917
20
26.573412
11
16.750049
21
26.582173
0
LINE
8
annotation
62
1
39
211
10
16.750049
20
26.582173
11
16.716181
21
26.585213
0
LINE
8
annotation
62
1
39
211
10
16.716181
20
26.585213
11
16.621894
21
26.585213
0
LINE
8
annotation
62
1
39
211
10
16.621894
20
26.585213
11
16.716181
21
26.585213
0
LINE
8
annotation
62
1
39
211
10
16.716181
20
26.585213
11
16.716181
21
26.585213
0
LINE
8
annotation
62
1
39
211
10
16.716181
20
26.585213
11
16.750049
21
26.588253
0
LINE
8
annotation
62
1
39
211
10
16.750049
20
26.588253
11
16.781917
21
26.597019
0
LINE
8
annotation
62
1
39
211
10
16.781917
20
26.597019
11
16.811256
21
26.610975
0
LINE
8
annotation
62
1
39
211
10
16.811256
20
26.610975
11
16.837536
21
26.629587
0
LINE
8
annotation
62
1
39
211
10
16.837536
20
26.629587
11
16.860226
21
26.652322
0
LINE
8
annotation
62
1
39
211
10
16.860226
20
26.652322
11
16.878796
21
26.678643
0
LINE
8
annotation
62
1
39
211
10
16.878796
20
26.678643
11
16.892717
21
26.708017
0
LINE
8
annotation
62
1
39
211
10
16.892717
20
26.708017
11
16.901458
21
26.739910
0
LINE
8
annotation
62
1
39
211
10
16.901458
20
26.739910
11
16.904490
21
26.773787
0
LINE
8
annotation
62
1
39
211
10
16.904490
20
26.773787
11
16.904490
21
26.773787
0
LINE
8
annotation
62
1
39
211
10
16.904490
20
26.773787
11
16.901458
21
26.807506
0
LINE
8
annotation
62
1
39
211
10
16.901458
20
26.807506
11
16.892717
21
26.839275
0
LINE
8
annotation
62
1
39
211
10
16.892717
20
26.839275
11
16.878796
21
26.868557
0
LINE
8
annotation
62
1
39
211
10
16.878796
20
26.868557
11
16.860226
21
26.894812
0
LINE
8
annotation
62
1
39
211
10
16.860226
20
26.894812
11
16.837536
21
26.917501
0
LINE
8
annotation
62
1
39
211
10
16.837536
20
26.917501
11
16.811256
21
26.936087
0
LINE
8
annotation
62
1
39
211
10
16.811256
20
26.936087
11
16.781917
21
26.950029
0
LINE
8
annotation
62
1
39
211
10
16.781917
20
26.950029
11
16.750049
21
26.958790
0
LINE
8
annotation
62
1
39
211
10
16.750049
20
26.958790
11
16.716181
21
26.961830
0
LINE
8
annotation
62
1
39
211
10
16.716181
20
26.961830
11
16.527873
21
26.961830
0
LINE
8
annotation
62
1
39
211
10
24.350862
20
26.714947
11
24.366792
21
26.714947
0
LINE
8
annotation
62
1
39
211
10
24.366792
20
26.714947
11
24.366792
21
26.714947
0
LINE
8
annotation
62
1
39
211
10
24.366792
20
26.714947
11
24.369657
21
26.715204
0
LINE
8
annotation
62
1
39
211
10
24.369657
20
26.715204
11
24.372353
21
26.715945
0
LINE
8
annotation
62
1
39
211
10
24.372353
20
26.715945
11
24.374835
21
26.717124
0
LINE
8
annotation
62
1
39
211
10
24.374835
20
26.717124
11
24.377058
21
26.718695
0
LINE
8
annotation
62
1
39
211
10
24.377058
20
26.718695
11
24.378978
21
26.720614
0
LINE
8
annotation
62
1
39
211
10
24.378978
20
26.720614
11
24.380548
21
26.722835
0
LINE
8
annotation
62
1
39
211
10
24.380548
20
26.722835
11
24.381726
21
26.725313
0
LINE
8
annotation
62
1
39
211
10
24.381726
20
26.725313
11
24.382466
21
26.728001
0
LINE
8
annotation
62
1
39
211
10
24.382466
20
26.728001
11
24.382722
21
26.730855
0
LINE
8
annotation
62
1
39
211
10
24.382722
20
26.730855
11
24.382722
21
26.738831
0
LINE
8
annotation
62
1
39
211
10
24.382722
20
26.738831
11
24.382722
21
26.738831
0
LINE
8
annotation
62
1
39
211
10
24.382722
20
26.738831
11
24.382466
21
26.741683
0
LINE
8
annotation
62
1
39
211
10
24.382466
20
26.741683
11
24.381726
21
26.744371
0
LINE
8
annotation
62
1
39
211
10
24.381726
20
26.744371
11
24.380548
21
26.746848
0
LINE
8
annotation
62
1
39
211
10
24.380548
20
26.746848
11
24.378978
21
26.749069
0
LINE
8
annotation
62
1
39
211
10
24.378978
20
26.749069
11
24.377058
21
26.750989
0
LINE
8
annotation
62
1
39
211
10
24.377058
20
26.750989
11
24.374835
21
26.752561
0
LINE
8
annotation
62
1
39
211
10
24.374835
20
26.752561
11
24.372353
21
26.753740
0
LINE
8
annotation
62
1
39
211
10
24.372353
20
26.753740
11
24.369657
21
26.754482
0
LINE
8
annotation
62
1
39
211
10
24.369657
20
26.754482
11
24.366792
21
26.754739
0
LINE
8
annotation
62
1
39
211
10
24.366792
20
26.754739
11
24.358816
21
26.754739
0
LINE
8
annotation
62
1
39
211
10
24.358816
20
26.754739
11
24.366792
21
26.754739
0
LINE
8
annotation
62
1
39
211
10
24.366792
20
26.754739
11
24.366792
21
26.754739
0
LINE
8
annotation
62
1
39
211
10
24.366792
20
26.754739
11
24.369657
21
26.754996
0
LINE
8
annotation
62
1
39
211
10
24.369657
20
26.754996
11
24.372353
21
26.755737
0
LINE
8
annotation
62
1
39
211
10
24.372353
20
26.755737
11
24.374835
21
26.756918
0
LINE
8
annotation
62
1
39
211
10
24.374835
20
26.756918
11
24.377058
21
26.758493
0
LINE
8
annotation
62
1
39
211
10
24.377058
20
26.758493
11
24.378978
21
26.760416
0
LINE
8
annotation
62
1
39
211
10
24.378978
20
26.760416
11
24.380548
21
26.762643
0
LINE
8
annotation
62
1
39
211
10
24.380548
20
26.762643
11
24.381726
21
26.765128
0
LINE
8
annotation
62
1
39
211
10
24.381726
20
26.765128
11
24.382466
21
26.767826
0
LINE
8
annotation
62
1
39
211
10
24.382466
20
26.767826
11
24.382722
21
26.770691
0
LINE
8
annotation
62
1
39
211
10
24.382722
20
26.770691
11
24.382722
21
26.770691
0
LINE
8
annotation
62
1
39
211
10
24.382722
20
26.770691
11
24.382466
21
26.773544
0
LINE
8
annotation
62
1
39
211
10
24.382466
20
26.773544
11
24.381726
21
26.776231
0
LINE
8
annotation
62
1
39
211
10
24.381726
20
26.776231
11
24.380548
21
26.778709
0
LINE
8
annotation
62
1
39
211
10
24.380548
20
26.778709
11
24.378978
21
26.780930
0
LINE
8
annotation
62
1
39
211
10
24.378978
20
26.780930
11
24.377058
21
26.782849
0
LINE
8
annotation
62
1
39
211
10
24.377058
20
26.782849
11
24.374835
21
26.784421
0
LINE
8
annotation
62
1
39
211
10
24.374835
20
26.784421
11
24.372353
21
26.785601
0
LINE
8
annotation
62
1
39
211
10
24.372353
20
26.785601
11
24.369657
21
26.786342
0
LINE
8
annotation
62
1
39
211
10
24.369657
20
26.786342
11
24.366792
21
26.786599
0
LINE
8
annotation
62
1
39
211
10
24.366792
20
26.786599
11
24.350862
21
26.786599
0
LINE
8
annotation
62
1
39
211
10
5.233775
20
10.726756
11
3.992366
21
10.726756
0
LINE
8
annotation
62
1
39
211
10
3.992366
20
10.726756
11
5.233775
21
12.962527
0
LINE
8
annotation
62
1
39
211
10
5.233775
20
12.962527
11
3.992366
21
12.962527
0
LINE
8
annotation
62
1
39
211
10
7.294881
20
11.844642
11
6.072400
21
11.844642
0
LINE
8
annotation
62
1
39
211
10
9.126212
20
10.726738
11
8.133253
21
10.726738
0
LINE
8
annotation
62
1
39
211
10
8.133253
20
10.726738
11
9.050780
21
12.203839
0
LINE
8
annotation
62
1
39
211
10
9.050780
20
12.203839
11
9.050780
21
12.203839
0
LINE
8
annotation
62
1
39
211
10
9.050780
20
12.203839
11
9.051876
21
12.205196
0
LINE
8
annotation
62
1
39
211
10
9.051876
20
12.205196
11
9.052928
21
12.206565
0
LINE
8
annotation
62
1
39
211
10
9.052928
20
12.206565
11
9.053942
21
12.207957
0
LINE
8
annotation
62
1
39
211
10
9.053942
20
12.207957
11
9.054925
21
12.209383
0
LINE
8
annotation
62
1
39
211
10
9.054925
20
12.209383
11
9.055883
21
12.210856
0
LINE
8
annotation
62
1
39
211
10
9.055883
20
12.210856
11
9.056824
21
12.212386
0
LINE
8
annotation
62
1
39
211
10
9.056824
20
12.212386
11
9.057755
21
12.213986
0
LINE
8
annotation
62
1
39
211
10
9.057755
20
12.213986
11
9.058682
21
12.215666
0
LINE
8
annotation
62
1
39
211
10
9.058682
20
12.215666
11
9.059613
21
12.217439
0
LINE
8
annotation
62
1
39
211
10
9.059613
20
12.217439
11
9.059613
21
12.217439
0
LINE
8
annotation
62
1
39
211
10
9.059613
20
12.217439
11
9.097497
21
12.298780
0
LINE
8
annotation
62
1
39
211
10
9.097497
20
12.298780
11
9.119629
21
12.383097
0
LINE
8
annotation
62
1
39
211
10
9.119629
20
12.383097
11
9.126550
21
12.468485
0
LINE
8
annotation
62
1
39
211
10
9.126550
20
12.468485
11
9.118802
21
12.553039
0
LINE
8
annotation
62
1
39
211
10
9.118802
20
12.553039
11
9.096929
21
12.634853
0
LINE
8
annotation
62
1
39
211
10
9.096929
20
12.634853
11
9.061472
21
12.712023
0
LINE
8
annotation
62
1
39
211
10
9.061472
20
12.712023
11
9.012974
21
12.782642
0
LINE
8
annotation
62
1
39
211
10
9.012974
20
12.782642
11
8.951977
21
12.844807
0
LINE
8
annotation
62
1
39
211
10
8.951977
20
12.844807
11
8.879024
21
12.896611
0
LINE
8
annotation
62
1
39
211
10
8.879024
20
12.896611
11
8.879024
21
12.896611
0
LINE
8
annotation
62
1
39
211
10
8.879024
20
12.896611
11
8.797456
21
12.933957
0
LINE
8
annotation
62
1
39
211
10
8.797456
20
12.933957
11
8.713010
21
12.955747
0
LINE
8
annotation
62
1
39
211
10
8.713010
20
12.955747
11
8.627572
21
12.962472
0
LINE
8
annotation
62
1
39
211
10
8.627572
20
12.962472
11
8.543031
21
12.954623
0
LINE
8
annotation
62
1
39
211
10
8.543031
20
12.954623
11
8.461274
21
12.932689
0
LINE
8
annotation
62
1
39
211
10
8.461274
20
12.932689
11
8.384190
21
12.897161
0
LINE
8
annotation
62
1
39
211
10
8.384190
20
12.897161
11
8.313667
21
12.848530
0
LINE
8
annotation
62
1
39
211
10
8.313667
20
12.848530
11
8.251591
21
12.787285
0
LINE
8
annotation
62
1
39
211
10
8.251591
20
12.787285
11
8.199852
21
12.713918
0
LINE
8
annotation
62
1
39
211
10
8.199852
20
12.713918
11
8.134655
21
12.588852
0
LINE
8
annotation
62
1
39
211
10
11.187486
20
11.844642
11
9.965005
21
11.844642
0
LINE
8
annotation
62
1
39
211
10
13.018817
20
10.726738
11
12.025858
21
10.726738
0
LINE
8
annotation
62
1
39
211
10
12.025858
20
10.726738
11
12.943385
21
12.203839
0
LINE
8
annotation
62
1
39
211
10
12.943385
20
12.203839
11
12.943385
21
12.203839
0
LINE
8
annotation
62
1
39
211
10
12.943385
20
12.203839
11
12.944482
21
12.205196
0
LINE
8
annotation
62
1
39
211
10
12.944482
20
12.205196
11
12.945534
21
12.206565
0
LINE
8
annotation
62
1
39
211
10
12.945534
20
12.206565
11
12.946548
21
12.207957
0
LINE
8
annotation
62
1
39
211
10
12.946548
20
12.207957
11
12.947530
21
12.209383
0
LINE
8
annotation
62
1
39
211
10
12.947530
20
12.209383
11
12.948489
21
12.210856
0
LINE
8
annotation
62
1
39
211
10
12.948489
20
12.210856
11
12.949430
21
12.212386
0
LINE
8
annotation
62
1
39
211
10
12.949430
20
12.212386
11
12.950360
21
12.213986
0
LINE
8
annotation
62
1
39
211
10
12.950360
20
12.213986
11
12.951288
21
12.215666
0
LINE
8
annotation
62
1
39
211
10
12.951288
20
12.215666
11
12.952218
21
12.217439
0
LINE
8
annotation
62
1
39
211
10
12.952218
20
12.217439
11
12.952218
21
12.217439
0
LINE
8
annotation
62
1
39
211
10
12.952218
20
12.217439
11
12.990103
21
12.298780
0
LINE
8
annotation
62
1
39
211
10
12.990103
20
12.298780
11
13.012234
21
12.383097
0
LINE
8
annotation
62
1
39
211
10
13.012234
20
12.383097
11
13.019155
21
12.468485
0
LINE
8
annotation
62
1
39
211
10
13.019155
20
12.468485
11
13.011407
21
12.553039
0
LINE
8
annotation
62
1
39
211
10
13.011407
20
12.553039
11
12.989534
21
12.634853
0
LINE
8
annotation
62
1
39
211
10
12.989534
20
12.634853
11
12.954077
21
12.712023
0
LINE
8
annotation
62
1
39
211
10
12.954077
20
12.712023
11
12.905579
21
12.782642
0
LINE
8
annotation
62
1
39
211
10
12.905579
20
12.782642
11
12.844582
21
12.844807
0
LINE
8
annotation
62
1
39
211
10
12.844582
20
12.844807
11
12.771629
21
12.896611
0
LINE
8
annotation
62
1
39
211
10
12.771629
20
12.896611
11
12.771629
21
12.896611
0
LINE
8
annotation
62
1
39
211
10
12.771629
20
12.896611
11
12.690062
21
12.933957
0
LINE
8
annotation
62
1
39
211
10
12.690062
20
12.933957
11
12.605615
21
12.955747
0
LINE
8
annotation
62
1
39
211
10
12.605615
20
12.955747
11
12.520178
21
12.962472
0
LINE
8
annotation
62
1
39
211
10
12.520178
20
12.962472
11
12.435636
21
12.954623
0
LINE
8
annotation
62
1
39
211
10
12.435636
20
12.954623
11
12.353880
21
12.932689
0
LINE
8
annotation
62
1
39
211
10
12.353880
20
12.932689
11
12.276796
21
12.897161
0
LINE
8
annotation
62
1
39
211
10
12.276796
20
12.897161
11
12.206272
21
12.848530
0
LINE
8
annotation
62
1
39
211
10
12.206272
20
12.848530
11
12.144197
21
12.787285
0
LINE
8
annotation
62
1
39
211
10
12.144197
20
12.787285
11
12.092458
21
12.713918
0
LINE
8
annotation
62
1
39
211
10
12.092458
20
12.713918
11
12.027260
21
12.588852
0
LINE
8
frame
62
5
39
2
10
0.000000
20
0.000000
11
40.000000
21
0.000000
0
LINE
8
frame
62
5
39
2
10
40.000000
20
0.000000
11
40.000000
21
40.000000
0
LINE
8
frame
62
5
39
2
10
40.000000
20
40.000000
11
0.000000
21
40.000000
0
LINE
8
frame
62
5
39
2
10
0.000000
20
40.000000
11
0.000000
21
0.000000
0
ENDSEC
0
EOF
