0
SECTION
2
HEADER
9
$ACADVER
1
AC1009
0
ENDSEC
0
SECTION
2
TABLES
0
TABLE
2
VPORT
70
1
0
VPORT
2
ACTIVE
70
0
10
0.0
20
0.0
11
0.0
21
0.0
12
0.0
22
0.0
13
0.0
23
0.0
14
0.0
24
0.0
15
0.0
25
0.0
16
0.0
26
0.0
36
0.0
17
0.0
27
0.0
37
0.0
40
0.0
41
0.0
42
0.0
43
0.0
44
0.0
50
0.0
51
0.0
71
0
72
1000
73
1
74
3
75
0
76
0
77
0
78
0
0
ENDTAB
0
ENDSEC
0
SECTION
2
ENTITIES
0
LINE
8
boundary
62
5
39
2
10
13.272598
20
4.146732
11
10.923451
21
7.875682
0
LINE
8
boundary
62
5
39
2
10
10.923451
20
7.875682
11
10.906757
21
7.902182
0
LINE
8
boundary
62
5
39
2
10
10.906757
20
7.902182
11
10.277300
21
7.902182
0
LINE
8
boundary
62
5
39
2
10
10.277300
20
7.902182
11
10.277300
21
7.875682
0
LINE
8
boundary
62
5
39
2
10
10.277300
20
7.875682
11
10.517580
21
7.690739
0
LINE
8
boundary
62
5
39
2
10
10.517580
20
7.690739
11
10.571926
21
7.601328
0
LINE
8
boundary
62
5
39
2
10
10.571926
20
7.601328
11
10.599570
21
7.555729
0
LINE
8
boundary
62
5
39
2
10
10.599570
20
7.555729
11
12.048741
21
5.161622
0
LINE
8
boundary
62
5
39
2
10
12.048741
20
5.161622
11
9.696940
21
3.243182
0
LINE
8
boundary
62
5
39
2
10
9.696940
20
3.243182
11
9.581519
21
3.000672
0
LINE
8
boundary
62
5
39
2
10
9.581519
20
3.000672
11
9.162627
21
2.851857
0
LINE
8
boundary
62
5
39
2
10
9.162627
20
2.851857
11
8.705567
21
2.845532
0
LINE
8
boundary
62
5
39
2
10
8.705567
20
2.845532
11
5.137305
21
3.221172
0
LINE
8
boundary
62
5
39
2
10
5.137305
20
3.221172
11
2.098762
21
2.467987
0
LINE
8
boundary
62
5
39
2
10
2.098762
20
2.467987
11
2.421461
21
4.331055
0
LINE
8
boundary
62
5
39
2
10
2.421461
20
4.331055
11
2.600191
21
6.298515
0
LINE
8
boundary
62
5
39
2
10
2.600191
20
6.298515
11
3.085965
21
7.813595
0
LINE
8
boundary
62
5
39
2
10
3.085965
20
7.813595
11
3.121790
21
7.875682
0
LINE
8
boundary
62
5
39
2
10
3.121790
20
7.875682
11
3.109260
21
7.902182
0
LINE
8
boundary
62
5
39
2
10
3.109260
20
7.902182
11
2.579581
21
7.902182
0
LINE
8
boundary
62
5
39
2
10
2.579581
20
7.902182
11
2.579581
21
8.406782
0
LINE
8
boundary
62
5
39
2
10
2.579581
20
8.406782
11
3.340677
21
8.406782
0
LINE
8
boundary
62
5
39
2
10
3.340677
20
8.406782
11
3.351658
21
8.406782
0
LINE
8
boundary
62
5
39
2
10
3.351658
20
8.406782
11
3.428249
21
8.406782
0
LINE
8
boundary
62
5
39
2
10
3.428249
20
8.406782
11
4.856433
21
10.881861
0
LINE
8
boundary
62
5
39
2
10
4.856433
20
10.881861
11
7.695536
21
9.862851
0
LINE
8
boundary
62
5
39
2
10
7.695536
20
9.862851
11
9.893756
21
8.170893
0
LINE
8
boundary
62
5
39
2
10
9.893756
20
8.170893
11
9.893756
21
8.406782
0
LINE
8
boundary
62
5
39
2
10
9.893756
20
8.406782
11
9.906286
21
8.433282
0
LINE
8
boundary
62
5
39
2
10
9.906286
20
8.433282
11
10.277300
21
8.433282
0
LINE
8
boundary
62
5
39
2
10
10.277300
20
8.433282
11
10.277300
21
8.406782
0
LINE
8
boundary
62
5
39
2
10
10.277300
20
8.406782
11
10.559647
21
8.406782
0
LINE
8
boundary
62
5
39
2
10
10.559647
20
8.406782
11
10.572177
21
8.433282
0
LINE
8
boundary
62
5
39
2
10
10.572177
20
8.433282
11
10.352974
21
8.781236
0
LINE
8
boundary
62
5
39
2
10
10.352974
20
8.781236
11
10.320222
21
8.833215
0
LINE
8
boundary
62
5
39
2
10
10.320222
20
8.833215
11
10.315366
21
8.830115
0
LINE
8
boundary
62
5
39
2
10
10.315366
20
8.830115
11
10.292090
21
8.854515
0
LINE
8
boundary
62
5
39
2
10
10.292090
20
8.854515
11
8.928848
21
9.874650
0
LINE
8
boundary
62
5
39
2
10
8.928848
20
9.874650
11
8.836596
21
9.947200
0
LINE
8
boundary
62
5
39
2
10
8.836596
20
9.947200
11
8.834392
21
9.948934
0
LINE
8
boundary
62
5
39
2
10
8.834392
20
9.948934
11
8.806183
21
9.957956
0
LINE
8
boundary
62
5
39
2
10
8.806183
20
9.957956
11
4.100946
21
11.761121
0
LINE
8
boundary
62
5
39
2
10
4.100946
20
11.761121
11
2.889461
21
9.737271
0
LINE
8
boundary
62
5
39
2
10
2.889461
20
9.737271
11
1.250681
21
7.197204
0
LINE
8
boundary
62
5
39
2
10
1.250681
20
7.197204
11
1.363098
21
6.581003
0
LINE
8
boundary
62
5
39
2
10
1.363098
20
6.581003
11
1.047796
21
5.824509
0
LINE
8
boundary
62
5
39
2
10
1.047796
20
5.824509
11
0.929563
21
3.523883
0
LINE
8
boundary
62
5
39
2
10
0.929563
20
3.523883
11
0.686750
21
1.951855
0
LINE
8
boundary
62
5
39
2
10
0.686750
20
1.951855
11
1.320266
21
1.201492
0
LINE
8
boundary
62
5
39
2
10
1.320266
20
1.201492
11
1.904890
21
1.018014
0
LINE
8
boundary
62
5
39
2
10
1.904890
20
1.018014
11
3.852329
21
0.686750
0
LINE
8
boundary
62
5
39
2
10
3.852329
20
0.686750
11
6.103476
21
1.188037
0
LINE
8
boundary
62
5
39
2
10
6.103476
20
1.188037
11
7.820272
21
0.976872
0
LINE
8
boundary
62
5
39
2
10
7.820272
20
0.976872
11
9.912343
21
1.346505
0
LINE
8
boundary
62
5
39
2
10
9.912343
20
1.346505
11
11.834412
21
1.673662
0
LINE
8
boundary
62
5
39
2
10
11.834412
20
1.673662
11
12.135014
21
1.643475
0
LINE
8
boundary
62
5
39
2
10
12.135014
20
1.643475
11
12.395378
21
2.025336
0
LINE
8
boundary
62
5
39
2
10
12.395378
20
2.025336
11
12.240605
21
3.128413
0
LINE
8
boundary
62
5
39
2
10
12.240605
20
3.128413
11
13.272598
21
4.146732
0
LINE
8
annotation
62
1
39
211
10
3.118880
20
8.264786
11
3.028550
21
8.264786
0
LINE
8
annotation
62
1
39
211
10
3.028550
20
8.264786
11
3.112018
21
8.399158
0
LINE
8
annotation
62
1
39
211
10
3.112018
20
8.399158
11
3.112018
21
8.399158
0
LINE
8
annotation
62
1
39
211
10
3.112018
20
8.399158
11
3.112118
21
8.399282
0
LINE
8
annotation
62
1
39
211
10
3.112118
20
8.399282
11
3.112213
21
8.399406
0
LINE
8
annotation
62
1
39
211
10
3.112213
20
8.399406
11
3.112306
21
8.399533
0
LINE
8
annotation
62
1
39
211
10
3.112306
20
8.399533
11
3.112395
21
8.399663
0
LINE
8
annotation
62
1
39
211
10
3.112395
20
8.399663
11
3.112482
21
8.399797
0
LINE
8
annotation
62
1
39
211
10
3.112482
20
8.399797
11
3.112568
21
8.399936
0
LINE
8
annotation
62
1
39
211
10
3.112568
20
8.399936
11
3.112653
21
8.400081
0
LINE
8
annotation
62
1
39
211
10
3.112653
20
8.400081
11
3.112737
21
8.400234
0
LINE
8
annotation
62
1
39
211
10
3.112737
20
8.400234
11
3.112822
21
8.400395
0
LINE
8
annotation
62
1
39
211
10
3.112822
20
8.400395
11
3.112822
21
8.400395
0
LINE
8
annotation
62
1
39
211
10
3.112822
20
8.400395
11
3.116268
21
8.407795
0
LINE
8
annotation
62
1
39
211
10
3.116268
20
8.407795
11
3.118281
21
8.415465
0
LINE
8
annotation
62
1
39
211
10
3.118281
20
8.415465
11
3.118911
21
8.423233
0
LINE
8
annotation
62
1
39
211
10
3.118911
20
8.423233
11
3.118206
21
8.430925
0
LINE
8
annotation
62
1
39
211
10
3.118206
20
8.430925
11
3.116216
21
8.438368
0
LINE
8
annotation
62
1
39
211
10
3.116216
20
8.438368
11
3.112991
21
8.445388
0
LINE
8
annotation
62
1
39
211
10
3.112991
20
8.445388
11
3.108579
21
8.451812
0
LINE
8
annotation
62
1
39
211
10
3.108579
20
8.451812
11
3.103030
21
8.457467
0
LINE
8
annotation
62
1
39
211
10
3.103030
20
8.457467
11
3.096393
21
8.462180
0
LINE
8
annotation
62
1
39
211
10
3.096393
20
8.462180
11
3.096393
21
8.462180
0
LINE
8
annotation
62
1
39
211
10
3.096393
20
8.462180
11
3.088973
21
8.465577
0
LINE
8
annotation
62
1
39
211
10
3.088973
20
8.465577
11
3.081291
21
8.467560
0
LINE
8
annotation
62
1
39
211
10
3.081291
20
8.467560
11
3.073519
21
8.468171
0
LINE
8
annotation
62
1
39
211
10
3.073519
20
8.468171
11
3.065828
21
8.467457
0
LINE
8
annotation
62
1
39
211
10
3.065828
20
8.467457
11
3.058390
21
8.465462
0
LINE
8
annotation
62
1
39
211
10
3.058390
20
8.465462
11
3.051378
21
8.462230
0
LINE
8
annotation
62
1
39
211
10
3.051378
20
8.462230
11
3.044963
21
8.457806
0
LINE
8
annotation
62
1
39
211
10
3.044963
20
8.457806
11
3.039315
21
8.452235
0
LINE
8
annotation
62
1
39
211
10
3.039315
20
8.452235
11
3.034609
21
8.445560
0
LINE
8
annotation
62
1
39
211
10
3.034609
20
8.445560
11
3.028678
21
8.434183
0
LINE
8
annotation
62
1
39
211
10
9.780030
20
8.317347
11
9.736387
21
8.317347
0
LINE
8
annotation
62
1
39
211
10
9.736387
20
8.317347
11
9.776715
21
8.382270
0
LINE
8
annotation
62
1
39
211
10
9.776715
20
8.382270
11
9.776715
21
8.382270
0
LINE
8
annotation
62
1
39
211
10
9.776715
20
8.382270
11
9.776763
21
8.382329
0
LINE
8
annotation
62
1
39
211
10
9.776763
20
8.382329
11
9.776809
21
8.382389
0
LINE
8
annotation
62
1
39
211
10
9.776809
20
8.382389
11
9.776854
21
8.382451
0
LINE
8
annotation
62
1
39
211
10
9.776854
20
8.382451
11
9.776897
21
8.382513
0
LINE
8
annotation
62
1
39
211
10
9.776897
20
8.382513
11
9.776939
21
8.382578
0
LINE
8
annotation
62
1
39
211
10
9.776939
20
8.382578
11
9.776980
21
8.382645
0
LINE
8
annotation
62
1
39
211
10
9.776980
20
8.382645
11
9.777021
21
8.382716
0
LINE
8
annotation
62
1
39
211
10
9.777021
20
8.382716
11
9.777062
21
8.382789
0
LINE
8
annotation
62
1
39
211
10
9.777062
20
8.382789
11
9.777103
21
8.382867
0
LINE
8
annotation
62
1
39
211
10
9.777103
20
8.382867
11
9.777103
21
8.382867
0
LINE
8
annotation
62
1
39
211
10
9.777103
20
8.382867
11
9.778768
21
8.386443
0
LINE
8
annotation
62
1
39
211
10
9.778768
20
8.386443
11
9.779741
21
8.390149
0
LINE
8
annotation
62
1
39
211
10
9.779741
20
8.390149
11
9.780045
21
8.393902
0
LINE
8
annotation
62
1
39
211
10
9.780045
20
8.393902
11
9.779705
21
8.397618
0
LINE
8
annotation
62
1
39
211
10
9.779705
20
8.397618
11
9.778743
21
8.401214
0
LINE
8
annotation
62
1
39
211
10
9.778743
20
8.401214
11
9.777185
21
8.404606
0
LINE
8
annotation
62
1
39
211
10
9.777185
20
8.404606
11
9.775053
21
8.407710
0
LINE
8
annotation
62
1
39
211
10
9.775053
20
8.407710
11
9.772372
21
8.410442
0
LINE
8
annotation
62
1
39
211
10
9.772372
20
8.410442
11
9.769166
21
8.412719
0
LINE
8
annotation
62
1
39
211
10
9.769166
20
8.412719
11
9.769166
21
8.412719
0
LINE
8
annotation
62
1
39
211
10
9.769166
20
8.412719
11
9.765581
21
8.414360
0
LINE
8
annotation
62
1
39
211
10
9.765581
20
8.414360
11
9.761869
21
8.415318
0
LINE
8
annotation
62
1
39
211
10
9.761869
20
8.415318
11
9.758114
21
8.415614
0
LINE
8
annotation
62
1
39
211
10
9.758114
20
8.415614
11
9.754398
21
8.415269
0
LINE
8
annotation
62
1
39
211
10
9.754398
20
8.415269
11
9.750804
21
8.414305
0
LINE
8
annotation
62
1
39
211
10
9.750804
20
8.414305
11
9.747416
21
8.412743
0
LINE
8
annotation
62
1
39
211
10
9.747416
20
8.412743
11
9.744317
21
8.410606
0
LINE
8
annotation
62
1
39
211
10
9.744317
20
8.410606
11
9.741588
21
8.407914
0
LINE
8
annotation
62
1
39
211
10
9.741588
20
8.407914
11
9.739314
21
8.404689
0
LINE
8
annotation
62
1
39
211
10
9.739314
20
8.404689
11
9.736449
21
8.399192
0
LINE
8
annotation
62
1
39
211
10
2.212645
20
7.982196
11
2.059615
21
7.982196
0
LINE
8
annotation
62
1
39
211
10
2.059615
20
7.982196
11
2.201020
21
8.209840
0
LINE
8
annotation
62
1
39
211
10
2.201020
20
8.209840
11
2.201020
21
8.209840
0
LINE
8
annotation
62
1
39
211
10
2.201020
20
8.209840
11
2.201189
21
8.210049
0
LINE
8
annotation
62
1
39
211
10
2.201189
20
8.210049
11
2.201351
21
8.210260
0
LINE
8
annotation
62
1
39
211
10
2.201351
20
8.210260
11
2.201507
21
8.210474
0
LINE
8
annotation
62
1
39
211
10
2.201507
20
8.210474
11
2.201658
21
8.210694
0
LINE
8
annotation
62
1
39
211
10
2.201658
20
8.210694
11
2.201806
21
8.210921
0
LINE
8
annotation
62
1
39
211
10
2.201806
20
8.210921
11
2.201951
21
8.211157
0
LINE
8
annotation
62
1
39
211
10
2.201951
20
8.211157
11
2.202095
21
8.211404
0
LINE
8
annotation
62
1
39
211
10
2.202095
20
8.211404
11
2.202237
21
8.211662
0
LINE
8
annotation
62
1
39
211
10
2.202237
20
8.211662
11
2.202381
21
8.211936
0
LINE
8
annotation
62
1
39
211
10
2.202381
20
8.211936
11
2.202381
21
8.211936
0
LINE
8
annotation
62
1
39
211
10
2.202381
20
8.211936
11
2.208219
21
8.224472
0
LINE
8
annotation
62
1
39
211
10
2.208219
20
8.224472
11
2.211630
21
8.237466
0
LINE
8
annotation
62
1
39
211
10
2.211630
20
8.237466
11
2.212697
21
8.250626
0
LINE
8
annotation
62
1
39
211
10
2.212697
20
8.250626
11
2.211503
21
8.263657
0
LINE
8
annotation
62
1
39
211
10
2.211503
20
8.263657
11
2.208132
21
8.276266
0
LINE
8
annotation
62
1
39
211
10
2.208132
20
8.276266
11
2.202667
21
8.288159
0
LINE
8
annotation
62
1
39
211
10
2.202667
20
8.288159
11
2.195193
21
8.299042
0
LINE
8
annotation
62
1
39
211
10
2.195193
20
8.299042
11
2.185793
21
8.308623
0
LINE
8
annotation
62
1
39
211
10
2.185793
20
8.308623
11
2.174549
21
8.316606
0
LINE
8
annotation
62
1
39
211
10
2.174549
20
8.316606
11
2.174549
21
8.316606
0
LINE
8
annotation
62
1
39
211
10
2.174549
20
8.316606
11
2.161979
21
8.322362
0
LINE
8
annotation
62
1
39
211
10
2.161979
20
8.322362
11
2.148964
21
8.325720
0
LINE
8
annotation
62
1
39
211
10
2.148964
20
8.325720
11
2.135797
21
8.326757
0
LINE
8
annotation
62
1
39
211
10
2.135797
20
8.326757
11
2.122768
21
8.325547
0
LINE
8
annotation
62
1
39
211
10
2.122768
20
8.325547
11
2.110168
21
8.322167
0
LINE
8
annotation
62
1
39
211
10
2.110168
20
8.322167
11
2.098288
21
8.316691
0
LINE
8
annotation
62
1
39
211
10
2.098288
20
8.316691
11
2.087419
21
8.309196
0
LINE
8
annotation
62
1
39
211
10
2.087419
20
8.309196
11
2.077852
21
8.299758
0
LINE
8
annotation
62
1
39
211
10
2.077852
20
8.299758
11
2.069879
21
8.288451
0
LINE
8
annotation
62
1
39
211
10
2.069879
20
8.288451
11
2.059831
21
8.269176
0
LINE
8
annotation
62
1
39
211
10
9.992847
20
8.242862
11
9.883043
21
8.242862
0
LINE
8
annotation
62
1
39
211
10
9.883043
20
8.242862
11
9.984505
21
8.406203
0
LINE
8
annotation
62
1
39
211
10
9.984505
20
8.406203
11
9.984505
21
8.406203
0
LINE
8
annotation
62
1
39
211
10
9.984505
20
8.406203
11
9.984626
21
8.406353
0
LINE
8
annotation
62
1
39
211
10
9.984626
20
8.406353
11
9.984743
21
8.406504
0
LINE
8
annotation
62
1
39
211
10
9.984743
20
8.406504
11
9.984855
21
8.406658
0
LINE
8
annotation
62
1
39
211
10
9.984855
20
8.406658
11
9.984963
21
8.406816
0
LINE
8
annotation
62
1
39
211
10
9.984963
20
8.406816
11
9.985069
21
8.406979
0
LINE
8
annotation
62
1
39
211
10
9.985069
20
8.406979
11
9.985173
21
8.407148
0
LINE
8
annotation
62
1
39
211
10
9.985173
20
8.407148
11
9.985276
21
8.407325
0
LINE
8
annotation
62
1
39
211
10
9.985276
20
8.407325
11
9.985379
21
8.407511
0
LINE
8
annotation
62
1
39
211
10
9.985379
20
8.407511
11
9.985482
21
8.407707
0
LINE
8
annotation
62
1
39
211
10
9.985482
20
8.407707
11
9.985482
21
8.407707
0
LINE
8
annotation
62
1
39
211
10
9.985482
20
8.407707
11
9.989671
21
8.416702
0
LINE
8
annotation
62
1
39
211
10
9.989671
20
8.416702
11
9.992119
21
8.426026
0
LINE
8
annotation
62
1
39
211
10
9.992119
20
8.426026
11
9.992884
21
8.435468
0
LINE
8
annotation
62
1
39
211
10
9.992884
20
8.435468
11
9.992027
21
8.444818
0
LINE
8
annotation
62
1
39
211
10
9.992027
20
8.444818
11
9.989608
21
8.453865
0
LINE
8
annotation
62
1
39
211
10
9.989608
20
8.453865
11
9.985687
21
8.462399
0
LINE
8
annotation
62
1
39
211
10
9.985687
20
8.462399
11
9.980324
21
8.470208
0
LINE
8
annotation
62
1
39
211
10
9.980324
20
8.470208
11
9.973579
21
8.477082
0
LINE
8
annotation
62
1
39
211
10
9.973579
20
8.477082
11
9.965512
21
8.482811
0
LINE
8
annotation
62
1
39
211
10
9.965512
20
8.482811
11
9.965512
21
8.482811
0
LINE
8
annotation
62
1
39
211
10
9.965512
20
8.482811
11
9.956492
21
8.486941
0
LINE
8
annotation
62
1
39
211
10
9.956492
20
8.486941
11
9.947154
21
8.489350
0
LINE
8
annotation
62
1
39
211
10
9.947154
20
8.489350
11
9.937706
21
8.490094
0
LINE
8
annotation
62
1
39
211
10
9.937706
20
8.490094
11
9.928357
21
8.489226
0
LINE
8
annotation
62
1
39
211
10
9.928357
20
8.489226
11
9.919316
21
8.486801
0
LINE
8
annotation
62
1
39
211
10
9.919316
20
8.486801
11
9.910792
21
8.482872
0
LINE
8
annotation
62
1
39
211
10
9.910792
20
8.482872
11
9.902994
21
8.477494
0
LINE
8
annotation
62
1
39
211
10
9.902994
20
8.477494
11
9.896129
21
8.470721
0
LINE
8
annotation
62
1
39
211
10
9.896129
20
8.470721
11
9.890408
21
8.462608
0
LINE
8
annotation
62
1
39
211
10
9.890408
20
8.462608
11
9.883198
21
8.448778
0
LINE
8
annotation
62
1
39
211
10
8.086451
20
2.063897
11
7.834848
21
2.063897
0
LINE
8
annotation
62
1
39
211
10
7.834848
20
2.063897
11
8.086451
21
2.517033
0
LINE
8
annotation
62
1
39
211
10
8.086451
20
2.517033
11
7.834848
21
2.517033
0
LINE
8
annotation
62
1
39
211
10
8.504187
20
2.290465
11
8.256420
21
2.290465
0
LINE
8
annotation
62
1
39
211
10
8.774822
20
2.063897
11
8.875560
21
2.517033
0
LINE
8
annotation
62
1
39
211
10
8.875560
20
2.517033
11
8.674056
21
2.517033
0
LINE
8
annotation
62
1
39
211
10
8.875560
20
2.315244
11
8.774822
21
2.315244
0
LINE
8
annotation
62
1
39
211
10
9.293309
20
2.290465
11
9.045543
21
2.290465
0
LINE
8
annotation
62
1
39
211
10
9.664475
20
2.063893
11
9.463227
21
2.063893
0
LINE
8
annotation
62
1
39
211
10
9.463227
20
2.063893
11
9.649187
21
2.363265
0
LINE
8
annotation
62
1
39
211
10
9.649187
20
2.363265
11
9.649187
21
2.363265
0
LINE
8
annotation
62
1
39
211
10
9.649187
20
2.363265
11
9.649409
21
2.363540
0
LINE
8
annotation
62
1
39
211
10
9.649409
20
2.363540
11
9.649623
21
2.363818
0
LINE
8
annotation
62
1
39
211
10
9.649623
20
2.363818
11
9.649828
21
2.364100
0
LINE
8
annotation
62
1
39
211
10
9.649828
20
2.364100
11
9.650027
21
2.364389
0
LINE
8
annotation
62
1
39
211
10
9.650027
20
2.364389
11
9.650222
21
2.364687
0
LINE
8
annotation
62
1
39
211
10
9.650222
20
2.364687
11
9.650412
21
2.364998
0
LINE
8
annotation
62
1
39
211
10
9.650412
20
2.364998
11
9.650601
21
2.365322
0
LINE
8
annotation
62
1
39
211
10
9.650601
20
2.365322
11
9.650789
21
2.365662
0
LINE
8
annotation
62
1
39
211
10
9.650789
20
2.365662
11
9.650977
21
2.366022
0
LINE
8
annotation
62
1
39
211
10
9.650977
20
2.366022
11
9.650977
21
2.366022
0
LINE
8
annotation
62
1
39
211
10
9.650977
20
2.366022
11
9.658656
21
2.382507
0
LINE
8
annotation
62
1
39
211
10
9.658656
20
2.382507
11
9.663141
21
2.399597
0
LINE
8
annotation
62
1
39
211
10
9.663141
20
2.399597
11
9.664544
21
2.416903
0
LINE
8
annotation
62
1
39
211
10
9.664544
20
2.416903
11
9.662974
21
2.434040
0
LINE
8
annotation
62
1
39
211
10
9.662974
20
2.434040
11
9.658540
21
2.450621
0
LINE
8
annotation
62
1
39
211
10
9.658540
20
2.450621
11
9.651354
21
2.466262
0
LINE
8
annotation
62
1
39
211
10
9.651354
20
2.466262
11
9.641525
21
2.480575
0
LINE
8
annotation
62
1
39
211
10
9.641525
20
2.480575
11
9.629162
21
2.493174
0
LINE
8
annotation
62
1
39
211
10
9.629162
20
2.493174
11
9.614376
21
2.503673
0
LINE
8
annotation
62
1
39
211
10
9.614376
20
2.503673
11
9.614376
21
2.503673
0
LINE
8
annotation
62
1
39
211
10
9.614376
20
2.503673
11
9.597845
21
2.511242
0
LINE
8
annotation
62
1
39
211
10
9.597845
20
2.511242
11
9.580730
21
2.515659
0
LINE
8
annotation
62
1
39
211
10
9.580730
20
2.515659
11
9.563413
21
2.517022
0
LINE
8
annotation
62
1
39
211
10
9.563413
20
2.517022
11
9.546279
21
2.515431
0
LINE
8
annotation
62
1
39
211
10
9.546279
20
2.515431
11
9.529709
21
2.510985
0
LINE
8
annotation
62
1
39
211
10
9.529709
20
2.510985
11
9.514086
21
2.503785
0
LINE
8
annotation
62
1
39
211
10
9.514086
20
2.503785
11
9.499792
21
2.493928
0
LINE
8
annotation
62
1
39
211
10
9.499792
20
2.493928
11
9.487211
21
2.481516
0
LINE
8
annotation
62
1
39
211
10
9.487211
20
2.481516
11
9.476725
21
2.466646
0
LINE
8
annotation
62
1
39
211
10
9.476725
20
2.466646
11
9.463511
21
2.441298
0
LINE
8
boundary
62
5
39
2
10
26.215776
20
4.147041
11
23.867875
21
7.875680
0
LINE
8
boundary
62
5
39
2
10
23.867875
20
7.875680
11
23.851188
21
7.902180
0
LINE
8
boundary
62
5
39
2
10
23.851188
20
7.902180
11
23.230279
21
7.902180
0
LINE
8
boundary
62
5
39
2
10
23.230279
20
7.902180
11
23.230279
21
7.875680
0
LINE
8
boundary
62
5
39
2
10
23.230279
20
7.875680
11
23.470100
21
7.690945
0
LINE
8
boundary
62
5
39
2
10
23.470100
20
7.690945
11
23.492967
21
7.644991
0
LINE
8
boundary
62
5
39
2
10
23.492967
20
7.644991
11
23.514479
21
7.601759
0
LINE
8
boundary
62
5
39
2
10
23.514479
20
7.601759
11
23.538047
21
7.563082
0
LINE
8
boundary
62
5
39
2
10
23.538047
20
7.563082
11
24.991868
21
5.161840
0
LINE
8
boundary
62
5
39
2
10
24.991868
20
5.161840
11
22.640042
21
3.243143
0
LINE
8
boundary
62
5
39
2
10
22.640042
20
3.243143
11
22.524877
21
3.000674
0
LINE
8
boundary
62
5
39
2
10
22.524877
20
3.000674
11
22.105959
21
2.851851
0
LINE
8
boundary
62
5
39
2
10
22.105959
20
2.851851
11
21.648904
21
2.845530
0
LINE
8
boundary
62
5
39
2
10
21.648904
20
2.845530
11
18.080656
21
3.221170
0
LINE
8
boundary
62
5
39
2
10
18.080656
20
3.221170
11
15.042107
21
2.467984
0
LINE
8
boundary
62
5
39
2
10
15.042107
20
2.467984
11
15.364808
21
4.331052
0
LINE
8
boundary
62
5
39
2
10
15.364808
20
4.331052
11
15.543535
21
6.298515
0
LINE
8
boundary
62
5
39
2
10
15.543535
20
6.298515
11
16.029298
21
7.813572
0
LINE
8
boundary
62
5
39
2
10
16.029298
20
7.813572
11
16.065136
21
7.875680
0
LINE
8
boundary
62
5
39
2
10
16.065136
20
7.875680
11
16.052606
21
7.902180
0
LINE
8
boundary
62
5
39
2
10
16.052606
20
7.902180
11
15.523098
21
7.902180
0
LINE
8
boundary
62
5
39
2
10
15.523098
20
7.902180
11
15.523098
21
8.406780
0
LINE
8
boundary
62
5
39
2
10
15.523098
20
8.406780
11
16.371597
21
8.406780
0
LINE
8
boundary
62
5
39
2
10
16.371597
20
8.406780
11
17.799793
21
10.881856
0
LINE
8
boundary
62
5
39
2
10
17.799793
20
10.881856
11
20.650945
21
9.862360
0
LINE
8
boundary
62
5
39
2
10
20.650945
20
9.862360
11
20.651384
21
9.862203
0
LINE
8
boundary
62
5
39
2
10
20.651384
20
9.862203
11
22.846072
21
8.171634
0
LINE
8
boundary
62
5
39
2
10
22.846072
20
8.171634
11
22.846072
21
8.406780
0
LINE
8
boundary
62
5
39
2
10
22.846072
20
8.406780
11
22.858602
21
8.433280
0
LINE
8
boundary
62
5
39
2
10
22.858602
20
8.433280
11
23.230279
21
8.433280
0
LINE
8
boundary
62
5
39
2
10
23.230279
20
8.433280
11
23.230279
21
8.406780
0
LINE
8
boundary
62
5
39
2
10
23.230279
20
8.406780
11
23.504228
21
8.406780
0
LINE
8
boundary
62
5
39
2
10
23.504228
20
8.406780
11
23.516758
21
8.433280
0
LINE
8
boundary
62
5
39
2
10
23.516758
20
8.433280
11
23.306299
21
8.767504
0
LINE
8
boundary
62
5
39
2
10
23.306299
20
8.767504
11
23.267665
21
8.818452
0
LINE
8
boundary
62
5
39
2
10
23.267665
20
8.818452
11
23.267565
21
8.818191
0
LINE
8
boundary
62
5
39
2
10
23.267565
20
8.818191
11
23.253923
21
8.834049
0
LINE
8
boundary
62
5
39
2
10
23.253923
20
8.834049
11
21.932268
21
9.822498
0
LINE
8
boundary
62
5
39
2
10
21.932268
20
9.822498
11
21.860529
21
9.876468
0
LINE
8
boundary
62
5
39
2
10
21.860529
20
9.876468
11
21.755219
21
9.953775
0
LINE
8
boundary
62
5
39
2
10
21.755219
20
9.953775
11
21.733877
21
9.962086
0
LINE
8
boundary
62
5
39
2
10
21.733877
20
9.962086
11
21.726151
21
9.961082
0
LINE
8
boundary
62
5
39
2
10
21.726151
20
9.961082
11
21.502552
21
10.052662
0
LINE
8
boundary
62
5
39
2
10
21.502552
20
10.052662
11
17.046834
21
11.761059
0
LINE
8
boundary
62
5
39
2
10
17.046834
20
11.761059
11
15.838767
21
9.744631
0
LINE
8
boundary
62
5
39
2
10
15.838767
20
9.744631
11
14.194032
21
7.197199
0
LINE
8
boundary
62
5
39
2
10
14.194032
20
7.197199
11
14.306451
21
6.580990
0
LINE
8
boundary
62
5
39
2
10
14.306451
20
6.580990
11
13.991146
21
5.824496
0
LINE
8
boundary
62
5
39
2
10
13.991146
20
5.824496
11
13.872911
21
3.523882
0
LINE
8
boundary
62
5
39
2
10
13.872911
20
3.523882
11
13.630098
21
1.951852
0
LINE
8
boundary
62
5
39
2
10
13.630098
20
1.951852
11
14.263610
21
1.201490
0
LINE
8
boundary
62
5
39
2
10
14.263610
20
1.201490
11
14.848163
21
1.018060
0
LINE
8
boundary
62
5
39
2
10
14.848163
20
1.018060
11
16.795673
21
0.686750
0
LINE
8
boundary
62
5
39
2
10
16.795673
20
0.686750
11
19.046828
21
1.188035
0
LINE
8
boundary
62
5
39
2
10
19.046828
20
1.188035
11
20.763621
21
0.976873
0
LINE
8
boundary
62
5
39
2
10
20.763621
20
0.976873
11
22.855709
21
1.346498
0
LINE
8
boundary
62
5
39
2
10
22.855709
20
1.346498
11
24.777734
21
1.673655
0
LINE
8
boundary
62
5
39
2
10
24.777734
20
1.673655
11
25.078353
21
1.643471
0
LINE
8
boundary
62
5
39
2
10
25.078353
20
1.643471
11
25.338676
21
2.025343
0
LINE
8
boundary
62
5
39
2
10
25.338676
20
2.025343
11
25.183662
21
3.128556
0
LINE
8
boundary
62
5
39
2
10
25.183662
20
3.128556
11
26.215776
21
4.147041
0
LINE
8
annotation
62
1
39
211
10
16.062231
20
8.264785
11
15.971903
21
8.264785
0
LINE
8
annotation
62
1
39
211
10
15.971903
20
8.264785
11
16.055369
21
8.399155
0
LINE
8
annotation
62
1
39
211
10
16.055369
20
8.399155
11
16.055369
21
8.399155
0
LINE
8
annotation
62
1
39
211
10
16.055369
20
8.399155
11
16.055469
21
8.399279
0
LINE
8
annotation
62
1
39
211
10
16.055469
20
8.399279
11
16.055565
21
8.399403
0
LINE
8
annotation
62
1
39
211
10
16.055565
20
8.399403
11
16.055657
21
8.399530
0
LINE
8
annotation
62
1
39
211
10
16.055657
20
8.399530
11
16.055747
21
8.399660
0
LINE
8
annotation
62
1
39
211
10
16.055747
20
8.399660
11
16.055834
21
8.399794
0
LINE
8
annotation
62
1
39
211
10
16.055834
20
8.399794
11
16.055919
21
8.399933
0
LINE
8
annotation
62
1
39
211
10
16.055919
20
8.399933
11
16.056004
21
8.400078
0
LINE
8
annotation
62
1
39
211
10
16.056004
20
8.400078
11
16.056088
21
8.400231
0
LINE
8
annotation
62
1
39
211
10
16.056088
20
8.400231
11
16.056173
21
8.400393
0
LINE
8
annotation
62
1
39
211
10
16.056173
20
8.400393
11
16.056173
21
8.400393
0
LINE
8
annotation
62
1
39
211
10
16.056173
20
8.400393
11
16.059619
21
8.407792
0
LINE
8
annotation
62
1
39
211
10
16.059619
20
8.407792
11
16.061633
21
8.415462
0
LINE
8
annotation
62
1
39
211
10
16.061633
20
8.415462
11
16.062262
21
8.423230
0
LINE
8
annotation
62
1
39
211
10
16.062262
20
8.423230
11
16.061557
21
8.430922
0
LINE
8
annotation
62
1
39
211
10
16.061557
20
8.430922
11
16.059568
21
8.438364
0
LINE
8
annotation
62
1
39
211
10
16.059568
20
8.438364
11
16.056342
21
8.445385
0
LINE
8
annotation
62
1
39
211
10
16.056342
20
8.445385
11
16.051930
21
8.451809
0
LINE
8
annotation
62
1
39
211
10
16.051930
20
8.451809
11
16.046381
21
8.457464
0
LINE
8
annotation
62
1
39
211
10
16.046381
20
8.457464
11
16.039745
21
8.462176
0
LINE
8
annotation
62
1
39
211
10
16.039745
20
8.462176
11
16.039745
21
8.462176
0
LINE
8
annotation
62
1
39
211
10
16.039745
20
8.462176
11
16.032325
21
8.465574
0
LINE
8
annotation
62
1
39
211
10
16.032325
20
8.465574
11
16.024643
21
8.467556
0
LINE
8
annotation
62
1
39
211
10
16.024643
20
8.467556
11
16.016871
21
8.468168
0
LINE
8
annotation
62
1
39
211
10
16.016871
20
8.468168
11
16.009180
21
8.467454
0
LINE
8
annotation
62
1
39
211
10
16.009180
20
8.467454
11
16.001743
21
8.465458
0
LINE
8
annotation
62
1
39
211
10
16.001743
20
8.465458
11
15.994730
21
8.462226
0
LINE
8
annotation
62
1
39
211
10
15.994730
20
8.462226
11
15.988315
21
8.457802
0
LINE
8
annotation
62
1
39
211
10
15.988315
20
8.457802
11
15.982668
21
8.452231
0
LINE
8
annotation
62
1
39
211
10
15.982668
20
8.452231
11
15.977961
21
8.445557
0
LINE
8
annotation
62
1
39
211
10
15.977961
20
8.445557
11
15.972030
21
8.434180
0
LINE
8
annotation
62
1
39
211
10
22.732806
20
8.317568
11
22.689362
21
8.317568
0
LINE
8
annotation
62
1
39
211
10
22.689362
20
8.317568
11
22.729506
21
8.382195
0
LINE
8
annotation
62
1
39
211
10
22.729506
20
8.382195
11
22.729506
21
8.382195
0
LINE
8
annotation
62
1
39
211
10
22.729506
20
8.382195
11
22.729554
21
8.382255
0
LINE
8
annotation
62
1
39
211
10
22.729554
20
8.382255
11
22.729600
21
8.382315
0
LINE
8
annotation
62
1
39
211
10
22.729600
20
8.382315
11
22.729644
21
8.382376
0
LINE
8
annotation
62
1
39
211
10
22.729644
20
8.382376
11
22.729687
21
8.382438
0
LINE
8
annotation
62
1
39
211
10
22.729687
20
8.382438
11
22.729729
21
8.382502
0
LINE
8
annotation
62
1
39
211
10
22.729729
20
8.382502
11
22.729770
21
8.382569
0
LINE
8
annotation
62
1
39
211
10
22.729770
20
8.382569
11
22.729811
21
8.382639
0
LINE
8
annotation
62
1
39
211
10
22.729811
20
8.382639
11
22.729852
21
8.382713
0
LINE
8
annotation
62
1
39
211
10
22.729852
20
8.382713
11
22.729892
21
8.382790
0
LINE
8
annotation
62
1
39
211
10
22.729892
20
8.382790
11
22.729892
21
8.382790
0
LINE
8
annotation
62
1
39
211
10
22.729892
20
8.382790
11
22.731550
21
8.386349
0
LINE
8
annotation
62
1
39
211
10
22.731550
20
8.386349
11
22.732518
21
8.390038
0
LINE
8
annotation
62
1
39
211
10
22.732518
20
8.390038
11
22.732821
21
8.393774
0
LINE
8
annotation
62
1
39
211
10
22.732821
20
8.393774
11
22.732482
21
8.397474
0
LINE
8
annotation
62
1
39
211
10
22.732482
20
8.397474
11
22.731525
21
8.401053
0
LINE
8
annotation
62
1
39
211
10
22.731525
20
8.401053
11
22.729974
21
8.404430
0
LINE
8
annotation
62
1
39
211
10
22.729974
20
8.404430
11
22.727852
21
8.407520
0
LINE
8
annotation
62
1
39
211
10
22.727852
20
8.407520
11
22.725183
21
8.410239
0
LINE
8
annotation
62
1
39
211
10
22.725183
20
8.410239
11
22.721991
21
8.412506
0
LINE
8
annotation
62
1
39
211
10
22.721991
20
8.412506
11
22.721991
21
8.412506
0
LINE
8
annotation
62
1
39
211
10
22.721991
20
8.412506
11
22.718422
21
8.414140
0
LINE
8
annotation
62
1
39
211
10
22.718422
20
8.414140
11
22.714728
21
8.415093
0
LINE
8
annotation
62
1
39
211
10
22.714728
20
8.415093
11
22.710990
21
8.415388
0
LINE
8
annotation
62
1
39
211
10
22.710990
20
8.415388
11
22.707291
21
8.415044
0
LINE
8
annotation
62
1
39
211
10
22.707291
20
8.415044
11
22.703714
21
8.414084
0
LINE
8
annotation
62
1
39
211
10
22.703714
20
8.414084
11
22.700341
21
8.412530
0
LINE
8
annotation
62
1
39
211
10
22.700341
20
8.412530
11
22.697255
21
8.410402
0
LINE
8
annotation
62
1
39
211
10
22.697255
20
8.410402
11
22.694539
21
8.407723
0
LINE
8
annotation
62
1
39
211
10
22.694539
20
8.407723
11
22.692276
21
8.404513
0
LINE
8
annotation
62
1
39
211
10
22.692276
20
8.404513
11
22.689423
21
8.399041
0
LINE
8
annotation
62
1
39
211
10
15.156362
20
7.982291
11
15.003418
21
7.982291
0
LINE
8
annotation
62
1
39
211
10
15.003418
20
7.982291
11
15.144743
21
8.209806
0
LINE
8
annotation
62
1
39
211
10
15.144743
20
8.209806
11
15.144743
21
8.209806
0
LINE
8
annotation
62
1
39
211
10
15.144743
20
8.209806
11
15.144912
21
8.210015
0
LINE
8
annotation
62
1
39
211
10
15.144912
20
8.210015
11
15.145074
21
8.210226
0
LINE
8
annotation
62
1
39
211
10
15.145074
20
8.210226
11
15.145230
21
8.210440
0
LINE
8
annotation
62
1
39
211
10
15.145230
20
8.210440
11
15.145382
21
8.210660
0
LINE
8
annotation
62
1
39
211
10
15.145382
20
8.210660
11
15.145529
21
8.210887
0
LINE
8
annotation
62
1
39
211
10
15.145529
20
8.210887
11
15.145674
21
8.211123
0
LINE
8
annotation
62
1
39
211
10
15.145674
20
8.211123
11
15.145818
21
8.211369
0
LINE
8
annotation
62
1
39
211
10
15.145818
20
8.211369
11
15.145961
21
8.211628
0
LINE
8
annotation
62
1
39
211
10
15.145961
20
8.211628
11
15.146104
21
8.211901
0
LINE
8
annotation
62
1
39
211
10
15.146104
20
8.211901
11
15.146104
21
8.211901
0
LINE
8
annotation
62
1
39
211
10
15.146104
20
8.211901
11
15.151939
21
8.224430
0
LINE
8
annotation
62
1
39
211
10
15.151939
20
8.224430
11
15.155348
21
8.237417
0
LINE
8
annotation
62
1
39
211
10
15.155348
20
8.237417
11
15.156414
21
8.250569
0
LINE
8
annotation
62
1
39
211
10
15.156414
20
8.250569
11
15.155221
21
8.263593
0
LINE
8
annotation
62
1
39
211
10
15.155221
20
8.263593
11
15.151852
21
8.276194
0
LINE
8
annotation
62
1
39
211
10
15.151852
20
8.276194
11
15.146390
21
8.288081
0
LINE
8
annotation
62
1
39
211
10
15.146390
20
8.288081
11
15.138920
21
8.298958
0
LINE
8
annotation
62
1
39
211
10
15.138920
20
8.298958
11
15.129525
21
8.308533
0
LINE
8
annotation
62
1
39
211
10
15.129525
20
8.308533
11
15.118288
21
8.316512
0
LINE
8
annotation
62
1
39
211
10
15.118288
20
8.316512
11
15.118288
21
8.316512
0
LINE
8
annotation
62
1
39
211
10
15.118288
20
8.316512
11
15.105724
21
8.322265
0
LINE
8
annotation
62
1
39
211
10
15.105724
20
8.322265
11
15.092717
21
8.325621
0
LINE
8
annotation
62
1
39
211
10
15.092717
20
8.325621
11
15.079557
21
8.326657
0
LINE
8
annotation
62
1
39
211
10
15.079557
20
8.326657
11
15.066536
21
8.325448
0
LINE
8
annotation
62
1
39
211
10
15.066536
20
8.325448
11
15.053943
21
8.322070
0
LINE
8
annotation
62
1
39
211
10
15.053943
20
8.322070
11
15.042070
21
8.316597
0
LINE
8
annotation
62
1
39
211
10
15.042070
20
8.316597
11
15.031207
21
8.309107
0
LINE
8
annotation
62
1
39
211
10
15.031207
20
8.309107
11
15.021646
21
8.299673
0
LINE
8
annotation
62
1
39
211
10
15.021646
20
8.299673
11
15.013676
21
8.288373
0
LINE
8
annotation
62
1
39
211
10
15.013676
20
8.288373
11
15.003634
21
8.269109
0
LINE
8
annotation
62
1
39
211
10
22.943639
20
8.243743
11
22.834620
21
8.243743
0
LINE
8
annotation
62
1
39
211
10
22.834620
20
8.243743
11
22.935357
21
8.405917
0
LINE
8
annotation
62
1
39
211
10
22.935357
20
8.405917
11
22.935357
21
8.405917
0
LINE
8
annotation
62
1
39
211
10
22.935357
20
8.405917
11
22.935478
21
8.406066
0
LINE
8
annotation
62
1
39
211
10
22.935478
20
8.406066
11
22.935593
21
8.406216
0
LINE
8
annotation
62
1
39
211
10
22.935593
20
8.406216
11
22.935705
21
8.406369
0
LINE
8
annotation
62
1
39
211
10
22.935705
20
8.406369
11
22.935813
21
8.406525
0
LINE
8
annotation
62
1
39
211
10
22.935813
20
8.406525
11
22.935918
21
8.406687
0
LINE
8
annotation
62
1
39
211
10
22.935918
20
8.406687
11
22.936021
21
8.406855
0
LINE
8
annotation
62
1
39
211
10
22.936021
20
8.406855
11
22.936123
21
8.407031
0
LINE
8
annotation
62
1
39
211
10
22.936123
20
8.407031
11
22.936225
21
8.407215
0
LINE
8
annotation
62
1
39
211
10
22.936225
20
8.407215
11
22.936327
21
8.407410
0
LINE
8
annotation
62
1
39
211
10
22.936327
20
8.407410
11
22.936327
21
8.407410
0
LINE
8
annotation
62
1
39
211
10
22.936327
20
8.407410
11
22.940487
21
8.416340
0
LINE
8
annotation
62
1
39
211
10
22.940487
20
8.416340
11
22.942917
21
8.425598
0
LINE
8
annotation
62
1
39
211
10
22.942917
20
8.425598
11
22.943676
21
8.434973
0
LINE
8
annotation
62
1
39
211
10
22.943676
20
8.434973
11
22.942826
21
8.444256
0
LINE
8
annotation
62
1
39
211
10
22.942826
20
8.444256
11
22.940424
21
8.453239
0
LINE
8
annotation
62
1
39
211
10
22.940424
20
8.453239
11
22.936531
21
8.461711
0
LINE
8
annotation
62
1
39
211
10
22.936531
20
8.461711
11
22.931207
21
8.469465
0
LINE
8
annotation
62
1
39
211
10
22.931207
20
8.469465
11
22.924510
21
8.476290
0
LINE
8
annotation
62
1
39
211
10
22.924510
20
8.476290
11
22.916500
21
8.481977
0
LINE
8
annotation
62
1
39
211
10
22.916500
20
8.481977
11
22.916500
21
8.481977
0
LINE
8
annotation
62
1
39
211
10
22.916500
20
8.481977
11
22.907545
21
8.486078
0
LINE
8
annotation
62
1
39
211
10
22.907545
20
8.486078
11
22.898273
21
8.488470
0
LINE
8
annotation
62
1
39
211
10
22.898273
20
8.488470
11
22.888893
21
8.489209
0
LINE
8
annotation
62
1
39
211
10
22.888893
20
8.489209
11
22.879611
21
8.488347
0
LINE
8
annotation
62
1
39
211
10
22.879611
20
8.488347
11
22.870634
21
8.485939
0
LINE
8
annotation
62
1
39
211
10
22.870634
20
8.485939
11
22.862171
21
8.482038
0
LINE
8
annotation
62
1
39
211
10
22.862171
20
8.482038
11
22.854428
21
8.476699
0
LINE
8
annotation
62
1
39
211
10
22.854428
20
8.476699
11
22.847613
21
8.469974
0
LINE
8
annotation
62
1
39
211
10
22.847613
20
8.469974
11
22.841932
21
8.461919
0
LINE
8
annotation
62
1
39
211
10
22.841932
20
8.461919
11
22.834774
21
8.448188
0
LINE
8
annotation
62
1
39
211
10
21.130371
20
2.063922
11
20.878771
21
2.063922
0
LINE
8
annotation
62
1
39
211
10
20.878771
20
2.063922
11
21.130371
21
2.517052
0
LINE
8
annotation
62
1
39
211
10
21.130371
20
2.517052
11
20.878771
21
2.517052
0
LINE
8
annotation
62
1
39
211
10
21.548100
20
2.290487
11
21.300337
21
2.290487
0
LINE
8
annotation
62
1
39
211
10
21.818732
20
2.063922
11
21.818732
21
2.517052
0
LINE
8
annotation
62
1
39
211
10
21.818732
20
2.517052
11
21.717996
21
2.416287
0
LINE
8
annotation
62
1
39
211
10
22.236448
20
2.290487
11
21.988684
21
2.290487
0
LINE
8
annotation
62
1
39
211
10
22.507080
20
2.063922
11
22.507080
21
2.517052
0
LINE
8
annotation
62
1
39
211
10
22.507080
20
2.517052
11
22.406343
21
2.416287
0
LINE
8
frame
62
5
39
2
10
0.000000
20
0.000000
11
40.000000
21
0.000000
0
LINE
8
frame
62
5
39
2
10
40.000000
20
0.000000
11
40.000000
21
40.000000
0
LINE
8
frame
62
5
39
2
10
40.000000
20
40.000000
11
0.000000
21
40.000000
0
LINE
8
frame
62
5
39
2
10
0.000000
20
40.000000
11
0.000000
21
0.000000
0
ENDSEC
0
EOF
