0
SECTION
2
HEADER
9
$ACADVER
1
AC1009
0
ENDSEC
0
SECTION
2
TABLES
0
TABLE
2
VPORT
70
1
0
VPORT
2
ACTIVE
70
0
10
0.0
20
0.0
11
0.0
21
0.0
12
0.0
22
0.0
13
0.0
23
0.0
14
0.0
24
0.0
15
0.0
25
0.0
16
0.0
26
0.0
36
0.0
17
0.0
27
0.0
37
0.0
40
0.0
41
0.0
42
0.0
43
0.0
44
0.0
50
0.0
51
0.0
71
0
72
1000
73
1
74
3
75
0
76
0
77
0
78
0
0
ENDTAB
0
ENDSEC
0
SECTION
2
ENTITIES
0
LINE
8
hole
62
5
39
2
10
12.855686
20
14.915357
11
12.856606
21
14.912671
0
LINE
8
hole
62
5
39
2
10
12.856606
20
14.912671
11
12.862958
21
14.891047
0
LINE
8
hole
62
5
39
2
10
12.862958
20
14.891047
11
12.867566
21
14.880982
0
LINE
8
hole
62
5
39
2
10
12.867566
20
14.880982
11
12.831413
21
14.857351
0
LINE
8
hole
62
5
39
2
10
12.831413
20
14.857351
11
12.797019
21
14.843086
0
LINE
8
hole
62
5
39
2
10
12.797019
20
14.843086
11
12.834664
21
14.909986
0
LINE
8
hole
62
5
39
2
10
12.834664
20
14.909986
11
12.849843
21
14.932425
0
LINE
8
hole
62
5
39
2
10
12.849843
20
14.932425
11
12.855686
21
14.915357
0
LINE
8
hole
62
5
39
2
10
19.830365
20
24.423634
11
19.838726
21
24.437584
0
LINE
8
hole
62
5
39
2
10
19.838726
20
24.437584
11
19.932179
21
24.337820
0
LINE
8
hole
62
5
39
2
10
19.932179
20
24.337820
11
19.922200
21
24.324088
0
LINE
8
hole
62
5
39
2
10
19.922200
20
24.324088
11
19.923246
21
24.321673
0
LINE
8
hole
62
5
39
2
10
19.923246
20
24.321673
11
19.903791
21
24.307197
0
LINE
8
hole
62
5
39
2
10
19.903791
20
24.307197
11
19.829142
21
24.402523
0
LINE
8
hole
62
5
39
2
10
19.829142
20
24.402523
11
19.830365
21
24.423634
0
LINE
8
hole
62
5
39
2
10
20.043627
20
24.247949
11
20.043733
21
24.247830
0
LINE
8
hole
62
5
39
2
10
20.043733
20
24.247830
11
20.043330
21
24.247181
0
LINE
8
hole
62
5
39
2
10
20.043330
20
24.247181
11
20.028204
21
24.228195
0
LINE
8
hole
62
5
39
2
10
20.028204
20
24.228195
11
20.134095
21
24.106018
0
LINE
8
hole
62
5
39
2
10
20.134095
20
24.106018
11
20.134896
21
24.104422
0
LINE
8
hole
62
5
39
2
10
20.134896
20
24.104422
11
20.130368
21
24.098661
0
LINE
8
hole
62
5
39
2
10
20.130368
20
24.098661
11
20.109235
21
24.071833
0
LINE
8
hole
62
5
39
2
10
20.109235
20
24.071833
11
20.107052
21
24.067780
0
LINE
8
hole
62
5
39
2
10
20.107052
20
24.067780
11
20.008838
21
24.183033
0
LINE
8
hole
62
5
39
2
10
20.008838
20
24.183033
11
19.999750
21
24.167042
0
LINE
8
hole
62
5
39
2
10
19.999750
20
24.167042
11
19.986973
21
24.145245
0
LINE
8
hole
62
5
39
2
10
19.986973
20
24.145245
11
19.958603
21
24.179755
0
LINE
8
hole
62
5
39
2
10
19.958603
20
24.179755
11
19.947640
21
24.191831
0
LINE
8
hole
62
5
39
2
10
19.947640
20
24.191831
11
19.956505
21
24.206516
0
LINE
8
hole
62
5
39
2
10
19.956505
20
24.206516
11
19.970075
21
24.228071
0
LINE
8
hole
62
5
39
2
10
19.970075
20
24.228071
11
19.937043
21
24.269682
0
LINE
8
hole
62
5
39
2
10
19.937043
20
24.269682
11
19.947682
21
24.296917
0
LINE
8
hole
62
5
39
2
10
19.947682
20
24.296917
11
19.954301
21
24.308478
0
LINE
8
hole
62
5
39
2
10
19.954301
20
24.308478
11
19.996419
21
24.259617
0
LINE
8
hole
62
5
39
2
10
19.996419
20
24.259617
11
20.010943
21
24.279199
0
LINE
8
hole
62
5
39
2
10
20.010943
20
24.279199
11
20.023293
21
24.294449
0
LINE
8
hole
62
5
39
2
10
20.023293
20
24.294449
11
20.015765
21
24.274789
0
LINE
8
hole
62
5
39
2
10
20.015765
20
24.274789
11
20.042728
21
24.249121
0
LINE
8
hole
62
5
39
2
10
20.042728
20
24.249121
11
20.043627
21
24.247949
0
LINE
8
boundary
62
5
39
2
10
8.117416
20
6.040288
11
8.165049
21
6.066788
0
LINE
8
boundary
62
5
39
2
10
8.165049
20
6.066788
11
8.763798
21
6.399900
0
LINE
8
boundary
62
5
39
2
10
8.763798
20
6.399900
11
12.817823
21
8.663942
0
LINE
8
boundary
62
5
39
2
10
12.817823
20
8.663942
11
12.826919
21
8.716968
0
LINE
8
boundary
62
5
39
2
10
12.826919
20
8.716968
11
12.836813
21
8.750075
0
LINE
8
boundary
62
5
39
2
10
12.836813
20
8.750075
11
12.839738
21
8.773273
0
LINE
8
boundary
62
5
39
2
10
12.839738
20
8.773273
11
12.846781
21
8.800580
0
LINE
8
boundary
62
5
39
2
10
12.846781
20
8.800580
11
12.857586
21
8.869517
0
LINE
8
boundary
62
5
39
2
10
12.857586
20
8.869517
11
7.373598
21
6.040288
0
LINE
8
boundary
62
5
39
2
10
7.373598
20
6.040288
11
8.117416
21
6.040288
0
LINE
8
boundary
62
5
39
2
10
14.840549
20
5.509188
11
14.847870
21
5.527911
0
LINE
8
boundary
62
5
39
2
10
14.847870
20
5.527911
11
14.844193
21
5.535688
0
LINE
8
boundary
62
5
39
2
10
14.844193
20
5.535688
11
14.844193
21
6.040288
0
LINE
8
boundary
62
5
39
2
10
14.844193
20
6.040288
11
15.040599
21
6.040288
0
LINE
8
boundary
62
5
39
2
10
15.040599
20
6.040288
11
15.053129
21
6.066788
0
LINE
8
boundary
62
5
39
2
10
15.053129
20
6.066788
11
16.839655
21
11.200668
0
LINE
8
boundary
62
5
39
2
10
16.839655
20
11.200668
11
14.936551
21
14.203145
0
LINE
8
boundary
62
5
39
2
10
14.936551
20
14.203145
11
14.869822
21
14.200844
0
LINE
8
boundary
62
5
39
2
10
14.869822
20
14.200844
11
14.770371
21
14.210776
0
LINE
8
boundary
62
5
39
2
10
14.770371
20
14.210776
11
13.327492
21
14.299202
0
LINE
8
boundary
62
5
39
2
10
13.327492
20
14.299202
11
14.180964
21
14.187569
0
LINE
8
boundary
62
5
39
2
10
14.180964
20
14.187569
11
14.269160
21
14.176592
0
LINE
8
boundary
62
5
39
2
10
14.269160
20
14.176592
11
14.478102
21
14.144506
0
LINE
8
boundary
62
5
39
2
10
14.478102
20
14.144506
11
13.757935
21
14.212347
0
LINE
8
boundary
62
5
39
2
10
13.757935
20
14.212347
11
14.795149
21
14.021731
0
LINE
8
boundary
62
5
39
2
10
14.795149
20
14.021731
11
16.533070
21
11.213519
0
LINE
8
boundary
62
5
39
2
10
16.533070
20
11.213519
11
14.813582
21
6.066788
0
LINE
8
boundary
62
5
39
2
10
14.813582
20
6.066788
11
14.840549
21
6.066788
0
LINE
8
boundary
62
5
39
2
10
14.840549
20
6.066788
11
14.840549
21
5.509188
0
LINE
8
boundary
62
5
39
2
10
24.579182
20
28.732200
11
24.559293
21
28.800049
0
LINE
8
boundary
62
5
39
2
10
24.559293
20
28.800049
11
24.439906
21
29.207017
0
LINE
8
boundary
62
5
39
2
10
24.439906
20
29.207017
11
24.413412
21
29.295130
0
LINE
8
boundary
62
5
39
2
10
24.413412
20
29.295130
11
24.405134
21
29.324765
0
LINE
8
boundary
62
5
39
2
10
24.405134
20
29.324765
11
23.215976
21
30.108731
0
LINE
8
boundary
62
5
39
2
10
23.215976
20
30.108731
11
20.295079
21
31.736141
0
LINE
8
boundary
62
5
39
2
10
20.295079
20
31.736141
11
19.338296
21
31.211359
0
LINE
8
boundary
62
5
39
2
10
19.338296
20
31.211359
11
17.372538
21
30.220452
0
LINE
8
boundary
62
5
39
2
10
17.372538
20
30.220452
11
15.729879
21
28.756087
0
LINE
8
boundary
62
5
39
2
10
15.729879
20
28.756087
11
14.781783
21
28.079763
0
LINE
8
boundary
62
5
39
2
10
14.781783
20
28.079763
11
13.747922
21
27.525632
0
LINE
8
boundary
62
5
39
2
10
13.747922
20
27.525632
11
11.679410
21
26.185285
0
LINE
8
boundary
62
5
39
2
10
11.679410
20
26.185285
11
9.900380
21
25.518259
0
LINE
8
boundary
62
5
39
2
10
9.900380
20
25.518259
11
9.128309
21
25.260324
0
LINE
8
boundary
62
5
39
2
10
9.128309
20
25.260324
11
6.111973
21
23.860960
0
LINE
8
boundary
62
5
39
2
10
6.111973
20
23.860960
11
6.008933
21
23.774245
0
LINE
8
boundary
62
5
39
2
10
6.008933
20
23.774245
11
3.960055
21
20.907805
0
LINE
8
boundary
62
5
39
2
10
3.960055
20
20.907805
11
3.496129
21
20.389398
0
LINE
8
boundary
62
5
39
2
10
3.496129
20
20.389398
11
1.188987
21
16.778135
0
LINE
8
boundary
62
5
39
2
10
1.188987
20
16.778135
11
0.711205
21
11.432258
0
LINE
8
boundary
62
5
39
2
10
0.711205
20
11.432258
11
0.686750
21
11.031506
0
LINE
8
boundary
62
5
39
2
10
0.686750
20
11.031506
11
0.720079
21
10.967749
0
LINE
8
boundary
62
5
39
2
10
0.720079
20
10.967749
11
1.887395
21
8.881887
0
LINE
8
boundary
62
5
39
2
10
1.887395
20
8.881887
11
2.780006
21
7.471684
0
LINE
8
boundary
62
5
39
2
10
2.780006
20
7.471684
11
3.908132
21
6.842755
0
LINE
8
boundary
62
5
39
2
10
3.908132
20
6.842755
11
6.765776
21
5.323976
0
LINE
8
boundary
62
5
39
2
10
6.765776
20
5.323976
11
7.099507
21
5.509188
0
LINE
8
boundary
62
5
39
2
10
7.099507
20
5.509188
11
7.086977
21
5.535688
0
LINE
8
boundary
62
5
39
2
10
7.086977
20
5.535688
11
6.675633
21
5.535688
0
LINE
8
boundary
62
5
39
2
10
6.675633
20
5.535688
11
6.675633
21
5.836986
0
LINE
8
boundary
62
5
39
2
10
6.675633
20
5.836986
11
3.941895
21
7.414403
0
LINE
8
boundary
62
5
39
2
10
3.941895
20
7.414403
11
3.176567
21
7.892367
0
LINE
8
boundary
62
5
39
2
10
3.176567
20
7.892367
11
2.219149
21
9.346414
0
LINE
8
boundary
62
5
39
2
10
2.219149
20
9.346414
11
1.282745
21
11.017065
0
LINE
8
boundary
62
5
39
2
10
1.282745
20
11.017065
11
1.483506
21
11.476963
0
LINE
8
boundary
62
5
39
2
10
1.483506
20
11.476963
11
1.394941
21
11.957921
0
LINE
8
boundary
62
5
39
2
10
1.394941
20
11.957921
11
1.739732
21
15.884696
0
LINE
8
boundary
62
5
39
2
10
1.739732
20
15.884696
11
1.727202
21
15.911196
0
LINE
8
boundary
62
5
39
2
10
1.727202
20
15.911196
11
1.461635
21
15.911196
0
LINE
8
boundary
62
5
39
2
10
1.461635
20
15.911196
11
1.461635
21
16.415796
0
LINE
8
boundary
62
5
39
2
10
1.461635
20
16.415796
11
1.776162
21
16.415796
0
LINE
8
boundary
62
5
39
2
10
1.776162
20
16.415796
11
1.788692
21
16.442296
0
LINE
8
boundary
62
5
39
2
10
1.788692
20
16.442296
11
1.800982
21
16.582269
0
LINE
8
boundary
62
5
39
2
10
1.800982
20
16.582269
11
3.640290
21
19.401812
0
LINE
8
boundary
62
5
39
2
10
3.640290
20
19.401812
11
4.642416
21
20.541699
0
LINE
8
boundary
62
5
39
2
10
4.642416
20
20.541699
11
6.333546
21
22.903997
0
LINE
8
boundary
62
5
39
2
10
6.333546
20
22.903997
11
6.802059
21
23.289548
0
LINE
8
boundary
62
5
39
2
10
6.802059
20
23.289548
11
9.256921
21
24.397040
0
LINE
8
boundary
62
5
39
2
10
9.256921
20
24.397040
11
10.476288
21
24.798552
0
LINE
8
boundary
62
5
39
2
10
10.476288
20
24.798552
11
11.735356
21
25.276098
0
LINE
8
boundary
62
5
39
2
10
11.735356
20
25.276098
11
13.307424
21
26.299379
0
LINE
8
boundary
62
5
39
2
10
13.307424
20
26.299379
11
15.448596
21
27.489734
0
LINE
8
boundary
62
5
39
2
10
15.448596
20
27.489734
11
17.623873
21
28.970230
0
LINE
8
boundary
62
5
39
2
10
17.623873
20
28.970230
11
18.111163
21
29.415195
0
LINE
8
boundary
62
5
39
2
10
18.111163
20
29.415195
11
18.660223
21
29.689144
0
LINE
8
boundary
62
5
39
2
10
18.660223
20
29.689144
11
20.632836
21
30.846119
0
LINE
8
boundary
62
5
39
2
10
20.632836
20
30.846119
11
23.569442
21
29.326560
0
LINE
8
boundary
62
5
39
2
10
23.569442
20
29.326560
11
24.097112
21
28.774093
0
LINE
8
boundary
62
5
39
2
10
24.097112
20
28.774093
11
24.337189
21
27.018738
0
LINE
8
boundary
62
5
39
2
10
24.337189
20
27.018738
11
24.384236
21
23.512472
0
LINE
8
boundary
62
5
39
2
10
24.384236
20
23.512472
11
24.739403
21
23.395370
0
LINE
8
boundary
62
5
39
2
10
24.739403
20
23.395370
11
25.359983
21
23.186854
0
LINE
8
boundary
62
5
39
2
10
25.359983
20
23.186854
11
25.321395
21
22.949747
0
LINE
8
boundary
62
5
39
2
10
25.321395
20
22.949747
11
25.307503
21
20.897238
0
LINE
8
boundary
62
5
39
2
10
25.307503
20
20.897238
11
22.476140
21
21.286894
0
LINE
8
boundary
62
5
39
2
10
22.476140
20
21.286894
11
22.336529
21
21.450733
0
LINE
8
boundary
62
5
39
2
10
22.336529
20
21.450733
11
20.194364
21
24.006969
0
LINE
8
boundary
62
5
39
2
10
20.194364
20
24.006969
11
20.199764
21
24.014500
0
LINE
8
boundary
62
5
39
2
10
20.199764
20
24.014500
11
22.436103
21
21.431723
0
LINE
8
boundary
62
5
39
2
10
22.436103
20
21.431723
11
22.504114
21
21.352824
0
LINE
8
boundary
62
5
39
2
10
22.504114
20
21.352824
11
23.822330
21
21.173175
0
LINE
8
boundary
62
5
39
2
10
23.822330
20
21.173175
11
23.983936
21
23.060730
0
LINE
8
boundary
62
5
39
2
10
23.983936
20
23.060730
11
24.130004
21
23.626978
0
LINE
8
boundary
62
5
39
2
10
24.130004
20
23.626978
11
23.721526
21
26.260204
0
LINE
8
boundary
62
5
39
2
10
23.721526
20
26.260204
11
23.708996
21
26.286704
0
LINE
8
boundary
62
5
39
2
10
23.708996
20
26.286704
11
17.789371
21
26.286704
0
LINE
8
boundary
62
5
39
2
10
17.789371
20
26.286704
11
17.789371
21
26.791304
0
LINE
8
boundary
62
5
39
2
10
17.789371
20
26.791304
11
23.622499
21
26.791304
0
LINE
8
boundary
62
5
39
2
10
23.622499
20
26.791304
11
23.635029
21
26.817804
0
LINE
8
boundary
62
5
39
2
10
23.635029
20
26.817804
11
23.434278
21
28.111933
0
LINE
8
boundary
62
5
39
2
10
23.434278
20
28.111933
11
20.802947
21
30.288232
0
LINE
8
boundary
62
5
39
2
10
20.802947
20
30.288232
11
18.636677
21
28.882485
0
LINE
8
boundary
62
5
39
2
10
18.636677
20
28.882485
11
18.162866
21
28.910780
0
LINE
8
boundary
62
5
39
2
10
18.162866
20
28.910780
11
15.716415
21
27.267586
0
LINE
8
boundary
62
5
39
2
10
15.716415
20
27.267586
11
13.086746
21
25.791812
0
LINE
8
boundary
62
5
39
2
10
13.086746
20
25.791812
11
11.744658
21
24.915025
0
LINE
8
boundary
62
5
39
2
10
11.744658
20
24.915025
11
10.702472
21
24.518033
0
LINE
8
boundary
62
5
39
2
10
10.702472
20
24.518033
11
9.296055
21
24.055098
0
LINE
8
boundary
62
5
39
2
10
9.296055
20
24.055098
11
7.071785
21
23.064610
0
LINE
8
boundary
62
5
39
2
10
7.071785
20
23.064610
11
6.451171
21
22.556536
0
LINE
8
boundary
62
5
39
2
10
6.451171
20
22.556536
11
4.908430
21
20.401884
0
LINE
8
boundary
62
5
39
2
10
4.908430
20
20.401884
11
3.681223
21
18.999467
0
LINE
8
boundary
62
5
39
2
10
3.681223
20
18.999467
11
2.039093
21
16.504207
0
LINE
8
boundary
62
5
39
2
10
2.039093
20
16.504207
11
1.679540
21
12.385948
0
LINE
8
boundary
62
5
39
2
10
1.679540
20
12.385948
11
1.809795
21
11.678633
0
LINE
8
boundary
62
5
39
2
10
1.809795
20
11.678633
11
1.512093
21
11.009652
0
LINE
8
boundary
62
5
39
2
10
1.512093
20
11.009652
11
2.346265
21
9.523197
0
LINE
8
boundary
62
5
39
2
10
2.346265
20
9.523197
11
3.332477
21
8.056629
0
LINE
8
boundary
62
5
39
2
10
3.332477
20
8.056629
11
3.966922
21
7.638548
0
LINE
8
boundary
62
5
39
2
10
3.966922
20
7.638548
11
6.675633
21
6.018382
0
LINE
8
boundary
62
5
39
2
10
6.675633
20
6.018382
11
6.675633
21
6.040288
0
LINE
8
boundary
62
5
39
2
10
6.675633
20
6.040288
11
7.073125
21
6.040288
0
LINE
8
boundary
62
5
39
2
10
7.073125
20
6.040288
11
8.340126
21
6.673245
0
LINE
8
boundary
62
5
39
2
10
8.340126
20
6.673245
11
12.874018
21
8.938966
0
LINE
8
boundary
62
5
39
2
10
12.874018
20
8.938966
11
12.871834
21
8.926819
0
LINE
8
boundary
62
5
39
2
10
12.871834
20
8.926819
11
12.871253
21
8.913114
0
LINE
8
boundary
62
5
39
2
10
12.871253
20
8.913114
11
12.870578
21
8.908877
0
LINE
8
boundary
62
5
39
2
10
12.870578
20
8.908877
11
12.359658
21
5.509188
0
LINE
8
boundary
62
5
39
2
10
12.359658
20
5.509188
11
12.349606
21
5.442300
0
LINE
8
boundary
62
5
39
2
10
12.349606
20
5.442300
11
12.225374
21
4.619830
0
LINE
8
boundary
62
5
39
2
10
12.225374
20
4.619830
11
12.216684
21
4.562298
0
LINE
8
boundary
62
5
39
2
10
12.216684
20
4.562298
11
12.075674
21
3.677223
0
LINE
8
boundary
62
5
39
2
10
12.075674
20
3.677223
11
13.895208
21
2.855885
0
LINE
8
boundary
62
5
39
2
10
13.895208
20
2.855885
11
18.161807
21
0.969998
0
LINE
8
boundary
62
5
39
2
10
18.161807
20
0.969998
11
18.555782
21
1.493607
0
LINE
8
boundary
62
5
39
2
10
18.555782
20
1.493607
11
18.555978
21
1.493991
0
LINE
8
boundary
62
5
39
2
10
18.555978
20
1.493991
11
19.355415
21
2.657324
0
LINE
8
boundary
62
5
39
2
10
19.355415
20
2.657324
11
19.357636
21
2.664418
0
LINE
8
boundary
62
5
39
2
10
19.357636
20
2.664418
11
19.397133
21
2.713314
0
LINE
8
boundary
62
5
39
2
10
19.397133
20
2.713314
11
19.358654
21
2.652536
0
LINE
8
boundary
62
5
39
2
10
19.358654
20
2.652536
11
18.685791
21
1.568984
0
LINE
8
boundary
62
5
39
2
10
18.685791
20
1.568984
11
18.176275
21
0.891145
0
LINE
8
boundary
62
5
39
2
10
18.176275
20
0.891145
11
14.049535
21
2.682628
0
LINE
8
boundary
62
5
39
2
10
14.049535
20
2.682628
11
12.000525
21
3.613135
0
LINE
8
boundary
62
5
39
2
10
12.000525
20
3.613135
11
12.296159
21
5.553590
0
LINE
8
boundary
62
5
39
2
10
12.296159
20
5.553590
11
12.296159
21
6.040288
0
LINE
8
boundary
62
5
39
2
10
12.296159
20
6.040288
11
12.308689
21
6.066788
0
LINE
8
boundary
62
5
39
2
10
12.308689
20
6.066788
11
12.359659
21
6.066788
0
LINE
8
boundary
62
5
39
2
10
12.359659
20
6.066788
11
12.359659
21
5.947124
0
LINE
8
boundary
62
5
39
2
10
12.359659
20
5.947124
11
12.363697
21
5.971952
0
LINE
8
boundary
62
5
39
2
10
12.363697
20
5.971952
11
12.402666
21
6.201969
0
LINE
8
boundary
62
5
39
2
10
12.402666
20
6.201969
11
12.484338
21
6.701912
0
LINE
8
boundary
62
5
39
2
10
12.484338
20
6.701912
11
12.496970
21
6.779240
0
LINE
8
boundary
62
5
39
2
10
12.496970
20
6.779240
11
12.791740
21
8.504931
0
LINE
8
boundary
62
5
39
2
10
12.791740
20
8.504931
11
12.479569
21
7.054512
0
LINE
8
boundary
62
5
39
2
10
12.479569
20
7.054512
11
11.799730
21
3.452530
0
LINE
8
boundary
62
5
39
2
10
11.799730
20
3.452530
11
14.185800
21
2.352759
0
LINE
8
boundary
62
5
39
2
10
14.185800
20
2.352759
11
18.230036
21
0.686750
0
LINE
8
boundary
62
5
39
2
10
18.230036
20
0.686750
11
18.973052
21
1.680076
0
LINE
8
boundary
62
5
39
2
10
18.973052
20
1.680076
11
19.704482
21
3.084518
0
LINE
8
boundary
62
5
39
2
10
19.704482
20
3.084518
11
19.802322
21
3.272871
0
LINE
8
boundary
62
5
39
2
10
19.802322
20
3.272871
11
19.949714
21
3.467107
0
LINE
8
boundary
62
5
39
2
10
19.949714
20
3.467107
11
19.889702
21
3.435300
0
LINE
8
boundary
62
5
39
2
10
19.889702
20
3.435300
11
19.923675
21
3.504096
0
LINE
8
boundary
62
5
39
2
10
19.923675
20
3.504096
11
19.931675
21
3.516755
0
LINE
8
boundary
62
5
39
2
10
19.931675
20
3.516755
11
19.940328
21
3.529990
0
LINE
8
boundary
62
5
39
2
10
19.940328
20
3.529990
11
19.935464
21
3.528740
0
LINE
8
boundary
62
5
39
2
10
19.935464
20
3.528740
11
19.938523
21
3.534223
0
LINE
8
boundary
62
5
39
2
10
19.938523
20
3.534223
11
19.941902
21
3.540748
0
LINE
8
boundary
62
5
39
2
10
19.941902
20
3.540748
11
20.027564
21
3.703117
0
LINE
8
boundary
62
5
39
2
10
20.027564
20
3.703117
11
19.556635
21
3.751416
0
LINE
8
boundary
62
5
39
2
10
19.556635
20
3.751416
11
18.932942
21
3.874822
0
LINE
8
boundary
62
5
39
2
10
18.932942
20
3.874822
11
18.777635
21
3.622385
0
LINE
8
boundary
62
5
39
2
10
18.777635
20
3.622385
11
18.179495
21
2.321376
0
LINE
8
boundary
62
5
39
2
10
18.179495
20
2.321376
11
16.887565
21
3.113001
0
LINE
8
boundary
62
5
39
2
10
16.887565
20
3.113001
11
14.387200
21
4.349778
0
LINE
8
boundary
62
5
39
2
10
14.387200
20
4.349778
11
14.840549
21
5.509188
0
LINE
8
boundary
62
5
39
2
10
14.840549
20
5.509188
11
14.828019
21
5.535688
0
LINE
8
boundary
62
5
39
2
10
14.828019
20
5.535688
11
14.636145
21
5.535688
0
LINE
8
boundary
62
5
39
2
10
14.636145
20
5.535688
11
14.564295
21
5.320626
0
LINE
8
boundary
62
5
39
2
10
14.564295
20
5.320626
11
14.203387
21
4.334138
0
LINE
8
boundary
62
5
39
2
10
14.203387
20
4.334138
11
17.039777
21
2.823909
0
LINE
8
boundary
62
5
39
2
10
17.039777
20
2.823909
11
18.231367
21
2.114359
0
LINE
8
boundary
62
5
39
2
10
18.231367
20
2.114359
11
18.529353
21
2.567940
0
LINE
8
boundary
62
5
39
2
10
18.529353
20
2.567940
11
19.162164
21
3.554287
0
LINE
8
boundary
62
5
39
2
10
19.162164
20
3.554287
11
19.560152
21
3.513458
0
LINE
8
boundary
62
5
39
2
10
19.560152
20
3.513458
11
19.654828
21
3.528590
0
LINE
8
boundary
62
5
39
2
10
19.654828
20
3.528590
11
19.866015
21
3.562341
0
LINE
8
boundary
62
5
39
2
10
19.866015
20
3.562341
11
19.927250
21
3.571774
0
LINE
8
boundary
62
5
39
2
10
19.927250
20
3.571774
11
19.929192
21
3.572396
0
LINE
8
boundary
62
5
39
2
10
19.929192
20
3.572396
11
19.928768
21
3.571468
0
LINE
8
boundary
62
5
39
2
10
19.928768
20
3.571468
11
19.891632
21
3.506318
0
LINE
8
boundary
62
5
39
2
10
19.891632
20
3.506318
11
19.761147
21
3.466702
0
LINE
8
boundary
62
5
39
2
10
19.761147
20
3.466702
11
19.614141
21
3.421935
0
LINE
8
boundary
62
5
39
2
10
19.614141
20
3.421935
11
19.280683
21
3.414484
0
LINE
8
boundary
62
5
39
2
10
19.280683
20
3.414484
11
18.536312
21
2.414805
0
LINE
8
boundary
62
5
39
2
10
18.536312
20
2.414805
11
18.253198
21
2.023513
0
LINE
8
boundary
62
5
39
2
10
18.253198
20
2.023513
11
17.140614
21
2.681076
0
LINE
8
boundary
62
5
39
2
10
17.140614
20
2.681076
11
14.131049
21
4.326559
0
LINE
8
boundary
62
5
39
2
10
14.131049
20
4.326559
11
14.355527
21
4.955678
0
LINE
8
boundary
62
5
39
2
10
14.355527
20
4.955678
11
14.546544
21
5.535688
0
LINE
8
boundary
62
5
39
2
10
14.546544
20
5.535688
11
13.527990
21
5.535688
0
LINE
8
boundary
62
5
39
2
10
13.527990
20
5.535688
11
13.527990
21
6.040288
0
LINE
8
boundary
62
5
39
2
10
13.527990
20
6.040288
11
14.708924
21
6.040288
0
LINE
8
boundary
62
5
39
2
10
14.708924
20
6.040288
11
14.721454
21
6.066787
0
LINE
8
boundary
62
5
39
2
10
14.721454
20
6.066787
11
16.419470
21
11.222674
0
LINE
8
boundary
62
5
39
2
10
16.419470
20
11.222674
11
14.727512
21
13.952942
0
LINE
8
boundary
62
5
39
2
10
14.727512
20
13.952942
11
13.464615
21
14.233002
0
LINE
8
boundary
62
5
39
2
10
13.464615
20
14.233002
11
13.196666
21
14.260535
0
LINE
8
boundary
62
5
39
2
10
13.196666
20
14.260535
11
13.148614
21
14.264896
0
LINE
8
boundary
62
5
39
2
10
13.148614
20
14.264896
11
13.053063
21
14.289633
0
LINE
8
boundary
62
5
39
2
10
13.053063
20
14.289633
11
13.012499
21
14.306495
0
LINE
8
boundary
62
5
39
2
10
13.012499
20
14.306495
11
13.005532
21
14.333579
0
LINE
8
boundary
62
5
39
2
10
13.005532
20
14.333579
11
13.041380
21
14.329409
0
LINE
8
boundary
62
5
39
2
10
13.041380
20
14.329409
11
13.059033
21
14.326433
0
LINE
8
boundary
62
5
39
2
10
13.059033
20
14.326433
11
13.058397
21
14.333934
0
LINE
8
boundary
62
5
39
2
10
13.058397
20
14.333934
11
13.024145
21
14.341124
0
LINE
8
boundary
62
5
39
2
10
13.024145
20
14.341124
11
13.057366
21
14.346450
0
LINE
8
boundary
62
5
39
2
10
13.057366
20
14.346450
11
13.031337
21
14.473204
0
LINE
8
boundary
62
5
39
2
10
13.031337
20
14.473204
11
13.002722
21
14.603758
0
LINE
8
boundary
62
5
39
2
10
13.002722
20
14.603758
11
12.982340
21
14.696742
0
LINE
8
boundary
62
5
39
2
10
12.982340
20
14.696742
11
12.939628
21
14.912140
0
LINE
8
boundary
62
5
39
2
10
12.939628
20
14.912140
11
12.907321
21
14.894862
0
LINE
8
boundary
62
5
39
2
10
12.907321
20
14.894862
11
12.877254
21
14.879143
0
LINE
8
boundary
62
5
39
2
10
12.877254
20
14.879143
11
12.858521
21
14.936654
0
LINE
8
boundary
62
5
39
2
10
12.858521
20
14.936654
11
12.857933
21
14.936752
0
LINE
8
boundary
62
5
39
2
10
12.857933
20
14.936752
11
12.854235
21
14.945177
0
LINE
8
boundary
62
5
39
2
10
12.854235
20
14.945177
11
13.232451
21
15.507822
0
LINE
8
boundary
62
5
39
2
10
13.232451
20
15.507822
11
13.318220
21
15.642289
0
LINE
8
boundary
62
5
39
2
10
13.318220
20
15.642289
11
13.427387
21
15.815035
0
LINE
8
boundary
62
5
39
2
10
13.427387
20
15.815035
11
13.466793
21
15.873239
0
LINE
8
boundary
62
5
39
2
10
13.466793
20
15.873239
11
13.474220
21
15.884696
0
LINE
8
boundary
62
5
39
2
10
13.474220
20
15.884696
11
13.461690
21
15.911196
0
LINE
8
boundary
62
5
39
2
10
13.461690
20
15.911196
11
12.886512
21
15.911196
0
LINE
8
boundary
62
5
39
2
10
12.886512
20
15.911196
11
12.550040
21
15.298345
0
LINE
8
boundary
62
5
39
2
10
12.550040
20
15.298345
11
12.688357
21
15.136554
0
LINE
8
boundary
62
5
39
2
10
12.688357
20
15.136554
11
12.696677
21
15.126330
0
LINE
8
boundary
62
5
39
2
10
12.696677
20
15.126330
11
12.679809
21
15.097619
0
LINE
8
boundary
62
5
39
2
10
12.679809
20
15.097619
11
12.710371
21
15.082435
0
LINE
8
boundary
62
5
39
2
10
12.710371
20
15.082435
11
12.708690
21
15.046871
0
LINE
8
boundary
62
5
39
2
10
12.708690
20
15.046871
11
12.713481
21
15.033787
0
LINE
8
boundary
62
5
39
2
10
12.713481
20
15.033787
11
12.720782
21
15.037112
0
LINE
8
boundary
62
5
39
2
10
12.720782
20
15.037112
11
12.735081
21
15.072735
0
LINE
8
boundary
62
5
39
2
10
12.735081
20
15.072735
11
12.737838
21
15.071381
0
LINE
8
boundary
62
5
39
2
10
12.737838
20
15.071381
11
12.830894
21
15.008513
0
LINE
8
boundary
62
5
39
2
10
12.830894
20
15.008513
11
12.837208
21
14.982034
0
LINE
8
boundary
62
5
39
2
10
12.837208
20
14.982034
11
12.743760
21
15.015419
0
LINE
8
boundary
62
5
39
2
10
12.743760
20
15.015419
11
12.743598
21
15.015477
0
LINE
8
boundary
62
5
39
2
10
12.743598
20
15.015477
11
12.718724
21
15.019029
0
LINE
8
boundary
62
5
39
2
10
12.718724
20
15.019029
11
12.849307
21
14.554606
0
LINE
8
boundary
62
5
39
2
10
12.849307
20
14.554606
11
12.886502
21
14.427507
0
LINE
8
boundary
62
5
39
2
10
12.886502
20
14.427507
11
12.899253
21
14.383439
0
LINE
8
boundary
62
5
39
2
10
12.899253
20
14.383439
11
12.906339
21
14.381965
0
LINE
8
boundary
62
5
39
2
10
12.906339
20
14.381965
11
12.906811
21
14.381616
0
LINE
8
boundary
62
5
39
2
10
12.906811
20
14.381616
11
12.907004
21
14.381577
0
LINE
8
boundary
62
5
39
2
10
12.907004
20
14.381577
11
12.913946
21
14.379226
0
LINE
8
boundary
62
5
39
2
10
12.913946
20
14.379226
11
12.915659
21
14.378727
0
LINE
8
boundary
62
5
39
2
10
12.915659
20
14.378727
11
12.917914
21
14.378069
0
LINE
8
boundary
62
5
39
2
10
12.917914
20
14.378069
11
12.931261
21
14.370773
0
LINE
8
boundary
62
5
39
2
10
12.931261
20
14.370773
11
12.913029
21
14.374513
0
LINE
8
boundary
62
5
39
2
10
12.913029
20
14.374513
11
12.912134
21
14.375777
0
LINE
8
boundary
62
5
39
2
10
12.912134
20
14.375777
11
12.896956
21
14.380346
0
LINE
8
boundary
62
5
39
2
10
12.896956
20
14.380346
11
12.807455
21
14.379897
0
LINE
8
boundary
62
5
39
2
10
12.807455
20
14.379897
11
12.739006
21
14.600355
0
LINE
8
boundary
62
5
39
2
10
12.739006
20
14.600355
11
12.623581
21
15.029665
0
LINE
8
boundary
62
5
39
2
10
12.623581
20
15.029665
11
12.589413
21
15.176049
0
LINE
8
boundary
62
5
39
2
10
12.589413
20
15.176049
11
12.427294
21
15.468885
0
LINE
8
boundary
62
5
39
2
10
12.427294
20
15.468885
11
12.657903
21
15.911196
0
LINE
8
boundary
62
5
39
2
10
12.657903
20
15.911196
11
8.623866
21
15.911196
0
LINE
8
boundary
62
5
39
2
10
8.623866
20
15.911196
11
8.623866
21
16.415796
0
LINE
8
boundary
62
5
39
2
10
8.623866
20
16.415796
11
12.920987
21
16.415796
0
LINE
8
boundary
62
5
39
2
10
12.920987
20
16.415796
11
13.035832
21
16.636069
0
LINE
8
boundary
62
5
39
2
10
13.035832
20
16.636069
11
14.708936
21
17.161645
0
LINE
8
boundary
62
5
39
2
10
14.708936
20
17.161645
11
14.950602
21
17.582728
0
LINE
8
boundary
62
5
39
2
10
14.950602
20
17.582728
11
15.782572
21
19.022142
0
LINE
8
boundary
62
5
39
2
10
15.782572
20
19.022142
11
16.142630
21
20.302859
0
LINE
8
boundary
62
5
39
2
10
16.142630
20
20.302859
11
16.955286
21
21.131058
0
LINE
8
boundary
62
5
39
2
10
16.955286
20
21.131058
11
19.198829
21
24.102456
0
LINE
8
boundary
62
5
39
2
10
19.198829
20
24.102456
11
19.650955
21
24.697633
0
LINE
8
boundary
62
5
39
2
10
19.650955
20
24.697633
11
19.731295
21
24.603582
0
LINE
8
boundary
62
5
39
2
10
19.731295
20
24.603582
11
19.748597
21
24.584113
0
LINE
8
boundary
62
5
39
2
10
19.748597
20
24.584113
11
19.745715
21
24.577902
0
LINE
8
boundary
62
5
39
2
10
19.745715
20
24.577902
11
19.724510
21
24.570088
0
LINE
8
boundary
62
5
39
2
10
19.724510
20
24.570088
11
19.770997
21
24.519842
0
LINE
8
boundary
62
5
39
2
10
19.770997
20
24.519842
11
19.764669
21
24.517912
0
LINE
8
boundary
62
5
39
2
10
19.764669
20
24.517912
11
19.611872
21
24.286190
0
LINE
8
boundary
62
5
39
2
10
19.611872
20
24.286190
11
17.395479
21
21.039282
0
LINE
8
boundary
62
5
39
2
10
17.395479
20
21.039282
11
16.416013
21
20.043715
0
LINE
8
boundary
62
5
39
2
10
16.416013
20
20.043715
11
16.092897
21
18.904813
0
LINE
8
boundary
62
5
39
2
10
16.092897
20
18.904813
11
15.174580
21
17.329073
0
LINE
8
boundary
62
5
39
2
10
15.174580
20
17.329073
11
14.958267
21
16.989825
0
LINE
8
boundary
62
5
39
2
10
14.958267
20
16.989825
11
13.197213
21
16.477108
0
LINE
8
boundary
62
5
39
2
10
13.197213
20
16.477108
11
13.163551
21
16.415796
0
LINE
8
boundary
62
5
39
2
10
13.163551
20
16.415796
11
15.235012
21
16.415796
0
LINE
8
boundary
62
5
39
2
10
15.235012
20
16.415796
11
15.350214
21
16.442296
0
LINE
8
boundary
62
5
39
2
10
15.350214
20
16.442296
11
15.590375
21
16.497540
0
LINE
8
boundary
62
5
39
2
10
15.590375
20
16.497540
11
15.730304
21
16.653010
0
LINE
8
boundary
62
5
39
2
10
15.730304
20
16.653010
11
16.871610
21
18.566368
0
LINE
8
boundary
62
5
39
2
10
16.871610
20
18.566368
11
17.111233
21
19.381426
0
LINE
8
boundary
62
5
39
2
10
17.111233
20
19.381426
11
18.483766
21
20.768568
0
LINE
8
boundary
62
5
39
2
10
18.483766
20
20.768568
11
19.792796
21
23.449012
0
LINE
8
boundary
62
5
39
2
10
19.792796
20
23.449012
11
20.111793
21
23.894527
0
LINE
8
boundary
62
5
39
2
10
20.111793
20
23.894527
11
22.111503
21
21.426146
0
LINE
8
boundary
62
5
39
2
10
22.111503
20
21.426146
11
22.383971
21
21.089929
0
LINE
8
boundary
62
5
39
2
10
22.383971
20
21.089929
11
28.650700
21
20.183355
0
LINE
8
boundary
62
5
39
2
10
28.650700
20
20.183355
11
28.942425
21
21.667587
0
LINE
8
boundary
62
5
39
2
10
28.942425
20
21.667587
11
28.759078
21
22.318503
0
LINE
8
boundary
62
5
39
2
10
28.759078
20
22.318503
11
25.634489
21
23.347660
0
LINE
8
boundary
62
5
39
2
10
25.634489
20
23.347660
11
24.562326
21
23.674411
0
LINE
8
boundary
62
5
39
2
10
24.562326
20
23.674411
11
24.570944
21
26.260204
0
LINE
8
boundary
62
5
39
2
10
24.570944
20
26.260204
11
24.558414
21
26.286704
0
LINE
8
boundary
62
5
39
2
10
24.558414
20
26.286704
11
24.469177
21
26.286704
0
LINE
8
boundary
62
5
39
2
10
24.469177
20
26.286704
11
24.469177
21
26.791304
0
LINE
8
boundary
62
5
39
2
10
24.469177
20
26.791304
11
24.560272
21
26.791304
0
LINE
8
boundary
62
5
39
2
10
24.560272
20
26.791304
11
24.572802
21
26.817804
0
LINE
8
boundary
62
5
39
2
10
24.572802
20
26.817804
11
24.579182
21
28.732200
0
LINE
8
annotation
62
1
39
211
10
6.565176
20
5.745072
11
6.565176
21
5.830903
0
LINE
8
annotation
62
1
39
211
10
6.565176
20
5.830903
11
6.546095
21
5.811817
0
LINE
8
annotation
62
1
39
211
10
12.252554
20
5.774420
11
12.252554
21
5.801555
0
LINE
8
annotation
62
1
39
211
10
12.252554
20
5.801555
11
12.246522
21
5.795521
0
LINE
8
annotation
62
1
39
211
10
14.756098
20
5.754889
11
14.756098
21
5.821086
0
LINE
8
annotation
62
1
39
211
10
14.756098
20
5.821086
11
14.741381
21
5.806366
0
LINE
8
annotation
62
1
39
211
10
12.700609
20
5.430338
11
12.700609
21
6.145637
0
LINE
8
annotation
62
1
39
211
10
12.700609
20
6.145637
11
12.541589
21
5.986572
0
LINE
8
annotation
62
1
39
211
10
7.739368
20
15.739489
11
7.362751
21
15.739489
0
LINE
8
annotation
62
1
39
211
10
7.362751
20
15.739489
11
7.710757
21
16.299735
0
LINE
8
annotation
62
1
39
211
10
7.710757
20
16.299735
11
7.710757
21
16.299735
0
LINE
8
annotation
62
1
39
211
10
7.710757
20
16.299735
11
7.711173
21
16.300249
0
LINE
8
annotation
62
1
39
211
10
7.711173
20
16.300249
11
7.711572
21
16.300769
0
LINE
8
annotation
62
1
39
211
10
7.711572
20
16.300769
11
7.711957
21
16.301296
0
LINE
8
annotation
62
1
39
211
10
7.711957
20
16.301296
11
7.712329
21
16.301838
0
LINE
8
annotation
62
1
39
211
10
7.712329
20
16.301838
11
7.712693
21
16.302396
0
LINE
8
annotation
62
1
39
211
10
7.712693
20
16.302396
11
7.713050
21
16.302977
0
LINE
8
annotation
62
1
39
211
10
7.713050
20
16.302977
11
7.713403
21
16.303583
0
LINE
8
annotation
62
1
39
211
10
7.713403
20
16.303583
11
7.713755
21
16.304221
0
LINE
8
annotation
62
1
39
211
10
7.713755
20
16.304221
11
7.714108
21
16.304893
0
LINE
8
annotation
62
1
39
211
10
7.714108
20
16.304893
11
7.714108
21
16.304893
0
LINE
8
annotation
62
1
39
211
10
7.714108
20
16.304893
11
7.728477
21
16.335745
0
LINE
8
annotation
62
1
39
211
10
7.728477
20
16.335745
11
7.736871
21
16.367725
0
LINE
8
annotation
62
1
39
211
10
7.736871
20
16.367725
11
7.739496
21
16.400112
0
LINE
8
annotation
62
1
39
211
10
7.739496
20
16.400112
11
7.736557
21
16.432182
0
LINE
8
annotation
62
1
39
211
10
7.736557
20
16.432182
11
7.728261
21
16.463213
0
LINE
8
annotation
62
1
39
211
10
7.728261
20
16.463213
11
7.714813
21
16.492483
0
LINE
8
annotation
62
1
39
211
10
7.714813
20
16.492483
11
7.696418
21
16.519268
0
LINE
8
annotation
62
1
39
211
10
7.696418
20
16.519268
11
7.673283
21
16.542846
0
LINE
8
annotation
62
1
39
211
10
7.673283
20
16.542846
11
7.645612
21
16.562494
0
LINE
8
annotation
62
1
39
211
10
7.645612
20
16.562494
11
7.645612
21
16.562494
0
LINE
8
annotation
62
1
39
211
10
7.645612
20
16.562494
11
7.614675
21
16.576659
0
LINE
8
annotation
62
1
39
211
10
7.614675
20
16.576659
11
7.582645
21
16.584924
0
LINE
8
annotation
62
1
39
211
10
7.582645
20
16.584924
11
7.550240
21
16.587475
0
LINE
8
annotation
62
1
39
211
10
7.550240
20
16.587475
11
7.518175
21
16.584498
0
LINE
8
annotation
62
1
39
211
10
7.518175
20
16.584498
11
7.487165
21
16.576178
0
LINE
8
annotation
62
1
39
211
10
7.487165
20
16.576178
11
7.457928
21
16.562703
0
LINE
8
annotation
62
1
39
211
10
7.457928
20
16.562703
11
7.431179
21
16.544258
0
LINE
8
annotation
62
1
39
211
10
7.431179
20
16.544258
11
7.407635
21
16.521029
0
LINE
8
annotation
62
1
39
211
10
7.407635
20
16.521029
11
7.388011
21
16.493202
0
LINE
8
annotation
62
1
39
211
10
7.388011
20
16.493202
11
7.363283
21
16.445765
0
LINE
8
annotation
62
1
39
211
10
1.254242
20
16.068805
11
1.170134
21
16.068805
0
LINE
8
annotation
62
1
39
211
10
1.170134
20
16.068805
11
1.247853
21
16.193921
0
LINE
8
annotation
62
1
39
211
10
1.247853
20
16.193921
11
1.247853
21
16.193921
0
LINE
8
annotation
62
1
39
211
10
1.247853
20
16.193921
11
1.247945
21
16.194036
0
LINE
8
annotation
62
1
39
211
10
1.247945
20
16.194036
11
1.248035
21
16.194152
0
LINE
8
annotation
62
1
39
211
10
1.248035
20
16.194152
11
1.248120
21
16.194270
0
LINE
8
annotation
62
1
39
211
10
1.248120
20
16.194270
11
1.248204
21
16.194391
0
LINE
8
annotation
62
1
39
211
10
1.248204
20
16.194391
11
1.248285
21
16.194515
0
LINE
8
annotation
62
1
39
211
10
1.248285
20
16.194515
11
1.248365
21
16.194645
0
LINE
8
annotation
62
1
39
211
10
1.248365
20
16.194645
11
1.248443
21
16.194781
0
LINE
8
annotation
62
1
39
211
10
1.248443
20
16.194781
11
1.248522
21
16.194923
0
LINE
8
annotation
62
1
39
211
10
1.248522
20
16.194923
11
1.248601
21
16.195073
0
LINE
8
annotation
62
1
39
211
10
1.248601
20
16.195073
11
1.248601
21
16.195073
0
LINE
8
annotation
62
1
39
211
10
1.248601
20
16.195073
11
1.251810
21
16.201963
0
LINE
8
annotation
62
1
39
211
10
1.251810
20
16.201963
11
1.253684
21
16.209105
0
LINE
8
annotation
62
1
39
211
10
1.253684
20
16.209105
11
1.254271
21
16.216338
0
LINE
8
annotation
62
1
39
211
10
1.254271
20
16.216338
11
1.253614
21
16.223500
0
LINE
8
annotation
62
1
39
211
10
1.253614
20
16.223500
11
1.251762
21
16.230430
0
LINE
8
annotation
62
1
39
211
10
1.251762
20
16.230430
11
1.248758
21
16.236966
0
LINE
8
annotation
62
1
39
211
10
1.248758
20
16.236966
11
1.244650
21
16.242948
0
LINE
8
annotation
62
1
39
211
10
1.244650
20
16.242948
11
1.239484
21
16.248214
0
LINE
8
annotation
62
1
39
211
10
1.239484
20
16.248214
11
1.233304
21
16.252602
0
LINE
8
annotation
62
1
39
211
10
1.233304
20
16.252602
11
1.233304
21
16.252602
0
LINE
8
annotation
62
1
39
211
10
1.233304
20
16.252602
11
1.226395
21
16.255765
0
LINE
8
annotation
62
1
39
211
10
1.226395
20
16.255765
11
1.219242
21
16.257611
0
LINE
8
annotation
62
1
39
211
10
1.219242
20
16.257611
11
1.212005
21
16.258180
0
LINE
8
annotation
62
1
39
211
10
1.212005
20
16.258180
11
1.204844
21
16.257515
0
LINE
8
annotation
62
1
39
211
10
1.204844
20
16.257515
11
1.197919
21
16.255657
0
LINE
8
annotation
62
1
39
211
10
1.197919
20
16.255657
11
1.191390
21
16.252648
0
LINE
8
annotation
62
1
39
211
10
1.191390
20
16.252648
11
1.185416
21
16.248529
0
LINE
8
annotation
62
1
39
211
10
1.185416
20
16.248529
11
1.180158
21
16.243341
0
LINE
8
annotation
62
1
39
211
10
1.180158
20
16.243341
11
1.175776
21
16.237127
0
LINE
8
annotation
62
1
39
211
10
1.175776
20
16.237127
11
1.170253
21
16.226533
0
LINE
8
annotation
62
1
39
211
10
16.528256
20
26.115030
11
16.716564
21
26.115030
0
LINE
8
annotation
62
1
39
211
10
16.716564
20
26.115030
11
16.716564
21
26.115030
0
LINE
8
annotation
62
1
39
211
10
16.716564
20
26.115030
11
16.750432
21
26.118068
0
LINE
8
annotation
62
1
39
211
10
16.750432
20
26.118068
11
16.782300
21
26.126825
0
LINE
8
annotation
62
1
39
211
10
16.782300
20
26.126825
11
16.811639
21
26.140761
0
LINE
8
annotation
62
1
39
211
10
16.811639
20
26.140761
11
16.837919
21
26.159341
0
LINE
8
annotation
62
1
39
211
10
16.837919
20
26.159341
11
16.860609
21
26.182026
0
LINE
8
annotation
62
1
39
211
10
16.860609
20
26.182026
11
16.879179
21
26.208279
0
LINE
8
annotation
62
1
39
211
10
16.879179
20
26.208279
11
16.893100
21
26.237563
0
LINE
8
annotation
62
1
39
211
10
16.893100
20
26.237563
11
16.901841
21
26.269340
0
LINE
8
annotation
62
1
39
211
10
16.901841
20
26.269340
11
16.904873
21
26.303073
0
LINE
8
annotation
62
1
39
211
10
16.904873
20
26.303073
11
16.904873
21
26.397360
0
LINE
8
annotation
62
1
39
211
10
16.904873
20
26.397360
11
16.904873
21
26.397360
0
LINE
8
annotation
62
1
39
211
10
16.904873
20
26.397360
11
16.901841
21
26.431079
0
LINE
8
annotation
62
1
39
211
10
16.901841
20
26.431079
11
16.893100
21
26.462848
0
LINE
8
annotation
62
1
39
211
10
16.893100
20
26.462848
11
16.879179
21
26.492130
0
LINE
8
annotation
62
1
39
211
10
16.879179
20
26.492130
11
16.860609
21
26.518385
0
LINE
8
annotation
62
1
39
211
10
16.860609
20
26.518385
11
16.837919
21
26.541075
0
LINE
8
annotation
62
1
39
211
10
16.837919
20
26.541075
11
16.811639
21
26.559660
0
LINE
8
annotation
62
1
39
211
10
16.811639
20
26.559660
11
16.782300
21
26.573602
0
LINE
8
annotation
62
1
39
211
10
16.782300
20
26.573602
11
16.750432
21
26.582363
0
LINE
8
annotation
62
1
39
211
10
16.750432
20
26.582363
11
16.716564
21
26.585403
0
LINE
8
annotation
62
1
39
211
10
16.716564
20
26.585403
11
16.622277
21
26.585403
0
LINE
8
annotation
62
1
39
211
10
16.622277
20
26.585403
11
16.716564
21
26.585403
0
LINE
8
annotation
62
1
39
211
10
16.716564
20
26.585403
11
16.716564
21
26.585403
0
LINE
8
annotation
62
1
39
211
10
16.716564
20
26.585403
11
16.750432
21
26.588443
0
LINE
8
annotation
62
1
39
211
10
16.750432
20
26.588443
11
16.782300
21
26.597209
0
LINE
8
annotation
62
1
39
211
10
16.782300
20
26.597209
11
16.811639
21
26.611165
0
LINE
8
annotation
62
1
39
211
10
16.811639
20
26.611165
11
16.837919
21
26.629778
0
LINE
8
annotation
62
1
39
211
10
16.837919
20
26.629778
11
16.860609
21
26.652512
0
LINE
8
annotation
62
1
39
211
10
16.860609
20
26.652512
11
16.879179
21
26.678833
0
LINE
8
annotation
62
1
39
211
10
16.879179
20
26.678833
11
16.893100
21
26.708207
0
LINE
8
annotation
62
1
39
211
10
16.893100
20
26.708207
11
16.901841
21
26.740100
0
LINE
8
annotation
62
1
39
211
10
16.901841
20
26.740100
11
16.904873
21
26.773977
0
LINE
8
annotation
62
1
39
211
10
16.904873
20
26.773977
11
16.904873
21
26.773977
0
LINE
8
annotation
62
1
39
211
10
16.904873
20
26.773977
11
16.901841
21
26.807696
0
LINE
8
annotation
62
1
39
211
10
16.901841
20
26.807696
11
16.893100
21
26.839465
0
LINE
8
annotation
62
1
39
211
10
16.893100
20
26.839465
11
16.879179
21
26.868747
0
LINE
8
annotation
62
1
39
211
10
16.879179
20
26.868747
11
16.860609
21
26.895002
0
LINE
8
annotation
62
1
39
211
10
16.860609
20
26.895002
11
16.837919
21
26.917692
0
LINE
8
annotation
62
1
39
211
10
16.837919
20
26.917692
11
16.811639
21
26.936277
0
LINE
8
annotation
62
1
39
211
10
16.811639
20
26.936277
11
16.782300
21
26.950219
0
LINE
8
annotation
62
1
39
211
10
16.782300
20
26.950219
11
16.750432
21
26.958980
0
LINE
8
annotation
62
1
39
211
10
16.750432
20
26.958980
11
16.716564
21
26.962020
0
LINE
8
annotation
62
1
39
211
10
16.716564
20
26.962020
11
16.528256
21
26.962020
0
LINE
8
annotation
62
1
39
211
10
24.350866
20
26.715137
11
24.366796
21
26.715137
0
LINE
8
annotation
62
1
39
211
10
24.366796
20
26.715137
11
24.366796
21
26.715137
0
LINE
8
annotation
62
1
39
211
10
24.366796
20
26.715137
11
24.369661
21
26.715394
0
LINE
8
annotation
62
1
39
211
10
24.369661
20
26.715394
11
24.372357
21
26.716135
0
LINE
8
annotation
62
1
39
211
10
24.372357
20
26.716135
11
24.374839
21
26.717314
0
LINE
8
annotation
62
1
39
211
10
24.374839
20
26.717314
11
24.377062
21
26.718886
0
LINE
8
annotation
62
1
39
211
10
24.377062
20
26.718886
11
24.378982
21
26.720805
0
LINE
8
annotation
62
1
39
211
10
24.378982
20
26.720805
11
24.380553
21
26.723026
0
LINE
8
annotation
62
1
39
211
10
24.380553
20
26.723026
11
24.381730
21
26.725503
0
LINE
8
annotation
62
1
39
211
10
24.381730
20
26.725503
11
24.382470
21
26.728191
0
LINE
8
annotation
62
1
39
211
10
24.382470
20
26.728191
11
24.382726
21
26.731045
0
LINE
8
annotation
62
1
39
211
10
24.382726
20
26.731045
11
24.382726
21
26.739021
0
LINE
8
annotation
62
1
39
211
10
24.382726
20
26.739021
11
24.382726
21
26.739021
0
LINE
8
annotation
62
1
39
211
10
24.382726
20
26.739021
11
24.382470
21
26.741874
0
LINE
8
annotation
62
1
39
211
10
24.382470
20
26.741874
11
24.381730
21
26.744561
0
LINE
8
annotation
62
1
39
211
10
24.381730
20
26.744561
11
24.380553
21
26.747038
0
LINE
8
annotation
62
1
39
211
10
24.380553
20
26.747038
11
24.378982
21
26.749259
0
LINE
8
annotation
62
1
39
211
10
24.378982
20
26.749259
11
24.377062
21
26.751179
0
LINE
8
annotation
62
1
39
211
10
24.377062
20
26.751179
11
24.374839
21
26.752751
0
LINE
8
annotation
62
1
39
211
10
24.374839
20
26.752751
11
24.372357
21
26.753931
0
LINE
8
annotation
62
1
39
211
10
24.372357
20
26.753931
11
24.369661
21
26.754672
0
LINE
8
annotation
62
1
39
211
10
24.369661
20
26.754672
11
24.366796
21
26.754929
0
LINE
8
annotation
62
1
39
211
10
24.366796
20
26.754929
11
24.358820
21
26.754929
0
LINE
8
annotation
62
1
39
211
10
24.358820
20
26.754929
11
24.366796
21
26.754929
0
LINE
8
annotation
62
1
39
211
10
24.366796
20
26.754929
11
24.366796
21
26.754929
0
LINE
8
annotation
62
1
39
211
10
24.366796
20
26.754929
11
24.369661
21
26.755186
0
LINE
8
annotation
62
1
39
211
10
24.369661
20
26.755186
11
24.372357
21
26.755928
0
LINE
8
annotation
62
1
39
211
10
24.372357
20
26.755928
11
24.374839
21
26.757108
0
LINE
8
annotation
62
1
39
211
10
24.374839
20
26.757108
11
24.377062
21
26.758683
0
LINE
8
annotation
62
1
39
211
10
24.377062
20
26.758683
11
24.378982
21
26.760606
0
LINE
8
annotation
62
1
39
211
10
24.378982
20
26.760606
11
24.380553
21
26.762833
0
LINE
8
annotation
62
1
39
211
10
24.380553
20
26.762833
11
24.381730
21
26.765318
0
LINE
8
annotation
62
1
39
211
10
24.381730
20
26.765318
11
24.382470
21
26.768016
0
LINE
8
annotation
62
1
39
211
10
24.382470
20
26.768016
11
24.382726
21
26.770882
0
LINE
8
annotation
62
1
39
211
10
24.382726
20
26.770882
11
24.382726
21
26.770882
0
LINE
8
annotation
62
1
39
211
10
24.382726
20
26.770882
11
24.382470
21
26.773734
0
LINE
8
annotation
62
1
39
211
10
24.382470
20
26.773734
11
24.381730
21
26.776422
0
LINE
8
annotation
62
1
39
211
10
24.381730
20
26.776422
11
24.380553
21
26.778899
0
LINE
8
annotation
62
1
39
211
10
24.380553
20
26.778899
11
24.378982
21
26.781120
0
LINE
8
annotation
62
1
39
211
10
24.378982
20
26.781120
11
24.377062
21
26.783039
0
LINE
8
annotation
62
1
39
211
10
24.377062
20
26.783039
11
24.374839
21
26.784612
0
LINE
8
annotation
62
1
39
211
10
24.374839
20
26.784612
11
24.372357
21
26.785791
0
LINE
8
annotation
62
1
39
211
10
24.372357
20
26.785791
11
24.369661
21
26.786532
0
LINE
8
annotation
62
1
39
211
10
24.369661
20
26.786532
11
24.366796
21
26.786789
0
LINE
8
annotation
62
1
39
211
10
24.366796
20
26.786789
11
24.350866
21
26.786789
0
LINE
8
annotation
62
1
39
211
10
5.235023
20
10.726798
11
3.993609
21
10.726798
0
LINE
8
annotation
62
1
39
211
10
3.993609
20
10.726798
11
5.235023
21
12.962578
0
LINE
8
annotation
62
1
39
211
10
5.235023
20
12.962578
11
3.993609
21
12.962578
0
LINE
8
annotation
62
1
39
211
10
7.296137
20
11.844688
11
6.073651
21
11.844688
0
LINE
8
annotation
62
1
39
211
10
8.880118
20
12.962578
11
8.880118
21
12.962578
0
LINE
8
annotation
62
1
39
211
10
8.880118
20
12.962578
11
8.737889
21
12.909251
0
LINE
8
annotation
62
1
39
211
10
8.737889
20
12.909251
11
8.607374
21
12.837398
0
LINE
8
annotation
62
1
39
211
10
8.607374
20
12.837398
11
8.489915
21
12.748821
0
LINE
8
annotation
62
1
39
211
10
8.489915
20
12.748821
11
8.386851
21
12.645319
0
LINE
8
annotation
62
1
39
211
10
8.386851
20
12.645319
11
8.299521
21
12.528693
0
LINE
8
annotation
62
1
39
211
10
8.299521
20
12.528693
11
8.229266
21
12.400743
0
LINE
8
annotation
62
1
39
211
10
8.229266
20
12.400743
11
8.177425
21
12.263269
0
LINE
8
annotation
62
1
39
211
10
8.177425
20
12.263269
11
8.145337
21
12.118072
0
LINE
8
annotation
62
1
39
211
10
8.145337
20
12.118072
11
8.134344
21
11.966951
0
LINE
8
annotation
62
1
39
211
10
8.134344
20
11.966951
11
8.134344
21
11.223841
0
LINE
8
annotation
62
1
39
211
10
8.134344
20
11.223841
11
8.134344
21
11.223841
0
LINE
8
annotation
62
1
39
211
10
8.134344
20
11.223841
11
8.142360
21
11.134528
0
LINE
8
annotation
62
1
39
211
10
8.142360
20
11.134528
11
8.165464
21
11.050455
0
LINE
8
annotation
62
1
39
211
10
8.165464
20
11.050455
11
8.202242
21
10.973027
0
LINE
8
annotation
62
1
39
211
10
8.202242
20
10.973027
11
8.251278
21
10.903652
0
LINE
8
annotation
62
1
39
211
10
8.251278
20
10.903652
11
8.311159
21
10.843736
0
LINE
8
annotation
62
1
39
211
10
8.311159
20
10.843736
11
8.380469
21
10.794686
0
LINE
8
annotation
62
1
39
211
10
8.380469
20
10.794686
11
8.457793
21
10.757908
0
LINE
8
annotation
62
1
39
211
10
8.457793
20
10.757908
11
8.541717
21
10.734810
0
LINE
8
annotation
62
1
39
211
10
8.541717
20
10.734810
11
8.630826
21
10.726798
0
LINE
8
annotation
62
1
39
211
10
8.630826
20
10.726798
11
8.630826
21
10.726798
0
LINE
8
annotation
62
1
39
211
10
8.630826
20
10.726798
11
8.720119
21
10.734810
0
LINE
8
annotation
62
1
39
211
10
8.720119
20
10.734810
11
8.804141
21
10.757908
0
LINE
8
annotation
62
1
39
211
10
8.804141
20
10.757908
11
8.881494
21
10.794686
0
LINE
8
annotation
62
1
39
211
10
8.881494
20
10.794686
11
8.950781
21
10.843736
0
LINE
8
annotation
62
1
39
211
10
8.950781
20
10.843736
11
9.010604
21
10.903652
0
LINE
8
annotation
62
1
39
211
10
9.010604
20
10.903652
11
9.059565
21
10.973027
0
LINE
8
annotation
62
1
39
211
10
9.059565
20
10.973027
11
9.096268
21
11.050455
0
LINE
8
annotation
62
1
39
211
10
9.096268
20
11.050455
11
9.119315
21
11.134528
0
LINE
8
annotation
62
1
39
211
10
9.119315
20
11.134528
11
9.127307
21
11.223841
0
LINE
8
annotation
62
1
39
211
10
9.127307
20
11.223841
11
9.127307
21
11.471170
0
LINE
8
annotation
62
1
39
211
10
9.127307
20
11.471170
11
9.127307
21
11.471170
0
LINE
8
annotation
62
1
39
211
10
9.127307
20
11.471170
11
9.119315
21
11.560440
0
LINE
8
annotation
62
1
39
211
10
9.119315
20
11.560440
11
9.096268
21
11.644397
0
LINE
8
annotation
62
1
39
211
10
9.096268
20
11.644397
11
9.059565
21
11.721657
0
LINE
8
annotation
62
1
39
211
10
9.059565
20
11.721657
11
9.010604
21
11.790833
0
LINE
8
annotation
62
1
39
211
10
9.010604
20
11.790833
11
8.950781
21
11.850540
0
LINE
8
annotation
62
1
39
211
10
8.950781
20
11.850540
11
8.881494
21
11.899391
0
LINE
8
annotation
62
1
39
211
10
8.881494
20
11.899391
11
8.804141
21
11.936000
0
LINE
8
annotation
62
1
39
211
10
8.804141
20
11.936000
11
8.720119
21
11.958982
0
LINE
8
annotation
62
1
39
211
10
8.720119
20
11.958982
11
8.630826
21
11.966951
0
LINE
8
annotation
62
1
39
211
10
8.630826
20
11.966951
11
8.134344
21
11.966951
0
LINE
8
annotation
62
1
39
211
10
8.072161
20
10.447326
11
9.190051
21
10.447326
0
LINE
8
annotation
62
1
39
211
10
11.188421
20
11.844688
11
9.965935
21
11.844688
0
LINE
8
annotation
62
1
39
211
10
13.019760
20
10.726780
11
12.026797
21
10.726780
0
LINE
8
annotation
62
1
39
211
10
12.026797
20
10.726780
11
12.944327
21
12.203887
0
LINE
8
annotation
62
1
39
211
10
12.944327
20
12.203887
11
12.944327
21
12.203887
0
LINE
8
annotation
62
1
39
211
10
12.944327
20
12.203887
11
12.945424
21
12.205244
0
LINE
8
annotation
62
1
39
211
10
12.945424
20
12.205244
11
12.946476
21
12.206613
0
LINE
8
annotation
62
1
39
211
10
12.946476
20
12.206613
11
12.947490
21
12.208005
0
LINE
8
annotation
62
1
39
211
10
12.947490
20
12.208005
11
12.948473
21
12.209431
0
LINE
8
annotation
62
1
39
211
10
12.948473
20
12.209431
11
12.949431
21
12.210904
0
LINE
8
annotation
62
1
39
211
10
12.949431
20
12.210904
11
12.950372
21
12.212434
0
LINE
8
annotation
62
1
39
211
10
12.950372
20
12.212434
11
12.951303
21
12.214034
0
LINE
8
annotation
62
1
39
211
10
12.951303
20
12.214034
11
12.952230
21
12.215714
0
LINE
8
annotation
62
1
39
211
10
12.952230
20
12.215714
11
12.953161
21
12.217487
0
LINE
8
annotation
62
1
39
211
10
12.953161
20
12.217487
11
12.953161
21
12.217487
0
LINE
8
annotation
62
1
39
211
10
12.953161
20
12.217487
11
12.991045
21
12.298828
0
LINE
8
annotation
62
1
39
211
10
12.991045
20
12.298828
11
13.013177
21
12.383146
0
LINE
8
annotation
62
1
39
211
10
13.013177
20
12.383146
11
13.020098
21
12.468535
0
LINE
8
annotation
62
1
39
211
10
13.020098
20
12.468535
11
13.012350
21
12.553089
0
LINE
8
annotation
62
1
39
211
10
13.012350
20
12.553089
11
12.990477
21
12.634903
0
LINE
8
annotation
62
1
39
211
10
12.990477
20
12.634903
11
12.955020
21
12.712073
0
LINE
8
annotation
62
1
39
211
10
12.955020
20
12.712073
11
12.906521
21
12.782693
0
LINE
8
annotation
62
1
39
211
10
12.906521
20
12.782693
11
12.845524
21
12.844857
0
LINE
8
annotation
62
1
39
211
10
12.845524
20
12.844857
11
12.772571
21
12.896661
0
LINE
8
annotation
62
1
39
211
10
12.772571
20
12.896661
11
12.772571
21
12.896661
0
LINE
8
annotation
62
1
39
211
10
12.772571
20
12.896661
11
12.691003
21
12.934008
0
LINE
8
annotation
62
1
39
211
10
12.691003
20
12.934008
11
12.606556
21
12.955798
0
LINE
8
annotation
62
1
39
211
10
12.606556
20
12.955798
11
12.521118
21
12.962524
0
LINE
8
annotation
62
1
39
211
10
12.521118
20
12.962524
11
12.436577
21
12.954674
0
LINE
8
annotation
62
1
39
211
10
12.436577
20
12.954674
11
12.354820
21
12.932740
0
LINE
8
annotation
62
1
39
211
10
12.354820
20
12.932740
11
12.277735
21
12.897212
0
LINE
8
annotation
62
1
39
211
10
12.277735
20
12.897212
11
12.207211
21
12.848580
0
LINE
8
annotation
62
1
39
211
10
12.207211
20
12.848580
11
12.145136
21
12.787336
0
LINE
8
annotation
62
1
39
211
10
12.145136
20
12.787336
11
12.093396
21
12.713969
0
LINE
8
annotation
62
1
39
211
10
12.093396
20
12.713969
11
12.028199
21
12.588902
0
LINE
8
boundary
62
5
39
2
10
10.062842
20
33.590114
11
10.149519
21
33.635503
0
LINE
8
boundary
62
5
39
2
10
10.149519
20
33.635503
11
10.150109
21
33.635522
0
LINE
8
boundary
62
5
39
2
10
10.150109
20
33.635522
11
10.140685
21
33.660886
0
LINE
8
boundary
62
5
39
2
10
10.140685
20
33.660886
11
10.139620
21
33.668955
0
LINE
8
boundary
62
5
39
2
10
10.139620
20
33.668955
11
10.131204
21
33.700205
0
LINE
8
boundary
62
5
39
2
10
10.131204
20
33.700205
11
10.124688
21
33.719546
0
LINE
8
boundary
62
5
39
2
10
10.124688
20
33.719546
11
10.119804
21
33.735346
0
LINE
8
boundary
62
5
39
2
10
10.119804
20
33.735346
11
10.149561
21
34.193612
0
LINE
8
boundary
62
5
39
2
10
10.149561
20
34.193612
11
10.151138
21
34.211883
0
LINE
8
boundary
62
5
39
2
10
10.151138
20
34.211883
11
10.506295
21
34.394513
0
LINE
8
boundary
62
5
39
2
10
10.506295
20
34.394513
11
10.533310
21
34.408200
0
LINE
8
boundary
62
5
39
2
10
10.533310
20
34.408200
11
10.735509
21
34.541201
0
LINE
8
boundary
62
5
39
2
10
10.735509
20
34.541201
11
10.767033
21
34.660745
0
LINE
8
boundary
62
5
39
2
10
10.767033
20
34.660745
11
10.878755
21
35.035787
0
LINE
8
boundary
62
5
39
2
10
10.878755
20
35.035787
11
10.902767
21
35.277603
0
LINE
8
boundary
62
5
39
2
10
10.902767
20
35.277603
11
10.878754
21
35.519394
0
LINE
8
boundary
62
5
39
2
10
10.878754
20
35.519394
11
10.793286
21
35.805279
0
LINE
8
boundary
62
5
39
2
10
10.793286
20
35.805279
11
10.767022
21
35.894461
0
LINE
8
boundary
62
5
39
2
10
10.767022
20
35.894461
11
10.735496
21
36.014019
0
LINE
8
boundary
62
5
39
2
10
10.735496
20
36.014019
11
10.533094
21
36.146668
0
LINE
8
boundary
62
5
39
2
10
10.533094
20
36.146668
11
10.500727
21
36.163336
0
LINE
8
boundary
62
5
39
2
10
10.500727
20
36.163336
11
10.149272
21
36.343882
0
LINE
8
boundary
62
5
39
2
10
10.149272
20
36.343882
11
10.147617
21
36.364744
0
LINE
8
boundary
62
5
39
2
10
10.147617
20
36.364744
11
10.119363
21
36.820384
0
LINE
8
boundary
62
5
39
2
10
10.119363
20
36.820384
11
10.124323
21
36.836401
0
LINE
8
boundary
62
5
39
2
10
10.124323
20
36.836401
11
10.134428
21
36.867785
0
LINE
8
boundary
62
5
39
2
10
10.134428
20
36.867785
11
10.138480
21
36.874506
0
LINE
8
boundary
62
5
39
2
10
10.138480
20
36.874506
11
10.140797
21
36.894302
0
LINE
8
boundary
62
5
39
2
10
10.140797
20
36.894302
11
10.149849
21
36.919626
0
LINE
8
boundary
62
5
39
2
10
10.149849
20
36.919626
11
10.062848
21
36.965100
0
LINE
8
boundary
62
5
39
2
10
10.062848
20
36.965100
11
9.959553
21
37.018454
0
LINE
8
boundary
62
5
39
2
10
9.959553
20
37.018454
11
8.725841
21
37.399898
0
LINE
8
boundary
62
5
39
2
10
8.725841
20
37.399898
11
8.639260
21
37.422657
0
LINE
8
boundary
62
5
39
2
10
8.639260
20
37.422657
11
8.598369
21
37.442763
0
LINE
8
boundary
62
5
39
2
10
8.598369
20
37.442763
11
8.598369
21
37.424892
0
LINE
8
boundary
62
5
39
2
10
8.598369
20
37.424892
11
8.585839
21
37.398392
0
LINE
8
boundary
62
5
39
2
10
8.585839
20
37.398392
11
7.609428
21
37.398392
0
LINE
8
boundary
62
5
39
2
10
7.609428
20
37.398392
11
7.609428
21
37.955992
0
LINE
8
boundary
62
5
39
2
10
7.609428
20
37.955992
11
6.750820
21
38.410197
0
LINE
8
boundary
62
5
39
2
10
6.750820
20
38.410197
11
6.074464
21
38.461365
0
LINE
8
boundary
62
5
39
2
10
6.074464
20
38.461365
11
5.645870
21
38.445309
0
LINE
8
boundary
62
5
39
2
10
5.645870
20
38.445309
11
5.479595
21
38.438986
0
LINE
8
boundary
62
5
39
2
10
5.479595
20
38.438986
11
5.475015
21
38.438811
0
LINE
8
boundary
62
5
39
2
10
5.475015
20
38.438811
11
5.333410
21
38.439894
0
LINE
8
boundary
62
5
39
2
10
5.333410
20
38.439894
11
5.327099
21
38.440059
0
LINE
8
boundary
62
5
39
2
10
5.327099
20
38.440059
11
5.133925
21
38.447219
0
LINE
8
boundary
62
5
39
2
10
5.133925
20
38.447219
11
4.728157
21
38.258927
0
LINE
8
boundary
62
5
39
2
10
4.728157
20
38.258927
11
3.562935
21
37.965853
0
LINE
8
boundary
62
5
39
2
10
3.562935
20
37.965853
11
3.534700
21
37.955992
0
LINE
8
boundary
62
5
39
2
10
3.534700
20
37.955992
11
3.547230
21
37.929492
0
LINE
8
boundary
62
5
39
2
10
3.547230
20
37.929492
11
4.796942
21
37.929492
0
LINE
8
boundary
62
5
39
2
10
4.796942
20
37.929492
11
4.796942
21
37.424892
0
LINE
8
boundary
62
5
39
2
10
4.796942
20
37.424892
11
1.244857
21
37.424892
0
LINE
8
boundary
62
5
39
2
10
1.244857
20
37.424892
11
1.232327
21
37.398392
0
LINE
8
boundary
62
5
39
2
10
1.232327
20
37.398392
11
1.050551
21
37.002570
0
LINE
8
boundary
62
5
39
2
10
1.050551
20
37.002570
11
1.071003
21
36.972609
0
LINE
8
boundary
62
5
39
2
10
1.071003
20
36.972609
11
1.079023
21
36.861878
0
LINE
8
boundary
62
5
39
2
10
1.079023
20
36.861878
11
0.825465
21
36.269924
0
LINE
8
boundary
62
5
39
2
10
0.825465
20
36.269924
11
0.725725
21
35.556408
0
LINE
8
boundary
62
5
39
2
10
0.725725
20
35.556408
11
0.738255
21
35.529908
0
LINE
8
boundary
62
5
39
2
10
0.738255
20
35.529908
11
5.782060
21
35.529908
0
LINE
8
boundary
62
5
39
2
10
5.782060
20
35.529908
11
5.782060
21
35.025308
0
LINE
8
boundary
62
5
39
2
10
5.782060
20
35.025308
11
0.738256
21
35.025308
0
LINE
8
boundary
62
5
39
2
10
0.738256
20
35.025308
11
0.725726
21
34.998808
0
LINE
8
boundary
62
5
39
2
10
0.725726
20
34.998808
11
0.825478
21
34.285307
0
LINE
8
boundary
62
5
39
2
10
0.825478
20
34.285307
11
1.079050
21
33.693286
0
LINE
8
boundary
62
5
39
2
10
1.079050
20
33.693286
11
1.071014
21
33.582528
0
LINE
8
boundary
62
5
39
2
10
1.071014
20
33.582528
11
1.050643
21
33.552667
0
LINE
8
boundary
62
5
39
2
10
1.050643
20
33.552667
11
1.232528
21
33.156824
0
LINE
8
boundary
62
5
39
2
10
1.232528
20
33.156824
11
1.245058
21
33.130324
0
LINE
8
boundary
62
5
39
2
10
1.245058
20
33.130324
11
4.797103
21
33.130324
0
LINE
8
boundary
62
5
39
2
10
4.797103
20
33.130324
11
4.797103
21
32.625724
0
LINE
8
boundary
62
5
39
2
10
4.797103
20
32.625724
11
3.550986
21
32.625724
0
LINE
8
boundary
62
5
39
2
10
3.550986
20
32.625724
11
3.538456
21
32.599224
0
LINE
8
boundary
62
5
39
2
10
3.538456
20
32.599224
11
3.561611
21
32.591121
0
LINE
8
boundary
62
5
39
2
10
3.561611
20
32.591121
11
4.727669
21
32.296667
0
LINE
8
boundary
62
5
39
2
10
4.727669
20
32.296667
11
5.133940
21
32.108060
0
LINE
8
boundary
62
5
39
2
10
5.133940
20
32.108060
11
5.327404
21
32.115190
0
LINE
8
boundary
62
5
39
2
10
5.327404
20
32.115190
11
5.333766
21
32.115357
0
LINE
8
boundary
62
5
39
2
10
5.333766
20
32.115357
11
5.475082
21
32.116413
0
LINE
8
boundary
62
5
39
2
10
5.475082
20
32.116413
11
5.479620
21
32.116227
0
LINE
8
boundary
62
5
39
2
10
5.479620
20
32.116227
11
5.645730
21
32.109703
0
LINE
8
boundary
62
5
39
2
10
5.645730
20
32.109703
11
6.061409
21
32.093641
0
LINE
8
boundary
62
5
39
2
10
6.061409
20
32.093641
11
6.755911
21
32.146507
0
LINE
8
boundary
62
5
39
2
10
6.755911
20
32.146507
11
7.610718
21
32.599224
0
LINE
8
boundary
62
5
39
2
10
7.610718
20
32.599224
11
7.610718
21
33.156824
0
LINE
8
boundary
62
5
39
2
10
7.610718
20
33.156824
11
8.585311
21
33.156824
0
LINE
8
boundary
62
5
39
2
10
8.585311
20
33.156824
11
8.597841
21
33.130324
0
LINE
8
boundary
62
5
39
2
10
8.597841
20
33.130324
11
8.597841
21
33.112220
0
LINE
8
boundary
62
5
39
2
10
8.597841
20
33.112220
11
8.639265
21
33.132559
0
LINE
8
boundary
62
5
39
2
10
8.639265
20
33.132559
11
8.725824
21
33.155313
0
LINE
8
boundary
62
5
39
2
10
8.725824
20
33.155313
11
9.959521
21
33.536748
0
LINE
8
boundary
62
5
39
2
10
9.959521
20
33.536748
11
10.062842
21
33.590114
0
LINE
8
annotation
62
1
39
211
10
8.987103
20
32.694849
11
9.068460
21
32.694849
0
LINE
8
annotation
62
1
39
211
10
9.068460
20
32.694849
11
9.068460
21
32.694849
0
LINE
8
annotation
62
1
39
211
10
9.068460
20
32.694849
11
9.083093
21
32.696162
0
LINE
8
annotation
62
1
39
211
10
9.083093
20
32.696162
11
9.096861
21
32.699945
0
LINE
8
annotation
62
1
39
211
10
9.096861
20
32.699945
11
9.109537
21
32.705966
0
LINE
8
annotation
62
1
39
211
10
9.109537
20
32.705966
11
9.120891
21
32.713993
0
LINE
8
annotation
62
1
39
211
10
9.120891
20
32.713993
11
9.130694
21
32.723794
0
LINE
8
annotation
62
1
39
211
10
9.130694
20
32.723794
11
9.138717
21
32.735137
0
LINE
8
annotation
62
1
39
211
10
9.138717
20
32.735137
11
9.144731
21
32.747789
0
LINE
8
annotation
62
1
39
211
10
9.144731
20
32.747789
11
9.148508
21
32.761518
0
LINE
8
annotation
62
1
39
211
10
9.148508
20
32.761518
11
9.149818
21
32.776092
0
LINE
8
annotation
62
1
39
211
10
9.149818
20
32.776092
11
9.149818
21
32.816828
0
LINE
8
annotation
62
1
39
211
10
9.149818
20
32.816828
11
9.149818
21
32.816828
0
LINE
8
annotation
62
1
39
211
10
9.149818
20
32.816828
11
9.148508
21
32.831396
0
LINE
8
annotation
62
1
39
211
10
9.148508
20
32.831396
11
9.144731
21
32.845122
0
LINE
8
annotation
62
1
39
211
10
9.144731
20
32.845122
11
9.138717
21
32.857772
0
LINE
8
annotation
62
1
39
211
10
9.138717
20
32.857772
11
9.130694
21
32.869116
0
LINE
8
annotation
62
1
39
211
10
9.130694
20
32.869116
11
9.120891
21
32.878919
0
LINE
8
annotation
62
1
39
211
10
9.120891
20
32.878919
11
9.109537
21
32.886948
0
LINE
8
annotation
62
1
39
211
10
9.109537
20
32.886948
11
9.096861
21
32.892972
0
LINE
8
annotation
62
1
39
211
10
9.096861
20
32.892972
11
9.083093
21
32.896757
0
LINE
8
annotation
62
1
39
211
10
9.083093
20
32.896757
11
9.068460
21
32.898070
0
LINE
8
annotation
62
1
39
211
10
9.068460
20
32.898070
11
9.027724
21
32.898070
0
LINE
8
annotation
62
1
39
211
10
9.027724
20
32.898070
11
9.068460
21
32.898070
0
LINE
8
annotation
62
1
39
211
10
9.068460
20
32.898070
11
9.068460
21
32.898070
0
LINE
8
annotation
62
1
39
211
10
9.068460
20
32.898070
11
9.083093
21
32.899384
0
LINE
8
annotation
62
1
39
211
10
9.083093
20
32.899384
11
9.096861
21
32.903171
0
LINE
8
annotation
62
1
39
211
10
9.096861
20
32.903171
11
9.109537
21
32.909201
0
LINE
8
annotation
62
1
39
211
10
9.109537
20
32.909201
11
9.120891
21
32.917242
0
LINE
8
annotation
62
1
39
211
10
9.120891
20
32.917242
11
9.130694
21
32.927064
0
LINE
8
annotation
62
1
39
211
10
9.130694
20
32.927064
11
9.138717
21
32.938436
0
LINE
8
annotation
62
1
39
211
10
9.138717
20
32.938436
11
9.144731
21
32.951127
0
LINE
8
annotation
62
1
39
211
10
9.144731
20
32.951127
11
9.148508
21
32.964906
0
LINE
8
annotation
62
1
39
211
10
9.148508
20
32.964906
11
9.149818
21
32.979542
0
LINE
8
annotation
62
1
39
211
10
9.149818
20
32.979542
11
9.149818
21
32.979542
0
LINE
8
annotation
62
1
39
211
10
9.149818
20
32.979542
11
9.148508
21
32.994110
0
LINE
8
annotation
62
1
39
211
10
9.148508
20
32.994110
11
9.144731
21
33.007836
0
LINE
8
annotation
62
1
39
211
10
9.144731
20
33.007836
11
9.138717
21
33.020487
0
LINE
8
annotation
62
1
39
211
10
9.138717
20
33.020487
11
9.130694
21
33.031830
0
LINE
8
annotation
62
1
39
211
10
9.130694
20
33.031830
11
9.120891
21
33.041633
0
LINE
8
annotation
62
1
39
211
10
9.120891
20
33.041633
11
9.109537
21
33.049663
0
LINE
8
annotation
62
1
39
211
10
9.109537
20
33.049663
11
9.096861
21
33.055687
0
LINE
8
annotation
62
1
39
211
10
9.096861
20
33.055687
11
9.083093
21
33.059472
0
LINE
8
annotation
62
1
39
211
10
9.083093
20
33.059472
11
9.068460
21
33.060785
0
LINE
8
annotation
62
1
39
211
10
9.068460
20
33.060785
11
8.987103
21
33.060785
0
LINE
8
annotation
62
1
39
211
10
5.681388
20
32.454050
11
5.869697
21
32.454050
0
LINE
8
annotation
62
1
39
211
10
5.869697
20
32.454050
11
5.869697
21
32.454050
0
LINE
8
annotation
62
1
39
211
10
5.869697
20
32.454050
11
5.903564
21
32.457089
0
LINE
8
annotation
62
1
39
211
10
5.903564
20
32.457089
11
5.935433
21
32.465845
0
LINE
8
annotation
62
1
39
211
10
5.935433
20
32.465845
11
5.964772
21
32.479781
0
LINE
8
annotation
62
1
39
211
10
5.964772
20
32.479781
11
5.991051
21
32.498361
0
LINE
8
annotation
62
1
39
211
10
5.991051
20
32.498361
11
6.013741
21
32.521046
0
LINE
8
annotation
62
1
39
211
10
6.013741
20
32.521046
11
6.032312
21
32.547300
0
LINE
8
annotation
62
1
39
211
10
6.032312
20
32.547300
11
6.046232
21
32.576584
0
LINE
8
annotation
62
1
39
211
10
6.046232
20
32.576584
11
6.054974
21
32.608361
0
LINE
8
annotation
62
1
39
211
10
6.054974
20
32.608361
11
6.058005
21
32.642093
0
LINE
8
annotation
62
1
39
211
10
6.058005
20
32.642093
11
6.058005
21
32.736380
0
LINE
8
annotation
62
1
39
211
10
6.058005
20
32.736380
11
6.058005
21
32.736380
0
LINE
8
annotation
62
1
39
211
10
6.058005
20
32.736380
11
6.054974
21
32.770099
0
LINE
8
annotation
62
1
39
211
10
6.054974
20
32.770099
11
6.046232
21
32.801868
0
LINE
8
annotation
62
1
39
211
10
6.046232
20
32.801868
11
6.032312
21
32.831150
0
LINE
8
annotation
62
1
39
211
10
6.032312
20
32.831150
11
6.013741
21
32.857405
0
LINE
8
annotation
62
1
39
211
10
6.013741
20
32.857405
11
5.991051
21
32.880095
0
LINE
8
annotation
62
1
39
211
10
5.991051
20
32.880095
11
5.964772
21
32.898680
0
LINE
8
annotation
62
1
39
211
10
5.964772
20
32.898680
11
5.935433
21
32.912623
0
LINE
8
annotation
62
1
39
211
10
5.935433
20
32.912623
11
5.903564
21
32.921383
0
LINE
8
annotation
62
1
39
211
10
5.903564
20
32.921383
11
5.869697
21
32.924423
0
LINE
8
annotation
62
1
39
211
10
5.869697
20
32.924423
11
5.775409
21
32.924423
0
LINE
8
annotation
62
1
39
211
10
5.775409
20
32.924423
11
5.869697
21
32.924423
0
LINE
8
annotation
62
1
39
211
10
5.869697
20
32.924423
11
5.869697
21
32.924423
0
LINE
8
annotation
62
1
39
211
10
5.869697
20
32.924423
11
5.903564
21
32.927464
0
LINE
8
annotation
62
1
39
211
10
5.903564
20
32.927464
11
5.935433
21
32.936229
0
LINE
8
annotation
62
1
39
211
10
5.935433
20
32.936229
11
5.964772
21
32.950186
0
LINE
8
annotation
62
1
39
211
10
5.964772
20
32.950186
11
5.991051
21
32.968798
0
LINE
8
annotation
62
1
39
211
10
5.991051
20
32.968798
11
6.013741
21
32.991532
0
LINE
8
annotation
62
1
39
211
10
6.013741
20
32.991532
11
6.032312
21
33.017853
0
LINE
8
annotation
62
1
39
211
10
6.032312
20
33.017853
11
6.046232
21
33.047228
0
LINE
8
annotation
62
1
39
211
10
6.046232
20
33.047228
11
6.054974
21
33.079121
0
LINE
8
annotation
62
1
39
211
10
6.054974
20
33.079121
11
6.058005
21
33.112997
0
LINE
8
annotation
62
1
39
211
10
6.058005
20
33.112997
11
6.058005
21
33.112997
0
LINE
8
annotation
62
1
39
211
10
6.058005
20
33.112997
11
6.054974
21
33.146716
0
LINE
8
annotation
62
1
39
211
10
6.054974
20
33.146716
11
6.046232
21
33.178486
0
LINE
8
annotation
62
1
39
211
10
6.046232
20
33.178486
11
6.032312
21
33.207767
0
LINE
8
annotation
62
1
39
211
10
6.032312
20
33.207767
11
6.013741
21
33.234022
0
LINE
8
annotation
62
1
39
211
10
6.013741
20
33.234022
11
5.991051
21
33.256712
0
LINE
8
annotation
62
1
39
211
10
5.991051
20
33.256712
11
5.964772
21
33.275297
0
LINE
8
annotation
62
1
39
211
10
5.964772
20
33.275297
11
5.935433
21
33.289240
0
LINE
8
annotation
62
1
39
211
10
5.935433
20
33.289240
11
5.903564
21
33.298000
0
LINE
8
annotation
62
1
39
211
10
5.903564
20
33.298000
11
5.869697
21
33.301040
0
LINE
8
annotation
62
1
39
211
10
5.869697
20
33.301040
11
5.681388
21
33.301040
0
LINE
8
annotation
62
1
39
211
10
7.090079
20
35.042129
11
6.619228
21
35.042129
0
LINE
8
annotation
62
1
39
211
10
6.619228
20
35.042129
11
6.807270
21
35.701608
0
LINE
8
annotation
62
1
39
211
10
6.948940
20
34.853608
11
6.948940
21
35.230225
0
LINE
8
annotation
62
1
39
211
10
8.988010
20
37.493821
11
9.069449
21
37.493821
0
LINE
8
annotation
62
1
39
211
10
9.069449
20
37.493821
11
9.069449
21
37.493821
0
LINE
8
annotation
62
1
39
211
10
9.069449
20
37.493821
11
9.084066
21
37.495136
0
LINE
8
annotation
62
1
39
211
10
9.084066
20
37.495136
11
9.097832
21
37.498925
0
LINE
8
annotation
62
1
39
211
10
9.097832
20
37.498925
11
9.110516
21
37.504957
0
LINE
8
annotation
62
1
39
211
10
9.110516
20
37.504957
11
9.121885
21
37.513003
0
LINE
8
annotation
62
1
39
211
10
9.121885
20
37.513003
11
9.131707
21
37.522831
0
LINE
8
annotation
62
1
39
211
10
9.131707
20
37.522831
11
9.139751
21
37.534211
0
LINE
8
annotation
62
1
39
211
10
9.139751
20
37.534211
11
9.145784
21
37.546912
0
LINE
8
annotation
62
1
39
211
10
9.145784
20
37.546912
11
9.149574
21
37.560702
0
LINE
8
annotation
62
1
39
211
10
9.149574
20
37.560702
11
9.150888
21
37.575353
0
LINE
8
annotation
62
1
39
211
10
9.150888
20
37.575353
11
9.150888
21
37.615923
0
LINE
8
annotation
62
1
39
211
10
9.150888
20
37.615923
11
9.150888
21
37.615923
0
LINE
8
annotation
62
1
39
211
10
9.150888
20
37.615923
11
9.149574
21
37.630566
0
LINE
8
annotation
62
1
39
211
10
9.149574
20
37.630566
11
9.145786
21
37.644338
0
LINE
8
annotation
62
1
39
211
10
9.145786
20
37.644338
11
9.139756
21
37.657011
0
LINE
8
annotation
62
1
39
211
10
9.139756
20
37.657011
11
9.131715
21
37.668358
0
LINE
8
annotation
62
1
39
211
10
9.131715
20
37.668358
11
9.121894
21
37.678152
0
LINE
8
annotation
62
1
39
211
10
9.121894
20
37.678152
11
9.110526
21
37.686165
0
LINE
8
annotation
62
1
39
211
10
9.110526
20
37.686165
11
9.097842
21
37.692170
0
LINE
8
annotation
62
1
39
211
10
9.097842
20
37.692170
11
9.084072
21
37.695940
0
LINE
8
annotation
62
1
39
211
10
9.084072
20
37.695940
11
9.069449
21
37.697247
0
LINE
8
annotation
62
1
39
211
10
9.069449
20
37.697247
11
8.988010
21
37.697247
0
LINE
8
annotation
62
1
39
211
10
8.988010
20
37.697247
11
8.988010
21
37.860562
0
LINE
8
annotation
62
1
39
211
10
8.988010
20
37.860562
11
9.150888
21
37.860562
0
LINE
8
annotation
62
1
39
211
10
5.681227
20
37.253192
11
5.869536
21
37.253192
0
LINE
8
annotation
62
1
39
211
10
5.869536
20
37.253192
11
5.869536
21
37.253192
0
LINE
8
annotation
62
1
39
211
10
5.869536
20
37.253192
11
5.903333
21
37.256231
0
LINE
8
annotation
62
1
39
211
10
5.903333
20
37.256231
11
5.935164
21
37.264991
0
LINE
8
annotation
62
1
39
211
10
5.935164
20
37.264991
11
5.964492
21
37.278941
0
LINE
8
annotation
62
1
39
211
10
5.964492
20
37.278941
11
5.990781
21
37.297545
0
LINE
8
annotation
62
1
39
211
10
5.990781
20
37.297545
11
6.013493
21
37.320270
0
LINE
8
annotation
62
1
39
211
10
6.013493
20
37.320270
11
6.032091
21
37.346583
0
LINE
8
annotation
62
1
39
211
10
6.032091
20
37.346583
11
6.046041
21
37.375950
0
LINE
8
annotation
62
1
39
211
10
6.046041
20
37.375950
11
6.054804
21
37.407838
0
LINE
8
annotation
62
1
39
211
10
6.054804
20
37.407838
11
6.057844
21
37.441713
0
LINE
8
annotation
62
1
39
211
10
6.057844
20
37.441713
11
6.057844
21
37.535522
0
LINE
8
annotation
62
1
39
211
10
6.057844
20
37.535522
11
6.057844
21
37.535522
0
LINE
8
annotation
62
1
39
211
10
6.057844
20
37.535522
11
6.054806
21
37.569380
0
LINE
8
annotation
62
1
39
211
10
6.054806
20
37.569380
11
6.046047
21
37.601224
0
LINE
8
annotation
62
1
39
211
10
6.046047
20
37.601224
11
6.032103
21
37.630528
0
LINE
8
annotation
62
1
39
211
10
6.032103
20
37.630528
11
6.013510
21
37.656765
0
LINE
8
annotation
62
1
39
211
10
6.013510
20
37.656765
11
5.990803
21
37.679411
0
LINE
8
annotation
62
1
39
211
10
5.990803
20
37.679411
11
5.964516
21
37.697940
0
LINE
8
annotation
62
1
39
211
10
5.964516
20
37.697940
11
5.935186
21
37.711825
0
LINE
8
annotation
62
1
39
211
10
5.935186
20
37.711825
11
5.903347
21
37.720542
0
LINE
8
annotation
62
1
39
211
10
5.903347
20
37.720542
11
5.869536
21
37.723564
0
LINE
8
annotation
62
1
39
211
10
5.869536
20
37.723564
11
5.681227
21
37.723564
0
LINE
8
annotation
62
1
39
211
10
5.681227
20
37.723564
11
5.681227
21
38.101192
0
LINE
8
annotation
62
1
39
211
10
5.681227
20
38.101192
11
6.057844
21
38.101192
0
LINE
8
annotation
62
1
39
211
10
7.113086
20
35.804981
11
6.867754
21
35.450130
0
LINE
8
annotation
62
1
39
211
10
6.867754
20
35.450130
11
6.622376
21
35.804981
0
LINE
8
annotation
62
1
39
211
10
6.867754
20
35.478686
11
6.867754
21
35.069308
0
LINE
8
annotation
62
1
39
211
10
7.791266
20
35.437144
11
7.389038
21
35.437144
0
LINE
8
annotation
62
1
39
211
10
8.475513
20
35.232870
11
8.067057
21
35.232870
0
LINE
8
annotation
62
1
39
211
10
8.067057
20
35.232870
11
8.230181
21
35.804957
0
LINE
8
annotation
62
1
39
211
10
8.353078
20
35.069331
11
8.353078
21
35.396040
0
LINE
8
annotation
62
1
39
211
10
9.153671
20
35.437144
11
8.751442
21
35.437144
0
LINE
8
annotation
62
1
39
211
10
9.429461
20
35.069354
11
9.592816
21
35.069354
0
LINE
8
annotation
62
1
39
211
10
9.592816
20
35.069354
11
9.592816
21
35.069354
0
LINE
8
annotation
62
1
39
211
10
9.592816
20
35.069354
11
9.622196
21
35.071989
0
LINE
8
annotation
62
1
39
211
10
9.622196
20
35.071989
11
9.649841
21
35.079585
0
LINE
8
annotation
62
1
39
211
10
9.649841
20
35.079585
11
9.675292
21
35.091675
0
LINE
8
annotation
62
1
39
211
10
9.675292
20
35.091675
11
9.698089
21
35.107793
0
LINE
8
annotation
62
1
39
211
10
9.698089
20
35.107793
11
9.717773
21
35.127472
0
LINE
8
annotation
62
1
39
211
10
9.717773
20
35.127472
11
9.733882
21
35.150246
0
LINE
8
annotation
62
1
39
211
10
9.733882
20
35.150246
11
9.745958
21
35.175649
0
LINE
8
annotation
62
1
39
211
10
9.745958
20
35.175649
11
9.753541
21
35.203215
0
LINE
8
annotation
62
1
39
211
10
9.753541
20
35.203215
11
9.756171
21
35.232478
0
LINE
8
annotation
62
1
39
211
10
9.756171
20
35.232478
11
9.756171
21
35.314271
0
LINE
8
annotation
62
1
39
211
10
9.756171
20
35.314271
11
9.756171
21
35.314271
0
LINE
8
annotation
62
1
39
211
10
9.756171
20
35.314271
11
9.753541
21
35.343521
0
LINE
8
annotation
62
1
39
211
10
9.753541
20
35.343521
11
9.745958
21
35.371080
0
LINE
8
annotation
62
1
39
211
10
9.745958
20
35.371080
11
9.733882
21
35.396482
0
LINE
8
annotation
62
1
39
211
10
9.733882
20
35.396482
11
9.717773
21
35.419258
0
LINE
8
annotation
62
1
39
211
10
9.717773
20
35.419258
11
9.698089
21
35.438941
0
LINE
8
annotation
62
1
39
211
10
9.698089
20
35.438941
11
9.675292
21
35.455063
0
LINE
8
annotation
62
1
39
211
10
9.675292
20
35.455063
11
9.649841
21
35.467158
0
LINE
8
annotation
62
1
39
211
10
9.649841
20
35.467158
11
9.622196
21
35.474758
0
LINE
8
annotation
62
1
39
211
10
9.622196
20
35.474758
11
9.592816
21
35.477395
0
LINE
8
annotation
62
1
39
211
10
9.592816
20
35.477395
11
9.511023
21
35.477395
0
LINE
8
annotation
62
1
39
211
10
9.511023
20
35.477395
11
9.592816
21
35.477395
0
LINE
8
annotation
62
1
39
211
10
9.592816
20
35.477395
11
9.592816
21
35.477395
0
LINE
8
annotation
62
1
39
211
10
9.592816
20
35.477395
11
9.622196
21
35.480032
0
LINE
8
annotation
62
1
39
211
10
9.622196
20
35.480032
11
9.649841
21
35.487636
0
LINE
8
annotation
62
1
39
211
10
9.649841
20
35.487636
11
9.675292
21
35.499743
0
LINE
8
annotation
62
1
39
211
10
9.675292
20
35.499743
11
9.698089
21
35.515889
0
LINE
8
annotation
62
1
39
211
10
9.698089
20
35.515889
11
9.717773
21
35.535611
0
LINE
8
annotation
62
1
39
211
10
9.717773
20
35.535611
11
9.733882
21
35.558444
0
LINE
8
annotation
62
1
39
211
10
9.733882
20
35.558444
11
9.745958
21
35.583926
0
LINE
8
annotation
62
1
39
211
10
9.745958
20
35.583926
11
9.753541
21
35.611592
0
LINE
8
annotation
62
1
39
211
10
9.753541
20
35.611592
11
9.756171
21
35.640980
0
LINE
8
annotation
62
1
39
211
10
9.756171
20
35.640980
11
9.756171
21
35.640980
0
LINE
8
annotation
62
1
39
211
10
9.756171
20
35.640980
11
9.753541
21
35.670230
0
LINE
8
annotation
62
1
39
211
10
9.753541
20
35.670230
11
9.745958
21
35.697790
0
LINE
8
annotation
62
1
39
211
10
9.745958
20
35.697790
11
9.733882
21
35.723191
0
LINE
8
annotation
62
1
39
211
10
9.733882
20
35.723191
11
9.717773
21
35.745967
0
LINE
8
annotation
62
1
39
211
10
9.717773
20
35.745967
11
9.698089
21
35.765650
0
LINE
8
annotation
62
1
39
211
10
9.698089
20
35.765650
11
9.675292
21
35.781773
0
LINE
8
annotation
62
1
39
211
10
9.675292
20
35.781773
11
9.649841
21
35.793867
0
LINE
8
annotation
62
1
39
211
10
9.649841
20
35.793867
11
9.622196
21
35.801467
0
LINE
8
annotation
62
1
39
211
10
9.622196
20
35.801467
11
9.592816
21
35.804104
0
LINE
8
annotation
62
1
39
211
10
9.592816
20
35.804104
11
9.429461
21
35.804104
0
LINE
8
boundary
62
5
39
2
10
17.346782
20
37.007975
11
15.562080
21
38.401228
0
LINE
8
boundary
62
5
39
2
10
15.562080
20
38.401228
11
13.567299
21
39.096595
0
LINE
8
boundary
62
5
39
2
10
13.567299
20
39.096595
11
12.397975
21
37.047882
0
LINE
8
boundary
62
5
39
2
10
12.397975
20
37.047882
11
12.377168
21
36.981475
0
LINE
8
boundary
62
5
39
2
10
12.377168
20
36.981475
11
17.334252
21
36.981475
0
LINE
8
boundary
62
5
39
2
10
17.334252
20
36.981475
11
17.346782
21
37.007975
0
LINE
8
boundary
62
5
39
2
10
19.920851
20
34.248574
11
19.148118
21
35.533488
0
LINE
8
boundary
62
5
39
2
10
19.148118
20
35.533488
11
19.071068
21
35.661887
0
LINE
8
boundary
62
5
39
2
10
19.071068
20
35.661887
11
18.061046
21
36.450375
0
LINE
8
boundary
62
5
39
2
10
18.061046
20
36.450375
11
18.027100
21
36.476875
0
LINE
8
boundary
62
5
39
2
10
18.027100
20
36.476875
11
17.263264
21
36.476875
0
LINE
8
boundary
62
5
39
2
10
17.263264
20
36.476875
11
12.334653
21
36.476875
0
LINE
8
boundary
62
5
39
2
10
12.334653
20
36.476875
11
12.334653
21
36.845783
0
LINE
8
boundary
62
5
39
2
10
12.334653
20
36.845783
11
11.602216
21
34.508137
0
LINE
8
boundary
62
5
39
2
10
11.602216
20
34.508137
11
11.260267
21
32.093641
0
LINE
8
boundary
62
5
39
2
10
11.260267
20
32.093641
11
13.182381
21
32.592842
0
LINE
8
boundary
62
5
39
2
10
13.182381
20
32.592842
11
16.386475
21
32.276456
0
LINE
8
boundary
62
5
39
2
10
16.386475
20
32.276456
11
16.979151
21
32.630422
0
LINE
8
boundary
62
5
39
2
10
16.979151
20
32.630422
11
17.935327
21
32.769070
0
LINE
8
boundary
62
5
39
2
10
17.935327
20
32.769070
11
19.920851
21
34.248574
0
LINE
8
annotation
62
1
39
211
10
14.251285
20
36.305168
11
13.874668
21
36.305168
0
LINE
8
annotation
62
1
39
211
10
13.874668
20
36.305168
11
14.222675
21
36.865414
0
LINE
8
annotation
62
1
39
211
10
14.222675
20
36.865414
11
14.222675
21
36.865414
0
LINE
8
annotation
62
1
39
211
10
14.222675
20
36.865414
11
14.223091
21
36.865929
0
LINE
8
annotation
62
1
39
211
10
14.223091
20
36.865929
11
14.223490
21
36.866448
0
LINE
8
annotation
62
1
39
211
10
14.223490
20
36.866448
11
14.223874
21
36.866976
0
LINE
8
annotation
62
1
39
211
10
14.223874
20
36.866976
11
14.224247
21
36.867517
0
LINE
8
annotation
62
1
39
211
10
14.224247
20
36.867517
11
14.224610
21
36.868076
0
LINE
8
annotation
62
1
39
211
10
14.224610
20
36.868076
11
14.224967
21
36.868656
0
LINE
8
annotation
62
1
39
211
10
14.224967
20
36.868656
11
14.225320
21
36.869263
0
LINE
8
annotation
62
1
39
211
10
14.225320
20
36.869263
11
14.225672
21
36.869900
0
LINE
8
annotation
62
1
39
211
10
14.225672
20
36.869900
11
14.226025
21
36.870572
0
LINE
8
annotation
62
1
39
211
10
14.226025
20
36.870572
11
14.226025
21
36.870572
0
LINE
8
annotation
62
1
39
211
10
14.226025
20
36.870572
11
14.240394
21
36.901424
0
LINE
8
annotation
62
1
39
211
10
14.240394
20
36.901424
11
14.248788
21
36.933405
0
LINE
8
annotation
62
1
39
211
10
14.248788
20
36.933405
11
14.251413
21
36.965791
0
LINE
8
annotation
62
1
39
211
10
14.251413
20
36.965791
11
14.248475
21
36.997861
0
LINE
8
annotation
62
1
39
211
10
14.248475
20
36.997861
11
14.240178
21
37.028893
0
LINE
8
annotation
62
1
39
211
10
14.240178
20
37.028893
11
14.226730
21
37.058162
0
LINE
8
annotation
62
1
39
211
10
14.226730
20
37.058162
11
14.208335
21
37.084947
0
LINE
8
annotation
62
1
39
211
10
14.208335
20
37.084947
11
14.185200
21
37.108525
0
LINE
8
annotation
62
1
39
211
10
14.185200
20
37.108525
11
14.157530
21
37.128174
0
LINE
8
annotation
62
1
39
211
10
14.157530
20
37.128174
11
14.157530
21
37.128174
0
LINE
8
annotation
62
1
39
211
10
14.157530
20
37.128174
11
14.126592
21
37.142339
0
LINE
8
annotation
62
1
39
211
10
14.126592
20
37.142339
11
14.094563
21
37.150604
0
LINE
8
annotation
62
1
39
211
10
14.094563
20
37.150604
11
14.062157
21
37.153154
0
LINE
8
annotation
62
1
39
211
10
14.062157
20
37.153154
11
14.030092
21
37.150177
0
LINE
8
annotation
62
1
39
211
10
14.030092
20
37.150177
11
13.999083
21
37.141858
0
LINE
8
annotation
62
1
39
211
10
13.999083
20
37.141858
11
13.969846
21
37.128383
0
LINE
8
annotation
62
1
39
211
10
13.969846
20
37.128383
11
13.943097
21
37.109937
0
LINE
8
annotation
62
1
39
211
10
13.943097
20
37.109937
11
13.919552
21
37.086708
0
LINE
8
annotation
62
1
39
211
10
13.919552
20
37.086708
11
13.899928
21
37.058881
0
LINE
8
annotation
62
1
39
211
10
13.899928
20
37.058881
11
13.875200
21
37.011445
0
LINE
8
annotation
62
1
39
211
10
12.308412
20
36.722589
11
12.302562
21
36.722589
0
LINE
8
annotation
62
1
39
211
10
12.302562
20
36.722589
11
12.307968
21
36.731291
0
LINE
8
annotation
62
1
39
211
10
12.307968
20
36.731291
11
12.307968
21
36.731291
0
LINE
8
annotation
62
1
39
211
10
12.307968
20
36.731291
11
12.307974
21
36.731299
0
LINE
8
annotation
62
1
39
211
10
12.307974
20
36.731299
11
12.307980
21
36.731307
0
LINE
8
annotation
62
1
39
211
10
12.307980
20
36.731307
11
12.307986
21
36.731315
0
LINE
8
annotation
62
1
39
211
10
12.307986
20
36.731315
11
12.307992
21
36.731324
0
LINE
8
annotation
62
1
39
211
10
12.307992
20
36.731324
11
12.307998
21
36.731333
0
LINE
8
annotation
62
1
39
211
10
12.307998
20
36.731333
11
12.308003
21
36.731342
0
LINE
8
annotation
62
1
39
211
10
12.308003
20
36.731342
11
12.308009
21
36.731351
0
LINE
8
annotation
62
1
39
211
10
12.308009
20
36.731351
11
12.308014
21
36.731361
0
LINE
8
annotation
62
1
39
211
10
12.308014
20
36.731361
11
12.308020
21
36.731371
0
LINE
8
annotation
62
1
39
211
10
12.308020
20
36.731371
11
12.308020
21
36.731371
0
LINE
8
annotation
62
1
39
211
10
12.308020
20
36.731371
11
12.308243
21
36.731851
0
LINE
8
annotation
62
1
39
211
10
12.308243
20
36.731851
11
12.308373
21
36.732347
0
LINE
8
annotation
62
1
39
211
10
12.308373
20
36.732347
11
12.308414
21
36.732850
0
LINE
8
annotation
62
1
39
211
10
12.308414
20
36.732850
11
12.308368
21
36.733348
0
LINE
8
annotation
62
1
39
211
10
12.308368
20
36.733348
11
12.308240
21
36.733830
0
LINE
8
annotation
62
1
39
211
10
12.308240
20
36.733830
11
12.308031
21
36.734285
0
LINE
8
annotation
62
1
39
211
10
12.308031
20
36.734285
11
12.307745
21
36.734701
0
LINE
8
annotation
62
1
39
211
10
12.307745
20
36.734701
11
12.307386
21
36.735067
0
LINE
8
annotation
62
1
39
211
10
12.307386
20
36.735067
11
12.306956
21
36.735372
0
LINE
8
annotation
62
1
39
211
10
12.306956
20
36.735372
11
12.306956
21
36.735372
0
LINE
8
annotation
62
1
39
211
10
12.306956
20
36.735372
11
12.306475
21
36.735592
0
LINE
8
annotation
62
1
39
211
10
12.306475
20
36.735592
11
12.305978
21
36.735721
0
LINE
8
annotation
62
1
39
211
10
12.305978
20
36.735721
11
12.305475
21
36.735760
0
LINE
8
annotation
62
1
39
211
10
12.305475
20
36.735760
11
12.304976
21
36.735714
0
LINE
8
annotation
62
1
39
211
10
12.304976
20
36.735714
11
12.304495
21
36.735585
0
LINE
8
annotation
62
1
39
211
10
12.304495
20
36.735585
11
12.304041
21
36.735376
0
LINE
8
annotation
62
1
39
211
10
12.304041
20
36.735376
11
12.303625
21
36.735089
0
LINE
8
annotation
62
1
39
211
10
12.303625
20
36.735089
11
12.303260
21
36.734728
0
LINE
8
annotation
62
1
39
211
10
12.303260
20
36.734728
11
12.302955
21
36.734296
0
LINE
8
annotation
62
1
39
211
10
12.302955
20
36.734296
11
12.302571
21
36.733559
0
LINE
8
annotation
62
1
39
211
10
13.768223
20
34.024147
11
13.075689
21
34.024147
0
LINE
8
annotation
62
1
39
211
10
13.075689
20
34.024147
11
13.768223
21
35.271396
0
LINE
8
annotation
62
1
39
211
10
13.768223
20
35.271396
11
13.075689
21
35.271396
0
LINE
8
annotation
62
1
39
211
10
14.918033
20
34.647772
11
14.236059
21
34.647772
0
LINE
8
annotation
62
1
39
211
10
15.662952
20
34.024147
11
15.662952
21
35.271396
0
LINE
8
annotation
62
1
39
211
10
15.662952
20
35.271396
11
15.385673
21
34.994038
0
LINE
8
annotation
62
1
39
211
10
16.812723
20
34.647772
11
16.130749
21
34.647772
0
LINE
8
annotation
62
1
39
211
10
17.834351
20
34.024137
11
17.280418
21
34.024137
0
LINE
8
annotation
62
1
39
211
10
17.280418
20
34.024137
11
17.792270
21
34.848154
0
LINE
8
annotation
62
1
39
211
10
17.792270
20
34.848154
11
17.792270
21
34.848154
0
LINE
8
annotation
62
1
39
211
10
17.792270
20
34.848154
11
17.792882
21
34.848911
0
LINE
8
annotation
62
1
39
211
10
17.792882
20
34.848911
11
17.793469
21
34.849674
0
LINE
8
annotation
62
1
39
211
10
17.793469
20
34.849674
11
17.794035
21
34.850451
0
LINE
8
annotation
62
1
39
211
10
17.794035
20
34.850451
11
17.794583
21
34.851247
0
LINE
8
annotation
62
1
39
211
10
17.794583
20
34.851247
11
17.795117
21
34.852068
0
LINE
8
annotation
62
1
39
211
10
17.795117
20
34.852068
11
17.795642
21
34.852922
0
LINE
8
annotation
62
1
39
211
10
17.795642
20
34.852922
11
17.796162
21
34.853814
0
LINE
8
annotation
62
1
39
211
10
17.796162
20
34.853814
11
17.796679
21
34.854752
0
LINE
8
annotation
62
1
39
211
10
17.796679
20
34.854752
11
17.797198
21
34.855741
0
LINE
8
annotation
62
1
39
211
10
17.797198
20
34.855741
11
17.797198
21
34.855741
0
LINE
8
annotation
62
1
39
211
10
17.797198
20
34.855741
11
17.818332
21
34.901118
0
LINE
8
annotation
62
1
39
211
10
17.818332
20
34.901118
11
17.830679
21
34.948155
0
LINE
8
annotation
62
1
39
211
10
17.830679
20
34.948155
11
17.834539
21
34.995790
0
LINE
8
annotation
62
1
39
211
10
17.834539
20
34.995790
11
17.830217
21
35.042959
0
LINE
8
annotation
62
1
39
211
10
17.830217
20
35.042959
11
17.818015
21
35.088600
0
LINE
8
annotation
62
1
39
211
10
17.818015
20
35.088600
11
17.798235
21
35.131650
0
LINE
8
annotation
62
1
39
211
10
17.798235
20
35.131650
11
17.771180
21
35.171046
0
LINE
8
annotation
62
1
39
211
10
17.771180
20
35.171046
11
17.737152
21
35.205725
0
LINE
8
annotation
62
1
39
211
10
17.737152
20
35.205725
11
17.696454
21
35.234624
0
LINE
8
annotation
62
1
39
211
10
17.696454
20
35.234624
11
17.696454
21
35.234624
0
LINE
8
annotation
62
1
39
211
10
17.696454
20
35.234624
11
17.650951
21
35.255458
0
LINE
8
annotation
62
1
39
211
10
17.650951
20
35.255458
11
17.603842
21
35.267614
0
LINE
8
annotation
62
1
39
211
10
17.603842
20
35.267614
11
17.556179
21
35.271366
0
LINE
8
annotation
62
1
39
211
10
17.556179
20
35.271366
11
17.509017
21
35.266987
0
LINE
8
annotation
62
1
39
211
10
17.509017
20
35.266987
11
17.463409
21
35.254751
0
LINE
8
annotation
62
1
39
211
10
17.463409
20
35.254751
11
17.420406
21
35.234931
0
LINE
8
annotation
62
1
39
211
10
17.420406
20
35.234931
11
17.381064
21
35.207801
0
LINE
8
annotation
62
1
39
211
10
17.381064
20
35.207801
11
17.346434
21
35.173636
0
LINE
8
annotation
62
1
39
211
10
17.346434
20
35.173636
11
17.317571
21
35.132707
0
LINE
8
annotation
62
1
39
211
10
17.317571
20
35.132707
11
17.281200
21
35.062938
0
LINE
8
boundary
62
5
39
2
10
26.360445
20
37.007968
11
24.570177
21
38.404781
0
LINE
8
boundary
62
5
39
2
10
24.570177
20
38.404781
11
22.585375
21
39.096590
0
LINE
8
boundary
62
5
39
2
10
22.585375
20
39.096590
11
21.416061
21
37.047891
0
LINE
8
boundary
62
5
39
2
10
21.416061
20
37.047891
11
21.395250
21
36.981468
0
LINE
8
boundary
62
5
39
2
10
21.395250
20
36.981468
11
24.151847
21
36.981468
0
LINE
8
boundary
62
5
39
2
10
24.151847
20
36.981468
11
26.347915
21
36.981468
0
LINE
8
boundary
62
5
39
2
10
26.347915
20
36.981468
11
26.360445
21
37.007968
0
LINE
8
boundary
62
5
39
2
10
28.938928
20
34.248568
11
28.155298
21
35.552031
0
LINE
8
boundary
62
5
39
2
10
28.155298
20
35.552031
11
28.154533
21
35.553521
0
LINE
8
boundary
62
5
39
2
10
28.154533
20
35.553521
11
28.090753
21
35.657938
0
LINE
8
boundary
62
5
39
2
10
28.090753
20
35.657938
11
27.041146
21
36.476868
0
LINE
8
boundary
62
5
39
2
10
27.041146
20
36.476868
11
21.352735
21
36.476868
0
LINE
8
boundary
62
5
39
2
10
21.352735
20
36.476868
11
21.352735
21
36.845779
0
LINE
8
boundary
62
5
39
2
10
21.352735
20
36.845779
11
20.620296
21
34.508125
0
LINE
8
boundary
62
5
39
2
10
20.620296
20
34.508125
11
20.484899
21
33.257412
0
LINE
8
boundary
62
5
39
2
10
20.484899
20
33.257412
11
20.278351
21
32.093641
0
LINE
8
boundary
62
5
39
2
10
20.278351
20
32.093641
11
22.200452
21
32.592838
0
LINE
8
boundary
62
5
39
2
10
22.200452
20
32.592838
11
25.404545
21
32.276447
0
LINE
8
boundary
62
5
39
2
10
25.404545
20
32.276447
11
25.997232
21
32.630416
0
LINE
8
boundary
62
5
39
2
10
25.997232
20
32.630416
11
26.953415
21
32.769066
0
LINE
8
boundary
62
5
39
2
10
26.953415
20
32.769066
11
28.938928
21
34.248568
0
LINE
8
annotation
62
1
39
211
10
23.267349
20
36.305161
11
22.890732
21
36.305161
0
LINE
8
annotation
62
1
39
211
10
22.890732
20
36.305161
11
23.238738
21
36.865407
0
LINE
8
annotation
62
1
39
211
10
23.238738
20
36.865407
11
23.238738
21
36.865407
0
LINE
8
annotation
62
1
39
211
10
23.238738
20
36.865407
11
23.239154
21
36.865922
0
LINE
8
annotation
62
1
39
211
10
23.239154
20
36.865922
11
23.239553
21
36.866441
0
LINE
8
annotation
62
1
39
211
10
23.239553
20
36.866441
11
23.239938
21
36.866969
0
LINE
8
annotation
62
1
39
211
10
23.239938
20
36.866969
11
23.240310
21
36.867510
0
LINE
8
annotation
62
1
39
211
10
23.240310
20
36.867510
11
23.240674
21
36.868069
0
LINE
8
annotation
62
1
39
211
10
23.240674
20
36.868069
11
23.241031
21
36.868649
0
LINE
8
annotation
62
1
39
211
10
23.241031
20
36.868649
11
23.241384
21
36.869256
0
LINE
8
annotation
62
1
39
211
10
23.241384
20
36.869256
11
23.241736
21
36.869893
0
LINE
8
annotation
62
1
39
211
10
23.241736
20
36.869893
11
23.242089
21
36.870566
0
LINE
8
annotation
62
1
39
211
10
23.242089
20
36.870566
11
23.242089
21
36.870566
0
LINE
8
annotation
62
1
39
211
10
23.242089
20
36.870566
11
23.256458
21
36.901417
0
LINE
8
annotation
62
1
39
211
10
23.256458
20
36.901417
11
23.264852
21
36.933398
0
LINE
8
annotation
62
1
39
211
10
23.264852
20
36.933398
11
23.267477
21
36.965784
0
LINE
8
annotation
62
1
39
211
10
23.267477
20
36.965784
11
23.264538
21
36.997855
0
LINE
8
annotation
62
1
39
211
10
23.264538
20
36.997855
11
23.256242
21
37.028886
0
LINE
8
annotation
62
1
39
211
10
23.256242
20
37.028886
11
23.242794
21
37.058155
0
LINE
8
annotation
62
1
39
211
10
23.242794
20
37.058155
11
23.224399
21
37.084940
0
LINE
8
annotation
62
1
39
211
10
23.224399
20
37.084940
11
23.201264
21
37.108518
0
LINE
8
annotation
62
1
39
211
10
23.201264
20
37.108518
11
23.173593
21
37.128167
0
LINE
8
annotation
62
1
39
211
10
23.173593
20
37.128167
11
23.173593
21
37.128167
0
LINE
8
annotation
62
1
39
211
10
23.173593
20
37.128167
11
23.142656
21
37.142332
0
LINE
8
annotation
62
1
39
211
10
23.142656
20
37.142332
11
23.110626
21
37.150597
0
LINE
8
annotation
62
1
39
211
10
23.110626
20
37.150597
11
23.078221
21
37.153147
0
LINE
8
annotation
62
1
39
211
10
23.078221
20
37.153147
11
23.046155
21
37.150170
0
LINE
8
annotation
62
1
39
211
10
23.046155
20
37.150170
11
23.015146
21
37.141851
0
LINE
8
annotation
62
1
39
211
10
23.015146
20
37.141851
11
22.985909
21
37.128376
0
LINE
8
annotation
62
1
39
211
10
22.985909
20
37.128376
11
22.959160
21
37.109930
0
LINE
8
annotation
62
1
39
211
10
22.959160
20
37.109930
11
22.935616
21
37.086701
0
LINE
8
annotation
62
1
39
211
10
22.935616
20
37.086701
11
22.915992
21
37.058874
0
LINE
8
annotation
62
1
39
211
10
22.915992
20
37.058874
11
22.891263
21
37.011438
0
LINE
8
annotation
62
1
39
211
10
21.326494
20
36.722582
11
21.320644
21
36.722582
0
LINE
8
annotation
62
1
39
211
10
21.320644
20
36.722582
11
21.326049
21
36.731284
0
LINE
8
annotation
62
1
39
211
10
21.326049
20
36.731284
11
21.326049
21
36.731284
0
LINE
8
annotation
62
1
39
211
10
21.326049
20
36.731284
11
21.326056
21
36.731292
0
LINE
8
annotation
62
1
39
211
10
21.326056
20
36.731292
11
21.326062
21
36.731300
0
LINE
8
annotation
62
1
39
211
10
21.326062
20
36.731300
11
21.326068
21
36.731309
0
LINE
8
annotation
62
1
39
211
10
21.326068
20
36.731309
11
21.326074
21
36.731317
0
LINE
8
annotation
62
1
39
211
10
21.326074
20
36.731317
11
21.326079
21
36.731326
0
LINE
8
annotation
62
1
39
211
10
21.326079
20
36.731326
11
21.326085
21
36.731335
0
LINE
8
annotation
62
1
39
211
10
21.326085
20
36.731335
11
21.326090
21
36.731344
0
LINE
8
annotation
62
1
39
211
10
21.326090
20
36.731344
11
21.326096
21
36.731354
0
LINE
8
annotation
62
1
39
211
10
21.326096
20
36.731354
11
21.326101
21
36.731364
0
LINE
8
annotation
62
1
39
211
10
21.326101
20
36.731364
11
21.326101
21
36.731364
0
LINE
8
annotation
62
1
39
211
10
21.326101
20
36.731364
11
21.326325
21
36.731844
0
LINE
8
annotation
62
1
39
211
10
21.326325
20
36.731844
11
21.326455
21
36.732340
0
LINE
8
annotation
62
1
39
211
10
21.326455
20
36.732340
11
21.326496
21
36.732844
0
LINE
8
annotation
62
1
39
211
10
21.326496
20
36.732844
11
21.326450
21
36.733342
0
LINE
8
annotation
62
1
39
211
10
21.326450
20
36.733342
11
21.326321
21
36.733824
0
LINE
8
annotation
62
1
39
211
10
21.326321
20
36.733824
11
21.326112
21
36.734278
0
LINE
8
annotation
62
1
39
211
10
21.326112
20
36.734278
11
21.325827
21
36.734694
0
LINE
8
annotation
62
1
39
211
10
21.325827
20
36.734694
11
21.325467
21
36.735061
0
LINE
8
annotation
62
1
39
211
10
21.325467
20
36.735061
11
21.325037
21
36.735366
0
LINE
8
annotation
62
1
39
211
10
21.325037
20
36.735366
11
21.325037
21
36.735366
0
LINE
8
annotation
62
1
39
211
10
21.325037
20
36.735366
11
21.324557
21
36.735586
0
LINE
8
annotation
62
1
39
211
10
21.324557
20
36.735586
11
21.324059
21
36.735714
0
LINE
8
annotation
62
1
39
211
10
21.324059
20
36.735714
11
21.323556
21
36.735754
0
LINE
8
annotation
62
1
39
211
10
21.323556
20
36.735754
11
21.323058
21
36.735708
0
LINE
8
annotation
62
1
39
211
10
21.323058
20
36.735708
11
21.322576
21
36.735578
0
LINE
8
annotation
62
1
39
211
10
21.322576
20
36.735578
11
21.322122
21
36.735369
0
LINE
8
annotation
62
1
39
211
10
21.322122
20
36.735369
11
21.321707
21
36.735083
0
LINE
8
annotation
62
1
39
211
10
21.321707
20
36.735083
11
21.321341
21
36.734722
0
LINE
8
annotation
62
1
39
211
10
21.321341
20
36.734722
11
21.321036
21
36.734289
0
LINE
8
annotation
62
1
39
211
10
21.321036
20
36.734289
11
21.320652
21
36.733553
0
LINE
8
annotation
62
1
39
211
10
22.786047
20
34.024146
11
22.093514
21
34.024146
0
LINE
8
annotation
62
1
39
211
10
22.093514
20
34.024146
11
22.786047
21
35.271394
0
LINE
8
annotation
62
1
39
211
10
22.786047
20
35.271394
11
22.093514
21
35.271394
0
LINE
8
annotation
62
1
39
211
10
23.935856
20
34.647770
11
23.253882
21
34.647770
0
LINE
8
annotation
62
1
39
211
10
24.680775
20
34.024146
11
24.958054
21
35.271394
0
LINE
8
annotation
62
1
39
211
10
24.958054
20
35.271394
11
24.403417
21
35.271394
0
LINE
8
annotation
62
1
39
211
10
24.958054
20
34.715975
11
24.680775
21
34.715975
0
LINE
8
annotation
62
1
39
211
10
26.107902
20
34.647770
11
25.425928
21
34.647770
0
LINE
8
annotation
62
1
39
211
10
26.852821
20
34.024146
11
26.852821
21
35.271394
0
LINE
8
annotation
62
1
39
211
10
26.852821
20
35.271394
11
26.575542
21
34.994037
0
LINE
8
frame
62
5
39
2
10
0.000000
20
0.000000
11
40.000000
21
0.000000
0
LINE
8
frame
62
5
39
2
10
40.000000
20
0.000000
11
40.000000
21
40.000000
0
LINE
8
frame
62
5
39
2
10
40.000000
20
40.000000
11
0.000000
21
40.000000
0
LINE
8
frame
62
5
39
2
10
0.000000
20
40.000000
11
0.000000
21
0.000000
0
ENDSEC
0
EOF
