0
SECTION
2
HEADER
9
$ACADVER
1
AC1009
0
ENDSEC
0
SECTION
2
TABLES
0
TABLE
2
VPORT
70
1
0
VPORT
2
ACTIVE
70
0
10
0.0
20
0.0
11
0.0
21
0.0
12
0.0
22
0.0
13
0.0
23
0.0
14
0.0
24
0.0
15
0.0
25
0.0
16
0.0
26
0.0
36
0.0
17
0.0
27
0.0
37
0.0
40
0.0
41
0.0
42
0.0
43
0.0
44
0.0
50
0.0
51
0.0
71
0
72
1000
73
1
74
3
75
0
76
0
77
0
78
0
0
ENDTAB
0
ENDSEC
0
SECTION
2
ENTITIES
0
LINE
8
boundary
62
5
39
2
10
32.211862
20
34.461904
11
32.204212
21
34.464071
0
LINE
8
boundary
62
5
39
2
10
32.204212
20
34.464071
11
32.203081
21
34.464380
0
LINE
8
boundary
62
5
39
2
10
32.203081
20
34.464380
11
32.059305
21
34.506226
0
LINE
8
boundary
62
5
39
2
10
32.059305
20
34.506226
11
32.058187
21
34.505356
0
LINE
8
boundary
62
5
39
2
10
32.058187
20
34.505356
11
32.052781
21
34.497198
0
LINE
8
boundary
62
5
39
2
10
32.052781
20
34.497198
11
31.979263
21
34.525290
0
LINE
8
boundary
62
5
39
2
10
31.979263
20
34.525290
11
31.978713
21
34.525559
0
LINE
8
boundary
62
5
39
2
10
31.978713
20
34.525559
11
31.978694
21
34.525599
0
LINE
8
boundary
62
5
39
2
10
31.978694
20
34.525599
11
31.834545
21
34.569772
0
LINE
8
boundary
62
5
39
2
10
31.834545
20
34.569772
11
31.834526
21
34.569867
0
LINE
8
boundary
62
5
39
2
10
31.834526
20
34.569867
11
31.834379
21
34.569568
0
LINE
8
boundary
62
5
39
2
10
31.834379
20
34.569568
11
31.468128
21
33.408118
0
LINE
8
boundary
62
5
39
2
10
31.468128
20
33.408118
11
31.468100
21
33.408062
0
LINE
8
boundary
62
5
39
2
10
31.468100
20
33.408062
11
31.467138
21
33.406717
0
LINE
8
boundary
62
5
39
2
10
31.467138
20
33.406717
11
31.460648
21
33.397607
0
LINE
8
boundary
62
5
39
2
10
31.460648
20
33.397607
11
31.134478
21
32.940299
0
LINE
8
boundary
62
5
39
2
10
31.134478
20
32.940299
11
31.115350
21
33.118047
0
LINE
8
boundary
62
5
39
2
10
31.115350
20
33.118047
11
31.115165
21
33.118393
0
LINE
8
boundary
62
5
39
2
10
31.115165
20
33.118393
11
31.068630
21
33.105676
0
LINE
8
boundary
62
5
39
2
10
31.068630
20
33.105676
11
30.985810
21
33.083359
0
LINE
8
boundary
62
5
39
2
10
30.985810
20
33.083359
11
31.268602
21
33.485424
0
LINE
8
boundary
62
5
39
2
10
31.268602
20
33.485424
11
31.269854
21
33.487211
0
LINE
8
boundary
62
5
39
2
10
31.269854
20
33.487211
11
31.269880
21
33.487248
0
LINE
8
boundary
62
5
39
2
10
31.269880
20
33.487248
11
31.635599
21
34.647242
0
LINE
8
boundary
62
5
39
2
10
31.635599
20
34.647242
11
31.635733
21
34.647499
0
LINE
8
boundary
62
5
39
2
10
31.635733
20
34.647499
11
31.853141
21
35.086111
0
LINE
8
boundary
62
5
39
2
10
31.853141
20
35.086111
11
31.594914
21
36.230886
0
LINE
8
boundary
62
5
39
2
10
31.594914
20
36.230886
11
31.371919
21
36.393318
0
LINE
8
boundary
62
5
39
2
10
31.371919
20
36.393318
11
30.630632
21
36.933241
0
LINE
8
boundary
62
5
39
2
10
30.630632
20
36.933241
11
30.530504
21
36.917530
0
LINE
8
boundary
62
5
39
2
10
30.530504
20
36.917530
11
28.640602
21
36.620946
0
LINE
8
boundary
62
5
39
2
10
28.640602
20
36.620946
11
26.988447
21
36.423136
0
LINE
8
boundary
62
5
39
2
10
26.988447
20
36.423136
11
26.988404
21
36.423131
0
LINE
8
boundary
62
5
39
2
10
26.988404
20
36.423131
11
24.697433
21
35.939840
0
LINE
8
boundary
62
5
39
2
10
24.697433
20
35.939840
11
23.580146
21
35.165430
0
LINE
8
boundary
62
5
39
2
10
23.580146
20
35.165430
11
22.161786
21
34.224339
0
LINE
8
boundary
62
5
39
2
10
22.161786
20
34.224339
11
20.401197
21
32.788966
0
LINE
8
boundary
62
5
39
2
10
20.401197
20
32.788966
11
19.844066
21
31.398761
0
LINE
8
boundary
62
5
39
2
10
19.844066
20
31.398761
11
19.497086
21
30.025811
0
LINE
8
boundary
62
5
39
2
10
19.497086
20
30.025811
11
18.926803
21
28.908746
0
LINE
8
boundary
62
5
39
2
10
18.926803
20
28.908746
11
18.926740
21
28.908701
0
LINE
8
boundary
62
5
39
2
10
18.926740
20
28.908701
11
17.560307
21
27.900567
0
LINE
8
boundary
62
5
39
2
10
17.560307
20
27.900567
11
16.007903
21
26.715859
0
LINE
8
boundary
62
5
39
2
10
16.007903
20
26.715859
11
15.148818
21
26.042505
0
LINE
8
boundary
62
5
39
2
10
15.148818
20
26.042505
11
15.140841
21
26.034426
0
LINE
8
boundary
62
5
39
2
10
15.140841
20
26.034426
11
15.119411
21
26.026177
0
LINE
8
boundary
62
5
39
2
10
15.119411
20
26.026177
11
10.631750
21
24.210724
0
LINE
8
boundary
62
5
39
2
10
10.631750
20
24.210724
11
8.067318
21
22.579082
0
LINE
8
boundary
62
5
39
2
10
8.067318
20
22.579082
11
7.786465
21
22.306212
0
LINE
8
boundary
62
5
39
2
10
7.786465
20
22.306212
11
7.786465
21
21.748612
0
LINE
8
boundary
62
5
39
2
10
7.786465
20
21.748612
11
7.321958
21
21.748612
0
LINE
8
boundary
62
5
39
2
10
7.321958
20
21.748612
11
7.309428
21
21.775112
0
LINE
8
boundary
62
5
39
2
10
7.309428
20
21.775112
11
7.309428
21
21.842732
0
LINE
8
boundary
62
5
39
2
10
7.309428
20
21.842732
11
5.344058
21
19.933220
0
LINE
8
boundary
62
5
39
2
10
5.344058
20
19.933220
11
3.059807
21
16.459804
0
LINE
8
boundary
62
5
39
2
10
3.059807
20
16.459804
11
1.188174
21
11.817334
0
LINE
8
boundary
62
5
39
2
10
1.188174
20
11.817334
11
1.188072
21
11.816289
0
LINE
8
boundary
62
5
39
2
10
1.188072
20
11.816289
11
0.691444
21
6.680297
0
LINE
8
boundary
62
5
39
2
10
0.691444
20
6.680297
11
0.698196
21
6.663754
0
LINE
8
boundary
62
5
39
2
10
0.698196
20
6.663754
11
0.686750
21
6.679014
0
LINE
8
boundary
62
5
39
2
10
0.686750
20
6.679014
11
0.725447
21
6.576901
0
LINE
8
boundary
62
5
39
2
10
0.725447
20
6.576901
11
0.742045
21
6.555292
0
LINE
8
boundary
62
5
39
2
10
0.742045
20
6.555292
11
2.679519
21
3.056781
0
LINE
8
boundary
62
5
39
2
10
2.679519
20
3.056781
11
4.459735
21
1.512341
0
LINE
8
boundary
62
5
39
2
10
4.459735
20
1.512341
11
4.459735
21
1.528696
0
LINE
8
boundary
62
5
39
2
10
4.459735
20
1.528696
11
4.472265
21
1.555196
0
LINE
8
boundary
62
5
39
2
10
4.472265
20
1.555196
11
4.723761
21
1.555196
0
LINE
8
boundary
62
5
39
2
10
4.723761
20
1.555196
11
4.723761
21
0.997596
0
LINE
8
boundary
62
5
39
2
10
4.723761
20
0.997596
11
4.806357
21
0.686750
0
LINE
8
boundary
62
5
39
2
10
4.806357
20
0.686750
11
5.627525
21
0.883049
0
LINE
8
boundary
62
5
39
2
10
5.627525
20
0.883049
11
6.219772
21
0.997596
0
LINE
8
boundary
62
5
39
2
10
6.219772
20
0.997596
11
6.207242
21
1.024096
0
LINE
8
boundary
62
5
39
2
10
6.207242
20
1.024096
11
6.114089
21
1.024096
0
LINE
8
boundary
62
5
39
2
10
6.114089
20
1.024096
11
6.114089
21
1.528696
0
LINE
8
boundary
62
5
39
2
10
6.114089
20
1.528696
11
7.919294
21
1.528696
0
LINE
8
boundary
62
5
39
2
10
7.919294
20
1.528696
11
7.943008
21
1.528696
0
LINE
8
boundary
62
5
39
2
10
7.943008
20
1.528696
11
7.990298
21
1.528696
0
LINE
8
boundary
62
5
39
2
10
7.990298
20
1.528696
11
8.036220
21
1.555196
0
LINE
8
boundary
62
5
39
2
10
8.036220
20
1.555196
11
11.119682
21
3.334562
0
LINE
8
boundary
62
5
39
2
10
11.119682
20
3.334562
11
13.007289
21
5.116430
0
LINE
8
boundary
62
5
39
2
10
13.007289
20
5.116430
11
14.551277
21
8.301373
0
LINE
8
boundary
62
5
39
2
10
14.551277
20
8.301373
11
16.412142
21
10.994902
0
LINE
8
boundary
62
5
39
2
10
16.412142
20
10.994902
11
16.837502
21
11.373104
0
LINE
8
boundary
62
5
39
2
10
16.837502
20
11.373104
11
16.824972
21
11.399604
0
LINE
8
boundary
62
5
39
2
10
16.824972
20
11.399604
11
9.174322
21
11.399604
0
LINE
8
boundary
62
5
39
2
10
9.174322
20
11.399604
11
9.174322
21
11.904204
0
LINE
8
boundary
62
5
39
2
10
9.174322
20
11.904204
11
17.434826
21
11.904204
0
LINE
8
boundary
62
5
39
2
10
17.434826
20
11.904204
11
19.003659
21
13.299105
0
LINE
8
boundary
62
5
39
2
10
19.003659
20
13.299105
11
21.331788
21
15.656664
0
LINE
8
boundary
62
5
39
2
10
21.331788
20
15.656664
11
24.442065
21
19.776345
0
LINE
8
boundary
62
5
39
2
10
24.442065
20
19.776345
11
25.318764
21
21.748612
0
LINE
8
boundary
62
5
39
2
10
25.318764
20
21.748612
11
25.306234
21
21.775112
0
LINE
8
boundary
62
5
39
2
10
25.306234
20
21.775112
11
16.483802
21
21.775112
0
LINE
8
boundary
62
5
39
2
10
16.483802
20
21.775112
11
16.483802
21
22.279712
0
LINE
8
boundary
62
5
39
2
10
16.483802
20
22.279712
11
25.554095
21
22.279712
0
LINE
8
boundary
62
5
39
2
10
25.554095
20
22.279712
11
25.566625
21
22.306211
0
LINE
8
boundary
62
5
39
2
10
25.566625
20
22.306211
11
26.080219
21
23.461619
0
LINE
8
boundary
62
5
39
2
10
26.080219
20
23.461619
11
26.484406
21
25.891181
0
LINE
8
boundary
62
5
39
2
10
26.484406
20
25.891181
11
26.484398
21
25.892167
0
LINE
8
boundary
62
5
39
2
10
26.484398
20
25.892167
11
26.469160
21
27.120381
0
LINE
8
boundary
62
5
39
2
10
26.469160
20
27.120381
11
26.653574
21
27.517630
0
LINE
8
boundary
62
5
39
2
10
26.653574
20
27.517630
11
26.799258
21
27.831459
0
LINE
8
boundary
62
5
39
2
10
26.799258
20
27.831459
11
27.118973
21
28.320760
0
LINE
8
boundary
62
5
39
2
10
27.118973
20
28.320760
11
27.332088
21
28.647518
0
LINE
8
boundary
62
5
39
2
10
27.332088
20
28.647518
11
27.363483
21
28.716521
0
LINE
8
boundary
62
5
39
2
10
27.363483
20
28.716521
11
27.364079
21
28.717718
0
LINE
8
boundary
62
5
39
2
10
27.364079
20
28.717718
11
27.390224
21
28.775275
0
LINE
8
boundary
62
5
39
2
10
27.390224
20
28.775275
11
27.503994
21
29.027324
0
LINE
8
boundary
62
5
39
2
10
27.503994
20
29.027324
11
28.097531
21
29.757654
0
LINE
8
boundary
62
5
39
2
10
28.097531
20
29.757654
11
29.406071
21
30.709066
0
LINE
8
boundary
62
5
39
2
10
29.406071
20
30.709066
11
29.406097
21
30.709094
0
LINE
8
boundary
62
5
39
2
10
29.406097
20
30.709094
11
30.177607
21
31.581860
0
LINE
8
boundary
62
5
39
2
10
30.177607
20
31.581860
11
30.177641
21
31.581938
0
LINE
8
boundary
62
5
39
2
10
30.177641
20
31.581938
11
30.399140
21
32.124120
0
LINE
8
boundary
62
5
39
2
10
30.399140
20
32.124120
11
30.386610
21
32.150620
0
LINE
8
boundary
62
5
39
2
10
30.386610
20
32.150620
11
25.367189
21
32.150620
0
LINE
8
boundary
62
5
39
2
10
25.367189
20
32.150620
11
25.367189
21
32.655220
0
LINE
8
boundary
62
5
39
2
10
25.367189
20
32.655220
11
30.423912
21
32.655220
0
LINE
8
boundary
62
5
39
2
10
30.423912
20
32.655220
11
30.436442
21
32.681720
0
LINE
8
boundary
62
5
39
2
10
30.436442
20
32.681720
11
30.416515
21
32.894957
0
LINE
8
boundary
62
5
39
2
10
30.416515
20
32.894957
11
30.416549
21
32.894969
0
LINE
8
boundary
62
5
39
2
10
30.416549
20
32.894969
11
30.417638
21
32.894907
0
LINE
8
boundary
62
5
39
2
10
30.417638
20
32.894907
11
30.614084
21
32.885546
0
LINE
8
boundary
62
5
39
2
10
30.614084
20
32.885546
11
30.677976
21
32.270367
0
LINE
8
boundary
62
5
39
2
10
30.677976
20
32.270367
11
30.677988
21
32.270255
0
LINE
8
boundary
62
5
39
2
10
30.677988
20
32.270255
11
30.677708
21
32.269555
0
LINE
8
boundary
62
5
39
2
10
30.677708
20
32.269555
11
30.362341
21
31.481567
0
LINE
8
boundary
62
5
39
2
10
30.362341
20
31.481567
11
30.362331
21
31.481543
0
LINE
8
boundary
62
5
39
2
10
30.362331
20
31.481543
11
29.549207
21
30.556002
0
LINE
8
boundary
62
5
39
2
10
29.549207
20
30.556002
11
29.549185
21
30.555978
0
LINE
8
boundary
62
5
39
2
10
29.549185
20
30.555978
11
29.549167
21
30.555957
0
LINE
8
boundary
62
5
39
2
10
29.549167
20
30.555957
11
28.225460
21
29.599246
0
LINE
8
boundary
62
5
39
2
10
28.225460
20
29.599246
11
28.225419
21
29.599223
0
LINE
8
boundary
62
5
39
2
10
28.225419
20
29.599223
11
28.224730
21
29.598327
0
LINE
8
boundary
62
5
39
2
10
28.224730
20
29.598327
11
28.229611
21
29.593826
0
LINE
8
boundary
62
5
39
2
10
28.229611
20
29.593826
11
28.343883
21
29.414327
0
LINE
8
boundary
62
5
39
2
10
28.343883
20
29.414327
11
28.349993
21
29.419043
0
LINE
8
boundary
62
5
39
2
10
28.349993
20
29.419043
11
28.347872
21
29.416168
0
LINE
8
boundary
62
5
39
2
10
28.347872
20
29.416168
11
28.349979
21
29.416540
0
LINE
8
boundary
62
5
39
2
10
28.349979
20
29.416540
11
28.350114
21
29.416620
0
LINE
8
boundary
62
5
39
2
10
28.350114
20
29.416620
11
28.350566
21
29.416864
0
LINE
8
boundary
62
5
39
2
10
28.350566
20
29.416864
11
28.351832
21
29.416839
0
LINE
8
boundary
62
5
39
2
10
28.351832
20
29.416839
11
28.365867
21
29.414874
0
LINE
8
boundary
62
5
39
2
10
28.365867
20
29.414874
11
28.456932
21
29.316852
0
LINE
8
boundary
62
5
39
2
10
28.456932
20
29.316852
11
28.459449
21
29.313790
0
LINE
8
boundary
62
5
39
2
10
28.459449
20
29.313790
11
28.459511
21
29.313171
0
LINE
8
boundary
62
5
39
2
10
28.459511
20
29.313171
11
28.459662
21
29.313200
0
LINE
8
boundary
62
5
39
2
10
28.459662
20
29.313200
11
28.551846
21
29.201863
0
LINE
8
boundary
62
5
39
2
10
28.551846
20
29.201863
11
28.551953
21
29.201876
0
LINE
8
boundary
62
5
39
2
10
28.551953
20
29.201876
11
28.552110
21
29.202118
0
LINE
8
boundary
62
5
39
2
10
28.552110
20
29.202118
11
28.552139
21
29.202133
0
LINE
8
boundary
62
5
39
2
10
28.552139
20
29.202133
11
29.919996
21
30.184650
0
LINE
8
boundary
62
5
39
2
10
29.919996
20
30.184650
11
30.824279
21
31.238122
0
LINE
8
boundary
62
5
39
2
10
30.824279
20
31.238122
11
30.824289
21
31.238146
0
LINE
8
boundary
62
5
39
2
10
30.824289
20
31.238146
11
31.169384
21
32.124120
0
LINE
8
boundary
62
5
39
2
10
31.169384
20
32.124120
11
31.156854
21
32.150620
0
LINE
8
boundary
62
5
39
2
10
31.156854
20
32.150620
11
30.919460
21
32.150620
0
LINE
8
boundary
62
5
39
2
10
30.919460
20
32.150620
11
30.919460
21
32.655220
0
LINE
8
boundary
62
5
39
2
10
30.919460
20
32.655220
11
31.568605
21
32.655220
0
LINE
8
boundary
62
5
39
2
10
31.568605
20
32.655220
11
31.589004
21
32.655220
0
LINE
8
boundary
62
5
39
2
10
31.589004
20
32.655220
11
31.607251
21
32.681720
0
LINE
8
boundary
62
5
39
2
10
31.607251
20
32.681720
11
31.972409
21
33.212042
0
LINE
8
boundary
62
5
39
2
10
31.972409
20
33.212042
11
32.347966
21
34.423518
0
LINE
8
boundary
62
5
39
2
10
32.347966
20
34.423518
11
32.348023
21
34.423665
0
LINE
8
boundary
62
5
39
2
10
32.348023
20
34.423665
11
32.211862
21
34.461904
0
LINE
8
annotation
62
1
39
211
10
4.018425
20
1.088233
11
4.018425
21
1.464558
0
LINE
8
annotation
62
1
39
211
10
4.018425
20
1.464558
11
3.934763
21
1.380873
0
LINE
8
annotation
62
1
39
211
10
7.751477
20
1.208299
11
7.751477
21
1.344493
0
LINE
8
annotation
62
1
39
211
10
7.751477
20
1.344493
11
7.721200
21
1.314207
0
LINE
8
annotation
62
1
39
211
10
5.577788
20
1.046532
11
5.577788
21
1.506260
0
LINE
8
annotation
62
1
39
211
10
5.577788
20
1.506260
11
5.475584
21
1.404028
0
LINE
8
annotation
62
1
39
211
10
8.289824
20
11.227897
11
7.913207
21
11.227897
0
LINE
8
annotation
62
1
39
211
10
7.913207
20
11.227897
11
8.261213
21
11.788143
0
LINE
8
annotation
62
1
39
211
10
8.261213
20
11.788143
11
8.261213
21
11.788143
0
LINE
8
annotation
62
1
39
211
10
8.261213
20
11.788143
11
8.261629
21
11.788658
0
LINE
8
annotation
62
1
39
211
10
8.261629
20
11.788658
11
8.262028
21
11.789177
0
LINE
8
annotation
62
1
39
211
10
8.262028
20
11.789177
11
8.262413
21
11.789705
0
LINE
8
annotation
62
1
39
211
10
8.262413
20
11.789705
11
8.262786
21
11.790246
0
LINE
8
annotation
62
1
39
211
10
8.262786
20
11.790246
11
8.263149
21
11.790804
0
LINE
8
annotation
62
1
39
211
10
8.263149
20
11.790804
11
8.263506
21
11.791385
0
LINE
8
annotation
62
1
39
211
10
8.263506
20
11.791385
11
8.263859
21
11.791991
0
LINE
8
annotation
62
1
39
211
10
8.263859
20
11.791991
11
8.264211
21
11.792629
0
LINE
8
annotation
62
1
39
211
10
8.264211
20
11.792629
11
8.264564
21
11.793301
0
LINE
8
annotation
62
1
39
211
10
8.264564
20
11.793301
11
8.264564
21
11.793301
0
LINE
8
annotation
62
1
39
211
10
8.264564
20
11.793301
11
8.278933
21
11.824153
0
LINE
8
annotation
62
1
39
211
10
8.278933
20
11.824153
11
8.287327
21
11.856133
0
LINE
8
annotation
62
1
39
211
10
8.287327
20
11.856133
11
8.289952
21
11.888520
0
LINE
8
annotation
62
1
39
211
10
8.289952
20
11.888520
11
8.287013
21
11.920590
0
LINE
8
annotation
62
1
39
211
10
8.287013
20
11.920590
11
8.278717
21
11.951621
0
LINE
8
annotation
62
1
39
211
10
8.278717
20
11.951621
11
8.265269
21
11.980891
0
LINE
8
annotation
62
1
39
211
10
8.265269
20
11.980891
11
8.246874
21
12.007676
0
LINE
8
annotation
62
1
39
211
10
8.246874
20
12.007676
11
8.223739
21
12.031254
0
LINE
8
annotation
62
1
39
211
10
8.223739
20
12.031254
11
8.196069
21
12.050903
0
LINE
8
annotation
62
1
39
211
10
8.196069
20
12.050903
11
8.196069
21
12.050903
0
LINE
8
annotation
62
1
39
211
10
8.196069
20
12.050903
11
8.165131
21
12.065067
0
LINE
8
annotation
62
1
39
211
10
8.165131
20
12.065067
11
8.133102
21
12.073332
0
LINE
8
annotation
62
1
39
211
10
8.133102
20
12.073332
11
8.100696
21
12.075883
0
LINE
8
annotation
62
1
39
211
10
8.100696
20
12.075883
11
8.068631
21
12.072906
0
LINE
8
annotation
62
1
39
211
10
8.068631
20
12.072906
11
8.037621
21
12.064587
0
LINE
8
annotation
62
1
39
211
10
8.037621
20
12.064587
11
8.008384
21
12.051111
0
LINE
8
annotation
62
1
39
211
10
8.008384
20
12.051111
11
7.981636
21
12.032666
0
LINE
8
annotation
62
1
39
211
10
7.981636
20
12.032666
11
7.958091
21
12.009437
0
LINE
8
annotation
62
1
39
211
10
7.958091
20
12.009437
11
7.938467
21
11.981610
0
LINE
8
annotation
62
1
39
211
10
7.938467
20
11.981610
11
7.913739
21
11.934174
0
LINE
8
annotation
62
1
39
211
10
6.854749
20
21.877312
11
6.921416
21
21.877312
0
LINE
8
annotation
62
1
39
211
10
6.921416
20
21.877312
11
6.921416
21
21.877312
0
LINE
8
annotation
62
1
39
211
10
6.921416
20
21.877312
11
6.933407
21
21.878387
0
LINE
8
annotation
62
1
39
211
10
6.933407
20
21.878387
11
6.944689
21
21.881487
0
LINE
8
annotation
62
1
39
211
10
6.944689
20
21.881487
11
6.955076
21
21.886421
0
LINE
8
annotation
62
1
39
211
10
6.955076
20
21.886421
11
6.964380
21
21.892999
0
LINE
8
annotation
62
1
39
211
10
6.964380
20
21.892999
11
6.972413
21
21.901030
0
LINE
8
annotation
62
1
39
211
10
6.972413
20
21.901030
11
6.978987
21
21.910325
0
LINE
8
annotation
62
1
39
211
10
6.978987
20
21.910325
11
6.983916
21
21.920692
0
LINE
8
annotation
62
1
39
211
10
6.983916
20
21.920692
11
6.987010
21
21.931942
0
LINE
8
annotation
62
1
39
211
10
6.987010
20
21.931942
11
6.988083
21
21.943885
0
LINE
8
annotation
62
1
39
211
10
6.988083
20
21.943885
11
6.988083
21
21.977265
0
LINE
8
annotation
62
1
39
211
10
6.988083
20
21.977265
11
6.988083
21
21.977265
0
LINE
8
annotation
62
1
39
211
10
6.988083
20
21.977265
11
6.987010
21
21.989203
0
LINE
8
annotation
62
1
39
211
10
6.987010
20
21.989203
11
6.983916
21
22.000450
0
LINE
8
annotation
62
1
39
211
10
6.983916
20
22.000450
11
6.978987
21
22.010817
0
LINE
8
annotation
62
1
39
211
10
6.978987
20
22.010817
11
6.972413
21
22.020112
0
LINE
8
annotation
62
1
39
211
10
6.972413
20
22.020112
11
6.964380
21
22.028145
0
LINE
8
annotation
62
1
39
211
10
6.964380
20
22.028145
11
6.955076
21
22.034725
0
LINE
8
annotation
62
1
39
211
10
6.955076
20
22.034725
11
6.944689
21
22.039661
0
LINE
8
annotation
62
1
39
211
10
6.944689
20
22.039661
11
6.933407
21
22.042762
0
LINE
8
annotation
62
1
39
211
10
6.933407
20
22.042762
11
6.921416
21
22.043839
0
LINE
8
annotation
62
1
39
211
10
6.921416
20
22.043839
11
6.888036
21
22.043839
0
LINE
8
annotation
62
1
39
211
10
6.888036
20
22.043839
11
6.921416
21
22.043839
0
LINE
8
annotation
62
1
39
211
10
6.921416
20
22.043839
11
6.921416
21
22.043839
0
LINE
8
annotation
62
1
39
211
10
6.921416
20
22.043839
11
6.933407
21
22.044915
0
LINE
8
annotation
62
1
39
211
10
6.933407
20
22.044915
11
6.944689
21
22.048018
0
LINE
8
annotation
62
1
39
211
10
6.944689
20
22.048018
11
6.955076
21
22.052959
0
LINE
8
annotation
62
1
39
211
10
6.955076
20
22.052959
11
6.964380
21
22.059549
0
LINE
8
annotation
62
1
39
211
10
6.964380
20
22.059549
11
6.972413
21
22.067597
0
LINE
8
annotation
62
1
39
211
10
6.972413
20
22.067597
11
6.978987
21
22.076916
0
LINE
8
annotation
62
1
39
211
10
6.978987
20
22.076916
11
6.983916
21
22.087315
0
LINE
8
annotation
62
1
39
211
10
6.983916
20
22.087315
11
6.987010
21
22.098606
0
LINE
8
annotation
62
1
39
211
10
6.987010
20
22.098606
11
6.988083
21
22.110600
0
LINE
8
annotation
62
1
39
211
10
6.988083
20
22.110600
11
6.988083
21
22.110600
0
LINE
8
annotation
62
1
39
211
10
6.988083
20
22.110600
11
6.987010
21
22.122537
0
LINE
8
annotation
62
1
39
211
10
6.987010
20
22.122537
11
6.983916
21
22.133785
0
LINE
8
annotation
62
1
39
211
10
6.983916
20
22.133785
11
6.978987
21
22.144151
0
LINE
8
annotation
62
1
39
211
10
6.978987
20
22.144151
11
6.972413
21
22.153447
0
LINE
8
annotation
62
1
39
211
10
6.972413
20
22.153447
11
6.964380
21
22.161479
0
LINE
8
annotation
62
1
39
211
10
6.964380
20
22.161479
11
6.955076
21
22.168059
0
LINE
8
annotation
62
1
39
211
10
6.955076
20
22.168059
11
6.944689
21
22.172995
0
LINE
8
annotation
62
1
39
211
10
6.944689
20
22.172995
11
6.933407
21
22.176097
0
LINE
8
annotation
62
1
39
211
10
6.933407
20
22.176097
11
6.921416
21
22.177173
0
LINE
8
annotation
62
1
39
211
10
6.921416
20
22.177173
11
6.854749
21
22.177173
0
LINE
8
annotation
62
1
39
211
10
15.222687
20
21.603438
11
15.410996
21
21.603438
0
LINE
8
annotation
62
1
39
211
10
15.410996
20
21.603438
11
15.410996
21
21.603438
0
LINE
8
annotation
62
1
39
211
10
15.410996
20
21.603438
11
15.444863
21
21.606477
0
LINE
8
annotation
62
1
39
211
10
15.444863
20
21.606477
11
15.476732
21
21.615233
0
LINE
8
annotation
62
1
39
211
10
15.476732
20
21.615233
11
15.506071
21
21.629169
0
LINE
8
annotation
62
1
39
211
10
15.506071
20
21.629169
11
15.532350
21
21.647749
0
LINE
8
annotation
62
1
39
211
10
15.532350
20
21.647749
11
15.555040
21
21.670434
0
LINE
8
annotation
62
1
39
211
10
15.555040
20
21.670434
11
15.573610
21
21.696688
0
LINE
8
annotation
62
1
39
211
10
15.573610
20
21.696688
11
15.587531
21
21.725971
0
LINE
8
annotation
62
1
39
211
10
15.587531
20
21.725971
11
15.596273
21
21.757748
0
LINE
8
annotation
62
1
39
211
10
15.596273
20
21.757748
11
15.599304
21
21.791481
0
LINE
8
annotation
62
1
39
211
10
15.599304
20
21.791481
11
15.599304
21
21.885768
0
LINE
8
annotation
62
1
39
211
10
15.599304
20
21.885768
11
15.599304
21
21.885768
0
LINE
8
annotation
62
1
39
211
10
15.599304
20
21.885768
11
15.596273
21
21.919487
0
LINE
8
annotation
62
1
39
211
10
15.596273
20
21.919487
11
15.587531
21
21.951256
0
LINE
8
annotation
62
1
39
211
10
15.587531
20
21.951256
11
15.573610
21
21.980538
0
LINE
8
annotation
62
1
39
211
10
15.573610
20
21.980538
11
15.555040
21
22.006793
0
LINE
8
annotation
62
1
39
211
10
15.555040
20
22.006793
11
15.532350
21
22.029483
0
LINE
8
annotation
62
1
39
211
10
15.532350
20
22.029483
11
15.506071
21
22.048068
0
LINE
8
annotation
62
1
39
211
10
15.506071
20
22.048068
11
15.476732
21
22.062010
0
LINE
8
annotation
62
1
39
211
10
15.476732
20
22.062010
11
15.444863
21
22.070771
0
LINE
8
annotation
62
1
39
211
10
15.444863
20
22.070771
11
15.410996
21
22.073811
0
LINE
8
annotation
62
1
39
211
10
15.410996
20
22.073811
11
15.316708
21
22.073811
0
LINE
8
annotation
62
1
39
211
10
15.316708
20
22.073811
11
15.410996
21
22.073811
0
LINE
8
annotation
62
1
39
211
10
15.410996
20
22.073811
11
15.410996
21
22.073811
0
LINE
8
annotation
62
1
39
211
10
15.410996
20
22.073811
11
15.444863
21
22.076852
0
LINE
8
annotation
62
1
39
211
10
15.444863
20
22.076852
11
15.476732
21
22.085617
0
LINE
8
annotation
62
1
39
211
10
15.476732
20
22.085617
11
15.506071
21
22.099573
0
LINE
8
annotation
62
1
39
211
10
15.506071
20
22.099573
11
15.532350
21
22.118186
0
LINE
8
annotation
62
1
39
211
10
15.532350
20
22.118186
11
15.555040
21
22.140920
0
LINE
8
annotation
62
1
39
211
10
15.555040
20
22.140920
11
15.573610
21
22.167241
0
LINE
8
annotation
62
1
39
211
10
15.573610
20
22.167241
11
15.587531
21
22.196616
0
LINE
8
annotation
62
1
39
211
10
15.587531
20
22.196616
11
15.596273
21
22.228508
0
LINE
8
annotation
62
1
39
211
10
15.596273
20
22.228508
11
15.599304
21
22.262385
0
LINE
8
annotation
62
1
39
211
10
15.599304
20
22.262385
11
15.599304
21
22.262385
0
LINE
8
annotation
62
1
39
211
10
15.599304
20
22.262385
11
15.596273
21
22.296104
0
LINE
8
annotation
62
1
39
211
10
15.596273
20
22.296104
11
15.587531
21
22.327873
0
LINE
8
annotation
62
1
39
211
10
15.587531
20
22.327873
11
15.573610
21
22.357155
0
LINE
8
annotation
62
1
39
211
10
15.573610
20
22.357155
11
15.555040
21
22.383410
0
LINE
8
annotation
62
1
39
211
10
15.555040
20
22.383410
11
15.532350
21
22.406100
0
LINE
8
annotation
62
1
39
211
10
15.532350
20
22.406100
11
15.506071
21
22.424685
0
LINE
8
annotation
62
1
39
211
10
15.506071
20
22.424685
11
15.476732
21
22.438628
0
LINE
8
annotation
62
1
39
211
10
15.476732
20
22.438628
11
15.444863
21
22.447388
0
LINE
8
annotation
62
1
39
211
10
15.444863
20
22.447388
11
15.410996
21
22.450428
0
LINE
8
annotation
62
1
39
211
10
15.410996
20
22.450428
11
15.222687
21
22.450428
0
LINE
8
annotation
62
1
39
211
10
30.759317
20
32.572819
11
30.675135
21
32.572819
0
LINE
8
annotation
62
1
39
211
10
30.675135
20
32.572819
11
30.708754
21
32.690726
0
LINE
8
annotation
62
1
39
211
10
30.734083
20
32.539114
11
30.734083
21
32.606448
0
LINE
8
annotation
62
1
39
211
10
24.529808
20
32.167441
11
24.058957
21
32.167441
0
LINE
8
annotation
62
1
39
211
10
24.058957
20
32.167441
11
24.247000
21
32.826920
0
LINE
8
annotation
62
1
39
211
10
24.388670
20
31.978920
11
24.388670
21
32.355537
0
LINE
8
annotation
62
1
39
211
10
31.276223
20
32.584081
11
31.214559
21
32.584081
0
LINE
8
annotation
62
1
39
211
10
31.214559
20
32.584081
11
31.239186
21
32.670448
0
LINE
8
annotation
62
1
39
211
10
31.257739
20
32.559391
11
31.257739
21
32.608714
0
LINE
8
annotation
62
1
39
211
10
8.877469
20
15.805767
11
7.428265
21
15.805767
0
LINE
8
annotation
62
1
39
211
10
7.428265
20
15.805767
11
8.877469
21
18.415776
0
LINE
8
annotation
62
1
39
211
10
8.877469
20
18.415776
11
7.428265
21
18.415776
0
LINE
8
annotation
62
1
39
211
10
11.283576
20
17.110772
11
9.856468
21
17.110772
0
LINE
8
annotation
62
1
39
211
10
13.711288
20
16.386006
11
12.262083
21
16.386006
0
LINE
8
annotation
62
1
39
211
10
12.262083
20
16.386006
11
12.840849
21
18.415776
0
LINE
8
annotation
62
1
39
211
10
13.276887
20
15.805767
11
13.276887
21
16.964935
0
LINE
8
annotation
62
1
39
211
10
16.117394
20
17.110772
11
14.690287
21
17.110772
0
LINE
8
annotation
62
1
39
211
10
17.676222
20
15.805767
11
17.676222
21
18.415776
0
LINE
8
annotation
62
1
39
211
10
17.676222
20
18.415776
11
17.095984
21
17.835374
0
LINE
8
frame
62
5
39
2
10
0.000000
20
0.000000
11
40.000000
21
0.000000
0
LINE
8
frame
62
5
39
2
10
40.000000
20
0.000000
11
40.000000
21
40.000000
0
LINE
8
frame
62
5
39
2
10
40.000000
20
40.000000
11
0.000000
21
40.000000
0
LINE
8
frame
62
5
39
2
10
0.000000
20
40.000000
11
0.000000
21
0.000000
0
ENDSEC
0
EOF
