0
SECTION
2
HEADER
9
$ACADVER
1
AC1009
0
ENDSEC
0
SECTION
2
TABLES
0
TABLE
2
VPORT
70
1
0
VPORT
2
ACTIVE
70
0
10
0.0
20
0.0
11
0.0
21
0.0
12
0.0
22
0.0
13
0.0
23
0.0
14
0.0
24
0.0
15
0.0
25
0.0
16
0.0
26
0.0
36
0.0
17
0.0
27
0.0
37
0.0
40
0.0
41
0.0
42
0.0
43
0.0
44
0.0
50
0.0
51
0.0
71
0
72
1000
73
1
74
3
75
0
76
0
77
0
78
0
0
ENDTAB
0
ENDSEC
0
SECTION
2
ENTITIES
0
LINE
8
boundary
62
5
39
2
10
32.695235
20
37.080794
11
32.695286
21
37.080820
0
LINE
8
boundary
62
5
39
2
10
32.695286
20
37.080820
11
32.792950
21
37.166519
0
LINE
8
boundary
62
5
39
2
10
32.792950
20
37.166519
11
32.795174
21
37.168468
0
LINE
8
boundary
62
5
39
2
10
32.795174
20
37.168468
11
31.438594
21
38.111629
0
LINE
8
boundary
62
5
39
2
10
31.438594
20
38.111629
11
31.214501
21
38.089723
0
LINE
8
boundary
62
5
39
2
10
31.214501
20
38.089723
11
29.259387
21
37.898592
0
LINE
8
boundary
62
5
39
2
10
29.259387
20
37.898592
11
29.259356
21
37.898592
0
LINE
8
boundary
62
5
39
2
10
29.259356
20
37.898592
11
27.568930
21
37.702421
0
LINE
8
boundary
62
5
39
2
10
27.568930
20
37.702421
11
25.058660
21
37.124402
0
LINE
8
boundary
62
5
39
2
10
25.058660
20
37.124402
11
24.414704
21
36.678548
0
LINE
8
boundary
62
5
39
2
10
24.414704
20
36.678548
11
23.836998
21
36.278557
0
LINE
8
boundary
62
5
39
2
10
23.836998
20
36.278557
11
22.498331
21
35.382340
0
LINE
8
boundary
62
5
39
2
10
22.498331
20
35.382340
11
20.543543
21
33.803806
0
LINE
8
boundary
62
5
39
2
10
20.543543
20
33.803806
11
20.528850
21
33.766713
0
LINE
8
boundary
62
5
39
2
10
20.528850
20
33.766713
11
19.862329
21
32.084024
0
LINE
8
boundary
62
5
39
2
10
19.862329
20
32.084024
11
19.512166
21
30.832197
0
LINE
8
boundary
62
5
39
2
10
19.512166
20
30.832197
11
19.511531
21
30.830816
0
LINE
8
boundary
62
5
39
2
10
19.511531
20
30.830816
11
19.085024
21
29.900242
0
LINE
8
boundary
62
5
39
2
10
19.085024
20
29.900242
11
19.084117
21
29.899267
0
LINE
8
boundary
62
5
39
2
10
19.084117
20
29.899267
11
17.844556
21
28.949852
0
LINE
8
boundary
62
5
39
2
10
17.844556
20
28.949852
11
16.309450
21
27.778789
0
LINE
8
boundary
62
5
39
2
10
16.309450
20
27.778789
11
15.526223
21
27.122959
0
LINE
8
boundary
62
5
39
2
10
15.526223
20
27.122959
11
15.501497
21
27.097125
0
LINE
8
boundary
62
5
39
2
10
15.501497
20
27.097125
11
15.430721
21
27.067707
0
LINE
8
boundary
62
5
39
2
10
15.430721
20
27.067707
11
11.018050
21
25.327969
0
LINE
8
boundary
62
5
39
2
10
11.018050
20
25.327969
11
11.017912
21
25.327889
0
LINE
8
boundary
62
5
39
2
10
11.017912
20
25.327889
11
8.364545
21
23.660500
0
LINE
8
boundary
62
5
39
2
10
8.364545
20
23.660500
11
5.479547
21
20.909483
0
LINE
8
boundary
62
5
39
2
10
5.479547
20
20.909483
11
3.114254
21
17.348867
0
LINE
8
boundary
62
5
39
2
10
3.114254
20
17.348867
11
1.143342
21
12.494294
0
LINE
8
boundary
62
5
39
2
10
1.143342
20
12.494294
11
1.143305
21
12.493851
0
LINE
8
boundary
62
5
39
2
10
1.143305
20
12.493851
11
0.686879
21
7.009388
0
LINE
8
boundary
62
5
39
2
10
0.686879
20
7.009388
11
0.686750
21
7.007845
0
LINE
8
boundary
62
5
39
2
10
0.686750
20
7.007845
11
0.853642
21
6.607190
0
LINE
8
boundary
62
5
39
2
10
0.853642
20
6.607190
11
0.853702
21
6.607082
0
LINE
8
boundary
62
5
39
2
10
0.853702
20
6.607082
11
0.853871
21
6.606494
0
LINE
8
boundary
62
5
39
2
10
0.853871
20
6.606494
11
0.858468
21
6.592264
0
LINE
8
boundary
62
5
39
2
10
0.858468
20
6.592264
11
2.821748
21
3.170157
0
LINE
8
boundary
62
5
39
2
10
2.821748
20
3.170157
11
2.840546
21
3.137332
0
LINE
8
boundary
62
5
39
2
10
2.840546
20
3.137332
11
4.800123
21
1.445094
0
LINE
8
boundary
62
5
39
2
10
4.800123
20
1.445094
11
4.823554
21
1.424859
0
LINE
8
boundary
62
5
39
2
10
4.823554
20
1.424859
11
5.247235
21
0.731746
0
LINE
8
boundary
62
5
39
2
10
5.247235
20
0.731746
11
5.258275
21
0.731334
0
LINE
8
boundary
62
5
39
2
10
5.258275
20
0.731334
11
6.453736
21
0.686750
0
LINE
8
boundary
62
5
39
2
10
6.453736
20
0.686750
11
6.981030
21
0.786018
0
LINE
8
boundary
62
5
39
2
10
6.981030
20
0.786018
11
8.409439
21
1.055053
0
LINE
8
boundary
62
5
39
2
10
8.409439
20
1.055053
11
8.409855
21
1.055084
0
LINE
8
boundary
62
5
39
2
10
8.409855
20
1.055084
11
8.409923
21
1.055102
0
LINE
8
boundary
62
5
39
2
10
8.409923
20
1.055102
11
8.411028
21
1.055720
0
LINE
8
boundary
62
5
39
2
10
8.411028
20
1.055720
11
8.386448
21
1.140552
0
LINE
8
boundary
62
5
39
2
10
8.386448
20
1.140552
11
8.371017
21
1.199681
0
LINE
8
boundary
62
5
39
2
10
8.371017
20
1.199681
11
8.371139
21
1.199782
0
LINE
8
boundary
62
5
39
2
10
8.371139
20
1.199782
11
8.371109
21
1.199805
0
LINE
8
boundary
62
5
39
2
10
8.371109
20
1.199805
11
8.366506
21
1.211591
0
LINE
8
boundary
62
5
39
2
10
8.366506
20
1.211591
11
8.348169
21
1.277274
0
LINE
8
boundary
62
5
39
2
10
8.348169
20
1.277274
11
8.437759
21
1.328629
0
LINE
8
boundary
62
5
39
2
10
8.437759
20
1.328629
11
8.446635
21
1.333472
0
LINE
8
boundary
62
5
39
2
10
8.446635
20
1.333472
11
8.406990
21
1.328216
0
LINE
8
boundary
62
5
39
2
10
8.406990
20
1.328216
11
8.358253
21
1.321649
0
LINE
8
boundary
62
5
39
2
10
8.358253
20
1.321649
11
8.339563
21
1.356687
0
LINE
8
boundary
62
5
39
2
10
8.339563
20
1.356687
11
8.339149
21
1.358085
0
LINE
8
boundary
62
5
39
2
10
8.339149
20
1.358085
11
8.308829
21
1.423907
0
LINE
8
boundary
62
5
39
2
10
8.308829
20
1.423907
11
8.282035
21
1.518553
0
LINE
8
boundary
62
5
39
2
10
8.282035
20
1.518553
11
8.269505
21
1.545053
0
LINE
8
boundary
62
5
39
2
10
8.269505
20
1.545053
11
8.214495
21
1.545053
0
LINE
8
boundary
62
5
39
2
10
8.214495
20
1.545053
11
8.214495
21
1.557866
0
LINE
8
boundary
62
5
39
2
10
8.214495
20
1.557866
11
6.390375
21
1.209052
0
LINE
8
boundary
62
5
39
2
10
6.390375
20
1.209052
11
5.480958
21
1.108666
0
LINE
8
boundary
62
5
39
2
10
5.480958
20
1.108666
11
5.456124
21
1.105926
0
LINE
8
boundary
62
5
39
2
10
5.456124
20
1.105926
11
5.287088
21
1.518553
0
LINE
8
boundary
62
5
39
2
10
5.287088
20
1.518553
11
5.274558
21
1.545053
0
LINE
8
boundary
62
5
39
2
10
5.274558
20
1.545053
11
4.693073
21
1.545053
0
LINE
8
boundary
62
5
39
2
10
4.693073
20
1.545053
11
4.693073
21
2.049653
0
LINE
8
boundary
62
5
39
2
10
4.693073
20
2.049653
11
4.818988
21
2.049653
0
LINE
8
boundary
62
5
39
2
10
4.818988
20
2.049653
11
4.831518
21
2.076153
0
LINE
8
boundary
62
5
39
2
10
4.831518
20
2.076153
11
3.229953
21
3.451381
0
LINE
8
boundary
62
5
39
2
10
3.229953
20
3.451381
11
3.228827
21
3.453396
0
LINE
8
boundary
62
5
39
2
10
3.228827
20
3.453396
11
3.228960
21
3.453202
0
LINE
8
boundary
62
5
39
2
10
3.228960
20
3.453202
11
3.211160
21
3.484946
0
LINE
8
boundary
62
5
39
2
10
3.211160
20
3.484946
11
1.273079
21
6.946377
0
LINE
8
boundary
62
5
39
2
10
1.273079
20
6.946377
11
1.272501
21
6.947533
0
LINE
8
boundary
62
5
39
2
10
1.272501
20
6.947533
11
1.223181
21
7.068558
0
LINE
8
boundary
62
5
39
2
10
1.223181
20
7.068558
11
1.191265
21
7.147279
0
LINE
8
boundary
62
5
39
2
10
1.191265
20
7.147279
11
1.190803
21
7.148416
0
LINE
8
boundary
62
5
39
2
10
1.190803
20
7.148416
11
1.631965
21
11.894061
0
LINE
8
boundary
62
5
39
2
10
1.631965
20
11.894061
11
1.619435
21
11.920561
0
LINE
8
boundary
62
5
39
2
10
1.619435
20
11.920561
11
1.411817
21
11.920561
0
LINE
8
boundary
62
5
39
2
10
1.411817
20
11.920561
11
1.411817
21
12.425161
0
LINE
8
boundary
62
5
39
2
10
1.411817
20
12.425161
11
1.691410
21
12.425161
0
LINE
8
boundary
62
5
39
2
10
1.691410
20
12.425161
11
1.703940
21
12.451661
0
LINE
8
boundary
62
5
39
2
10
1.703940
20
12.451661
11
3.580716
21
17.083956
0
LINE
8
boundary
62
5
39
2
10
3.580716
20
17.083956
11
5.887176
21
20.581068
0
LINE
8
boundary
62
5
39
2
10
5.887176
20
20.581068
11
7.647300
21
22.280938
0
LINE
8
boundary
62
5
39
2
10
7.647300
20
22.280938
11
7.640145
21
22.296069
0
LINE
8
boundary
62
5
39
2
10
7.640145
20
22.296069
11
7.640145
21
22.800669
0
LINE
8
boundary
62
5
39
2
10
7.640145
20
22.800669
11
8.185453
21
22.800669
0
LINE
8
boundary
62
5
39
2
10
8.185453
20
22.800669
11
8.212892
21
22.827169
0
LINE
8
boundary
62
5
39
2
10
8.212892
20
22.827169
11
8.656996
21
23.256069
0
LINE
8
boundary
62
5
39
2
10
8.656996
20
23.256069
11
11.247128
21
24.896871
0
LINE
8
boundary
62
5
39
2
10
11.247128
20
24.896871
11
15.714290
21
26.688308
0
LINE
8
boundary
62
5
39
2
10
15.714290
20
26.688308
11
15.752490
21
26.703392
0
LINE
8
boundary
62
5
39
2
10
15.752490
20
26.703392
11
15.766497
21
26.717654
0
LINE
8
boundary
62
5
39
2
10
15.766497
20
26.717654
11
16.604811
21
27.388602
0
LINE
8
boundary
62
5
39
2
10
16.604811
20
27.388602
11
18.149465
21
28.566873
0
LINE
8
boundary
62
5
39
2
10
18.149465
20
28.566873
11
19.478624
21
29.561899
0
LINE
8
boundary
62
5
39
2
10
19.478624
20
29.561899
11
20.005636
21
30.624732
0
LINE
8
boundary
62
5
39
2
10
20.005636
20
30.624732
11
20.341647
21
31.919107
0
LINE
8
boundary
62
5
39
2
10
20.341647
20
31.919107
11
20.352712
21
31.961729
0
LINE
8
boundary
62
5
39
2
10
20.352712
20
31.961729
11
20.364910
21
31.992339
0
LINE
8
boundary
62
5
39
2
10
20.364910
20
31.992339
11
20.625034
21
32.645077
0
LINE
8
boundary
62
5
39
2
10
20.625034
20
32.645077
11
20.612504
21
32.671577
0
LINE
8
boundary
62
5
39
2
10
20.612504
20
32.671577
11
20.499874
21
32.671577
0
LINE
8
boundary
62
5
39
2
10
20.499874
20
32.671577
11
20.499874
21
33.176177
0
LINE
8
boundary
62
5
39
2
10
20.499874
20
33.176177
11
20.834715
21
33.176177
0
LINE
8
boundary
62
5
39
2
10
20.834715
20
33.176177
11
20.847245
21
33.202677
0
LINE
8
boundary
62
5
39
2
10
20.847245
20
33.202677
11
20.945470
21
33.449155
0
LINE
8
boundary
62
5
39
2
10
20.945470
20
33.449155
11
22.765215
21
34.928709
0
LINE
8
boundary
62
5
39
2
10
22.765215
20
34.928709
11
24.160652
21
35.857225
0
LINE
8
boundary
62
5
39
2
10
24.160652
20
35.857225
11
25.301924
21
36.645893
0
LINE
8
boundary
62
5
39
2
10
25.301924
20
36.645893
11
27.655801
21
37.158337
0
LINE
8
boundary
62
5
39
2
10
27.655801
20
37.158337
11
29.311414
21
37.356870
0
LINE
8
boundary
62
5
39
2
10
29.311414
20
37.356870
11
29.311468
21
37.356874
0
LINE
8
boundary
62
5
39
2
10
29.311468
20
37.356874
11
31.293982
21
37.629962
0
LINE
8
boundary
62
5
39
2
10
31.293982
20
37.629962
11
31.358975
21
37.638914
0
LINE
8
boundary
62
5
39
2
10
31.358975
20
37.638914
11
31.388235
21
37.617823
0
LINE
8
boundary
62
5
39
2
10
31.388235
20
37.617823
11
32.438733
21
36.860554
0
LINE
8
boundary
62
5
39
2
10
32.438733
20
36.860554
11
32.438764
21
36.860528
0
LINE
8
boundary
62
5
39
2
10
32.438764
20
36.860528
11
32.438888
21
36.860113
0
LINE
8
boundary
62
5
39
2
10
32.438888
20
36.860113
11
32.534131
21
36.940698
0
LINE
8
boundary
62
5
39
2
10
32.534131
20
36.940698
11
32.539567
21
36.945248
0
LINE
8
boundary
62
5
39
2
10
32.539567
20
36.945248
11
32.539879
21
36.945482
0
LINE
8
boundary
62
5
39
2
10
32.539879
20
36.945482
11
32.590728
21
36.977156
0
LINE
8
boundary
62
5
39
2
10
32.590728
20
36.977156
11
32.635555
21
37.025168
0
LINE
8
boundary
62
5
39
2
10
32.635555
20
37.025168
11
32.640298
21
37.029637
0
LINE
8
boundary
62
5
39
2
10
32.640298
20
37.029637
11
32.640451
21
37.029706
0
LINE
8
boundary
62
5
39
2
10
32.640451
20
37.029706
11
32.640444
21
37.029731
0
LINE
8
boundary
62
5
39
2
10
32.640444
20
37.029731
11
32.640418
21
37.029961
0
LINE
8
boundary
62
5
39
2
10
32.640418
20
37.029961
11
32.680056
21
37.066787
0
LINE
8
boundary
62
5
39
2
10
32.680056
20
37.066787
11
32.695197
21
37.080825
0
LINE
8
boundary
62
5
39
2
10
32.695197
20
37.080825
11
32.695235
21
37.080794
0
LINE
8
annotation
62
1
39
211
10
4.406384
20
1.889070
11
4.406384
21
2.129635
0
LINE
8
annotation
62
1
39
211
10
4.406384
20
2.129635
11
4.352903
21
2.076139
0
LINE
8
annotation
62
1
39
211
10
7.781945
20
1.613036
11
7.781945
21
1.981669
0
LINE
8
annotation
62
1
39
211
10
7.781945
20
1.981669
11
7.699994
21
1.899694
0
LINE
8
annotation
62
1
39
211
10
1.224004
20
12.087693
11
1.148356
21
12.087693
0
LINE
8
annotation
62
1
39
211
10
1.148356
20
12.087693
11
1.218258
21
12.200226
0
LINE
8
annotation
62
1
39
211
10
1.218258
20
12.200226
11
1.218258
21
12.200226
0
LINE
8
annotation
62
1
39
211
10
1.218258
20
12.200226
11
1.218341
21
12.200330
0
LINE
8
annotation
62
1
39
211
10
1.218341
20
12.200330
11
1.218421
21
12.200434
0
LINE
8
annotation
62
1
39
211
10
1.218421
20
12.200434
11
1.218499
21
12.200540
0
LINE
8
annotation
62
1
39
211
10
1.218499
20
12.200540
11
1.218573
21
12.200649
0
LINE
8
annotation
62
1
39
211
10
1.218573
20
12.200649
11
1.218646
21
12.200761
0
LINE
8
annotation
62
1
39
211
10
1.218646
20
12.200761
11
1.218718
21
12.200877
0
LINE
8
annotation
62
1
39
211
10
1.218718
20
12.200877
11
1.218789
21
12.200999
0
LINE
8
annotation
62
1
39
211
10
1.218789
20
12.200999
11
1.218860
21
12.201127
0
LINE
8
annotation
62
1
39
211
10
1.218860
20
12.201127
11
1.218931
21
12.201262
0
LINE
8
annotation
62
1
39
211
10
1.218931
20
12.201262
11
1.218931
21
12.201262
0
LINE
8
annotation
62
1
39
211
10
1.218931
20
12.201262
11
1.221817
21
12.207459
0
LINE
8
annotation
62
1
39
211
10
1.221817
20
12.207459
11
1.223503
21
12.213883
0
LINE
8
annotation
62
1
39
211
10
1.223503
20
12.213883
11
1.224030
21
12.220388
0
LINE
8
annotation
62
1
39
211
10
1.224030
20
12.220388
11
1.223440
21
12.226830
0
LINE
8
annotation
62
1
39
211
10
1.223440
20
12.226830
11
1.221773
21
12.233063
0
LINE
8
annotation
62
1
39
211
10
1.221773
20
12.233063
11
1.219072
21
12.238942
0
LINE
8
annotation
62
1
39
211
10
1.219072
20
12.238942
11
1.215377
21
12.244322
0
LINE
8
annotation
62
1
39
211
10
1.215377
20
12.244322
11
1.210730
21
12.249058
0
LINE
8
annotation
62
1
39
211
10
1.210730
20
12.249058
11
1.205172
21
12.253005
0
LINE
8
annotation
62
1
39
211
10
1.205172
20
12.253005
11
1.205172
21
12.253005
0
LINE
8
annotation
62
1
39
211
10
1.205172
20
12.253005
11
1.198958
21
12.255850
0
LINE
8
annotation
62
1
39
211
10
1.198958
20
12.255850
11
1.192524
21
12.257510
0
LINE
8
annotation
62
1
39
211
10
1.192524
20
12.257510
11
1.186015
21
12.258023
0
LINE
8
annotation
62
1
39
211
10
1.186015
20
12.258023
11
1.179575
21
12.257425
0
LINE
8
annotation
62
1
39
211
10
1.179575
20
12.257425
11
1.173346
21
12.255754
0
LINE
8
annotation
62
1
39
211
10
1.173346
20
12.255754
11
1.167473
21
12.253047
0
LINE
8
annotation
62
1
39
211
10
1.167473
20
12.253047
11
1.162100
21
12.249342
0
LINE
8
annotation
62
1
39
211
10
1.162100
20
12.249342
11
1.157371
21
12.244676
0
LINE
8
annotation
62
1
39
211
10
1.157371
20
12.244676
11
1.153429
21
12.239087
0
LINE
8
annotation
62
1
39
211
10
1.153429
20
12.239087
11
1.148462
21
12.229558
0
LINE
8
annotation
62
1
39
211
10
7.351787
20
22.454752
11
7.393366
21
22.454752
0
LINE
8
annotation
62
1
39
211
10
7.393366
20
22.454752
11
7.393366
21
22.454752
0
LINE
8
annotation
62
1
39
211
10
7.393366
20
22.454752
11
7.400845
21
22.455423
0
LINE
8
annotation
62
1
39
211
10
7.400845
20
22.455423
11
7.407881
21
22.457357
0
LINE
8
annotation
62
1
39
211
10
7.407881
20
22.457357
11
7.414360
21
22.460434
0
LINE
8
annotation
62
1
39
211
10
7.414360
20
22.460434
11
7.420162
21
22.464536
0
LINE
8
annotation
62
1
39
211
10
7.420162
20
22.464536
11
7.425172
21
22.469545
0
LINE
8
annotation
62
1
39
211
10
7.425172
20
22.469545
11
7.429273
21
22.475342
0
LINE
8
annotation
62
1
39
211
10
7.429273
20
22.475342
11
7.432347
21
22.481808
0
LINE
8
annotation
62
1
39
211
10
7.432347
20
22.481808
11
7.434277
21
22.488825
0
LINE
8
annotation
62
1
39
211
10
7.434277
20
22.488825
11
7.434946
21
22.496273
0
LINE
8
annotation
62
1
39
211
10
7.434946
20
22.496273
11
7.434946
21
22.517093
0
LINE
8
annotation
62
1
39
211
10
7.434946
20
22.517093
11
7.434946
21
22.517093
0
LINE
8
annotation
62
1
39
211
10
7.434946
20
22.517093
11
7.434277
21
22.524538
0
LINE
8
annotation
62
1
39
211
10
7.434277
20
22.524538
11
7.432347
21
22.531553
0
LINE
8
annotation
62
1
39
211
10
7.432347
20
22.531553
11
7.429273
21
22.538019
0
LINE
8
annotation
62
1
39
211
10
7.429273
20
22.538019
11
7.425172
21
22.543816
0
LINE
8
annotation
62
1
39
211
10
7.425172
20
22.543816
11
7.420162
21
22.548826
0
LINE
8
annotation
62
1
39
211
10
7.420162
20
22.548826
11
7.414360
21
22.552930
0
LINE
8
annotation
62
1
39
211
10
7.414360
20
22.552930
11
7.407881
21
22.556008
0
LINE
8
annotation
62
1
39
211
10
7.407881
20
22.556008
11
7.400845
21
22.557943
0
LINE
8
annotation
62
1
39
211
10
7.400845
20
22.557943
11
7.393366
21
22.558614
0
LINE
8
annotation
62
1
39
211
10
7.393366
20
22.558614
11
7.372547
21
22.558614
0
LINE
8
annotation
62
1
39
211
10
7.372547
20
22.558614
11
7.393366
21
22.558614
0
LINE
8
annotation
62
1
39
211
10
7.393366
20
22.558614
11
7.393366
21
22.558614
0
LINE
8
annotation
62
1
39
211
10
7.393366
20
22.558614
11
7.400845
21
22.559285
0
LINE
8
annotation
62
1
39
211
10
7.400845
20
22.559285
11
7.407881
21
22.561221
0
LINE
8
annotation
62
1
39
211
10
7.407881
20
22.561221
11
7.414360
21
22.564302
0
LINE
8
annotation
62
1
39
211
10
7.414360
20
22.564302
11
7.420162
21
22.568412
0
LINE
8
annotation
62
1
39
211
10
7.420162
20
22.568412
11
7.425172
21
22.573432
0
LINE
8
annotation
62
1
39
211
10
7.425172
20
22.573432
11
7.429273
21
22.579244
0
LINE
8
annotation
62
1
39
211
10
7.429273
20
22.579244
11
7.432347
21
22.585730
0
LINE
8
annotation
62
1
39
211
10
7.432347
20
22.585730
11
7.434277
21
22.592772
0
LINE
8
annotation
62
1
39
211
10
7.434277
20
22.592772
11
7.434946
21
22.600252
0
LINE
8
annotation
62
1
39
211
10
7.434946
20
22.600252
11
7.434946
21
22.600252
0
LINE
8
annotation
62
1
39
211
10
7.434946
20
22.600252
11
7.434277
21
22.607698
0
LINE
8
annotation
62
1
39
211
10
7.434277
20
22.607698
11
7.432347
21
22.614713
0
LINE
8
annotation
62
1
39
211
10
7.432347
20
22.614713
11
7.429273
21
22.621178
0
LINE
8
annotation
62
1
39
211
10
7.429273
20
22.621178
11
7.425172
21
22.626975
0
LINE
8
annotation
62
1
39
211
10
7.425172
20
22.626975
11
7.420162
21
22.631986
0
LINE
8
annotation
62
1
39
211
10
7.420162
20
22.631986
11
7.414360
21
22.636089
0
LINE
8
annotation
62
1
39
211
10
7.414360
20
22.636089
11
7.407881
21
22.639168
0
LINE
8
annotation
62
1
39
211
10
7.407881
20
22.639168
11
7.400845
21
22.641102
0
LINE
8
annotation
62
1
39
211
10
7.400845
20
22.641102
11
7.393366
21
22.641773
0
LINE
8
annotation
62
1
39
211
10
7.393366
20
22.641773
11
7.351787
21
22.641773
0
LINE
8
annotation
62
1
39
211
10
20.340470
20
32.881987
11
20.256709
21
32.881987
0
LINE
8
annotation
62
1
39
211
10
20.256709
20
32.881987
11
20.290160
21
32.999303
0
LINE
8
annotation
62
1
39
211
10
20.315362
20
32.848450
11
20.315362
21
32.915448
0
LINE
8
annotation
62
1
39
211
10
5.739003
20
0.819973
11
5.645483
21
0.819973
0
LINE
8
annotation
62
1
39
211
10
5.645483
20
0.819973
11
5.739003
21
0.988401
0
LINE
8
annotation
62
1
39
211
10
5.739003
20
0.988401
11
5.645483
21
0.988401
0
LINE
8
annotation
62
1
39
211
10
5.894274
20
0.904187
11
5.802180
21
0.904187
0
LINE
8
annotation
62
1
39
211
10
6.050939
20
0.857417
11
5.957419
21
0.857417
0
LINE
8
annotation
62
1
39
211
10
5.957419
20
0.857417
11
5.994767
21
0.988401
0
LINE
8
annotation
62
1
39
211
10
6.022906
20
0.819973
11
6.022906
21
0.894776
0
LINE
8
annotation
62
1
39
211
10
6.206209
20
0.904187
11
6.114115
21
0.904187
0
LINE
8
annotation
62
1
39
211
10
6.344170
20
0.819971
11
6.269367
21
0.819971
0
LINE
8
annotation
62
1
39
211
10
6.269367
20
0.819971
11
6.338488
21
0.931247
0
LINE
8
annotation
62
1
39
211
10
6.338488
20
0.931247
11
6.338488
21
0.931247
0
LINE
8
annotation
62
1
39
211
10
6.338488
20
0.931247
11
6.338570
21
0.931349
0
LINE
8
annotation
62
1
39
211
10
6.338570
20
0.931349
11
6.338649
21
0.931452
0
LINE
8
annotation
62
1
39
211
10
6.338649
20
0.931452
11
6.338726
21
0.931557
0
LINE
8
annotation
62
1
39
211
10
6.338726
20
0.931557
11
6.338800
21
0.931664
0
LINE
8
annotation
62
1
39
211
10
6.338800
20
0.931664
11
6.338872
21
0.931775
0
LINE
8
annotation
62
1
39
211
10
6.338872
20
0.931775
11
6.338943
21
0.931891
0
LINE
8
annotation
62
1
39
211
10
6.338943
20
0.931891
11
6.339013
21
0.932011
0
LINE
8
annotation
62
1
39
211
10
6.339013
20
0.932011
11
6.339083
21
0.932138
0
LINE
8
annotation
62
1
39
211
10
6.339083
20
0.932138
11
6.339153
21
0.932271
0
LINE
8
annotation
62
1
39
211
10
6.339153
20
0.932271
11
6.339153
21
0.932271
0
LINE
8
annotation
62
1
39
211
10
6.339153
20
0.932271
11
6.342007
21
0.938399
0
LINE
8
annotation
62
1
39
211
10
6.342007
20
0.938399
11
6.343674
21
0.944751
0
LINE
8
annotation
62
1
39
211
10
6.343674
20
0.944751
11
6.344196
21
0.951184
0
LINE
8
annotation
62
1
39
211
10
6.344196
20
0.951184
11
6.343612
21
0.957553
0
LINE
8
annotation
62
1
39
211
10
6.343612
20
0.957553
11
6.341964
21
0.963717
0
LINE
8
annotation
62
1
39
211
10
6.341964
20
0.963717
11
6.339293
21
0.969530
0
LINE
8
annotation
62
1
39
211
10
6.339293
20
0.969530
11
6.335639
21
0.974850
0
LINE
8
annotation
62
1
39
211
10
6.335639
20
0.974850
11
6.331044
21
0.979533
0
LINE
8
annotation
62
1
39
211
10
6.331044
20
0.979533
11
6.325549
21
0.983436
0
LINE
8
annotation
62
1
39
211
10
6.325549
20
0.983436
11
6.325549
21
0.983436
0
LINE
8
annotation
62
1
39
211
10
6.325549
20
0.983436
11
6.319404
21
0.986249
0
LINE
8
annotation
62
1
39
211
10
6.319404
20
0.986249
11
6.313042
21
0.987891
0
LINE
8
annotation
62
1
39
211
10
6.313042
20
0.987891
11
6.306606
21
0.988397
0
LINE
8
annotation
62
1
39
211
10
6.306606
20
0.988397
11
6.300237
21
0.987806
0
LINE
8
annotation
62
1
39
211
10
6.300237
20
0.987806
11
6.294078
21
0.986154
0
LINE
8
annotation
62
1
39
211
10
6.294078
20
0.986154
11
6.288271
21
0.983477
0
LINE
8
annotation
62
1
39
211
10
6.288271
20
0.983477
11
6.282958
21
0.979814
0
LINE
8
annotation
62
1
39
211
10
6.282958
20
0.979814
11
6.278282
21
0.975200
0
LINE
8
annotation
62
1
39
211
10
6.278282
20
0.975200
11
6.274384
21
0.969673
0
LINE
8
annotation
62
1
39
211
10
6.274384
20
0.969673
11
6.269472
21
0.960251
0
LINE
8
boundary
62
5
39
2
10
0.705106
20
38.480929
11
0.737656
21
38.537848
0
LINE
8
boundary
62
5
39
2
10
0.737656
20
38.537848
11
0.748862
21
38.594608
0
LINE
8
boundary
62
5
39
2
10
0.748862
20
38.594608
11
0.737656
21
38.651370
0
LINE
8
boundary
62
5
39
2
10
0.737656
20
38.651370
11
0.705106
21
38.708292
0
LINE
8
boundary
62
5
39
2
10
0.705106
20
38.708292
11
0.705106
21
38.480929
0
LINE
8
annotation
62
1
39
211
10
0.744066
20
38.589838
11
0.734521
21
38.589838
0
LINE
8
annotation
62
1
39
211
10
0.734521
20
38.589838
11
0.738333
21
38.603207
0
LINE
8
annotation
62
1
39
211
10
0.741205
20
38.586016
11
0.741205
21
38.593651
0
LINE
8
annotation
62
1
39
211
10
0.716828
20
38.594909
11
0.715321
21
38.592730
0
LINE
8
annotation
62
1
39
211
10
0.715321
20
38.592730
11
0.713814
21
38.594909
0
LINE
8
annotation
62
1
39
211
10
0.715321
20
38.592905
11
0.715321
21
38.590391
0
LINE
8
annotation
62
1
39
211
10
0.720993
20
38.592650
11
0.718522
21
38.592650
0
LINE
8
annotation
62
1
39
211
10
0.725195
20
38.591395
11
0.722686
21
38.591395
0
LINE
8
annotation
62
1
39
211
10
0.722686
20
38.591395
11
0.723688
21
38.594909
0
LINE
8
annotation
62
1
39
211
10
0.724443
20
38.590391
11
0.724443
21
38.592398
0
LINE
8
annotation
62
1
39
211
10
0.729360
20
38.592650
11
0.726890
21
38.592650
0
LINE
8
annotation
62
1
39
211
10
0.733562
20
38.591395
11
0.731054
21
38.591395
0
LINE
8
annotation
62
1
39
211
10
0.731054
20
38.591395
11
0.732055
21
38.594909
0
LINE
8
annotation
62
1
39
211
10
0.732810
20
38.590391
11
0.732810
21
38.592398
0
LINE
8
boundary
62
5
39
2
10
1.107393
20
38.470686
11
1.106831
21
38.469836
0
LINE
8
boundary
62
5
39
2
10
1.106831
20
38.469836
11
1.106362
21
38.469129
0
LINE
8
boundary
62
5
39
2
10
1.106362
20
38.469129
11
1.106603
21
38.469311
0
LINE
8
boundary
62
5
39
2
10
1.106603
20
38.469311
11
1.128910
21
38.499845
0
LINE
8
boundary
62
5
39
2
10
1.128910
20
38.499845
11
1.130642
21
38.501127
0
LINE
8
boundary
62
5
39
2
10
1.130642
20
38.501127
11
1.183507
21
38.523063
0
LINE
8
boundary
62
5
39
2
10
1.183507
20
38.523063
11
1.219183
21
38.537188
0
LINE
8
boundary
62
5
39
2
10
1.219183
20
38.537188
11
1.218965
21
38.537583
0
LINE
8
boundary
62
5
39
2
10
1.218965
20
38.537583
11
1.216921
21
38.539980
0
LINE
8
boundary
62
5
39
2
10
1.216921
20
38.539980
11
1.184210
21
38.594192
0
LINE
8
boundary
62
5
39
2
10
1.184210
20
38.594192
11
1.181657
21
38.593121
0
LINE
8
boundary
62
5
39
2
10
1.181657
20
38.593121
11
1.181497
21
38.593366
0
LINE
8
boundary
62
5
39
2
10
1.181497
20
38.593366
11
1.180290
21
38.590507
0
LINE
8
boundary
62
5
39
2
10
1.180290
20
38.590507
11
1.176036
21
38.579897
0
LINE
8
boundary
62
5
39
2
10
1.176036
20
38.579897
11
1.175772
21
38.579385
0
LINE
8
boundary
62
5
39
2
10
1.175772
20
38.579385
11
1.166888
21
38.562565
0
LINE
8
boundary
62
5
39
2
10
1.166888
20
38.562565
11
1.119911
21
38.489704
0
LINE
8
boundary
62
5
39
2
10
1.119911
20
38.489704
11
1.107393
21
38.470686
0
LINE
8
annotation
62
1
39
211
10
1.179385
20
38.546998
11
1.176885
21
38.546998
0
LINE
8
annotation
62
1
39
211
10
1.176885
20
38.546998
11
1.179385
21
38.551501
0
LINE
8
annotation
62
1
39
211
10
1.179385
20
38.551501
11
1.176885
21
38.551501
0
LINE
8
annotation
62
1
39
211
10
1.183536
20
38.549249
11
1.181074
21
38.549249
0
LINE
8
annotation
62
1
39
211
10
1.187724
20
38.547999
11
1.185224
21
38.547999
0
LINE
8
annotation
62
1
39
211
10
1.185224
20
38.547999
11
1.186222
21
38.551501
0
LINE
8
annotation
62
1
39
211
10
1.186975
20
38.546998
11
1.186975
21
38.548998
0
LINE
8
annotation
62
1
39
211
10
1.191875
20
38.549249
11
1.189413
21
38.549249
0
LINE
8
annotation
62
1
39
211
10
1.193563
20
38.546998
11
1.194563
21
38.546998
0
LINE
8
annotation
62
1
39
211
10
1.194563
20
38.546998
11
1.194563
21
38.546998
0
LINE
8
annotation
62
1
39
211
10
1.194563
20
38.546998
11
1.194743
21
38.547014
0
LINE
8
annotation
62
1
39
211
10
1.194743
20
38.547014
11
1.194912
21
38.547061
0
LINE
8
annotation
62
1
39
211
10
1.194912
20
38.547061
11
1.195068
21
38.547135
0
LINE
8
annotation
62
1
39
211
10
1.195068
20
38.547135
11
1.195207
21
38.547233
0
LINE
8
annotation
62
1
39
211
10
1.195207
20
38.547233
11
1.195328
21
38.547354
0
LINE
8
annotation
62
1
39
211
10
1.195328
20
38.547354
11
1.195426
21
38.547493
0
LINE
8
annotation
62
1
39
211
10
1.195426
20
38.547493
11
1.195500
21
38.547649
0
LINE
8
annotation
62
1
39
211
10
1.195500
20
38.547649
11
1.195547
21
38.547818
0
LINE
8
annotation
62
1
39
211
10
1.195547
20
38.547818
11
1.195563
21
38.547997
0
LINE
8
annotation
62
1
39
211
10
1.195563
20
38.547997
11
1.195563
21
38.548497
0
LINE
8
annotation
62
1
39
211
10
1.195563
20
38.548497
11
1.195563
21
38.548497
0
LINE
8
annotation
62
1
39
211
10
1.195563
20
38.548497
11
1.195547
21
38.548676
0
LINE
8
annotation
62
1
39
211
10
1.195547
20
38.548676
11
1.195500
21
38.548845
0
LINE
8
annotation
62
1
39
211
10
1.195500
20
38.548845
11
1.195426
21
38.549000
0
LINE
8
annotation
62
1
39
211
10
1.195426
20
38.549000
11
1.195328
21
38.549140
0
LINE
8
annotation
62
1
39
211
10
1.195328
20
38.549140
11
1.195207
21
38.549260
0
LINE
8
annotation
62
1
39
211
10
1.195207
20
38.549260
11
1.195068
21
38.549359
0
LINE
8
annotation
62
1
39
211
10
1.195068
20
38.549359
11
1.194912
21
38.549433
0
LINE
8
annotation
62
1
39
211
10
1.194912
20
38.549433
11
1.194743
21
38.549480
0
LINE
8
annotation
62
1
39
211
10
1.194743
20
38.549480
11
1.194563
21
38.549496
0
LINE
8
annotation
62
1
39
211
10
1.194563
20
38.549496
11
1.194062
21
38.549496
0
LINE
8
annotation
62
1
39
211
10
1.194062
20
38.549496
11
1.194563
21
38.549496
0
LINE
8
annotation
62
1
39
211
10
1.194563
20
38.549496
11
1.194563
21
38.549496
0
LINE
8
annotation
62
1
39
211
10
1.194563
20
38.549496
11
1.194743
21
38.549512
0
LINE
8
annotation
62
1
39
211
10
1.194743
20
38.549512
11
1.194912
21
38.549558
0
LINE
8
annotation
62
1
39
211
10
1.194912
20
38.549558
11
1.195068
21
38.549633
0
LINE
8
annotation
62
1
39
211
10
1.195068
20
38.549633
11
1.195207
21
38.549731
0
LINE
8
annotation
62
1
39
211
10
1.195207
20
38.549731
11
1.195328
21
38.549852
0
LINE
8
annotation
62
1
39
211
10
1.195328
20
38.549852
11
1.195426
21
38.549992
0
LINE
8
annotation
62
1
39
211
10
1.195426
20
38.549992
11
1.195500
21
38.550148
0
LINE
8
annotation
62
1
39
211
10
1.195500
20
38.550148
11
1.195547
21
38.550317
0
LINE
8
annotation
62
1
39
211
10
1.195547
20
38.550317
11
1.195563
21
38.550497
0
LINE
8
annotation
62
1
39
211
10
1.195563
20
38.550497
11
1.195563
21
38.550497
0
LINE
8
annotation
62
1
39
211
10
1.195563
20
38.550497
11
1.195547
21
38.550676
0
LINE
8
annotation
62
1
39
211
10
1.195547
20
38.550676
11
1.195500
21
38.550845
0
LINE
8
annotation
62
1
39
211
10
1.195500
20
38.550845
11
1.195426
21
38.551000
0
LINE
8
annotation
62
1
39
211
10
1.195426
20
38.551000
11
1.195328
21
38.551140
0
LINE
8
annotation
62
1
39
211
10
1.195328
20
38.551140
11
1.195207
21
38.551260
0
LINE
8
annotation
62
1
39
211
10
1.195207
20
38.551260
11
1.195068
21
38.551359
0
LINE
8
annotation
62
1
39
211
10
1.195068
20
38.551359
11
1.194912
21
38.551433
0
LINE
8
annotation
62
1
39
211
10
1.194912
20
38.551433
11
1.194743
21
38.551479
0
LINE
8
annotation
62
1
39
211
10
1.194743
20
38.551479
11
1.194563
21
38.551496
0
LINE
8
annotation
62
1
39
211
10
1.194563
20
38.551496
11
1.193563
21
38.551496
0
LINE
8
boundary
62
5
39
2
10
36.073534
20
3.883981
11
35.996506
21
3.831647
0
LINE
8
boundary
62
5
39
2
10
35.996506
20
3.831647
11
35.997696
21
3.788141
0
LINE
8
boundary
62
5
39
2
10
35.997696
20
3.788141
11
36.073534
21
3.754119
0
LINE
8
boundary
62
5
39
2
10
36.073534
20
3.754119
11
36.073534
21
3.883981
0
LINE
8
boundary
62
5
39
2
10
36.073636
20
8.380478
11
35.997698
21
8.346407
0
LINE
8
boundary
62
5
39
2
10
35.997698
20
8.346407
11
35.996544
21
8.302983
0
LINE
8
boundary
62
5
39
2
10
35.996544
20
8.302983
11
36.073636
21
8.250583
0
LINE
8
boundary
62
5
39
2
10
36.073636
20
8.250583
11
36.073636
21
8.380478
0
LINE
8
boundary
62
5
39
2
10
36.748067
20
0.779862
11
37.570386
21
0.686750
0
LINE
8
boundary
62
5
39
2
10
37.570386
20
0.686750
11
37.795741
21
0.784471
0
LINE
8
boundary
62
5
39
2
10
37.795741
20
0.784471
11
37.793179
21
0.805839
0
LINE
8
boundary
62
5
39
2
10
37.793179
20
0.805839
11
37.794178
21
0.813325
0
LINE
8
boundary
62
5
39
2
10
37.794178
20
0.813325
11
37.793399
21
0.835445
0
LINE
8
boundary
62
5
39
2
10
37.793399
20
0.835445
11
37.792746
21
0.853999
0
LINE
8
boundary
62
5
39
2
10
37.792746
20
0.853999
11
37.792122
21
0.867814
0
LINE
8
boundary
62
5
39
2
10
37.792122
20
0.867814
11
37.791607
21
0.876918
0
LINE
8
boundary
62
5
39
2
10
37.791607
20
0.876918
11
37.792586
21
0.883464
0
LINE
8
boundary
62
5
39
2
10
37.792586
20
0.883464
11
37.789208
21
0.954565
0
LINE
8
boundary
62
5
39
2
10
37.789208
20
0.954565
11
37.785248
21
1.126430
0
LINE
8
boundary
62
5
39
2
10
37.785248
20
1.126430
11
37.777567
21
1.273340
0
LINE
8
boundary
62
5
39
2
10
37.777567
20
1.273340
11
37.702583
21
1.309202
0
LINE
8
boundary
62
5
39
2
10
37.702583
20
1.309202
11
36.939970
21
3.691912
0
LINE
8
boundary
62
5
39
2
10
36.939970
20
3.691912
11
36.703861
21
3.785681
0
LINE
8
boundary
62
5
39
2
10
36.703861
20
3.785681
11
36.734072
21
3.814663
0
LINE
8
boundary
62
5
39
2
10
36.734072
20
3.814663
11
37.464210
21
4.177263
0
LINE
8
boundary
62
5
39
2
10
37.464210
20
4.177263
11
38.016153
21
4.489419
0
LINE
8
boundary
62
5
39
2
10
38.016153
20
4.489419
11
38.182169
21
4.682023
0
LINE
8
boundary
62
5
39
2
10
38.182169
20
4.682023
11
38.840368
21
5.916801
0
LINE
8
boundary
62
5
39
2
10
38.840368
20
5.916801
11
38.638224
21
5.937632
0
LINE
8
boundary
62
5
39
2
10
38.638224
20
5.937632
11
38.416360
21
5.955627
0
LINE
8
boundary
62
5
39
2
10
38.416360
20
5.955627
11
38.400175
21
5.956726
0
LINE
8
boundary
62
5
39
2
10
38.400175
20
5.956726
11
38.417927
21
5.968955
0
LINE
8
boundary
62
5
39
2
10
38.417927
20
5.968955
11
38.318074
21
5.980436
0
LINE
8
boundary
62
5
39
2
10
38.318074
20
5.980436
11
38.272231
21
5.997504
0
LINE
8
boundary
62
5
39
2
10
38.272231
20
5.997504
11
38.272236
21
5.997894
0
LINE
8
boundary
62
5
39
2
10
38.272236
20
5.997894
11
38.270845
21
5.998009
0
LINE
8
boundary
62
5
39
2
10
38.270845
20
5.998009
11
38.236413
21
6.001990
0
LINE
8
boundary
62
5
39
2
10
38.236413
20
6.001990
11
38.185648
21
6.002730
0
LINE
8
boundary
62
5
39
2
10
38.185648
20
6.002730
11
37.967415
21
6.020298
0
LINE
8
boundary
62
5
39
2
10
37.967415
20
6.020298
11
37.912317
21
6.024187
0
LINE
8
boundary
62
5
39
2
10
37.912317
20
6.024187
11
37.875679
21
6.036407
0
LINE
8
boundary
62
5
39
2
10
37.875679
20
6.036407
11
37.845558
21
6.045827
0
LINE
8
boundary
62
5
39
2
10
37.845558
20
6.045827
11
37.780916
21
5.935717
0
LINE
8
boundary
62
5
39
2
10
37.780916
20
5.935717
11
37.780916
21
5.814973
0
LINE
8
boundary
62
5
39
2
10
37.780916
20
5.814973
11
37.710030
21
5.814973
0
LINE
8
boundary
62
5
39
2
10
37.710030
20
5.814973
11
37.009669
21
4.621998
0
LINE
8
boundary
62
5
39
2
10
37.009669
20
4.621998
11
36.975087
21
4.581162
0
LINE
8
boundary
62
5
39
2
10
36.975087
20
4.581162
11
36.354661
21
4.074979
0
LINE
8
boundary
62
5
39
2
10
36.354661
20
4.074979
11
36.165539
21
3.946489
0
LINE
8
boundary
62
5
39
2
10
36.165539
20
3.946489
11
36.178069
21
3.919989
0
LINE
8
boundary
62
5
39
2
10
36.178069
20
3.919989
11
36.564804
21
3.919989
0
LINE
8
boundary
62
5
39
2
10
36.564804
20
3.919989
11
36.564804
21
3.415389
0
LINE
8
boundary
62
5
39
2
10
36.564804
20
3.415389
11
36.251077
21
3.415389
0
LINE
8
boundary
62
5
39
2
10
36.251077
20
3.415389
11
36.238547
21
3.388889
0
LINE
8
boundary
62
5
39
2
10
36.238547
20
3.388889
11
36.998210
21
1.189006
0
LINE
8
boundary
62
5
39
2
10
36.998210
20
1.189006
11
37.001832
21
1.187606
0
LINE
8
boundary
62
5
39
2
10
37.001832
20
1.187606
11
37.002001
21
1.182508
0
LINE
8
boundary
62
5
39
2
10
37.002001
20
1.182508
11
37.002313
21
1.175855
0
LINE
8
boundary
62
5
39
2
10
37.002313
20
1.175855
11
37.002344
21
1.175096
0
LINE
8
boundary
62
5
39
2
10
37.002344
20
1.175096
11
37.002342
21
1.174501
0
LINE
8
boundary
62
5
39
2
10
37.002342
20
1.174501
11
36.995463
21
1.172518
0
LINE
8
boundary
62
5
39
2
10
36.995463
20
1.172518
11
36.969358
21
1.174655
0
LINE
8
boundary
62
5
39
2
10
36.969358
20
1.174655
11
36.959858
21
1.177209
0
LINE
8
boundary
62
5
39
2
10
36.959858
20
1.177209
11
36.764152
21
1.385967
0
LINE
8
boundary
62
5
39
2
10
36.764152
20
1.385967
11
36.764152
21
1.015805
0
LINE
8
boundary
62
5
39
2
10
36.764152
20
1.015805
11
36.285176
21
1.015805
0
LINE
8
boundary
62
5
39
2
10
36.285176
20
1.015805
11
36.272646
21
0.989305
0
LINE
8
boundary
62
5
39
2
10
36.272646
20
0.989305
11
36.393195
21
0.862962
0
LINE
8
boundary
62
5
39
2
10
36.393195
20
0.862962
11
36.748067
21
0.779862
0
LINE
8
boundary
62
5
39
2
10
36.764239
20
10.748761
11
36.959685
21
10.957251
0
LINE
8
boundary
62
5
39
2
10
36.959685
20
10.957251
11
36.969150
21
10.959796
0
LINE
8
boundary
62
5
39
2
10
36.969150
20
10.959796
11
36.995162
21
10.961925
0
LINE
8
boundary
62
5
39
2
10
36.995162
20
10.961925
11
37.002024
21
10.959950
0
LINE
8
boundary
62
5
39
2
10
37.002024
20
10.959950
11
37.001942
21
10.959328
0
LINE
8
boundary
62
5
39
2
10
37.001942
20
10.959328
11
37.001987
21
10.958601
0
LINE
8
boundary
62
5
39
2
10
37.001987
20
10.958601
11
37.001979
21
10.958535
0
LINE
8
boundary
62
5
39
2
10
37.001979
20
10.958535
11
37.001768
21
10.954035
0
LINE
8
boundary
62
5
39
2
10
37.001768
20
10.954035
11
37.001507
21
10.946891
0
LINE
8
boundary
62
5
39
2
10
37.001507
20
10.946891
11
36.997897
21
10.945496
0
LINE
8
boundary
62
5
39
2
10
36.997897
20
10.945496
11
36.238478
21
8.745657
0
LINE
8
boundary
62
5
39
2
10
36.238478
20
8.745657
11
36.251008
21
8.719157
0
LINE
8
boundary
62
5
39
2
10
36.251008
20
8.719157
11
36.564901
21
8.719157
0
LINE
8
boundary
62
5
39
2
10
36.564901
20
8.719157
11
36.564901
21
8.214557
0
LINE
8
boundary
62
5
39
2
10
36.564901
20
8.214557
11
36.178152
21
8.214557
0
LINE
8
boundary
62
5
39
2
10
36.178152
20
8.214557
11
36.165622
21
8.188057
0
LINE
8
boundary
62
5
39
2
10
36.165622
20
8.188057
11
36.354677
21
8.059552
0
LINE
8
boundary
62
5
39
2
10
36.354677
20
8.059552
11
36.975135
21
7.553327
0
LINE
8
boundary
62
5
39
2
10
36.975135
20
7.553327
11
37.009645
21
7.512511
0
LINE
8
boundary
62
5
39
2
10
37.009645
20
7.512511
11
37.694355
21
6.346073
0
LINE
8
boundary
62
5
39
2
10
37.694355
20
6.346073
11
37.709911
21
6.319573
0
LINE
8
boundary
62
5
39
2
10
37.709911
20
6.319573
11
37.780916
21
6.319573
0
LINE
8
boundary
62
5
39
2
10
37.780916
20
6.319573
11
37.780916
21
6.198613
0
LINE
8
boundary
62
5
39
2
10
37.780916
20
6.198613
11
37.845470
21
6.088641
0
LINE
8
boundary
62
5
39
2
10
37.845470
20
6.088641
11
37.875599
21
6.098036
0
LINE
8
boundary
62
5
39
2
10
37.875599
20
6.098036
11
38.130403
21
6.114083
0
LINE
8
boundary
62
5
39
2
10
38.130403
20
6.114083
11
38.185180
21
6.134210
0
LINE
8
boundary
62
5
39
2
10
38.185180
20
6.134210
11
38.267918
21
6.145873
0
LINE
8
boundary
62
5
39
2
10
38.267918
20
6.145873
11
38.269939
21
6.139563
0
LINE
8
boundary
62
5
39
2
10
38.269939
20
6.139563
11
38.290696
21
6.147228
0
LINE
8
boundary
62
5
39
2
10
38.290696
20
6.147228
11
38.418905
21
6.143617
0
LINE
8
boundary
62
5
39
2
10
38.418905
20
6.143617
11
38.410440
21
6.154045
0
LINE
8
boundary
62
5
39
2
10
38.410440
20
6.154045
11
38.408574
21
6.159624
0
LINE
8
boundary
62
5
39
2
10
38.408574
20
6.159624
11
38.488084
21
6.166380
0
LINE
8
boundary
62
5
39
2
10
38.488084
20
6.166380
11
38.564963
21
6.170754
0
LINE
8
boundary
62
5
39
2
10
38.564963
20
6.170754
11
38.638243
21
6.196763
0
LINE
8
boundary
62
5
39
2
10
38.638243
20
6.196763
11
38.840388
21
6.217886
0
LINE
8
boundary
62
5
39
2
10
38.840388
20
6.217886
11
38.182210
21
7.452472
0
LINE
8
boundary
62
5
39
2
10
38.182210
20
7.452472
11
38.016206
21
7.645088
0
LINE
8
boundary
62
5
39
2
10
38.016206
20
7.645088
11
37.464192
21
7.957168
0
LINE
8
boundary
62
5
39
2
10
37.464192
20
7.957168
11
36.730992
21
8.319199
0
LINE
8
boundary
62
5
39
2
10
36.730992
20
8.319199
11
36.701892
21
8.348000
0
LINE
8
boundary
62
5
39
2
10
36.701892
20
8.348000
11
36.940148
21
8.442922
0
LINE
8
boundary
62
5
39
2
10
36.940148
20
8.442922
11
37.702819
21
10.825640
0
LINE
8
boundary
62
5
39
2
10
37.702819
20
10.825640
11
37.777666
21
10.861435
0
LINE
8
boundary
62
5
39
2
10
37.777666
20
10.861435
11
37.785345
21
11.007714
0
LINE
8
boundary
62
5
39
2
10
37.785345
20
11.007714
11
37.788987
21
11.166610
0
LINE
8
boundary
62
5
39
2
10
37.788987
20
11.166610
11
37.791836
21
11.210603
0
LINE
8
boundary
62
5
39
2
10
37.791836
20
11.210603
11
37.791987
21
11.240820
0
LINE
8
boundary
62
5
39
2
10
37.791987
20
11.240820
11
37.792063
21
11.257902
0
LINE
8
boundary
62
5
39
2
10
37.792063
20
11.257902
11
37.791913
21
11.281837
0
LINE
8
boundary
62
5
39
2
10
37.791913
20
11.281837
11
37.793525
21
11.299403
0
LINE
8
boundary
62
5
39
2
10
37.793525
20
11.299403
11
37.794300
21
11.321400
0
LINE
8
boundary
62
5
39
2
10
37.794300
20
11.321400
11
37.793517
21
11.328731
0
LINE
8
boundary
62
5
39
2
10
37.793517
20
11.328731
11
37.795866
21
11.350251
0
LINE
8
boundary
62
5
39
2
10
37.795866
20
11.350251
11
37.570521
21
11.447947
0
LINE
8
boundary
62
5
39
2
10
37.570521
20
11.447947
11
36.748323
21
11.354866
0
LINE
8
boundary
62
5
39
2
10
36.748323
20
11.354866
11
36.393467
21
11.271759
0
LINE
8
boundary
62
5
39
2
10
36.393467
20
11.271759
11
36.272747
21
11.145241
0
LINE
8
boundary
62
5
39
2
10
36.272747
20
11.145241
11
36.285277
21
11.118741
0
LINE
8
boundary
62
5
39
2
10
36.285277
20
11.118741
11
36.764239
21
11.118741
0
LINE
8
boundary
62
5
39
2
10
36.764239
20
11.118741
11
36.764239
21
10.748761
0
LINE
8
boundary
62
5
39
2
10
36.638119
20
1.520405
11
35.045215
21
3.219547
0
LINE
8
boundary
62
5
39
2
10
35.045215
20
3.219547
11
34.639095
21
3.710282
0
LINE
8
boundary
62
5
39
2
10
34.639095
20
3.710282
11
34.268366
21
5.006853
0
LINE
8
boundary
62
5
39
2
10
34.268366
20
5.006853
11
34.083505
21
5.314896
0
LINE
8
boundary
62
5
39
2
10
34.083505
20
5.314896
11
34.274906
21
5.894131
0
LINE
8
boundary
62
5
39
2
10
34.274906
20
5.894131
11
34.274906
21
6.240413
0
LINE
8
boundary
62
5
39
2
10
34.274906
20
6.240413
11
34.083499
21
6.819641
0
LINE
8
boundary
62
5
39
2
10
34.083499
20
6.819641
11
34.268357
21
7.127680
0
LINE
8
boundary
62
5
39
2
10
34.268357
20
7.127680
11
34.639088
21
8.424259
0
LINE
8
boundary
62
5
39
2
10
34.639088
20
8.424259
11
35.045212
21
8.915002
0
LINE
8
boundary
62
5
39
2
10
35.045212
20
8.915002
11
36.638042
21
10.614141
0
LINE
8
boundary
62
5
39
2
10
36.638042
20
10.614141
11
35.765989
21
10.614141
0
LINE
8
boundary
62
5
39
2
10
35.765989
20
10.614141
11
35.740703
21
10.587641
0
LINE
8
boundary
62
5
39
2
10
35.740703
20
10.587641
11
34.762644
21
9.562602
0
LINE
8
boundary
62
5
39
2
10
34.762644
20
9.562602
11
34.041178
21
8.745657
0
LINE
8
boundary
62
5
39
2
10
34.041178
20
8.745657
11
34.053708
21
8.719157
0
LINE
8
boundary
62
5
39
2
10
34.053708
20
8.719157
11
34.296176
21
8.719157
0
LINE
8
boundary
62
5
39
2
10
34.296176
20
8.719157
11
34.296176
21
8.214557
0
LINE
8
boundary
62
5
39
2
10
34.296176
20
8.214557
11
33.735332
21
8.214557
0
LINE
8
boundary
62
5
39
2
10
33.735332
20
8.214557
11
33.722802
21
8.188057
0
LINE
8
boundary
62
5
39
2
10
33.722802
20
8.188057
11
33.493807
21
7.674364
0
LINE
8
boundary
62
5
39
2
10
33.493807
20
7.674364
11
33.152732
21
6.999259
0
LINE
8
boundary
62
5
39
2
10
33.152732
20
6.999259
11
33.315489
21
6.417798
0
LINE
8
boundary
62
5
39
2
10
33.315489
20
6.417798
11
33.368841
21
6.346073
0
LINE
8
boundary
62
5
39
2
10
33.368841
20
6.346073
11
33.388552
21
6.319573
0
LINE
8
boundary
62
5
39
2
10
33.388552
20
6.319573
11
33.851681
21
6.319573
0
LINE
8
boundary
62
5
39
2
10
33.851681
20
6.319573
11
33.851681
21
5.814973
0
LINE
8
boundary
62
5
39
2
10
33.851681
20
5.814973
11
33.388584
21
5.814973
0
LINE
8
boundary
62
5
39
2
10
33.388584
20
5.814973
11
33.315465
21
5.716663
0
LINE
8
boundary
62
5
39
2
10
33.315465
20
5.716663
11
33.152674
21
5.135110
0
LINE
8
boundary
62
5
39
2
10
33.152674
20
5.135110
11
33.493806
21
4.460179
0
LINE
8
boundary
62
5
39
2
10
33.493806
20
4.460179
11
33.722808
21
3.946489
0
LINE
8
boundary
62
5
39
2
10
33.722808
20
3.946489
11
33.735338
21
3.919989
0
LINE
8
boundary
62
5
39
2
10
33.735338
20
3.919989
11
34.296181
21
3.919989
0
LINE
8
boundary
62
5
39
2
10
34.296181
20
3.919989
11
34.296181
21
3.415389
0
LINE
8
boundary
62
5
39
2
10
34.296181
20
3.415389
11
34.053678
21
3.415389
0
LINE
8
boundary
62
5
39
2
10
34.053678
20
3.415389
11
34.041148
21
3.388889
0
LINE
8
boundary
62
5
39
2
10
34.041148
20
3.388889
11
34.762715
21
2.571826
0
LINE
8
boundary
62
5
39
2
10
34.762715
20
2.571826
11
35.765908
21
1.520405
0
LINE
8
boundary
62
5
39
2
10
35.765908
20
1.520405
11
36.638119
21
1.520405
0
LINE
8
annotation
62
1
39
211
10
37.037961
20
0.967408
11
36.959177
21
0.967408
0
LINE
8
annotation
62
1
39
211
10
36.959177
20
0.967408
11
37.031976
21
1.084605
0
LINE
8
annotation
62
1
39
211
10
37.031976
20
1.084605
11
37.031976
21
1.084605
0
LINE
8
annotation
62
1
39
211
10
37.031976
20
1.084605
11
37.032063
21
1.084713
0
LINE
8
annotation
62
1
39
211
10
37.032063
20
1.084713
11
37.032147
21
1.084821
0
LINE
8
annotation
62
1
39
211
10
37.032147
20
1.084821
11
37.032227
21
1.084932
0
LINE
8
annotation
62
1
39
211
10
37.032227
20
1.084932
11
37.032305
21
1.085045
0
LINE
8
annotation
62
1
39
211
10
37.032305
20
1.085045
11
37.032381
21
1.085162
0
LINE
8
annotation
62
1
39
211
10
37.032381
20
1.085162
11
37.032456
21
1.085283
0
LINE
8
annotation
62
1
39
211
10
37.032456
20
1.085283
11
37.032530
21
1.085410
0
LINE
8
annotation
62
1
39
211
10
37.032530
20
1.085410
11
37.032603
21
1.085543
0
LINE
8
annotation
62
1
39
211
10
37.032603
20
1.085543
11
37.032677
21
1.085684
0
LINE
8
annotation
62
1
39
211
10
37.032677
20
1.085684
11
37.032677
21
1.085684
0
LINE
8
annotation
62
1
39
211
10
37.032677
20
1.085684
11
37.035683
21
1.092138
0
LINE
8
annotation
62
1
39
211
10
37.035683
20
1.092138
11
37.037439
21
1.098828
0
LINE
8
annotation
62
1
39
211
10
37.037439
20
1.098828
11
37.037988
21
1.105603
0
LINE
8
annotation
62
1
39
211
10
37.037988
20
1.105603
11
37.037373
21
1.112311
0
LINE
8
annotation
62
1
39
211
10
37.037373
20
1.112311
11
37.035638
21
1.118803
0
LINE
8
annotation
62
1
39
211
10
37.035638
20
1.118803
11
37.032825
21
1.124925
0
LINE
8
annotation
62
1
39
211
10
37.032825
20
1.124925
11
37.028977
21
1.130528
0
LINE
8
annotation
62
1
39
211
10
37.028977
20
1.130528
11
37.024137
21
1.135461
0
LINE
8
annotation
62
1
39
211
10
37.024137
20
1.135461
11
37.018349
21
1.139571
0
LINE
8
annotation
62
1
39
211
10
37.018349
20
1.139571
11
37.018349
21
1.139571
0
LINE
8
annotation
62
1
39
211
10
37.018349
20
1.139571
11
37.011877
21
1.142534
0
LINE
8
annotation
62
1
39
211
10
37.011877
20
1.142534
11
37.005177
21
1.144263
0
LINE
8
annotation
62
1
39
211
10
37.005177
20
1.144263
11
36.998398
21
1.144797
0
LINE
8
annotation
62
1
39
211
10
36.998398
20
1.144797
11
36.991690
21
1.144174
0
LINE
8
annotation
62
1
39
211
10
36.991690
20
1.144174
11
36.985203
21
1.142434
0
LINE
8
annotation
62
1
39
211
10
36.985203
20
1.142434
11
36.979087
21
1.139615
0
LINE
8
annotation
62
1
39
211
10
36.979087
20
1.139615
11
36.973492
21
1.135756
0
LINE
8
annotation
62
1
39
211
10
36.973492
20
1.135756
11
36.968567
21
1.130897
0
LINE
8
annotation
62
1
39
211
10
36.968567
20
1.130897
11
36.964462
21
1.125076
0
LINE
8
annotation
62
1
39
211
10
36.964462
20
1.125076
11
36.959289
21
1.115153
0
LINE
8
annotation
62
1
39
211
10
36.825716
20
3.334949
11
36.879343
21
3.334949
0
LINE
8
annotation
62
1
39
211
10
36.879343
20
3.334949
11
36.879343
21
3.334949
0
LINE
8
annotation
62
1
39
211
10
36.879343
20
3.334949
11
36.888988
21
3.335814
0
LINE
8
annotation
62
1
39
211
10
36.888988
20
3.335814
11
36.898063
21
3.338308
0
LINE
8
annotation
62
1
39
211
10
36.898063
20
3.338308
11
36.906418
21
3.342277
0
LINE
8
annotation
62
1
39
211
10
36.906418
20
3.342277
11
36.913902
21
3.347568
0
LINE
8
annotation
62
1
39
211
10
36.913902
20
3.347568
11
36.920364
21
3.354028
0
LINE
8
annotation
62
1
39
211
10
36.920364
20
3.354028
11
36.925653
21
3.361505
0
LINE
8
annotation
62
1
39
211
10
36.925653
20
3.361505
11
36.929617
21
3.369844
0
LINE
8
annotation
62
1
39
211
10
36.929617
20
3.369844
11
36.932106
21
3.378894
0
LINE
8
annotation
62
1
39
211
10
36.932106
20
3.378894
11
36.932970
21
3.388500
0
LINE
8
annotation
62
1
39
211
10
36.932970
20
3.388500
11
36.932970
21
3.415352
0
LINE
8
annotation
62
1
39
211
10
36.932970
20
3.415352
11
36.932970
21
3.415352
0
LINE
8
annotation
62
1
39
211
10
36.932970
20
3.415352
11
36.932106
21
3.424954
0
LINE
8
annotation
62
1
39
211
10
36.932106
20
3.424954
11
36.929617
21
3.434002
0
LINE
8
annotation
62
1
39
211
10
36.929617
20
3.434002
11
36.925653
21
3.442340
0
LINE
8
annotation
62
1
39
211
10
36.925653
20
3.442340
11
36.920364
21
3.449817
0
LINE
8
annotation
62
1
39
211
10
36.920364
20
3.449817
11
36.913902
21
3.456279
0
LINE
8
annotation
62
1
39
211
10
36.913902
20
3.456279
11
36.906418
21
3.461572
0
LINE
8
annotation
62
1
39
211
10
36.906418
20
3.461572
11
36.898063
21
3.465542
0
LINE
8
annotation
62
1
39
211
10
36.898063
20
3.465542
11
36.888988
21
3.468037
0
LINE
8
annotation
62
1
39
211
10
36.888988
20
3.468037
11
36.879343
21
3.468903
0
LINE
8
annotation
62
1
39
211
10
36.879343
20
3.468903
11
36.852491
21
3.468903
0
LINE
8
annotation
62
1
39
211
10
36.852491
20
3.468903
11
36.879343
21
3.468903
0
LINE
8
annotation
62
1
39
211
10
36.879343
20
3.468903
11
36.879343
21
3.468903
0
LINE
8
annotation
62
1
39
211
10
36.879343
20
3.468903
11
36.888988
21
3.469769
0
LINE
8
annotation
62
1
39
211
10
36.888988
20
3.469769
11
36.898063
21
3.472265
0
LINE
8
annotation
62
1
39
211
10
36.898063
20
3.472265
11
36.906418
21
3.476240
0
LINE
8
annotation
62
1
39
211
10
36.906418
20
3.476240
11
36.913902
21
3.481540
0
LINE
8
annotation
62
1
39
211
10
36.913902
20
3.481540
11
36.920364
21
3.488014
0
LINE
8
annotation
62
1
39
211
10
36.920364
20
3.488014
11
36.925653
21
3.495510
0
LINE
8
annotation
62
1
39
211
10
36.925653
20
3.495510
11
36.929617
21
3.503875
0
LINE
8
annotation
62
1
39
211
10
36.929617
20
3.503875
11
36.932106
21
3.512958
0
LINE
8
annotation
62
1
39
211
10
36.932106
20
3.512958
11
36.932970
21
3.522605
0
LINE
8
annotation
62
1
39
211
10
36.932970
20
3.522605
11
36.932970
21
3.522605
0
LINE
8
annotation
62
1
39
211
10
36.932970
20
3.522605
11
36.932106
21
3.532208
0
LINE
8
annotation
62
1
39
211
10
36.932106
20
3.532208
11
36.929617
21
3.541255
0
LINE
8
annotation
62
1
39
211
10
36.929617
20
3.541255
11
36.925653
21
3.549594
0
LINE
8
annotation
62
1
39
211
10
36.925653
20
3.549594
11
36.920364
21
3.557071
0
LINE
8
annotation
62
1
39
211
10
36.920364
20
3.557071
11
36.913902
21
3.563533
0
LINE
8
annotation
62
1
39
211
10
36.913902
20
3.563533
11
36.906418
21
3.568826
0
LINE
8
annotation
62
1
39
211
10
36.906418
20
3.568826
11
36.898063
21
3.572796
0
LINE
8
annotation
62
1
39
211
10
36.898063
20
3.572796
11
36.888988
21
3.575291
0
LINE
8
annotation
62
1
39
211
10
36.888988
20
3.575291
11
36.879343
21
3.576157
0
LINE
8
annotation
62
1
39
211
10
36.879343
20
3.576157
11
36.825716
21
3.576157
0
LINE
8
annotation
62
1
39
211
10
34.567819
20
3.329732
11
34.623763
21
3.329732
0
LINE
8
annotation
62
1
39
211
10
34.623763
20
3.329732
11
34.623763
21
3.329732
0
LINE
8
annotation
62
1
39
211
10
34.623763
20
3.329732
11
34.633824
21
3.330634
0
LINE
8
annotation
62
1
39
211
10
34.633824
20
3.330634
11
34.643292
21
3.333236
0
LINE
8
annotation
62
1
39
211
10
34.643292
20
3.333236
11
34.652008
21
3.337376
0
LINE
8
annotation
62
1
39
211
10
34.652008
20
3.337376
11
34.659816
21
3.342896
0
LINE
8
annotation
62
1
39
211
10
34.659816
20
3.342896
11
34.666557
21
3.349635
0
LINE
8
annotation
62
1
39
211
10
34.666557
20
3.349635
11
34.672074
21
3.357435
0
LINE
8
annotation
62
1
39
211
10
34.672074
20
3.357435
11
34.676209
21
3.366135
0
LINE
8
annotation
62
1
39
211
10
34.676209
20
3.366135
11
34.678806
21
3.375575
0
LINE
8
annotation
62
1
39
211
10
34.678806
20
3.375575
11
34.679707
21
3.385597
0
LINE
8
annotation
62
1
39
211
10
34.679707
20
3.385597
11
34.679707
21
3.413609
0
LINE
8
annotation
62
1
39
211
10
34.679707
20
3.413609
11
34.679707
21
3.413609
0
LINE
8
annotation
62
1
39
211
10
34.679707
20
3.413609
11
34.678806
21
3.423626
0
LINE
8
annotation
62
1
39
211
10
34.678806
20
3.423626
11
34.676209
21
3.433064
0
LINE
8
annotation
62
1
39
211
10
34.676209
20
3.433064
11
34.672074
21
3.441764
0
LINE
8
annotation
62
1
39
211
10
34.672074
20
3.441764
11
34.666557
21
3.449564
0
LINE
8
annotation
62
1
39
211
10
34.666557
20
3.449564
11
34.659816
21
3.456304
0
LINE
8
annotation
62
1
39
211
10
34.659816
20
3.456304
11
34.652008
21
3.461826
0
LINE
8
annotation
62
1
39
211
10
34.652008
20
3.461826
11
34.643292
21
3.465968
0
LINE
8
annotation
62
1
39
211
10
34.643292
20
3.465968
11
34.633824
21
3.468571
0
LINE
8
annotation
62
1
39
211
10
34.633824
20
3.468571
11
34.623763
21
3.469474
0
LINE
8
annotation
62
1
39
211
10
34.623763
20
3.469474
11
34.595751
21
3.469474
0
LINE
8
annotation
62
1
39
211
10
34.595751
20
3.469474
11
34.623763
21
3.469474
0
LINE
8
annotation
62
1
39
211
10
34.623763
20
3.469474
11
34.623763
21
3.469474
0
LINE
8
annotation
62
1
39
211
10
34.623763
20
3.469474
11
34.633824
21
3.470377
0
LINE
8
annotation
62
1
39
211
10
34.633824
20
3.470377
11
34.643292
21
3.472981
0
LINE
8
annotation
62
1
39
211
10
34.643292
20
3.472981
11
34.652008
21
3.477128
0
LINE
8
annotation
62
1
39
211
10
34.652008
20
3.477128
11
34.659816
21
3.482657
0
LINE
8
annotation
62
1
39
211
10
34.659816
20
3.482657
11
34.666557
21
3.489411
0
LINE
8
annotation
62
1
39
211
10
34.666557
20
3.489411
11
34.672074
21
3.497231
0
LINE
8
annotation
62
1
39
211
10
34.672074
20
3.497231
11
34.676209
21
3.505958
0
LINE
8
annotation
62
1
39
211
10
34.676209
20
3.505958
11
34.678806
21
3.515433
0
LINE
8
annotation
62
1
39
211
10
34.678806
20
3.515433
11
34.679707
21
3.525497
0
LINE
8
annotation
62
1
39
211
10
34.679707
20
3.525497
11
34.679707
21
3.525497
0
LINE
8
annotation
62
1
39
211
10
34.679707
20
3.525497
11
34.678806
21
3.535514
0
LINE
8
annotation
62
1
39
211
10
34.678806
20
3.535514
11
34.676209
21
3.544953
0
LINE
8
annotation
62
1
39
211
10
34.676209
20
3.544953
11
34.672074
21
3.553652
0
LINE
8
annotation
62
1
39
211
10
34.672074
20
3.553652
11
34.666557
21
3.561452
0
LINE
8
annotation
62
1
39
211
10
34.666557
20
3.561452
11
34.659816
21
3.568193
0
LINE
8
annotation
62
1
39
211
10
34.659816
20
3.568193
11
34.652008
21
3.573714
0
LINE
8
annotation
62
1
39
211
10
34.652008
20
3.573714
11
34.643292
21
3.577857
0
LINE
8
annotation
62
1
39
211
10
34.643292
20
3.577857
11
34.633824
21
3.580459
0
LINE
8
annotation
62
1
39
211
10
34.633824
20
3.580459
11
34.623763
21
3.581362
0
LINE
8
annotation
62
1
39
211
10
34.623763
20
3.581362
11
34.567819
21
3.581362
0
LINE
8
annotation
62
1
39
211
10
38.031212
20
5.812080
11
37.944845
21
5.812080
0
LINE
8
annotation
62
1
39
211
10
37.944845
20
5.812080
11
37.979338
21
5.933046
0
LINE
8
annotation
62
1
39
211
10
38.005324
20
5.777500
11
38.005324
21
5.846582
0
LINE
8
annotation
62
1
39
211
10
34.338450
20
6.066475
11
34.336853
21
6.066475
0
LINE
8
annotation
62
1
39
211
10
34.336853
20
6.066475
11
34.337491
21
6.068711
0
LINE
8
annotation
62
1
39
211
10
34.337972
20
6.065835
11
34.337972
21
6.067112
0
LINE
8
annotation
62
1
39
211
10
34.241661
20
5.998687
11
34.104519
21
5.998687
0
LINE
8
annotation
62
1
39
211
10
34.104519
20
5.998687
11
34.159289
21
6.190769
0
LINE
8
annotation
62
1
39
211
10
34.200552
20
5.943777
11
34.200552
21
6.053472
0
LINE
8
annotation
62
1
39
211
10
36.711209
20
8.401861
11
36.740075
21
8.401861
0
LINE
8
annotation
62
1
39
211
10
36.740075
20
8.401861
11
36.740075
21
8.401861
0
LINE
8
annotation
62
1
39
211
10
36.740075
20
8.401861
11
36.745256
21
8.402327
0
LINE
8
annotation
62
1
39
211
10
36.745256
20
8.402327
11
36.750136
21
8.403670
0
LINE
8
annotation
62
1
39
211
10
36.750136
20
8.403670
11
36.754631
21
8.405808
0
LINE
8
annotation
62
1
39
211
10
36.754631
20
8.405808
11
36.758661
21
8.408660
0
LINE
8
annotation
62
1
39
211
10
36.758661
20
8.408660
11
36.762143
21
8.412144
0
LINE
8
annotation
62
1
39
211
10
36.762143
20
8.412144
11
36.764994
21
8.416177
0
LINE
8
annotation
62
1
39
211
10
36.764994
20
8.416177
11
36.767132
21
8.420679
0
LINE
8
annotation
62
1
39
211
10
36.767132
20
8.420679
11
36.768475
21
8.425567
0
LINE
8
annotation
62
1
39
211
10
36.768475
20
8.425567
11
36.768941
21
8.430760
0
LINE
8
annotation
62
1
39
211
10
36.768941
20
8.430760
11
36.768941
21
8.445140
0
LINE
8
annotation
62
1
39
211
10
36.768941
20
8.445140
11
36.768941
21
8.445140
0
LINE
8
annotation
62
1
39
211
10
36.768941
20
8.445140
11
36.768476
21
8.450330
0
LINE
8
annotation
62
1
39
211
10
36.768476
20
8.450330
11
36.767133
21
8.455212
0
LINE
8
annotation
62
1
39
211
10
36.767133
20
8.455212
11
36.764996
21
8.459704
0
LINE
8
annotation
62
1
39
211
10
36.764996
20
8.459704
11
36.762145
21
8.463726
0
LINE
8
annotation
62
1
39
211
10
36.762145
20
8.463726
11
36.758664
21
8.467197
0
LINE
8
annotation
62
1
39
211
10
36.758664
20
8.467197
11
36.754635
21
8.470038
0
LINE
8
annotation
62
1
39
211
10
36.754635
20
8.470038
11
36.750139
21
8.472166
0
LINE
8
annotation
62
1
39
211
10
36.750139
20
8.472166
11
36.745258
21
8.473502
0
LINE
8
annotation
62
1
39
211
10
36.745258
20
8.473502
11
36.740075
21
8.473966
0
LINE
8
annotation
62
1
39
211
10
36.740075
20
8.473966
11
36.711209
21
8.473966
0
LINE
8
annotation
62
1
39
211
10
36.711209
20
8.473966
11
36.711209
21
8.531853
0
LINE
8
annotation
62
1
39
211
10
36.711209
20
8.531853
11
36.768941
21
8.531853
0
LINE
8
annotation
62
1
39
211
10
34.505301
20
8.371302
11
34.547739
21
8.371302
0
LINE
8
annotation
62
1
39
211
10
34.547739
20
8.371302
11
34.547739
21
8.371302
0
LINE
8
annotation
62
1
39
211
10
34.547739
20
8.371302
11
34.555356
21
8.371987
0
LINE
8
annotation
62
1
39
211
10
34.555356
20
8.371987
11
34.562530
21
8.373961
0
LINE
8
annotation
62
1
39
211
10
34.562530
20
8.373961
11
34.569139
21
8.377105
0
LINE
8
annotation
62
1
39
211
10
34.569139
20
8.377105
11
34.575064
21
8.381298
0
LINE
8
annotation
62
1
39
211
10
34.575064
20
8.381298
11
34.580182
21
8.386419
0
LINE
8
annotation
62
1
39
211
10
34.580182
20
8.386419
11
34.584374
21
8.392349
0
LINE
8
annotation
62
1
39
211
10
34.584374
20
8.392349
11
34.587518
21
8.398968
0
LINE
8
annotation
62
1
39
211
10
34.587518
20
8.398968
11
34.589493
21
8.406154
0
LINE
8
annotation
62
1
39
211
10
34.589493
20
8.406154
11
34.590178
21
8.413788
0
LINE
8
annotation
62
1
39
211
10
34.590178
20
8.413788
11
34.590178
21
8.434930
0
LINE
8
annotation
62
1
39
211
10
34.590178
20
8.434930
11
34.590178
21
8.434930
0
LINE
8
annotation
62
1
39
211
10
34.590178
20
8.434930
11
34.589493
21
8.442560
0
LINE
8
annotation
62
1
39
211
10
34.589493
20
8.442560
11
34.587519
21
8.449737
0
LINE
8
annotation
62
1
39
211
10
34.587519
20
8.449737
11
34.584377
21
8.456341
0
LINE
8
annotation
62
1
39
211
10
34.584377
20
8.456341
11
34.580186
21
8.462254
0
LINE
8
annotation
62
1
39
211
10
34.580186
20
8.462254
11
34.575069
21
8.467357
0
LINE
8
annotation
62
1
39
211
10
34.575069
20
8.467357
11
34.569145
21
8.471533
0
LINE
8
annotation
62
1
39
211
10
34.569145
20
8.471533
11
34.562535
21
8.474662
0
LINE
8
annotation
62
1
39
211
10
34.562535
20
8.474662
11
34.555359
21
8.476627
0
LINE
8
annotation
62
1
39
211
10
34.555359
20
8.476627
11
34.547739
21
8.477308
0
LINE
8
annotation
62
1
39
211
10
34.547739
20
8.477308
11
34.505301
21
8.477308
0
LINE
8
annotation
62
1
39
211
10
34.505301
20
8.477308
11
34.505301
21
8.562412
0
LINE
8
annotation
62
1
39
211
10
34.505301
20
8.562412
11
34.590178
21
8.562412
0
LINE
8
annotation
62
1
39
211
10
36.836824
20
10.888435
11
36.836824
21
10.888435
0
LINE
8
annotation
62
1
39
211
10
36.836824
20
10.888435
11
36.834026
21
10.887386
0
LINE
8
annotation
62
1
39
211
10
36.834026
20
10.887386
11
36.831458
21
10.885972
0
LINE
8
annotation
62
1
39
211
10
36.831458
20
10.885972
11
36.829147
21
10.884230
0
LINE
8
annotation
62
1
39
211
10
36.829147
20
10.884230
11
36.827119
21
10.882193
0
LINE
8
annotation
62
1
39
211
10
36.827119
20
10.882193
11
36.825401
21
10.879899
0
LINE
8
annotation
62
1
39
211
10
36.825401
20
10.879899
11
36.824019
21
10.877381
0
LINE
8
annotation
62
1
39
211
10
36.824019
20
10.877381
11
36.822999
21
10.874677
0
LINE
8
annotation
62
1
39
211
10
36.822999
20
10.874677
11
36.822368
21
10.871820
0
LINE
8
annotation
62
1
39
211
10
36.822368
20
10.871820
11
36.822151
21
10.868847
0
LINE
8
annotation
62
1
39
211
10
36.822151
20
10.868847
11
36.822151
21
10.854226
0
LINE
8
annotation
62
1
39
211
10
36.822151
20
10.854226
11
36.822151
21
10.854226
0
LINE
8
annotation
62
1
39
211
10
36.822151
20
10.854226
11
36.822309
21
10.852469
0
LINE
8
annotation
62
1
39
211
10
36.822309
20
10.852469
11
36.822764
21
10.850815
0
LINE
8
annotation
62
1
39
211
10
36.822764
20
10.850815
11
36.823487
21
10.849291
0
LINE
8
annotation
62
1
39
211
10
36.823487
20
10.849291
11
36.824452
21
10.847926
0
LINE
8
annotation
62
1
39
211
10
36.824452
20
10.847926
11
36.825630
21
10.846748
0
LINE
8
annotation
62
1
39
211
10
36.825630
20
10.846748
11
36.826994
21
10.845782
0
LINE
8
annotation
62
1
39
211
10
36.826994
20
10.845782
11
36.828515
21
10.845059
0
LINE
8
annotation
62
1
39
211
10
36.828515
20
10.845059
11
36.830166
21
10.844604
0
LINE
8
annotation
62
1
39
211
10
36.830166
20
10.844604
11
36.831920
21
10.844447
0
LINE
8
annotation
62
1
39
211
10
36.831920
20
10.844447
11
36.831920
21
10.844447
0
LINE
8
annotation
62
1
39
211
10
36.831920
20
10.844447
11
36.833676
21
10.844604
0
LINE
8
annotation
62
1
39
211
10
36.833676
20
10.844604
11
36.835329
21
10.845059
0
LINE
8
annotation
62
1
39
211
10
36.835329
20
10.845059
11
36.836851
21
10.845782
0
LINE
8
annotation
62
1
39
211
10
36.836851
20
10.845782
11
36.838215
21
10.846748
0
LINE
8
annotation
62
1
39
211
10
36.838215
20
10.846748
11
36.839392
21
10.847926
0
LINE
8
annotation
62
1
39
211
10
36.839392
20
10.847926
11
36.840355
21
10.849291
0
LINE
8
annotation
62
1
39
211
10
36.840355
20
10.849291
11
36.841077
21
10.850815
0
LINE
8
annotation
62
1
39
211
10
36.841077
20
10.850815
11
36.841530
21
10.852469
0
LINE
8
annotation
62
1
39
211
10
36.841530
20
10.852469
11
36.841688
21
10.854226
0
LINE
8
annotation
62
1
39
211
10
36.841688
20
10.854226
11
36.841688
21
10.859092
0
LINE
8
annotation
62
1
39
211
10
36.841688
20
10.859092
11
36.841688
21
10.859092
0
LINE
8
annotation
62
1
39
211
10
36.841688
20
10.859092
11
36.841530
21
10.860849
0
LINE
8
annotation
62
1
39
211
10
36.841530
20
10.860849
11
36.841077
21
10.862500
0
LINE
8
annotation
62
1
39
211
10
36.841077
20
10.862500
11
36.840355
21
10.864020
0
LINE
8
annotation
62
1
39
211
10
36.840355
20
10.864020
11
36.839392
21
10.865381
0
LINE
8
annotation
62
1
39
211
10
36.839392
20
10.865381
11
36.838215
21
10.866556
0
LINE
8
annotation
62
1
39
211
10
36.838215
20
10.866556
11
36.836851
21
10.867517
0
LINE
8
annotation
62
1
39
211
10
36.836851
20
10.867517
11
36.835329
21
10.868238
0
LINE
8
annotation
62
1
39
211
10
36.835329
20
10.868238
11
36.833676
21
10.868690
0
LINE
8
annotation
62
1
39
211
10
36.833676
20
10.868690
11
36.831920
21
10.868847
0
LINE
8
annotation
62
1
39
211
10
36.831920
20
10.868847
11
36.822151
21
10.868847
0
LINE
8
annotation
62
1
39
211
10
36.820928
20
10.838948
11
36.842922
21
10.838948
0
LINE
8
annotation
62
1
39
211
10
33.558732
20
5.232939
11
33.526429
21
5.186216
0
LINE
8
annotation
62
1
39
211
10
33.526429
20
5.186216
11
33.494120
21
5.232939
0
LINE
8
annotation
62
1
39
211
10
33.526429
20
5.189976
11
33.526429
21
5.136072
0
LINE
8
annotation
62
1
39
211
10
33.648029
20
5.184506
11
33.595067
21
5.184506
0
LINE
8
annotation
62
1
39
211
10
33.705879
20
5.136075
11
33.705879
21
5.232936
0
LINE
8
annotation
62
1
39
211
10
33.705879
20
5.232936
11
33.684345
21
5.211397
0
LINE
8
annotation
62
1
39
211
10
33.795169
20
5.184506
11
33.742207
21
5.184506
0
LINE
8
annotation
62
1
39
211
10
33.831483
20
5.136079
11
33.852992
21
5.136079
0
LINE
8
annotation
62
1
39
211
10
33.852992
20
5.136079
11
33.852992
21
5.136079
0
LINE
8
annotation
62
1
39
211
10
33.852992
20
5.136079
11
33.856860
21
5.136426
0
LINE
8
annotation
62
1
39
211
10
33.856860
20
5.136426
11
33.860500
21
5.137426
0
LINE
8
annotation
62
1
39
211
10
33.860500
20
5.137426
11
33.863851
21
5.139018
0
LINE
8
annotation
62
1
39
211
10
33.863851
20
5.139018
11
33.866853
21
5.141140
0
LINE
8
annotation
62
1
39
211
10
33.866853
20
5.141140
11
33.869445
21
5.143731
0
LINE
8
annotation
62
1
39
211
10
33.869445
20
5.143731
11
33.871566
21
5.146730
0
LINE
8
annotation
62
1
39
211
10
33.871566
20
5.146730
11
33.873156
21
5.150075
0
LINE
8
annotation
62
1
39
211
10
33.873156
20
5.150075
11
33.874154
21
5.153704
0
LINE
8
annotation
62
1
39
211
10
33.874154
20
5.153704
11
33.874501
21
5.157557
0
LINE
8
annotation
62
1
39
211
10
33.874501
20
5.157557
11
33.874501
21
5.168327
0
LINE
8
annotation
62
1
39
211
10
33.874501
20
5.168327
11
33.874501
21
5.168327
0
LINE
8
annotation
62
1
39
211
10
33.874501
20
5.168327
11
33.874154
21
5.172178
0
LINE
8
annotation
62
1
39
211
10
33.874154
20
5.172178
11
33.873156
21
5.175807
0
LINE
8
annotation
62
1
39
211
10
33.873156
20
5.175807
11
33.871566
21
5.179152
0
LINE
8
annotation
62
1
39
211
10
33.871566
20
5.179152
11
33.869445
21
5.182151
0
LINE
8
annotation
62
1
39
211
10
33.869445
20
5.182151
11
33.866853
21
5.184742
0
LINE
8
annotation
62
1
39
211
10
33.866853
20
5.184742
11
33.863851
21
5.186865
0
LINE
8
annotation
62
1
39
211
10
33.863851
20
5.186865
11
33.860500
21
5.188458
0
LINE
8
annotation
62
1
39
211
10
33.860500
20
5.188458
11
33.856860
21
5.189458
0
LINE
8
annotation
62
1
39
211
10
33.856860
20
5.189458
11
33.852992
21
5.189806
0
LINE
8
annotation
62
1
39
211
10
33.852992
20
5.189806
11
33.842222
21
5.189806
0
LINE
8
annotation
62
1
39
211
10
33.842222
20
5.189806
11
33.852992
21
5.189806
0
LINE
8
annotation
62
1
39
211
10
33.852992
20
5.189806
11
33.852992
21
5.189806
0
LINE
8
annotation
62
1
39
211
10
33.852992
20
5.189806
11
33.856860
21
5.190153
0
LINE
8
annotation
62
1
39
211
10
33.856860
20
5.190153
11
33.860500
21
5.191154
0
LINE
8
annotation
62
1
39
211
10
33.860500
20
5.191154
11
33.863851
21
5.192748
0
LINE
8
annotation
62
1
39
211
10
33.863851
20
5.192748
11
33.866853
21
5.194874
0
LINE
8
annotation
62
1
39
211
10
33.866853
20
5.194874
11
33.869445
21
5.197471
0
LINE
8
annotation
62
1
39
211
10
33.869445
20
5.197471
11
33.871566
21
5.200477
0
LINE
8
annotation
62
1
39
211
10
33.871566
20
5.200477
11
33.873156
21
5.203833
0
LINE
8
annotation
62
1
39
211
10
33.873156
20
5.203833
11
33.874154
21
5.207475
0
LINE
8
annotation
62
1
39
211
10
33.874154
20
5.207475
11
33.874501
21
5.211345
0
LINE
8
annotation
62
1
39
211
10
33.874501
20
5.211345
11
33.874501
21
5.211345
0
LINE
8
annotation
62
1
39
211
10
33.874501
20
5.211345
11
33.874154
21
5.215196
0
LINE
8
annotation
62
1
39
211
10
33.874154
20
5.215196
11
33.873156
21
5.218825
0
LINE
8
annotation
62
1
39
211
10
33.873156
20
5.218825
11
33.871566
21
5.222170
0
LINE
8
annotation
62
1
39
211
10
33.871566
20
5.222170
11
33.869445
21
5.225169
0
LINE
8
annotation
62
1
39
211
10
33.869445
20
5.225169
11
33.866853
21
5.227760
0
LINE
8
annotation
62
1
39
211
10
33.866853
20
5.227760
11
33.863851
21
5.229883
0
LINE
8
annotation
62
1
39
211
10
33.863851
20
5.229883
11
33.860500
21
5.231476
0
LINE
8
annotation
62
1
39
211
10
33.860500
20
5.231476
11
33.856860
21
5.232476
0
LINE
8
annotation
62
1
39
211
10
33.856860
20
5.232476
11
33.852992
21
5.232824
0
LINE
8
annotation
62
1
39
211
10
33.852992
20
5.232824
11
33.831483
21
5.232824
0
LINE
8
boundary
62
5
39
2
10
36.107207
20
15.646402
11
36.174214
21
15.755390
0
LINE
8
boundary
62
5
39
2
10
36.174214
20
15.755390
11
36.174215
21
15.758405
0
LINE
8
boundary
62
5
39
2
10
36.174215
20
15.758405
11
36.107207
21
15.867399
0
LINE
8
boundary
62
5
39
2
10
36.107207
20
15.867399
11
36.107207
21
15.646402
0
LINE
8
boundary
62
5
39
2
10
35.117622
20
11.805447
11
34.512851
21
13.446183
0
LINE
8
boundary
62
5
39
2
10
34.512851
20
13.446183
11
34.438032
21
13.481334
0
LINE
8
boundary
62
5
39
2
10
34.438032
20
13.481334
11
34.433101
21
13.515010
0
LINE
8
boundary
62
5
39
2
10
34.433101
20
13.515010
11
34.644996
21
13.675179
0
LINE
8
boundary
62
5
39
2
10
34.644996
20
13.675179
11
35.196573
21
14.209289
0
LINE
8
boundary
62
5
39
2
10
35.196573
20
14.209289
11
35.702164
21
14.987588
0
LINE
8
boundary
62
5
39
2
10
35.702164
20
14.987588
11
36.012599
21
15.492519
0
LINE
8
boundary
62
5
39
2
10
36.012599
20
15.492519
11
36.012599
21
16.021287
0
LINE
8
boundary
62
5
39
2
10
36.012599
20
16.021287
11
35.702155
21
16.526248
0
LINE
8
boundary
62
5
39
2
10
35.702155
20
16.526248
11
35.196606
21
17.304501
0
LINE
8
boundary
62
5
39
2
10
35.196606
20
17.304501
11
34.644997
21
17.838638
0
LINE
8
boundary
62
5
39
2
10
34.644997
20
17.838638
11
34.433094
21
17.998813
0
LINE
8
boundary
62
5
39
2
10
34.433094
20
17.998813
11
34.438053
21
18.032516
0
LINE
8
boundary
62
5
39
2
10
34.438053
20
18.032516
11
34.512943
21
18.067728
0
LINE
8
boundary
62
5
39
2
10
34.512943
20
18.067728
11
35.117050
21
19.707281
0
LINE
8
boundary
62
5
39
2
10
35.117050
20
19.707281
11
33.930355
21
18.435297
0
LINE
8
boundary
62
5
39
2
10
33.930355
20
18.435297
11
33.942885
21
18.408797
0
LINE
8
boundary
62
5
39
2
10
33.942885
20
18.408797
11
34.100348
21
18.408797
0
LINE
8
boundary
62
5
39
2
10
34.100348
20
18.408797
11
34.100348
21
17.904197
0
LINE
8
boundary
62
5
39
2
10
34.100348
20
17.904197
11
33.593643
21
17.904197
0
LINE
8
boundary
62
5
39
2
10
33.593643
20
17.904197
11
33.581113
21
17.877697
0
LINE
8
boundary
62
5
39
2
10
33.581113
20
17.877697
11
33.276377
21
16.610147
0
LINE
8
boundary
62
5
39
2
10
33.276377
20
16.610147
11
33.152674
21
16.418645
0
LINE
8
boundary
62
5
39
2
10
33.152674
20
16.418645
11
33.286368
21
16.035713
0
LINE
8
boundary
62
5
39
2
10
33.286368
20
16.035713
11
33.298898
21
16.009213
0
LINE
8
boundary
62
5
39
2
10
33.298898
20
16.009213
11
34.709816
21
16.009213
0
LINE
8
boundary
62
5
39
2
10
34.709816
20
16.009213
11
34.709816
21
15.504613
0
LINE
8
boundary
62
5
39
2
10
34.709816
20
15.504613
11
33.298919
21
15.504613
0
LINE
8
boundary
62
5
39
2
10
33.298919
20
15.504613
11
33.286389
21
15.478113
0
LINE
8
boundary
62
5
39
2
10
33.286389
20
15.478113
11
33.152739
21
15.095181
0
LINE
8
boundary
62
5
39
2
10
33.152739
20
15.095181
11
33.276382
21
14.903692
0
LINE
8
boundary
62
5
39
2
10
33.276382
20
14.903692
11
33.581112
21
13.636129
0
LINE
8
boundary
62
5
39
2
10
33.581112
20
13.636129
11
33.593642
21
13.609629
0
LINE
8
boundary
62
5
39
2
10
33.593642
20
13.609629
11
34.100341
21
13.609629
0
LINE
8
boundary
62
5
39
2
10
34.100341
20
13.609629
11
34.100341
21
13.105029
0
LINE
8
boundary
62
5
39
2
10
34.100341
20
13.105029
11
33.942856
21
13.105029
0
LINE
8
boundary
62
5
39
2
10
33.942856
20
13.105029
11
33.930326
21
13.078529
0
LINE
8
boundary
62
5
39
2
10
33.930326
20
13.078529
11
35.117622
21
11.805447
0
LINE
8
annotation
62
1
39
211
10
34.397413
20
13.006999
11
34.458853
21
13.006999
0
LINE
8
annotation
62
1
39
211
10
34.458853
20
13.006999
11
34.458853
21
13.006999
0
LINE
8
annotation
62
1
39
211
10
34.458853
20
13.006999
11
34.469903
21
13.007990
0
LINE
8
annotation
62
1
39
211
10
34.469903
20
13.007990
11
34.480301
21
13.010847
0
LINE
8
annotation
62
1
39
211
10
34.480301
20
13.010847
11
34.489873
21
13.015394
0
LINE
8
annotation
62
1
39
211
10
34.489873
20
13.015394
11
34.498447
21
13.021456
0
LINE
8
annotation
62
1
39
211
10
34.498447
20
13.021456
11
34.505850
21
13.028858
0
LINE
8
annotation
62
1
39
211
10
34.505850
20
13.028858
11
34.511909
21
13.037423
0
LINE
8
annotation
62
1
39
211
10
34.511909
20
13.037423
11
34.516451
21
13.046978
0
LINE
8
annotation
62
1
39
211
10
34.516451
20
13.046978
11
34.519303
21
13.057346
0
LINE
8
annotation
62
1
39
211
10
34.519303
20
13.057346
11
34.520292
21
13.068352
0
LINE
8
annotation
62
1
39
211
10
34.520292
20
13.068352
11
34.520292
21
13.099115
0
LINE
8
annotation
62
1
39
211
10
34.520292
20
13.099115
11
34.520292
21
13.099115
0
LINE
8
annotation
62
1
39
211
10
34.520292
20
13.099115
11
34.519303
21
13.110116
0
LINE
8
annotation
62
1
39
211
10
34.519303
20
13.110116
11
34.516451
21
13.120482
0
LINE
8
annotation
62
1
39
211
10
34.516451
20
13.120482
11
34.511909
21
13.130035
0
LINE
8
annotation
62
1
39
211
10
34.511909
20
13.130035
11
34.505850
21
13.138602
0
LINE
8
annotation
62
1
39
211
10
34.505850
20
13.138602
11
34.498447
21
13.146004
0
LINE
8
annotation
62
1
39
211
10
34.498447
20
13.146004
11
34.489873
21
13.152068
0
LINE
8
annotation
62
1
39
211
10
34.489873
20
13.152068
11
34.480301
21
13.156617
0
LINE
8
annotation
62
1
39
211
10
34.480301
20
13.156617
11
34.469903
21
13.159476
0
LINE
8
annotation
62
1
39
211
10
34.469903
20
13.159476
11
34.458853
21
13.160467
0
LINE
8
annotation
62
1
39
211
10
34.458853
20
13.160467
11
34.428090
21
13.160467
0
LINE
8
annotation
62
1
39
211
10
34.428090
20
13.160467
11
34.458853
21
13.160467
0
LINE
8
annotation
62
1
39
211
10
34.458853
20
13.160467
11
34.458853
21
13.160467
0
LINE
8
annotation
62
1
39
211
10
34.458853
20
13.160467
11
34.469903
21
13.161460
0
LINE
8
annotation
62
1
39
211
10
34.469903
20
13.161460
11
34.480301
21
13.164319
0
LINE
8
annotation
62
1
39
211
10
34.480301
20
13.164319
11
34.489873
21
13.168873
0
LINE
8
annotation
62
1
39
211
10
34.489873
20
13.168873
11
34.498447
21
13.174946
0
LINE
8
annotation
62
1
39
211
10
34.498447
20
13.174946
11
34.505850
21
13.182363
0
LINE
8
annotation
62
1
39
211
10
34.505850
20
13.182363
11
34.511909
21
13.190951
0
LINE
8
annotation
62
1
39
211
10
34.511909
20
13.190951
11
34.516451
21
13.200535
0
LINE
8
annotation
62
1
39
211
10
34.516451
20
13.200535
11
34.519303
21
13.210941
0
LINE
8
annotation
62
1
39
211
10
34.519303
20
13.210941
11
34.520292
21
13.221994
0
LINE
8
annotation
62
1
39
211
10
34.520292
20
13.221994
11
34.520292
21
13.221994
0
LINE
8
annotation
62
1
39
211
10
34.520292
20
13.221994
11
34.519303
21
13.232995
0
LINE
8
annotation
62
1
39
211
10
34.519303
20
13.232995
11
34.516451
21
13.243360
0
LINE
8
annotation
62
1
39
211
10
34.516451
20
13.243360
11
34.511909
21
13.252914
0
LINE
8
annotation
62
1
39
211
10
34.511909
20
13.252914
11
34.505850
21
13.261480
0
LINE
8
annotation
62
1
39
211
10
34.505850
20
13.261480
11
34.498447
21
13.268883
0
LINE
8
annotation
62
1
39
211
10
34.498447
20
13.268883
11
34.489873
21
13.274947
0
LINE
8
annotation
62
1
39
211
10
34.489873
20
13.274947
11
34.480301
21
13.279496
0
LINE
8
annotation
62
1
39
211
10
34.480301
20
13.279496
11
34.469903
21
13.282355
0
LINE
8
annotation
62
1
39
211
10
34.469903
20
13.282355
11
34.458853
21
13.283346
0
LINE
8
annotation
62
1
39
211
10
34.458853
20
13.283346
11
34.397413
21
13.283346
0
LINE
8
annotation
62
1
39
211
10
35.789108
20
15.563015
11
35.401400
21
15.563015
0
LINE
8
annotation
62
1
39
211
10
35.401400
20
15.563015
11
35.556238
21
16.106043
0
LINE
8
annotation
62
1
39
211
10
35.672892
20
15.407782
11
35.672892
21
15.717897
0
LINE
8
annotation
62
1
39
211
10
36.160457
20
15.749541
11
36.145717
21
15.749541
0
LINE
8
annotation
62
1
39
211
10
36.145717
20
15.749541
11
36.151603
21
15.770186
0
LINE
8
annotation
62
1
39
211
10
36.156038
20
15.743639
11
36.156038
21
15.755429
0
LINE
8
annotation
62
1
39
211
10
34.320511
20
18.055572
11
34.365334
21
18.055572
0
LINE
8
annotation
62
1
39
211
10
34.365334
20
18.055572
11
34.365334
21
18.055572
0
LINE
8
annotation
62
1
39
211
10
34.365334
20
18.055572
11
34.373379
21
18.056296
0
LINE
8
annotation
62
1
39
211
10
34.373379
20
18.056296
11
34.380955
21
18.058381
0
LINE
8
annotation
62
1
39
211
10
34.380955
20
18.058381
11
34.387936
21
18.061701
0
LINE
8
annotation
62
1
39
211
10
34.387936
20
18.061701
11
34.394194
21
18.066130
0
LINE
8
annotation
62
1
39
211
10
34.394194
20
18.066130
11
34.399600
21
18.071539
0
LINE
8
annotation
62
1
39
211
10
34.399600
20
18.071539
11
34.404027
21
18.077802
0
LINE
8
annotation
62
1
39
211
10
34.404027
20
18.077802
11
34.407347
21
18.084792
0
LINE
8
annotation
62
1
39
211
10
34.407347
20
18.084792
11
34.409433
21
18.092383
0
LINE
8
annotation
62
1
39
211
10
34.409433
20
18.092383
11
34.410157
21
18.100446
0
LINE
8
annotation
62
1
39
211
10
34.410157
20
18.100446
11
34.410157
21
18.122775
0
LINE
8
annotation
62
1
39
211
10
34.410157
20
18.122775
11
34.410157
21
18.122775
0
LINE
8
annotation
62
1
39
211
10
34.410157
20
18.122775
11
34.409433
21
18.130834
0
LINE
8
annotation
62
1
39
211
10
34.409433
20
18.130834
11
34.407349
21
18.138414
0
LINE
8
annotation
62
1
39
211
10
34.407349
20
18.138414
11
34.404030
21
18.145389
0
LINE
8
annotation
62
1
39
211
10
34.404030
20
18.145389
11
34.399604
21
18.151635
0
LINE
8
annotation
62
1
39
211
10
34.399604
20
18.151635
11
34.394199
21
18.157025
0
LINE
8
annotation
62
1
39
211
10
34.394199
20
18.157025
11
34.387942
21
18.161435
0
LINE
8
annotation
62
1
39
211
10
34.387942
20
18.161435
11
34.380960
21
18.164740
0
LINE
8
annotation
62
1
39
211
10
34.380960
20
18.164740
11
34.373382
21
18.166815
0
LINE
8
annotation
62
1
39
211
10
34.373382
20
18.166815
11
34.365334
21
18.167535
0
LINE
8
annotation
62
1
39
211
10
34.365334
20
18.167535
11
34.320511
21
18.167535
0
LINE
8
annotation
62
1
39
211
10
34.320511
20
18.167535
11
34.320511
21
18.257421
0
LINE
8
annotation
62
1
39
211
10
34.320511
20
18.257421
11
34.410157
21
18.257421
0
LINE
8
annotation
62
1
39
211
10
34.031798
20
15.034271
11
33.936918
21
14.897037
0
LINE
8
annotation
62
1
39
211
10
33.936918
20
14.897037
11
33.842022
21
15.034271
0
LINE
8
annotation
62
1
39
211
10
33.936918
20
14.908080
11
33.936918
21
14.749758
0
LINE
8
annotation
62
1
39
211
10
34.294075
20
14.892014
11
34.138519
21
14.892014
0
LINE
8
annotation
62
1
39
211
10
34.463990
20
14.749767
11
34.463990
21
15.034262
0
LINE
8
annotation
62
1
39
211
10
34.463990
20
15.034262
11
34.400743
21
14.970997
0
LINE
8
annotation
62
1
39
211
10
34.726250
20
14.892014
11
34.570693
21
14.892014
0
LINE
8
annotation
62
1
39
211
10
34.990874
20
14.813014
11
34.832908
21
14.813014
0
LINE
8
annotation
62
1
39
211
10
34.832908
20
14.813014
11
34.895995
21
15.034262
0
LINE
8
annotation
62
1
39
211
10
34.943523
20
14.749767
11
34.943523
21
14.876118
0
LINE
8
hole
62
5
39
2
10
39.032875
20
13.906194
11
39.037491
21
13.673336
0
LINE
8
hole
62
5
39
2
10
39.037491
20
13.673336
11
39.050021
21
13.646836
0
LINE
8
hole
62
5
39
2
10
39.050021
20
13.646836
11
39.141332
21
13.646836
0
LINE
8
hole
62
5
39
2
10
39.141332
20
13.646836
11
39.141332
21
13.142236
0
LINE
8
hole
62
5
39
2
10
39.141332
20
13.142236
11
39.045516
21
13.142236
0
LINE
8
hole
62
5
39
2
10
39.045516
20
13.142236
11
39.032986
21
13.115736
0
LINE
8
hole
62
5
39
2
10
39.032986
20
13.115736
11
38.960378
21
12.302354
0
LINE
8
hole
62
5
39
2
10
38.960378
20
12.302354
11
38.597248
21
12.217282
0
LINE
8
hole
62
5
39
2
10
38.597248
20
12.217282
11
38.001669
21
12.196138
0
LINE
8
hole
62
5
39
2
10
38.001669
20
12.196138
11
38.000675
21
12.196098
0
LINE
8
hole
62
5
39
2
10
38.000675
20
12.196098
11
37.996696
21
12.195937
0
LINE
8
hole
62
5
39
2
10
37.996696
20
12.195937
11
37.984465
21
12.195444
0
LINE
8
hole
62
5
39
2
10
37.984465
20
12.195444
11
36.665017
21
12.142225
0
LINE
8
hole
62
5
39
2
10
36.665017
20
12.142225
11
36.668733
21
12.259143
0
LINE
8
hole
62
5
39
2
10
36.668733
20
12.259143
11
36.691525
21
12.902236
0
LINE
8
hole
62
5
39
2
10
36.691525
20
12.902236
11
36.687679
21
13.449977
0
LINE
8
hole
62
5
39
2
10
36.687679
20
13.449977
11
36.687417
21
13.481368
0
LINE
8
hole
62
5
39
2
10
36.687417
20
13.481368
11
36.686542
21
13.496969
0
LINE
8
hole
62
5
39
2
10
36.686542
20
13.496969
11
36.686650
21
13.497514
0
LINE
8
hole
62
5
39
2
10
36.686650
20
13.497514
11
36.686652
21
13.499039
0
LINE
8
hole
62
5
39
2
10
36.686652
20
13.499039
11
36.686856
21
13.658768
0
LINE
8
hole
62
5
39
2
10
36.686856
20
13.658768
11
36.686851
21
13.661290
0
LINE
8
hole
62
5
39
2
10
36.686851
20
13.661290
11
36.686630
21
13.713474
0
LINE
8
hole
62
5
39
2
10
36.686630
20
13.713474
11
36.686462
21
13.753039
0
LINE
8
hole
62
5
39
2
10
36.686462
20
13.753039
11
36.684455
21
14.226913
0
LINE
8
hole
62
5
39
2
10
36.684455
20
14.226913
11
38.101581
21
14.059418
0
LINE
8
hole
62
5
39
2
10
38.101581
20
14.059418
11
38.713076
21
14.000116
0
LINE
8
hole
62
5
39
2
10
38.713076
20
14.000116
11
39.032875
21
13.906194
0
LINE
8
boundary
62
5
39
2
10
36.557684
20
11.805447
11
38.190427
21
11.860885
0
LINE
8
boundary
62
5
39
2
10
38.190427
20
11.860885
11
38.746612
21
11.848638
0
LINE
8
boundary
62
5
39
2
10
38.746612
20
11.848638
11
39.147263
21
11.993916
0
LINE
8
boundary
62
5
39
2
10
39.147263
20
11.993916
11
39.277231
21
13.452810
0
LINE
8
boundary
62
5
39
2
10
39.277231
20
13.452810
11
39.259000
21
14.235576
0
LINE
8
boundary
62
5
39
2
10
39.259000
20
14.235576
11
38.914904
21
14.381385
0
LINE
8
boundary
62
5
39
2
10
38.914904
20
14.381385
11
38.187442
21
14.388046
0
LINE
8
boundary
62
5
39
2
10
38.187442
20
14.388046
11
36.589729
21
14.509160
0
LINE
8
boundary
62
5
39
2
10
36.589729
20
14.509160
11
36.542204
21
13.673336
0
LINE
8
boundary
62
5
39
2
10
36.542204
20
13.673336
11
36.554734
21
13.646836
0
LINE
8
boundary
62
5
39
2
10
36.554734
20
13.646836
11
36.598782
21
13.646836
0
LINE
8
boundary
62
5
39
2
10
36.598782
20
13.646836
11
36.598782
21
13.142236
0
LINE
8
boundary
62
5
39
2
10
36.598782
20
13.142236
11
36.549818
21
13.142236
0
LINE
8
boundary
62
5
39
2
10
36.549818
20
13.142236
11
36.537288
21
13.115736
0
LINE
8
boundary
62
5
39
2
10
36.537288
20
13.115736
11
36.539294
21
12.981430
0
LINE
8
boundary
62
5
39
2
10
36.539294
20
12.981430
11
36.547905
21
12.456987
0
LINE
8
boundary
62
5
39
2
10
36.547905
20
12.456987
11
36.558986
21
11.882024
0
LINE
8
boundary
62
5
39
2
10
36.558986
20
11.882024
11
36.557684
21
11.805447
0
LINE
8
annotation
62
1
39
211
10
39.258512
20
13.359045
11
39.226988
21
13.359045
0
LINE
8
annotation
62
1
39
211
10
39.226988
20
13.359045
11
39.256117
21
13.405940
0
LINE
8
annotation
62
1
39
211
10
39.256117
20
13.405940
11
39.256117
21
13.405940
0
LINE
8
annotation
62
1
39
211
10
39.256117
20
13.405940
11
39.256152
21
13.405983
0
LINE
8
annotation
62
1
39
211
10
39.256152
20
13.405983
11
39.256185
21
13.406027
0
LINE
8
annotation
62
1
39
211
10
39.256185
20
13.406027
11
39.256218
21
13.406071
0
LINE
8
annotation
62
1
39
211
10
39.256218
20
13.406071
11
39.256249
21
13.406116
0
LINE
8
annotation
62
1
39
211
10
39.256249
20
13.406116
11
39.256279
21
13.406163
0
LINE
8
annotation
62
1
39
211
10
39.256279
20
13.406163
11
39.256309
21
13.406211
0
LINE
8
annotation
62
1
39
211
10
39.256309
20
13.406211
11
39.256339
21
13.406262
0
LINE
8
annotation
62
1
39
211
10
39.256339
20
13.406262
11
39.256368
21
13.406315
0
LINE
8
annotation
62
1
39
211
10
39.256368
20
13.406315
11
39.256398
21
13.406372
0
LINE
8
annotation
62
1
39
211
10
39.256398
20
13.406372
11
39.256398
21
13.406372
0
LINE
8
annotation
62
1
39
211
10
39.256398
20
13.406372
11
39.257600
21
13.408954
0
LINE
8
annotation
62
1
39
211
10
39.257600
20
13.408954
11
39.258303
21
13.411631
0
LINE
8
annotation
62
1
39
211
10
39.258303
20
13.411631
11
39.258523
21
13.414342
0
LINE
8
annotation
62
1
39
211
10
39.258523
20
13.414342
11
39.258277
21
13.417026
0
LINE
8
annotation
62
1
39
211
10
39.258277
20
13.417026
11
39.257582
21
13.419624
0
LINE
8
annotation
62
1
39
211
10
39.257582
20
13.419624
11
39.256457
21
13.422074
0
LINE
8
annotation
62
1
39
211
10
39.256457
20
13.422074
11
39.254917
21
13.424316
0
LINE
8
annotation
62
1
39
211
10
39.254917
20
13.424316
11
39.252980
21
13.426289
0
LINE
8
annotation
62
1
39
211
10
39.252980
20
13.426289
11
39.250664
21
13.427934
0
LINE
8
annotation
62
1
39
211
10
39.250664
20
13.427934
11
39.250664
21
13.427934
0
LINE
8
annotation
62
1
39
211
10
39.250664
20
13.427934
11
39.248075
21
13.429120
0
LINE
8
annotation
62
1
39
211
10
39.248075
20
13.429120
11
39.245394
21
13.429812
0
LINE
8
annotation
62
1
39
211
10
39.245394
20
13.429812
11
39.242681
21
13.430025
0
LINE
8
annotation
62
1
39
211
10
39.242681
20
13.430025
11
39.239997
21
13.429776
0
LINE
8
annotation
62
1
39
211
10
39.239997
20
13.429776
11
39.237402
21
13.429080
0
LINE
8
annotation
62
1
39
211
10
39.237402
20
13.429080
11
39.234954
21
13.427952
0
LINE
8
annotation
62
1
39
211
10
39.234954
20
13.427952
11
39.232715
21
13.426408
0
LINE
8
annotation
62
1
39
211
10
39.232715
20
13.426408
11
39.230745
21
13.424463
0
LINE
8
annotation
62
1
39
211
10
39.230745
20
13.424463
11
39.229102
21
13.422134
0
LINE
8
annotation
62
1
39
211
10
39.229102
20
13.422134
11
39.227032
21
13.418163
0
LINE
8
annotation
62
1
39
211
10
36.682921
20
13.158269
11
36.661366
21
13.158269
0
LINE
8
annotation
62
1
39
211
10
36.661366
20
13.158269
11
36.681283
21
13.190334
0
LINE
8
annotation
62
1
39
211
10
36.681283
20
13.190334
11
36.681283
21
13.190334
0
LINE
8
annotation
62
1
39
211
10
36.681283
20
13.190334
11
36.681307
21
13.190363
0
LINE
8
annotation
62
1
39
211
10
36.681307
20
13.190363
11
36.681330
21
13.190393
0
LINE
8
annotation
62
1
39
211
10
36.681330
20
13.190393
11
36.681352
21
13.190423
0
LINE
8
annotation
62
1
39
211
10
36.681352
20
13.190423
11
36.681373
21
13.190454
0
LINE
8
annotation
62
1
39
211
10
36.681373
20
13.190454
11
36.681394
21
13.190486
0
LINE
8
annotation
62
1
39
211
10
36.681394
20
13.190486
11
36.681414
21
13.190519
0
LINE
8
annotation
62
1
39
211
10
36.681414
20
13.190519
11
36.681435
21
13.190554
0
LINE
8
annotation
62
1
39
211
10
36.681435
20
13.190554
11
36.681455
21
13.190590
0
LINE
8
annotation
62
1
39
211
10
36.681455
20
13.190590
11
36.681475
21
13.190629
0
LINE
8
annotation
62
1
39
211
10
36.681475
20
13.190629
11
36.681475
21
13.190629
0
LINE
8
annotation
62
1
39
211
10
36.681475
20
13.190629
11
36.682297
21
13.192395
0
LINE
8
annotation
62
1
39
211
10
36.682297
20
13.192395
11
36.682778
21
13.194225
0
LINE
8
annotation
62
1
39
211
10
36.682778
20
13.194225
11
36.682928
21
13.196078
0
LINE
8
annotation
62
1
39
211
10
36.682928
20
13.196078
11
36.682760
21
13.197914
0
LINE
8
annotation
62
1
39
211
10
36.682760
20
13.197914
11
36.682285
21
13.199690
0
LINE
8
annotation
62
1
39
211
10
36.682285
20
13.199690
11
36.681515
21
13.201365
0
LINE
8
annotation
62
1
39
211
10
36.681515
20
13.201365
11
36.680463
21
13.202898
0
LINE
8
annotation
62
1
39
211
10
36.680463
20
13.202898
11
36.679138
21
13.204248
0
LINE
8
annotation
62
1
39
211
10
36.679138
20
13.204248
11
36.677555
21
13.205372
0
LINE
8
annotation
62
1
39
211
10
36.677555
20
13.205372
11
36.677555
21
13.205372
0
LINE
8
annotation
62
1
39
211
10
36.677555
20
13.205372
11
36.675784
21
13.206183
0
LINE
8
annotation
62
1
39
211
10
36.675784
20
13.206183
11
36.673951
21
13.206656
0
LINE
8
annotation
62
1
39
211
10
36.673951
20
13.206656
11
36.672096
21
13.206802
0
LINE
8
annotation
62
1
39
211
10
36.672096
20
13.206802
11
36.670261
21
13.206632
0
LINE
8
annotation
62
1
39
211
10
36.670261
20
13.206632
11
36.668486
21
13.206155
0
LINE
8
annotation
62
1
39
211
10
36.668486
20
13.206155
11
36.666813
21
13.205384
0
LINE
8
annotation
62
1
39
211
10
36.666813
20
13.205384
11
36.665282
21
13.204328
0
LINE
8
annotation
62
1
39
211
10
36.665282
20
13.204328
11
36.663935
21
13.202999
0
LINE
8
annotation
62
1
39
211
10
36.663935
20
13.202999
11
36.662811
21
13.201406
0
LINE
8
annotation
62
1
39
211
10
36.662811
20
13.201406
11
36.661396
21
13.198691
0
LINE
8
annotation
62
1
39
211
10
38.430811
20
12.048350
11
38.397845
21
12.000668
0
LINE
8
annotation
62
1
39
211
10
38.397845
20
12.000668
11
38.364873
21
12.048350
0
LINE
8
annotation
62
1
39
211
10
38.397845
20
12.004505
11
38.397845
21
11.949496
0
LINE
8
annotation
62
1
39
211
10
38.521941
20
11.998923
11
38.467892
21
11.998923
0
LINE
8
annotation
62
1
39
211
10
38.580978
20
11.949499
11
38.580978
21
12.048347
0
LINE
8
annotation
62
1
39
211
10
38.580978
20
12.048347
11
38.559002
21
12.026366
0
LINE
8
annotation
62
1
39
211
10
38.672101
20
11.998923
11
38.618052
21
11.998923
0
LINE
8
annotation
62
1
39
211
10
38.731138
20
11.949499
11
38.731138
21
12.048347
0
LINE
8
annotation
62
1
39
211
10
38.731138
20
12.048347
11
38.709163
21
12.026366
0
LINE
8
hole
62
5
39
2
10
38.952749
20
17.073537
11
39.025355
21
16.260142
0
LINE
8
hole
62
5
39
2
10
39.025355
20
16.260142
11
39.037885
21
16.233642
0
LINE
8
hole
62
5
39
2
10
39.037885
20
16.233642
11
39.133755
21
16.233642
0
LINE
8
hole
62
5
39
2
10
39.133755
20
16.233642
11
39.133755
21
15.729042
0
LINE
8
hole
62
5
39
2
10
39.133755
20
15.729042
11
39.042445
21
15.729042
0
LINE
8
hole
62
5
39
2
10
39.042445
20
15.729042
11
39.029915
21
15.702542
0
LINE
8
hole
62
5
39
2
10
39.029915
20
15.702542
11
39.025334
21
15.469689
0
LINE
8
hole
62
5
39
2
10
39.025334
20
15.469689
11
38.705527
21
15.375761
0
LINE
8
hole
62
5
39
2
10
38.705527
20
15.375761
11
38.094044
21
15.316451
0
LINE
8
hole
62
5
39
2
10
38.094044
20
15.316451
11
38.076112
21
15.314331
0
LINE
8
hole
62
5
39
2
10
38.076112
20
15.314331
11
38.075887
21
15.314418
0
LINE
8
hole
62
5
39
2
10
38.075887
20
15.314418
11
36.676722
21
15.149069
0
LINE
8
hole
62
5
39
2
10
36.676722
20
15.149069
11
36.676427
21
15.162374
0
LINE
8
hole
62
5
39
2
10
36.676427
20
15.162374
11
36.649743
21
15.900799
0
LINE
8
hole
62
5
39
2
10
36.649743
20
15.900799
11
36.647886
21
16.049218
0
LINE
8
hole
62
5
39
2
10
36.647886
20
16.049218
11
36.648300
21
16.120642
0
LINE
8
hole
62
5
39
2
10
36.648300
20
16.120642
11
36.646850
21
16.239482
0
LINE
8
hole
62
5
39
2
10
36.646850
20
16.239482
11
36.646665
21
16.254537
0
LINE
8
hole
62
5
39
2
10
36.646665
20
16.254537
11
36.650617
21
16.520928
0
LINE
8
hole
62
5
39
2
10
36.650617
20
16.520928
11
36.658772
21
17.235113
0
LINE
8
hole
62
5
39
2
10
36.658772
20
17.235113
11
37.993123
21
17.180868
0
LINE
8
hole
62
5
39
2
10
37.993123
20
17.180868
11
38.589677
21
17.158560
0
LINE
8
hole
62
5
39
2
10
38.589677
20
17.158560
11
38.952749
21
17.073537
0
LINE
8
boundary
62
5
39
2
10
38.907366
20
14.994501
11
39.251463
21
15.140313
0
LINE
8
boundary
62
5
39
2
10
39.251463
20
15.140313
11
39.269715
21
15.923113
0
LINE
8
boundary
62
5
39
2
10
39.269715
20
15.923113
11
39.139742
21
17.381985
0
LINE
8
boundary
62
5
39
2
10
39.139742
20
17.381985
11
38.739073
21
17.527239
0
LINE
8
boundary
62
5
39
2
10
38.739073
20
17.527239
11
38.182881
21
17.514990
0
LINE
8
boundary
62
5
39
2
10
38.182881
20
17.514990
11
36.550138
21
17.570429
0
LINE
8
boundary
62
5
39
2
10
36.550138
20
17.570429
11
36.551437
21
17.493838
0
LINE
8
boundary
62
5
39
2
10
36.551437
20
17.493838
11
36.538111
21
16.661224
0
LINE
8
boundary
62
5
39
2
10
36.538111
20
16.661224
11
36.531715
21
16.392318
0
LINE
8
boundary
62
5
39
2
10
36.531715
20
16.392318
11
36.539361
21
16.260142
0
LINE
8
boundary
62
5
39
2
10
36.539361
20
16.260142
11
36.551891
21
16.233642
0
LINE
8
boundary
62
5
39
2
10
36.551891
20
16.233642
11
36.585722
21
16.233642
0
LINE
8
boundary
62
5
39
2
10
36.585722
20
16.233642
11
36.585722
21
15.729042
0
LINE
8
boundary
62
5
39
2
10
36.585722
20
15.729042
11
36.584144
21
15.729042
0
LINE
8
boundary
62
5
39
2
10
36.584144
20
15.729042
11
36.571614
21
15.702542
0
LINE
8
boundary
62
5
39
2
10
36.571614
20
15.702542
11
36.589305
21
15.396699
0
LINE
8
boundary
62
5
39
2
10
36.589305
20
15.396699
11
36.589880
21
15.386762
0
LINE
8
boundary
62
5
39
2
10
36.589880
20
15.386762
11
36.582417
21
14.866660
0
LINE
8
boundary
62
5
39
2
10
36.582417
20
14.866660
11
38.179918
21
14.987811
0
LINE
8
boundary
62
5
39
2
10
38.179918
20
14.987811
11
38.907366
21
14.994501
0
LINE
8
annotation
62
1
39
211
10
39.247070
20
15.806295
11
39.247070
21
15.806295
0
LINE
8
annotation
62
1
39
211
10
39.247070
20
15.806295
11
39.242369
21
15.804532
0
LINE
8
annotation
62
1
39
211
10
39.242369
20
15.804532
11
39.238055
21
15.802157
0
LINE
8
annotation
62
1
39
211
10
39.238055
20
15.802157
11
39.234172
21
15.799229
0
LINE
8
annotation
62
1
39
211
10
39.234172
20
15.799229
11
39.230765
21
15.795808
0
LINE
8
annotation
62
1
39
211
10
39.230765
20
15.795808
11
39.227878
21
15.791952
0
LINE
8
annotation
62
1
39
211
10
39.227878
20
15.791952
11
39.225556
21
15.787723
0
LINE
8
annotation
62
1
39
211
10
39.225556
20
15.787723
11
39.223842
21
15.783179
0
LINE
8
annotation
62
1
39
211
10
39.223842
20
15.783179
11
39.222781
21
15.778379
0
LINE
8
annotation
62
1
39
211
10
39.222781
20
15.778379
11
39.222418
21
15.773383
0
LINE
8
annotation
62
1
39
211
10
39.222418
20
15.773383
11
39.222418
21
15.748819
0
LINE
8
annotation
62
1
39
211
10
39.222418
20
15.748819
11
39.222418
21
15.748819
0
LINE
8
annotation
62
1
39
211
10
39.222418
20
15.748819
11
39.222683
21
15.745866
0
LINE
8
annotation
62
1
39
211
10
39.222683
20
15.745866
11
39.223447
21
15.743087
0
LINE
8
annotation
62
1
39
211
10
39.223447
20
15.743087
11
39.224662
21
15.740528
0
LINE
8
annotation
62
1
39
211
10
39.224662
20
15.740528
11
39.226283
21
15.738234
0
LINE
8
annotation
62
1
39
211
10
39.226283
20
15.738234
11
39.228263
21
15.736254
0
LINE
8
annotation
62
1
39
211
10
39.228263
20
15.736254
11
39.230554
21
15.734632
0
LINE
8
annotation
62
1
39
211
10
39.230554
20
15.734632
11
39.233110
21
15.733417
0
LINE
8
annotation
62
1
39
211
10
39.233110
20
15.733417
11
39.235884
21
15.732653
0
LINE
8
annotation
62
1
39
211
10
39.235884
20
15.732653
11
39.238830
21
15.732388
0
LINE
8
annotation
62
1
39
211
10
39.238830
20
15.732388
11
39.238830
21
15.732388
0
LINE
8
annotation
62
1
39
211
10
39.238830
20
15.732388
11
39.241781
21
15.732653
0
LINE
8
annotation
62
1
39
211
10
39.241781
20
15.732653
11
39.244559
21
15.733417
0
LINE
8
annotation
62
1
39
211
10
39.244559
20
15.733417
11
39.247116
21
15.734632
0
LINE
8
annotation
62
1
39
211
10
39.247116
20
15.734632
11
39.249406
21
15.736254
0
LINE
8
annotation
62
1
39
211
10
39.249406
20
15.736254
11
39.251384
21
15.738234
0
LINE
8
annotation
62
1
39
211
10
39.251384
20
15.738234
11
39.253002
21
15.740528
0
LINE
8
annotation
62
1
39
211
10
39.253002
20
15.740528
11
39.254216
21
15.743087
0
LINE
8
annotation
62
1
39
211
10
39.254216
20
15.743087
11
39.254977
21
15.745866
0
LINE
8
annotation
62
1
39
211
10
39.254977
20
15.745866
11
39.255242
21
15.748819
0
LINE
8
annotation
62
1
39
211
10
39.255242
20
15.748819
11
39.255242
21
15.756995
0
LINE
8
annotation
62
1
39
211
10
39.255242
20
15.756995
11
39.255242
21
15.756995
0
LINE
8
annotation
62
1
39
211
10
39.255242
20
15.756995
11
39.254977
21
15.759945
0
LINE
8
annotation
62
1
39
211
10
39.254977
20
15.759945
11
39.254216
21
15.762721
0
LINE
8
annotation
62
1
39
211
10
39.254216
20
15.762721
11
39.253002
21
15.765275
0
LINE
8
annotation
62
1
39
211
10
39.253002
20
15.765275
11
39.251384
21
15.767561
0
LINE
8
annotation
62
1
39
211
10
39.251384
20
15.767561
11
39.249406
21
15.769535
0
LINE
8
annotation
62
1
39
211
10
39.249406
20
15.769535
11
39.247116
21
15.771150
0
LINE
8
annotation
62
1
39
211
10
39.247116
20
15.771150
11
39.244559
21
15.772360
0
LINE
8
annotation
62
1
39
211
10
39.244559
20
15.772360
11
39.241781
21
15.773120
0
LINE
8
annotation
62
1
39
211
10
39.241781
20
15.773120
11
39.238830
21
15.773383
0
LINE
8
annotation
62
1
39
211
10
39.238830
20
15.773383
11
39.222418
21
15.773383
0
LINE
8
annotation
62
1
39
211
10
39.220362
20
15.723150
11
39.257316
21
15.723150
0
LINE
8
annotation
62
1
39
211
10
36.645320
20
15.786566
11
36.645320
21
15.786566
0
LINE
8
annotation
62
1
39
211
10
36.645320
20
15.786566
11
36.643129
21
15.785745
0
LINE
8
annotation
62
1
39
211
10
36.643129
20
15.785745
11
36.641118
21
15.784638
0
LINE
8
annotation
62
1
39
211
10
36.641118
20
15.784638
11
36.639308
21
15.783273
0
LINE
8
annotation
62
1
39
211
10
36.639308
20
15.783273
11
36.637720
21
15.781678
0
LINE
8
annotation
62
1
39
211
10
36.637720
20
15.781678
11
36.636374
21
15.779881
0
LINE
8
annotation
62
1
39
211
10
36.636374
20
15.779881
11
36.635292
21
15.777910
0
LINE
8
annotation
62
1
39
211
10
36.635292
20
15.777910
11
36.634493
21
15.775791
0
LINE
8
annotation
62
1
39
211
10
36.634493
20
15.775791
11
36.633999
21
15.773554
0
LINE
8
annotation
62
1
39
211
10
36.633999
20
15.773554
11
36.633829
21
15.771226
0
LINE
8
annotation
62
1
39
211
10
36.633829
20
15.771226
11
36.633829
21
15.759776
0
LINE
8
annotation
62
1
39
211
10
36.633829
20
15.759776
11
36.633829
21
15.759776
0
LINE
8
annotation
62
1
39
211
10
36.633829
20
15.759776
11
36.633953
21
15.758399
0
LINE
8
annotation
62
1
39
211
10
36.633953
20
15.758399
11
36.634309
21
15.757104
0
LINE
8
annotation
62
1
39
211
10
36.634309
20
15.757104
11
36.634875
21
15.755911
0
LINE
8
annotation
62
1
39
211
10
36.634875
20
15.755911
11
36.635631
21
15.754842
0
LINE
8
annotation
62
1
39
211
10
36.635631
20
15.754842
11
36.636554
21
15.753919
0
LINE
8
annotation
62
1
39
211
10
36.636554
20
15.753919
11
36.637621
21
15.753163
0
LINE
8
annotation
62
1
39
211
10
36.637621
20
15.753163
11
36.638813
21
15.752596
0
LINE
8
annotation
62
1
39
211
10
36.638813
20
15.752596
11
36.640106
21
15.752241
0
LINE
8
annotation
62
1
39
211
10
36.640106
20
15.752241
11
36.641479
21
15.752117
0
LINE
8
annotation
62
1
39
211
10
36.641479
20
15.752117
11
36.641479
21
15.752117
0
LINE
8
annotation
62
1
39
211
10
36.641479
20
15.752117
11
36.642855
21
15.752241
0
LINE
8
annotation
62
1
39
211
10
36.642855
20
15.752241
11
36.644150
21
15.752596
0
LINE
8
annotation
62
1
39
211
10
36.644150
20
15.752596
11
36.645341
21
15.753163
0
LINE
8
annotation
62
1
39
211
10
36.645341
20
15.753163
11
36.646409
21
15.753919
0
LINE
8
annotation
62
1
39
211
10
36.646409
20
15.753919
11
36.647331
21
15.754842
0
LINE
8
annotation
62
1
39
211
10
36.647331
20
15.754842
11
36.648085
21
15.755911
0
LINE
8
annotation
62
1
39
211
10
36.648085
20
15.755911
11
36.648651
21
15.757104
0
LINE
8
annotation
62
1
39
211
10
36.648651
20
15.757104
11
36.649006
21
15.758399
0
LINE
8
annotation
62
1
39
211
10
36.649006
20
15.758399
11
36.649129
21
15.759776
0
LINE
8
annotation
62
1
39
211
10
36.649129
20
15.759776
11
36.649129
21
15.763587
0
LINE
8
annotation
62
1
39
211
10
36.649129
20
15.763587
11
36.649129
21
15.763587
0
LINE
8
annotation
62
1
39
211
10
36.649129
20
15.763587
11
36.649006
21
15.764962
0
LINE
8
annotation
62
1
39
211
10
36.649006
20
15.764962
11
36.648651
21
15.766256
0
LINE
8
annotation
62
1
39
211
10
36.648651
20
15.766256
11
36.648085
21
15.767446
0
LINE
8
annotation
62
1
39
211
10
36.648085
20
15.767446
11
36.647331
21
15.768512
0
LINE
8
annotation
62
1
39
211
10
36.647331
20
15.768512
11
36.646409
21
15.769432
0
LINE
8
annotation
62
1
39
211
10
36.646409
20
15.769432
11
36.645341
21
15.770185
0
LINE
8
annotation
62
1
39
211
10
36.645341
20
15.770185
11
36.644150
21
15.770749
0
LINE
8
annotation
62
1
39
211
10
36.644150
20
15.770749
11
36.642855
21
15.771103
0
LINE
8
annotation
62
1
39
211
10
36.642855
20
15.771103
11
36.641479
21
15.771226
0
LINE
8
annotation
62
1
39
211
10
36.641479
20
15.771226
11
36.633829
21
15.771226
0
LINE
8
annotation
62
1
39
211
10
36.632871
20
15.747811
11
36.650096
21
15.747811
0
LINE
8
annotation
62
1
39
211
10
38.329108
20
17.423046
11
38.296233
21
17.375494
0
LINE
8
annotation
62
1
39
211
10
38.296233
20
17.375494
11
38.263351
21
17.423046
0
LINE
8
annotation
62
1
39
211
10
38.296233
20
17.379321
11
38.296233
21
17.324462
0
LINE
8
annotation
62
1
39
211
10
38.419988
20
17.373754
11
38.366087
21
17.373754
0
LINE
8
annotation
62
1
39
211
10
38.478864
20
17.324465
11
38.478864
21
17.423043
0
LINE
8
annotation
62
1
39
211
10
38.478864
20
17.423043
11
38.456949
21
17.401121
0
LINE
8
annotation
62
1
39
211
10
38.569737
20
17.373754
11
38.515837
21
17.373754
0
LINE
8
annotation
62
1
39
211
10
38.606695
20
17.324465
11
38.628585
21
17.324465
0
LINE
8
annotation
62
1
39
211
10
38.628585
20
17.324465
11
38.628585
21
17.324465
0
LINE
8
annotation
62
1
39
211
10
38.628585
20
17.324465
11
38.632514
21
17.324818
0
LINE
8
annotation
62
1
39
211
10
38.632514
20
17.324818
11
38.636214
21
17.325837
0
LINE
8
annotation
62
1
39
211
10
38.636214
20
17.325837
11
38.639624
21
17.327458
0
LINE
8
annotation
62
1
39
211
10
38.639624
20
17.327458
11
38.642680
21
17.329621
0
LINE
8
annotation
62
1
39
211
10
38.642680
20
17.329621
11
38.645320
21
17.332263
0
LINE
8
annotation
62
1
39
211
10
38.645320
20
17.332263
11
38.647482
21
17.335321
0
LINE
8
annotation
62
1
39
211
10
38.647482
20
17.335321
11
38.649103
21
17.338735
0
LINE
8
annotation
62
1
39
211
10
38.649103
20
17.338735
11
38.650122
21
17.342442
0
LINE
8
annotation
62
1
39
211
10
38.650122
20
17.342442
11
38.650476
21
17.346380
0
LINE
8
annotation
62
1
39
211
10
38.650476
20
17.346380
11
38.650476
21
17.357285
0
LINE
8
annotation
62
1
39
211
10
38.650476
20
17.357285
11
38.650476
21
17.357285
0
LINE
8
annotation
62
1
39
211
10
38.650476
20
17.357285
11
38.650122
21
17.361221
0
LINE
8
annotation
62
1
39
211
10
38.650122
20
17.361221
11
38.649104
21
17.364923
0
LINE
8
annotation
62
1
39
211
10
38.649104
20
17.364923
11
38.647483
21
17.368329
0
LINE
8
annotation
62
1
39
211
10
38.647483
20
17.368329
11
38.645322
21
17.371379
0
LINE
8
annotation
62
1
39
211
10
38.645322
20
17.371379
11
38.642682
21
17.374012
0
LINE
8
annotation
62
1
39
211
10
38.642682
20
17.374012
11
38.639626
21
17.376166
0
LINE
8
annotation
62
1
39
211
10
38.639626
20
17.376166
11
38.636217
21
17.377780
0
LINE
8
annotation
62
1
39
211
10
38.636217
20
17.377780
11
38.632516
21
17.378793
0
LINE
8
annotation
62
1
39
211
10
38.632516
20
17.378793
11
38.628585
21
17.379145
0
LINE
8
annotation
62
1
39
211
10
38.628585
20
17.379145
11
38.606695
21
17.379145
0
LINE
8
annotation
62
1
39
211
10
38.606695
20
17.379145
11
38.606695
21
17.423043
0
LINE
8
annotation
62
1
39
211
10
38.606695
20
17.423043
11
38.650476
21
17.423043
0
LINE
8
boundary
62
5
39
2
10
35.596341
20
22.683134
11
35.596729
21
22.684072
0
LINE
8
boundary
62
5
39
2
10
35.596729
20
22.684072
11
35.597733
21
22.686505
0
LINE
8
boundary
62
5
39
2
10
35.597733
20
22.686505
11
35.598123
21
22.687378
0
LINE
8
boundary
62
5
39
2
10
35.598123
20
22.687378
11
35.420759
21
22.645759
0
LINE
8
boundary
62
5
39
2
10
35.420759
20
22.645759
11
33.920834
21
20.554225
0
LINE
8
boundary
62
5
39
2
10
33.920834
20
20.554225
11
33.806926
21
20.558835
0
LINE
8
boundary
62
5
39
2
10
33.806926
20
20.558835
11
33.152674
21
20.064781
0
LINE
8
boundary
62
5
39
2
10
33.152674
20
20.064781
11
33.836883
21
20.175375
0
LINE
8
boundary
62
5
39
2
10
33.836883
20
20.175375
11
33.904888
21
20.188298
0
LINE
8
boundary
62
5
39
2
10
33.904888
20
20.188298
11
35.583862
21
22.651976
0
LINE
8
boundary
62
5
39
2
10
35.583862
20
22.651976
11
35.591146
21
22.670104
0
LINE
8
boundary
62
5
39
2
10
35.591146
20
22.670104
11
35.596341
21
22.683134
0
LINE
8
annotation
62
1
39
211
10
33.676318
20
20.266446
11
33.650104
21
20.266446
0
LINE
8
annotation
62
1
39
211
10
33.650104
20
20.266446
11
33.676318
21
20.313658
0
LINE
8
annotation
62
1
39
211
10
33.676318
20
20.313658
11
33.650104
21
20.313658
0
LINE
8
annotation
62
1
39
211
10
33.719841
20
20.290052
11
33.694027
21
20.290052
0
LINE
8
annotation
62
1
39
211
10
33.758512
20
20.266446
11
33.737545
21
20.266446
0
LINE
8
annotation
62
1
39
211
10
33.737545
20
20.266446
11
33.756919
21
20.297637
0
LINE
8
annotation
62
1
39
211
10
33.756919
20
20.297637
11
33.756919
21
20.297637
0
LINE
8
annotation
62
1
39
211
10
33.756919
20
20.297637
11
33.756943
21
20.297666
0
LINE
8
annotation
62
1
39
211
10
33.756943
20
20.297666
11
33.756965
21
20.297695
0
LINE
8
annotation
62
1
39
211
10
33.756965
20
20.297695
11
33.756986
21
20.297724
0
LINE
8
annotation
62
1
39
211
10
33.756986
20
20.297724
11
33.757007
21
20.297754
0
LINE
8
annotation
62
1
39
211
10
33.757007
20
20.297754
11
33.757027
21
20.297785
0
LINE
8
annotation
62
1
39
211
10
33.757027
20
20.297785
11
33.757047
21
20.297818
0
LINE
8
annotation
62
1
39
211
10
33.757047
20
20.297818
11
33.757067
21
20.297851
0
LINE
8
annotation
62
1
39
211
10
33.757067
20
20.297851
11
33.757086
21
20.297887
0
LINE
8
annotation
62
1
39
211
10
33.757086
20
20.297887
11
33.757106
21
20.297924
0
LINE
8
annotation
62
1
39
211
10
33.757106
20
20.297924
11
33.757106
21
20.297924
0
LINE
8
annotation
62
1
39
211
10
33.757106
20
20.297924
11
33.757906
21
20.299642
0
LINE
8
annotation
62
1
39
211
10
33.757906
20
20.299642
11
33.758373
21
20.301422
0
LINE
8
annotation
62
1
39
211
10
33.758373
20
20.301422
11
33.758519
21
20.303225
0
LINE
8
annotation
62
1
39
211
10
33.758519
20
20.303225
11
33.758356
21
20.305011
0
LINE
8
annotation
62
1
39
211
10
33.758356
20
20.305011
11
33.757894
21
20.306739
0
LINE
8
annotation
62
1
39
211
10
33.757894
20
20.306739
11
33.757145
21
20.308368
0
LINE
8
annotation
62
1
39
211
10
33.757145
20
20.308368
11
33.756121
21
20.309859
0
LINE
8
annotation
62
1
39
211
10
33.756121
20
20.309859
11
33.754833
21
20.311172
0
LINE
8
annotation
62
1
39
211
10
33.754833
20
20.311172
11
33.753293
21
20.312266
0
LINE
8
annotation
62
1
39
211
10
33.753293
20
20.312266
11
33.753293
21
20.312266
0
LINE
8
annotation
62
1
39
211
10
33.753293
20
20.312266
11
33.751570
21
20.313055
0
LINE
8
annotation
62
1
39
211
10
33.751570
20
20.313055
11
33.749787
21
20.313515
0
LINE
8
annotation
62
1
39
211
10
33.749787
20
20.313515
11
33.747983
21
20.313657
0
LINE
8
annotation
62
1
39
211
10
33.747983
20
20.313657
11
33.746198
21
20.313491
0
LINE
8
annotation
62
1
39
211
10
33.746198
20
20.313491
11
33.744471
21
20.313028
0
LINE
8
annotation
62
1
39
211
10
33.744471
20
20.313028
11
33.742843
21
20.312278
0
LINE
8
annotation
62
1
39
211
10
33.742843
20
20.312278
11
33.741354
21
20.311251
0
LINE
8
annotation
62
1
39
211
10
33.741354
20
20.311251
11
33.740043
21
20.309957
0
LINE
8
annotation
62
1
39
211
10
33.740043
20
20.309957
11
33.738951
21
20.308408
0
LINE
8
annotation
62
1
39
211
10
33.738951
20
20.308408
11
33.737574
21
20.305767
0
LINE
8
annotation
62
1
39
211
10
33.802039
20
20.290052
11
33.776225
21
20.290052
0
LINE
8
annotation
62
1
39
211
10
33.830236
20
20.266446
11
33.830236
21
20.313658
0
LINE
8
annotation
62
1
39
211
10
33.830236
20
20.313658
11
33.819740
21
20.303159
0
LINE
8
boundary
62
5
39
2
10
37.078700
20
20.064781
11
38.088816
21
21.187076
0
LINE
8
boundary
62
5
39
2
10
38.088816
20
21.187076
11
38.118544
21
21.236915
0
LINE
8
boundary
62
5
39
2
10
38.118544
20
21.236915
11
38.159831
21
21.377347
0
LINE
8
boundary
62
5
39
2
10
38.159831
20
21.377347
11
37.897029
21
21.549724
0
LINE
8
boundary
62
5
39
2
10
37.897029
20
21.549724
11
35.955623
21
22.335641
0
LINE
8
boundary
62
5
39
2
10
35.955623
20
22.335641
11
37.078700
21
20.064781
0
LINE
8
annotation
62
1
39
211
10
36.995815
20
21.082966
11
36.905022
21
21.082966
0
LINE
8
annotation
62
1
39
211
10
36.905022
20
21.082966
11
36.995815
21
21.246485
0
LINE
8
annotation
62
1
39
211
10
36.995815
20
21.246485
11
36.905022
21
21.246485
0
LINE
8
annotation
62
1
39
211
10
37.146559
20
21.164726
11
37.057150
21
21.164726
0
LINE
8
annotation
62
1
39
211
10
37.244220
20
21.082966
11
37.280573
21
21.246485
0
LINE
8
annotation
62
1
39
211
10
37.280573
20
21.246485
11
37.207858
21
21.246485
0
LINE
8
annotation
62
1
39
211
10
37.280573
20
21.173668
11
37.244220
21
21.173668
0
LINE
8
annotation
62
1
39
211
10
37.431322
20
21.164726
11
37.341913
21
21.164726
0
LINE
8
annotation
62
1
39
211
10
37.492625
20
21.082972
11
37.528937
21
21.082972
0
LINE
8
annotation
62
1
39
211
10
37.528937
20
21.082972
11
37.528937
21
21.082972
0
LINE
8
annotation
62
1
39
211
10
37.528937
20
21.082972
11
37.535467
21
21.083557
0
LINE
8
annotation
62
1
39
211
10
37.535467
20
21.083557
11
37.541612
21
21.085246
0
LINE
8
annotation
62
1
39
211
10
37.541612
20
21.085246
11
37.547270
21
21.087933
0
LINE
8
annotation
62
1
39
211
10
37.547270
20
21.087933
11
37.552337
21
21.091516
0
LINE
8
annotation
62
1
39
211
10
37.552337
20
21.091516
11
37.556713
21
21.095890
0
LINE
8
annotation
62
1
39
211
10
37.556713
20
21.095890
11
37.560293
21
21.100953
0
LINE
8
annotation
62
1
39
211
10
37.560293
20
21.100953
11
37.562978
21
21.106599
0
LINE
8
annotation
62
1
39
211
10
37.562978
20
21.106599
11
37.564663
21
21.112727
0
LINE
8
annotation
62
1
39
211
10
37.564663
20
21.112727
11
37.565248
21
21.119231
0
LINE
8
annotation
62
1
39
211
10
37.565248
20
21.119231
11
37.565248
21
21.137413
0
LINE
8
annotation
62
1
39
211
10
37.565248
20
21.137413
11
37.565248
21
21.137413
0
LINE
8
annotation
62
1
39
211
10
37.565248
20
21.137413
11
37.564663
21
21.143915
0
LINE
8
annotation
62
1
39
211
10
37.564663
20
21.143915
11
37.562978
21
21.150041
0
LINE
8
annotation
62
1
39
211
10
37.562978
20
21.150041
11
37.560293
21
21.155687
0
LINE
8
annotation
62
1
39
211
10
37.560293
20
21.155687
11
37.556713
21
21.160750
0
LINE
8
annotation
62
1
39
211
10
37.556713
20
21.160750
11
37.552337
21
21.165125
0
LINE
8
annotation
62
1
39
211
10
37.552337
20
21.165125
11
37.547270
21
21.168709
0
LINE
8
annotation
62
1
39
211
10
37.547270
20
21.168709
11
37.541612
21
21.171397
0
LINE
8
annotation
62
1
39
211
10
37.541612
20
21.171397
11
37.535467
21
21.173086
0
LINE
8
annotation
62
1
39
211
10
37.535467
20
21.173086
11
37.528937
21
21.173673
0
LINE
8
annotation
62
1
39
211
10
37.528937
20
21.173673
11
37.510755
21
21.173673
0
LINE
8
annotation
62
1
39
211
10
37.510755
20
21.173673
11
37.528937
21
21.173673
0
LINE
8
annotation
62
1
39
211
10
37.528937
20
21.173673
11
37.528937
21
21.173673
0
LINE
8
annotation
62
1
39
211
10
37.528937
20
21.173673
11
37.535467
21
21.174259
0
LINE
8
annotation
62
1
39
211
10
37.535467
20
21.174259
11
37.541612
21
21.175949
0
LINE
8
annotation
62
1
39
211
10
37.541612
20
21.175949
11
37.547270
21
21.178640
0
LINE
8
annotation
62
1
39
211
10
37.547270
20
21.178640
11
37.552337
21
21.182229
0
LINE
8
annotation
62
1
39
211
10
37.552337
20
21.182229
11
37.556713
21
21.186613
0
LINE
8
annotation
62
1
39
211
10
37.556713
20
21.186613
11
37.560293
21
21.191689
0
LINE
8
annotation
62
1
39
211
10
37.560293
20
21.191689
11
37.562978
21
21.197353
0
LINE
8
annotation
62
1
39
211
10
37.562978
20
21.197353
11
37.564663
21
21.203503
0
LINE
8
annotation
62
1
39
211
10
37.564663
20
21.203503
11
37.565248
21
21.210035
0
LINE
8
annotation
62
1
39
211
10
37.565248
20
21.210035
11
37.565248
21
21.210035
0
LINE
8
annotation
62
1
39
211
10
37.565248
20
21.210035
11
37.564663
21
21.216537
0
LINE
8
annotation
62
1
39
211
10
37.564663
20
21.216537
11
37.562978
21
21.222663
0
LINE
8
annotation
62
1
39
211
10
37.562978
20
21.222663
11
37.560293
21
21.228309
0
LINE
8
annotation
62
1
39
211
10
37.560293
20
21.228309
11
37.556713
21
21.233372
0
LINE
8
annotation
62
1
39
211
10
37.556713
20
21.233372
11
37.552337
21
21.237747
0
LINE
8
annotation
62
1
39
211
10
37.552337
20
21.237747
11
37.547270
21
21.241331
0
LINE
8
annotation
62
1
39
211
10
37.547270
20
21.241331
11
37.541612
21
21.244020
0
LINE
8
annotation
62
1
39
211
10
37.541612
20
21.244020
11
37.535467
21
21.245709
0
LINE
8
annotation
62
1
39
211
10
37.535467
20
21.245709
11
37.528937
21
21.246295
0
LINE
8
annotation
62
1
39
211
10
37.528937
20
21.246295
11
37.492625
21
21.246295
0
LINE
8
boundary
62
5
39
2
10
35.596305
20
25.663273
11
35.596692
21
25.664211
0
LINE
8
boundary
62
5
39
2
10
35.596692
20
25.664211
11
35.597692
21
25.666637
0
LINE
8
boundary
62
5
39
2
10
35.597692
20
25.666637
11
35.598084
21
25.667511
0
LINE
8
boundary
62
5
39
2
10
35.598084
20
25.667511
11
35.421081
21
25.625974
0
LINE
8
boundary
62
5
39
2
10
35.421081
20
25.625974
11
33.920777
21
23.534285
0
LINE
8
boundary
62
5
39
2
10
33.920777
20
23.534285
11
33.806875
21
23.538902
0
LINE
8
boundary
62
5
39
2
10
33.806875
20
23.538902
11
33.152674
21
23.044878
0
LINE
8
boundary
62
5
39
2
10
33.152674
20
23.044878
11
33.836832
21
23.155464
0
LINE
8
boundary
62
5
39
2
10
33.836832
20
23.155464
11
33.904867
21
23.168392
0
LINE
8
boundary
62
5
39
2
10
33.904867
20
23.168392
11
35.583869
21
25.632183
0
LINE
8
boundary
62
5
39
2
10
35.583869
20
25.632183
11
35.591140
21
25.650303
0
LINE
8
boundary
62
5
39
2
10
35.591140
20
25.650303
11
35.596305
21
25.663273
0
LINE
8
annotation
62
1
39
211
10
33.676292
20
23.246546
11
33.650078
21
23.246546
0
LINE
8
annotation
62
1
39
211
10
33.650078
20
23.246546
11
33.676292
21
23.293758
0
LINE
8
annotation
62
1
39
211
10
33.676292
20
23.293758
11
33.650078
21
23.293758
0
LINE
8
annotation
62
1
39
211
10
33.719816
20
23.270152
11
33.694001
21
23.270152
0
LINE
8
annotation
62
1
39
211
10
33.753264
20
23.293758
11
33.753264
21
23.293758
0
LINE
8
annotation
62
1
39
211
10
33.753264
20
23.293758
11
33.750261
21
23.292632
0
LINE
8
annotation
62
1
39
211
10
33.750261
20
23.292632
11
33.747505
21
23.291114
0
LINE
8
annotation
62
1
39
211
10
33.747505
20
23.291114
11
33.745025
21
23.289244
0
LINE
8
annotation
62
1
39
211
10
33.745025
20
23.289244
11
33.742848
21
23.287058
0
LINE
8
annotation
62
1
39
211
10
33.742848
20
23.287058
11
33.741004
21
23.284595
0
LINE
8
annotation
62
1
39
211
10
33.741004
20
23.284595
11
33.739520
21
23.281894
0
LINE
8
annotation
62
1
39
211
10
33.739520
20
23.281894
11
33.738426
21
23.278991
0
LINE
8
annotation
62
1
39
211
10
33.738426
20
23.278991
11
33.737748
21
23.275925
0
LINE
8
annotation
62
1
39
211
10
33.737748
20
23.275925
11
33.737516
21
23.272733
0
LINE
8
annotation
62
1
39
211
10
33.737516
20
23.272733
11
33.737516
21
23.257041
0
LINE
8
annotation
62
1
39
211
10
33.737516
20
23.257041
11
33.737516
21
23.257041
0
LINE
8
annotation
62
1
39
211
10
33.737516
20
23.257041
11
33.737685
21
23.255155
0
LINE
8
annotation
62
1
39
211
10
33.737685
20
23.255155
11
33.738173
21
23.253380
0
LINE
8
annotation
62
1
39
211
10
33.738173
20
23.253380
11
33.738950
21
23.251745
0
LINE
8
annotation
62
1
39
211
10
33.738950
20
23.251745
11
33.739985
21
23.250280
0
LINE
8
annotation
62
1
39
211
10
33.739985
20
23.250280
11
33.741250
21
23.249015
0
LINE
8
annotation
62
1
39
211
10
33.741250
20
23.249015
11
33.742713
21
23.247979
0
LINE
8
annotation
62
1
39
211
10
33.742713
20
23.247979
11
33.744346
21
23.247202
0
LINE
8
annotation
62
1
39
211
10
33.744346
20
23.247202
11
33.746118
21
23.246715
0
LINE
8
annotation
62
1
39
211
10
33.746118
20
23.246715
11
33.748000
21
23.246546
0
LINE
8
annotation
62
1
39
211
10
33.748000
20
23.246546
11
33.748000
21
23.246546
0
LINE
8
annotation
62
1
39
211
10
33.748000
20
23.246546
11
33.749886
21
23.246715
0
LINE
8
annotation
62
1
39
211
10
33.749886
20
23.246715
11
33.751660
21
23.247202
0
LINE
8
annotation
62
1
39
211
10
33.751660
20
23.247202
11
33.753293
21
23.247979
0
LINE
8
annotation
62
1
39
211
10
33.753293
20
23.247979
11
33.754756
21
23.249015
0
LINE
8
annotation
62
1
39
211
10
33.754756
20
23.249015
11
33.756020
21
23.250280
0
LINE
8
annotation
62
1
39
211
10
33.756020
20
23.250280
11
33.757054
21
23.251745
0
LINE
8
annotation
62
1
39
211
10
33.757054
20
23.251745
11
33.757829
21
23.253380
0
LINE
8
annotation
62
1
39
211
10
33.757829
20
23.253380
11
33.758315
21
23.255155
0
LINE
8
annotation
62
1
39
211
10
33.758315
20
23.255155
11
33.758484
21
23.257041
0
LINE
8
annotation
62
1
39
211
10
33.758484
20
23.257041
11
33.758484
21
23.262264
0
LINE
8
annotation
62
1
39
211
10
33.758484
20
23.262264
11
33.758484
21
23.262264
0
LINE
8
annotation
62
1
39
211
10
33.758484
20
23.262264
11
33.758315
21
23.264149
0
LINE
8
annotation
62
1
39
211
10
33.758315
20
23.264149
11
33.757829
21
23.265922
0
LINE
8
annotation
62
1
39
211
10
33.757829
20
23.265922
11
33.757054
21
23.267554
0
LINE
8
annotation
62
1
39
211
10
33.757054
20
23.267554
11
33.756020
21
23.269014
0
LINE
8
annotation
62
1
39
211
10
33.756020
20
23.269014
11
33.754756
21
23.270275
0
LINE
8
annotation
62
1
39
211
10
33.754756
20
23.270275
11
33.753293
21
23.271307
0
LINE
8
annotation
62
1
39
211
10
33.753293
20
23.271307
11
33.751660
21
23.272080
0
LINE
8
annotation
62
1
39
211
10
33.751660
20
23.272080
11
33.749886
21
23.272565
0
LINE
8
annotation
62
1
39
211
10
33.749886
20
23.272565
11
33.748000
21
23.272733
0
LINE
8
annotation
62
1
39
211
10
33.748000
20
23.272733
11
33.737516
21
23.272733
0
LINE
8
annotation
62
1
39
211
10
33.736203
20
23.240644
11
33.759809
21
23.240644
0
LINE
8
annotation
62
1
39
211
10
33.802008
20
23.270152
11
33.776193
21
23.270152
0
LINE
8
annotation
62
1
39
211
10
33.830205
20
23.246546
11
33.830205
21
23.293758
0
LINE
8
annotation
62
1
39
211
10
33.830205
20
23.293758
11
33.819709
21
23.283259
0
LINE
8
boundary
62
5
39
2
10
38.118513
20
24.195482
11
38.159799
21
24.335914
0
LINE
8
boundary
62
5
39
2
10
38.159799
20
24.335914
11
37.896996
21
24.508292
0
LINE
8
boundary
62
5
39
2
10
37.896996
20
24.508292
11
35.955584
21
25.294210
0
LINE
8
boundary
62
5
39
2
10
35.955584
20
25.294210
11
37.086881
21
23.044878
0
LINE
8
boundary
62
5
39
2
10
37.086881
20
23.044878
11
38.088783
21
24.145642
0
LINE
8
boundary
62
5
39
2
10
38.088783
20
24.145642
11
38.118513
21
24.195482
0
LINE
8
annotation
62
1
39
211
10
36.904845
20
24.153516
11
36.769946
21
24.153516
0
LINE
8
annotation
62
1
39
211
10
36.769946
20
24.153516
11
36.904845
21
24.396468
0
LINE
8
annotation
62
1
39
211
10
36.904845
20
24.396468
11
36.769946
21
24.396468
0
LINE
8
annotation
62
1
39
211
10
37.128817
20
24.274992
11
36.995975
21
24.274992
0
LINE
8
annotation
62
1
39
211
10
37.273920
20
24.153516
11
37.273920
21
24.396468
0
LINE
8
annotation
62
1
39
211
10
37.273920
20
24.396468
11
37.219909
21
24.342441
0
LINE
8
annotation
62
1
39
211
10
37.497884
20
24.274992
11
37.365042
21
24.274992
0
LINE
8
annotation
62
1
39
211
10
37.588969
20
24.153523
11
37.642919
21
24.153523
0
LINE
8
annotation
62
1
39
211
10
37.642919
20
24.153523
11
37.642919
21
24.153523
0
LINE
8
annotation
62
1
39
211
10
37.642919
20
24.153523
11
37.652622
21
24.154394
0
LINE
8
annotation
62
1
39
211
10
37.652622
20
24.154394
11
37.661753
21
24.156902
0
LINE
8
annotation
62
1
39
211
10
37.661753
20
24.156902
11
37.670158
21
24.160895
0
LINE
8
annotation
62
1
39
211
10
37.670158
20
24.160895
11
37.677687
21
24.166218
0
LINE
8
annotation
62
1
39
211
10
37.677687
20
24.166218
11
37.684188
21
24.172718
0
LINE
8
annotation
62
1
39
211
10
37.684188
20
24.172718
11
37.689508
21
24.180239
0
LINE
8
annotation
62
1
39
211
10
37.689508
20
24.180239
11
37.693497
21
24.188629
0
LINE
8
annotation
62
1
39
211
10
37.693497
20
24.188629
11
37.696001
21
24.197733
0
LINE
8
annotation
62
1
39
211
10
37.696001
20
24.197733
11
37.696870
21
24.207398
0
LINE
8
annotation
62
1
39
211
10
37.696870
20
24.207398
11
37.696870
21
24.234411
0
LINE
8
annotation
62
1
39
211
10
37.696870
20
24.234411
11
37.696870
21
24.234411
0
LINE
8
annotation
62
1
39
211
10
37.696870
20
24.234411
11
37.696001
21
24.244071
0
LINE
8
annotation
62
1
39
211
10
37.696001
20
24.244071
11
37.693497
21
24.253173
0
LINE
8
annotation
62
1
39
211
10
37.693497
20
24.253173
11
37.689508
21
24.261562
0
LINE
8
annotation
62
1
39
211
10
37.689508
20
24.261562
11
37.684188
21
24.269085
0
LINE
8
annotation
62
1
39
211
10
37.684188
20
24.269085
11
37.677687
21
24.275585
0
LINE
8
annotation
62
1
39
211
10
37.677687
20
24.275585
11
37.670158
21
24.280910
0
LINE
8
annotation
62
1
39
211
10
37.670158
20
24.280910
11
37.661753
21
24.284904
0
LINE
8
annotation
62
1
39
211
10
37.661753
20
24.284904
11
37.652622
21
24.287414
0
LINE
8
annotation
62
1
39
211
10
37.652622
20
24.287414
11
37.642919
21
24.288285
0
LINE
8
annotation
62
1
39
211
10
37.642919
20
24.288285
11
37.615906
21
24.288285
0
LINE
8
annotation
62
1
39
211
10
37.615906
20
24.288285
11
37.642919
21
24.288285
0
LINE
8
annotation
62
1
39
211
10
37.642919
20
24.288285
11
37.642919
21
24.288285
0
LINE
8
annotation
62
1
39
211
10
37.642919
20
24.288285
11
37.652622
21
24.289156
0
LINE
8
annotation
62
1
39
211
10
37.652622
20
24.289156
11
37.661753
21
24.291668
0
LINE
8
annotation
62
1
39
211
10
37.661753
20
24.291668
11
37.670158
21
24.295666
0
LINE
8
annotation
62
1
39
211
10
37.670158
20
24.295666
11
37.677687
21
24.300999
0
LINE
8
annotation
62
1
39
211
10
37.677687
20
24.300999
11
37.684188
21
24.307512
0
LINE
8
annotation
62
1
39
211
10
37.684188
20
24.307512
11
37.689508
21
24.315053
0
LINE
8
annotation
62
1
39
211
10
37.689508
20
24.315053
11
37.693497
21
24.323469
0
LINE
8
annotation
62
1
39
211
10
37.693497
20
24.323469
11
37.696001
21
24.332606
0
LINE
8
annotation
62
1
39
211
10
37.696001
20
24.332606
11
37.696870
21
24.342312
0
LINE
8
annotation
62
1
39
211
10
37.696870
20
24.342312
11
37.696870
21
24.342312
0
LINE
8
annotation
62
1
39
211
10
37.696870
20
24.342312
11
37.696001
21
24.351972
0
LINE
8
annotation
62
1
39
211
10
37.696001
20
24.351972
11
37.693497
21
24.361074
0
LINE
8
annotation
62
1
39
211
10
37.693497
20
24.361074
11
37.689508
21
24.369463
0
LINE
8
annotation
62
1
39
211
10
37.689508
20
24.369463
11
37.684188
21
24.376985
0
LINE
8
annotation
62
1
39
211
10
37.684188
20
24.376985
11
37.677687
21
24.383486
0
LINE
8
annotation
62
1
39
211
10
37.677687
20
24.383486
11
37.670158
21
24.388811
0
LINE
8
annotation
62
1
39
211
10
37.670158
20
24.388811
11
37.661753
21
24.392805
0
LINE
8
annotation
62
1
39
211
10
37.661753
20
24.392805
11
37.652622
21
24.395315
0
LINE
8
annotation
62
1
39
211
10
37.652622
20
24.395315
11
37.642919
21
24.396186
0
LINE
8
annotation
62
1
39
211
10
37.642919
20
24.396186
11
37.588969
21
24.396186
0
LINE
8
annotation
62
1
39
211
10
36.004895
20
25.662483
11
36.002269
21
25.658684
0
LINE
8
annotation
62
1
39
211
10
36.002269
20
25.658684
11
35.999642
21
25.662483
0
LINE
8
annotation
62
1
39
211
10
36.002269
20
25.658990
11
36.002269
21
25.654608
0
LINE
8
annotation
62
1
39
211
10
36.012154
20
25.658545
11
36.007849
21
25.658545
0
LINE
8
annotation
62
1
39
211
10
36.018604
20
25.654608
11
36.015107
21
25.654608
0
LINE
8
annotation
62
1
39
211
10
36.015107
20
25.654608
11
36.018339
21
25.659810
0
LINE
8
annotation
62
1
39
211
10
36.018339
20
25.659810
11
36.018339
21
25.659810
0
LINE
8
annotation
62
1
39
211
10
36.018339
20
25.659810
11
36.018343
21
25.659815
0
LINE
8
annotation
62
1
39
211
10
36.018343
20
25.659815
11
36.018346
21
25.659820
0
LINE
8
annotation
62
1
39
211
10
36.018346
20
25.659820
11
36.018350
21
25.659825
0
LINE
8
annotation
62
1
39
211
10
36.018350
20
25.659825
11
36.018353
21
25.659830
0
LINE
8
annotation
62
1
39
211
10
36.018353
20
25.659830
11
36.018357
21
25.659835
0
LINE
8
annotation
62
1
39
211
10
36.018357
20
25.659835
11
36.018360
21
25.659841
0
LINE
8
annotation
62
1
39
211
10
36.018360
20
25.659841
11
36.018363
21
25.659846
0
LINE
8
annotation
62
1
39
211
10
36.018363
20
25.659846
11
36.018366
21
25.659852
0
LINE
8
annotation
62
1
39
211
10
36.018366
20
25.659852
11
36.018370
21
25.659858
0
LINE
8
annotation
62
1
39
211
10
36.018370
20
25.659858
11
36.018370
21
25.659858
0
LINE
8
annotation
62
1
39
211
10
36.018370
20
25.659858
11
36.018503
21
25.660145
0
LINE
8
annotation
62
1
39
211
10
36.018503
20
25.660145
11
36.018581
21
25.660442
0
LINE
8
annotation
62
1
39
211
10
36.018581
20
25.660442
11
36.018606
21
25.660743
0
LINE
8
annotation
62
1
39
211
10
36.018606
20
25.660743
11
36.018578
21
25.661040
0
LINE
8
annotation
62
1
39
211
10
36.018578
20
25.661040
11
36.018501
21
25.661328
0
LINE
8
annotation
62
1
39
211
10
36.018501
20
25.661328
11
36.018376
21
25.661600
0
LINE
8
annotation
62
1
39
211
10
36.018376
20
25.661600
11
36.018205
21
25.661849
0
LINE
8
annotation
62
1
39
211
10
36.018205
20
25.661849
11
36.017991
21
25.662068
0
LINE
8
annotation
62
1
39
211
10
36.017991
20
25.662068
11
36.017734
21
25.662250
0
LINE
8
annotation
62
1
39
211
10
36.017734
20
25.662250
11
36.017734
21
25.662250
0
LINE
8
annotation
62
1
39
211
10
36.017734
20
25.662250
11
36.017446
21
25.662382
0
LINE
8
annotation
62
1
39
211
10
36.017446
20
25.662382
11
36.017149
21
25.662459
0
LINE
8
annotation
62
1
39
211
10
36.017149
20
25.662459
11
36.016848
21
25.662482
0
LINE
8
annotation
62
1
39
211
10
36.016848
20
25.662482
11
36.016550
21
25.662455
0
LINE
8
annotation
62
1
39
211
10
36.016550
20
25.662455
11
36.016262
21
25.662377
0
LINE
8
annotation
62
1
39
211
10
36.016262
20
25.662377
11
36.015991
21
25.662252
0
LINE
8
annotation
62
1
39
211
10
36.015991
20
25.662252
11
36.015743
21
25.662081
0
LINE
8
annotation
62
1
39
211
10
36.015743
20
25.662081
11
36.015524
21
25.661865
0
LINE
8
annotation
62
1
39
211
10
36.015524
20
25.661865
11
36.015342
21
25.661607
0
LINE
8
annotation
62
1
39
211
10
36.015342
20
25.661607
11
36.015112
21
25.661166
0
LINE
8
annotation
62
1
39
211
10
36.025864
20
25.658545
11
36.021559
21
25.658545
0
LINE
8
annotation
62
1
39
211
10
36.028816
20
25.654608
11
36.030565
21
25.654608
0
LINE
8
annotation
62
1
39
211
10
36.030565
20
25.654608
11
36.030565
21
25.654608
0
LINE
8
annotation
62
1
39
211
10
36.030565
20
25.654608
11
36.030879
21
25.654637
0
LINE
8
annotation
62
1
39
211
10
36.030879
20
25.654637
11
36.031175
21
25.654718
0
LINE
8
annotation
62
1
39
211
10
36.031175
20
25.654718
11
36.031448
21
25.654847
0
LINE
8
annotation
62
1
39
211
10
36.031448
20
25.654847
11
36.031692
21
25.655020
0
LINE
8
annotation
62
1
39
211
10
36.031692
20
25.655020
11
36.031902
21
25.655231
0
LINE
8
annotation
62
1
39
211
10
36.031902
20
25.655231
11
36.032075
21
25.655474
0
LINE
8
annotation
62
1
39
211
10
36.032075
20
25.655474
11
36.032204
21
25.655746
0
LINE
8
annotation
62
1
39
211
10
36.032204
20
25.655746
11
36.032285
21
25.656041
0
LINE
8
annotation
62
1
39
211
10
36.032285
20
25.656041
11
36.032313
21
25.656355
0
LINE
8
annotation
62
1
39
211
10
36.032313
20
25.656355
11
36.032313
21
25.657230
0
LINE
8
annotation
62
1
39
211
10
36.032313
20
25.657230
11
36.032313
21
25.657230
0
LINE
8
annotation
62
1
39
211
10
36.032313
20
25.657230
11
36.032285
21
25.657543
0
LINE
8
annotation
62
1
39
211
10
36.032285
20
25.657543
11
36.032204
21
25.657838
0
LINE
8
annotation
62
1
39
211
10
36.032204
20
25.657838
11
36.032075
21
25.658110
0
LINE
8
annotation
62
1
39
211
10
36.032075
20
25.658110
11
36.031902
21
25.658354
0
LINE
8
annotation
62
1
39
211
10
36.031902
20
25.658354
11
36.031692
21
25.658565
0
LINE
8
annotation
62
1
39
211
10
36.031692
20
25.658565
11
36.031448
21
25.658737
0
LINE
8
annotation
62
1
39
211
10
36.031448
20
25.658737
11
36.031175
21
25.658867
0
LINE
8
annotation
62
1
39
211
10
36.031175
20
25.658867
11
36.030879
21
25.658948
0
LINE
8
annotation
62
1
39
211
10
36.030879
20
25.658948
11
36.030565
21
25.658976
0
LINE
8
annotation
62
1
39
211
10
36.030565
20
25.658976
11
36.029689
21
25.658976
0
LINE
8
annotation
62
1
39
211
10
36.029689
20
25.658976
11
36.030565
21
25.658976
0
LINE
8
annotation
62
1
39
211
10
36.030565
20
25.658976
11
36.030565
21
25.658976
0
LINE
8
annotation
62
1
39
211
10
36.030565
20
25.658976
11
36.030879
21
25.659004
0
LINE
8
annotation
62
1
39
211
10
36.030879
20
25.659004
11
36.031175
21
25.659086
0
LINE
8
annotation
62
1
39
211
10
36.031175
20
25.659086
11
36.031448
21
25.659215
0
LINE
8
annotation
62
1
39
211
10
36.031448
20
25.659215
11
36.031692
21
25.659388
0
LINE
8
annotation
62
1
39
211
10
36.031692
20
25.659388
11
36.031902
21
25.659599
0
LINE
8
annotation
62
1
39
211
10
36.031902
20
25.659599
11
36.032075
21
25.659844
0
LINE
8
annotation
62
1
39
211
10
36.032075
20
25.659844
11
36.032204
21
25.660117
0
LINE
8
annotation
62
1
39
211
10
36.032204
20
25.660117
11
36.032285
21
25.660413
0
LINE
8
annotation
62
1
39
211
10
36.032285
20
25.660413
11
36.032313
21
25.660727
0
LINE
8
annotation
62
1
39
211
10
36.032313
20
25.660727
11
36.032313
21
25.660727
0
LINE
8
annotation
62
1
39
211
10
36.032313
20
25.660727
11
36.032285
21
25.661040
0
LINE
8
annotation
62
1
39
211
10
36.032285
20
25.661040
11
36.032204
21
25.661335
0
LINE
8
annotation
62
1
39
211
10
36.032204
20
25.661335
11
36.032075
21
25.661607
0
LINE
8
annotation
62
1
39
211
10
36.032075
20
25.661607
11
36.031902
21
25.661851
0
LINE
8
annotation
62
1
39
211
10
36.031902
20
25.661851
11
36.031692
21
25.662062
0
LINE
8
annotation
62
1
39
211
10
36.031692
20
25.662062
11
36.031448
21
25.662234
0
LINE
8
annotation
62
1
39
211
10
36.031448
20
25.662234
11
36.031175
21
25.662364
0
LINE
8
annotation
62
1
39
211
10
36.031175
20
25.662364
11
36.030879
21
25.662445
0
LINE
8
annotation
62
1
39
211
10
36.030879
20
25.662445
11
36.030565
21
25.662473
0
LINE
8
annotation
62
1
39
211
10
36.030565
20
25.662473
11
36.028816
21
25.662473
0
LINE
8
boundary
62
5
39
2
10
33.474654
20
26.025011
11
33.890095
21
26.268289
0
LINE
8
boundary
62
5
39
2
10
33.890095
20
26.268289
11
33.924461
21
26.281591
0
LINE
8
boundary
62
5
39
2
10
33.924461
20
26.281591
11
34.012885
21
26.364439
0
LINE
8
boundary
62
5
39
2
10
34.012885
20
26.364439
11
34.293305
21
26.620289
0
LINE
8
boundary
62
5
39
2
10
34.293305
20
26.620289
11
34.383061
21
26.870837
0
LINE
8
boundary
62
5
39
2
10
34.383061
20
26.870837
11
34.487296
21
27.168517
0
LINE
8
boundary
62
5
39
2
10
34.487296
20
27.168517
11
34.521145
21
27.386256
0
LINE
8
boundary
62
5
39
2
10
34.521145
20
27.386256
11
34.552500
21
27.595349
0
LINE
8
boundary
62
5
39
2
10
34.552500
20
27.595349
11
34.562176
21
27.651885
0
LINE
8
boundary
62
5
39
2
10
34.562176
20
27.651885
11
34.561259
21
27.655149
0
LINE
8
boundary
62
5
39
2
10
34.561259
20
27.655149
11
34.546602
21
27.753042
0
LINE
8
boundary
62
5
39
2
10
34.546602
20
27.753042
11
34.531464
21
27.850662
0
LINE
8
boundary
62
5
39
2
10
34.531464
20
27.850662
11
34.487730
21
28.137741
0
LINE
8
boundary
62
5
39
2
10
34.487730
20
28.137741
11
34.383387
21
28.435736
0
LINE
8
boundary
62
5
39
2
10
34.383387
20
28.435736
11
34.293275
21
28.687224
0
LINE
8
boundary
62
5
39
2
10
34.293275
20
28.687224
11
34.033727
21
28.928235
0
LINE
8
boundary
62
5
39
2
10
34.033727
20
28.928235
11
34.023975
21
28.937269
0
LINE
8
boundary
62
5
39
2
10
34.023975
20
28.937269
11
34.022238
21
28.938244
0
LINE
8
boundary
62
5
39
2
10
34.022238
20
28.938244
11
34.019746
21
28.939641
0
LINE
8
boundary
62
5
39
2
10
34.019746
20
28.939641
11
34.015397
21
28.944279
0
LINE
8
boundary
62
5
39
2
10
34.015397
20
28.944279
11
33.930470
21
29.022974
0
LINE
8
boundary
62
5
39
2
10
33.930470
20
29.022974
11
33.925931
21
29.025415
0
LINE
8
boundary
62
5
39
2
10
33.925931
20
29.025415
11
33.922436
21
29.027446
0
LINE
8
boundary
62
5
39
2
10
33.922436
20
29.027446
11
33.478542
21
29.282360
0
LINE
8
boundary
62
5
39
2
10
33.478542
20
29.282360
11
33.473026
21
29.285590
0
LINE
8
boundary
62
5
39
2
10
33.473026
20
29.285590
11
33.472265
21
29.282236
0
LINE
8
boundary
62
5
39
2
10
33.472265
20
29.282236
11
33.461509
21
29.264189
0
LINE
8
boundary
62
5
39
2
10
33.461509
20
29.264189
11
33.457339
21
29.259758
0
LINE
8
boundary
62
5
39
2
10
33.457339
20
29.259758
11
33.382784
21
29.182337
0
LINE
8
boundary
62
5
39
2
10
33.382784
20
29.182337
11
33.371515
21
29.158642
0
LINE
8
boundary
62
5
39
2
10
33.371515
20
29.158642
11
33.341280
21
29.128391
0
LINE
8
boundary
62
5
39
2
10
33.341280
20
29.128391
11
33.334749
21
29.126695
0
LINE
8
boundary
62
5
39
2
10
33.334749
20
29.126695
11
33.324810
21
29.131983
0
LINE
8
boundary
62
5
39
2
10
33.324810
20
29.131983
11
33.317756
21
29.109632
0
LINE
8
boundary
62
5
39
2
10
33.317756
20
29.109632
11
33.310062
21
29.100422
0
LINE
8
boundary
62
5
39
2
10
33.310062
20
29.100422
11
33.265828
21
29.048176
0
LINE
8
boundary
62
5
39
2
10
33.265828
20
29.048176
11
33.241133
21
29.019728
0
LINE
8
boundary
62
5
39
2
10
33.241133
20
29.019728
11
33.230842
21
28.994902
0
LINE
8
boundary
62
5
39
2
10
33.230842
20
28.994902
11
33.220913
21
28.987614
0
LINE
8
boundary
62
5
39
2
10
33.220913
20
28.987614
11
33.152674
21
28.909827
0
LINE
8
boundary
62
5
39
2
10
33.152674
20
28.909827
11
33.456876
21
28.737417
0
LINE
8
boundary
62
5
39
2
10
33.456876
20
28.737417
11
33.570558
21
28.673310
0
LINE
8
boundary
62
5
39
2
10
33.570558
20
28.673310
11
33.829022
21
28.474325
0
LINE
8
boundary
62
5
39
2
10
33.829022
20
28.474325
11
33.872148
21
28.338019
0
LINE
8
boundary
62
5
39
2
10
33.872148
20
28.338019
11
33.879171
21
28.313801
0
LINE
8
boundary
62
5
39
2
10
33.879171
20
28.313801
11
33.903011
21
28.239008
0
LINE
8
boundary
62
5
39
2
10
33.903011
20
28.239008
11
34.003893
21
27.954496
0
LINE
8
boundary
62
5
39
2
10
34.003893
20
27.954496
11
34.006804
21
27.932542
0
LINE
8
boundary
62
5
39
2
10
34.006804
20
27.932542
11
34.019334
21
27.906042
0
LINE
8
boundary
62
5
39
2
10
34.019334
20
27.906042
11
34.273284
21
27.906042
0
LINE
8
boundary
62
5
39
2
10
34.273284
20
27.906042
11
34.273284
21
27.401442
0
LINE
8
boundary
62
5
39
2
10
34.273284
20
27.401442
11
34.019333
21
27.401442
0
LINE
8
boundary
62
5
39
2
10
34.019333
20
27.401442
11
34.006803
21
27.374942
0
LINE
8
boundary
62
5
39
2
10
34.006803
20
27.374942
11
34.003895
21
27.352992
0
LINE
8
boundary
62
5
39
2
10
34.003895
20
27.352992
11
33.903018
21
27.068479
0
LINE
8
boundary
62
5
39
2
10
33.903018
20
27.068479
11
33.879156
21
26.993598
0
LINE
8
boundary
62
5
39
2
10
33.879156
20
26.993598
11
33.872135
21
26.969430
0
LINE
8
boundary
62
5
39
2
10
33.872135
20
26.969430
11
33.829013
21
26.833153
0
LINE
8
boundary
62
5
39
2
10
33.829013
20
26.833153
11
33.570464
21
26.633721
0
LINE
8
boundary
62
5
39
2
10
33.570464
20
26.633721
11
33.454435
21
26.568006
0
LINE
8
boundary
62
5
39
2
10
33.454435
20
26.568006
11
33.155724
21
26.396786
0
LINE
8
boundary
62
5
39
2
10
33.155724
20
26.396786
11
33.165733
21
26.376299
0
LINE
8
boundary
62
5
39
2
10
33.165733
20
26.376299
11
33.232187
21
26.297752
0
LINE
8
boundary
62
5
39
2
10
33.232187
20
26.297752
11
33.241666
21
26.287323
0
LINE
8
boundary
62
5
39
2
10
33.241666
20
26.287323
11
33.250537
21
26.265749
0
LINE
8
boundary
62
5
39
2
10
33.250537
20
26.265749
11
33.319232
21
26.184147
0
LINE
8
boundary
62
5
39
2
10
33.319232
20
26.184147
11
33.328481
21
26.176597
0
LINE
8
boundary
62
5
39
2
10
33.328481
20
26.176597
11
33.334372
21
26.173468
0
LINE
8
boundary
62
5
39
2
10
33.334372
20
26.173468
11
33.367124
21
26.142853
0
LINE
8
boundary
62
5
39
2
10
33.367124
20
26.142853
11
33.383274
21
26.124762
0
LINE
8
boundary
62
5
39
2
10
33.383274
20
26.124762
11
33.395511
21
26.104050
0
LINE
8
boundary
62
5
39
2
10
33.395511
20
26.104050
11
33.471650
21
26.025105
0
LINE
8
boundary
62
5
39
2
10
33.471650
20
26.025105
11
33.474654
21
26.025011
0
LINE
8
annotation
62
1
39
211
10
34.522834
20
27.610685
11
34.436739
21
27.610685
0
LINE
8
annotation
62
1
39
211
10
34.436739
20
27.610685
11
34.471122
21
27.731271
0
LINE
8
annotation
62
1
39
211
10
34.497027
20
27.576213
11
34.497027
21
27.645078
0
LINE
8
annotation
62
1
39
211
10
34.051776
20
28.372497
11
34.032201
21
28.344184
0
LINE
8
annotation
62
1
39
211
10
34.032201
20
28.344184
11
34.012622
21
28.372497
0
LINE
8
annotation
62
1
39
211
10
34.032201
20
28.346462
11
34.032201
21
28.313797
0
LINE
8
annotation
62
1
39
211
10
34.105889
20
28.343147
11
34.073795
21
28.343147
0
LINE
8
annotation
62
1
39
211
10
34.160486
20
28.326848
11
34.127895
21
28.326848
0
LINE
8
annotation
62
1
39
211
10
34.127895
20
28.326848
11
34.140910
21
28.372496
0
LINE
8
annotation
62
1
39
211
10
34.150716
20
28.313799
11
34.150716
21
28.339868
0
LINE
8
annotation
62
1
39
211
10
34.214596
20
28.343147
11
34.182502
21
28.343147
0
LINE
8
annotation
62
1
39
211
10
34.262675
20
28.313799
11
34.236606
21
28.313799
0
LINE
8
annotation
62
1
39
211
10
34.236606
20
28.313799
11
34.260695
21
28.352577
0
LINE
8
annotation
62
1
39
211
10
34.260695
20
28.352577
11
34.260695
21
28.352577
0
LINE
8
annotation
62
1
39
211
10
34.260695
20
28.352577
11
34.260723
21
28.352613
0
LINE
8
annotation
62
1
39
211
10
34.260723
20
28.352613
11
34.260751
21
28.352649
0
LINE
8
annotation
62
1
39
211
10
34.260751
20
28.352649
11
34.260778
21
28.352686
0
LINE
8
annotation
62
1
39
211
10
34.260778
20
28.352686
11
34.260803
21
28.352723
0
LINE
8
annotation
62
1
39
211
10
34.260803
20
28.352723
11
34.260829
21
28.352762
0
LINE
8
annotation
62
1
39
211
10
34.260829
20
28.352762
11
34.260853
21
28.352802
0
LINE
8
annotation
62
1
39
211
10
34.260853
20
28.352802
11
34.260878
21
28.352844
0
LINE
8
annotation
62
1
39
211
10
34.260878
20
28.352844
11
34.260902
21
28.352888
0
LINE
8
annotation
62
1
39
211
10
34.260902
20
28.352888
11
34.260926
21
28.352935
0
LINE
8
annotation
62
1
39
211
10
34.260926
20
28.352935
11
34.260926
21
28.352935
0
LINE
8
annotation
62
1
39
211
10
34.260926
20
28.352935
11
34.261921
21
28.355070
0
LINE
8
annotation
62
1
39
211
10
34.261921
20
28.355070
11
34.262502
21
28.357284
0
LINE
8
annotation
62
1
39
211
10
34.262502
20
28.357284
11
34.262684
21
28.359525
0
LINE
8
annotation
62
1
39
211
10
34.262684
20
28.359525
11
34.262480
21
28.361745
0
LINE
8
annotation
62
1
39
211
10
34.262480
20
28.361745
11
34.261906
21
28.363893
0
LINE
8
annotation
62
1
39
211
10
34.261906
20
28.363893
11
34.260975
21
28.365919
0
LINE
8
annotation
62
1
39
211
10
34.260975
20
28.365919
11
34.259702
21
28.367773
0
LINE
8
annotation
62
1
39
211
10
34.259702
20
28.367773
11
34.258101
21
28.369405
0
LINE
8
annotation
62
1
39
211
10
34.258101
20
28.369405
11
34.256185
21
28.370765
0
LINE
8
annotation
62
1
39
211
10
34.256185
20
28.370765
11
34.256185
21
28.370765
0
LINE
8
annotation
62
1
39
211
10
34.256185
20
28.370765
11
34.254044
21
28.371745
0
LINE
8
annotation
62
1
39
211
10
34.254044
20
28.371745
11
34.251827
21
28.372318
0
LINE
8
annotation
62
1
39
211
10
34.251827
20
28.372318
11
34.249584
21
28.372494
0
LINE
8
annotation
62
1
39
211
10
34.249584
20
28.372494
11
34.247364
21
28.372288
0
LINE
8
annotation
62
1
39
211
10
34.247364
20
28.372288
11
34.245218
21
28.371712
0
LINE
8
annotation
62
1
39
211
10
34.245218
20
28.371712
11
34.243194
21
28.370779
0
LINE
8
annotation
62
1
39
211
10
34.243194
20
28.370779
11
34.241343
21
28.369503
0
LINE
8
annotation
62
1
39
211
10
34.241343
20
28.369503
11
34.239713
21
28.367895
0
LINE
8
annotation
62
1
39
211
10
34.239713
20
28.367895
11
34.238355
21
28.365969
0
LINE
8
annotation
62
1
39
211
10
34.238355
20
28.365969
11
34.236643
21
28.362685
0
LINE
8
boundary
62
5
39
2
10
37.104084
20
26.190601
11
37.170125
21
26.947457
0
LINE
8
boundary
62
5
39
2
10
37.170125
20
26.947457
11
37.157973
21
27.544898
0
LINE
8
boundary
62
5
39
2
10
37.157973
20
27.544898
11
36.846186
21
27.620019
0
LINE
8
boundary
62
5
39
2
10
36.846186
20
27.620019
11
36.275093
21
27.696749
0
LINE
8
boundary
62
5
39
2
10
36.275093
20
27.696749
11
34.933786
21
27.880488
0
LINE
8
boundary
62
5
39
2
10
34.933786
20
27.880488
11
34.924041
21
27.438810
0
LINE
8
boundary
62
5
39
2
10
34.924041
20
27.438810
11
34.936571
21
27.412310
0
LINE
8
boundary
62
5
39
2
10
34.936571
20
27.412310
11
36.031524
21
27.412310
0
LINE
8
boundary
62
5
39
2
10
36.031524
20
27.412310
11
36.031524
21
26.907710
0
LINE
8
boundary
62
5
39
2
10
36.031524
20
26.907710
11
34.934224
21
26.907710
0
LINE
8
boundary
62
5
39
2
10
34.934224
20
26.907710
11
34.921694
21
26.881210
0
LINE
8
boundary
62
5
39
2
10
34.921694
20
26.881210
11
34.920738
21
26.617677
0
LINE
8
boundary
62
5
39
2
10
34.920738
20
26.617677
11
34.920036
21
26.581608
0
LINE
8
boundary
62
5
39
2
10
34.920036
20
26.581608
11
34.919960
21
26.562045
0
LINE
8
boundary
62
5
39
2
10
34.919960
20
26.562045
11
34.921996
21
26.077335
0
LINE
8
boundary
62
5
39
2
10
34.921996
20
26.077335
11
34.924608
21
26.025011
0
LINE
8
boundary
62
5
39
2
10
34.924608
20
26.025011
11
36.123227
21
26.083970
0
LINE
8
boundary
62
5
39
2
10
36.123227
20
26.083970
11
36.135576
21
26.084577
0
LINE
8
boundary
62
5
39
2
10
36.135576
20
26.084577
11
36.170052
21
26.089162
0
LINE
8
boundary
62
5
39
2
10
36.170052
20
26.089162
11
36.177233
21
26.089651
0
LINE
8
boundary
62
5
39
2
10
36.177233
20
26.089651
11
36.217638
21
26.092802
0
LINE
8
boundary
62
5
39
2
10
36.217638
20
26.092802
11
36.230517
21
26.093792
0
LINE
8
boundary
62
5
39
2
10
36.230517
20
26.093792
11
36.239236
21
26.094190
0
LINE
8
boundary
62
5
39
2
10
36.239236
20
26.094190
11
36.239748
21
26.094211
0
LINE
8
boundary
62
5
39
2
10
36.239748
20
26.094211
11
36.239820
21
26.094214
0
LINE
8
boundary
62
5
39
2
10
36.239820
20
26.094214
11
36.240071
21
26.094225
0
LINE
8
boundary
62
5
39
2
10
36.240071
20
26.094225
11
36.246919
21
26.094512
0
LINE
8
boundary
62
5
39
2
10
36.246919
20
26.094512
11
36.755018
21
26.129402
0
LINE
8
boundary
62
5
39
2
10
36.755018
20
26.129402
11
37.104084
21
26.190601
0
LINE
8
annotation
62
1
39
211
10
36.966341
20
26.846772
11
36.688113
21
26.846772
0
LINE
8
annotation
62
1
39
211
10
36.688113
20
26.846772
11
36.945205
21
27.260657
0
LINE
8
annotation
62
1
39
211
10
36.945205
20
27.260657
11
36.945205
21
27.260657
0
LINE
8
annotation
62
1
39
211
10
36.945205
20
27.260657
11
36.945512
21
27.261037
0
LINE
8
annotation
62
1
39
211
10
36.945512
20
27.261037
11
36.945807
21
27.261421
0
LINE
8
annotation
62
1
39
211
10
36.945807
20
27.261421
11
36.946091
21
27.261811
0
LINE
8
annotation
62
1
39
211
10
36.946091
20
27.261811
11
36.946366
21
27.262211
0
LINE
8
annotation
62
1
39
211
10
36.946366
20
27.262211
11
36.946635
21
27.262623
0
LINE
8
annotation
62
1
39
211
10
36.946635
20
27.262623
11
36.946898
21
27.263052
0
LINE
8
annotation
62
1
39
211
10
36.946898
20
27.263052
11
36.947159
21
27.263500
0
LINE
8
annotation
62
1
39
211
10
36.947159
20
27.263500
11
36.947419
21
27.263971
0
LINE
8
annotation
62
1
39
211
10
36.947419
20
27.263971
11
36.947680
21
27.264468
0
LINE
8
annotation
62
1
39
211
10
36.947680
20
27.264468
11
36.947680
21
27.264468
0
LINE
8
annotation
62
1
39
211
10
36.947680
20
27.264468
11
36.958295
21
27.287260
0
LINE
8
annotation
62
1
39
211
10
36.958295
20
27.287260
11
36.964496
21
27.310885
0
LINE
8
annotation
62
1
39
211
10
36.964496
20
27.310885
11
36.966436
21
27.334811
0
LINE
8
annotation
62
1
39
211
10
36.966436
20
27.334811
11
36.964265
21
27.358503
0
LINE
8
annotation
62
1
39
211
10
36.964265
20
27.358503
11
36.958136
21
27.381428
0
LINE
8
annotation
62
1
39
211
10
36.958136
20
27.381428
11
36.948201
21
27.403051
0
LINE
8
annotation
62
1
39
211
10
36.948201
20
27.403051
11
36.934612
21
27.422838
0
LINE
8
annotation
62
1
39
211
10
36.934612
20
27.422838
11
36.917520
21
27.440257
0
LINE
8
annotation
62
1
39
211
10
36.917520
20
27.440257
11
36.897079
21
27.454772
0
LINE
8
annotation
62
1
39
211
10
36.897079
20
27.454772
11
36.897079
21
27.454772
0
LINE
8
annotation
62
1
39
211
10
36.897079
20
27.454772
11
36.874223
21
27.465237
0
LINE
8
annotation
62
1
39
211
10
36.874223
20
27.465237
11
36.850561
21
27.471343
0
LINE
8
annotation
62
1
39
211
10
36.850561
20
27.471343
11
36.826622
21
27.473227
0
LINE
8
annotation
62
1
39
211
10
36.826622
20
27.473227
11
36.802933
21
27.471027
0
LINE
8
annotation
62
1
39
211
10
36.802933
20
27.471027
11
36.780025
21
27.464882
0
LINE
8
annotation
62
1
39
211
10
36.780025
20
27.464882
11
36.758426
21
27.454927
0
LINE
8
annotation
62
1
39
211
10
36.758426
20
27.454927
11
36.738665
21
27.441300
0
LINE
8
annotation
62
1
39
211
10
36.738665
20
27.441300
11
36.721271
21
27.424139
0
LINE
8
annotation
62
1
39
211
10
36.721271
20
27.424139
11
36.706774
21
27.403582
0
LINE
8
annotation
62
1
39
211
10
36.706774
20
27.403582
11
36.688506
21
27.368538
0
LINE
8
annotation
62
1
39
211
10
35.589477
20
26.692807
11
35.481390
21
26.536469
0
LINE
8
annotation
62
1
39
211
10
35.481390
20
26.536469
11
35.373283
21
26.692807
0
LINE
8
annotation
62
1
39
211
10
35.481390
20
26.549050
11
35.481390
21
26.368689
0
LINE
8
annotation
62
1
39
211
10
35.888264
20
26.530748
11
35.711054
21
26.530748
0
LINE
8
annotation
62
1
39
211
10
36.081832
20
26.368699
11
36.081832
21
26.692797
0
LINE
8
annotation
62
1
39
211
10
36.081832
20
26.692797
11
36.009781
21
26.620725
0
LINE
8
annotation
62
1
39
211
10
36.380599
20
26.530748
11
36.203388
21
26.530748
0
LINE
8
annotation
62
1
39
211
10
36.646069
20
26.368697
11
36.502129
21
26.368697
0
LINE
8
annotation
62
1
39
211
10
36.502129
20
26.368697
11
36.635134
21
26.582817
0
LINE
8
annotation
62
1
39
211
10
36.635134
20
26.582817
11
36.635134
21
26.582817
0
LINE
8
annotation
62
1
39
211
10
36.635134
20
26.582817
11
36.635293
21
26.583014
0
LINE
8
annotation
62
1
39
211
10
36.635293
20
26.583014
11
36.635446
21
26.583212
0
LINE
8
annotation
62
1
39
211
10
36.635446
20
26.583212
11
36.635593
21
26.583414
0
LINE
8
annotation
62
1
39
211
10
36.635593
20
26.583414
11
36.635735
21
26.583621
0
LINE
8
annotation
62
1
39
211
10
36.635735
20
26.583621
11
36.635874
21
26.583834
0
LINE
8
annotation
62
1
39
211
10
36.635874
20
26.583834
11
36.636010
21
26.584056
0
LINE
8
annotation
62
1
39
211
10
36.636010
20
26.584056
11
36.636145
21
26.584288
0
LINE
8
annotation
62
1
39
211
10
36.636145
20
26.584288
11
36.636280
21
26.584532
0
LINE
8
annotation
62
1
39
211
10
36.636280
20
26.584532
11
36.636415
21
26.584789
0
LINE
8
annotation
62
1
39
211
10
36.636415
20
26.584789
11
36.636415
21
26.584789
0
LINE
8
annotation
62
1
39
211
10
36.636415
20
26.584789
11
36.641906
21
26.596580
0
LINE
8
annotation
62
1
39
211
10
36.641906
20
26.596580
11
36.645114
21
26.608803
0
LINE
8
annotation
62
1
39
211
10
36.645114
20
26.608803
11
36.646118
21
26.621180
0
LINE
8
annotation
62
1
39
211
10
36.646118
20
26.621180
11
36.644995
21
26.633437
0
LINE
8
annotation
62
1
39
211
10
36.644995
20
26.633437
11
36.641824
21
26.645297
0
LINE
8
annotation
62
1
39
211
10
36.641824
20
26.645297
11
36.636684
21
26.656484
0
LINE
8
annotation
62
1
39
211
10
36.636684
20
26.656484
11
36.629654
21
26.666721
0
LINE
8
annotation
62
1
39
211
10
36.629654
20
26.666721
11
36.620812
21
26.675732
0
LINE
8
annotation
62
1
39
211
10
36.620812
20
26.675732
11
36.610236
21
26.683241
0
LINE
8
annotation
62
1
39
211
10
36.610236
20
26.683241
11
36.610236
21
26.683241
0
LINE
8
annotation
62
1
39
211
10
36.610236
20
26.683241
11
36.598412
21
26.688655
0
LINE
8
annotation
62
1
39
211
10
36.598412
20
26.688655
11
36.586171
21
26.691814
0
LINE
8
annotation
62
1
39
211
10
36.586171
20
26.691814
11
36.573786
21
26.692789
0
LINE
8
annotation
62
1
39
211
10
36.573786
20
26.692789
11
36.561531
21
26.691651
0
LINE
8
annotation
62
1
39
211
10
36.561531
20
26.691651
11
36.549679
21
26.688471
0
LINE
8
annotation
62
1
39
211
10
36.549679
20
26.688471
11
36.538505
21
26.683321
0
LINE
8
annotation
62
1
39
211
10
36.538505
20
26.683321
11
36.528282
21
26.676272
0
LINE
8
annotation
62
1
39
211
10
36.528282
20
26.676272
11
36.519284
21
26.667394
0
LINE
8
annotation
62
1
39
211
10
36.519284
20
26.667394
11
36.511784
21
26.656758
0
LINE
8
annotation
62
1
39
211
10
36.511784
20
26.656758
11
36.502333
21
26.638629
0
LINE
8
boundary
62
5
39
2
10
35.074716
20
29.903565
11
35.386514
21
29.978691
0
LINE
8
boundary
62
5
39
2
10
35.386514
20
29.978691
11
35.398667
21
30.576131
0
LINE
8
boundary
62
5
39
2
10
35.398667
20
30.576131
11
35.332669
21
31.332513
0
LINE
8
boundary
62
5
39
2
10
35.332669
20
31.332513
11
34.983588
21
31.393738
0
LINE
8
boundary
62
5
39
2
10
34.983588
20
31.393738
11
34.475417
21
31.428631
0
LINE
8
boundary
62
5
39
2
10
34.475417
20
31.428631
11
34.467511
21
31.429267
0
LINE
8
boundary
62
5
39
2
10
34.467511
20
31.429267
11
34.458975
21
31.429381
0
LINE
8
boundary
62
5
39
2
10
34.458975
20
31.429381
11
34.446236
21
31.430405
0
LINE
8
boundary
62
5
39
2
10
34.446236
20
31.430405
11
34.405075
21
31.434291
0
LINE
8
boundary
62
5
39
2
10
34.405075
20
31.434291
11
33.152674
21
31.495531
0
LINE
8
boundary
62
5
39
2
10
33.152674
20
31.495531
11
33.154521
21
31.418304
0
LINE
8
boundary
62
5
39
2
10
33.154521
20
31.418304
11
33.167276
21
30.810880
0
LINE
8
boundary
62
5
39
2
10
33.167276
20
30.810880
11
33.167197
21
30.763198
0
LINE
8
boundary
62
5
39
2
10
33.167197
20
30.763198
11
33.166995
21
30.642380
0
LINE
8
boundary
62
5
39
2
10
33.166995
20
30.642380
11
33.179525
21
30.615880
0
LINE
8
boundary
62
5
39
2
10
33.179525
20
30.615880
11
34.267298
21
30.615880
0
LINE
8
boundary
62
5
39
2
10
34.267298
20
30.615880
11
34.267298
21
30.111280
0
LINE
8
boundary
62
5
39
2
10
34.267298
20
30.111280
11
33.177186
21
30.111280
0
LINE
8
boundary
62
5
39
2
10
33.177186
20
30.111280
11
33.164656
21
30.084780
0
LINE
8
boundary
62
5
39
2
10
33.164656
20
30.084780
11
33.162304
21
29.643090
0
LINE
8
boundary
62
5
39
2
10
33.162304
20
29.643090
11
34.503625
21
29.826832
0
LINE
8
boundary
62
5
39
2
10
34.503625
20
29.826832
11
35.074716
21
29.903565
0
LINE
8
annotation
62
1
39
211
10
35.130598
20
30.675984
11
35.130598
21
30.675984
0
LINE
8
annotation
62
1
39
211
10
35.130598
20
30.675984
11
35.090850
21
30.661081
0
LINE
8
annotation
62
1
39
211
10
35.090850
20
30.661081
11
35.054377
21
30.641001
0
LINE
8
annotation
62
1
39
211
10
35.054377
20
30.641001
11
35.021552
21
30.616248
0
LINE
8
annotation
62
1
39
211
10
35.021552
20
30.616248
11
34.992750
21
30.587323
0
LINE
8
annotation
62
1
39
211
10
34.992750
20
30.587323
11
34.968345
21
30.554731
0
LINE
8
annotation
62
1
39
211
10
34.968345
20
30.554731
11
34.948711
21
30.518974
0
LINE
8
annotation
62
1
39
211
10
34.948711
20
30.518974
11
34.934224
21
30.480556
0
LINE
8
annotation
62
1
39
211
10
34.934224
20
30.480556
11
34.925257
21
30.439979
0
LINE
8
annotation
62
1
39
211
10
34.925257
20
30.439979
11
34.922184
21
30.397747
0
LINE
8
annotation
62
1
39
211
10
34.922184
20
30.397747
11
34.922184
21
30.190078
0
LINE
8
annotation
62
1
39
211
10
34.922184
20
30.190078
11
34.922184
21
30.190078
0
LINE
8
annotation
62
1
39
211
10
34.922184
20
30.190078
11
34.924424
21
30.165119
0
LINE
8
annotation
62
1
39
211
10
34.924424
20
30.165119
11
34.930881
21
30.141624
0
LINE
8
annotation
62
1
39
211
10
34.930881
20
30.141624
11
34.941159
21
30.119986
0
LINE
8
annotation
62
1
39
211
10
34.941159
20
30.119986
11
34.954863
21
30.100598
0
LINE
8
annotation
62
1
39
211
10
34.954863
20
30.100598
11
34.971597
21
30.083854
0
LINE
8
annotation
62
1
39
211
10
34.971597
20
30.083854
11
34.990966
21
30.070147
0
LINE
8
annotation
62
1
39
211
10
34.990966
20
30.070147
11
35.012575
21
30.059869
0
LINE
8
annotation
62
1
39
211
10
35.012575
20
30.059869
11
35.036028
21
30.053414
0
LINE
8
annotation
62
1
39
211
10
35.036028
20
30.053414
11
35.060931
21
30.051175
0
LINE
8
annotation
62
1
39
211
10
35.060931
20
30.051175
11
35.060931
21
30.051175
0
LINE
8
annotation
62
1
39
211
10
35.060931
20
30.051175
11
35.085884
21
30.053414
0
LINE
8
annotation
62
1
39
211
10
35.085884
20
30.053414
11
35.109365
21
30.059869
0
LINE
8
annotation
62
1
39
211
10
35.109365
20
30.059869
11
35.130982
21
30.070147
0
LINE
8
annotation
62
1
39
211
10
35.130982
20
30.070147
11
35.150345
21
30.083854
0
LINE
8
annotation
62
1
39
211
10
35.150345
20
30.083854
11
35.167063
21
30.100598
0
LINE
8
annotation
62
1
39
211
10
35.167063
20
30.100598
11
35.180746
21
30.119986
0
LINE
8
annotation
62
1
39
211
10
35.180746
20
30.119986
11
35.191003
21
30.141624
0
LINE
8
annotation
62
1
39
211
10
35.191003
20
30.141624
11
35.197443
21
30.165119
0
LINE
8
annotation
62
1
39
211
10
35.197443
20
30.165119
11
35.199677
21
30.190078
0
LINE
8
annotation
62
1
39
211
10
35.199677
20
30.190078
11
35.199677
21
30.259197
0
LINE
8
annotation
62
1
39
211
10
35.199677
20
30.259197
11
35.199677
21
30.259197
0
LINE
8
annotation
62
1
39
211
10
35.199677
20
30.259197
11
35.197443
21
30.284144
0
LINE
8
annotation
62
1
39
211
10
35.197443
20
30.284144
11
35.191003
21
30.307606
0
LINE
8
annotation
62
1
39
211
10
35.191003
20
30.307606
11
35.180746
21
30.329197
0
LINE
8
annotation
62
1
39
211
10
35.180746
20
30.329197
11
35.167063
21
30.348529
0
LINE
8
annotation
62
1
39
211
10
35.167063
20
30.348529
11
35.150345
21
30.365215
0
LINE
8
annotation
62
1
39
211
10
35.150345
20
30.365215
11
35.130982
21
30.378867
0
LINE
8
annotation
62
1
39
211
10
35.130982
20
30.378867
11
35.109365
21
30.389098
0
LINE
8
annotation
62
1
39
211
10
35.109365
20
30.389098
11
35.085884
21
30.395520
0
LINE
8
annotation
62
1
39
211
10
35.085884
20
30.395520
11
35.060931
21
30.397747
0
LINE
8
annotation
62
1
39
211
10
35.060931
20
30.397747
11
34.922184
21
30.397747
0
LINE
8
annotation
62
1
39
211
10
34.904807
20
29.973074
11
35.217211
21
29.973074
0
LINE
8
annotation
62
1
39
211
10
33.821173
20
31.152214
11
33.713300
21
30.996186
0
LINE
8
annotation
62
1
39
211
10
33.713300
20
30.996186
11
33.605408
21
31.152214
0
LINE
8
annotation
62
1
39
211
10
33.713300
20
31.008742
11
33.713300
21
30.828738
0
LINE
8
annotation
62
1
39
211
10
34.119369
20
30.990476
11
33.942509
21
30.990476
0
LINE
8
annotation
62
1
39
211
10
34.312553
20
30.828748
11
34.312553
21
31.152204
0
LINE
8
annotation
62
1
39
211
10
34.312553
20
31.152204
11
34.240645
21
31.080275
0
LINE
8
annotation
62
1
39
211
10
34.610729
20
30.990476
11
34.433869
21
30.990476
0
LINE
8
annotation
62
1
39
211
10
34.839887
20
31.152204
11
34.839887
21
31.152204
0
LINE
8
annotation
62
1
39
211
10
34.839887
20
31.152204
11
34.819310
21
31.144489
0
LINE
8
annotation
62
1
39
211
10
34.819310
20
31.144489
11
34.800428
21
31.134094
0
LINE
8
annotation
62
1
39
211
10
34.800428
20
31.134094
11
34.783435
21
31.121279
0
LINE
8
annotation
62
1
39
211
10
34.783435
20
31.121279
11
34.768525
21
31.106305
0
LINE
8
annotation
62
1
39
211
10
34.768525
20
31.106305
11
34.755891
21
31.089433
0
LINE
8
annotation
62
1
39
211
10
34.755891
20
31.089433
11
34.745727
21
31.070922
0
LINE
8
annotation
62
1
39
211
10
34.745727
20
31.070922
11
34.738227
21
31.051033
0
LINE
8
annotation
62
1
39
211
10
34.738227
20
31.051033
11
34.733584
21
31.030027
0
LINE
8
annotation
62
1
39
211
10
34.733584
20
31.030027
11
34.731994
21
31.008164
0
LINE
8
annotation
62
1
39
211
10
34.731994
20
31.008164
11
34.731994
21
30.900657
0
LINE
8
annotation
62
1
39
211
10
34.731994
20
30.900657
11
34.731994
21
30.900657
0
LINE
8
annotation
62
1
39
211
10
34.731994
20
30.900657
11
34.733154
21
30.887736
0
LINE
8
annotation
62
1
39
211
10
34.733154
20
30.887736
11
34.736496
21
30.875572
0
LINE
8
annotation
62
1
39
211
10
34.736496
20
30.875572
11
34.741817
21
30.864371
0
LINE
8
annotation
62
1
39
211
10
34.741817
20
30.864371
11
34.748911
21
30.854334
0
LINE
8
annotation
62
1
39
211
10
34.748911
20
30.854334
11
34.757574
21
30.845666
0
LINE
8
annotation
62
1
39
211
10
34.757574
20
30.845666
11
34.767601
21
30.838570
0
LINE
8
annotation
62
1
39
211
10
34.767601
20
30.838570
11
34.778788
21
30.833249
0
LINE
8
annotation
62
1
39
211
10
34.778788
20
30.833249
11
34.790930
21
30.829907
0
LINE
8
annotation
62
1
39
211
10
34.790930
20
30.829907
11
34.803821
21
30.828748
0
LINE
8
annotation
62
1
39
211
10
34.803821
20
30.828748
11
34.803821
21
30.828748
0
LINE
8
annotation
62
1
39
211
10
34.803821
20
30.828748
11
34.816739
21
30.829907
0
LINE
8
annotation
62
1
39
211
10
34.816739
20
30.829907
11
34.828895
21
30.833249
0
LINE
8
annotation
62
1
39
211
10
34.828895
20
30.833249
11
34.840086
21
30.838570
0
LINE
8
annotation
62
1
39
211
10
34.840086
20
30.838570
11
34.850110
21
30.845666
0
LINE
8
annotation
62
1
39
211
10
34.850110
20
30.845666
11
34.858764
21
30.854334
0
LINE
8
annotation
62
1
39
211
10
34.858764
20
30.854334
11
34.865848
21
30.864371
0
LINE
8
annotation
62
1
39
211
10
34.865848
20
30.864371
11
34.871158
21
30.875572
0
LINE
8
annotation
62
1
39
211
10
34.871158
20
30.875572
11
34.874492
21
30.887736
0
LINE
8
annotation
62
1
39
211
10
34.874492
20
30.887736
11
34.875648
21
30.900657
0
LINE
8
annotation
62
1
39
211
10
34.875648
20
30.900657
11
34.875648
21
30.936438
0
LINE
8
annotation
62
1
39
211
10
34.875648
20
30.936438
11
34.875648
21
30.936438
0
LINE
8
annotation
62
1
39
211
10
34.875648
20
30.936438
11
34.874492
21
30.949353
0
LINE
8
annotation
62
1
39
211
10
34.874492
20
30.949353
11
34.871158
21
30.961499
0
LINE
8
annotation
62
1
39
211
10
34.871158
20
30.961499
11
34.865848
21
30.972677
0
LINE
8
annotation
62
1
39
211
10
34.865848
20
30.972677
11
34.858764
21
30.982685
0
LINE
8
annotation
62
1
39
211
10
34.858764
20
30.982685
11
34.850110
21
30.991323
0
LINE
8
annotation
62
1
39
211
10
34.850110
20
30.991323
11
34.840086
21
30.998390
0
LINE
8
annotation
62
1
39
211
10
34.840086
20
30.998390
11
34.828895
21
31.003686
0
LINE
8
annotation
62
1
39
211
10
34.828895
20
31.003686
11
34.816739
21
31.007011
0
LINE
8
annotation
62
1
39
211
10
34.816739
20
31.007011
11
34.803821
21
31.008164
0
LINE
8
annotation
62
1
39
211
10
34.803821
20
31.008164
11
34.731994
21
31.008164
0
LINE
8
annotation
62
1
39
211
10
34.722998
20
30.788316
11
34.884725
21
30.788316
0
LINE
8
frame
62
5
39
2
10
0.000000
20
0.000000
11
40.000000
21
0.000000
0
LINE
8
frame
62
5
39
2
10
40.000000
20
0.000000
11
40.000000
21
40.000000
0
LINE
8
frame
62
5
39
2
10
40.000000
20
40.000000
11
0.000000
21
40.000000
0
LINE
8
frame
62
5
39
2
10
0.000000
20
40.000000
11
0.000000
21
0.000000
0
ENDSEC
0
EOF
