0
SECTION
2
HEADER
9
$ACADVER
1
AC1009
0
ENDSEC
0
SECTION
2
TABLES
0
TABLE
2
VPORT
70
1
0
VPORT
2
ACTIVE
70
0
10
0.0
20
0.0
11
0.0
21
0.0
12
0.0
22
0.0
13
0.0
23
0.0
14
0.0
24
0.0
15
0.0
25
0.0
16
0.0
26
0.0
36
0.0
17
0.0
27
0.0
37
0.0
40
0.0
41
0.0
42
0.0
43
0.0
44
0.0
50
0.0
51
0.0
71
0
72
1000
73
1
74
3
75
0
76
0
77
0
78
0
0
ENDTAB
0
ENDSEC
0
SECTION
2
ENTITIES
0
LINE
8
hole
62
5
39
2
10
21.811799
20
34.637563
11
21.788433
21
34.630124
0
LINE
8
hole
62
5
39
2
10
21.788433
20
34.630124
11
21.797593
21
34.643585
0
LINE
8
hole
62
5
39
2
10
21.797593
20
34.643585
11
21.811799
21
34.637563
0
LINE
8
hole
62
5
39
2
10
13.804243
20
7.317848
11
13.861931
21
7.310249
0
LINE
8
hole
62
5
39
2
10
13.861931
20
7.310249
11
13.879271
21
7.296773
0
LINE
8
hole
62
5
39
2
10
13.879271
20
7.296773
11
13.814247
21
7.310466
0
LINE
8
hole
62
5
39
2
10
13.814247
20
7.310466
11
13.807981
21
7.312176
0
LINE
8
hole
62
5
39
2
10
13.807981
20
7.312176
11
13.795190
21
7.313697
0
LINE
8
hole
62
5
39
2
10
13.795190
20
7.313697
11
13.797821
21
7.319642
0
LINE
8
hole
62
5
39
2
10
13.797821
20
7.319642
11
13.804243
21
7.317848
0
LINE
8
hole
62
5
39
2
10
26.145870
20
34.877993
11
26.164444
21
34.882235
0
LINE
8
hole
62
5
39
2
10
26.164444
20
34.882235
11
26.270991
21
34.907685
0
LINE
8
hole
62
5
39
2
10
26.270991
20
34.907685
11
26.238065
21
34.842663
0
LINE
8
hole
62
5
39
2
10
26.238065
20
34.842663
11
26.106281
21
34.707967
0
LINE
8
hole
62
5
39
2
10
26.106281
20
34.707967
11
26.101908
21
34.698447
0
LINE
8
hole
62
5
39
2
10
26.101908
20
34.698447
11
26.098850
21
34.691150
0
LINE
8
hole
62
5
39
2
10
26.098850
20
34.691150
11
26.098030
21
34.689858
0
LINE
8
hole
62
5
39
2
10
26.098030
20
34.689858
11
26.123515
21
34.520894
0
LINE
8
hole
62
5
39
2
10
26.123515
20
34.520894
11
26.033867
21
34.450524
0
LINE
8
hole
62
5
39
2
10
26.033867
20
34.450524
11
26.018152
21
34.438559
0
LINE
8
hole
62
5
39
2
10
26.018152
20
34.438559
11
25.949865
21
34.387134
0
LINE
8
hole
62
5
39
2
10
25.949865
20
34.387134
11
25.940828
21
34.380498
0
LINE
8
hole
62
5
39
2
10
25.940828
20
34.380498
11
25.923517
21
34.325359
0
LINE
8
hole
62
5
39
2
10
25.923517
20
34.325359
11
25.913761
21
34.299068
0
LINE
8
hole
62
5
39
2
10
25.913761
20
34.299068
11
25.908058
21
34.283139
0
LINE
8
hole
62
5
39
2
10
25.908058
20
34.283139
11
25.863302
21
34.314128
0
LINE
8
hole
62
5
39
2
10
25.863302
20
34.314128
11
25.873180
21
34.323300
0
LINE
8
hole
62
5
39
2
10
25.873180
20
34.323300
11
25.869159
21
34.356558
0
LINE
8
hole
62
5
39
2
10
25.869159
20
34.356558
11
25.861839
21
34.405496
0
LINE
8
hole
62
5
39
2
10
25.861839
20
34.405496
11
25.892424
21
34.667181
0
LINE
8
hole
62
5
39
2
10
25.892424
20
34.667181
11
25.901386
21
34.741495
0
LINE
8
hole
62
5
39
2
10
25.901386
20
34.741495
11
25.907409
21
34.805509
0
LINE
8
hole
62
5
39
2
10
25.907409
20
34.805509
11
25.909232
21
34.806989
0
LINE
8
hole
62
5
39
2
10
25.909232
20
34.806989
11
25.943823
21
34.830043
0
LINE
8
hole
62
5
39
2
10
25.943823
20
34.830043
11
25.944643
21
34.830612
0
LINE
8
hole
62
5
39
2
10
25.944643
20
34.830612
11
26.080922
21
34.862768
0
LINE
8
hole
62
5
39
2
10
26.080922
20
34.862768
11
26.136678
21
34.876016
0
LINE
8
hole
62
5
39
2
10
26.136678
20
34.876016
11
26.145870
21
34.877993
0
LINE
8
hole
62
5
39
2
10
27.000593
20
34.677586
11
27.030307
21
34.633736
0
LINE
8
hole
62
5
39
2
10
27.030307
20
34.633736
11
27.135299
21
34.478782
0
LINE
8
hole
62
5
39
2
10
27.135299
20
34.478782
11
27.193827
21
34.392827
0
LINE
8
hole
62
5
39
2
10
27.193827
20
34.392827
11
27.188989
21
34.382923
0
LINE
8
hole
62
5
39
2
10
27.188989
20
34.382923
11
27.080066
21
34.225259
0
LINE
8
hole
62
5
39
2
10
27.080066
20
34.225259
11
26.974415
21
34.374877
0
LINE
8
hole
62
5
39
2
10
26.974415
20
34.374877
11
26.954220
21
34.410191
0
LINE
8
hole
62
5
39
2
10
26.954220
20
34.410191
11
26.823982
21
34.380531
0
LINE
8
hole
62
5
39
2
10
26.823982
20
34.380531
11
26.816241
21
34.374208
0
LINE
8
hole
62
5
39
2
10
26.816241
20
34.374208
11
26.799404
21
34.359629
0
LINE
8
hole
62
5
39
2
10
26.799404
20
34.359629
11
26.737745
21
34.446679
0
LINE
8
hole
62
5
39
2
10
26.737745
20
34.446679
11
26.701786
21
34.497826
0
LINE
8
hole
62
5
39
2
10
26.701786
20
34.497826
11
26.628188
21
34.524849
0
LINE
8
hole
62
5
39
2
10
26.628188
20
34.524849
11
26.603062
21
34.530775
0
LINE
8
hole
62
5
39
2
10
26.603062
20
34.530775
11
26.596396
21
34.534790
0
LINE
8
hole
62
5
39
2
10
26.596396
20
34.534790
11
26.627996
21
34.565249
0
LINE
8
hole
62
5
39
2
10
26.627996
20
34.565249
11
26.667067
21
34.604304
0
LINE
8
hole
62
5
39
2
10
26.667067
20
34.604304
11
26.685666
21
34.608471
0
LINE
8
hole
62
5
39
2
10
26.685666
20
34.608471
11
26.716153
21
34.616287
0
LINE
8
hole
62
5
39
2
10
26.716153
20
34.616287
11
26.728882
21
34.627950
0
LINE
8
hole
62
5
39
2
10
26.728882
20
34.627950
11
26.839593
21
34.723465
0
LINE
8
hole
62
5
39
2
10
26.839593
20
34.723465
11
26.856372
21
34.738015
0
LINE
8
hole
62
5
39
2
10
26.856372
20
34.738015
11
26.858086
21
34.741036
0
LINE
8
hole
62
5
39
2
10
26.858086
20
34.741036
11
26.884328
21
34.789947
0
LINE
8
hole
62
5
39
2
10
26.884328
20
34.789947
11
26.898886
21
34.795164
0
LINE
8
hole
62
5
39
2
10
26.898886
20
34.795164
11
26.913139
21
34.788798
0
LINE
8
hole
62
5
39
2
10
26.913139
20
34.788798
11
26.926273
21
34.773878
0
LINE
8
hole
62
5
39
2
10
26.926273
20
34.773878
11
26.935642
21
34.762875
0
LINE
8
hole
62
5
39
2
10
26.935642
20
34.762875
11
26.946336
21
34.750774
0
LINE
8
hole
62
5
39
2
10
26.946336
20
34.750774
11
26.969338
21
34.723848
0
LINE
8
hole
62
5
39
2
10
26.969338
20
34.723848
11
27.000593
21
34.677586
0
LINE
8
hole
62
5
39
2
10
25.968789
20
35.608664
11
26.113535
21
35.626410
0
LINE
8
hole
62
5
39
2
10
26.113535
20
35.626410
11
26.143570
21
35.610877
0
LINE
8
hole
62
5
39
2
10
26.143570
20
35.610877
11
26.157344
21
35.604115
0
LINE
8
hole
62
5
39
2
10
26.157344
20
35.604115
11
26.157892
21
35.581097
0
LINE
8
hole
62
5
39
2
10
26.157892
20
35.581097
11
26.158727
21
35.568876
0
LINE
8
hole
62
5
39
2
10
26.158727
20
35.568876
11
26.131946
21
35.567933
0
LINE
8
hole
62
5
39
2
10
26.131946
20
35.567933
11
26.131293
21
35.567915
0
LINE
8
hole
62
5
39
2
10
26.131293
20
35.567915
11
26.095413
21
35.567715
0
LINE
8
hole
62
5
39
2
10
26.095413
20
35.567715
11
25.974268
21
35.564636
0
LINE
8
hole
62
5
39
2
10
25.974268
20
35.564636
11
25.897718
21
35.566080
0
LINE
8
hole
62
5
39
2
10
25.897718
20
35.566080
11
25.853060
21
35.546589
0
LINE
8
hole
62
5
39
2
10
25.853060
20
35.546589
11
25.848429
21
35.544449
0
LINE
8
hole
62
5
39
2
10
25.848429
20
35.544449
11
25.823974
21
35.534022
0
LINE
8
hole
62
5
39
2
10
25.823974
20
35.534022
11
25.812659
21
35.522683
0
LINE
8
hole
62
5
39
2
10
25.812659
20
35.522683
11
25.732350
21
35.470495
0
LINE
8
hole
62
5
39
2
10
25.732350
20
35.470495
11
25.505682
21
35.325674
0
LINE
8
hole
62
5
39
2
10
25.505682
20
35.325674
11
25.494794
21
35.318805
0
LINE
8
hole
62
5
39
2
10
25.494794
20
35.318805
11
25.389819
21
35.248872
0
LINE
8
hole
62
5
39
2
10
25.389819
20
35.248872
11
25.361448
21
35.230055
0
LINE
8
hole
62
5
39
2
10
25.361448
20
35.230055
11
25.243545
21
35.106499
0
LINE
8
hole
62
5
39
2
10
25.243545
20
35.106499
11
25.126777
21
34.978983
0
LINE
8
hole
62
5
39
2
10
25.126777
20
34.978983
11
25.111289
21
34.962076
0
LINE
8
hole
62
5
39
2
10
25.111289
20
34.962076
11
25.036606
21
34.817923
0
LINE
8
hole
62
5
39
2
10
25.036606
20
34.817923
11
25.019488
21
34.784195
0
LINE
8
hole
62
5
39
2
10
25.019488
20
34.784195
11
24.982069
21
34.752042
0
LINE
8
hole
62
5
39
2
10
24.982069
20
34.752042
11
24.815147
21
34.600840
0
LINE
8
hole
62
5
39
2
10
24.815147
20
34.600840
11
24.584574
21
34.395693
0
LINE
8
hole
62
5
39
2
10
24.584574
20
34.395693
11
23.484861
21
33.937386
0
LINE
8
hole
62
5
39
2
10
23.484861
20
33.937386
11
23.007402
21
33.458188
0
LINE
8
hole
62
5
39
2
10
23.007402
20
33.458188
11
22.556549
21
33.316251
0
LINE
8
hole
62
5
39
2
10
22.556549
20
33.316251
11
21.793246
21
32.964453
0
LINE
8
hole
62
5
39
2
10
21.793246
20
32.964453
11
21.657433
21
33.974934
0
LINE
8
hole
62
5
39
2
10
21.657433
20
33.974934
11
21.646480
21
34.048425
0
LINE
8
hole
62
5
39
2
10
21.646480
20
34.048425
11
21.623516
21
34.202621
0
LINE
8
hole
62
5
39
2
10
21.623516
20
34.202621
11
21.767759
21
34.582905
0
LINE
8
hole
62
5
39
2
10
21.767759
20
34.582905
11
21.770613
21
34.589050
0
LINE
8
hole
62
5
39
2
10
21.770613
20
34.589050
11
21.781306
21
34.595713
0
LINE
8
hole
62
5
39
2
10
21.781306
20
34.595713
11
21.810357
21
34.615757
0
LINE
8
hole
62
5
39
2
10
21.810357
20
34.615757
11
21.993407
21
34.341351
0
LINE
8
hole
62
5
39
2
10
21.993407
20
34.341351
11
22.050059
21
34.380642
0
LINE
8
hole
62
5
39
2
10
22.050059
20
34.380642
11
22.078246
21
34.379459
0
LINE
8
hole
62
5
39
2
10
22.078246
20
34.379459
11
22.834540
21
34.331423
0
LINE
8
hole
62
5
39
2
10
22.834540
20
34.331423
11
22.856926
21
34.329237
0
LINE
8
hole
62
5
39
2
10
22.856926
20
34.329237
11
22.941380
21
34.261375
0
LINE
8
hole
62
5
39
2
10
22.941380
20
34.261375
11
23.072741
21
34.159328
0
LINE
8
hole
62
5
39
2
10
23.072741
20
34.159328
11
23.077200
21
34.155750
0
LINE
8
hole
62
5
39
2
10
23.077200
20
34.155750
11
23.238601
21
34.025539
0
LINE
8
hole
62
5
39
2
10
23.238601
20
34.025539
11
23.264137
21
34.036864
0
LINE
8
hole
62
5
39
2
10
23.264137
20
34.036864
11
23.314492
21
34.048854
0
LINE
8
hole
62
5
39
2
10
23.314492
20
34.048854
11
23.354020
21
34.075156
0
LINE
8
hole
62
5
39
2
10
23.354020
20
34.075156
11
23.497279
21
34.209161
0
LINE
8
hole
62
5
39
2
10
23.497279
20
34.209161
11
24.554954
21
34.732749
0
LINE
8
hole
62
5
39
2
10
24.554954
20
34.732749
11
24.803183
21
34.970436
0
LINE
8
hole
62
5
39
2
10
24.803183
20
34.970436
11
25.243181
21
35.356838
0
LINE
8
hole
62
5
39
2
10
25.243181
20
35.356838
11
25.590798
21
35.586008
0
LINE
8
hole
62
5
39
2
10
25.590798
20
35.586008
11
25.887567
21
35.603684
0
LINE
8
hole
62
5
39
2
10
25.887567
20
35.603684
11
25.889094
21
35.604393
0
LINE
8
hole
62
5
39
2
10
25.889094
20
35.604393
11
25.968789
21
35.608664
0
LINE
8
boundary
62
5
39
2
10
8.121961
20
1.814247
11
14.091314
21
5.127448
0
LINE
8
boundary
62
5
39
2
10
14.091314
20
5.127448
11
14.364463
21
5.219321
0
LINE
8
boundary
62
5
39
2
10
14.364463
20
5.219321
11
14.953738
21
5.473754
0
LINE
8
boundary
62
5
39
2
10
14.953738
20
5.473754
11
15.166398
21
5.739606
0
LINE
8
boundary
62
5
39
2
10
15.166398
20
5.739606
11
14.514623
21
5.778820
0
LINE
8
boundary
62
5
39
2
10
14.514623
20
5.778820
11
14.514933
21
5.776914
0
LINE
8
boundary
62
5
39
2
10
14.514933
20
5.776914
11
14.516259
21
5.769048
0
LINE
8
boundary
62
5
39
2
10
14.516259
20
5.769048
11
14.300153
21
6.802744
0
LINE
8
boundary
62
5
39
2
10
14.300153
20
6.802744
11
14.246566
21
7.045706
0
LINE
8
boundary
62
5
39
2
10
14.246566
20
7.045706
11
14.219717
21
7.170366
0
LINE
8
boundary
62
5
39
2
10
14.219717
20
7.170366
11
14.215990
21
7.187618
0
LINE
8
boundary
62
5
39
2
10
14.215990
20
7.187618
11
14.198542
21
7.273613
0
LINE
8
boundary
62
5
39
2
10
14.198542
20
7.273613
11
14.113476
21
7.221421
0
LINE
8
boundary
62
5
39
2
10
14.113476
20
7.221421
11
14.090577
21
7.208244
0
LINE
8
boundary
62
5
39
2
10
14.090577
20
7.208244
11
14.074100
21
7.213007
0
LINE
8
boundary
62
5
39
2
10
14.074100
20
7.213007
11
14.073623
21
7.215482
0
LINE
8
boundary
62
5
39
2
10
14.073623
20
7.215482
11
14.007300
21
7.245742
0
LINE
8
boundary
62
5
39
2
10
14.007300
20
7.245742
11
14.044309
21
7.215487
0
LINE
8
boundary
62
5
39
2
10
14.044309
20
7.215487
11
14.047731
21
7.212348
0
LINE
8
boundary
62
5
39
2
10
14.047731
20
7.212348
11
14.056499
21
7.204303
0
LINE
8
boundary
62
5
39
2
10
14.056499
20
7.204303
11
13.922314
21
7.150336
0
LINE
8
boundary
62
5
39
2
10
13.922314
20
7.150336
11
13.920599
21
7.149512
0
LINE
8
boundary
62
5
39
2
10
13.920599
20
7.149512
11
13.921371
21
7.150794
0
LINE
8
boundary
62
5
39
2
10
13.921371
20
7.150794
11
13.925944
21
7.170955
0
LINE
8
boundary
62
5
39
2
10
13.925944
20
7.170955
11
13.981901
21
7.248101
0
LINE
8
boundary
62
5
39
2
10
13.981901
20
7.248101
11
13.981967
21
7.248055
0
LINE
8
boundary
62
5
39
2
10
13.981967
20
7.248055
11
14.581271
21
8.154032
0
LINE
8
boundary
62
5
39
2
10
14.581271
20
8.154032
11
14.871786
21
8.958723
0
LINE
8
boundary
62
5
39
2
10
14.871786
20
8.958723
11
15.274899
21
9.774625
0
LINE
8
boundary
62
5
39
2
10
15.274899
20
9.774625
11
15.723617
21
10.417995
0
LINE
8
boundary
62
5
39
2
10
15.723617
20
10.417995
11
17.155789
21
11.439218
0
LINE
8
boundary
62
5
39
2
10
17.155789
20
11.439218
11
17.405954
21
11.658655
0
LINE
8
boundary
62
5
39
2
10
17.405954
20
11.658655
11
17.393424
21
11.685155
0
LINE
8
boundary
62
5
39
2
10
17.393424
20
11.685155
11
16.614006
21
11.685155
0
LINE
8
boundary
62
5
39
2
10
16.614006
20
11.685155
11
15.209949
21
10.686627
0
LINE
8
boundary
62
5
39
2
10
15.209949
20
10.686627
11
14.861073
21
10.183347
0
LINE
8
boundary
62
5
39
2
10
14.861073
20
10.183347
11
14.565323
21
9.575498
0
LINE
8
boundary
62
5
39
2
10
14.565323
20
9.575498
11
14.379828
21
8.985719
0
LINE
8
boundary
62
5
39
2
10
14.379828
20
8.985719
11
13.592182
21
7.551515
0
LINE
8
boundary
62
5
39
2
10
13.592182
20
7.551515
11
13.636955
21
7.499680
0
LINE
8
boundary
62
5
39
2
10
13.636955
20
7.499680
11
13.677465
21
7.449549
0
LINE
8
boundary
62
5
39
2
10
13.677465
20
7.449549
11
13.710991
21
7.408063
0
LINE
8
boundary
62
5
39
2
10
13.710991
20
7.408063
11
13.917265
21
7.153302
0
LINE
8
boundary
62
5
39
2
10
13.917265
20
7.153302
11
13.921259
21
7.148366
0
LINE
8
boundary
62
5
39
2
10
13.921259
20
7.148366
11
13.935391
21
7.124702
0
LINE
8
boundary
62
5
39
2
10
13.935391
20
7.124702
11
14.351970
21
5.670522
0
LINE
8
boundary
62
5
39
2
10
14.351970
20
5.670522
11
11.744109
21
4.215942
0
LINE
8
boundary
62
5
39
2
10
11.744109
20
4.215942
11
7.326064
21
1.814248
0
LINE
8
boundary
62
5
39
2
10
7.326064
20
1.814248
11
8.121961
21
1.814247
0
LINE
8
boundary
62
5
39
2
10
18.011422
20
12.189755
11
18.041633
21
12.216255
0
LINE
8
boundary
62
5
39
2
10
18.041633
20
12.216255
11
18.363049
21
12.498194
0
LINE
8
boundary
62
5
39
2
10
18.363049
20
12.498194
11
19.448607
21
13.576485
0
LINE
8
boundary
62
5
39
2
10
19.448607
20
13.576485
11
20.926926
21
15.052467
0
LINE
8
boundary
62
5
39
2
10
20.926926
20
15.052467
11
21.780501
21
15.918601
0
LINE
8
boundary
62
5
39
2
10
21.780501
20
15.918601
11
22.930913
21
17.447237
0
LINE
8
boundary
62
5
39
2
10
22.930913
20
17.447237
11
23.514029
21
18.281725
0
LINE
8
boundary
62
5
39
2
10
23.514029
20
18.281725
11
24.487816
21
19.660082
0
LINE
8
boundary
62
5
39
2
10
24.487816
20
19.660082
11
24.908580
21
20.259046
0
LINE
8
boundary
62
5
39
2
10
24.908580
20
20.259046
11
25.148310
21
20.823780
0
LINE
8
boundary
62
5
39
2
10
25.148310
20
20.823780
11
25.498782
21
21.608783
0
LINE
8
boundary
62
5
39
2
10
25.498782
20
21.608783
11
25.688285
21
22.034163
0
LINE
8
boundary
62
5
39
2
10
25.688285
20
22.034163
11
25.675755
21
22.060663
0
LINE
8
boundary
62
5
39
2
10
25.675755
20
22.060663
11
25.163927
21
22.060663
0
LINE
8
boundary
62
5
39
2
10
25.163927
20
22.060663
11
24.958198
21
21.598583
0
LINE
8
boundary
62
5
39
2
10
24.958198
20
21.598583
11
24.467282
21
20.506833
0
LINE
8
boundary
62
5
39
2
10
24.467282
20
20.506833
11
24.431406
21
20.456472
0
LINE
8
boundary
62
5
39
2
10
24.431406
20
20.456472
11
22.313989
21
17.481210
0
LINE
8
boundary
62
5
39
2
10
22.313989
20
17.481210
11
21.380033
21
16.243043
0
LINE
8
boundary
62
5
39
2
10
21.380033
20
16.243043
11
20.682715
21
15.536545
0
LINE
8
boundary
62
5
39
2
10
20.682715
20
15.536545
11
19.053240
21
13.923420
0
LINE
8
boundary
62
5
39
2
10
19.053240
20
13.923420
11
17.918979
21
12.804803
0
LINE
8
boundary
62
5
39
2
10
17.918979
20
12.804803
11
17.224199
21
12.189755
0
LINE
8
boundary
62
5
39
2
10
17.224199
20
12.189755
11
18.011422
21
12.189755
0
LINE
8
boundary
62
5
39
2
10
29.895958
20
35.636852
11
28.768446
21
35.562975
0
LINE
8
boundary
62
5
39
2
10
28.768446
20
35.562975
11
28.478509
21
35.610650
0
LINE
8
boundary
62
5
39
2
10
28.478509
20
35.610650
11
27.460900
21
35.618332
0
LINE
8
boundary
62
5
39
2
10
27.460900
20
35.618332
11
27.613564
21
35.920924
0
LINE
8
boundary
62
5
39
2
10
27.613564
20
35.920924
11
27.169228
21
36.082998
0
LINE
8
boundary
62
5
39
2
10
27.169228
20
36.082998
11
26.419213
21
36.302371
0
LINE
8
boundary
62
5
39
2
10
26.419213
20
36.302371
11
26.034507
21
36.460480
0
LINE
8
boundary
62
5
39
2
10
26.034507
20
36.460480
11
25.761449
21
36.449969
0
LINE
8
boundary
62
5
39
2
10
25.761449
20
36.449969
11
24.629423
21
35.770154
0
LINE
8
boundary
62
5
39
2
10
24.629423
20
35.770154
11
24.472689
21
35.633050
0
LINE
8
boundary
62
5
39
2
10
24.472689
20
35.633050
11
24.372193
21
35.542126
0
LINE
8
boundary
62
5
39
2
10
24.372193
20
35.542126
11
23.939316
21
35.263877
0
LINE
8
boundary
62
5
39
2
10
23.939316
20
35.263877
11
23.291963
21
34.553720
0
LINE
8
boundary
62
5
39
2
10
23.291963
20
34.553720
11
23.125953
21
34.442579
0
LINE
8
boundary
62
5
39
2
10
23.125953
20
34.442579
11
22.910136
21
34.343567
0
LINE
8
boundary
62
5
39
2
10
22.910136
20
34.343567
11
22.275218
21
35.107693
0
LINE
8
boundary
62
5
39
2
10
22.275218
20
35.107693
11
22.270166
21
35.113563
0
LINE
8
boundary
62
5
39
2
10
22.270166
20
35.113563
11
21.259387
21
35.066577
0
LINE
8
boundary
62
5
39
2
10
21.259387
20
35.066577
11
20.915218
21
34.834706
0
LINE
8
boundary
62
5
39
2
10
20.915218
20
34.834706
11
20.504631
21
34.309243
0
LINE
8
boundary
62
5
39
2
10
20.504631
20
34.309243
11
20.462512
21
34.200549
0
LINE
8
boundary
62
5
39
2
10
20.462512
20
34.200549
11
20.743426
21
33.173835
0
LINE
8
boundary
62
5
39
2
10
20.743426
20
33.173835
11
21.013801
21
32.131751
0
LINE
8
boundary
62
5
39
2
10
21.013801
20
32.131751
11
21.107763
21
31.836925
0
LINE
8
boundary
62
5
39
2
10
21.107763
20
31.836925
11
20.169284
21
30.443236
0
LINE
8
boundary
62
5
39
2
10
20.169284
20
30.443236
11
20.162703
21
30.220975
0
LINE
8
boundary
62
5
39
2
10
20.162703
20
30.220975
11
20.052811
21
30.211191
0
LINE
8
boundary
62
5
39
2
10
20.052811
20
30.211191
11
19.569069
21
29.118994
0
LINE
8
boundary
62
5
39
2
10
19.569069
20
29.118994
11
18.583384
21
28.113375
0
LINE
8
boundary
62
5
39
2
10
18.583384
20
28.113375
11
18.228236
21
27.936206
0
LINE
8
boundary
62
5
39
2
10
18.228236
20
27.936206
11
17.320754
21
27.054871
0
LINE
8
boundary
62
5
39
2
10
17.320754
20
27.054871
11
16.952331
21
26.714420
0
LINE
8
boundary
62
5
39
2
10
16.952331
20
26.714420
11
16.201407
21
25.923222
0
LINE
8
boundary
62
5
39
2
10
16.201407
20
25.923222
11
15.483274
21
25.665625
0
LINE
8
boundary
62
5
39
2
10
15.483274
20
25.665625
11
13.488310
21
24.854154
0
LINE
8
boundary
62
5
39
2
10
13.488310
20
24.854154
11
12.142079
21
24.305162
0
LINE
8
boundary
62
5
39
2
10
12.142079
20
24.305162
11
10.378402
21
23.279104
0
LINE
8
boundary
62
5
39
2
10
10.378402
20
23.279104
11
9.271502
21
22.583431
0
LINE
8
boundary
62
5
39
2
10
9.271502
20
22.583431
11
7.530857
21
21.529797
0
LINE
8
boundary
62
5
39
2
10
7.530857
20
21.529797
11
6.118175
21
20.182721
0
LINE
8
boundary
62
5
39
2
10
6.118175
20
20.182721
11
4.918515
21
18.618510
0
LINE
8
boundary
62
5
39
2
10
4.918515
20
18.618510
11
3.803765
21
16.940412
0
LINE
8
boundary
62
5
39
2
10
3.803765
20
16.940412
11
2.285634
21
14.646646
0
LINE
8
boundary
62
5
39
2
10
2.285634
20
14.646646
11
1.404051
21
12.475216
0
LINE
8
boundary
62
5
39
2
10
1.404051
20
12.475216
11
0.747567
21
7.504988
0
LINE
8
boundary
62
5
39
2
10
0.747567
20
7.504988
11
0.686750
21
6.774327
0
LINE
8
boundary
62
5
39
2
10
0.686750
20
6.774327
11
0.690511
21
6.765268
0
LINE
8
boundary
62
5
39
2
10
0.690511
20
6.765268
11
0.709013
21
6.720724
0
LINE
8
boundary
62
5
39
2
10
0.709013
20
6.720724
11
1.100493
21
5.778259
0
LINE
8
boundary
62
5
39
2
10
1.100493
20
5.778259
11
2.756871
21
2.593966
0
LINE
8
boundary
62
5
39
2
10
2.756871
20
2.593966
11
3.149617
21
2.375718
0
LINE
8
boundary
62
5
39
2
10
3.149617
20
2.375718
11
6.090894
21
0.686750
0
LINE
8
boundary
62
5
39
2
10
6.090894
20
0.686750
11
6.110023
21
0.688181
0
LINE
8
boundary
62
5
39
2
10
6.110023
20
0.688181
11
6.130876
21
0.693598
0
LINE
8
boundary
62
5
39
2
10
6.130876
20
0.693598
11
6.155391
21
0.712076
0
LINE
8
boundary
62
5
39
2
10
6.155391
20
0.712076
11
6.220703
21
0.767450
0
LINE
8
boundary
62
5
39
2
10
6.220703
20
0.767450
11
6.244454
21
0.784925
0
LINE
8
boundary
62
5
39
2
10
6.244454
20
0.784925
11
6.689645
21
1.019261
0
LINE
8
boundary
62
5
39
2
10
6.689645
20
1.019261
11
7.165085
21
1.283148
0
LINE
8
boundary
62
5
39
2
10
7.165085
20
1.283148
11
7.309877
21
1.363512
0
LINE
8
boundary
62
5
39
2
10
7.309877
20
1.363512
11
7.309877
21
1.805448
0
LINE
8
boundary
62
5
39
2
10
7.309877
20
1.805448
11
7.165085
21
1.726738
0
LINE
8
boundary
62
5
39
2
10
7.165085
20
1.726738
11
7.165085
21
1.283148
0
LINE
8
boundary
62
5
39
2
10
7.165085
20
1.283148
11
7.152555
21
1.309647
0
LINE
8
boundary
62
5
39
2
10
7.152555
20
1.309647
11
7.046899
21
1.309647
0
LINE
8
boundary
62
5
39
2
10
7.046899
20
1.309647
11
7.046899
21
1.283147
0
LINE
8
boundary
62
5
39
2
10
7.046899
20
1.283147
11
6.349077
21
1.283147
0
LINE
8
boundary
62
5
39
2
10
6.349077
20
1.283147
11
6.080750
21
1.137282
0
LINE
8
boundary
62
5
39
2
10
6.080750
20
1.137282
11
5.992081
21
1.188445
0
LINE
8
boundary
62
5
39
2
10
5.992081
20
1.188445
11
5.798007
21
1.309648
0
LINE
8
boundary
62
5
39
2
10
5.798007
20
1.309648
11
5.041254
21
1.309648
0
LINE
8
boundary
62
5
39
2
10
5.041254
20
1.309648
11
5.041254
21
1.782255
0
LINE
8
boundary
62
5
39
2
10
5.041254
20
1.782255
11
4.517529
21
2.109331
0
LINE
8
boundary
62
5
39
2
10
4.517529
20
2.109331
11
3.278347
21
2.904145
0
LINE
8
boundary
62
5
39
2
10
3.278347
20
2.904145
11
3.173793
21
2.959980
0
LINE
8
boundary
62
5
39
2
10
3.173793
20
2.959980
11
1.495948
21
6.147163
0
LINE
8
boundary
62
5
39
2
10
1.495948
20
6.147163
11
1.217268
21
6.831129
0
LINE
8
boundary
62
5
39
2
10
1.217268
20
6.831129
11
1.202259
21
6.867986
0
LINE
8
boundary
62
5
39
2
10
1.202259
20
6.867986
11
1.201868
21
6.868556
0
LINE
8
boundary
62
5
39
2
10
1.201868
20
6.868556
11
1.201470
21
6.869526
0
LINE
8
boundary
62
5
39
2
10
1.201470
20
6.869526
11
1.248464
21
7.375045
0
LINE
8
boundary
62
5
39
2
10
1.248464
20
7.375045
11
1.826471
21
11.658656
0
LINE
8
boundary
62
5
39
2
10
1.826471
20
11.658656
11
1.813941
21
11.685155
0
LINE
8
boundary
62
5
39
2
10
1.813941
20
11.685155
11
1.610971
21
11.685155
0
LINE
8
boundary
62
5
39
2
10
1.610971
20
11.685155
11
1.610971
21
12.189755
0
LINE
8
boundary
62
5
39
2
10
1.610971
20
12.189755
11
1.889180
21
12.189756
0
LINE
8
boundary
62
5
39
2
10
1.889180
20
12.189756
11
1.901710
21
12.216255
0
LINE
8
boundary
62
5
39
2
10
1.901710
20
12.216255
11
1.920296
21
12.353996
0
LINE
8
boundary
62
5
39
2
10
1.920296
20
12.353996
11
2.722560
21
14.334161
0
LINE
8
boundary
62
5
39
2
10
2.722560
20
14.334161
11
4.271897
21
16.661765
0
LINE
8
boundary
62
5
39
2
10
4.271897
20
16.661765
11
5.278837
21
18.188512
0
LINE
8
boundary
62
5
39
2
10
5.278837
20
18.188512
11
6.510769
21
19.824508
0
LINE
8
boundary
62
5
39
2
10
6.510769
20
19.824508
11
7.762205
21
21.033104
0
LINE
8
boundary
62
5
39
2
10
7.762205
20
21.033104
11
9.591246
21
22.122756
0
LINE
8
boundary
62
5
39
2
10
9.591246
20
22.122756
11
10.529981
21
22.717428
0
LINE
8
boundary
62
5
39
2
10
10.529981
20
22.717428
11
12.462542
21
23.815465
0
LINE
8
boundary
62
5
39
2
10
12.462542
20
23.815465
11
13.479639
21
24.230290
0
LINE
8
boundary
62
5
39
2
10
13.479639
20
24.230290
11
14.941873
21
24.800677
0
LINE
8
boundary
62
5
39
2
10
14.941873
20
24.800677
11
16.321227
21
25.311592
0
LINE
8
boundary
62
5
39
2
10
16.321227
20
25.311592
11
17.068542
21
26.064192
0
LINE
8
boundary
62
5
39
2
10
17.068542
20
26.064192
11
17.692958
21
26.638990
0
LINE
8
boundary
62
5
39
2
10
17.692958
20
26.638990
11
18.466459
21
27.393749
0
LINE
8
boundary
62
5
39
2
10
18.466459
20
27.393749
11
19.143786
21
27.749806
0
LINE
8
boundary
62
5
39
2
10
19.143786
20
27.749806
11
20.061107
21
28.710284
0
LINE
8
boundary
62
5
39
2
10
20.061107
20
28.710284
11
20.472895
21
29.663312
0
LINE
8
boundary
62
5
39
2
10
20.472895
20
29.663312
11
21.114605
21
29.701025
0
LINE
8
boundary
62
5
39
2
10
21.114605
20
29.701025
11
21.199400
21
31.153591
0
LINE
8
boundary
62
5
39
2
10
21.199400
20
31.153591
11
21.587933
21
31.815142
0
LINE
8
boundary
62
5
39
2
10
21.587933
20
31.815142
11
21.554338
21
31.970639
0
LINE
8
boundary
62
5
39
2
10
21.554338
20
31.970639
11
21.442790
21
32.409671
0
LINE
8
boundary
62
5
39
2
10
21.442790
20
32.409671
11
21.430260
21
32.436171
0
LINE
8
boundary
62
5
39
2
10
21.430260
20
32.436171
11
21.132676
21
32.436171
0
LINE
8
boundary
62
5
39
2
10
21.132676
20
32.436171
11
21.132676
21
32.940771
0
LINE
8
boundary
62
5
39
2
10
21.132676
20
32.940771
11
21.288586
21
32.940771
0
LINE
8
boundary
62
5
39
2
10
21.288586
20
32.940771
11
21.301116
21
32.967271
0
LINE
8
boundary
62
5
39
2
10
21.301116
20
32.967271
11
21.249795
21
33.169260
0
LINE
8
boundary
62
5
39
2
10
21.249795
20
33.169260
11
20.988618
21
34.096036
0
LINE
8
boundary
62
5
39
2
10
20.988618
20
34.096036
11
21.091868
21
34.449670
0
LINE
8
boundary
62
5
39
2
10
21.091868
20
34.449670
11
21.205218
21
34.608699
0
LINE
8
boundary
62
5
39
2
10
21.205218
20
34.608699
11
21.346935
21
34.727423
0
LINE
8
boundary
62
5
39
2
10
21.346935
20
34.727423
11
21.746901
21
34.752694
0
LINE
8
boundary
62
5
39
2
10
21.746901
20
34.752694
11
21.768530
21
34.731324
0
LINE
8
boundary
62
5
39
2
10
21.768530
20
34.731324
11
21.784771
21
34.707112
0
LINE
8
boundary
62
5
39
2
10
21.784771
20
34.707112
11
21.458014
21
34.668450
0
LINE
8
boundary
62
5
39
2
10
21.458014
20
34.668450
11
21.306049
21
34.544861
0
LINE
8
boundary
62
5
39
2
10
21.306049
20
34.544861
11
21.280179
21
34.528780
0
LINE
8
boundary
62
5
39
2
10
21.280179
20
34.528780
11
21.277336
21
34.526112
0
LINE
8
boundary
62
5
39
2
10
21.277336
20
34.526112
11
21.273471
21
34.517365
0
LINE
8
boundary
62
5
39
2
10
21.273471
20
34.517365
11
21.182723
21
34.356068
0
LINE
8
boundary
62
5
39
2
10
21.182723
20
34.356068
11
21.136446
21
34.177400
0
LINE
8
boundary
62
5
39
2
10
21.136446
20
34.177400
11
21.117507
21
34.099882
0
LINE
8
boundary
62
5
39
2
10
21.117507
20
34.099882
11
21.450774
21
32.967271
0
LINE
8
boundary
62
5
39
2
10
21.450774
20
32.967271
11
21.482320
21
32.860064
0
LINE
8
boundary
62
5
39
2
10
21.482320
20
32.860064
11
21.482320
21
32.940771
0
LINE
8
boundary
62
5
39
2
10
21.482320
20
32.940771
11
21.494850
21
32.967271
0
LINE
8
boundary
62
5
39
2
10
21.494850
20
32.967271
11
21.598940
21
32.967271
0
LINE
8
boundary
62
5
39
2
10
21.598940
20
32.967271
11
21.598940
21
32.409672
0
LINE
8
boundary
62
5
39
2
10
21.598940
20
32.409672
11
21.735737
21
31.879093
0
LINE
8
boundary
62
5
39
2
10
21.735737
20
31.879093
11
21.745564
21
31.808349
0
LINE
8
boundary
62
5
39
2
10
21.745564
20
31.808349
11
21.592436
21
31.529166
0
LINE
8
boundary
62
5
39
2
10
21.592436
20
31.529166
11
21.506574
21
29.471109
0
LINE
8
boundary
62
5
39
2
10
21.506574
20
29.471109
11
20.616685
21
29.441768
0
LINE
8
boundary
62
5
39
2
10
20.616685
20
29.441768
11
20.238831
21
28.545461
0
LINE
8
boundary
62
5
39
2
10
20.238831
20
28.545461
11
19.358979
21
27.614526
0
LINE
8
boundary
62
5
39
2
10
19.358979
20
27.614526
11
18.552286
21
27.182202
0
LINE
8
boundary
62
5
39
2
10
18.552286
20
27.182202
11
17.831164
21
26.478288
0
LINE
8
boundary
62
5
39
2
10
17.831164
20
26.478288
11
17.096209
21
25.801940
0
LINE
8
boundary
62
5
39
2
10
17.096209
20
25.801940
11
16.358390
21
25.070839
0
LINE
8
boundary
62
5
39
2
10
16.358390
20
25.070839
11
14.676717
21
24.440336
0
LINE
8
boundary
62
5
39
2
10
14.676717
20
24.440336
11
13.456324
21
23.973849
0
LINE
8
boundary
62
5
39
2
10
13.456324
20
23.973849
11
12.593422
21
23.621553
0
LINE
8
boundary
62
5
39
2
10
12.593422
20
23.621553
11
10.583037
21
22.491379
0
LINE
8
boundary
62
5
39
2
10
10.583037
20
22.491379
11
9.717079
21
21.940406
0
LINE
8
boundary
62
5
39
2
10
9.717079
20
21.940406
11
7.849322
21
20.835965
0
LINE
8
boundary
62
5
39
2
10
7.849322
20
20.835965
11
6.663727
21
19.684065
0
LINE
8
boundary
62
5
39
2
10
6.663727
20
19.684065
11
5.418389
21
18.017431
0
LINE
8
boundary
62
5
39
2
10
5.418389
20
18.017431
11
4.454990
21
16.552494
0
LINE
8
boundary
62
5
39
2
10
4.454990
20
16.552494
11
2.892436
21
14.211119
0
LINE
8
boundary
62
5
39
2
10
2.892436
20
14.211119
11
2.123213
21
12.303107
0
LINE
8
boundary
62
5
39
2
10
2.123213
20
12.303107
11
1.443094
21
7.320870
0
LINE
8
boundary
62
5
39
2
10
1.443094
20
7.320870
11
1.402931
21
6.905515
0
LINE
8
boundary
62
5
39
2
10
1.402931
20
6.905515
11
1.404018
21
6.902852
0
LINE
8
boundary
62
5
39
2
10
1.404018
20
6.902852
11
1.406810
21
6.895908
0
LINE
8
boundary
62
5
39
2
10
1.406810
20
6.895908
11
1.647518
21
6.298836
0
LINE
8
boundary
62
5
39
2
10
1.647518
20
6.298836
11
3.312824
21
3.159151
0
LINE
8
boundary
62
5
39
2
10
3.312824
20
3.159151
11
3.339066
21
3.109633
0
LINE
8
boundary
62
5
39
2
10
3.339066
20
3.109633
11
3.340700
21
3.106721
0
LINE
8
boundary
62
5
39
2
10
3.340700
20
3.106721
11
3.341980
21
3.104817
0
LINE
8
boundary
62
5
39
2
10
3.341980
20
3.104817
11
5.300432
21
1.814247
0
LINE
8
boundary
62
5
39
2
10
5.300432
20
1.814247
11
6.111310
21
1.814248
0
LINE
8
boundary
62
5
39
2
10
6.111310
20
1.814248
11
6.997879
21
1.814247
0
LINE
8
boundary
62
5
39
2
10
6.997879
20
1.814247
11
9.639453
21
3.242270
0
LINE
8
boundary
62
5
39
2
10
9.639453
20
3.242270
11
14.184789
21
5.829629
0
LINE
8
boundary
62
5
39
2
10
14.184789
20
5.829629
11
13.841911
21
6.937272
0
LINE
8
boundary
62
5
39
2
10
13.841911
20
6.937272
11
13.808232
21
7.045690
0
LINE
8
boundary
62
5
39
2
10
13.808232
20
7.045690
11
13.807798
21
7.049267
0
LINE
8
boundary
62
5
39
2
10
13.807798
20
7.049267
11
13.806045
21
7.070497
0
LINE
8
boundary
62
5
39
2
10
13.806045
20
7.070497
11
13.449982
21
7.712468
0
LINE
8
boundary
62
5
39
2
10
13.449982
20
7.712468
11
14.289833
21
9.323572
0
LINE
8
boundary
62
5
39
2
10
14.289833
20
9.323572
11
14.447719
21
9.831880
0
LINE
8
boundary
62
5
39
2
10
14.447719
20
9.831880
11
14.698056
21
10.348274
0
LINE
8
boundary
62
5
39
2
10
14.698056
20
10.348274
11
14.999773
21
10.784998
0
LINE
8
boundary
62
5
39
2
10
14.999773
20
10.784998
11
16.267078
21
11.685155
0
LINE
8
boundary
62
5
39
2
10
16.267078
20
11.685155
11
9.410042
21
11.685155
0
LINE
8
boundary
62
5
39
2
10
9.410042
20
11.685155
11
9.410042
21
12.189756
0
LINE
8
boundary
62
5
39
2
10
9.410042
20
12.189756
11
16.918741
21
12.189755
0
LINE
8
boundary
62
5
39
2
10
16.918741
20
12.189755
11
17.740689
21
12.920577
0
LINE
8
boundary
62
5
39
2
10
17.740689
20
12.920577
11
18.897370
21
14.056951
0
LINE
8
boundary
62
5
39
2
10
18.897370
20
14.056951
11
20.592438
21
15.732987
0
LINE
8
boundary
62
5
39
2
10
20.592438
20
15.732987
11
21.222511
21
16.371024
0
LINE
8
boundary
62
5
39
2
10
21.222511
20
16.371024
11
22.064264
21
17.485958
0
LINE
8
boundary
62
5
39
2
10
22.064264
20
17.485958
11
24.292063
21
20.603990
0
LINE
8
boundary
62
5
39
2
10
24.292063
20
20.603990
11
24.948241
21
22.060663
0
LINE
8
boundary
62
5
39
2
10
24.948241
20
22.060663
11
16.882762
21
22.060663
0
LINE
8
boundary
62
5
39
2
10
16.882762
20
22.060663
11
16.882762
21
22.565263
0
LINE
8
boundary
62
5
39
2
10
16.882762
20
22.565263
11
25.175545
21
22.565263
0
LINE
8
boundary
62
5
39
2
10
25.175545
20
22.565263
11
25.604592
21
23.517719
0
LINE
8
boundary
62
5
39
2
10
25.604592
20
23.517719
11
25.826500
21
24.016936
0
LINE
8
boundary
62
5
39
2
10
25.826500
20
24.016936
11
26.400714
21
26.100775
0
LINE
8
boundary
62
5
39
2
10
26.400714
20
26.100775
11
26.420372
21
26.218943
0
LINE
8
boundary
62
5
39
2
10
26.420372
20
26.218943
11
26.459080
21
26.619750
0
LINE
8
boundary
62
5
39
2
10
26.459080
20
26.619750
11
26.275564
21
26.954160
0
LINE
8
boundary
62
5
39
2
10
26.275564
20
26.954160
11
26.344744
21
27.315956
0
LINE
8
boundary
62
5
39
2
10
26.344744
20
27.315956
11
26.488722
21
27.414727
0
LINE
8
boundary
62
5
39
2
10
26.488722
20
27.414727
11
26.831498
21
27.651030
0
LINE
8
boundary
62
5
39
2
10
26.831498
20
27.651030
11
27.139394
21
28.073362
0
LINE
8
boundary
62
5
39
2
10
27.139394
20
28.073362
11
27.169352
21
28.137987
0
LINE
8
boundary
62
5
39
2
10
27.169352
20
28.137987
11
27.714536
21
28.744203
0
LINE
8
boundary
62
5
39
2
10
27.714536
20
28.744203
11
27.768858
21
28.827492
0
LINE
8
boundary
62
5
39
2
10
27.768858
20
28.827492
11
27.772048
21
28.834502
0
LINE
8
boundary
62
5
39
2
10
27.772048
20
28.834502
11
28.093779
21
29.480747
0
LINE
8
boundary
62
5
39
2
10
28.093779
20
29.480747
11
28.105521
21
29.506596
0
LINE
8
boundary
62
5
39
2
10
28.105521
20
29.506596
11
28.234733
21
29.892622
0
LINE
8
boundary
62
5
39
2
10
28.234733
20
29.892622
11
28.185183
21
30.642159
0
LINE
8
boundary
62
5
39
2
10
28.185183
20
30.642159
11
28.219960
21
31.179504
0
LINE
8
boundary
62
5
39
2
10
28.219960
20
31.179504
11
28.443271
21
31.988950
0
LINE
8
boundary
62
5
39
2
10
28.443271
20
31.988950
11
28.490885
21
32.409671
0
LINE
8
boundary
62
5
39
2
10
28.490885
20
32.409671
11
28.485018
21
32.422078
0
LINE
8
boundary
62
5
39
2
10
28.485018
20
32.422078
11
28.478355
21
32.436171
0
LINE
8
boundary
62
5
39
2
10
28.478355
20
32.436171
11
24.988928
21
32.436171
0
LINE
8
boundary
62
5
39
2
10
24.988928
20
32.436171
11
22.019631
21
32.436171
0
LINE
8
boundary
62
5
39
2
10
22.019631
20
32.436171
11
22.019631
21
32.940771
0
LINE
8
boundary
62
5
39
2
10
22.019631
20
32.940771
11
28.231099
21
32.940771
0
LINE
8
boundary
62
5
39
2
10
28.231099
20
32.940771
11
28.243629
21
32.967271
0
LINE
8
boundary
62
5
39
2
10
28.243629
20
32.967271
11
28.183925
21
33.348416
0
LINE
8
boundary
62
5
39
2
10
28.183925
20
33.348416
11
28.257869
21
33.489236
0
LINE
8
boundary
62
5
39
2
10
28.257869
20
33.489236
11
28.218734
21
33.635317
0
LINE
8
boundary
62
5
39
2
10
28.218734
20
33.635317
11
27.976643
21
33.802246
0
LINE
8
boundary
62
5
39
2
10
27.976643
20
33.802246
11
27.956220
21
33.816645
0
LINE
8
boundary
62
5
39
2
10
27.956220
20
33.816645
11
27.912207
21
33.847299
0
LINE
8
boundary
62
5
39
2
10
27.912207
20
33.847299
11
27.923716
21
33.893282
0
LINE
8
boundary
62
5
39
2
10
27.923716
20
33.893282
11
27.949311
21
33.996313
0
LINE
8
boundary
62
5
39
2
10
27.949311
20
33.996313
11
27.956332
21
34.025323
0
LINE
8
boundary
62
5
39
2
10
27.956332
20
34.025323
11
27.958992
21
34.055905
0
LINE
8
boundary
62
5
39
2
10
27.958992
20
34.055905
11
27.928185
21
34.166499
0
LINE
8
boundary
62
5
39
2
10
27.928185
20
34.166499
11
27.894811
21
34.281864
0
LINE
8
boundary
62
5
39
2
10
27.894811
20
34.281864
11
27.823989
21
34.526156
0
LINE
8
boundary
62
5
39
2
10
27.823989
20
34.526156
11
27.820059
21
34.539718
0
LINE
8
boundary
62
5
39
2
10
27.820059
20
34.539718
11
27.811245
21
34.570174
0
LINE
8
boundary
62
5
39
2
10
27.811245
20
34.570174
11
27.842775
21
34.548423
0
LINE
8
boundary
62
5
39
2
10
27.842775
20
34.548423
11
27.963490
21
34.464881
0
LINE
8
boundary
62
5
39
2
10
27.963490
20
34.464881
11
28.579278
21
34.060000
0
LINE
8
boundary
62
5
39
2
10
28.579278
20
34.060000
11
28.864928
21
33.873889
0
LINE
8
boundary
62
5
39
2
10
28.864928
20
33.873889
11
29.007819
21
33.333713
0
LINE
8
boundary
62
5
39
2
10
29.007819
20
33.333713
11
28.733461
21
32.854848
0
LINE
8
boundary
62
5
39
2
10
28.733461
20
32.854848
11
28.755041
21
32.669147
0
LINE
8
boundary
62
5
39
2
10
28.755041
20
32.669147
11
28.789666
21
32.633469
0
LINE
8
boundary
62
5
39
2
10
28.789666
20
32.633469
11
28.789666
21
32.940771
0
LINE
8
boundary
62
5
39
2
10
28.789666
20
32.940771
11
28.802196
21
32.967271
0
LINE
8
boundary
62
5
39
2
10
28.802196
20
32.967271
11
28.803771
21
32.967271
0
LINE
8
boundary
62
5
39
2
10
28.803771
20
32.967271
11
28.803771
21
32.618935
0
LINE
8
boundary
62
5
39
2
10
28.803771
20
32.618935
11
28.824810
21
32.597256
0
LINE
8
boundary
62
5
39
2
10
28.824810
20
32.597256
11
28.809751
21
32.432206
0
LINE
8
boundary
62
5
39
2
10
28.809751
20
32.432206
11
28.447865
21
31.068583
0
LINE
8
boundary
62
5
39
2
10
28.447865
20
31.068583
11
28.402124
21
30.638890
0
LINE
8
boundary
62
5
39
2
10
28.402124
20
30.638890
11
28.448514
21
29.983852
0
LINE
8
boundary
62
5
39
2
10
28.448514
20
29.983852
11
28.266098
21
29.405661
0
LINE
8
boundary
62
5
39
2
10
28.266098
20
29.405661
11
28.259423
21
29.390482
0
LINE
8
boundary
62
5
39
2
10
28.259423
20
29.390482
11
27.930657
21
28.727795
0
LINE
8
boundary
62
5
39
2
10
27.930657
20
28.727795
11
27.924743
21
28.718639
0
LINE
8
boundary
62
5
39
2
10
27.924743
20
28.718639
11
27.923092
21
28.716143
0
LINE
8
boundary
62
5
39
2
10
27.923092
20
28.716143
11
27.861510
21
28.623187
0
LINE
8
boundary
62
5
39
2
10
27.861510
20
28.623187
11
27.314222
21
28.020603
0
LINE
8
boundary
62
5
39
2
10
27.314222
20
28.020603
11
27.275139
21
27.937399
0
LINE
8
boundary
62
5
39
2
10
27.275139
20
27.937399
11
26.834264
21
27.373886
0
LINE
8
boundary
62
5
39
2
10
26.834264
20
27.373886
11
26.623714
21
27.233402
0
LINE
8
boundary
62
5
39
2
10
26.623714
20
27.233402
11
26.600213
21
27.098598
0
LINE
8
boundary
62
5
39
2
10
26.600213
20
27.098598
11
26.674665
21
26.949006
0
LINE
8
boundary
62
5
39
2
10
26.674665
20
26.949006
11
26.607213
21
26.203462
0
LINE
8
boundary
62
5
39
2
10
26.607213
20
26.203462
11
26.568851
21
25.977333
0
LINE
8
boundary
62
5
39
2
10
26.568851
20
25.977333
11
26.008548
21
23.966812
0
LINE
8
boundary
62
5
39
2
10
26.008548
20
23.966812
11
25.388500
21
22.565263
0
LINE
8
boundary
62
5
39
2
10
25.388500
20
22.565263
11
25.923578
21
22.565263
0
LINE
8
boundary
62
5
39
2
10
25.923578
20
22.565263
11
25.936107
21
22.591763
0
LINE
8
boundary
62
5
39
2
10
25.936107
20
22.591763
11
26.474716
21
23.829029
0
LINE
8
boundary
62
5
39
2
10
26.474716
20
23.829029
11
27.028149
21
25.685480
0
LINE
8
boundary
62
5
39
2
10
27.028149
20
25.685480
11
27.112447
21
26.162652
0
LINE
8
boundary
62
5
39
2
10
27.112447
20
26.162652
11
27.165126
21
27.024861
0
LINE
8
boundary
62
5
39
2
10
27.165126
20
27.024861
11
27.162550
21
27.100462
0
LINE
8
boundary
62
5
39
2
10
27.162550
20
27.100462
11
27.639783
21
27.595536
0
LINE
8
boundary
62
5
39
2
10
27.639783
20
27.595536
11
27.696542
21
27.709767
0
LINE
8
boundary
62
5
39
2
10
27.696542
20
27.709767
11
28.249964
21
28.308332
0
LINE
8
boundary
62
5
39
2
10
28.249964
20
28.308332
11
28.358339
21
28.472934
0
LINE
8
boundary
62
5
39
2
10
28.358339
20
28.472934
11
28.390859
21
28.551964
0
LINE
8
boundary
62
5
39
2
10
28.390859
20
28.551964
11
28.730232
21
29.245638
0
LINE
8
boundary
62
5
39
2
10
28.730232
20
29.245638
11
28.990151
21
30.297664
0
LINE
8
boundary
62
5
39
2
10
28.990151
20
30.297664
11
28.965096
21
30.580358
0
LINE
8
boundary
62
5
39
2
10
28.965096
20
30.580358
11
28.994132
21
30.732584
0
LINE
8
boundary
62
5
39
2
10
28.994132
20
30.732584
11
29.099096
21
31.197145
0
LINE
8
boundary
62
5
39
2
10
29.099096
20
31.197145
11
29.408833
21
31.231733
0
LINE
8
boundary
62
5
39
2
10
29.408833
20
31.231733
11
29.648666
21
31.749139
0
LINE
8
boundary
62
5
39
2
10
29.648666
20
31.749139
11
29.665179
21
31.803377
0
LINE
8
boundary
62
5
39
2
10
29.665179
20
31.803377
11
29.725844
21
31.914918
0
LINE
8
boundary
62
5
39
2
10
29.725844
20
31.914918
11
29.834620
21
32.006623
0
LINE
8
boundary
62
5
39
2
10
29.834620
20
32.006623
11
30.325671
21
32.409671
0
LINE
8
boundary
62
5
39
2
10
30.325671
20
32.409671
11
30.313141
21
32.436171
0
LINE
8
boundary
62
5
39
2
10
30.313141
20
32.436171
11
29.639855
21
32.436171
0
LINE
8
boundary
62
5
39
2
10
29.639855
20
32.436171
11
29.639855
21
32.940771
0
LINE
8
boundary
62
5
39
2
10
29.639855
20
32.940771
11
30.489590
21
32.940771
0
LINE
8
boundary
62
5
39
2
10
30.489590
20
32.940771
11
30.502120
21
32.967271
0
LINE
8
boundary
62
5
39
2
10
30.502120
20
32.967271
11
30.505243
21
33.103998
0
LINE
8
boundary
62
5
39
2
10
30.505243
20
33.103998
11
30.617419
21
33.558403
0
LINE
8
boundary
62
5
39
2
10
30.617419
20
33.558403
11
30.484910
21
33.957378
0
LINE
8
boundary
62
5
39
2
10
30.484910
20
33.957378
11
30.604911
21
34.353513
0
LINE
8
boundary
62
5
39
2
10
30.604911
20
34.353513
11
30.126015
21
35.547100
0
LINE
8
boundary
62
5
39
2
10
30.126015
20
35.547100
11
29.895958
21
35.636852
0
LINE
8
annotation
62
1
39
211
10
4.826363
20
1.473185
11
4.826363
21
1.650710
0
LINE
8
annotation
62
1
39
211
10
4.826363
20
1.650710
11
4.786897
21
1.611233
0
LINE
8
annotation
62
1
39
211
10
7.111214
20
1.480309
11
7.111214
21
1.643586
0
LINE
8
annotation
62
1
39
211
10
7.111214
20
1.643586
11
7.074916
21
1.607277
0
LINE
8
annotation
62
1
39
211
10
5.756583
20
1.623796
11
5.756583
21
1.924099
0
LINE
8
annotation
62
1
39
211
10
5.756583
20
1.924099
11
5.689822
21
1.857319
0
LINE
8
annotation
62
1
39
211
10
8.525544
20
11.513449
11
8.148927
21
11.513449
0
LINE
8
annotation
62
1
39
211
10
8.148927
20
11.513449
11
8.496933
21
12.073694
0
LINE
8
annotation
62
1
39
211
10
8.496933
20
12.073694
11
8.496933
21
12.073694
0
LINE
8
annotation
62
1
39
211
10
8.496933
20
12.073694
11
8.497349
21
12.074209
0
LINE
8
annotation
62
1
39
211
10
8.497349
20
12.074209
11
8.497748
21
12.074728
0
LINE
8
annotation
62
1
39
211
10
8.497748
20
12.074728
11
8.498133
21
12.075256
0
LINE
8
annotation
62
1
39
211
10
8.498133
20
12.075256
11
8.498505
21
12.075797
0
LINE
8
annotation
62
1
39
211
10
8.498505
20
12.075797
11
8.498869
21
12.076356
0
LINE
8
annotation
62
1
39
211
10
8.498869
20
12.076356
11
8.499226
21
12.076936
0
LINE
8
annotation
62
1
39
211
10
8.499226
20
12.076936
11
8.499579
21
12.077543
0
LINE
8
annotation
62
1
39
211
10
8.499579
20
12.077543
11
8.499931
21
12.078180
0
LINE
8
annotation
62
1
39
211
10
8.499931
20
12.078180
11
8.500284
21
12.078853
0
LINE
8
annotation
62
1
39
211
10
8.500284
20
12.078853
11
8.500284
21
12.078853
0
LINE
8
annotation
62
1
39
211
10
8.500284
20
12.078853
11
8.514653
21
12.109705
0
LINE
8
annotation
62
1
39
211
10
8.514653
20
12.109705
11
8.523047
21
12.141685
0
LINE
8
annotation
62
1
39
211
10
8.523047
20
12.141685
11
8.525672
21
12.174072
0
LINE
8
annotation
62
1
39
211
10
8.525672
20
12.174072
11
8.522733
21
12.206142
0
LINE
8
annotation
62
1
39
211
10
8.522733
20
12.206142
11
8.514437
21
12.237173
0
LINE
8
annotation
62
1
39
211
10
8.514437
20
12.237173
11
8.500989
21
12.266442
0
LINE
8
annotation
62
1
39
211
10
8.500989
20
12.266442
11
8.482594
21
12.293228
0
LINE
8
annotation
62
1
39
211
10
8.482594
20
12.293228
11
8.459459
21
12.316806
0
LINE
8
annotation
62
1
39
211
10
8.459459
20
12.316806
11
8.431788
21
12.336454
0
LINE
8
annotation
62
1
39
211
10
8.431788
20
12.336454
11
8.431788
21
12.336454
0
LINE
8
annotation
62
1
39
211
10
8.431788
20
12.336454
11
8.400851
21
12.350619
0
LINE
8
annotation
62
1
39
211
10
8.400851
20
12.350619
11
8.368821
21
12.358884
0
LINE
8
annotation
62
1
39
211
10
8.368821
20
12.358884
11
8.336416
21
12.361435
0
LINE
8
annotation
62
1
39
211
10
8.336416
20
12.361435
11
8.304350
21
12.358458
0
LINE
8
annotation
62
1
39
211
10
8.304350
20
12.358458
11
8.273341
21
12.350138
0
LINE
8
annotation
62
1
39
211
10
8.273341
20
12.350138
11
8.244104
21
12.336663
0
LINE
8
annotation
62
1
39
211
10
8.244104
20
12.336663
11
8.217355
21
12.318218
0
LINE
8
annotation
62
1
39
211
10
8.217355
20
12.318218
11
8.193811
21
12.294989
0
LINE
8
annotation
62
1
39
211
10
8.193811
20
12.294989
11
8.174187
21
12.267161
0
LINE
8
annotation
62
1
39
211
10
8.174187
20
12.267161
11
8.149458
21
12.219725
0
LINE
8
annotation
62
1
39
211
10
1.436984
20
11.859012
11
1.367308
21
11.859012
0
LINE
8
annotation
62
1
39
211
10
1.367308
20
11.859012
11
1.431691
21
11.962660
0
LINE
8
annotation
62
1
39
211
10
1.431691
20
11.962660
11
1.431691
21
11.962660
0
LINE
8
annotation
62
1
39
211
10
1.431691
20
11.962660
11
1.431768
21
11.962756
0
LINE
8
annotation
62
1
39
211
10
1.431768
20
11.962756
11
1.431842
21
11.962852
0
LINE
8
annotation
62
1
39
211
10
1.431842
20
11.962852
11
1.431913
21
11.962949
0
LINE
8
annotation
62
1
39
211
10
1.431913
20
11.962949
11
1.431982
21
11.963049
0
LINE
8
annotation
62
1
39
211
10
1.431982
20
11.963049
11
1.432049
21
11.963153
0
LINE
8
annotation
62
1
39
211
10
1.432049
20
11.963153
11
1.432115
21
11.963260
0
LINE
8
annotation
62
1
39
211
10
1.432115
20
11.963260
11
1.432181
21
11.963372
0
LINE
8
annotation
62
1
39
211
10
1.432181
20
11.963372
11
1.432246
21
11.963490
0
LINE
8
annotation
62
1
39
211
10
1.432246
20
11.963490
11
1.432311
21
11.963615
0
LINE
8
annotation
62
1
39
211
10
1.432311
20
11.963615
11
1.432311
21
11.963615
0
LINE
8
annotation
62
1
39
211
10
1.432311
20
11.963615
11
1.434969
21
11.969322
0
LINE
8
annotation
62
1
39
211
10
1.434969
20
11.969322
11
1.436522
21
11.975239
0
LINE
8
annotation
62
1
39
211
10
1.436522
20
11.975239
11
1.437008
21
11.981231
0
LINE
8
annotation
62
1
39
211
10
1.437008
20
11.981231
11
1.436464
21
11.987164
0
LINE
8
annotation
62
1
39
211
10
1.436464
20
11.987164
11
1.434929
21
11.992905
0
LINE
8
annotation
62
1
39
211
10
1.434929
20
11.992905
11
1.432441
21
11.998320
0
LINE
8
annotation
62
1
39
211
10
1.432441
20
11.998320
11
1.429038
21
12.003275
0
LINE
8
annotation
62
1
39
211
10
1.429038
20
12.003275
11
1.424758
21
12.007637
0
LINE
8
annotation
62
1
39
211
10
1.424758
20
12.007637
11
1.419639
21
12.011272
0
LINE
8
annotation
62
1
39
211
10
1.419639
20
12.011272
11
1.419639
21
12.011272
0
LINE
8
annotation
62
1
39
211
10
1.419639
20
12.011272
11
1.413915
21
12.013893
0
LINE
8
annotation
62
1
39
211
10
1.413915
20
12.013893
11
1.407990
21
12.015422
0
LINE
8
annotation
62
1
39
211
10
1.407990
20
12.015422
11
1.401995
21
12.015894
0
LINE
8
annotation
62
1
39
211
10
1.401995
20
12.015894
11
1.396062
21
12.015343
0
LINE
8
annotation
62
1
39
211
10
1.396062
20
12.015343
11
1.390325
21
12.013804
0
LINE
8
annotation
62
1
39
211
10
1.390325
20
12.013804
11
1.384916
21
12.011311
0
LINE
8
annotation
62
1
39
211
10
1.384916
20
12.011311
11
1.379968
21
12.007898
0
LINE
8
annotation
62
1
39
211
10
1.379968
20
12.007898
11
1.375612
21
12.003601
0
LINE
8
annotation
62
1
39
211
10
1.375612
20
12.003601
11
1.371981
21
11.998453
0
LINE
8
annotation
62
1
39
211
10
1.371981
20
11.998453
11
1.367407
21
11.989677
0
LINE
8
annotation
62
1
39
211
10
15.621647
20
21.888990
11
15.809956
21
21.888990
0
LINE
8
annotation
62
1
39
211
10
15.809956
20
21.888990
11
15.809956
21
21.888990
0
LINE
8
annotation
62
1
39
211
10
15.809956
20
21.888990
11
15.843823
21
21.892028
0
LINE
8
annotation
62
1
39
211
10
15.843823
20
21.892028
11
15.875692
21
21.900784
0
LINE
8
annotation
62
1
39
211
10
15.875692
20
21.900784
11
15.905031
21
21.914721
0
LINE
8
annotation
62
1
39
211
10
15.905031
20
21.914721
11
15.931310
21
21.933301
0
LINE
8
annotation
62
1
39
211
10
15.931310
20
21.933301
11
15.954000
21
21.955986
0
LINE
8
annotation
62
1
39
211
10
15.954000
20
21.955986
11
15.972571
21
21.982239
0
LINE
8
annotation
62
1
39
211
10
15.972571
20
21.982239
11
15.986491
21
22.011523
0
LINE
8
annotation
62
1
39
211
10
15.986491
20
22.011523
11
15.995233
21
22.043300
0
LINE
8
annotation
62
1
39
211
10
15.995233
20
22.043300
11
15.998264
21
22.077033
0
LINE
8
annotation
62
1
39
211
10
15.998264
20
22.077033
11
15.998264
21
22.171320
0
LINE
8
annotation
62
1
39
211
10
15.998264
20
22.171320
11
15.998264
21
22.171320
0
LINE
8
annotation
62
1
39
211
10
15.998264
20
22.171320
11
15.995233
21
22.205038
0
LINE
8
annotation
62
1
39
211
10
15.995233
20
22.205038
11
15.986491
21
22.236808
0
LINE
8
annotation
62
1
39
211
10
15.986491
20
22.236808
11
15.972571
21
22.266090
0
LINE
8
annotation
62
1
39
211
10
15.972571
20
22.266090
11
15.954000
21
22.292345
0
LINE
8
annotation
62
1
39
211
10
15.954000
20
22.292345
11
15.931310
21
22.315034
0
LINE
8
annotation
62
1
39
211
10
15.931310
20
22.315034
11
15.905031
21
22.333620
0
LINE
8
annotation
62
1
39
211
10
15.905031
20
22.333620
11
15.875692
21
22.347562
0
LINE
8
annotation
62
1
39
211
10
15.875692
20
22.347562
11
15.843823
21
22.356323
0
LINE
8
annotation
62
1
39
211
10
15.843823
20
22.356323
11
15.809956
21
22.359363
0
LINE
8
annotation
62
1
39
211
10
15.809956
20
22.359363
11
15.715668
21
22.359363
0
LINE
8
annotation
62
1
39
211
10
15.715668
20
22.359363
11
15.809956
21
22.359363
0
LINE
8
annotation
62
1
39
211
10
15.809956
20
22.359363
11
15.809956
21
22.359363
0
LINE
8
annotation
62
1
39
211
10
15.809956
20
22.359363
11
15.843823
21
22.362403
0
LINE
8
annotation
62
1
39
211
10
15.843823
20
22.362403
11
15.875692
21
22.371169
0
LINE
8
annotation
62
1
39
211
10
15.875692
20
22.371169
11
15.905031
21
22.385125
0
LINE
8
annotation
62
1
39
211
10
15.905031
20
22.385125
11
15.931310
21
22.403737
0
LINE
8
annotation
62
1
39
211
10
15.931310
20
22.403737
11
15.954000
21
22.426472
0
LINE
8
annotation
62
1
39
211
10
15.954000
20
22.426472
11
15.972571
21
22.452793
0
LINE
8
annotation
62
1
39
211
10
15.972571
20
22.452793
11
15.986491
21
22.482167
0
LINE
8
annotation
62
1
39
211
10
15.986491
20
22.482167
11
15.995233
21
22.514060
0
LINE
8
annotation
62
1
39
211
10
15.995233
20
22.514060
11
15.998264
21
22.547937
0
LINE
8
annotation
62
1
39
211
10
15.998264
20
22.547937
11
15.998264
21
22.547937
0
LINE
8
annotation
62
1
39
211
10
15.998264
20
22.547937
11
15.995233
21
22.581656
0
LINE
8
annotation
62
1
39
211
10
15.995233
20
22.581656
11
15.986491
21
22.613425
0
LINE
8
annotation
62
1
39
211
10
15.986491
20
22.613425
11
15.972571
21
22.642707
0
LINE
8
annotation
62
1
39
211
10
15.972571
20
22.642707
11
15.954000
21
22.668962
0
LINE
8
annotation
62
1
39
211
10
15.954000
20
22.668962
11
15.931310
21
22.691651
0
LINE
8
annotation
62
1
39
211
10
15.931310
20
22.691651
11
15.905031
21
22.710237
0
LINE
8
annotation
62
1
39
211
10
15.905031
20
22.710237
11
15.875692
21
22.724179
0
LINE
8
annotation
62
1
39
211
10
15.875692
20
22.724179
11
15.843823
21
22.732940
0
LINE
8
annotation
62
1
39
211
10
15.843823
20
22.732940
11
15.809956
21
22.735980
0
LINE
8
annotation
62
1
39
211
10
15.809956
20
22.735980
11
15.621647
21
22.735980
0
LINE
8
annotation
62
1
39
211
10
20.959069
20
32.854526
11
20.867199
21
32.854526
0
LINE
8
annotation
62
1
39
211
10
20.867199
20
32.854526
11
20.903889
21
32.983200
0
LINE
8
annotation
62
1
39
211
10
20.931531
20
32.817743
11
20.931531
21
32.891226
0
LINE
8
annotation
62
1
39
211
10
21.418101
20
32.673761
11
21.388686
21
32.673761
0
LINE
8
annotation
62
1
39
211
10
21.388686
20
32.673761
11
21.400434
21
32.714959
0
LINE
8
annotation
62
1
39
211
10
21.409284
20
32.661984
11
21.409284
21
32.685511
0
LINE
8
annotation
62
1
39
211
10
21.754138
20
32.616289
11
21.609806
21
32.616289
0
LINE
8
annotation
62
1
39
211
10
21.609806
20
32.616289
11
21.667447
21
32.818442
0
LINE
8
annotation
62
1
39
211
10
21.710874
20
32.558501
11
21.710874
21
32.673947
0
LINE
8
annotation
62
1
39
211
10
29.161838
20
32.555605
11
28.896166
21
32.555605
0
LINE
8
annotation
62
1
39
211
10
28.896166
20
32.555605
11
29.002267
21
32.927708
0
LINE
8
annotation
62
1
39
211
10
29.082203
20
32.449234
11
29.082203
21
32.661736
0
LINE
8
annotation
62
1
39
211
10
21.396353
20
32.680693
11
21.380801
21
32.680693
0
LINE
8
annotation
62
1
39
211
10
21.380801
20
32.680693
11
21.387012
21
32.702477
0
LINE
8
annotation
62
1
39
211
10
21.391691
20
32.674466
11
21.391691
21
32.686906
0
LINE
8
annotation
62
1
39
211
10
24.151547
20
32.452993
11
23.680696
21
32.452993
0
LINE
8
annotation
62
1
39
211
10
23.680696
20
32.452993
11
23.868739
21
33.112471
0
LINE
8
annotation
62
1
39
211
10
24.010409
20
32.264471
11
24.010409
21
32.641089
0
LINE
8
annotation
62
1
39
211
10
28.763558
20
32.684643
11
28.755903
21
32.684643
0
LINE
8
annotation
62
1
39
211
10
28.755903
20
32.684643
11
28.758960
21
32.695365
0
LINE
8
annotation
62
1
39
211
10
28.761263
20
32.681578
11
28.761263
21
32.687701
0
LINE
8
annotation
62
1
39
211
10
11.888572
20
15.608571
11
10.458270
21
15.608571
0
LINE
8
annotation
62
1
39
211
10
10.458270
20
15.608571
11
11.888572
21
18.184537
0
LINE
8
annotation
62
1
39
211
10
11.888572
20
18.184537
11
10.458270
21
18.184537
0
LINE
8
annotation
62
1
39
211
10
14.263296
20
16.896554
11
12.854802
21
16.896554
0
LINE
8
annotation
62
1
39
211
10
15.229041
20
15.608651
11
15.801065
21
15.608651
0
LINE
8
annotation
62
1
39
211
10
15.801065
20
15.608651
11
15.801065
21
15.608651
0
LINE
8
annotation
62
1
39
211
10
15.801065
20
15.608651
11
15.903945
21
15.617880
0
LINE
8
annotation
62
1
39
211
10
15.903945
20
15.617880
11
16.000752
21
15.644479
0
LINE
8
annotation
62
1
39
211
10
16.000752
20
15.644479
11
16.089874
21
15.686814
0
LINE
8
annotation
62
1
39
211
10
16.089874
20
15.686814
11
16.169703
21
15.743254
0
LINE
8
annotation
62
1
39
211
10
16.169703
20
15.743254
11
16.238629
21
15.812165
0
LINE
8
annotation
62
1
39
211
10
16.238629
20
15.812165
11
16.295040
21
15.891914
0
LINE
8
annotation
62
1
39
211
10
16.295040
20
15.891914
11
16.337327
21
15.980870
0
LINE
8
annotation
62
1
39
211
10
16.337327
20
15.980870
11
16.363880
21
16.077398
0
LINE
8
annotation
62
1
39
211
10
16.363880
20
16.077398
11
16.373089
21
16.179868
0
LINE
8
annotation
62
1
39
211
10
16.373089
20
16.179868
11
16.373089
21
16.466284
0
LINE
8
annotation
62
1
39
211
10
16.373089
20
16.466284
11
16.373089
21
16.466284
0
LINE
8
annotation
62
1
39
211
10
16.373089
20
16.466284
11
16.363880
21
16.568710
0
LINE
8
annotation
62
1
39
211
10
16.363880
20
16.568710
11
16.337327
21
16.665217
0
LINE
8
annotation
62
1
39
211
10
16.337327
20
16.665217
11
16.295040
21
16.754165
0
LINE
8
annotation
62
1
39
211
10
16.295040
20
16.754165
11
16.238629
21
16.833920
0
LINE
8
annotation
62
1
39
211
10
16.238629
20
16.833920
11
16.169703
21
16.902844
0
LINE
8
annotation
62
1
39
211
10
16.169703
20
16.902844
11
16.089874
21
16.959301
0
LINE
8
annotation
62
1
39
211
10
16.089874
20
16.959301
11
16.000752
21
17.001654
0
LINE
8
annotation
62
1
39
211
10
16.000752
20
17.001654
11
15.903945
21
17.028266
0
LINE
8
annotation
62
1
39
211
10
15.903945
20
17.028266
11
15.801065
21
17.037500
0
LINE
8
annotation
62
1
39
211
10
15.801065
20
17.037500
11
15.514649
21
17.037500
0
LINE
8
annotation
62
1
39
211
10
15.514649
20
17.037500
11
15.801065
21
17.037500
0
LINE
8
annotation
62
1
39
211
10
15.801065
20
17.037500
11
15.801065
21
17.037500
0
LINE
8
annotation
62
1
39
211
10
15.801065
20
17.037500
11
15.903945
21
17.046737
0
LINE
8
annotation
62
1
39
211
10
15.903945
20
17.046737
11
16.000752
21
17.073364
0
LINE
8
annotation
62
1
39
211
10
16.000752
20
17.073364
11
16.089874
21
17.115759
0
LINE
8
annotation
62
1
39
211
10
16.089874
20
17.115759
11
16.169703
21
17.172297
0
LINE
8
annotation
62
1
39
211
10
16.169703
20
17.172297
11
16.238629
21
17.241357
0
LINE
8
annotation
62
1
39
211
10
16.238629
20
17.241357
11
16.295040
21
17.321313
0
LINE
8
annotation
62
1
39
211
10
16.295040
20
17.321313
11
16.337327
21
17.410544
0
LINE
8
annotation
62
1
39
211
10
16.337327
20
17.410544
11
16.363880
21
17.507424
0
LINE
8
annotation
62
1
39
211
10
16.363880
20
17.507424
11
16.373089
21
17.610332
0
LINE
8
annotation
62
1
39
211
10
16.373089
20
17.610332
11
16.373089
21
17.610332
0
LINE
8
annotation
62
1
39
211
10
16.373089
20
17.610332
11
16.363880
21
17.712759
0
LINE
8
annotation
62
1
39
211
10
16.363880
20
17.712759
11
16.337327
21
17.809265
0
LINE
8
annotation
62
1
39
211
10
16.337327
20
17.809265
11
16.295040
21
17.898214
0
LINE
8
annotation
62
1
39
211
10
16.295040
20
17.898214
11
16.238629
21
17.977968
0
LINE
8
annotation
62
1
39
211
10
16.238629
20
17.977968
11
16.169703
21
18.046893
0
LINE
8
annotation
62
1
39
211
10
16.169703
20
18.046893
11
16.089874
21
18.103349
0
LINE
8
annotation
62
1
39
211
10
16.089874
20
18.103349
11
16.000752
21
18.145702
0
LINE
8
annotation
62
1
39
211
10
16.000752
20
18.145702
11
15.903945
21
18.172314
0
LINE
8
annotation
62
1
39
211
10
15.903945
20
18.172314
11
15.801065
21
18.181548
0
LINE
8
annotation
62
1
39
211
10
15.801065
20
18.181548
11
15.229041
21
18.181548
0
LINE
8
frame
62
5
39
2
10
0.000000
20
0.000000
11
40.000000
21
0.000000
0
LINE
8
frame
62
5
39
2
10
40.000000
20
0.000000
11
40.000000
21
40.000000
0
LINE
8
frame
62
5
39
2
10
40.000000
20
40.000000
11
0.000000
21
40.000000
0
LINE
8
frame
62
5
39
2
10
0.000000
20
40.000000
11
0.000000
21
0.000000
0
ENDSEC
0
EOF
