<?xml version="1.0" encoding="utf-8"?>
<!-- Generator: Adobe Illustrator 22.1.0, SVG Export Plug-In . SVG Version: 6.00 Build 0)  -->
<svg version="1.1" id="Layer_1" xmlns="http://www.w3.org/2000/svg" xmlns:xlink="http://www.w3.org/1999/xlink" x="0px" y="0px"
	 viewBox="0 0 818.9 792" style="enable-background:new 0 0 818.9 792;" xml:space="preserve">
<style type="text/css">
	.st0{fill:none;stroke:#EC008C;stroke-width:2;stroke-linecap:round;stroke-linejoin:round;stroke-miterlimit:10;}
	.st1{opacity:0.53;}
	.st2{fill:none;stroke:#BE1E2D;stroke-width:2;stroke-linecap:round;stroke-linejoin:round;stroke-miterlimit:10;}
</style>
<g>
	<path d="M353.4,582.8c-2.3-0.9-4.5-1.6-6.7-2.4l-6.6-2.3c-4.4-1.6-8.6-3.2-12.9-4.8c-4.3-1.6-8.5-3.2-12.8-4.7
		c-2.1-0.7-4.3-1.4-6.5-2.1c-2.2-0.6-4.4-1.2-6.9-1.5c2.2-1.1,4.7-1.6,7.1-1.9c2.5-0.2,4.9-0.2,7.4,0.1c4.9,0.6,9.6,1.8,14.1,3.5
		c4.5,1.7,8.8,3.8,12.9,6.4c2,1.3,4,2.7,5.9,4.2c0.9,0.8,1.8,1.6,2.7,2.5C351.9,580.8,352.8,581.8,353.4,582.8z"/>
</g>
<g>
	<path d="M239.9,444c7.7,2.1,15.2,4.9,22.5,8.4c7.2,3.6,14.2,7.8,20.5,13c1.5,1.3,3.1,2.6,4.7,4.1c1.5,1.4,3,3,4.2,4.7
		c2.6,3.4,4.7,7.2,6.1,11.2c0.3,1,0.7,2.1,0.9,3.1l0.8,2.9c0.5,2,0.9,4,1.3,5.9c0.8,4,1.5,8,1.9,12.1c0.9,8.1,1,16.4-0.1,24.7
		c-0.3,2.1-0.7,4.1-1.1,6.1l-0.8,3c-0.3,1-0.6,2.1-1,3.2c-1.6,4.1-3.8,7.6-6,11c-1.1,1.7-2.1,3.3-3.1,5l-1.5,2.6
		c-0.6,1-1.2,1.9-1.9,2.7c-1.3,1.7-2.8,3.2-4.3,4.6c-0.7,0.7-1.4,1.4-2.2,2.1c-0.8,0.7-1.6,1.4-2.4,2c-3.3,2.5-7,4.4-10.7,6.1
		l-5.5,2.4l-1.4,0.6c-0.4,0.2-1,0.4-1.5,0.5c-1,0.1-2,0-3,0c1-0.2,2-0.3,2.9-0.6c0.5-0.1,0.8-0.4,1.2-0.7l1.3-0.8l5.1-3.2
		c3.4-2.1,6.6-4.3,9.3-7c0.7-0.7,1.4-1.3,2-2c0.6-0.7,1.3-1.5,1.9-2.2c1.3-1.5,2.5-3,3.5-4.5c0.5-0.8,1-1.6,1.4-2.3
		c0.2-0.4,0.4-0.7,0.6-1.2c0.2-0.5,0.4-1,0.7-1.4c0.9-1.9,1.9-3.7,2.8-5.4c1.9-3.5,3.7-6.9,4.8-10.3c0.3-0.9,0.5-1.7,0.7-2.6
		l0.6-2.8l0.5-2.8c0.2-0.9,0.2-1.9,0.4-2.8c0.8-7.6,0.8-15.4,0-23.1c-0.3-3.9-0.9-7.7-1.5-11.6c-0.3-1.9-0.7-3.9-1-5.8l-0.6-2.9
		c-0.2-0.9-0.4-1.8-0.6-2.7c-1-3.6-2.5-7-4.5-10.1c-2.1-3.1-4.4-6.1-7.4-8.7c-5.8-5.3-12.2-9.9-19-13.9
		C254.5,450.4,247.3,447,239.9,444z"/>
</g>
<g>
	<path d="M339.4,564.5c-0.8-0.7-1.6-1.2-2.4-1.7l-2.3-1.5c-1.5-1-2.9-2.1-4.3-3.2c-1.4-1.1-2.8-2.3-4.1-3.6
		c-1.3-1.3-2.6-2.7-3.8-4.5c2.1-0.1,4.1,0.4,5.9,1.1c1.8,0.7,3.5,1.7,5.1,3c1.5,1.2,2.9,2.7,4,4.4c0.5,0.9,1,1.8,1.4,2.7
		C339.3,562.3,339.6,563.4,339.4,564.5z"/>
</g>
<g>
	<g>
		<g>
			<polyline class="st0" points="192.8,414.4 205.6,406.5 218.4,399.2 231.3,393.1 244.6,388.9 258.2,387.1 272.2,388.4 286.6,393 
				301.3,399.9 316.1,407.6 330.7,414.7 344.8,419.9 358.2,421.6 370.7,418.9 382.3,412.8 392.8,404.3 402.2,395 410.5,386 
				417.5,378.7 423.2,374 428,371.9 431.8,371.7 435,372.9 437.8,375.2 440.4,378 439.1,379.9 438,381.9 437,383.7 436.3,385.3 
				435.8,386.7 435.8,387.8 436.2,388.6 437.2,389.5 439,390.8 441.8,393 445.6,396.4 450.7,401.5 457,408.6 463.9,417 470.7,426.3 
				476.5,435.6 480.5,444.5 482,452.2 480.3,458.2 475.8,462.7 469.1,466 460.7,468.5 451.2,470.3 441.1,471.7 436.7,471.5 
				432.3,471.3 428.1,471.3 424,471.5 420.2,472.2 416.7,473.3 413.6,475 410.6,477.1 407.8,479.7 404.9,482.5 401.7,485.6 
				398.2,488.9 394.3,492.1 390.3,495.4 386.4,498.4 383.1,501.2 380.7,503.6 379.5,505.4 379.7,506.6 381.2,507.3 383.6,507.6 
				386.6,507.4 390,507 393.4,506.4 396.5,505.7 399.4,504.9 402.1,504.1 404.7,503.2 407.1,502.3 409.5,501.4 411.9,500.4 
				414.3,499.5 416.8,498.6 419.5,497.8 422.4,497 425.5,496.3 428.9,495.7 432.3,495.3 435.3,495.2 437.8,495.4 439.3,496.1 
				439.5,497.3 438.3,499.2 435.8,501.5 432.5,504.3 428.6,507.4 424.6,510.6 420.7,513.9 417.2,517.1 414.1,520.2 411.2,523.1 
				408.3,525.6 405.4,527.7 402.2,529.4 398.7,530.5 394.9,531.2 390.8,531.5 386.6,531.5 382.3,531.3 377.8,531 367.8,532.5 
				358.2,534.3 349.8,536.7 343.1,540 338.7,544.5 337,550.5 338.4,558.2 342.5,567.1 348.2,576.5 355,585.7 362,594.2 368.3,601.2 
				373.4,606.3 377.2,609.8 379.9,612 381.7,613.3 382.7,614.1 383.2,615 383.1,616.1 382.7,617.4 381.9,619.1 380.9,620.9 
				379.8,622.8 378.6,624.8 365.9,616.9 353.1,609.6 340.1,603.5 326.8,599.3 313.3,597.5 299.3,598.8 284.8,603.4 270.1,610.3 
				255.3,618 240.8,625.1 226.6,630.3 213.2,632 200.7,629.3 189.1,623.2 178.6,614.7 169.2,605.4 161,596.4 154,589.1 148.2,584.4 
				143.5,582.3 139.6,582 136.4,583.3 133.6,585.6 131.1,588.3 136.4,582.3 141.7,576.2 146.6,569.9 151,563.4 154.8,556.7 
				157.8,549.7 159.9,542.2 161.3,534.5 162,526.4 162.2,518.2 162.2,509.8 162,501.4 161.7,492.9 161.7,484.6 161.9,476.3 
				162.6,468.3 164,460.5 166.1,453.1 169.1,446 172.9,439.3 177.3,432.8 182.2,426.6 187.5,420.4 192.8,414.4 			"/>
		</g>
	</g>
	<g id="tileB_1_">
		<path class="st0" d="M192.8,414.4c25.4-16,50.8-32,79.3-26c28.5,6,60,34.1,86,33.2c26-0.9,46.5-30.8,59.3-42.9
			c12.8-12.1,17.8-6.4,22.9-0.7c-2.4,4-4.9,8-4.6,9.8c0.3,1.9,3.4,1.6,14.9,13.8c11.5,12.2,31.5,36.9,31.3,50.6
			c-0.2,13.8-20.5,16.7-40.9,19.6c-8.9-0.6-17.7-1.2-24.4,1.6c-6.7,2.8-11.1,9-18.5,15.5c-7.4,6.6-17.8,13.5-18.8,16.6
			c-1,3.1,7.4,2.3,13.9,1c6.6-1.3,11.3-3.2,16.1-5c4.8-1.9,9.5-3.7,16.1-5c6.6-1.3,14.9-2.1,13.9,1c-1,3.1-11.4,10-18.8,16.6
			c-7.4,6.6-11.9,12.7-18.5,15.5c-6.6,2.8-15.5,2.2-24.4,1.6c-20.3,2.9-40.7,5.8-40.9,19.6c-0.2,13.8,19.8,38.4,31.3,50.6
			c11.5,12.2,14.6,11.9,14.9,13.8c0.3,1.9-2.1,5.8-4.6,9.8c-25.4-16-50.8-32-79.3-26c-28.5,6-60,34.1-86.1,33.2
			c-26-0.9-46.5-30.8-59.3-42.9c-12.8-12.1-17.8-6.4-22.9-0.7c10.8-12.1,21.6-24.2,26.7-38.7c5.1-14.5,4.6-31.4,4.1-48.3
			c-0.5-16.9-1-33.8,4.1-48.3C171.2,438.6,182,426.5,192.8,414.4z"/>
	</g>
</g>
<g>
	<path d="M465.2,419.7c2.3,0.9,4.5,1.6,6.7,2.4l6.6,2.3c4.4,1.6,8.6,3.2,12.9,4.8c4.3,1.6,8.5,3.2,12.8,4.7c2.1,0.7,4.3,1.4,6.5,2.1
		c2.2,0.6,4.4,1.2,6.9,1.5c-2.2,1.1-4.7,1.6-7.1,1.9c-2.5,0.2-4.9,0.2-7.4-0.1c-4.9-0.6-9.6-1.8-14.1-3.5c-4.5-1.7-8.8-3.8-12.9-6.4
		c-2-1.3-4-2.7-5.9-4.2c-0.9-0.8-1.8-1.6-2.7-2.5C466.7,421.7,465.8,420.8,465.2,419.7z"/>
</g>
<g>
	<path d="M578.7,558.5c-7.7-2.1-15.2-4.9-22.5-8.4c-7.2-3.6-14.2-7.8-20.5-13c-1.5-1.3-3.1-2.6-4.7-4.1c-1.5-1.4-3-3-4.2-4.7
		c-2.6-3.4-4.7-7.2-6.1-11.2c-0.3-1-0.7-2.1-0.9-3.1l-0.8-2.9c-0.5-2-0.9-4-1.3-5.9c-0.8-4-1.5-8-1.9-12.1c-0.9-8.1-1-16.4,0.1-24.7
		c0.3-2.1,0.7-4.1,1.1-6.1l0.8-3c0.3-1,0.6-2.1,1-3.2c1.6-4.1,3.8-7.6,6-11c1.1-1.7,2.1-3.3,3.1-5l1.5-2.6c0.6-1,1.2-1.9,1.9-2.7
		c1.3-1.7,2.8-3.2,4.3-4.6c0.7-0.7,1.4-1.4,2.2-2.1c0.8-0.7,1.6-1.4,2.4-2c3.3-2.5,7-4.4,10.7-6.1l5.5-2.4l1.4-0.6
		c0.4-0.2,1-0.4,1.5-0.5c1-0.1,2,0,3,0c-1,0.2-2,0.3-2.9,0.6c-0.5,0.1-0.8,0.4-1.2,0.7l-1.3,0.8l-5.1,3.2c-3.4,2.1-6.6,4.3-9.3,7
		c-0.7,0.7-1.4,1.3-2,2c-0.6,0.7-1.3,1.5-1.9,2.2c-1.3,1.5-2.5,3-3.5,4.5c-0.5,0.8-1,1.6-1.4,2.3c-0.2,0.4-0.4,0.7-0.6,1.2
		c-0.2,0.5-0.4,1-0.7,1.4c-0.9,1.9-1.9,3.7-2.8,5.4c-1.9,3.5-3.7,6.9-4.8,10.3c-0.3,0.9-0.5,1.7-0.7,2.6l-0.6,2.8l-0.5,2.8
		c-0.2,0.9-0.2,1.9-0.4,2.8c-0.8,7.6-0.8,15.4,0,23.1c0.3,3.9,0.9,7.7,1.5,11.6c0.3,1.9,0.7,3.9,1,5.8l0.6,2.9
		c0.2,0.9,0.4,1.8,0.6,2.7c1,3.6,2.5,7,4.5,10.1c2.1,3.1,4.4,6.1,7.4,8.7c5.8,5.3,12.2,9.9,19,13.9
		C564.1,552.1,571.3,555.6,578.7,558.5z"/>
</g>
<g>
	<path d="M479.2,438c0.8,0.7,1.6,1.2,2.4,1.7l2.3,1.5c1.5,1,2.9,2.1,4.3,3.2c1.4,1.1,2.8,2.3,4.1,3.6c1.3,1.3,2.6,2.7,3.8,4.5
		c-2.1,0.1-4.1-0.4-5.9-1.1c-1.8-0.7-3.5-1.7-5.1-3c-1.5-1.2-2.9-2.7-4-4.4c-0.5-0.9-1-1.8-1.4-2.7C479.3,440.2,479,439.1,479.2,438
		z"/>
</g>
<g class="st1">
	<g>
		<g>
			<polyline class="st2" points="625.8,588.2 613,596.1 600.2,603.3 587.2,609.4 574,613.6 560.4,615.4 546.4,614.1 532,609.5 
				517.2,602.6 502.5,594.9 487.9,587.8 473.8,582.7 460.4,580.9 447.8,583.6 436.3,589.8 425.8,598.2 416.4,607.5 408.1,616.5 
				401.1,623.9 395.3,628.5 390.6,630.7 386.8,630.9 383.6,629.6 380.8,627.4 378.2,624.6 379.4,622.6 380.6,620.7 381.5,618.9 
				382.3,617.3 382.7,615.9 382.8,614.8 382.4,614 381.4,613.1 379.6,611.8 376.8,609.6 373,606.1 367.9,601 361.6,594 354.7,585.5 
				347.9,576.3 342.1,566.9 338.1,558 336.6,550.4 338.3,544.3 342.8,539.8 349.5,536.5 357.9,534.1 367.4,532.3 377.5,530.8 
				381.9,531.1 386.3,531.3 390.5,531.3 394.5,531 398.3,530.4 401.8,529.2 405,527.6 408,525.4 410.8,522.9 413.7,520 416.9,516.9 
				420.3,513.7 424.2,510.4 428.3,507.2 432.1,504.1 435.5,501.3 437.9,499 439.1,497.1 438.9,495.9 437.4,495.2 435,495 
				431.9,495.1 428.6,495.5 425.2,496.1 422,496.8 419.2,497.6 416.5,498.4 413.9,499.3 411.5,500.2 409.1,501.2 406.7,502.1 
				404.3,503 401.8,503.9 399.1,504.8 396.2,505.5 393,506.2 389.7,506.8 386.3,507.2 383.2,507.4 380.8,507.1 379.3,506.5 
				379.1,505.2 380.3,503.4 382.8,501 386.1,498.2 389.9,495.2 394,492 397.9,488.7 401.4,485.4 404.5,482.3 407.4,479.5 
				410.3,476.9 413.2,474.8 416.4,473.1 419.9,472 423.7,471.3 427.7,471.1 432,471.1 436.3,471.3 440.7,471.6 450.8,470.1 
				460.3,468.3 468.7,465.9 475.5,462.6 479.9,458 481.6,452 480.2,444.3 476.1,435.5 470.3,426.1 463.6,416.9 456.6,408.4 
				450.3,401.4 445.2,396.2 441.4,392.8 438.7,390.6 436.9,389.3 435.8,388.4 435.4,387.6 435.5,386.5 435.9,385.1 436.7,383.5 
				437.7,381.7 438.8,379.7 440,377.8 452.7,385.7 465.5,393 478.5,399 491.8,403.2 505.3,405 519.3,403.7 533.8,399.1 548.5,392.3 
				563.3,384.5 577.8,377.4 591.9,372.3 605.4,370.6 617.9,373.2 629.5,379.4 640,387.8 649.4,397.2 657.6,406.1 664.6,413.5 
				670.4,418.1 675.1,420.3 679,420.5 682.2,419.2 685,417 687.5,414.2 682.1,420.3 676.9,426.4 672,432.6 667.6,439.1 663.8,445.8 
				660.8,452.9 658.6,460.3 657.3,468.1 656.6,476.1 656.3,484.4 656.4,492.7 656.6,501.2 656.9,509.6 656.9,518 656.7,526.2 
				656,534.3 654.6,542 652.5,549.5 649.5,556.5 645.7,563.3 641.3,569.7 636.3,576 631.1,582.1 625.8,588.2 			"/>
		</g>
	</g>
	<g id="tileB_2_">
		<path class="st2" d="M625.8,588.2c-25.4,16-50.8,32-79.3,26c-28.5-6-60-34.1-86-33.2c-26,0.9-46.5,30.8-59.3,42.9
			c-12.8,12.1-17.8,6.4-22.9,0.7c2.4-4,4.9-8,4.6-9.8c-0.3-1.9-3.4-1.6-14.9-13.8c-11.5-12.2-31.5-36.9-31.3-50.6
			c0.2-13.8,20.5-16.7,40.9-19.6c8.9,0.6,17.7,1.2,24.4-1.6c6.7-2.8,11.1-9,18.5-15.5c7.4-6.6,17.8-13.5,18.8-16.6
			c1-3.1-7.4-2.3-13.9-1c-6.6,1.3-11.3,3.2-16.1,5c-4.8,1.9-9.5,3.7-16.1,5c-6.6,1.3-14.9,2.1-13.9-1c1-3.1,11.4-10,18.8-16.6
			c7.4-6.6,11.9-12.7,18.5-15.5c6.6-2.8,15.5-2.2,24.4-1.6c20.3-2.9,40.7-5.8,40.9-19.6c0.2-13.8-19.8-38.4-31.3-50.6
			c-11.5-12.2-14.6-11.9-14.9-13.8c-0.3-1.9,2.1-5.8,4.6-9.8c25.4,16,50.8,32,79.3,26c28.5-6,60-34.1,86.1-33.2
			c26,0.9,46.5,30.8,59.3,42.9c12.8,12.1,17.8,6.4,22.9,0.7c-10.8,12.1-21.6,24.2-26.7,38.7c-5.1,14.5-4.6,31.4-4.1,48.3
			c0.5,16.9,1,33.8-4.1,48.3C647.4,564,636.6,576.1,625.8,588.2z"/>
	</g>
</g>
<ellipse cx="442.1" cy="421" rx="2.8" ry="3.7"/>
<g>
	<path d="M601.1,209.7c-0.6,1.1-1.5,2-2.3,2.9c-0.9,0.9-1.8,1.7-2.7,2.5c-1.9,1.6-3.8,2.9-5.9,4.2c-4.1,2.6-8.4,4.7-12.9,6.4
		c-4.5,1.7-9.2,2.9-14.1,3.5c-2.4,0.3-4.9,0.3-7.4,0.1c-2.5-0.2-5-0.8-7.1-1.9c2.4-0.4,4.7-0.9,6.9-1.5c2.2-0.6,4.3-1.3,6.5-2.1
		c4.3-1.5,8.5-3.1,12.8-4.7c4.3-1.6,8.6-3.2,12.9-4.8l6.6-2.3C596.6,211.3,598.8,210.6,601.1,209.7z"/>
</g>
<g>
	<path d="M487.6,348.5c7.4-3,14.6-6.4,21.4-10.4c6.8-4,13.3-8.6,19-13.9c3-2.6,5.3-5.5,7.4-8.7c2-3.1,3.5-6.6,4.5-10.1
		c0.2-0.9,0.5-1.8,0.6-2.7l0.6-2.9c0.4-1.9,0.7-3.9,1-5.8c0.6-3.9,1.2-7.7,1.5-11.6c0.8-7.7,0.8-15.5,0-23.1
		c-0.1-0.9-0.2-1.9-0.4-2.8l-0.5-2.8l-0.6-2.8c-0.2-0.9-0.4-1.7-0.7-2.6c-1.1-3.4-3-6.8-4.8-10.3c-0.9-1.8-1.9-3.6-2.8-5.4
		c-0.2-0.5-0.4-0.9-0.7-1.4c-0.2-0.5-0.4-0.8-0.6-1.2c-0.4-0.8-0.9-1.6-1.4-2.3c-1-1.5-2.2-3-3.5-4.5c-0.6-0.7-1.3-1.5-1.9-2.2
		c-0.6-0.7-1.3-1.4-2-2c-2.7-2.7-6-4.9-9.3-7l-5.1-3.2l-1.3-0.8c-0.4-0.3-0.8-0.5-1.2-0.7c-0.9-0.3-1.9-0.3-2.9-0.6c1,0,2-0.1,3,0
		c0.5,0,1.1,0.3,1.5,0.5l1.4,0.6l5.5,2.4c3.7,1.6,7.3,3.5,10.7,6.1c0.8,0.6,1.6,1.3,2.4,2c0.8,0.7,1.5,1.4,2.2,2.1
		c1.4,1.4,2.9,2.9,4.3,4.6c0.7,0.8,1.3,1.7,1.9,2.7l1.5,2.6c1,1.7,2,3.3,3.1,5c2.2,3.4,4.4,6.9,6,11c0.4,1,0.7,2.1,1,3.2l0.8,3
		c0.4,2,0.8,4.1,1.1,6.1c1.2,8.2,1.1,16.5,0.1,24.7c-0.5,4.1-1.1,8.1-1.9,12.1c-0.4,2-0.9,4-1.3,5.9l-0.8,2.9
		c-0.3,1-0.6,2.1-0.9,3.1c-1.4,4.1-3.5,7.9-6.1,11.2c-1.3,1.7-2.7,3.2-4.2,4.7c-1.5,1.4-3.1,2.7-4.7,4.1c-6.3,5.2-13.3,9.4-20.5,13
		C502.8,343.6,495.3,346.4,487.6,348.5z"/>
</g>
<g>
	<path d="M587.1,228c0.2,1.1-0.1,2.2-0.5,3.1c-0.3,1-0.8,1.9-1.4,2.7c-1.1,1.7-2.5,3.1-4,4.4c-1.5,1.2-3.2,2.2-5.1,3
		c-1.8,0.7-3.8,1.2-5.9,1.1c1.2-1.8,2.5-3.2,3.8-4.5c1.3-1.3,2.7-2.5,4.1-3.6c1.4-1.1,2.8-2.1,4.3-3.2l2.3-1.5
		C585.4,229.2,586.2,228.7,587.1,228z"/>
</g>
<g>
	<g>
		<g>
			<polyline class="st0" points="440.5,378.2 435.1,372.1 429.9,366 425,359.7 420.6,353.3 416.8,346.5 413.8,339.5 411.6,332 
				410.3,324.3 409.6,316.2 409.3,308 409.4,299.6 409.6,291.2 409.8,282.7 409.9,274.4 409.7,266.1 409,258.1 407.6,250.3 
				405.5,242.9 402.5,235.8 398.7,229.1 394.2,222.6 389.3,216.4 384.1,210.3 378.7,204.2 381.3,207 384.1,209.2 387.3,210.5 
				391.1,210.3 395.8,208.1 401.6,203.5 408.6,196.1 416.9,187.2 426.3,177.8 436.8,169.4 448.3,163.2 460.9,160.6 474.3,162.3 
				488.4,167.4 503,174.5 517.7,182.3 532.5,189.1 546.9,193.7 560.9,195 574.5,193.2 587.7,189 600.7,183 613.5,175.7 626.3,167.8 
				627.5,169.7 628.6,171.7 629.6,173.5 630.3,175.1 630.8,176.5 630.8,177.6 630.4,178.4 629.4,179.3 627.6,180.6 624.9,182.8 
				621,186.2 615.9,191.4 609.6,198.4 602.7,206.9 595.9,216.1 590.1,225.5 586.1,234.3 584.6,242 586.3,248 590.8,252.6 
				597.5,255.9 605.9,258.3 615.4,260.1 625.5,261.6 629.9,261.3 634.3,261.1 638.5,261.1 642.6,261.3 646.4,262 649.9,263.1 
				653,264.8 656,266.9 658.8,269.5 661.8,272.3 664.9,275.4 668.4,278.7 672.3,282 676.3,285.2 680.2,288.2 683.5,291 685.9,293.4 
				687.2,295.2 686.9,296.5 685.4,297.1 683,297.4 680,297.2 676.6,296.8 673.2,296.2 670.1,295.5 667.2,294.8 664.5,293.9 662,293 
				659.5,292.1 657.1,291.2 654.8,290.2 652.3,289.3 649.8,288.4 647.1,287.6 644.2,286.8 641.1,286.1 637.7,285.5 634.3,285.1 
				631.3,285 628.8,285.2 627.4,285.9 627.1,287.1 628.3,289 630.8,291.3 634.1,294.1 638,297.2 642,300.4 645.9,303.7 649.4,306.9 
				652.5,310 655.4,312.9 658.3,315.4 661.3,317.6 664.4,319.2 667.9,320.4 671.7,321 675.8,321.3 680,321.3 684.4,321.1 
				688.8,320.8 698.8,322.3 708.4,324.1 716.8,326.5 723.5,329.8 728,334.3 729.6,340.4 728.2,348 724.2,356.9 718.4,366.3 
				711.6,375.5 704.7,384 698.3,391 693.2,396.1 689.4,399.6 686.7,401.8 684.9,403.1 683.9,404 683.5,404.8 683.5,405.9 684,407.3 
				684.7,408.9 685.7,410.7 686.8,412.6 688,414.6 685.5,417.4 682.7,419.6 679.5,420.9 675.6,420.7 670.9,418.5 665.1,413.9 
				658.1,406.5 649.9,397.5 640.5,388.2 630,379.8 618.4,373.6 605.9,370.9 592.4,372.7 578.3,377.8 563.8,384.9 549,392.6 
				534.3,399.5 519.8,404.1 505.8,405.4 492.2,403.6 479,399.4 466,393.3 453.2,386.1 440.5,378.2 			"/>
		</g>
	</g>
	<g id="tileB_3_">
		<path class="st0" d="M413.8,339.5c-5.1-14.5-4.6-31.4-4.1-48.3c0.5-16.9,1-33.8-4.1-48.3c-5.1-14.5-15.9-26.6-26.7-38.7
			c5.1,5.7,10.1,11.4,22.9-0.7c12.8-12.1,33.2-42,59.3-42.9c26-0.9,57.6,27.2,86.1,33.2c28.5,6,53.9-10,79.3-26c2.4,4,4.9,8,4.6,9.8
			c-0.3,1.9-3.4,1.6-14.9,13.8c-11.5,12.2-31.5,36.9-31.3,50.6c0.2,13.8,20.5,16.7,40.9,19.6c8.9-0.6,17.7-1.2,24.4,1.6
			c6.7,2.8,11.1,9,18.5,15.5c7.4,6.6,17.8,13.5,18.8,16.6c1,3.1-7.4,2.3-13.9,1c-6.6-1.3-11.3-3.2-16.1-5c-4.8-1.9-9.5-3.7-16.1-5
			c-6.6-1.3-14.9-2.1-13.9,1c1,3.1,11.4,10,18.8,16.6c7.4,6.6,11.9,12.7,18.5,15.5c6.6,2.8,15.5,2.2,24.4,1.6
			c20.3,2.9,40.7,5.8,40.9,19.6c0.2,13.8-19.8,38.4-31.3,50.6c-11.5,12.2-14.6,11.9-14.9,13.8c-0.3,1.9,2.1,5.8,4.6,9.8
			c-5.1,5.7-10.1,11.4-22.9-0.7c-12.8-12.1-33.2-42-59.3-42.9c-26-0.9-57.6,27.2-86,33.2c-28.5,6-53.9-10-79.3-26
			C429.7,366.1,418.9,354,413.8,339.5z"/>
	</g>
</g>
<ellipse cx="689.8" cy="371.5" rx="2.8" ry="3.7"/>
<g>
	<path d="M217.3,371.8c0.6-1.1,1.5-2,2.3-2.9c0.9-0.9,1.8-1.7,2.7-2.5c1.9-1.6,3.8-2.9,5.9-4.2c4.1-2.6,8.4-4.7,12.9-6.4
		c4.5-1.7,9.2-2.9,14.1-3.5c2.4-0.3,4.9-0.3,7.4-0.1c2.5,0.2,5,0.8,7.1,1.9c-2.4,0.4-4.7,0.9-6.9,1.5c-2.2,0.6-4.3,1.3-6.5,2.1
		c-4.3,1.5-8.5,3.1-12.8,4.7c-4.3,1.6-8.6,3.2-12.9,4.8l-6.6,2.3C221.8,370.2,219.6,370.9,217.3,371.8z"/>
</g>
<g>
	<path d="M330.8,233c-7.4,3-14.6,6.4-21.4,10.4c-6.8,4-13.3,8.6-19,13.9c-3,2.6-5.3,5.5-7.4,8.7c-2,3.1-3.5,6.6-4.5,10.1
		c-0.2,0.9-0.5,1.8-0.6,2.7l-0.6,2.9c-0.4,1.9-0.7,3.9-1,5.8c-0.6,3.9-1.2,7.7-1.5,11.6c-0.8,7.7-0.8,15.5,0,23.1
		c0.1,0.9,0.2,1.9,0.4,2.8l0.5,2.8l0.6,2.8c0.2,0.9,0.4,1.7,0.7,2.6c1.1,3.4,3,6.8,4.8,10.3c0.9,1.8,1.9,3.6,2.8,5.4
		c0.2,0.5,0.4,0.9,0.7,1.4c0.2,0.5,0.4,0.8,0.6,1.2c0.4,0.8,0.9,1.6,1.4,2.3c1,1.5,2.2,3,3.5,4.5c0.6,0.7,1.3,1.5,1.9,2.2
		c0.6,0.7,1.3,1.4,2,2c2.7,2.7,6,4.9,9.3,7l5.1,3.2l1.3,0.8c0.4,0.3,0.8,0.5,1.2,0.7c0.9,0.3,1.9,0.3,2.9,0.6c-1,0-2,0.1-3,0
		c-0.5,0-1.1-0.3-1.5-0.5l-1.4-0.6l-5.5-2.4c-3.7-1.6-7.3-3.5-10.7-6.1c-0.8-0.6-1.6-1.3-2.4-2c-0.8-0.7-1.5-1.4-2.2-2.1
		c-1.4-1.4-2.9-2.9-4.3-4.6c-0.7-0.8-1.3-1.7-1.9-2.7l-1.5-2.6c-1-1.7-2-3.3-3.1-5c-2.2-3.4-4.4-6.9-6-11c-0.4-1-0.7-2.1-1-3.2
		l-0.8-3c-0.4-2-0.8-4.1-1.1-6.1c-1.2-8.2-1.1-16.5-0.1-24.7c0.5-4.1,1.1-8.1,1.9-12.1c0.4-2,0.9-4,1.3-5.9l0.8-2.9
		c0.3-1,0.6-2.1,0.9-3.1c1.4-4.1,3.5-7.9,6.1-11.2c1.3-1.7,2.7-3.2,4.2-4.7c1.5-1.4,3.1-2.7,4.7-4.1c6.3-5.2,13.3-9.4,20.5-13
		C315.6,237.9,323.1,235.1,330.8,233z"/>
</g>
<g>
	<path d="M231.3,353.5c-0.2-1.1,0.1-2.2,0.5-3.1c0.3-1,0.8-1.9,1.4-2.7c1.1-1.7,2.5-3.1,4-4.4c1.5-1.2,3.2-2.2,5.1-3
		c1.8-0.7,3.8-1.2,5.9-1.1c-1.2,1.8-2.5,3.2-3.8,4.5c-1.3,1.3-2.7,2.5-4.1,3.6c-1.4,1.1-2.8,2.1-4.3,3.2l-2.3,1.5
		C232.9,352.3,232.1,352.8,231.3,353.5z"/>
</g>
<g>
	<g>
		<g>
			<polyline class="st0" points="377.9,203.4 383.2,209.4 388.5,215.6 393.4,221.8 397.8,228.3 401.6,235 404.6,242.1 406.8,249.5 
				408.1,257.3 408.8,265.3 409.1,273.6 409,281.9 408.8,290.4 408.5,298.8 408.5,307.2 408.7,315.4 409.4,323.5 410.8,331.2 
				412.9,338.7 415.9,345.7 419.7,352.4 424.1,358.9 429,365.2 434.3,371.3 439.6,377.3 437.1,374.6 434.3,372.3 431.1,371 
				427.2,371.3 422.5,373.4 416.8,378.1 409.7,385.4 401.5,394.4 392.1,403.7 381.6,412.2 370,418.3 357.5,421 344.1,419.3 
				330,414.1 315.4,407 300.6,399.3 285.9,392.4 271.4,387.8 257.4,386.5 243.9,388.3 230.6,392.5 217.7,398.6 204.8,405.9 
				192.1,413.8 190.9,411.8 189.8,409.9 188.8,408.1 188.1,406.4 187.6,405.1 187.6,404 188,403.1 189,402.3 190.8,401 193.5,398.8 
				197.3,395.3 202.4,390.2 208.8,383.2 215.7,374.7 222.5,365.5 228.3,356.1 232.3,347.2 233.7,339.5 232.1,333.5 227.6,329 
				220.9,325.7 212.5,323.3 202.9,321.5 192.9,320 188.4,320.3 184.1,320.5 179.9,320.5 175.8,320.2 172,319.5 168.5,318.4 
				165.3,316.7 162.4,314.6 159.5,312.1 156.6,309.2 153.5,306.1 150,302.9 146.1,299.6 142.1,296.4 138.2,293.3 134.9,290.5 
				132.4,288.2 131.2,286.3 131.5,285.1 132.9,284.4 135.4,284.2 138.4,284.3 141.8,284.7 145.2,285.3 148.3,286 151.2,286.8 
				153.9,287.6 156.4,288.5 158.9,289.4 161.2,290.4 163.6,291.3 166.1,292.2 168.6,293.1 171.3,293.9 174.2,294.7 177.3,295.4 
				180.7,296 184.1,296.4 187.1,296.6 189.5,296.3 191,295.6 191.2,294.4 190,292.6 187.6,290.2 184.3,287.4 180.4,284.4 
				176.4,281.1 172.5,277.9 169,274.6 165.9,271.5 162.9,268.7 160.1,266.1 157.1,264 154,262.3 150.5,261.2 146.7,260.5 
				142.6,260.3 138.4,260.3 134,260.5 129.6,260.7 119.5,259.3 110,257.5 101.6,255 94.9,251.7 90.4,247.2 88.7,241.2 90.2,233.5 
				94.2,224.6 100,215.3 106.8,206 113.7,197.6 120,190.5 125.1,185.4 129,182 131.7,179.8 133.5,178.5 134.5,177.6 134.9,176.8 
				134.9,175.7 134.4,174.3 133.7,172.7 132.7,170.9 131.6,168.9 130.4,167 132.9,164.2 135.7,161.9 138.9,160.7 142.8,160.9 
				147.5,163 153.2,167.7 160.3,175 168.5,184 177.9,193.3 188.4,201.8 200,207.9 212.5,210.6 225.9,208.9 240,203.7 254.6,196.6 
				269.4,188.9 284.1,182 298.5,177.4 312.6,176.1 326.1,177.9 339.4,182.1 352.3,188.2 365.1,195.5 377.9,203.4 			"/>
		</g>
	</g>
	<g id="tileB_4_">
		<path class="st0" d="M404.6,242.1c5.1,14.5,4.6,31.4,4.1,48.3c-0.5,16.9-1,33.8,4.1,48.3c5.1,14.5,15.9,26.6,26.7,38.7
			c-5.1-5.7-10.1-11.4-22.9,0.7c-12.8,12.1-33.2,42-59.3,42.9c-26,0.9-57.6-27.2-86.1-33.2c-28.5-6-53.9,10-79.3,26
			c-2.4-4-4.9-8-4.6-9.8c0.3-1.9,3.4-1.6,14.9-13.8c11.5-12.2,31.5-36.9,31.3-50.6c-0.2-13.8-20.5-16.7-40.9-19.6
			c-8.9,0.6-17.7,1.2-24.4-1.6c-6.7-2.8-11.1-9-18.5-15.5c-7.4-6.6-17.8-13.5-18.8-16.6c-1-3.1,7.4-2.3,13.9-1
			c6.6,1.3,11.3,3.2,16.1,5c4.8,1.9,9.5,3.7,16.1,5c6.6,1.3,14.9,2.1,13.9-1c-1-3.1-11.4-10-18.8-16.6c-7.4-6.6-11.9-12.7-18.5-15.5
			c-6.6-2.8-15.5-2.2-24.4-1.6c-20.3-2.9-40.7-5.8-40.9-19.6c-0.2-13.8,19.8-38.4,31.3-50.6c11.5-12.2,14.6-11.9,14.9-13.8
			c0.3-1.9-2.1-5.8-4.6-9.8c5.1-5.7,10.1-11.4,22.9,0.7c12.8,12.1,33.2,42,59.3,42.9c26,0.9,57.6-27.2,86-33.2
			c28.5-6,53.9,10,79.3,26C388.7,215.5,399.5,227.6,404.6,242.1z"/>
	</g>
</g>
<ellipse cx="128.6" cy="210" rx="2.8" ry="3.7"/>
<ellipse cx="376.1" cy="582" rx="2.8" ry="3.7"/>
</svg>
