<?xml version="1.0" encoding="utf-8"?>
<!-- Generator: Adobe Illustrator 22.1.0, SVG Export Plug-In . SVG Version: 6.00 Build 0)  -->
<svg version="1.1" id="Layer_1" xmlns="http://www.w3.org/2000/svg" xmlns:xlink="http://www.w3.org/1999/xlink" x="0px" y="0px"
	 viewBox="0 0 354.7 282.7" style="enable-background:new 0 0 354.7 282.7;" xml:space="preserve">
<style type="text/css">
	.st0{fill:#FFFFFF;}
</style>
<g>
	<path class="st0" d="M57.6,79.1c0-22.6,0-45.3,0-68c75.5,0,150.9,0,226.8,0c0,43.5,0,87.1,0,130.6c-1.1-6.7-2.2-13.4-3.3-20.1
		c-3.1-18.7-10.3-35-27-45.7c-16-10.3-33-14.2-51.9-9.6c-13.1,3.2-23.5-1.2-31.3-12.4c-5.5-7.9-11.4-15.5-17.7-22.8
		c-2.3-2.7-6.2-5.6-9.3-5.6c-7.7,0.1-12.3-4.3-16.8-9c-6.5-6.6-12.5-6-15.3,2.8c-2.5,7.9-7.9,11.8-14.7,15.8
		C90,39.4,83.5,45.4,78,51.7C70.6,60.3,64.4,69.9,57.6,79.1z"/>
	<path class="st0" d="M142.9,258.3c-28.4,0-56.9,0-85.3,0c0-58,0-115.9,0-173.9C62,91.8,68.7,96,76.7,98.1c5.4,1.4,11,2.5,16.6,2.8
		c5.9,0.3,10.4,1.6,12.2,8.1c1.1,3.9,2.2,8.1,4.4,11.5c4,6.3,8.7,12.1,13.4,18.6c-6.5,4.1-11.5,7.9-17.1,10.6
		c-6.3,3-12.4,6.3-20.3,4.6c-3.1-0.7-7.9,2-10.6,4.6c-6.2,5.7-4.3,13.1-2.4,20.2c2.3,8.9,11.6,17.3,20.1,17.8
		c13.6,0.8,17.9-1.9,22.2-12.8c9.6,0.8,18.8,1.7,28,2.3c6.5,0.4,13,0.1,13.1,9.6c0,2.4,2.4,4.8,3.6,7.1c1.1,2.1,2.2,4.3,3.6,6.9
		c-18.3-4.6-35.2-3.9-49.9,3.2c-4.2,2-7.3,6.5-10.7,10.1c-0.5,0.5,0.2,3.3,0.8,3.5c4.7,1.3,7,6.8,13.6,5.8c4.8-0.8,8.7-1.3,12.3-4.7
		c2.2-2.1,5.1-4.3,8-4.7c8.8-1.3,16.7,1.5,22.3,6.6c-6.6,2.1-14.8,2.9-20.4,7.1c-5.2,3.9-11.9,9.9-7,17.8
		C135.9,255.7,139.4,257,142.9,258.3z"/>
	<path d="M142.9,258.3c-3.5-1.3-7.1-2.6-10.7-4c-4.9-7.9,1.8-13.9,7-17.8c5.6-4.2,13.8-5,20.4-7.1c-5.6-5.1-13.4-7.9-22.3-6.6
		c-2.8,0.4-5.7,2.7-8,4.7c-3.6,3.3-7.5,3.9-12.3,4.7c-6.6,1-8.9-4.4-13.6-5.8c-0.6-0.2-1.3-3-0.8-3.5c3.4-3.6,6.5-8.1,10.7-10.1
		c14.7-7.1,31.6-7.8,49.9-3.2c-1.4-2.6-2.4-4.8-3.6-6.9c-1.3-2.4-3.6-4.7-3.6-7.1c-0.1-9.5-6.7-9.1-13.1-9.6
		c-9.2-0.6-18.5-1.5-28-2.3c-4.2,10.9-8.6,13.6-22.2,12.8c-8.5-0.5-17.9-8.9-20.1-17.8c-1.8-7.1-3.7-14.5,2.4-20.2
		c2.7-2.5,7.5-5.2,10.6-4.6c7.9,1.7,14-1.6,20.3-4.6c5.6-2.7,10.7-6.5,17.1-10.6c-4.7-6.4-9.4-12.2-13.4-18.6
		c-2.1-3.4-3.3-7.5-4.4-11.5c-1.8-6.4-6.2-7.8-12.2-8.1c-5.6-0.3-11.2-1.4-16.6-2.8c-8-2.1-14.7-6.2-19.1-13.6c0-1.8,0-3.6,0-5.4
		c6.7-9.2,13-18.8,20.4-27.4c5.5-6.3,12-12.3,19.1-16.5c6.8-4,12.1-7.9,14.7-15.8c2.8-8.8,8.8-9.4,15.3-2.8c4.6,4.6,9.2,9.1,16.8,9
		c3.1-0.1,7,2.9,9.3,5.6c6.3,7.3,12.2,14.9,17.7,22.8c7.8,11.2,18.2,15.5,31.3,12.4c18.9-4.6,35.9-0.7,51.9,9.6
		c16.7,10.7,23.9,27,27,45.7c1.1,6.7,2.2,13.4,3.3,20.1c0,1.8,0,3.6,0,5.4c-0.3,1.2-0.7,2.3-1,3.5c-5.2,20.5-8.8,41.7-21.6,59.3
		c-8.7,12-17.9,23.8-27.7,34.9c-3.4,3.9-9.1,7.2-14.1,7.9c-7,1-14.4-0.7-21.6-1.4c-9.1-0.9-18.2-2.3-27.3-2.9
		c-2.5-0.2-5.3,1.3-7.7,2.5c-2.5,1.2-4.5,3.2-7,4.2c-3.6,1.4-7.5,2.2-11.2,3.3C144.4,258.3,143.6,258.3,142.9,258.3z M128,141.2
		c-6.6,4.1-12.6,9-19.4,11.9c-6.9,2.9-13.2,8.2-22.2,5.2c-5.5-1.9-11.3,4.5-11.1,10.8c0.2,9.2,4.2,16.6,12.1,21.5
		c6.3,3.9,16.9,3,20.5-2.8c2.2-3.5,2-8.6,2.6-11.5c7.3,1.6,15.4,3.7,23.6,5.1c6.4,1,12.9,0.9,19.3,1.7c1.7,0.2,4.1,1.7,4.8,3.2
		c4.4,9.1,8.5,18.4,12.5,27.7c0.6,1.4,0.4,3.3,0.6,6.3c-10.7-6.5-20.1-10.8-31.8-9.1c-19,2.7-26.5,4.6-29.6,10.7
		c2.3-0.4,4.4-0.7,7.1-1.1c-1.4,2.4-2.4,4.2-3.9,6.8c3.6-1.4,6-2.4,8.4-3.3c0.5,1.1,1,2,1.5,3c10.1-8.9,22.3-11.1,31.1-6.6
		c7.1,3.6,14.8,6.1,22.1,9.2c1.6,0.7,2.9,1.9,4.3,2.9c-1.6,0.7-3.1,2-4.7,2.1c-9.7,0.7-19.4,0.8-29,1.8c-2.2,0.2-4.9,2.9-6.1,5.1
		c-1,2-0.2,5-0.2,7.2c11.4-9,11.4-9,16.1-5.5c-2.8,3.1-5.6,6.1-8.4,9.1c3.9-0.6,8.3-1,10.4-3.5c3.5-4.1,7.3-5.5,12.1-5
		c9.8,1,19.6,2.5,29.4,3.3c4,0.3,8.6-1.9,11.9-0.5c6.8,3,11.8,0.3,16.6-3.2c2.9-2.2,4.8-5.7,7.5-8.3c25-23.9,38.2-53.9,42.5-87.4
		c1.6-12.3-1.3-25.9-5-38.1C270.5,98.7,264.7,88,254,81c-16.1-10.6-32.9-15-52.1-10.3c-11.7,2.9-22.7,0-30.8-9.6
		c-4.5-5.3-7.7-11.7-12.4-16.9c-4.9-5.4-10.2-12.8-16.4-14.1c-7.8-1.6-12.9-5.3-18-10.1c-5-4.8-7-4.8-9,2.1
		c-2.4,8.2-7.9,12.2-14.9,16.3c-7.1,4.1-13.5,9.8-19,16c-6.6,7.5-12.1,16-17.5,24.4c-1,1.6-0.9,5.8,0.3,6.7
		c4.8,3.5,9.9,6.8,15.4,9.1c3.9,1.6,8.5,2,12.9,2.2c5.9,0.2,11.7,0.5,15.1,6.2c3.2,5.5,3.4,12,9.1,17.1
		C122.2,124.9,124.2,133.6,128,141.2z"/>
	<path class="st0" d="M145.1,258.3c3.8-1.1,7.6-1.8,11.2-3.3c2.5-1,4.6-3,7-4.2c2.5-1.2,5.2-2.7,7.7-2.5c9.1,0.6,18.2,2,27.3,2.9
		c7.2,0.7,14.6,2.4,21.6,1.4c5-0.7,10.7-4,14.1-7.9c9.8-11.2,19-22.9,27.7-34.9c12.7-17.6,16.4-38.8,21.6-59.3
		c0.3-1.2,0.7-2.3,1-3.5c0,37.1,0,74.2,0,111.2C238,258.3,191.5,258.3,145.1,258.3z"/>
	<path class="st0" d="M128,141.2c-3.8-7.6-5.8-16.3-11.3-21.2c-5.7-5.1-5.9-11.6-9.1-17.1c-3.3-5.7-9.1-6-15.1-6.2
		c-4.3-0.1-8.9-0.5-12.9-2.2C74.2,92.2,69,89,64.3,85.4c-1.2-0.9-1.4-5.1-0.3-6.7c5.5-8.4,10.9-16.9,17.5-24.4
		c5.4-6.1,11.9-11.9,19-16c7-4,12.6-8.1,14.9-16.3c2-6.9,3.9-6.9,9-2.1c5.1,4.8,10.2,8.6,18,10.1c6.2,1.3,11.5,8.7,16.4,14.1
		c4.7,5.2,7.9,11.6,12.4,16.9c8.1,9.6,19.1,12.5,30.8,9.6c19.2-4.7,36-0.4,52.1,10.3c10.7,7,16.5,17.7,19.8,28.7
		c3.7,12.2,6.6,25.8,5,38.1c-4.3,33.5-17.5,63.6-42.5,87.4c-2.7,2.6-4.5,6.1-7.5,8.3c-4.8,3.5-9.8,6.2-16.6,3.2
		c-3.2-1.4-7.9,0.8-11.9,0.5c-9.8-0.8-19.6-2.3-29.4-3.3c-4.8-0.5-8.7,0.9-12.1,5c-2.1,2.5-6.5,2.9-10.4,3.5c2.8-3,5.6-6.1,8.4-9.1
		c-4.7-3.6-4.7-3.6-16.1,5.5c0-2.2-0.8-5.2,0.2-7.2c1.1-2.2,3.8-4.8,6.1-5.1c9.6-1,19.3-1.1,29-1.8c1.6-0.1,3.1-1.4,4.7-2.1
		c-1.4-1-2.7-2.2-4.3-2.9c-7.4-3.1-15-5.6-22.1-9.2c-8.8-4.4-21.1-2.3-31.1,6.6c-0.5-1-1-2-1.5-3c-2.4,1-4.9,1.9-8.4,3.3
		c1.5-2.7,2.5-4.4,3.9-6.8c-2.7,0.4-4.8,0.7-7.1,1.1c3.1-6.1,10.6-8,29.6-10.7c11.7-1.6,21.1,2.6,31.8,9.1c-0.3-3,0-4.8-0.6-6.3
		c-4-9.3-8.1-18.6-12.5-27.7c-0.7-1.5-3-3-4.8-3.2c-6.4-0.8-13-0.7-19.3-1.7c-8.2-1.3-16.3-3.5-23.6-5.1c-0.6,2.9-0.4,8-2.6,11.5
		c-3.6,5.8-14.2,6.7-20.5,2.8c-8-4.9-11.9-12.3-12.1-21.5c-0.2-6.3,5.6-12.7,11.1-10.8c9,3.1,15.3-2.2,22.2-5.2
		C115.4,150.1,121.4,145.3,128,141.2z M140.7,157.2c-4.4,1.5-7.9,2.7-11.3,4c-1.1,0.4-2.6,0.7-2.9,1.5c-0.3,0.8,0.4,2.2,1.1,3.1
		c4.8,5.9,11.9,7,21.3,3.2C145.9,164.7,142.9,160.5,140.7,157.2z"/>
	<path d="M140.7,157.2c2.3,3.3,5.2,7.5,8.2,11.8c-9.4,3.8-16.5,2.7-21.3-3.2c-0.7-0.8-1.4-2.3-1.1-3.1c0.3-0.8,1.9-1.1,2.9-1.5
		C132.8,159.9,136.2,158.8,140.7,157.2z"/>
</g>
</svg>
