<?xml version="1.0" encoding="UTF-8" standalone="no"?>
<svg
   xmlns:dc="http://purl.org/dc/elements/1.1/"
   xmlns:cc="http://creativecommons.org/ns#"
   xmlns:rdf="http://www.w3.org/1999/02/22-rdf-syntax-ns#"
   xmlns:svg="http://www.w3.org/2000/svg"
   xmlns="http://www.w3.org/2000/svg"
   viewBox="0 0 816 1056"
   height="1056"
   width="816"
   xml:space="preserve"
   id="svg2"
   version="1.1"><metadata
     id="metadata8"><rdf:RDF><cc:Work
         rdf:about=""><dc:format>image/svg+xml</dc:format><dc:type
           rdf:resource="http://purl.org/dc/dcmitype/StillImage" /></cc:Work></rdf:RDF></metadata><defs
     id="defs6"><clipPath
       id="clipPath18"
       clipPathUnits="userSpaceOnUse"><path
         id="path16"
         d="M 0,792 H 612 V 0 H 0 Z" /></clipPath></defs><g
     transform="matrix(1.3333333,0,0,-1.3333333,0,1056)"
     id="g10"><g
       id="g12"><g
         clip-path="url(#clipPath18)"
         id="g14"><g
           transform="translate(238.3198,563.7598)"
           id="g20"><path
             id="path22"
             style="fill:#ffffff;fill-opacity:1;fill-rule:nonzero;stroke:none"
             d="m 0,0 h -144.96 v 147.36 h 59.04 c -0.846,-0.161 -1.688,-0.337 -2.537,-0.48 -7.662,-1.297 -14.451,-4.412 -19.846,-10.071 -8.701,-9.128 -11.024,-20.118 -8.66,-32.21 1.984,-10.147 6.534,-19.147 13.011,-27.182 0.946,-1.173 1.927,-2.317 2.88,-3.46 -2.012,-2.42 -3.932,-4.821 -5.978,-7.109 -0.382,-0.427 -1.277,-0.572 -1.92,-0.54 -0.732,0.036 -1.437,0.451 -2.17,0.643 -7.65,2 -14.774,0.865 -21.138,-3.884 -11.188,-8.348 -15.799,-22.45 -10.008,-36.749 2.335,-5.766 6.013,-10.909 10.483,-15.367 0.222,-0.221 0.468,-0.458 0.585,-0.738 1.471,-3.519 4.381,-4.972 7.901,-5.668 5.131,-1.014 10.428,-0.477 15.541,-1.873 3.203,-0.874 6.628,-0.644 9.851,-1.789 2.217,-0.788 4.514,-0.313 6.49,1.135 0.676,0.495 1.329,1.02 2.002,1.519 1.437,1.066 2.462,2.46 2.784,4.201 0.25,1.356 0.164,2.773 0.246,4.162 0.146,2.474 -0.714,4.572 -2.48,6.255 -2.564,2.445 -5.533,4.193 -9.066,4.845 -0.931,0.171 -1.874,0.282 -2.812,0.42 0,0.883 0.045,1.682 -0.013,2.474 -0.052,0.698 0.286,0.941 0.878,1.19 1.794,0.757 3.55,1.605 5.327,2.405 0.354,0.159 0.734,0.369 1.104,0.372 2.487,0.021 4.724,0.869 6.75,2.194 2.738,1.792 5.329,3.812 8.082,5.581 1.834,1.18 3.74,2.441 5.797,3.034 2.342,0.675 4.578,1.312 6.332,3.154 0.304,-0.221 0.566,-0.394 0.808,-0.592 2.293,-1.87 4.575,-3.753 6.874,-5.615 2.205,-1.786 4.402,-3.586 6.654,-5.312 0.931,-0.713 1.964,-1.357 3.34,-1.037 -0.132,0.315 -0.224,0.574 -0.345,0.819 -2.797,5.669 -4.594,11.62 -5.477,17.896 -0.675,4.793 0.002,9.124 3.013,13.01 1.247,1.61 2.437,3.272 3.559,4.971 1.606,2.43 3.251,4.847 4.651,7.395 1.864,3.393 1.816,6.922 -0.089,10.307 -1.055,1.874 -2.274,3.665 -3.525,5.417 -1.904,2.665 -3.958,5.224 -5.839,7.905 -1.531,2.183 -2.219,4.637 -2.051,7.357 0.381,6.136 1.694,12.067 4.502,17.518 1.193,2.315 0.974,3.835 -0.397,5.931 -5.287,8.081 -12.442,13.528 -21.727,16.119 -2.329,0.649 -4.749,0.973 -7.127,1.447 H 49.92 V 40.8 c -0.074,0.225 -0.186,0.445 -0.216,0.675 -0.677,5.084 -2.431,9.777 -5.401,13.942 -5.043,7.069 -11.648,11.511 -20.61,11.829 -3.036,0.107 -5.977,-0.264 -8.821,-1.347 -0.973,-0.37 -1.965,-0.588 -2.74,0.349 -0.829,1.002 -1.585,2.064 -2.384,3.116 0.24,0.26 0.418,0.473 0.618,0.664 8.285,7.905 14.324,17.249 17.82,28.166 3.214,10.04 3.813,19.979 -1.041,29.823 -1.546,3.135 -3.762,5.678 -5.829,8.372 -0.748,0.974 -1.932,1.609 -2.897,2.422 -0.874,0.736 -1.635,1.646 -2.598,2.228 -1.445,0.875 -3.012,1.552 -4.546,2.273 -1.671,0.786 -3.327,1.632 -5.062,2.248 -1.086,0.384 -2.314,0.35 -3.463,0.583 -0.839,0.17 -1.64,0.61 -2.479,0.684 -1.991,0.176 -4.001,0.345 -5.991,0.255 -1.842,-0.083 -3.665,-0.522 -5.5,-0.776 -1.008,-0.139 -2.072,-0.061 -3.023,-0.362 -1.76,-0.557 -3.461,-1.305 -5.174,-2.003 -1.493,-0.608 -3.018,-1.165 -4.437,-1.918 -0.961,-0.511 -1.754,-1.334 -2.639,-1.996 -1.259,-0.943 -2.599,-1.792 -3.78,-2.824 -0.818,-0.715 -1.425,-1.672 -2.127,-2.52 -1.01,-1.219 -2.074,-2.396 -3.011,-3.668 -0.583,-0.792 -1.012,-1.708 -1.443,-2.6 -1.435,-2.966 -3.03,-5.874 -4.209,-8.94 -1.582,-4.115 -2.255,-8.458 -2.56,-12.869 -0.197,-2.848 0.49,-5.396 2.064,-7.71 1.257,-1.85 2.649,-3.606 3.945,-5.431 1.779,-2.506 3.624,-4.973 5.248,-7.577 1.147,-1.841 1.793,-3.922 1.5,-6.173 -0.503,-3.861 -2.73,-6.898 -4.804,-9.997 -0.908,-1.357 -1.951,-2.623 -2.901,-3.953 -0.553,-0.774 -0.967,-1.656 -1.573,-2.382 -2.114,-2.534 -3.492,-5.403 -3.407,-8.713 0.073,-2.862 0.397,-5.741 0.884,-8.566 0.916,-5.297 2.828,-10.274 5.339,-15.105 3.953,3.121 7.835,6.202 11.745,9.248 0.361,0.28 0.934,0.522 1.355,0.454 3.312,-0.529 6.14,-2.089 8.795,-4.098 2.387,-1.806 4.877,-3.482 7.394,-5.104 2.038,-1.314 4.278,-2.151 6.763,-2.15 0.263,0 0.54,-0.11 0.786,-0.223 C 1.427,28.25 3.346,27.377 5.241,26.457 5.532,26.316 5.88,25.951 5.906,25.663 5.99,24.723 5.937,23.771 5.937,22.767 1.519,22.565 -2.247,20.888 -5.499,18.017 -7.078,16.623 -8.17,14.921 -8.356,12.781 -8.471,11.471 -8.489,10.144 -8.436,8.829 -8.333,6.315 -7.183,4.365 -5.169,2.843 -3.575,1.638 -1.993,0.46 0,0" /></g><g
           transform="translate(180.8047,611.4419)"
           id="g24"><path
             id="path26"
             style="fill:#231f20;fill-opacity:1;fill-rule:nonzero;stroke:none"
             d="m 0,0 c -0.084,-0.081 -0.168,-0.161 -0.252,-0.242 0.384,-1.504 -1.396,-2.004 -1.711,-3.337 0.894,0.193 1.721,0.371 2.665,0.575 C 0.45,-1.929 0.225,-0.964 0,0 m -36.058,-34.819 c -0.485,0.455 -0.971,0.91 -1.457,1.365 0.744,1.093 1.438,2.115 2.187,3.216 -0.713,0.449 -1.381,0.871 -2.133,1.344 -0.632,-1.18 -1.23,-2.295 -1.846,-3.444 -0.948,0.296 -1.844,0.574 -2.74,0.853 0.206,1.307 0.402,2.548 0.614,3.891 -1.248,0.128 -2.346,0.24 -3.491,0.357 -0.318,-1.208 -0.607,-2.309 -0.886,-3.371 -2.11,-0.055 -2.111,-0.055 -2.465,1.774 -0.244,1.254 -0.473,2.511 -0.728,3.763 -0.149,0.728 0.038,1.656 -1.085,1.852 -0.105,0.018 -0.141,0.484 -0.194,0.746 -0.435,2.172 1,3.443 2.236,4.802 0.966,-0.237 1.712,-1.478 2.773,-0.495 -0.026,1.104 -1.648,1.643 -0.897,2.912 0.577,0.977 1.427,1.544 2.641,1.546 0.427,-1.216 0.845,-2.407 1.295,-3.687 0.759,0.343 1.404,0.633 2.098,0.946 -0.657,1.207 -1.26,2.318 -1.851,3.405 1.952,1.639 3.9,3.067 6.685,2.1 0.241,-1.124 0.505,-2.354 0.795,-3.705 0.731,0.271 1.344,0.498 2.027,0.751 -0.562,1.268 -1.07,2.416 -1.589,3.587 1.178,0.703 2.268,1.353 3.441,2.053 0.719,-1.089 1.417,-2.145 2.174,-3.292 0.778,0.532 1.487,1.017 2.259,1.546 -0.797,1.115 -1.533,2.144 -2.308,3.229 1.41,1.088 2.758,2.128 4.197,3.239 0.792,-1.154 1.507,-2.197 2.248,-3.278 0.982,0.561 1.903,1.086 2.865,1.637 -0.583,1.23 -1.121,2.363 -1.769,3.729 1.992,0.665 3.842,1.283 5.743,1.919 0.502,-1.504 0.899,-2.696 1.332,-3.996 0.597,0.317 1.073,0.571 1.632,0.868 -0.845,1.151 -1.62,2.207 -2.395,3.263 0.099,0.117 0.198,0.234 0.298,0.351 1.017,-0.287 2.021,-0.63 3.054,-0.837 0.6,-0.12 1.245,-0.022 1.869,-0.022 0.022,0.128 0.043,0.256 0.065,0.384 0.77,-0.614 1.541,-1.229 2.367,-1.889 0.632,0.783 1.544,1.426 1.703,2.219 0.272,1.366 0.075,2.825 0.075,4.335 1.557,0.091 3.169,0.186 4.793,0.281 v 3.471 c -1.628,0.271 -3.218,0.536 -5.133,0.853 1.005,2.611 1.924,4.998 2.88,7.48 1.68,-0.951 3.058,-1.731 4.498,-2.546 0.569,0.897 1.097,1.729 1.677,2.641 -1.361,0.947 -2.693,1.873 -4.102,2.854 1.067,1.47 2.085,2.873 3.134,4.317 1.421,-1.033 2.699,-1.961 4.05,-2.943 0.582,0.839 1.089,1.569 1.616,2.327 -1.421,1.009 -2.715,1.928 -4.015,2.852 0.785,1.207 1.497,2.302 2.253,3.465 1.458,-0.782 2.852,-1.529 4.369,-2.342 0.35,0.768 0.665,1.459 1.014,2.225 -1.658,0.613 -3.145,1.163 -4.654,1.721 0.113,0.441 0.199,0.774 0.285,1.11 1.616,0.241 3.18,0.475 4.875,0.728 -0.217,0.74 -0.391,1.329 -0.594,2.017 C 10.146,35.015 8.684,34.42 7.164,33.801 6.567,34.81 6.015,35.747 5.449,36.704 6.831,37.668 8.137,38.58 9.515,39.542 8.959,40.285 8.445,40.973 7.877,41.733 6.5,40.691 5.215,39.719 3.905,38.729 c -1.079,1.378 -2.062,2.633 -3.103,3.962 1.329,1.038 2.611,2.04 3.932,3.072 -0.622,0.839 -1.205,1.625 -1.818,2.452 -1.419,-0.965 -2.734,-1.86 -4.233,-2.88 -1.136,2.135 -2.23,4.189 -3.388,6.364 1.802,0.645 3.324,1.19 4.769,1.707 -0.231,1.333 -0.439,2.544 -0.685,3.964 h -4.901 c 0.147,2.108 0.279,3.998 0.418,5.972 1.751,-0.208 3.324,-0.396 4.974,-0.592 0.176,1.028 0.342,1.995 0.523,3.042 -1.648,0.352 -3.228,0.689 -4.941,1.055 0.509,1.966 0.981,3.791 1.47,5.68 1.709,-0.518 3.224,-0.977 4.802,-1.456 0.34,1.003 0.654,1.927 0.988,2.91 -1.585,0.617 -3.061,1.191 -4.625,1.799 0.287,0.723 0.61,1.331 0.761,1.979 0.136,0.586 0.086,1.216 0.137,2.182 0.954,0.697 2.257,1.648 3.624,2.646 -0.6,0.736 -1.115,1.368 -1.664,2.04 -1.315,-1.114 -2.528,-2.143 -3.618,-3.066 -0.988,0.926 -1.915,1.795 -2.885,2.706 1.067,1.234 2.124,2.459 3.225,3.732 -0.721,0.595 -1.33,1.098 -2.013,1.661 -1.029,-1.346 -2.017,-2.638 -3.017,-3.946 -1.133,0.742 -2.195,1.436 -3.323,2.173 0.797,1.456 1.571,2.87 2.392,4.37 -0.866,0.417 -1.599,0.771 -2.38,1.147 -0.729,-1.562 -1.399,-2.997 -2.093,-4.483 -1.283,0.503 -2.484,0.974 -3.707,1.453 0.479,1.625 0.925,3.134 1.402,4.751 -0.945,0.222 -1.73,0.405 -2.568,0.602 -0.384,-1.669 -0.73,-3.175 -1.094,-4.763 -1.34,0.203 -2.585,0.391 -3.915,0.593 0.122,1.643 0.239,3.222 0.366,4.921 h -2.691 v -4.817 c -1.421,-0.087 -2.713,-0.165 -4.063,-0.248 -0.242,1.64 -0.472,3.202 -0.718,4.873 -0.912,-0.175 -1.712,-0.328 -2.584,-0.495 0.356,-1.671 0.686,-3.222 1.026,-4.814 -1.319,-0.383 -2.562,-0.743 -3.833,-1.111 -0.59,1.578 -1.146,3.063 -1.731,4.632 -0.854,-0.362 -1.607,-0.681 -2.431,-1.031 0.715,-1.579 1.377,-3.044 2.032,-4.489 -1.214,-0.662 -2.293,-1.249 -3.439,-1.873 -0.906,1.389 -1.773,2.719 -2.694,4.131 -0.736,-0.529 -1.402,-1.008 -2.132,-1.534 1.042,-1.348 2.013,-2.602 3.009,-3.89 -0.963,-0.878 -1.871,-1.707 -2.828,-2.58 -1.208,1.114 -2.396,2.209 -3.639,3.355 -0.596,-0.695 -1.108,-1.292 -1.678,-1.958 1.324,-1.063 2.586,-2.075 3.859,-3.096 -0.753,-1.112 -1.435,-2.119 -2.136,-3.154 -1.468,0.811 -2.858,1.579 -4.318,2.385 -0.407,-0.815 -0.771,-1.546 -1.163,-2.331 1.576,-0.722 3.015,-1.382 4.5,-2.062 -0.47,-1.267 -0.905,-2.437 -1.345,-3.624 -1.619,0.446 -3.111,0.858 -4.748,1.31 -0.193,-0.901 -0.369,-1.719 -0.554,-2.58 1.71,-0.34 3.227,-0.641 4.799,-0.954 -0.161,-1.329 -0.312,-2.576 -0.474,-3.912 -1.669,0.074 -3.275,0.145 -4.857,0.216 v -2.648 h 4.851 c 0.112,-1.351 0.216,-2.613 0.327,-3.958 -1.623,-0.255 -3.184,-0.5 -4.867,-0.765 0.163,-0.899 0.309,-1.701 0.477,-2.628 1.668,0.346 3.213,0.666 4.835,1.002 0.383,-1.398 0.749,-2.734 1.141,-4.165 -1.589,-0.518 -3.128,-1.019 -4.719,-1.538 0.314,-0.919 0.59,-1.727 0.884,-2.586 1.642,0.584 3.132,1.114 4.669,1.66 0.575,-1.407 1.111,-2.719 1.67,-4.089 -1.512,-0.699 -2.949,-1.363 -4.482,-2.072 0.414,-0.873 0.785,-1.654 1.178,-2.481 1.504,0.759 2.923,1.477 4.419,2.232 0.737,-1.293 1.443,-2.532 2.189,-3.841 -1.397,-0.883 -2.761,-1.745 -4.198,-2.653 0.551,-0.832 1.019,-1.542 1.509,-2.282 1.435,0.961 2.749,1.841 4.094,2.743 0.904,-1.235 1.746,-2.385 2.643,-3.61 -1.302,-1.04 -2.562,-2.046 -3.944,-3.15 1.438,-1.103 2.1,-2.559 3.771,-3.429 1.815,-0.946 3.008,-3.088 4.462,-4.696 -0.975,-1.139 -1.849,-2.158 -2.743,-3.201 -1.048,0.894 -2.01,1.714 -3.029,2.583 -0.667,-0.756 -1.268,-1.438 -1.917,-2.173 1.003,-0.912 1.942,-1.766 2.939,-2.672 -0.857,-1.003 -1.68,-1.965 -2.55,-2.984 -1.07,0.678 -2.141,1.356 -3.065,1.942 -1.07,-0.659 -1.951,-1.463 -2.979,-1.758 -1.009,-0.29 -2.167,-0.063 -3.384,-0.063 -0.334,-1.088 -0.701,-2.286 -1.091,-3.555 -1.323,0.396 -2.528,0.757 -3.777,1.131 0.142,1.306 0.277,2.548 0.425,3.9 h -2.483 v -3.831 c -1.289,-0.12 -2.499,-0.234 -3.754,-0.352 -0.263,1.309 -0.512,2.542 -0.783,3.887 -0.887,-0.228 -1.642,-0.422 -2.451,-0.63 0.376,-1.321 0.721,-2.535 1.07,-3.763 -1.039,-0.454 -1.977,-0.865 -3.015,-1.319 -0.668,1.095 -1.325,2.172 -2.049,3.358 -0.746,-0.519 -1.409,-0.98 -2.127,-1.479 0.828,-1.142 1.568,-2.162 2.313,-3.189 -1.04,-0.896 -1.998,-1.721 -2.969,-2.557 -0.971,0.919 -1.894,1.792 -2.862,2.709 -0.579,-0.664 -1.098,-1.258 -1.666,-1.911 1.063,-0.858 2.05,-1.653 3.071,-2.476 -0.723,-1.105 -1.417,-2.164 -2.14,-3.269 -1.157,0.623 -2.268,1.22 -3.49,1.879 -0.397,-0.834 -0.744,-1.563 -1.11,-2.332 1.289,-0.598 2.428,-1.126 3.552,-1.648 -0.462,-1.38 -0.877,-2.615 -1.311,-3.91 -1.292,0.366 -2.503,0.708 -3.846,1.089 -0.179,-0.874 -0.333,-1.626 -0.501,-2.445 1.396,-0.251 2.635,-0.475 3.88,-0.699 -0.086,-1.252 -0.163,-2.387 -0.244,-3.573 -1.303,-0.07 -2.521,-0.135 -3.864,-0.208 0.085,-0.939 0.157,-1.741 0.236,-2.606 1.412,0.152 2.63,0.284 3.927,0.424 0.272,-1.437 0.526,-2.785 0.786,-4.163 -1.336,-0.351 -2.551,-0.67 -3.852,-1.012 0.273,-0.903 0.496,-1.643 0.731,-2.425 1.33,0.461 2.521,0.875 3.694,1.282 0.622,-1.143 1.188,-2.182 1.769,-3.25 -1.165,-0.717 -2.264,-1.395 -3.395,-2.091 0.554,-0.872 1.019,-1.605 1.488,-2.342 1.177,0.715 2.259,1.372 3.374,2.05 0.881,-1.321 1.694,-2.54 2.536,-3.802 -1.096,-0.81 -2.113,-1.561 -3.203,-2.365 0.598,-0.765 1.12,-1.433 1.652,-2.113 1.1,0.883 2.087,1.673 3.179,2.549 1.121,-2.08 3.867,-2.724 4.067,-5.461 -1.147,-0.531 -2.32,-1.073 -3.584,-1.657 0.405,-0.578 0.714,-1.019 1.06,-1.512 0.706,0.671 1.365,1.2 1.901,1.833 0.676,0.797 1.327,1.053 2.196,0.195 -0.328,-1.175 -0.666,-2.385 -1.032,-3.694 0.856,-0.183 1.582,-0.339 2.408,-0.516 0.224,1.346 0.432,2.591 0.655,3.927 1.477,-0.142 2.893,-0.279 4.402,-0.424 -0.075,-1.332 -0.147,-2.587 -0.223,-3.929 0.994,-0.066 1.851,-0.124 2.886,-0.193 v 4.278 c 2.268,-0.388 4.305,-0.736 6.432,-1.1 -0.338,-1.525 -0.612,-2.759 -0.909,-4.099 0.89,-0.125 1.693,-0.238 2.533,-0.356 0.213,1.408 0.4,2.647 0.593,3.927 1.531,-0.165 2.902,-0.313 4.274,-0.46 v -3.777 c 1.135,-0.403 2.206,-0.783 3.359,-1.192 0.392,1.324 0.75,2.532 1.154,3.898 1.862,-0.757 1.214,-2.794 2.344,-3.924 0.473,0.316 0.968,0.646 1.694,1.129 -1.112,1.007 -2.048,1.854 -2.978,2.697 1.569,1.724 1.832,1.765 3.742,0.662 0.551,-0.317 1.107,-0.624 1.792,-1.009 0.192,0.606 0.363,1.143 0.566,1.786 -1.123,0.141 -2.065,0.341 -3.01,0.355 -0.799,0.012 -1.067,0.412 -1.11,1.073 -0.047,0.742 -0.028,1.488 -0.038,2.233 1.328,0.086 2.654,0.171 4.144,0.267 -0.257,0.655 -0.435,1.11 -0.621,1.583 -1.245,-0.654 -2.383,-1.252 -3.522,-1.849 m 13.893,134.497 c 2.378,-0.474 4.798,-0.798 7.127,-1.448 C -5.753,95.64 1.402,90.192 6.689,82.112 8.06,80.016 8.279,78.496 7.086,76.181 4.278,70.73 2.965,64.799 2.584,58.663 2.416,55.942 3.104,53.489 4.635,51.306 6.516,48.625 8.57,46.066 10.474,43.4 c 1.252,-1.752 2.47,-3.543 3.525,-5.416 1.905,-3.385 1.953,-6.914 0.089,-10.307 -1.4,-2.549 -3.045,-4.965 -4.65,-7.395 C 8.315,18.583 7.125,16.921 5.878,15.311 2.867,11.425 2.19,7.094 2.865,2.301 c 0.884,-6.277 2.68,-12.227 5.477,-17.896 0.121,-0.245 0.213,-0.504 0.346,-0.819 -1.376,-0.32 -2.41,0.324 -3.341,1.037 -2.252,1.726 -4.449,3.525 -6.654,5.312 -2.299,1.862 -4.581,3.745 -6.874,5.615 -0.242,0.198 -0.504,0.37 -0.808,0.592 -1.754,-1.842 -3.99,-2.479 -6.332,-3.154 -2.057,-0.593 -3.963,-1.854 -5.797,-3.034 -2.753,-1.769 -5.343,-3.789 -8.082,-5.581 -2.026,-1.325 -4.262,-2.173 -6.75,-2.194 -0.37,-0.003 -0.75,-0.213 -1.104,-0.372 -1.777,-0.8 -3.532,-1.648 -5.327,-2.405 -0.592,-0.249 -0.93,-0.492 -0.878,-1.191 0.058,-0.791 0.013,-1.59 0.013,-2.473 0.938,-0.138 1.881,-0.249 2.812,-0.421 3.534,-0.651 6.502,-2.4 9.066,-4.844 1.766,-1.683 2.626,-3.782 2.48,-6.255 -0.082,-1.389 0.004,-2.806 -0.246,-4.162 -0.322,-1.741 -1.347,-3.135 -2.784,-4.201 -0.673,-0.5 -1.326,-1.024 -2.002,-1.52 -1.976,-1.447 -4.273,-1.922 -6.49,-1.134 -3.223,1.145 -6.648,0.915 -9.851,1.789 -5.113,1.396 -10.409,0.859 -15.541,1.873 -3.52,0.696 -6.429,2.149 -7.901,5.668 -0.117,0.28 -0.363,0.517 -0.585,0.738 -4.47,4.458 -8.148,9.601 -10.483,15.367 -5.791,14.299 -1.18,28.401 10.008,36.749 6.365,4.749 13.489,5.884 21.138,3.884 0.733,-0.192 1.438,-0.607 2.17,-0.643 0.643,-0.032 1.538,0.113 1.92,0.54 2.046,2.288 3.966,4.688 5.978,7.108 -0.953,1.144 -1.934,2.288 -2.88,3.461 -6.477,8.035 -11.027,17.035 -13.011,27.182 -2.364,12.092 -0.041,23.082 8.66,32.209 5.395,5.66 12.184,8.775 19.846,10.072 0.849,0.143 1.692,0.319 2.537,0.48 z" /></g><g
           transform="translate(211.1089,631.6567)"
           id="g28"><path
             id="path30"
             style="fill:#231f20;fill-opacity:1;fill-rule:nonzero;stroke:none"
             d="M 0,0 C -1.503,0.944 -2.804,1.761 -4.145,2.604 -4.756,1.697 -5.287,0.912 -5.888,0.021 c 1.312,-0.941 2.565,-1.84 3.897,-2.795 -1.012,-1.385 -1.968,-2.693 -2.981,-4.078 -1.359,0.974 -2.608,1.869 -3.904,2.799 -0.591,-0.834 -1.094,-1.544 -1.645,-2.322 1.345,-0.907 2.625,-1.771 3.951,-2.667 -0.601,-1.033 -1.152,-1.979 -1.714,-2.945 -1.518,0.614 -2.945,1.192 -4.487,1.816 -0.209,-0.722 -0.376,-1.3 -0.574,-1.979 1.728,-0.15 3.269,-0.284 4.918,-0.427 v -3.488 c -1.55,-0.172 -3.087,-0.342 -4.795,-0.531 0.123,-0.962 0.234,-1.833 0.35,-2.741 1.753,0.254 3.318,0.48 4.922,0.711 0.302,-1.416 0.573,-2.69 0.86,-4.035 -1.659,-0.463 -3.245,-0.905 -4.882,-1.362 0.314,-0.99 0.573,-1.806 0.879,-2.774 0.886,0.493 1.615,0.899 2.536,1.412 -0.242,-2.02 -0.472,-3.826 -0.666,-5.636 -0.038,-0.348 0.06,-0.71 0.127,-1.382 1.977,2.144 5.249,2.787 4.524,6.693 0.709,-0.779 1.12,-1.231 1.577,-1.733 0.906,0.714 1.745,1.375 2.505,1.973 -0.743,1.217 -1.431,2.345 -2.208,3.619 2.503,0.691 4.682,1.521 6.966,1.933 0.05,-0.112 0.101,-0.224 0.152,-0.335 -0.798,-1.08 -1.595,-2.161 -2.474,-3.351 0.67,-0.251 1.21,-0.454 1.867,-0.701 0.426,1.278 0.823,2.47 1.325,3.975 1.907,-0.652 3.723,-1.274 5.656,-1.935 -0.66,-1.369 -1.21,-2.509 -1.784,-3.7 1.004,-0.57 1.932,-1.096 2.942,-1.669 0.742,1.087 1.456,2.131 2.24,3.278 1.411,-1.088 2.754,-2.124 4.133,-3.188 -0.787,-1.114 -1.517,-2.146 -2.298,-3.253 0.804,-0.544 1.518,-1.026 2.321,-1.569 0.757,1.145 1.455,2.199 2.176,3.291 1.152,-0.69 2.236,-1.339 3.384,-2.027 -0.539,-1.199 -1.055,-2.35 -1.625,-3.619 0.777,-0.243 1.432,-0.448 2.17,-0.68 0.285,1.38 0.532,2.579 0.774,3.746 3.637,0.278 3.637,0.278 6.587,-2.176 -0.592,-1.087 -1.194,-2.193 -1.863,-3.423 0.8,-0.339 1.471,-0.623 2.2,-0.932 0.467,1.313 0.888,2.497 1.286,3.617 1.336,0.061 2.371,-0.599 2.549,-1.567 0.161,-0.878 -0.494,-1.906 -0.8,-2.905 1.03,-0.912 1.776,0.299 2.685,0.565 1.57,-1.472 2.841,-3.06 2.023,-5.378 -0.404,-0.431 -0.803,-0.894 -0.933,-1.423 -0.349,-1.433 -0.574,-2.896 -0.867,-4.344 -0.377,-1.864 -0.384,-1.862 -2.414,-1.609 -0.201,0.821 -0.361,1.685 -0.638,2.508 -0.099,0.293 -0.487,0.699 -0.735,0.694 -0.983,-0.023 -1.963,-0.188 -3.034,-0.311 0.207,-1.372 0.395,-2.617 0.587,-3.883 -0.922,-0.287 -1.749,-0.544 -2.641,-0.821 -0.626,1.148 -1.231,2.258 -1.873,3.436 -0.757,-0.47 -1.427,-0.887 -2.179,-1.355 0.761,-1.155 1.47,-2.233 2.173,-3.301 -0.584,-0.511 -1.059,-0.927 -1.557,-1.363 -1.097,0.668 -2.173,1.324 -3.364,2.05 -0.222,-0.608 -0.389,-1.064 -0.6,-1.643 1.015,-0.167 1.87,-0.323 2.731,-0.447 1.181,-0.171 1.55,-0.622 1.385,-1.819 -0.058,-0.421 -0.205,-0.828 -0.304,-1.211 -1.328,-0.186 -2.576,-0.36 -3.966,-0.553 0.275,-0.703 0.481,-1.227 0.713,-1.822 0.846,0.488 1.616,0.792 2.208,1.302 1.164,1.003 2.539,0.214 3.121,-1.024 -0.876,-0.877 -1.748,-1.751 -2.74,-2.745 0.628,-0.389 1.178,-0.729 1.65,-1.022 1.133,1.146 0.532,3.139 2.298,3.925 0.42,-1.413 0.78,-2.622 1.164,-3.913 1.195,0.433 2.269,0.822 3.447,1.249 v 3.753 c 1.438,0.15 2.776,0.29 4.178,0.437 0.199,-1.313 0.388,-2.561 0.594,-3.924 0.933,0.151 1.76,0.285 2.604,0.423 -0.308,1.393 -0.574,2.591 -0.835,3.766 2.451,1.051 4.314,1.322 6.287,0.885 v -3.604 H 49.3 c -0.071,1.379 -0.136,2.633 -0.203,3.933 1.497,0.144 2.871,0.276 4.308,0.415 0.228,-1.338 0.44,-2.573 0.668,-3.906 0.911,0.202 1.661,0.368 2.479,0.549 -0.374,1.339 -0.704,2.522 -1.047,3.752 0.427,0.214 0.801,0.403 1.175,0.591 0.985,-0.917 1.907,-1.775 2.935,-2.732 0.374,0.61 0.666,1.087 0.992,1.621 -1.284,0.599 -2.427,1.132 -3.532,1.647 0.342,2.711 2.962,3.395 4.082,5.357 1.139,-0.918 2.12,-1.707 3.156,-2.542 0.587,0.771 1.092,1.433 1.665,2.184 -1.086,0.811 -2.123,1.584 -3.182,2.374 0.866,1.287 1.665,2.475 2.516,3.739 1.115,-0.692 2.19,-1.358 3.363,-2.086 0.516,0.847 0.985,1.617 1.497,2.458 -1.159,0.709 -2.239,1.37 -3.379,2.067 0.601,1.09 1.167,2.118 1.749,3.172 1.257,-0.422 2.446,-0.821 3.726,-1.25 0.249,0.91 0.455,1.661 0.687,2.509 -1.319,0.338 -2.503,0.641 -3.806,0.975 0.253,1.384 0.493,2.702 0.749,4.107 1.322,-0.148 2.572,-0.287 3.942,-0.44 0.08,0.924 0.151,1.742 0.231,2.678 -1.376,0.097 -2.628,0.185 -3.895,0.275 -0.065,1.207 -0.124,2.309 -0.185,3.449 1.316,0.246 2.548,0.476 3.888,0.726 -0.216,0.912 -0.395,1.67 -0.593,2.509 -1.122,-0.332 -2.102,-0.659 -3.103,-0.895 -0.265,-0.062 -0.797,0.084 -0.864,0.263 -0.412,1.103 -0.727,2.243 -1.088,3.415 1.195,0.545 2.31,1.053 3.558,1.622 -0.417,0.819 -0.789,1.551 -1.214,2.385 -1.199,-0.648 -2.305,-1.246 -3.458,-1.869 -0.72,1.106 -1.386,2.129 -2.092,3.214 1.039,0.84 2.021,1.634 3.071,2.484 -0.616,0.686 -1.164,1.297 -1.749,1.951 -1.022,-0.966 -1.938,-1.831 -2.864,-2.706 -1.024,0.898 -1.942,1.702 -2.884,2.528 0.781,1.083 1.518,2.106 2.311,3.205 -0.803,0.53 -1.484,0.981 -2.207,1.46 -0.742,-1.19 -1.411,-2.266 -2.073,-3.328 -1.015,0.461 -1.942,0.883 -2.92,1.328 0.363,1.281 0.704,2.484 1.069,3.774 -0.942,0.208 -1.729,0.382 -2.557,0.564 -0.271,-1.378 -0.508,-2.58 -0.754,-3.829 -1.26,0.113 -2.434,0.219 -3.711,0.333 v 4.005 c -0.921,-0.089 -1.716,-0.165 -2.551,-0.246 0.155,-1.418 0.288,-2.634 0.422,-3.862 -1.297,-0.372 -2.471,-0.709 -3.698,-1.062 -0.407,1.305 -0.782,2.507 -1.198,3.841 -2.532,-1.19 -4.399,-0.104 -6.117,1.604 -1.1,-0.692 -2.167,-1.362 -3.223,-2.026 -0.875,1.028 -1.667,1.959 -2.482,2.916 1.012,0.936 1.94,1.793 2.87,2.652 -0.396,0.492 -0.715,0.889 -1.058,1.316 1.099,1.093 2.161,2.149 3.259,3.241 -1.213,1.269 -2.362,2.47 -3.616,3.782 1.128,1.024 2.184,1.982 3.279,2.976 1.156,-1.026 2.405,-2.133 3.729,-3.308 0.64,0.76 1.219,1.446 1.834,2.174 -1.374,1.148 -2.652,2.216 -3.959,3.308 0.931,1.206 1.798,2.329 2.682,3.474 1.439,-1.009 2.775,-1.945 4.202,-2.946 0.546,0.82 1.043,1.569 1.573,2.365 -1.499,0.982 -2.892,1.894 -4.302,2.817 0.782,1.31 1.507,2.524 2.238,3.748 1.53,-0.816 2.964,-1.579 4.509,-2.402 0.439,0.896 0.829,1.692 1.244,2.539 -1.584,0.787 -3.033,1.508 -4.541,2.258 0.605,1.377 1.16,2.64 1.749,3.978 1.601,-0.614 3.116,-1.195 4.731,-1.815 0.337,0.922 0.642,1.756 0.97,2.655 -1.676,0.598 -3.193,1.141 -4.765,1.702 0.429,1.43 0.816,2.719 1.228,4.093 1.616,-0.394 3.188,-0.778 4.848,-1.182 0.158,0.61 0.293,1.143 0.435,1.673 0.198,0.739 0.097,1.172 -0.833,1.282 -1.296,0.153 -2.57,0.49 -3.887,0.755 0.188,1.348 0.364,2.602 0.556,3.971 1.648,-0.095 3.254,-0.186 4.927,-0.282 v 2.708 h -4.819 c -0.097,1.31 -0.185,2.526 -0.281,3.823 1.636,0.262 3.156,0.507 4.791,0.769 -0.174,0.911 -0.329,1.717 -0.503,2.627 -1.643,-0.374 -3.176,-0.723 -4.743,-1.08 -0.407,1.259 -0.77,2.379 -1.146,3.539 1.5,0.633 2.923,1.234 4.434,1.872 -0.405,0.856 -0.756,1.6 -1.143,2.418 -1.477,-0.748 -2.854,-1.444 -4.279,-2.165 -0.669,1.097 -1.306,2.141 -1.993,3.267 1.282,0.932 2.526,1.838 3.852,2.803 -0.598,0.734 -1.12,1.376 -1.679,2.062 -1.255,-1.052 -2.434,-2.04 -3.427,-2.871 -0.989,0.9 -1.869,1.701 -2.802,2.55 0.987,1.159 1.965,2.309 2.996,3.52 -0.732,0.57 -1.388,1.08 -2.113,1.644 -0.953,-1.311 -1.854,-2.552 -2.756,-3.793 -1.161,0.725 -2.164,1.351 -3.23,2.017 0.703,1.386 1.365,2.691 2.092,4.126 -0.843,0.385 -1.611,0.735 -2.441,1.113 -0.644,-1.514 -1.22,-2.865 -1.818,-4.27 -1.257,0.429 -2.447,0.836 -3.647,1.247 0.378,1.52 0.732,2.941 1.114,4.474 -0.928,0.203 -1.757,0.385 -2.638,0.577 -0.299,-1.607 -0.567,-3.052 -0.846,-4.559 -1.312,0.155 -2.562,0.302 -3.902,0.459 0.072,1.542 0.14,2.997 0.212,4.519 h -1.654 v -4.482 c -1.375,-0.099 -2.592,-0.185 -3.868,-0.276 -0.232,1.574 -0.449,3.049 -0.681,4.625 -0.975,-0.191 -1.77,-0.347 -2.637,-0.516 0.314,-1.587 0.599,-3.022 0.895,-4.514 -1.271,-0.359 -2.48,-0.7 -3.746,-1.057 -0.545,1.488 -1.061,2.9 -1.606,4.388 C 9.915,73.666 9.129,73.347 8.304,73.012 8.976,71.479 9.563,70.138 10.167,68.757 9.006,68.141 7.923,67.566 6.75,66.944 5.924,68.257 5.122,69.531 4.257,70.903 3.495,70.382 2.792,69.901 2.026,69.378 3.014,68.046 3.906,66.841 4.816,65.613 3.815,64.748 2.887,63.945 1.733,62.947 c -1.021,1.175 -2.012,2.317 -3.073,3.538 -0.72,-0.758 -1.287,-1.357 -1.919,-2.021 1.248,-1.064 2.423,-2.067 3.617,-3.086 -0.778,-1.065 -1.5,-2.053 -2.246,-3.073 -1.384,0.832 -2.699,1.623 -4.075,2.45 -0.526,-0.862 -0.973,-1.597 -1.475,-2.422 1.437,-0.82 2.775,-1.584 4.167,-2.378 -0.641,-1.269 -1.241,-2.458 -1.87,-3.705 -1.523,0.645 -2.94,1.245 -4.443,1.882 -0.369,-0.912 -0.69,-1.706 -1.039,-2.57 1.59,-0.602 3.033,-1.148 4.53,-1.715 -0.433,-1.376 -0.833,-2.646 -1.243,-3.947 -1.62,0.403 -3.12,0.775 -4.723,1.173 -0.213,-0.918 -0.407,-1.752 -0.626,-2.693 1.683,-0.338 3.256,-0.655 4.821,-0.971 -0.2,-1.432 -0.376,-2.686 -0.555,-3.961 -1.652,0.093 -3.226,0.181 -4.885,0.274 v -2.567 c 1.323,0 2.635,-0.075 3.933,0.026 0.88,0.069 1.258,-0.2 1.277,-1.135 -1.42,-0.799 -2.857,-1.608 -4.349,-2.448 0.533,-0.831 0.957,-1.494 1.435,-2.24 1.459,1.014 2.829,1.965 4.24,2.945 0.929,-1.228 1.83,-2.421 2.743,-3.628 -1.382,-1.1 -2.66,-2.117 -4.021,-3.2 0.622,-0.806 1.198,-1.552 1.85,-2.395 1.392,1.049 2.719,2.048 4.177,3.147 1.149,-1.681 2.239,-3.276 3.367,-4.926 -1.58,-0.931 -3.011,-1.775 -4.469,-2.634 0.569,-1.096 1.074,-2.069 1.584,-3.054 1.633,0.6 3.147,1.156 4.647,1.706 1.221,-2.746 1.664,-6.895 0.942,-8.728 -1.507,0.194 -3.038,0.391 -4.633,0.596 C -0.886,9.964 -1.172,8.818 -1.478,7.595 0.017,6.977 1.47,6.376 3.05,5.724 2.007,3.766 1.034,1.939 0,0 m 27.211,-67.897 c -1.993,0.46 -3.575,1.638 -5.169,2.843 -2.014,1.522 -3.164,3.472 -3.267,5.986 -0.053,1.315 -0.035,2.642 0.079,3.952 0.187,2.14 1.279,3.842 2.858,5.236 3.252,2.871 7.018,4.548 11.436,4.75 0,1.005 0.053,1.956 -0.031,2.896 -0.026,0.288 -0.374,0.653 -0.665,0.794 -1.895,0.92 -3.814,1.793 -5.731,2.669 -0.246,0.113 -0.523,0.223 -0.786,0.223 -2.485,-10e-4 -4.725,0.836 -6.763,2.15 -2.517,1.622 -5.007,3.298 -7.394,5.104 -2.655,2.009 -5.483,3.569 -8.795,4.098 -0.421,0.068 -0.994,-0.174 -1.355,-0.454 -3.91,-3.046 -7.793,-6.127 -11.745,-9.248 -2.511,4.831 -4.423,9.808 -5.339,15.106 -0.487,2.824 -0.811,5.703 -0.884,8.565 -0.085,3.31 1.293,6.179 3.407,8.713 0.606,0.726 1.02,1.608 1.573,2.382 0.95,1.33 1.993,2.596 2.901,3.953 2.074,3.099 4.301,6.136 4.804,9.997 0.293,2.251 -0.353,4.332 -1.5,6.173 -1.624,2.604 -3.469,5.071 -5.248,7.577 -1.296,1.825 -2.688,3.581 -3.945,5.431 -1.574,2.314 -2.261,4.862 -2.064,7.71 0.305,4.411 0.978,8.754 2.56,12.869 1.179,3.066 2.774,5.974 4.209,8.94 0.431,0.892 0.86,1.808 1.443,2.6 0.937,1.272 2.001,2.449 3.011,3.668 0.702,0.848 1.309,1.805 2.127,2.52 1.181,1.032 2.52,1.881 3.78,2.824 0.885,0.662 1.678,1.485 2.639,1.996 1.419,0.753 2.944,1.31 4.436,1.918 1.714,0.698 3.415,1.446 5.175,2.003 0.95,0.301 2.015,0.223 3.023,0.362 1.835,0.254 3.658,0.693 5.5,0.776 1.99,0.09 4,-0.079 5.99,-0.255 0.84,-0.074 1.641,-0.513 2.48,-0.684 1.149,-0.233 2.377,-0.199 3.463,-0.583 1.735,-0.616 3.39,-1.462 5.062,-2.247 1.534,-0.722 3.101,-1.399 4.546,-2.274 0.963,-0.582 1.724,-1.492 2.598,-2.228 0.965,-0.813 2.149,-1.448 2.897,-2.422 2.067,-2.694 4.283,-5.237 5.829,-8.372 C 59.21,50.276 58.611,40.337 55.397,30.297 51.901,19.38 45.862,10.036 37.577,2.131 37.377,1.94 37.199,1.727 36.958,1.467 c 0.8,-1.052 1.556,-2.114 2.385,-3.116 0.775,-0.937 1.767,-0.719 2.74,-0.349 2.844,1.083 5.785,1.454 8.821,1.347 8.962,-0.318 15.567,-4.76 20.61,-11.829 2.97,-4.165 4.724,-8.858 5.401,-13.942 0.03,-0.23 0.142,-0.45 0.216,-0.675 v -4.08 c -0.085,-0.504 -0.184,-1.007 -0.253,-1.513 -0.501,-3.682 -1.102,-7.327 -2.779,-10.712 -3.215,-6.487 -8.057,-11.825 -12.38,-17.52 -1.715,-2.259 -4.522,-2.675 -7.185,-3.126 -4.669,-0.791 -9.441,-0.448 -14.105,-1.618 -3.709,-0.93 -7.675,-0.728 -11.298,-2.231 z" /></g><g
           transform="translate(240.2402,563.7598)"
           id="g32"><path
             id="path34"
             style="fill:#ffffff;fill-opacity:1;fill-rule:nonzero;stroke:none"
             d="m 0,0 c 3.623,1.503 7.589,1.301 11.297,2.231 4.665,1.17 9.437,0.827 14.105,1.618 2.664,0.451 5.471,0.867 7.185,3.126 4.323,5.695 9.165,11.033 12.38,17.52 1.678,3.385 2.279,7.03 2.78,10.712 0.068,0.506 0.168,1.009 0.253,1.513 L 48,0 Z" /></g><g
           transform="translate(172.8096,626.1006)"
           id="g36"><path
             id="path38"
             style="fill:#ffffff;fill-opacity:1;fill-rule:nonzero;stroke:none"
             d="M 0,0 C -2.083,-0.935 -3.797,-1.777 -5.569,-2.473 -6.56,-2.862 -6.729,-3.375 -6.244,-4.322 -4.016,-4.557 -1.771,-4.793 0.829,-5.067 0.54,-3.301 0.289,-1.769 0,0 m -12.92,2.847 c 1.745,1.592 3.439,3.138 5.352,4.884 -1.547,1.012 -2.9,1.898 -4.361,2.854 -0.97,-2.408 -1.824,-4.528 -2.669,-6.624 0.699,-0.464 1.289,-0.856 1.678,-1.114 m 7.518,3.101 C -6.945,3.955 -8.351,2.14 -9.757,0.325 c 0.911,-0.829 1.699,-1.546 2.545,-2.316 1.814,1.464 3.598,2.904 5.517,4.452 -1.288,1.212 -2.442,2.297 -3.707,3.487 M -30.46,16.021 c 1.085,-2.014 2.172,-4.034 3.189,-5.923 0.7,0 1.248,-0.027 1.792,0.013 0.233,0.017 0.556,0.108 0.668,0.278 1.181,1.785 2.328,3.593 3.479,5.389 -2.605,1.901 -6.507,1.998 -9.128,0.243 m 16.041,-4.054 c -1.556,0.634 -2.934,1.209 -4.325,1.746 -0.188,0.072 -0.512,0.032 -0.667,-0.09 -1.735,-1.371 -3.45,-2.767 -5.047,-4.057 1.02,-3.028 4.1,-2.081 5.915,-3.628 1.353,1.978 2.63,3.845 4.124,6.029 m 15.34,-24.616 c -0.302,1.373 -0.518,2.574 -0.846,3.744 -0.129,0.459 -0.411,1.04 -0.793,1.237 -1.903,0.98 -3.862,1.851 -5.862,2.789 -0.485,-0.967 -0.962,-1.837 -1.352,-2.744 -0.119,-0.275 -0.087,-0.691 0.031,-0.979 0.635,-1.55 1.318,-3.08 2.053,-4.772 1.951,0.209 4.202,0.45 6.769,0.725 m -28.985,-36.83 c 0.01,-0.745 -0.009,-1.491 0.039,-2.233 0.042,-0.661 0.31,-1.061 1.109,-1.073 0.945,-0.014 1.887,-0.214 3.01,-0.355 -0.203,-0.642 -0.374,-1.179 -0.566,-1.786 -0.685,0.385 -1.241,0.692 -1.792,1.009 -1.91,1.103 -2.173,1.063 -3.742,-0.662 0.93,-0.843 1.866,-1.69 2.978,-2.696 -0.725,-0.484 -1.221,-0.814 -1.694,-1.13 -1.13,1.13 -0.482,3.168 -2.343,3.925 -0.405,-1.367 -0.763,-2.575 -1.155,-3.898 -1.153,0.409 -2.224,0.789 -3.359,1.191 v 3.777 c -1.372,0.148 -2.743,0.296 -4.274,0.461 -0.193,-1.28 -0.38,-2.519 -0.593,-3.928 -0.84,0.118 -1.643,0.231 -2.533,0.356 0.297,1.34 0.571,2.574 0.909,4.1 -2.127,0.363 -4.164,0.712 -6.431,1.099 V -55.6 c -1.036,0.07 -1.893,0.127 -2.887,0.193 0.076,1.342 0.148,2.597 0.223,3.929 -1.509,0.145 -2.925,0.282 -4.402,0.425 -0.223,-1.337 -0.431,-2.582 -0.655,-3.928 -0.826,0.177 -1.551,0.333 -2.407,0.517 0.365,1.308 0.703,2.519 1.031,3.693 -0.869,0.858 -1.52,0.603 -2.195,-0.194 -0.537,-0.634 -1.196,-1.163 -1.902,-1.834 -0.346,0.493 -0.655,0.934 -1.06,1.512 1.264,0.584 2.437,1.126 3.585,1.657 -0.201,2.737 -2.947,3.381 -4.068,5.462 -1.092,-0.876 -2.079,-1.667 -3.179,-2.549 -0.532,0.679 -1.054,1.347 -1.652,2.112 1.09,0.805 2.107,1.556 3.203,2.365 -0.842,1.262 -1.655,2.481 -2.536,3.802 -1.115,-0.677 -2.197,-1.334 -3.374,-2.05 -0.469,0.738 -0.934,1.47 -1.488,2.342 1.131,0.697 2.23,1.374 3.395,2.092 -0.581,1.068 -1.147,2.106 -1.769,3.249 -1.173,-0.407 -2.363,-0.82 -3.694,-1.282 -0.235,0.782 -0.458,1.522 -0.731,2.425 1.301,0.342 2.516,0.661 3.853,1.012 -0.261,1.379 -0.515,2.727 -0.787,4.164 -1.296,-0.14 -2.515,-0.272 -3.927,-0.425 -0.078,0.865 -0.151,1.667 -0.236,2.607 1.343,0.072 2.561,0.137 3.864,0.207 0.081,1.186 0.158,2.322 0.244,3.573 -1.245,0.224 -2.484,0.448 -3.88,0.7 0.168,0.818 0.322,1.57 0.501,2.444 1.344,-0.38 2.554,-0.723 3.846,-1.089 0.435,1.296 0.849,2.531 1.312,3.91 -1.125,0.522 -2.264,1.05 -3.553,1.648 0.366,0.769 0.713,1.498 1.11,2.332 1.222,-0.658 2.333,-1.256 3.49,-1.879 0.723,1.105 1.417,2.165 2.14,3.27 -1.021,0.823 -2.008,1.618 -3.071,2.476 0.568,0.652 1.087,1.246 1.666,1.91 0.969,-0.916 1.891,-1.789 2.862,-2.709 0.971,0.836 1.929,1.661 2.969,2.557 -0.745,1.028 -1.485,2.048 -2.313,3.189 0.718,0.499 1.381,0.961 2.127,1.479 0.724,-1.186 1.381,-2.262 2.049,-3.358 1.038,0.455 1.976,0.865 3.015,1.32 -0.349,1.227 -0.694,2.441 -1.07,3.762 0.809,0.208 1.564,0.402 2.452,0.63 0.271,-1.344 0.519,-2.578 0.782,-3.886 1.255,0.117 2.465,0.231 3.754,0.352 v 3.831 h 2.483 c -0.148,-1.352 -0.283,-2.595 -0.425,-3.901 1.249,-0.374 2.454,-0.735 3.777,-1.131 0.39,1.269 0.758,2.468 1.091,3.555 1.217,0 2.375,-0.227 3.384,0.063 1.028,0.296 1.909,1.1 2.979,1.758 0.924,-0.585 1.995,-1.264 3.065,-1.941 0.87,1.018 1.693,1.981 2.55,2.983 -0.997,0.906 -1.936,1.76 -2.938,2.672 0.648,0.735 1.249,1.417 1.917,2.173 1.018,-0.868 1.98,-1.689 3.028,-2.582 0.894,1.043 1.768,2.061 2.744,3.2 -1.455,1.609 -2.647,3.75 -4.463,4.696 -1.671,0.87 -2.333,2.326 -3.771,3.429 1.382,1.104 2.642,2.111 3.944,3.151 -0.897,1.224 -1.739,2.375 -2.643,3.609 -1.345,-0.901 -2.659,-1.782 -4.094,-2.743 -0.49,0.741 -0.958,1.45 -1.509,2.283 1.437,0.907 2.801,1.769 4.199,2.652 -0.746,1.309 -1.453,2.548 -2.19,3.841 -1.495,-0.755 -2.915,-1.472 -4.419,-2.232 -0.393,0.828 -0.763,1.609 -1.178,2.481 1.533,0.709 2.97,1.373 4.482,2.073 -0.559,1.369 -1.095,2.682 -1.67,4.088 -1.537,-0.546 -3.027,-1.076 -4.668,-1.66 -0.295,0.86 -0.571,1.667 -0.885,2.586 1.591,0.519 3.13,1.021 4.719,1.538 -0.392,1.432 -0.758,2.767 -1.141,4.165 -1.622,-0.336 -3.167,-0.656 -4.835,-1.002 -0.168,0.927 -0.314,1.729 -0.477,2.628 1.683,0.265 3.245,0.51 4.868,0.766 -0.112,1.344 -0.216,2.606 -0.328,3.957 h -4.851 v 2.648 c 1.582,-0.07 3.188,-0.142 4.857,-0.216 0.162,1.336 0.313,2.584 0.474,3.913 -1.572,0.312 -3.088,0.613 -4.798,0.953 0.184,0.861 0.36,1.679 0.553,2.58 1.637,-0.451 3.129,-0.863 4.748,-1.31 0.44,1.187 0.875,2.357 1.346,3.624 -1.486,0.681 -2.925,1.34 -4.501,2.062 0.392,0.786 0.756,1.516 1.163,2.331 1.46,-0.806 2.85,-1.573 4.318,-2.384 0.701,1.034 1.383,2.041 2.136,3.153 -1.273,1.022 -2.534,2.034 -3.859,3.097 0.57,0.665 1.082,1.262 1.679,1.957 1.242,-1.145 2.43,-2.24 3.638,-3.355 0.957,0.874 1.865,1.702 2.828,2.58 -0.996,1.288 -1.966,2.543 -3.008,3.89 0.729,0.526 1.396,1.005 2.131,1.535 0.921,-1.413 1.788,-2.743 2.694,-4.132 1.146,0.624 2.225,1.212 3.439,1.873 -0.655,1.446 -1.317,2.91 -2.031,4.49 0.823,0.349 1.576,0.669 2.43,1.03 0.586,-1.568 1.141,-3.053 1.731,-4.632 1.272,0.369 2.514,0.729 3.833,1.111 -0.34,1.592 -0.67,3.143 -1.026,4.814 0.872,0.167 1.673,0.321 2.584,0.495 0.246,-1.67 0.476,-3.233 0.718,-4.873 1.35,0.083 2.642,0.162 4.063,0.248 v 4.817 h 2.691 c -0.127,-1.698 -0.244,-3.277 -0.366,-4.921 1.33,-0.201 2.575,-0.39 3.915,-0.592 0.364,1.587 0.71,3.093 1.094,4.762 0.838,-0.196 1.623,-0.38 2.568,-0.601 C -7.554,78.85 -8,77.34 -8.479,75.715 c 1.223,-0.479 2.424,-0.95 3.708,-1.452 0.693,1.485 1.363,2.921 2.092,4.483 0.781,-0.377 1.514,-0.73 2.38,-1.148 -0.821,-1.5 -1.595,-2.913 -2.391,-4.369 1.127,-0.738 2.189,-1.432 3.322,-2.173 1,1.307 1.988,2.599 3.017,3.945 0.683,-0.563 1.292,-1.066 2.013,-1.661 -1.1,-1.273 -2.158,-2.497 -3.225,-3.732 0.97,-0.91 1.897,-1.78 2.885,-2.706 1.09,0.923 2.303,1.952 3.618,3.067 0.549,-0.673 1.064,-1.304 1.664,-2.041 C 9.237,66.931 7.935,65.979 6.98,65.283 6.929,64.316 6.979,63.687 6.843,63.1 6.692,62.452 6.369,61.844 6.083,61.121 7.646,60.513 9.123,59.939 10.708,59.323 10.374,58.339 10.06,57.416 9.719,56.413 8.142,56.891 6.626,57.351 4.917,57.869 4.428,55.979 3.956,54.154 3.447,52.188 5.16,51.823 6.74,51.485 8.388,51.134 8.208,50.086 8.042,49.119 7.865,48.091 6.215,48.288 4.643,48.475 2.891,48.684 2.752,46.709 2.62,44.819 2.473,42.711 H 7.374 C 7.62,41.292 7.829,40.081 8.059,38.747 6.614,38.23 5.092,37.686 3.291,37.04 c 1.157,-2.175 2.251,-4.229 3.387,-6.364 1.499,1.02 2.814,1.915 4.233,2.88 0.613,-0.827 1.196,-1.613 1.818,-2.452 -1.321,-1.032 -2.603,-2.034 -3.932,-3.071 1.041,-1.329 2.024,-2.585 3.103,-3.963 1.31,0.991 2.595,1.963 3.973,3.004 0.567,-0.76 1.082,-1.448 1.637,-2.191 -1.378,-0.962 -2.684,-1.873 -4.066,-2.838 0.566,-0.957 1.119,-1.894 1.715,-2.903 1.52,0.619 2.982,1.214 4.563,1.858 0.203,-0.689 0.377,-1.278 0.594,-2.018 -1.695,-0.253 -3.259,-0.487 -4.875,-0.728 -0.086,-0.336 -0.171,-0.669 -0.285,-1.11 1.509,-0.558 2.996,-1.108 4.654,-1.721 -0.349,-0.766 -0.664,-1.457 -1.014,-2.224 -1.517,0.813 -2.911,1.56 -4.369,2.341 -0.756,-1.163 -1.468,-2.258 -2.253,-3.465 1.301,-0.924 2.595,-1.843 4.015,-2.852 C 15.663,8.465 15.155,7.735 14.573,6.896 13.222,7.878 11.944,8.807 10.523,9.839 9.475,8.395 8.457,6.993 7.389,5.522 8.798,4.541 10.13,3.615 11.491,2.668 10.911,1.756 10.383,0.924 9.814,0.027 8.375,0.842 6.996,1.623 5.316,2.574 4.36,0.091 3.441,-2.296 2.437,-4.906 4.352,-5.224 5.941,-5.489 7.569,-5.759 V -9.231 C 5.945,-9.326 4.333,-9.42 2.776,-9.512 c 0,-1.509 0.197,-2.969 -0.075,-4.335 -0.159,-0.793 -1.071,-1.435 -1.702,-2.218 -0.827,0.659 -1.598,1.274 -2.368,1.889 -0.022,-0.128 -0.043,-0.257 -0.065,-0.385 -0.624,0 -1.269,-0.098 -1.869,0.022 -1.032,0.207 -2.037,0.551 -3.054,0.837 -0.1,-0.117 -0.199,-0.234 -0.298,-0.351 0.775,-1.055 1.55,-2.112 2.395,-3.262 -0.559,-0.298 -1.034,-0.551 -1.632,-0.869 -0.433,1.3 -0.83,2.492 -1.332,3.996 -1.901,-0.635 -3.751,-1.253 -5.743,-1.919 0.648,-1.366 1.186,-2.499 1.769,-3.729 -0.962,-0.55 -1.883,-1.076 -2.865,-1.637 -0.741,1.081 -1.456,2.124 -2.248,3.278 -1.439,-1.111 -2.787,-2.15 -4.197,-3.239 0.776,-1.085 1.511,-2.114 2.308,-3.229 -0.772,-0.528 -1.481,-1.014 -2.258,-1.546 -0.758,1.147 -1.456,2.203 -2.175,3.292 -1.173,-0.7 -2.263,-1.35 -3.441,-2.053 0.519,-1.171 1.028,-2.319 1.589,-3.587 -0.682,-0.253 -1.296,-0.48 -2.027,-0.751 -0.29,1.351 -0.553,2.581 -0.795,3.705 -2.785,0.967 -4.733,-0.461 -6.685,-2.1 0.591,-1.087 1.194,-2.197 1.851,-3.405 -0.693,-0.312 -1.338,-0.603 -2.098,-0.945 -0.449,1.28 -0.868,2.47 -1.295,3.686 -1.214,-0.002 -2.064,-0.569 -2.641,-1.546 -0.751,-1.269 0.871,-1.808 0.897,-2.911 -1.061,-0.984 -1.806,0.258 -2.773,0.494 -1.236,-1.358 -2.671,-2.63 -2.236,-4.802 0.053,-0.262 0.089,-0.727 0.194,-0.745 1.123,-0.196 0.936,-1.124 1.085,-1.852 0.255,-1.252 0.485,-2.509 0.728,-3.764 0.354,-1.828 0.355,-1.828 2.465,-1.774 0.279,1.062 0.568,2.163 0.886,3.371 1.145,-0.117 2.243,-0.229 3.491,-0.356 -0.212,-1.344 -0.408,-2.585 -0.614,-3.892 0.896,-0.278 1.792,-0.557 2.74,-0.853 0.616,1.149 1.214,2.265 1.846,3.445 0.752,-0.474 1.42,-0.895 2.133,-1.345 -0.749,-1.101 -1.443,-2.123 -2.187,-3.216 0.486,-0.455 0.972,-0.91 1.458,-1.365 z" /></g><g
           transform="translate(180.8047,611.4419)"
           id="g40"><path
             id="path42"
             style="fill:#ffffff;fill-opacity:1;fill-rule:nonzero;stroke:none"
             d="m 0,0 c 0.225,-0.964 0.45,-1.929 0.702,-3.004 -0.944,-0.204 -1.771,-0.382 -2.665,-0.575 0.315,1.333 2.095,1.833 1.711,3.337 C -0.168,-0.161 -0.084,-0.081 0,0" /></g><g
           transform="translate(144.7471,576.6226)"
           id="g44"><path
             id="path46"
             style="fill:#ffffff;fill-opacity:1;fill-rule:nonzero;stroke:none"
             d="M 0,0 C 1.138,0.598 2.276,1.195 3.522,1.85 3.708,1.376 3.886,0.921 4.143,0.266 2.653,0.17 1.326,0.085 -0.001,-0.001 -0.002,-0.001 0,0 0,0" /></g><g
           transform="translate(208.1729,620.541)"
           id="g48"><path
             id="path50"
             style="fill:#ffffff;fill-opacity:1;fill-rule:nonzero;stroke:none"
             d="M 0,0 C 2.486,0.251 4.546,0.432 6.595,0.701 6.855,0.735 7.144,1.203 7.247,1.525 7.306,1.707 7.073,2.13 6.868,2.226 4.97,3.119 3.049,3.965 0.874,4.942 0.577,3.264 0.314,1.776 0,0 m 12.708,15.571 c -1.469,-0.987 -2.761,-1.856 -4.254,-2.86 1.887,-1.731 3.551,-3.256 5.261,-4.824 0.421,0.29 0.998,0.688 1.64,1.131 -0.849,2.103 -1.681,4.162 -2.647,6.553 M 6.2,10.903 C 4.933,9.705 3.792,8.625 2.566,7.465 4.504,5.909 6.266,4.493 8.021,3.083 8.912,3.896 9.694,4.609 10.511,5.355 9.083,7.193 7.714,8.955 6.2,10.903 m 25.578,0.163 c 1.773,1.547 3.492,3.047 5.287,4.614 -1.167,1.324 -2.206,2.503 -3.306,3.751 -1.651,-1.838 -3.159,-3.518 -4.676,-5.206 0.926,-1.086 1.774,-2.08 2.695,-3.159 m -5.962,4.089 h 2.259 c 1.038,1.944 2.096,3.925 3.151,5.899 -2.846,1.653 -6.633,1.524 -9.027,-0.281 1.218,-1.892 2.441,-3.792 3.617,-5.618 m -0.52,-0.638 c -1.648,1.327 -3.287,2.659 -4.947,3.966 -0.191,0.15 -0.542,0.281 -0.74,0.208 -1.4,-0.523 -2.78,-1.101 -4.313,-1.721 1.448,-2.123 2.721,-3.989 3.958,-5.802 1.015,0.345 1.892,0.768 2.815,0.929 1.452,0.255 2.5,0.956 3.227,2.42 M 6.656,-8.312 c 0.682,1.622 1.28,2.984 1.821,4.368 0.163,0.417 0.348,0.959 0.212,1.331 C 8.354,-1.694 7.839,-0.84 7.374,0.085 5.397,-0.846 3.524,-1.723 1.658,-2.616 1.456,-2.712 1.219,-2.865 1.133,-3.053 0.485,-4.475 -0.037,-5.93 0.233,-7.635 2.47,-7.871 4.683,-8.104 6.656,-8.312 m -3.72,19.428 c 1.034,1.939 2.007,3.765 3.05,5.723 -1.58,0.653 -3.033,1.253 -4.528,1.871 0.306,1.224 0.592,2.37 0.897,3.592 1.595,-0.204 3.126,-0.402 4.633,-0.595 0.722,1.833 0.279,5.982 -0.942,8.728 -1.5,-0.551 -3.014,-1.106 -4.647,-1.706 -0.51,0.985 -1.015,1.958 -1.584,3.053 1.458,0.86 2.889,1.703 4.469,2.635 -1.128,1.65 -2.218,3.245 -3.367,4.926 -1.458,-1.099 -2.785,-2.098 -4.177,-3.148 -0.652,0.844 -1.228,1.59 -1.85,2.395 1.361,1.084 2.639,2.101 4.021,3.201 -0.913,1.207 -1.814,2.399 -2.743,3.628 -1.411,-0.981 -2.781,-1.932 -4.24,-2.945 -0.478,0.746 -0.902,1.408 -1.435,2.239 1.492,0.841 2.929,1.649 4.349,2.449 -0.019,0.935 -0.397,1.203 -1.277,1.135 -1.298,-0.101 -2.61,-0.026 -3.933,-0.026 v 2.567 c 1.66,-0.093 3.233,-0.182 4.885,-0.275 0.179,1.275 0.355,2.529 0.555,3.962 -1.565,0.315 -3.138,0.632 -4.821,0.971 0.219,0.941 0.413,1.775 0.626,2.693 1.603,-0.398 3.103,-0.771 4.723,-1.173 0.41,1.3 0.81,2.571 1.243,3.947 -1.497,0.567 -2.94,1.113 -4.53,1.715 0.349,0.864 0.67,1.657 1.039,2.57 1.503,-0.638 2.92,-1.237 4.443,-1.882 0.629,1.246 1.229,2.436 1.87,3.705 -1.392,0.794 -2.73,1.557 -4.167,2.377 0.502,0.825 0.949,1.56 1.475,2.423 1.376,-0.828 2.691,-1.618 4.075,-2.45 0.746,1.02 1.468,2.008 2.246,3.073 -1.194,1.019 -2.369,2.022 -3.617,3.086 0.632,0.664 1.199,1.263 1.919,2.021 1.061,-1.222 2.052,-2.364 3.073,-3.538 1.154,0.998 2.082,1.801 3.083,2.666 -0.91,1.228 -1.802,2.433 -2.79,3.765 0.766,0.523 1.469,1.004 2.231,1.525 0.865,-1.373 1.667,-2.646 2.494,-3.959 1.172,0.622 2.255,1.196 3.417,1.813 -0.605,1.381 -1.192,2.722 -1.864,4.255 0.825,0.335 1.611,0.653 2.496,1.013 0.545,-1.488 1.061,-2.9 1.606,-4.389 1.266,0.358 2.475,0.699 3.746,1.058 -0.296,1.492 -0.581,2.927 -0.895,4.514 0.867,0.169 1.662,0.325 2.637,0.515 0.232,-1.575 0.449,-3.05 0.681,-4.625 1.276,0.092 2.493,0.178 3.868,0.276 v 4.483 h 1.654 c -0.072,-1.522 -0.14,-2.977 -0.212,-4.519 1.34,-0.158 2.59,-0.305 3.902,-0.459 0.279,1.506 0.548,2.952 0.846,4.559 0.881,-0.193 1.71,-0.374 2.638,-0.577 -0.382,-1.533 -0.736,-2.955 -1.114,-4.475 1.2,-0.41 2.39,-0.817 3.647,-1.246 0.598,1.405 1.174,2.756 1.818,4.269 0.83,-0.378 1.598,-0.728 2.442,-1.112 -0.728,-1.435 -1.39,-2.74 -2.093,-4.126 1.066,-0.666 2.069,-1.292 3.23,-2.017 0.902,1.241 1.803,2.482 2.756,3.793 0.725,-0.564 1.381,-1.075 2.113,-1.645 -1.031,-1.21 -2.009,-2.36 -2.996,-3.52 0.933,-0.849 1.813,-1.649 2.803,-2.549 0.992,0.831 2.171,1.818 3.426,2.87 0.559,-0.685 1.081,-1.327 1.679,-2.062 -1.326,-0.965 -2.57,-1.87 -3.852,-2.803 0.687,-1.125 1.324,-2.169 1.993,-3.267 1.425,0.722 2.802,1.418 4.279,2.165 0.387,-0.817 0.738,-1.561 1.143,-2.418 -1.511,-0.638 -2.934,-1.238 -4.434,-1.871 0.376,-1.161 0.739,-2.28 1.146,-3.539 1.567,0.357 3.1,0.706 4.743,1.08 0.174,-0.911 0.329,-1.716 0.503,-2.627 -1.635,-0.263 -3.155,-0.507 -4.791,-0.77 0.096,-1.296 0.185,-2.512 0.281,-3.822 h 4.819 v -2.708 c -1.673,0.096 -3.279,0.187 -4.927,0.281 -0.192,-1.369 -0.368,-2.622 -0.556,-3.97 1.317,-0.265 2.591,-0.602 3.887,-0.756 0.931,-0.11 1.031,-0.543 0.833,-1.281 -0.142,-0.531 -0.277,-1.063 -0.435,-1.674 -1.66,0.405 -3.232,0.788 -4.848,1.183 -0.412,-1.374 -0.799,-2.664 -1.228,-4.093 1.572,-0.561 3.089,-1.104 4.765,-1.703 -0.328,-0.898 -0.633,-1.732 -0.969,-2.654 -1.616,0.619 -3.131,1.2 -4.732,1.815 -0.589,-1.338 -1.144,-2.601 -1.749,-3.978 1.508,-0.75 2.957,-1.471 4.541,-2.259 -0.415,-0.846 -0.805,-1.642 -1.244,-2.538 -1.545,0.823 -2.979,1.586 -4.509,2.402 -0.731,-1.224 -1.456,-2.438 -2.238,-3.748 1.41,-0.923 2.803,-1.835 4.302,-2.817 -0.53,-0.796 -1.027,-1.545 -1.573,-2.366 -1.427,1.001 -2.763,1.938 -4.202,2.947 -0.884,-1.145 -1.751,-2.268 -2.682,-3.474 1.307,-1.092 2.586,-2.161 3.959,-3.308 -0.615,-0.729 -1.194,-1.415 -1.834,-2.174 -1.324,1.174 -2.573,2.282 -3.729,3.308 -1.095,-0.994 -2.151,-1.952 -3.279,-2.976 1.254,-1.312 2.403,-2.514 3.616,-3.782 -1.098,-1.092 -2.16,-2.148 -3.259,-3.241 0.343,-0.427 0.662,-0.825 1.058,-1.316 -0.93,-0.86 -1.858,-1.717 -2.87,-2.652 0.815,-0.958 1.607,-1.888 2.482,-2.917 1.056,0.664 2.123,1.334 3.223,2.026 1.718,-1.708 3.585,-2.794 6.117,-1.604 0.416,-1.333 0.791,-2.535 1.198,-3.84 1.227,0.353 2.401,0.689 3.698,1.062 -0.134,1.228 -0.267,2.443 -0.422,3.862 0.835,0.08 1.63,0.157 2.551,0.246 V 3.583 C 53.97,3.468 55.144,3.363 56.404,3.25 56.65,4.499 56.887,5.701 57.158,7.079 57.986,6.896 58.773,6.723 59.715,6.515 59.35,5.225 59.009,4.021 58.646,2.74 c 0.979,-0.445 1.905,-0.866 2.92,-1.327 0.662,1.062 1.331,2.137 2.073,3.327 0.723,-0.478 1.404,-0.929 2.207,-1.459 -0.793,-1.099 -1.53,-2.122 -2.311,-3.205 0.942,-0.826 1.861,-1.631 2.884,-2.529 0.926,0.875 1.842,1.741 2.864,2.706 0.585,-0.653 1.134,-1.265 1.749,-1.951 -1.05,-0.849 -2.032,-1.643 -3.071,-2.484 0.706,-1.084 1.372,-2.107 2.092,-3.214 1.153,0.624 2.26,1.222 3.458,1.87 0.425,-0.834 0.797,-1.566 1.214,-2.385 -1.248,-0.569 -2.363,-1.078 -3.558,-1.623 0.361,-1.171 0.676,-2.311 1.088,-3.415 0.067,-0.178 0.599,-0.324 0.864,-0.262 1.001,0.235 1.981,0.563 3.103,0.895 0.198,-0.84 0.377,-1.597 0.593,-2.509 -1.34,-0.25 -2.572,-0.481 -3.888,-0.727 0.061,-1.139 0.12,-2.241 0.185,-3.448 1.267,-0.09 2.519,-0.178 3.895,-0.275 -0.08,-0.936 -0.151,-1.754 -0.231,-2.678 -1.37,0.153 -2.62,0.292 -3.942,0.439 -0.256,-1.404 -0.496,-2.722 -0.749,-4.106 1.303,-0.334 2.487,-0.637 3.806,-0.975 -0.232,-0.848 -0.438,-1.599 -0.687,-2.509 -1.28,0.429 -2.469,0.828 -3.726,1.25 -0.582,-1.055 -1.148,-2.083 -1.749,-3.172 1.14,-0.698 2.22,-1.359 3.379,-2.068 -0.512,-0.841 -0.981,-1.611 -1.497,-2.457 -1.173,0.727 -2.248,1.394 -3.363,2.086 -0.851,-1.264 -1.65,-2.452 -2.516,-3.739 1.06,-0.791 2.096,-1.564 3.182,-2.374 -0.573,-0.751 -1.078,-1.414 -1.664,-2.184 -1.037,0.834 -2.018,1.624 -3.157,2.541 -1.12,-1.961 -3.74,-2.646 -4.082,-5.357 1.105,-0.515 2.248,-1.047 3.532,-1.646 -0.326,-0.534 -0.618,-1.011 -0.992,-1.621 -1.028,0.957 -1.95,1.815 -2.935,2.732 -0.374,-0.188 -0.748,-0.377 -1.175,-0.592 0.343,-1.229 0.673,-2.412 1.047,-3.752 -0.818,-0.18 -1.568,-0.347 -2.479,-0.548 -0.228,1.333 -0.44,2.568 -0.668,3.905 -1.437,-0.138 -2.811,-0.27 -4.308,-0.414 0.067,-1.3 0.132,-2.554 0.203,-3.934 H 49.29 v 3.604 c -1.973,0.438 -3.836,0.166 -6.287,-0.884 0.261,-1.175 0.527,-2.373 0.835,-3.767 -0.844,-0.137 -1.671,-0.271 -2.604,-0.422 -0.206,1.363 -0.395,2.611 -0.594,3.923 -1.402,-0.146 -2.74,-0.286 -4.178,-0.436 v -3.754 c -1.178,-0.426 -2.252,-0.815 -3.447,-1.248 -0.384,1.29 -0.744,2.5 -1.164,3.913 -1.766,-0.787 -1.165,-2.779 -2.298,-3.925 -0.472,0.293 -1.022,0.632 -1.65,1.022 0.992,0.994 1.864,1.867 2.74,2.745 -0.582,1.238 -1.957,2.027 -3.121,1.024 -0.592,-0.51 -1.362,-0.815 -2.208,-1.303 -0.232,0.596 -0.438,1.12 -0.713,1.823 1.39,0.193 2.638,0.367 3.966,0.552 0.099,0.383 0.246,0.791 0.304,1.211 0.165,1.198 -0.204,1.649 -1.385,1.82 -0.861,0.124 -1.716,0.279 -2.731,0.447 0.211,0.579 0.378,1.035 0.6,1.643 1.191,-0.727 2.267,-1.382 3.364,-2.051 0.498,0.436 0.973,0.852 1.557,1.364 -0.703,1.067 -1.412,2.146 -2.173,3.301 0.752,0.468 1.422,0.885 2.179,1.355 0.642,-1.178 1.247,-2.288 1.873,-3.436 0.892,0.277 1.719,0.534 2.641,0.821 -0.192,1.266 -0.379,2.511 -0.587,3.883 1.071,0.122 2.051,0.287 3.034,0.31 0.248,0.006 0.636,-0.4 0.735,-0.693 0.277,-0.824 0.438,-1.687 0.638,-2.509 2.03,-0.253 2.037,-0.254 2.414,1.61 0.293,1.447 0.518,2.911 0.867,4.343 0.13,0.53 0.529,0.993 0.933,1.423 0.818,2.319 -0.453,3.906 -2.023,5.379 -0.909,-0.266 -1.655,-1.477 -2.685,-0.565 0.306,0.999 0.961,2.027 0.8,2.905 -0.178,0.968 -1.213,1.627 -2.549,1.567 -0.398,-1.12 -0.819,-2.304 -1.286,-3.617 -0.729,0.308 -1.399,0.592 -2.2,0.932 0.669,1.229 1.271,2.335 1.863,3.423 -2.95,2.454 -2.95,2.454 -6.587,2.176 -0.242,-1.168 -0.489,-2.367 -0.774,-3.747 -0.738,0.232 -1.393,0.437 -2.17,0.681 0.57,1.269 1.086,2.42 1.625,3.619 -1.148,0.688 -2.232,1.337 -3.384,2.027 -0.721,-1.092 -1.419,-2.146 -2.176,-3.291 -0.803,0.542 -1.517,1.025 -2.321,1.569 0.781,1.106 1.511,2.139 2.298,3.253 -1.379,1.063 -2.722,2.099 -4.133,3.187 -0.784,-1.147 -1.498,-2.191 -2.24,-3.277 -1.01,0.573 -1.938,1.099 -2.942,1.668 0.574,1.191 1.124,2.331 1.784,3.701 -1.933,0.661 -3.749,1.282 -5.656,1.935 -0.502,-1.505 -0.899,-2.697 -1.325,-3.975 -0.657,0.247 -1.197,0.449 -1.867,0.701 0.879,1.19 1.676,2.27 2.474,3.351 -0.051,0.111 -0.102,0.222 -0.152,0.334 -2.284,-0.411 -4.463,-1.241 -6.966,-1.932 0.777,-1.274 1.465,-2.402 2.208,-3.619 -0.759,-0.599 -1.599,-1.26 -2.505,-1.973 -0.457,0.502 -0.868,0.953 -1.577,1.733 0.725,-3.906 -2.547,-4.55 -4.524,-6.694 -0.067,0.672 -0.165,1.035 -0.127,1.383 0.194,1.81 0.424,3.615 0.666,5.635 -0.921,-0.512 -1.65,-0.918 -2.536,-1.411 -0.306,0.968 -0.565,1.784 -0.879,2.774 1.637,0.456 3.223,0.899 4.882,1.362 -0.287,1.345 -0.558,2.618 -0.86,4.035 -1.604,-0.232 -3.169,-0.458 -4.922,-0.711 -0.116,0.908 -0.227,1.779 -0.35,2.741 1.708,0.189 3.245,0.359 4.795,0.53 v 3.489 c -1.649,0.143 -3.19,0.276 -4.918,0.427 0.198,0.679 0.365,1.257 0.575,1.979 1.541,-0.624 2.968,-1.202 4.486,-1.817 0.562,0.967 1.113,1.913 1.714,2.946 -1.326,0.895 -2.606,1.759 -3.951,2.667 0.551,0.778 1.054,1.488 1.645,2.321 1.296,-0.929 2.545,-1.825 3.904,-2.798 1.013,1.384 1.969,2.693 2.981,4.077 -1.332,0.956 -2.585,1.855 -3.897,2.796 0.601,0.89 1.132,1.676 1.744,2.582 1.34,-0.842 2.641,-1.659 4.144,-2.603" /></g><g
           transform="translate(173.7305,613.4517)"
           id="g52"><path
             id="path54"
             style="fill:#231f20;fill-opacity:1;fill-rule:nonzero;stroke:none"
             d="m 0,0 c -2.567,-0.275 -4.818,-0.516 -6.769,-0.725 -0.734,1.692 -1.418,3.222 -2.053,4.772 -0.118,0.287 -0.15,0.703 -0.031,0.979 0.39,0.907 0.867,1.777 1.352,2.744 2,-0.938 3.959,-1.809 5.862,-2.789 C -1.257,4.784 -0.975,4.203 -0.846,3.744 -0.518,2.574 -0.302,1.373 0,0" /></g><g
           transform="translate(158.3906,638.0679)"
           id="g56"><path
             id="path58"
             style="fill:#231f20;fill-opacity:1;fill-rule:nonzero;stroke:none"
             d="m 0,0 c -1.494,-2.184 -2.771,-4.051 -4.124,-6.029 -1.815,1.547 -4.895,0.599 -5.915,3.628 1.597,1.29 3.311,2.686 5.047,4.056 0.155,0.122 0.479,0.163 0.667,0.091 C -2.934,1.208 -1.556,0.634 0,0" /></g><g
           transform="translate(142.3496,642.1216)"
           id="g60"><path
             id="path62"
             style="fill:#231f20;fill-opacity:1;fill-rule:nonzero;stroke:none"
             d="M 0,0 C 2.621,1.755 6.523,1.658 9.128,-0.243 7.977,-2.039 6.83,-3.847 5.649,-5.632 5.537,-5.802 5.214,-5.893 4.98,-5.91 4.437,-5.95 3.889,-5.923 3.189,-5.923 2.172,-4.034 1.084,-2.014 0,0" /></g><g
           transform="translate(167.4072,632.0483)"
           id="g64"><path
             id="path66"
             style="fill:#231f20;fill-opacity:1;fill-rule:nonzero;stroke:none"
             d="M 0,0 C 1.265,-1.189 2.419,-2.275 3.708,-3.486 1.788,-5.035 0.004,-6.475 -1.81,-7.938 -2.656,-7.169 -3.444,-6.452 -4.354,-5.623 -2.949,-3.808 -1.543,-1.993 0,0" /></g><g
           transform="translate(159.8896,628.9473)"
           id="g68"><path
             id="path70"
             style="fill:#231f20;fill-opacity:1;fill-rule:nonzero;stroke:none"
             d="M 0,0 C -0.389,0.258 -0.979,0.65 -1.678,1.114 -0.833,3.21 0.021,5.331 0.991,7.739 2.452,6.782 3.805,5.896 5.352,4.884 3.439,3.139 1.745,1.592 0,0" /></g><g
           transform="translate(172.8096,626.1006)"
           id="g72"><path
             id="path74"
             style="fill:#231f20;fill-opacity:1;fill-rule:nonzero;stroke:none"
             d="m 0,0 c 0.289,-1.769 0.54,-3.301 0.829,-5.067 -2.6,0.274 -4.845,0.51 -7.073,0.745 -0.485,0.947 -0.316,1.46 0.675,1.849 C -3.797,-1.777 -2.083,-0.935 0,0" /></g><g
           transform="translate(214.8286,612.229)"
           id="g76"><path
             id="path78"
             style="fill:#231f20;fill-opacity:1;fill-rule:nonzero;stroke:none"
             d="m 0,0 c -1.973,0.208 -4.186,0.441 -6.422,0.677 -0.27,1.705 0.251,3.16 0.899,4.582 0.086,0.188 0.323,0.341 0.525,0.437 1.866,0.893 3.74,1.77 5.716,2.701 C 1.184,7.472 1.698,6.618 2.034,5.699 2.169,5.327 1.984,4.785 1.821,4.368 1.28,2.984 0.682,1.622 0,0" /></g><g
           transform="translate(233.4692,635.0581)"
           id="g80"><path
             id="path82"
             style="fill:#231f20;fill-opacity:1;fill-rule:nonzero;stroke:none"
             d="M 0,0 C -0.728,-1.464 -1.775,-2.166 -3.227,-2.42 -4.15,-2.582 -5.028,-3.004 -6.042,-3.349 -7.28,-1.536 -8.552,0.33 -10,2.453 -8.467,3.073 -7.087,3.651 -5.687,4.174 -5.49,4.247 -5.138,4.116 -4.948,3.966 -3.288,2.659 -1.648,1.327 0,0" /></g><g
           transform="translate(233.9888,635.6958)"
           id="g84"><path
             id="path86"
             style="fill:#231f20;fill-opacity:1;fill-rule:nonzero;stroke:none"
             d="M 0,0 C -1.176,1.827 -2.398,3.726 -3.617,5.618 -1.223,7.423 2.564,7.552 5.41,5.899 4.355,3.925 3.297,1.944 2.259,0 Z" /></g><g
           transform="translate(239.9507,631.6069)"
           id="g88"><path
             id="path90"
             style="fill:#231f20;fill-opacity:1;fill-rule:nonzero;stroke:none"
             d="M 0,0 C -0.92,1.079 -1.769,2.073 -2.694,3.159 -1.178,4.847 0.331,6.527 1.981,8.365 3.082,7.117 4.121,5.938 5.288,4.614 3.492,3.047 1.773,1.547 0,0" /></g><g
           transform="translate(214.373,631.4443)"
           id="g92"><path
             id="path94"
             style="fill:#231f20;fill-opacity:1;fill-rule:nonzero;stroke:none"
             d="M 0,0 C 1.514,-1.948 2.882,-3.71 4.311,-5.548 3.494,-6.294 2.711,-7.008 1.821,-7.82 0.066,-6.41 -1.696,-4.995 -3.634,-3.438 -2.409,-2.278 -1.267,-1.199 0,0" /></g><g
           transform="translate(220.8804,636.1123)"
           id="g96"><path
             id="path98"
             style="fill:#231f20;fill-opacity:1;fill-rule:nonzero;stroke:none"
             d="m 0,0 c 0.966,-2.391 1.798,-4.451 2.648,-6.554 -0.642,-0.442 -1.22,-0.84 -1.64,-1.13 -1.711,1.568 -3.374,3.093 -5.262,4.824 C -2.76,-1.856 -1.468,-0.987 0,0" /></g><g
           transform="translate(208.1729,620.541)"
           id="g100"><path
             id="path102"
             style="fill:#231f20;fill-opacity:1;fill-rule:nonzero;stroke:none"
             d="M 0,0 C 0.314,1.776 0.577,3.264 0.874,4.942 3.049,3.965 4.97,3.119 6.868,2.226 7.073,2.13 7.306,1.707 7.247,1.525 7.144,1.203 6.855,0.735 6.595,0.701 4.546,0.432 2.486,0.251 0,0" /></g></g></g></g></svg>