<?xml version="1.0" encoding="UTF-8" standalone="no"?>
<svg
   xmlns:dc="http://purl.org/dc/elements/1.1/"
   xmlns:cc="http://creativecommons.org/ns#"
   xmlns:rdf="http://www.w3.org/1999/02/22-rdf-syntax-ns#"
   xmlns:svg="http://www.w3.org/2000/svg"
   xmlns="http://www.w3.org/2000/svg"
   viewBox="0 0 816 1056"
   height="1056"
   width="816"
   xml:space="preserve"
   id="svg2"
   version="1.1"><metadata
     id="metadata8"><rdf:RDF><cc:Work
         rdf:about=""><dc:format>image/svg+xml</dc:format><dc:type
           rdf:resource="http://purl.org/dc/dcmitype/StillImage" /></cc:Work></rdf:RDF></metadata><defs
     id="defs6"><clipPath
       id="clipPath18"
       clipPathUnits="userSpaceOnUse"><path
         id="path16"
         d="M 0,792 H 612 V 0 H 0 Z" /></clipPath></defs><g
     transform="matrix(1.3333333,0,0,-1.3333333,0,1056)"
     id="g10"><g
       id="g12"><g
         clip-path="url(#clipPath18)"
         id="g14"><g
           transform="translate(279.7773,594.501)"
           id="g20"><path
             id="path22"
             style="fill:#ff8ad7;fill-opacity:1;fill-rule:nonzero;stroke:none"
             d="m 0,0 c -0.39,-1.554 -0.695,-2.3 -1.503,-3.629 -0.247,-0.407 -4.923,-8.701 -8.257,-11.486 -0.379,-0.316 -1.609,-0.966 -1.819,-1.403 -0.352,-0.734 0.05,-1.343 -0.577,-2.161 -1.038,-1.353 -9.72,-1.654 -11.829,-1.654 -0.193,0 -0.331,0.003 -0.403,0.007 -0.071,0.005 -0.143,0.007 -0.216,0.007 -1.555,0 -3.524,-0.964 -5.081,-1.158 -2.206,-0.276 -4.272,-0.607 -6.509,-0.624 -1.448,-0.011 -3.116,-1.275 -4.494,-1.339 -0.007,-10e-4 -0.014,-10e-4 -0.02,-10e-4 -0.308,0 -0.519,0.32 -0.408,0.61 l 0.084,0.22 c 0.115,0.298 -0.11,0.608 -0.415,0.608 -0.021,0 -0.042,-0.002 -0.063,-0.005 -0.257,-0.035 -0.512,-0.068 -0.742,-0.068 -0.488,0 -0.868,0.148 -0.936,0.736 -0.064,0.553 1.094,1.397 2.026,2 -0.065,0.037 -0.14,0.06 -0.22,0.06 -0.019,0 -0.039,-10e-4 -0.058,-0.004 -0.258,-0.035 -0.512,-0.068 -0.743,-0.068 -0.488,0 -0.868,0.148 -0.936,0.736 -0.092,0.802 2.383,2.216 3.015,2.618 3.165,2.02 8.931,1.09 12.499,1.766 0,0 -0.166,2.864 -0.258,4.348 -0.074,1.18 -0.831,2.233 -0.867,3.402 -0.102,3.475 0.091,6.83 -3.686,8.491 -1.394,0.613 -3.051,0.821 -4.4,1.563 -1.409,0.775 -1.792,1.093 -2.811,1.895 -0.573,0.45 -1.054,0.575 -1.519,0.575 -0.591,0 -1.158,-0.203 -1.856,-0.203 -0.216,0 -0.446,0.02 -0.692,0.071 -1.126,0.235 -2.394,1.029 -3.356,1.61 -2.31,1.395 -4.331,2.903 -6.479,4.628 -2.199,1.766 -5.299,3.221 -7.893,4.292 -0.89,0.367 -2.798,0.091 -3.284,1.058 -0.131,0.262 -0.027,0.708 0.182,1.154 -0.057,0.063 -0.108,0.13 -0.147,0.208 -0.292,0.581 0.572,2.068 1.172,2.451 0.382,0.244 0.886,0.317 1.364,0.317 0.475,0 0.925,-0.073 1.204,-0.122 1.573,-0.275 2.453,-1.113 3.8,-1.865 1.912,-1.07 7.504,-2.282 9.814,-3.278 0.277,0.881 0.176,2.06 -0.276,3.154 -0.739,1.792 -1.319,2.415 -2.314,2.415 -0.523,0 -1.16,-0.172 -1.996,-0.437 -0.676,-0.214 -1.832,-0.445 -2.854,-0.445 -0.534,0 -1.032,0.063 -1.406,0.224 -1.331,0.575 -1.669,1.659 -3.174,2.084 -1.658,0.47 -5.736,1.818 -5.278,4.245 0.461,2.443 4.586,4.671 6.261,6.303 1.333,1.296 2.026,1.259 3.565,1.909 0.938,0.396 1.874,1.263 2.814,1.813 1.279,0.75 2.965,0.761 4.122,1.439 0.937,0.55 1.113,1.824 2.155,2.305 0.239,0.109 0.479,0.159 0.721,0.159 1.778,0 3.588,-2.69 4.581,-3.831 1.299,-1.492 2.638,-3.026 3.938,-4.442 0.727,-0.791 1.096,-1.732 1.792,-2.425 0.113,-0.113 0.685,-0.56 1.378,-1.073 0.179,-0.133 2.302,-1.692 4.564,-1.749 0.05,-0.002 0.099,-0.002 0.15,-0.002 2.264,0 5.44,1.242 5.608,1.295 1.099,0.339 2.399,0.491 3.763,0.491 2.68,0 5.604,-0.591 7.726,-1.525 0.605,-0.298 1.204,-0.64 1.798,-1.035 3.06,-2.03 5.433,-4.304 7.368,-7.568 1.023,-1.725 1.792,-3.38 2.388,-5.228 C 0.216,14.009 0.221,13.594 0.43,13.182 0.619,12.809 1.187,10.155 1.179,9.187 1.178,9.063 1.179,8.94 1.181,8.817 1.236,5.75 0.745,2.974 0,0 m -77.313,24.503 c 0.268,1.417 2.943,5.057 4.549,7.241 3.88,5.277 8.278,11.259 8.275,18.228 -0.002,7.113 -4.487,12.81 -8.445,17.836 -1.537,1.952 -4.095,5.202 -4.396,6.509 0.035,10.029 4.779,18.18 6.236,20.446 0.111,0.172 0.186,0.293 0.226,0.36 5.004,8.29 14.147,13.238 24.458,13.238 9.85,0 18.625,-4.638 23.472,-12.408 4.609,-7.39 5.168,-15.66 1.759,-26.024 -3.141,-9.552 -8.571,-17.975 -16.137,-25.068 -1.749,1.805 -4.251,3.67 -7.661,3.67 v 0 c -1.269,0 -2.498,-0.27 -3.653,-0.803 -1.589,-0.733 -2.654,-1.799 -3.34,-2.665 -0.962,-0.249 -2.242,-0.632 -3.545,-1.396 -0.666,-0.39 -1.238,-0.803 -1.697,-1.135 -0.155,-0.112 -0.354,-0.256 -0.483,-0.343 -0.183,-0.072 -0.348,-0.129 -0.5,-0.184 -1.499,-0.536 -3.122,-1.216 -5.041,-3.083 -0.197,-0.188 -0.86,-0.688 -1.299,-1.018 -2.588,-1.95 -6.132,-4.619 -6.959,-9.003 -0.194,-1.031 -0.396,-3.274 0.783,-5.657 -0.698,-1.396 -1.11,-2.985 -1.007,-4.605 -0.083,-0.785 -0.041,-1.493 0.063,-2.122 -1.41,-1.121 -2.758,-2.189 -3.993,-3.166 -0.919,3.166 -1.651,6.975 -1.665,11.152 M 8.179,9.107 c 0.01,1.292 -0.449,4.446 -1.161,6.425 -0.057,0.265 -0.143,0.633 -0.28,1.058 -0.741,2.301 -1.703,4.414 -3.027,6.647 -2.343,3.951 -5.368,7.075 -9.519,9.83 -0.824,0.548 -1.691,1.047 -2.576,1.483 l -0.135,0.066 -0.137,0.06 c -3.059,1.347 -6.903,2.119 -10.547,2.119 -2.137,0 -4.097,-0.27 -5.825,-0.802 -0.062,-0.019 -0.219,-0.069 -0.46,-0.157 -1.685,-0.613 -2.615,-0.773 -2.951,-0.814 -0.201,0.076 -0.507,0.238 -0.698,0.374 -0.202,0.149 -0.378,0.282 -0.521,0.392 -0.01,0.015 -0.02,0.03 -0.029,0.045 -0.341,0.531 -0.855,1.332 -1.613,2.159 -0.248,0.269 -0.505,0.561 -0.755,0.84 8.438,7.851 14.811,17.456 18.476,28.597 3.696,11.237 3.908,22.37 -2.572,32.758 -6.745,10.814 -18.474,16.174 -30.259,16.174 -12.192,0 -24.444,-5.736 -31.306,-17.104 -0.375,-0.621 -7.615,-11.147 -7.614,-25.055 0,-7.402 12.839,-15.816 12.841,-24.233 0.003,-8.417 -12.83,-17.974 -12.825,-25.377 0.01,-13.539 6.211,-23.578 6.237,-24.121 0,0 5.351,4.181 12.589,9.932 1.226,-0.462 2.345,-0.605 2.978,-0.677 2.565,-1.091 4.447,-2.111 5.597,-3.036 1.957,-1.571 4.349,-3.414 7.245,-5.163 l 0.166,-0.1 c 1.253,-0.759 3.148,-1.905 5.381,-2.37 0.696,-0.144 1.408,-0.218 2.119,-0.218 0.177,0 0.347,0.005 0.511,0.013 0.607,-0.43 1.281,-0.852 2.302,-1.413 1.441,-0.793 2.863,-1.205 3.901,-1.505 0.151,-0.044 0.316,-0.092 0.473,-0.139 0.041,-0.527 0.057,-1.217 0.069,-1.736 l 0.019,-0.747 c 0.011,-0.353 0.04,-0.689 0.082,-1.01 -2.739,-0.213 -5.662,-0.763 -8.225,-2.399 l -0.182,-0.112 c -2.147,-1.322 -6.615,-4.072 -6.02,-9.211 0.01,-0.093 0.023,-0.185 0.036,-0.276 -0.159,-0.746 -0.208,-1.56 -0.106,-2.448 0.306,-2.65 1.856,-4.822 4.056,-5.993 1.391,-1.459 3.329,-2.304 5.378,-2.304 h 0.153 l 0.174,0.007 c 1.931,0.09 3.51,0.758 4.555,1.2 0.106,0.045 0.232,0.098 0.346,0.145 1.995,0.056 3.788,0.291 5.527,0.519 0.375,0.049 0.754,0.099 1.137,0.147 1.272,0.159 2.432,0.512 3.364,0.796 0.319,0.097 0.773,0.235 1.036,0.299 0.124,-0.003 0.268,-0.005 0.431,-0.005 1.14,0 4.066,0.074 6.98,0.352 4.989,0.475 8.291,1.289 10.403,4.042 0.652,0.85 1.068,1.694 1.336,2.458 2.675,2.237 5.935,6.651 9.69,13.121 L 4.5,-7.229 c 1.15,1.896 1.73,3.297 2.289,5.525 0.73,2.912 1.465,6.451 1.391,10.646 z" /></g><g
           transform="translate(280.9585,603.3184)"
           id="g24"><path
             id="path26"
             style="fill:#ffffff;fill-opacity:1;fill-rule:nonzero;stroke:none"
             d="m 0,0 c -0.002,0.123 -0.003,0.246 -0.002,0.369 0.008,0.969 -0.56,3.623 -0.749,3.996 -0.209,0.412 -0.214,0.826 -0.353,1.257 -0.596,1.847 -1.365,3.503 -2.388,5.228 -1.935,3.263 -4.308,5.537 -7.368,7.568 -0.594,0.394 -1.193,0.736 -1.798,1.034 -3.202,1.41 -8.23,2.039 -11.489,1.034 -0.172,-0.053 -3.487,-1.351 -5.758,-1.293 -2.262,0.058 -4.386,1.617 -4.564,1.749 -0.693,0.514 -1.265,0.96 -1.378,1.073 -0.696,0.694 -1.066,1.635 -1.792,2.426 -1.3,1.415 -2.639,2.949 -3.938,4.441 -1.128,1.297 -3.309,4.592 -5.302,3.672 -1.042,-0.48 -1.218,-1.755 -2.155,-2.304 -1.157,-0.678 -2.843,-0.689 -4.122,-1.439 -0.94,-0.55 -1.876,-1.417 -2.814,-1.813 -1.54,-0.65 -2.233,-0.613 -3.565,-1.91 -1.675,-1.631 -5.8,-3.859 -6.261,-6.302 -0.458,-2.427 3.62,-3.775 5.278,-4.245 1.505,-0.425 1.843,-1.51 3.174,-2.084 1.09,-0.471 3.23,-0.105 4.26,0.221 2.426,0.769 3.182,0.755 4.31,-1.978 0.452,-1.094 0.553,-2.273 0.275,-3.155 -2.309,0.997 -7.901,2.208 -9.814,3.278 -1.346,0.753 -2.226,1.591 -3.799,1.866 -0.56,0.099 -1.805,0.29 -2.568,-0.196 -0.6,-0.383 -1.464,-1.869 -1.172,-2.451 0.039,-0.077 0.09,-0.145 0.146,-0.207 -0.208,-0.446 -0.313,-0.893 -0.181,-1.154 0.486,-0.968 2.394,-0.691 3.284,-1.058 2.594,-1.071 5.694,-2.526 7.893,-4.292 2.147,-1.726 4.168,-3.234 6.479,-4.629 0.962,-0.58 2.23,-1.375 3.356,-1.609 1.666,-0.347 2.541,0.756 4.066,-0.444 1.02,-0.801 1.403,-1.119 2.811,-1.894 1.35,-0.742 3.007,-0.95 4.401,-1.564 3.777,-1.66 3.584,-5.015 3.686,-8.491 0.036,-1.168 0.792,-2.221 0.866,-3.402 0.093,-1.483 0.259,-4.348 0.259,-4.348 -3.568,-0.676 -9.334,0.255 -12.499,-1.765 -0.632,-0.403 -3.108,-1.817 -3.015,-2.619 0.1,-0.865 0.876,-0.777 1.678,-0.667 0.103,0.014 0.198,-0.01 0.279,-0.056 -0.932,-0.603 -2.09,-1.447 -2.026,-2.001 0.099,-0.865 0.876,-0.777 1.678,-0.667 0.337,0.046 0.6,-0.286 0.478,-0.603 l -0.084,-0.22 c -0.113,-0.297 0.109,-0.624 0.427,-0.61 1.379,0.064 3.047,1.328 4.495,1.34 2.237,0.016 4.303,0.348 6.509,0.624 1.629,0.203 3.712,1.25 5.296,1.151 0.861,-0.053 11.1,0.17 12.232,1.647 0.628,0.818 0.226,1.426 0.578,2.161 0.21,0.437 1.44,1.087 1.819,1.403 3.334,2.785 8.009,11.079 8.256,11.485 0.809,1.329 1.114,2.076 1.503,3.63 C -0.436,-5.844 0.055,-3.068 0,0" /></g><g
           transform="translate(175.1421,619.0874)"
           id="g28"><path
             id="path30"
             style="fill:#ff8ad7;fill-opacity:1;fill-rule:nonzero;stroke:none"
             d="m 0,0 c 0.001,-1.31 0.05,-2.588 0.141,-3.833 -0.894,0.732 -1.793,1.474 -2.69,2.212 -0.112,0.28 -0.224,0.56 -0.357,0.827 1.178,2.383 0.976,4.625 0.782,5.655 -0.827,4.385 -4.371,7.055 -6.959,9.004 -0.438,0.331 -1.102,0.83 -1.301,1.02 -1.917,1.866 -3.54,2.546 -5.039,3.082 -0.152,0.054 -0.317,0.112 -0.5,0.183 -0.128,0.088 -0.328,0.232 -0.483,0.344 -0.459,0.332 -1.031,0.745 -1.701,1.137 -1.299,0.762 -2.579,1.145 -3.541,1.394 -0.686,0.865 -1.751,1.932 -3.341,2.665 -1.155,0.533 -2.384,0.803 -3.652,0.803 -1.155,0 -2.204,-0.219 -3.157,-0.572 -6.906,7.484 -11.6,15.964 -13.966,25.29 -2.063,8.135 -1.138,16.067 2.604,22.335 3.532,5.915 9.25,10.009 16.538,11.839 2.249,0.564 4.576,0.851 6.916,0.851 9.896,0 19.143,-4.951 24.421,-12.998 -2.299,-5.247 -4.732,-12.87 -4.731,-21.624 0,-6.353 4.158,-11.633 7.826,-16.291 1.752,-2.226 5.015,-6.369 5.015,-7.943 C 12.826,23.663 9.591,19.263 7.659,16.635 3.891,11.51 -0.005,6.211 0,0 m -8.913,-6.541 c -0.485,-0.967 -2.393,-0.69 -3.283,-1.058 -2.594,-1.07 -5.694,-2.525 -7.893,-4.291 -2.148,-1.725 -4.169,-3.234 -6.479,-4.629 -0.962,-0.58 -2.23,-1.375 -3.356,-1.609 -0.246,-0.051 -0.475,-0.071 -0.692,-0.071 -0.698,0 -1.265,0.203 -1.856,0.203 -0.466,0 -0.946,-0.126 -1.519,-0.576 -1.019,-0.801 -1.402,-1.119 -2.811,-1.894 -1.349,-0.742 -3.006,-0.95 -4.4,-1.564 -3.777,-1.66 -3.584,-5.015 -3.686,-8.491 -0.036,-1.168 -0.793,-2.221 -0.866,-3.402 -0.093,-1.483 -0.259,-4.348 -0.259,-4.348 3.568,-0.675 9.334,0.255 12.499,-1.765 0.632,-0.403 3.107,-1.817 3.014,-2.619 -0.067,-0.587 -0.447,-0.735 -0.935,-0.735 -0.231,0 -0.485,0.033 -0.742,0.068 -0.02,0.003 -0.039,0.004 -0.059,0.004 -0.08,0 -0.155,-0.023 -0.22,-0.06 0.932,-0.603 2.09,-1.447 2.026,-2 -0.068,-0.588 -0.448,-0.736 -0.936,-0.736 -0.23,0 -0.485,0.032 -0.742,0.068 -0.021,0.003 -0.042,0.004 -0.062,0.004 -0.307,0 -0.531,-0.31 -0.416,-0.607 l 0.084,-0.22 c 0.111,-0.29 -0.101,-0.61 -0.408,-0.61 -0.006,0 -0.013,0 -0.02,0 -1.378,0.064 -3.046,1.329 -4.494,1.339 -2.237,0.017 -4.304,0.348 -6.51,0.624 -1.556,0.195 -3.525,1.159 -5.08,1.159 -0.073,0 -0.145,-0.002 -0.215,-0.007 -0.073,-0.005 -0.211,-0.007 -0.403,-0.007 -2.109,0 -10.792,0.301 -11.829,1.654 -0.628,0.818 -0.226,1.426 -0.579,2.161 -0.209,0.436 -1.439,1.087 -1.818,1.403 -3.334,2.785 -8.01,11.079 -8.257,11.486 -0.808,1.329 -1.113,2.075 -1.503,3.629 -0.745,2.974 -1.236,5.749 -1.181,8.817 0.002,0.123 0.003,0.246 0.002,0.369 -0.008,0.969 0.56,3.623 0.749,3.996 0.209,0.412 0.214,0.826 0.353,1.257 0.595,1.848 1.365,3.503 2.388,5.228 1.934,3.263 4.308,5.537 7.368,7.568 0.594,0.394 1.192,0.736 1.798,1.034 2.122,0.935 5.046,1.526 7.726,1.526 1.364,0 2.664,-0.153 3.763,-0.492 0.168,-0.052 3.344,-1.295 5.608,-1.295 0.05,0 0.1,10e-4 0.15,0.002 2.262,0.058 4.386,1.617 4.564,1.749 0.693,0.514 1.265,0.961 1.377,1.073 0.697,0.694 1.067,1.635 1.793,2.426 1.3,1.416 2.639,2.949 3.937,4.441 0.994,1.142 2.804,3.832 4.582,3.832 0.242,0 0.483,-0.05 0.721,-0.16 1.042,-0.48 1.217,-1.755 2.155,-2.304 1.157,-0.678 2.843,-0.689 4.122,-1.439 0.94,-0.55 1.875,-1.417 2.814,-1.814 1.539,-0.65 2.232,-0.612 3.564,-1.909 1.676,-1.631 5.802,-3.859 6.263,-6.302 0.457,-2.427 -3.622,-3.775 -5.279,-4.245 -1.505,-0.425 -1.843,-1.51 -3.174,-2.084 -0.374,-0.161 -0.872,-0.225 -1.406,-0.225 -1.022,0 -2.178,0.232 -2.854,0.446 -0.836,0.265 -1.473,0.437 -1.996,0.437 -0.995,0 -1.575,-0.623 -2.314,-2.415 -0.452,-1.094 -0.553,-2.273 -0.276,-3.154 2.31,0.995 7.902,2.207 9.815,3.277 1.346,0.753 2.226,1.591 3.798,1.866 0.28,0.049 0.73,0.121 1.205,0.121 0.478,0 0.982,-0.073 1.364,-0.317 0.599,-0.382 1.464,-1.87 1.172,-2.45 -0.039,-0.078 -0.091,-0.145 -0.147,-0.208 0.209,-0.446 0.313,-0.892 0.181,-1.155 M 20.825,25.383 C 20.823,33.8 7.984,42.214 7.984,49.615 c -0.001,9.875 3.648,18.044 5.899,22.175 0,0 -1.269,1.871 -1.666,2.537 -6.682,11.208 -19.091,17.909 -31.923,17.909 -2.954,0 -5.93,-0.355 -8.864,-1.092 -19.68,-4.941 -30.16,-23.351 -24.948,-43.899 2.768,-10.912 8.186,-20.347 15.51,-28.382 -0.032,-0.039 -0.066,-0.082 -0.096,-0.12 -0.148,-0.183 -0.281,-0.351 -0.399,-0.487 -1.308,-1.502 -2.582,-2.962 -3.813,-4.301 -0.76,-0.828 -1.274,-1.629 -1.615,-2.16 -0.009,-0.015 -0.019,-0.03 -0.028,-0.045 -0.147,-0.112 -0.328,-0.249 -0.538,-0.404 -0.179,-0.127 -0.487,-0.289 -0.687,-0.364 -0.303,0.038 -1.235,0.193 -2.946,0.816 -0.24,0.087 -0.396,0.137 -0.453,0.155 -1.735,0.534 -3.694,0.804 -5.831,0.804 -3.645,0 -7.489,-0.773 -10.548,-2.119 l -0.137,-0.06 -0.135,-0.067 c -0.885,-0.436 -1.752,-0.934 -2.577,-1.482 -4.15,-2.755 -7.175,-5.879 -9.518,-9.83 -1.324,-2.234 -2.286,-4.347 -3.028,-6.651 -0.137,-0.422 -0.222,-0.788 -0.279,-1.054 -0.712,-1.976 -1.172,-5.129 -1.161,-6.403 l -0.001,-0.175 c -0.075,-4.208 0.661,-7.747 1.39,-10.656 0.56,-2.23 1.139,-3.63 2.289,-5.527 l 0.077,-0.131 c 3.755,-6.47 7.015,-10.884 9.689,-13.122 0.269,-0.763 0.685,-1.607 1.337,-2.457 2.112,-2.753 5.413,-3.567 10.403,-4.043 2.915,-0.277 5.841,-0.351 6.981,-0.351 0.162,0 0.306,0.002 0.43,0.005 0.263,-0.064 0.717,-0.202 1.035,-0.299 0.933,-0.284 2.093,-0.637 3.364,-0.796 0.384,-0.048 0.763,-0.098 1.139,-0.147 1.739,-0.228 3.531,-0.463 5.527,-0.519 0.113,-0.047 0.239,-0.101 0.345,-0.145 1.045,-0.442 2.624,-1.11 4.537,-1.199 l 0.163,-0.008 h 0.182 c 2.049,0 3.987,0.844 5.378,2.304 2.2,1.171 3.75,3.342 4.056,5.995 0.102,0.887 0.053,1.701 -0.107,2.446 0.015,0.092 0.027,0.185 0.038,0.277 0.593,5.138 -3.874,7.888 -6.021,9.209 l -0.186,0.115 c -2.56,1.634 -5.482,2.184 -8.221,2.397 0.042,0.319 0.071,0.653 0.081,1.002 l 0.02,0.755 c 0.012,0.519 0.029,1.208 0.069,1.735 0.158,0.048 0.323,0.096 0.473,0.14 1.038,0.3 2.46,0.711 3.902,1.504 1.02,0.561 1.694,0.983 2.301,1.413 0.164,-0.007 0.334,-0.012 0.511,-0.012 0.711,0 1.423,0.073 2.116,0.217 2.235,0.465 4.13,1.612 5.384,2.37 l 0.164,0.1 c 2.898,1.75 5.289,3.593 7.246,5.164 1.151,0.924 3.033,1.944 5.598,3.035 1.252,0.144 4.41,0.567 6.523,3.192 3.711,-3.036 7.426,-6.067 11.127,-9.112 2.994,-2.465 4.561,-3.697 6.134,-3.697 0.16,0 0.32,0.013 0.481,0.038 C 13.439,-22.266 8.009,-12.664 8,0.006 7.995,7.409 20.828,16.965 20.825,25.383" /></g><g
           transform="translate(145.4297,417.6284)"
           id="g32"><path
             id="path34"
             style="fill:none;stroke:#ad422c;stroke-width:1;stroke-linecap:butt;stroke-linejoin:miter;stroke-miterlimit:10;stroke-dasharray:none;stroke-opacity:1"
             d="m 0,0 c 0,-11.598 -9.402,-21 -21,-21 -11.598,0 -21,9.402 -21,21 0,11.598 9.402,21 21,21 C -9.402,21 0,11.598 0,0 Z" /></g><g
           transform="translate(136.6299,417.6284)"
           id="g36"><path
             id="path38"
             style="fill:none;stroke:#ad422c;stroke-width:1;stroke-linecap:butt;stroke-linejoin:miter;stroke-miterlimit:10;stroke-dasharray:none;stroke-opacity:1"
             d="m 0,0 c 0,-6.738 -5.462,-12.2 -12.2,-12.2 -6.738,0 -12.2,5.462 -12.2,12.2 0,6.738 5.462,12.2 12.2,12.2 C -5.462,12.2 0,6.738 0,0 Z" /></g><path
           id="path40"
           style="fill:none;stroke:#231f20;stroke-width:1;stroke-linecap:butt;stroke-linejoin:miter;stroke-miterlimit:10;stroke-dasharray:none;stroke-opacity:1"
           d="m 130.43,431.128 h -12 v 138.5 h 12 z" /><g
           transform="translate(273.4297,417.6284)"
           id="g42"><path
             id="path44"
             style="fill:none;stroke:#ad422c;stroke-width:1;stroke-linecap:butt;stroke-linejoin:miter;stroke-miterlimit:10;stroke-dasharray:none;stroke-opacity:1"
             d="m 0,0 c 0,-11.598 -9.402,-21 -21,-21 -11.598,0 -21,9.402 -21,21 0,11.598 9.402,21 21,21 C -9.402,21 0,11.598 0,0 Z" /></g><g
           transform="translate(264.6299,417.6284)"
           id="g46"><path
             id="path48"
             style="fill:none;stroke:#ad422c;stroke-width:1;stroke-linecap:butt;stroke-linejoin:miter;stroke-miterlimit:10;stroke-dasharray:none;stroke-opacity:1"
             d="m 0,0 c 0,-6.738 -5.462,-12.2 -12.2,-12.2 -6.738,0 -12.2,5.462 -12.2,12.2 0,6.738 5.462,12.2 12.2,12.2 C -5.462,12.2 0,6.738 0,0 Z" /></g><path
           id="path50"
           style="fill:none;stroke:#231f20;stroke-width:1;stroke-linecap:butt;stroke-linejoin:miter;stroke-miterlimit:10;stroke-dasharray:none;stroke-opacity:1"
           d="m 258.43,431.128 h -12 v 138.5 h 12 z" /></g></g></g></svg>