<?xml version="1.0" encoding="utf-8"?>
<!-- Generator: Adobe Illustrator 22.1.0, SVG Export Plug-In . SVG Version: 6.00 Build 0)  -->
<svg version="1.1" id="Layer_1" xmlns="http://www.w3.org/2000/svg" xmlns:xlink="http://www.w3.org/1999/xlink" x="0px" y="0px"
	 viewBox="0 0 1700.8 1417.3" style="enable-background:new 0 0 1700.8 1417.3;" xml:space="preserve">
<style type="text/css">
	.st0{fill:none;stroke:#F0047F;stroke-miterlimit:10;}
</style>
<path class="st0" d="M-10.5-212.6c13.6,8.7,30.4,10.8,45.6,5.5L83-223.5c35.6-12,91.1-6.5,126.7,8.2c6.7,3.1,13.4,6.7,20.1,10.9
	c34.2,21.5,61,45.9,83.2,81.2c11.7,18.7,20.7,36.7,27.7,56.9c1.7,4.7,1.8,9.3,4.2,13.7c2.2,4.1,9.2,33.1,9.4,43.8
	c0,1.2,0.1,2.4,0.1,3.6c1,24.3-0.5,48.7-5.3,72.6c-7.4,36.9-8.9,44.9-20.7,65.6c-2.6,4.5-51.7,97.1-87.7,128.7
	c-4.1,3.6-17.4,11.1-19.6,16c-3.7,8.2,0.9,14.8-5.8,23.9c-12.1,16.6-124.7,21.9-134.2,21.6c-17.5-0.6-40.1,11.5-58,14.2
	c-24.2,3.7-46.9,7.9-71.5,8.7c-15.9,0.5-33.9,14.9-49.1,16c-3.5,0.3-6-3.3-4.9-6.6l0.9-2.4c1.2-3.5-1.7-7.1-5.4-6.5
	c-8.8,1.4-17.3,2.6-18.7-6.9c-0.9-6.1,11.6-15.7,21.7-22.6c-0.9-0.5-1.9-0.7-3.1-0.5c-8.8,1.4-17.3,2.6-18.7-6.9
	c-1.2-8.8,25.6-25.1,32.4-29.7c34.3-23.1,98-14.5,137.1-22.9c0,0-2.6-31.5-4.1-47.8c-1.1-13-9.8-24.4-10.5-37.2
	c-2.1-38.2-0.9-75.2-43-92.4c-15.5-6.4-33.8-8.2-48.9-16C-78,55.4-76.2,40-87.7,31.4c-17.1-12.8-32.5,11.7-50.9,8.3
	c-12.5-2.3-26.6-10.7-37.4-16.8c-25.8-14.7-48.5-30.7-72.6-49.1c-24.7-18.8-59.2-34-88.1-45c-9.9-3.8-30.8-0.2-36.4-10.7
	c-3.4-6.3,5.7-22.9,12.2-27.3c8.3-5.6,22-3.8,28.2-2.9c17.4,2.6,27.3,11.6,42.3,19.5c22.2,11.7,48.6,19,72.1,29.6
	c36.5,16.5,45.5-17.7,33-45.9c-13.2-29.8-21.5-29.7-48-20.6c-11.2,3.9-34.7,8.5-46.8,3.6c-14.8-5.9-18.8-17.8-35.5-22
	c-18.4-4.7-63.6-18.4-59.3-45.2c4.4-27,49.2-52.7,67.2-71.1c14.3-14.6,21.9-14.4,38.7-22c10.2-4.6,20.3-14.4,30.5-20.7
	c13.9-8.6,32.4-9.2,45-17c10.2-6.3,11.7-20.4,23.1-26c21.7-10.7,46.6,25,59.4,38.9c14.7,16.1,29.9,32.6,44.6,47.8
	c8.2,8.5,12.5,18.8,20.4,26.2c1.3,1.2,7.7,6,15.5,11.4L-10.5-212.6z"/>
</svg>
